<svg id="Layer_1" data-name="Layer 1" xmlns="http://www.w3.org/2000/svg" viewBox="0 0 646.77 525.55"><defs><style>.cls-1{fill:none}.cls-2{fill:#2d2e68}</style></defs><title>bg</title><path class="cls-1" d="M294.7 167.8a29 29 0 0 0 18.2 11.9l1.4.2a45.3 45.3 0 0 0-22.2 9.3 53.5 53.5 0 0 0 2.6-21.4zM62.8 6a41.8 41.8 0 0 0-5-6h5.6l-.2.7a22.5 22.5 0 0 0-.4 5.3zm57.5 4.8a28.4 28.4 0 0 0 6.5 3.2 45 45 0 0 0-13.5 11.8 51.6 51.6 0 0 0-14.1-3 22.5 22.5 0 0 0 8-22.8h3.5a28.3 28.3 0 0 0 9.6 10.8zm183.9 21.9a9.2 9.2 0 1 1-7.2-10.8 9.2 9.2 0 0 1 7.2 10.8zm70.6 61.9A24.2 24.2 0 1 1 368 61a24.2 24.2 0 0 1 6.7 33.6zm18 71.3a22.5 22.5 0 1 1-17.7-26.5 22.5 22.5 0 0 1 17.7 26.5zm35.5-91a11.6 11.6 0 1 1-3.1-16 11.6 11.6 0 0 1 3.1 16zM484.1 184a9.2 9.2 0 1 1-7.2-10.8 9.2 9.2 0 0 1 7.2 10.8zm141.7 245a11.6 11.6 0 1 1 3.2 16 11.6 11.6 0 0 1-3.2-16zM540 371.8a20 20 0 1 1 5.5 27.7 20 20 0 0 1-5.5-27.7zm-85.8-57.3a28.4 28.4 0 1 1 7.8 39.4 28.4 28.4 0 0 1-7.9-39.4zM438.5 175a15.8 15.8 0 1 1-12.5-18.6 15.8 15.8 0 0 1 12.5 18.6zm-70.2 82a36.8 36.8 0 1 1 10.1 51 36.8 36.8 0 0 1-10.1-51zM268 290.4a9.2 9.2 0 1 1 7.2 10.8 9.2 9.2 0 0 1-7.2-10.8zm-36.9 217.2a11.6 11.6 0 1 1 3.2 16 11.6 11.6 0 0 1-3.2-16zm-24-84.6a21.7 21.7 0 1 1 6 30 21.7 21.7 0 0 1-6-30zM183 338.5a31.8 31.8 0 1 1 8.8 44 31.8 31.8 0 0 1-8.8-44zm-57.8-34a19.2 19.2 0 1 1 22.6-15 19.2 19.2 0 0 1-22.5 15zM109 339.4a9.2 9.2 0 1 1 7.2 10.7 9.2 9.2 0 0 1-7.2-10.8zm-85.3-56a24.2 24.2 0 1 1 6.7 33.6 24.2 24.2 0 0 1-6.7-33.5zM3.6 124.5a37 37 0 0 0-3.4 6.2V121a34 34 0 0 0 7.8-2 37 37 0 0 0-4.5 5.4zM157 8.7l-2-.3a28.4 28.4 0 0 0 4.7-5.4 28.6 28.6 0 0 0 1.7-3h5.5a29.3 29.3 0 0 0-9.9 8.7zM69.3 21a22.4 22.4 0 0 0 7.7 5 52 52 0 0 0-6.8 3.1 42 42 0 0 0-1-8.2zm147 212.7a22.3 22.3 0 0 0 1.5 9.3l-.8-.5a42 42 0 0 0-6.4-3.5 51.6 51.6 0 0 0 5.7-5.3z" transform="translate(-.2)"/><circle class="cls-2" cx="418.8" cy="68.4" r="11.6" transform="rotate(-56.3 418.6 68.6)"/><circle class="cls-2" cx="354.6" cy="81.2" r="24.2" transform="rotate(-56.3 354.5 81.4)"/><circle class="cls-2" cx="398.9" cy="277.4" r="36.8" transform="rotate(-56.3 398.8 277.7)"/><circle class="cls-2" cx="477.8" cy="330.1" r="28.4" transform="rotate(-56.3 477.6 330.4)"/><circle class="cls-2" cx="556.6" cy="382.8" r="20" transform="rotate(-56.3 556.5 383)"/><circle class="cls-2" cx="635.5" cy="435.5" r="11.6" transform="rotate(-56.3 635.3 435.7)"/><path class="cls-2" d="M236.4 8.5a28.3 28.3 0 0 1-8.2-8.5h48l-.4.7a28.4 28.4 0 0 1-39.4 7.8z" transform="translate(-.2)"/><circle class="cls-2" cx="43.8" cy="296.8" r="24.2" transform="rotate(-56.3 43.7 297)"/><path class="cls-2" d="M10.7 346.3A11.6 11.6 0 0 1 .2 366.7v-21.6a11.5 11.5 0 0 1 10.5 1.2z" transform="translate(-.2)"/><circle class="cls-2" cx="209.4" cy="356.1" r="31.8" transform="rotate(-56.3 209.3 356.4)"/><circle class="cls-2" cx="225.2" cy="435.1" r="21.7" transform="rotate(-56.3 225 435.3)"/><circle class="cls-2" cx="240.8" cy="514" r="11.6" transform="rotate(-56.3 240.7 514.2)"/><circle class="cls-2" cx="277.1" cy="292.2" r="9.2" transform="rotate(-78.8 277 292.3)"/><circle class="cls-2" cx="475.1" cy="182.2" r="9.2" transform="rotate(-78.8 475 182.4)"/><circle class="cls-2" cx="422.9" cy="171.8" r="15.8" transform="rotate(-78.8 422.8 172)"/><circle class="cls-2" cx="370.8" cy="161.4" r="22.5" transform="rotate(-78.8 370.6 161.6)"/><path class="cls-2" d="M194.6 0H167a29.3 29.3 0 0 0-9.9 8.7l-2-.3a28.4 28.4 0 0 0 4.7-5.4 28.6 28.6 0 0 0 1.7-3h-50.7a28.3 28.3 0 0 0 9.6 10.8 28.4 28.4 0 0 0 6.5 3.2 45 45 0 0 0-13.5 11.8 51.6 51.6 0 0 0-14.1-3 22.5 22.5 0 0 0 8-22.8h-44l-.1.7a22.5 22.5 0 0 0-.4 5.3 41.8 41.8 0 0 0-5-6H.1v120.9A34 34 0 0 0 8 119a36.7 36.7 0 0 0-7.8 11.6v28.6a36.8 36.8 0 0 0 24.2 21.2 33.1 33.1 0 0 0 25 43 36.8 36.8 0 1 0 68.7 26.3 29.1 29.1 0 0 0 45.1-1.6l.4.1a41.9 41.9 0 1 0 65.8 7 22.5 22.5 0 0 0 28.5-32.1 53.5 53.5 0 0 0 18.6-10.5 45.2 45.2 0 1 0 47.7-32.9 29.2 29.2 0 0 0-10.2-57.4 36.8 36.8 0 0 0-40.8-61 22.4 22.4 0 0 0-23-23.2 45.2 45.2 0 0 0-47-31 29 29 0 0 0-8.6-7.1zm97.5 189.2a53.5 53.5 0 0 0 2.6-21.4 29 29 0 0 0 18.2 11.9l1.4.2a45.3 45.3 0 0 0-22.2 9.3zm-81.5 49.7a51.6 51.6 0 0 0 5.7-5.3 22.3 22.3 0 0 0 1.5 9.3l-.8-.5a42 42 0 0 0-6.4-3.5zM77 26a52 52 0 0 0-6.8 3.1 42 42 0 0 0-1-8.2A22.4 22.4 0 0 0 77 26z" transform="translate(-.2)"/><circle class="cls-2" cx="129" cy="285.8" r="19.2" transform="rotate(-78.8 128.9 285.9)"/><circle class="cls-2" cx="118" cy="341" r="9.2" transform="rotate(-78.8 117.9 341.2)"/><circle class="cls-2" cx="295.2" cy="30.9" r="9.2" transform="rotate(-78.8 295.1 31)"/><path class="cls-2" d="M7.8 201.5a25.2 25.2 0 0 1-7.6 49.7v-50a25.2 25.2 0 0 1 7.6.3z" transform="translate(-.2)"/></svg>