<svg id="Layer_1" data-name="Layer 1" xmlns="http://www.w3.org/2000/svg" viewBox="0 0 646.77 525.55"><defs><style>.cls-1{fill:none;}.cls-2{fill:#2d2e68;}</style></defs><title>bg</title><path class="cls-1" d="M294.7,167.82a29.06,29.06,0,0,0,18.18,11.88c.47.09.93.14,1.4.21a45.28,45.28,0,0,0-22.2,9.3A53.47,53.47,0,0,0,294.7,167.82Z" transform="translate(-0.23 0)"/><path class="cls-1" d="M62.8,6a41.81,41.81,0,0,0-5.08-6h5.63c-.05.24-.11.47-.16.71A22.49,22.49,0,0,0,62.8,6Z" transform="translate(-0.23 0)"/><path class="cls-1" d="M120.28,10.81A28.35,28.35,0,0,0,126.77,14a45,45,0,0,0-13.5,11.82,51.63,51.63,0,0,0-14.11-3,22.46,22.46,0,0,0,8-22.78h3.53A28.26,28.26,0,0,0,120.28,10.81Z" transform="translate(-0.23 0)"/><path class="cls-1" d="M304.19,32.7A9.16,9.16,0,1,1,297,21.93,9.16,9.16,0,0,1,304.19,32.7Zm70.57,61.89A24.19,24.19,0,1,1,368.09,61,24.19,24.19,0,0,1,374.76,94.59Zm18.07,71.26a22.51,22.51,0,1,1-17.68-26.46A22.51,22.51,0,0,1,392.83,165.85Zm35.52-91a11.55,11.55,0,1,1-3.19-16A11.55,11.55,0,0,1,428.35,74.82ZM484.12,184a9.16,9.16,0,1,1-7.19-10.77A9.16,9.16,0,0,1,484.12,184ZM625.84,429.08a11.55,11.55,0,1,1,3.19,16A11.55,11.55,0,0,1,625.84,429.08ZM540,371.72a20,20,0,1,1,5.51,27.71A20,20,0,0,1,540,371.72Zm-85.85-57.36A28.4,28.4,0,1,1,462,353.75,28.4,28.4,0,0,1,454.14,314.36ZM438.48,174.92A15.83,15.83,0,1,1,426,156.31,15.83,15.83,0,0,1,438.48,174.92ZM368.28,257a36.82,36.82,0,1,1,10.16,51.08A36.82,36.82,0,0,1,368.28,257ZM268.1,290.39a9.16,9.16,0,1,1,7.19,10.77A9.16,9.16,0,0,1,268.1,290.39ZM231.24,507.57a11.55,11.55,0,1,1,3.19,16A11.55,11.55,0,0,1,231.24,507.57ZM207.14,423a21.66,21.66,0,1,1,6,30A21.66,21.66,0,0,1,207.14,423ZM183,338.5a31.77,31.77,0,1,1,8.77,44.07A31.77,31.77,0,0,1,183,338.5Zm-57.77-33.94a19.17,19.17,0,1,1,22.54-15.06A19.17,19.17,0,0,1,125.27,304.56ZM109,339.25A9.16,9.16,0,1,1,116.23,350,9.15,9.15,0,0,1,109,339.25ZM23.71,283.37a24.19,24.19,0,1,1,6.67,33.55A24.19,24.19,0,0,1,23.71,283.37Z" transform="translate(-0.23 0)"/><path class="cls-1" d="M3.55,124.44A37,37,0,0,0,.23,130.6v-9.73A34.06,34.06,0,0,0,8,119,37,37,0,0,0,3.55,124.44Z" transform="translate(-0.23 0)"/><path class="cls-1" d="M157,8.72q-1-.18-2.09-.31A28.36,28.36,0,0,0,159.68,3a28.63,28.63,0,0,0,1.73-3h5.48A29.26,29.26,0,0,0,157,8.72Z" transform="translate(-0.23 0)"/><path class="cls-1" d="M69.26,20.92A22.37,22.37,0,0,0,77,26a52,52,0,0,0-6.76,3.12A42.08,42.08,0,0,0,69.26,20.92Z" transform="translate(-0.23 0)"/><path class="cls-1" d="M216.27,233.57a22.34,22.34,0,0,0,1.5,9.38l-.75-.53a42.09,42.09,0,0,0-6.45-3.52A51.64,51.64,0,0,0,216.27,233.57Z" transform="translate(-0.23 0)"/><circle class="cls-2" cx="418.75" cy="68.4" r="11.55" transform="translate(129 378.57) rotate(-56.25)"/><circle class="cls-2" cx="354.65" cy="81.15" r="24.19" transform="translate(89.92 330.94) rotate(-56.25)"/><circle class="cls-2" cx="398.9" cy="277.45" r="36.82" transform="translate(-53.64 454.98) rotate(-56.25)"/><circle class="cls-2" cx="477.75" cy="330.13" r="28.4" transform="translate(-62.4 543.96) rotate(-56.25)"/><circle class="cls-2" cx="556.6" cy="382.82" r="19.98" transform="translate(-71.16 632.93) rotate(-56.25)"/><circle class="cls-2" cx="635.45" cy="435.5" r="11.55" transform="translate(-79.93 721.9) rotate(-56.25)"/><path class="cls-2" d="M236.44,8.53A28.29,28.29,0,0,1,228.16,0h48.11c-.15.23-.29.46-.44.69A28.4,28.4,0,0,1,236.44,8.53Z" transform="translate(-0.23 0)"/><circle class="cls-2" cx="43.82" cy="296.8" r="24.19" transform="translate(-227.54 168.34) rotate(-56.25)"/><path class="cls-2" d="M10.72,346.33A11.55,11.55,0,0,1,.23,366.74v-21.6A11.53,11.53,0,0,1,10.72,346.33Z" transform="translate(-0.23 0)"/><circle class="cls-2" cx="209.45" cy="356.15" r="31.77" transform="translate(-203.27 332.44) rotate(-56.25)"/><circle class="cls-2" cx="225.15" cy="435.07" r="21.66" transform="translate(-261.92 380.57) rotate(-56.25)"/><circle class="cls-2" cx="240.85" cy="513.99" r="11.55" transform="translate(-320.56 428.69) rotate(-56.25)"/><circle class="cls-2" cx="277.08" cy="292.17" r="9.16" transform="translate(-63.76 506.93) rotate(-78.75)"/><circle class="cls-2" cx="475.14" cy="182.22" r="9.16" transform="translate(203.5 612.68) rotate(-78.75)"/><circle class="cls-2" cx="422.95" cy="171.84" r="15.83" transform="translate(171.68 553.14) rotate(-78.75)"/><circle class="cls-2" cx="370.76" cy="161.45" r="22.51" transform="translate(139.85 493.59) rotate(-78.75)"/><path class="cls-2" d="M194.62,0H166.88A29.26,29.26,0,0,0,157,8.72q-1-.18-2.09-.31A28.36,28.36,0,0,0,159.68,3a28.63,28.63,0,0,0,1.73-3H110.71a28.26,28.26,0,0,0,9.57,10.81A28.35,28.35,0,0,0,126.77,14a45,45,0,0,0-13.5,11.82,51.63,51.63,0,0,0-14.11-3,22.46,22.46,0,0,0,8-22.78H63.35c-.05.24-.11.47-.16.71A22.49,22.49,0,0,0,62.8,6a41.81,41.81,0,0,0-5.08-6H.23V120.88A34.06,34.06,0,0,0,8,119,36.71,36.71,0,0,0,.23,130.6v28.58a36.81,36.81,0,0,0,24.21,21.23,33.13,33.13,0,0,0,25,42.9,36.83,36.83,0,1,0,68.7,26.43,29.1,29.1,0,0,0,45.07-1.6l.34.1a41.88,41.88,0,1,0,65.83,7,22.47,22.47,0,0,0,28.55-32.14,53.47,53.47,0,0,0,18.57-10.54,45.23,45.23,0,1,0,47.72-32.83A29.17,29.17,0,0,0,314,122.27a36.83,36.83,0,0,0-40.75-60.9,22.43,22.43,0,0,0-23-23.28,45.21,45.21,0,0,0-47-31A29,29,0,0,0,194.62,0Zm97.46,189.2a53.47,53.47,0,0,0,2.62-21.39,29.06,29.06,0,0,0,18.18,11.88c.47.09.93.14,1.4.21A45.28,45.28,0,0,0,292.08,189.2Zm-81.5,49.69a51.64,51.64,0,0,0,5.69-5.32,22.34,22.34,0,0,0,1.5,9.38l-.75-.53A42.09,42.09,0,0,0,210.58,238.89ZM77,26a52,52,0,0,0-6.76,3.12,42.08,42.08,0,0,0-1-8.2A22.37,22.37,0,0,0,77,26Z" transform="translate(-0.23 0)"/><circle class="cls-2" cx="129.01" cy="285.76" r="19.17" transform="translate(-176.66 356.54) rotate(-78.75)"/><circle class="cls-2" cx="118.01" cy="341.04" r="9.16" transform="translate(-239.73 390.25) rotate(-78.75)"/><circle class="cls-2" cx="295.21" cy="30.91" r="9.16" transform="translate(207.07 314.42) rotate(-78.75)"/><path class="cls-2" d="M7.85,201.51A25.17,25.17,0,0,1,.23,251.23V201.17A25.16,25.16,0,0,1,7.85,201.51Z" transform="translate(-0.23 0)"/></svg>