<svg id="Layer_1" data-name="Layer 1" xmlns="http://www.w3.org/2000/svg" viewBox="0 0 375.23 287.97"><defs><style>.cls-1{fill:#067bc2}.cls-2{fill:#ba1200}.cls-3{fill:#fdfffc}.cls-4{fill:#f3a712}</style></defs><title>compression-ratios</title><path class="cls-1" d="M63.61 3.58v255.25h6.62V3.33h-6.62v.25zm25.5 153.01v102.24h6.62V156.34h-6.62v.25zm25.5 2.54v99.7h6.62v-99.95h-6.62v.25zm25.5 2.56v97.14h6.62v-97.39h-6.62v.25zm25.5 5.09v92.05h6.62v-92.3h-6.62v.25zm25.5 2.56v89.49h6.62v-89.74h-6.62v.25zm25.5 0v89.49h6.62v-89.74h-6.62v.25zm25.5 0v89.49h6.62v-89.74h-6.62v.25zm25.5 0v89.49h6.62v-89.74h-6.62v.25zm25.5-.25v89.74h6.62v-89.74h-6.62z"/><path class="cls-2" d="M56.81 3.58v255.25h6.62V3.33h-6.62v.25zm25.5 0v255.25h6.62V3.33h-6.62v.25zm25.5 0v255.25h6.62V3.33h-6.62v.25zm25.5 0v255.25h6.62V3.33h-6.62v.25zm25.5 0v255.25h6.62V3.33h-6.62v.25zm25.5 0v255.25h6.62V3.33h-6.62v.25zm25.5 0v255.25h6.62V3.33h-6.62v.25zm25.5 0v255.25h6.62V3.33h-6.62v.25zm25.5 0v255.25h6.62V3.33h-6.62v.25zm25.5-.25v255.5h6.62V3.33h-6.62z"/><path class="cls-3" d="M50.01 3.58v255.25h6.62V3.33h-6.62v.25zm25.5 0v255.25h6.62V3.33h-6.62v.25zm25.5 0v255.25h6.62V3.33h-6.62v.25zm25.5 0v255.25h6.62V3.33h-6.62v.25zm25.5 0v255.25h6.62V3.33h-6.62v.25zm25.5 0v255.25h6.62V3.33h-6.62v.25zm25.5 0v255.25h6.62V3.33h-6.62v.25zm25.5 0v255.25h6.62V3.33h-6.62v.25zm25.5 0v255.25h6.62V3.33h-6.62v.25zm25.5-.25v255.5h6.62V3.33h-6.62z"/><path d="M47.87 258.58v-6.37h-1v6.37"/><path class="cls-4" d="M27.39 256a2.45 2.45 0 0 1 2.14-1q2.89 0 2.89 4.1a5.37 5.37 0 0 1-.7 3.08 2.48 2.48 0 0 1-2.17 1q-2.87 0-2.87-4.07a5.44 5.44 0 0 1 .71-3.11zm2.17.73q-.4 0-.57.51A10.39 10.39 0 0 0 29 261q.17.51.57.5t.56-.52a7.07 7.07 0 0 0 .16-1.85 6.76 6.76 0 0 0-.17-1.84q-.12-.57-.56-.57zM35 255a1.88 1.88 0 0 1 1.52.67 3.34 3.34 0 0 1 0 3.67 2 2 0 0 1-3 0 2.87 2.87 0 0 1-.54-1.85 2.8 2.8 0 0 1 .53-1.82A1.82 1.82 0 0 1 35 255zm0 1.33c-.14 0-.25.09-.32.28a3 3 0 0 0-.1.9 2.92 2.92 0 0 0 .1.9c.07.19.17.28.31.28s.25-.09.31-.28a2.94 2.94 0 0 0 .1-.91q.08-1.17-.32-1.17zm4.4-1.21h1.61l-4.41 8h-1.53zm1.62 3.05a1.88 1.88 0 0 1 1.52.67 3.32 3.32 0 0 1 0 3.66 2 2 0 0 1-3 0 2.89 2.89 0 0 1-.54-1.85 2.78 2.78 0 0 1 .53-1.81 1.82 1.82 0 0 1 1.56-.67zm0 1.33q-.21 0-.31.28a2.88 2.88 0 0 0-.1.9q0 1.18.41 1.18t.41-1.18q.11-1.18-.31-1.18zm-15.15-49.2v1.77H20.1v-1.41l1.94-2q.85-.89 1.09-1.2a2.65 2.65 0 0 0 .35-.54 1.23 1.23 0 0 0 .1-.51.59.59 0 0 0-.2-.46.82.82 0 0 0-.57-.18 1.53 1.53 0 0 0-.74.21 5.24 5.24 0 0 0-.89.65L20 205.28a6.13 6.13 0 0 1 1-.79 4.07 4.07 0 0 1 2-.49 2.81 2.81 0 0 1 1.92.6 1.9 1.9 0 0 1 .74 1.57 3 3 0 0 1-.48 1.65 5.64 5.64 0 0 1-.66.82q-.41.43-1.71 1.59v.05zm1.52-5.3a2.45 2.45 0 0 1 2.14-1q2.89 0 2.89 4.1a5.37 5.37 0 0 1-.7 3.08 2.48 2.48 0 0 1-2.17 1q-2.87 0-2.87-4.07a5.44 5.44 0 0 1 .71-3.11zm2.17.73q-.4 0-.57.51A10.39 10.39 0 0 0 29 210q.17.51.57.5t.56-.52a7.07 7.07 0 0 0 .16-1.85 6.76 6.76 0 0 0-.17-1.84q-.12-.57-.56-.57zM35 204a1.88 1.88 0 0 1 1.52.67 3.34 3.34 0 0 1 0 3.67 2 2 0 0 1-3 0 2.87 2.87 0 0 1-.54-1.85 2.8 2.8 0 0 1 .53-1.82A1.82 1.82 0 0 1 35 204zm0 1.33c-.14 0-.25.09-.32.28a3 3 0 0 0-.1.9 2.92 2.92 0 0 0 .1.9c.07.19.17.28.31.28s.25-.09.31-.28a2.94 2.94 0 0 0 .1-.91q.08-1.17-.32-1.17zm4.4-1.21h1.61l-4.41 8h-1.53zm1.62 3.05a1.88 1.88 0 0 1 1.52.67 3.32 3.32 0 0 1 0 3.66 2 2 0 0 1-3 0 2.89 2.89 0 0 1-.54-1.85 2.78 2.78 0 0 1 .53-1.81 1.82 1.82 0 0 1 1.56-.67zm0 1.33q-.21 0-.31.28a2.88 2.88 0 0 0-.1.9q0 1.18.41 1.18t.41-1.18q.11-1.18-.31-1.18zm-14.89-50.58v1.6h-.88v1.54h-2.12v-1.54H20v-1.58l3.31-4.83h2v4.81zm-3 0v-2.09h-.06a4.85 4.85 0 0 1-.42.79l-.88 1.31zm4.26-3.92a2.45 2.45 0 0 1 2.14-1q2.89 0 2.89 4.1a5.37 5.37 0 0 1-.7 3.08 2.48 2.48 0 0 1-2.17 1q-2.87 0-2.87-4.07a5.44 5.44 0 0 1 .71-3.11zm2.17.73q-.4 0-.57.51A10.39 10.39 0 0 0 29 159q.17.51.57.5t.56-.52a7.07 7.07 0 0 0 .16-1.85 6.76 6.76 0 0 0-.17-1.84q-.12-.57-.56-.57zM35 153a1.88 1.88 0 0 1 1.52.67 3.34 3.34 0 0 1 0 3.67 2 2 0 0 1-3 0 2.87 2.87 0 0 1-.54-1.85 2.8 2.8 0 0 1 .53-1.82A1.82 1.82 0 0 1 35 153zm0 1.33c-.14 0-.25.09-.32.28a3 3 0 0 0-.1.9 2.92 2.92 0 0 0 .1.9c.07.19.17.28.31.28s.25-.09.31-.28a2.94 2.94 0 0 0 .1-.91q.08-1.17-.32-1.17zm4.4-1.21h1.61l-4.41 8h-1.53zm1.62 3.05a1.88 1.88 0 0 1 1.52.67 3.32 3.32 0 0 1 0 3.66 2 2 0 0 1-3 0 2.89 2.89 0 0 1-.54-1.85 2.78 2.78 0 0 1 .53-1.81 1.82 1.82 0 0 1 1.56-.67zm0 1.33q-.21 0-.31.28a2.88 2.88 0 0 0-.1.9q0 1.18.41 1.18t.41-1.18q.11-1.18-.31-1.18zm-16.75-53.83a2.33 2.33 0 0 0-1.61.48 2.13 2.13 0 0 0-.57 1.54h.07a1.64 1.64 0 0 1 1.56-.92 2.06 2.06 0 0 1 1.66.68 2.91 2.91 0 0 1 .58 1.95 2.77 2.77 0 0 1-.74 2 2.81 2.81 0 0 1-2.11.76 2.73 2.73 0 0 1-2.16-.91 3.79 3.79 0 0 1-.79-2.56 5.1 5.1 0 0 1 1-3.57 4.12 4.12 0 0 1 3.15-1.12 7.62 7.62 0 0 1 1.14.1v1.68a6.6 6.6 0 0 0-1.18-.11zm-2 3.61a1.51 1.51 0 0 0 .22.86.71.71 0 0 0 1.15.06 1.31 1.31 0 0 0 .21-.81q0-1-.76-1a.77.77 0 0 0-.6.25.88.88 0 0 0-.2.64zm5.12-4.28a2.45 2.45 0 0 1 2.14-1q2.89 0 2.89 4.1a5.37 5.37 0 0 1-.7 3.08 2.48 2.48 0 0 1-2.17 1q-2.87 0-2.87-4.07a5.44 5.44 0 0 1 .71-3.11zm2.17.73q-.4 0-.57.51A10.39 10.39 0 0 0 29 108q.17.5.57.5t.56-.52a7.06 7.06 0 0 0 .16-1.85 6.76 6.76 0 0 0-.17-1.84q-.12-.57-.56-.57zM35 102a1.88 1.88 0 0 1 1.52.67 3.34 3.34 0 0 1 0 3.67 2 2 0 0 1-3 0 2.87 2.87 0 0 1-.54-1.85 2.8 2.8 0 0 1 .53-1.82A1.82 1.82 0 0 1 35 102zm0 1.33c-.14 0-.25.09-.32.28a3 3 0 0 0-.1.9 2.92 2.92 0 0 0 .1.9c.07.19.17.28.31.28s.25-.09.31-.28a2.94 2.94 0 0 0 .1-.91q.08-1.17-.32-1.17zm4.4-1.21h1.61l-4.41 8h-1.53zm1.62 3.05a1.88 1.88 0 0 1 1.52.67 3.32 3.32 0 0 1 0 3.66 2 2 0 0 1-3 0 2.89 2.89 0 0 1-.54-1.85 2.78 2.78 0 0 1 .53-1.81 1.82 1.82 0 0 1 1.56-.67zm0 1.33q-.21 0-.31.28a2.88 2.88 0 0 0-.1.9q0 1.18.41 1.18t.41-1.18q.11-1.18-.31-1.18zM21.09 51.51a3.33 3.33 0 0 1 2-.51 3.28 3.28 0 0 1 2 .51 1.67 1.67 0 0 1 .7 1.44 2.1 2.1 0 0 1-1.37 1.93 3.87 3.87 0 0 1 1.24 1 1.81 1.81 0 0 1 .28 1.12 1.94 1.94 0 0 1-.76 1.64 3.48 3.48 0 0 1-2.15.58 3.47 3.47 0 0 1-2.14-.57 1.93 1.93 0 0 1-.75-1.65 2 2 0 0 1 .34-1.19 2.91 2.91 0 0 1 1.12-.88 2.34 2.34 0 0 1-1.21-2 1.65 1.65 0 0 1 .7-1.42zm1 5.38a.67.67 0 0 0 .24.54 1 1 0 0 0 .66.2q1 0 1-.7a.82.82 0 0 0-.22-.53 3.05 3.05 0 0 0-.74-.57q-.92.47-.92 1.06zm1.44-3.33a.68.68 0 0 0 .14-.43.51.51 0 0 0-.19-.41.69.69 0 0 0-.46-.16.7.7 0 0 0-.47.16.52.52 0 0 0-.19.41q0 .48.63.83a1.84 1.84 0 0 0 .56-.41zM27.39 52a2.45 2.45 0 0 1 2.14-1q2.89 0 2.89 4.1a5.37 5.37 0 0 1-.7 3.08 2.48 2.48 0 0 1-2.17 1q-2.87 0-2.87-4.07a5.44 5.44 0 0 1 .71-3.11zm2.17.73q-.4 0-.57.51a6.82 6.82 0 0 0-.17 1.87A6.79 6.79 0 0 0 29 57q.17.5.57.5t.56-.52a7.06 7.06 0 0 0 .16-1.85 6.76 6.76 0 0 0-.17-1.84q-.12-.57-.56-.57zM35 51a1.88 1.88 0 0 1 1.52.67 3.34 3.34 0 0 1 0 3.67 2 2 0 0 1-3 0 2.87 2.87 0 0 1-.52-1.87 2.8 2.8 0 0 1 .53-1.82A1.82 1.82 0 0 1 35 51zm0 1.33c-.14 0-.25.09-.32.28a3 3 0 0 0-.1.9 2.92 2.92 0 0 0 .1.9c.07.19.17.28.31.28s.25-.09.31-.28a2.94 2.94 0 0 0 .1-.91q.08-1.17-.32-1.17zm4.4-1.21h1.61l-4.41 8h-1.53zm1.62 3.05a1.88 1.88 0 0 1 1.52.67 3.32 3.32 0 0 1 0 3.66 2 2 0 0 1-3 0 2.89 2.89 0 0 1-.54-1.85 2.78 2.78 0 0 1 .53-1.81 1.82 1.82 0 0 1 1.56-.67zm0 1.33q-.21 0-.31.28a2.88 2.88 0 0 0-.1.9q0 1.18.41 1.18t.41-1.18q.11-1.18-.31-1.18zM18.37.11v8h-2.18V2.46a5.06 5.06 0 0 1-.5.51l-.9.74-1.09-1.37L16.43.11zm2.5.89A2.45 2.45 0 0 1 23 0q2.9 0 2.9 4.1a5.37 5.37 0 0 1-.7 3.08 2.48 2.48 0 0 1-2.17 1q-2.87 0-2.87-4.07A5.44 5.44 0 0 1 20.87 1zm2.13.72q-.4 0-.57.51a6.82 6.82 0 0 0-.13 1.87 6.79 6.79 0 0 0 .17 1.9q.17.5.57.5t.56-.52a7.06 7.06 0 0 0 .16-1.85 6.76 6.76 0 0 0-.17-1.84q-.16-.57-.59-.57zM27.39 1a2.45 2.45 0 0 1 2.14-1q2.89 0 2.89 4.1a5.37 5.37 0 0 1-.7 3.08 2.48 2.48 0 0 1-2.17 1q-2.87 0-2.87-4.07A5.44 5.44 0 0 1 27.39 1zm2.17.73q-.4 0-.57.51a6.82 6.82 0 0 0-.17 1.87A6.79 6.79 0 0 0 29 6q.17.5.57.5t.56-.52a7.06 7.06 0 0 0 .16-1.85 6.76 6.76 0 0 0-.17-1.84q-.12-.57-.56-.57zM35 0a1.88 1.88 0 0 1 1.52.67 2.78 2.78 0 0 1 .56 1.84 2.81 2.81 0 0 1-.54 1.83 2 2 0 0 1-3 0A2.87 2.87 0 0 1 33 2.47a2.8 2.8 0 0 1 .55-1.82A1.82 1.82 0 0 1 35 0zm0 1.33c-.14 0-.25.09-.32.28a3 3 0 0 0-.1.9 2.92 2.92 0 0 0 .1.9c.07.19.17.28.31.28s.25-.09.31-.28a2.94 2.94 0 0 0 .1-.91q.08-1.17-.32-1.17zM39.48.11h1.61l-4.41 8h-1.61zm1.62 3.05a1.88 1.88 0 0 1 1.52.67 2.78 2.78 0 0 1 .56 1.84 2.78 2.78 0 0 1-.54 1.82 2 2 0 0 1-3 0 2.89 2.89 0 0 1-.54-1.85 2.78 2.78 0 0 1 .53-1.81 1.82 1.82 0 0 1 1.46-.66zm0 1.33q-.21 0-.31.28a2.88 2.88 0 0 0-.1.9q0 1.18.41 1.18t.41-1.18q.03-1.17-.39-1.17z"/><path d="M47.37 259.08h6.38v-1h-6.38"/><path class="cls-4" d="M302.87 252.21h-1v5.87h-24.5v-5.87h-1v5.87h-24.5v-5.87h-1v5.87h-24.5v-5.87h-1v5.87h-24.5v-5.87h-1v5.87h-24.5v-5.87h-1v5.87h-24.5v-5.87h-1v5.87h-24.5v-5.87h-1v5.87h-24.5v-5.87h-1v5.87h-24.5v-5.87h-1v5.87h-24.5v-49.99h5.88v-1h-5.88v-50h5.88v-1h-5.88v-50.01h5.88v-1h-5.88V55.09h5.88v-1h-5.88V4.08h5.88v-1h-6.38v.5h-.5v255h.5v.5h255v-.5h.5v-6.37z"/><path class="cls-1" d="M314.56 79.83v26h32.37v-26h-32.37z"/><path class="cls-2" d="M314.56 41.59v25.99h32.37V41.59h-32.37z"/><path class="cls-3" d="M314.56 3.33v26.01h32.37V3.33h-32.37z"/><path class="cls-4" d="M351.16 95a6.12 6.12 0 0 0 1.29.5 4.68 4.68 0 0 0 1.16.17 1.33 1.33 0 0 0 .74-.16.5.5 0 0 0 .23-.43.46.46 0 0 0-.09-.28 1.21 1.21 0 0 0-.27-.24 10.93 10.93 0 0 0-1-.5 5.47 5.47 0 0 1-1.21-.7 2.2 2.2 0 0 1-.76-1.76 2.06 2.06 0 0 1 .8-1.73 3.53 3.53 0 0 1 2.2-.62 6.18 6.18 0 0 1 2.52.57l-.66 1.66a4.78 4.78 0 0 0-1.93-.51 1 1 0 0 0-.6.14.43.43 0 0 0-.2.37.53.53 0 0 0 .24.42 8.78 8.78 0 0 0 1.29.66 3.71 3.71 0 0 1 1.44 1 2.1 2.1 0 0 1 .4 1.33 2.23 2.23 0 0 1-.85 1.83 3.42 3.42 0 0 1-2.27.69 6.54 6.54 0 0 1-1.35-.12 5 5 0 0 1-1.1-.38zm9.84.27a12.58 12.58 0 0 1 .35-1.85l1.11-4.05h2.4l-2.6 8h-2.53l-2.59-8h2.42l1.08 4a12.14 12.14 0 0 1 .36 1.9zm7.77-.95v-1.66h3.43v4.28a9.39 9.39 0 0 1-3.07.48 3.73 3.73 0 0 1-2.84-1.06 4.23 4.23 0 0 1-1-3 4 4 0 0 1 1.09-3 4.21 4.21 0 0 1 3.08-1.07 6.31 6.31 0 0 1 2.57.5l-.68 1.69a4.08 4.08 0 0 0-1.84-.42 1.85 1.85 0 0 0-1.5.61 2.63 2.63 0 0 0-.51 1.74 2.71 2.71 0 0 0 .47 1.71 1.61 1.61 0 0 0 1.34.59 3.62 3.62 0 0 0 .88-.1v-1.29zm-18.98-34.54a4 4 0 0 0 .8.12.86.86 0 0 0 .75-.32 2 2 0 0 0 .23-1.1v-7.37h2.16v7.17a3.67 3.67 0 0 1-.71 2.45 2.64 2.64 0 0 1-2.12.82 5.13 5.13 0 0 1-1.12-.11zm8.41-8.67a3.38 3.38 0 0 1 2.25.65 2.4 2.4 0 0 1 .76 1.93 2.61 2.61 0 0 1-.79 2 3.18 3.18 0 0 1-2.23.73h-.6v2.63h-2.15v-8zm-.6 1.73v1.83h.4a1.07 1.07 0 0 0 .77-.27 1 1 0 0 0 .28-.75c0-.54-.3-.81-.89-.81zm9.61 4.47v1.75h-4.72v-8h4.72v1.73h-2.57v1.25H367v1.72h-2.38v1.5zm4.58-1.24v-1.66h3.43v4.29a9.39 9.39 0 0 1-3.07.48 3.73 3.73 0 0 1-2.84-1.06 4.23 4.23 0 0 1-1-3 4 4 0 0 1 1.09-3 4.21 4.21 0 0 1 3.09-1.12 6.31 6.31 0 0 1 2.57.5l-.68 1.69a4.08 4.08 0 0 0-1.84-.42 1.85 1.85 0 0 0-1.5.61 2.63 2.63 0 0 0-.51 1.74 2.71 2.71 0 0 0 .47 1.71 1.61 1.61 0 0 0 1.34.59 3.62 3.62 0 0 0 .88-.1v-1.25zm-17.51-43.21a3.38 3.38 0 0 1 2.25.65 2.4 2.4 0 0 1 .76 1.93 2.61 2.61 0 0 1-.79 2 3.18 3.18 0 0 1-2.23.73h-.6v2.63h-2.15v-8zm-.6 1.73v1.83h.39a1.07 1.07 0 0 0 .77-.27 1 1 0 0 0 .28-.75c0-.54-.3-.81-.89-.81zm12.46-1.73v8h-2.82l-2.91-5.6q.1 1.37.1 2v3.58h-1.9v-8h2.81l2.89 5.53q-.08-1.16-.08-1.93v-3.6zm4.86 4.96v-1.66h3.43v4.28a9.39 9.39 0 0 1-3.07.48 3.73 3.73 0 0 1-2.84-1.06 4.23 4.23 0 0 1-1-3 4 4 0 0 1 1.09-3 4.21 4.21 0 0 1 3.08-1.07 6.31 6.31 0 0 1 2.57.5l-.68 1.69a4.08 4.08 0 0 0-1.84-.42 1.85 1.85 0 0 0-1.5.61 2.63 2.63 0 0 0-.51 1.74 2.71 2.71 0 0 0 .47 1.71 1.61 1.61 0 0 0 1.34.59 3.62 3.62 0 0 0 .88-.1v-1.29zm-78.48 249.4a4.74 4.74 0 0 1-1 3.38 4.31 4.31 0 0 1-3.22 1 8.46 8.46 0 0 1-1.11-.05v-1.7a4.88 4.88 0 0 0 .94.09q2.35 0 2.46-2h-.06a2 2 0 0 1-.42.57 1.87 1.87 0 0 1-1.25.36 2 2 0 0 1-1.61-.69 3 3 0 0 1-.58-2 2.73 2.73 0 0 1 .75-2 2.8 2.8 0 0 1 2.07-.75 2.77 2.77 0 0 1 2.26 1 4.21 4.21 0 0 1 .77 2.79zm-2.14-.82a1.42 1.42 0 0 0-.24-.83.73.73 0 0 0-.61-.34.7.7 0 0 0-.58.27 1.21 1.21 0 0 0-.21.77q0 1 .77 1a.86.86 0 0 0 .62-.25.83.83 0 0 0 .25-.62zm-28.21-2.4a3.33 3.33 0 0 1 2-.51 3.27 3.27 0 0 1 2 .51 1.67 1.67 0 0 1 .7 1.44 2.1 2.1 0 0 1-1.37 1.93 3.86 3.86 0 0 1 1.24 1 1.8 1.8 0 0 1 .36 1.07 1.94 1.94 0 0 1-.76 1.64 4.29 4.29 0 0 1-4.29 0 1.93 1.93 0 0 1-.75-1.63 2 2 0 0 1 .33-1.19 2.92 2.92 0 0 1 1.12-.88 2.35 2.35 0 0 1-1.21-2 1.65 1.65 0 0 1 .63-1.38zm1 5.38a.67.67 0 0 0 .24.54 1 1 0 0 0 .66.2q1 0 1-.7a.81.81 0 0 0-.22-.53 3 3 0 0 0-.74-.57q-.91.45-.91 1.03zm1.44-3.33a.68.68 0 0 0 .14-.43.51.51 0 0 0-.19-.41.69.69 0 0 0-.46-.16.7.7 0 0 0-.46.16.52.52 0 0 0-.19.41q0 .48.63.83a1.86 1.86 0 0 0 .55-.45zm-28.83-.68v-1.78h5.74v1.27l-2.8 6.67h-2.22l2.73-6.16zm-21.43-.23a2.33 2.33 0 0 0-1.61.48 2.13 2.13 0 0 0-.57 1.54h.07a1.64 1.64 0 0 1 1.56-.92 2.06 2.06 0 0 1 1.66.68 2.91 2.91 0 0 1 .58 1.95 2.77 2.77 0 0 1-.74 2 2.81 2.81 0 0 1-2.11.76 2.73 2.73 0 0 1-2.16-.91 3.79 3.79 0 0 1-.79-2.56 5.11 5.11 0 0 1 1-3.57 4.12 4.12 0 0 1 3.13-1.14 7.62 7.62 0 0 1 1.14.1v1.68a6.6 6.6 0 0 0-1.16-.09zm-2 3.61a1.51 1.51 0 0 0 .22.86.71.71 0 0 0 1.15.06 1.31 1.31 0 0 0 .21-.81q0-1-.76-1a.77.77 0 0 0-.6.25.88.88 0 0 0-.19.64zM187 266.42a5 5 0 0 1 .94-.1 2.38 2.38 0 0 1 1.23.31 2.22 2.22 0 0 1 .87.91 2.73 2.73 0 0 1 .3 1.34 2.57 2.57 0 0 1-.81 2 3.58 3.58 0 0 1-2.42.71 5.23 5.23 0 0 1-2.27-.43v-1.76a5.48 5.48 0 0 0 1.07.36 4.6 4.6 0 0 0 1 .14 1.45 1.45 0 0 0 .92-.25.88.88 0 0 0 .32-.73.87.87 0 0 0-.33-.73 1.46 1.46 0 0 0-.9-.25 3.79 3.79 0 0 0-1.17.19l-.79-.39.3-4.2h4.53v1.79h-2.71zm-21.79 1.97V270h-.88v1.54h-2.12V270H159v-1.58l3.31-4.83h2v4.81zm-3 0v-2.09h-.06a4.85 4.85 0 0 1-.42.79l-.88 1.31zm-26.1 3.25a6.49 6.49 0 0 1-2.37-.43v-1.78a4.49 4.49 0 0 0 2.06.52 2 2 0 0 0 1-.2.7.7 0 0 0 .33-.65.65.65 0 0 0-.38-.63 3.45 3.45 0 0 0-1.31-.2H135v-1.61h.5q1.64 0 1.64-.84a.52.52 0 0 0-.24-.46 1.2 1.2 0 0 0-.66-.15 3 3 0 0 0-1.58.51l-.89-1.43a4.33 4.33 0 0 1 1.28-.62 5.53 5.53 0 0 1 1.53-.19 3.35 3.35 0 0 1 1.94.49 1.56 1.56 0 0 1 .7 1.35 1.88 1.88 0 0 1-.45 1.27 2.61 2.61 0 0 1-1.31.77q2 .25 2 1.88a2 2 0 0 1-.88 1.74 4.09 4.09 0 0 1-2.47.66zM114 269.76v1.77h-5.77v-1.41l1.94-2q.85-.89 1.09-1.2a2.65 2.65 0 0 0 .35-.54 1.23 1.23 0 0 0 .1-.51.59.59 0 0 0-.2-.46.82.82 0 0 0-.57-.18 1.53 1.53 0 0 0-.74.21 5.24 5.24 0 0 0-.89.65l-1.18-1.38a6.13 6.13 0 0 1 1-.79 4.07 4.07 0 0 1 2-.49 2.81 2.81 0 0 1 1.92.6 1.9 1.9 0 0 1 .74 1.57 3 3 0 0 1-.48 1.65 5.64 5.64 0 0 1-.66.82q-.41.43-1.71 1.59v.05zm-26.52-6.18v8H85.3v-5.61a4.92 4.92 0 0 1-.5.51l-.9.74-1.11-1.37 2.73-2.22zm-29.48.88a2.45 2.45 0 0 1 2.14-1q2.89 0 2.89 4.1a5.37 5.37 0 0 1-.7 3.08 2.48 2.48 0 0 1-2.17 1q-2.87 0-2.87-4.07a5.44 5.44 0 0 1 .71-3.11zm2.17.73q-.4 0-.57.51a10.39 10.39 0 0 0 0 3.73q.17.51.57.5t.56-.52a7.07 7.07 0 0 0 .16-1.85 6.76 6.76 0 0 0-.17-1.84q-.2-.53-.6-.53zM118.79 278a5.16 5.16 0 0 0-2.13-.57 1.61 1.61 0 0 0-1.41.74 3.56 3.56 0 0 0-.5 2q0 2.68 2 2.68a6.6 6.6 0 0 0 2.36-.58v2.12a6.42 6.42 0 0 1-2.64.52 4.17 4.17 0 0 1-3.23-1.22 5.06 5.06 0 0 1-1.12-3.53 5.48 5.48 0 0 1 .53-2.54 4 4 0 0 1 1.58-1.7 4.61 4.61 0 0 1 2.4-.58 6.56 6.56 0 0 1 2.88.66zm8.93 3.21a3.82 3.82 0 0 1-1 2.76 3.48 3.48 0 0 1-2.63 1 3.52 3.52 0 0 1-2.65-1 3.81 3.81 0 0 1-1-2.75 3.76 3.76 0 0 1 .95-2.73 3.56 3.56 0 0 1 2.68-1 3.4 3.4 0 0 1 2.6 1 3.66 3.66 0 0 1 1.05 2.72zm-2.53 0a3.09 3.09 0 0 0-.25-1.42 1 1 0 0 0-1.64 0 3.06 3.06 0 0 0-.25 1.41 3.11 3.11 0 0 0 .25 1.43.87.87 0 0 0 .82.47.85.85 0 0 0 .81-.47 3.23 3.23 0 0 0 .25-1.42zm15.29 3.62H138v-3.92a2.38 2.38 0 0 0-.2-1.11.68.68 0 0 0-.64-.36.89.89 0 0 0-.84.49 3.36 3.36 0 0 0-.27 1.54v3.36h-2.5v-3.92a2.41 2.41 0 0 0-.19-1.1.65.65 0 0 0-.61-.36.9.9 0 0 0-.86.52 4 4 0 0 0-.27 1.71v3.16h-2.49v-7.22H131l.31.89h.15a1.83 1.83 0 0 1 .82-.75 2.8 2.8 0 0 1 1.25-.27 2.44 2.44 0 0 1 2.19.95h.2a2 2 0 0 1 .85-.7 2.85 2.85 0 0 1 1.2-.25 2.47 2.47 0 0 1 1.88.65 2.83 2.83 0 0 1 .62 2zm6.03.17a2.46 2.46 0 0 1-1-.19 2.56 2.56 0 0 1-.85-.65h-.11a8.15 8.15 0 0 1 .11.94v2.9h-2.49v-10.38h2l.35.92h.11a2.27 2.27 0 0 1 3.79 0 5.71 5.71 0 0 1 0 5.48 2.25 2.25 0 0 1-1.91.98zm-.83-2a.75.75 0 0 0 .73-.41 3.11 3.11 0 0 0 .22-1.36 3 3 0 0 0-.22-1.34.77.77 0 0 0-.74-.4.8.8 0 0 0-.75.38 2.47 2.47 0 0 0-.25 1.17v.2a2.74 2.74 0 0 0 .25 1.34.82.82 0 0 0 .75.42zm9.24-5.51a5.56 5.56 0 0 1 .76.08l-.22 2.35a3.78 3.78 0 0 0-.85-.08q-1.56 0-1.56 1.45v3.55h-2.49v-7.22h1.85l.39 1.15h.12a2.44 2.44 0 0 1 .87-.93 2.1 2.1 0 0 1 1.13-.35zm4.99 7.51a3.89 3.89 0 0 1-2.8-1 3.68 3.68 0 0 1-1-2.77 3.89 3.89 0 0 1 .92-2.77 3.39 3.39 0 0 1 2.6-1 3.55 3.55 0 0 1 2.57.86 3.24 3.24 0 0 1 .89 2.45v1.1h-4.45a1.22 1.22 0 0 0 .44 1 1.68 1.68 0 0 0 1.1.34 5.79 5.79 0 0 0 1.24-.12 5.63 5.63 0 0 0 1.2-.43v1.79a4.22 4.22 0 0 1-1.19.41 8.32 8.32 0 0 1-1.52.14zm.62-5.46a1 1 0 0 0-.75-.31 1 1 0 0 0-.76.29 1.34 1.34 0 0 0-.34.86h2.14a1.22 1.22 0 0 0-.29-.88zm8.8 1.4a2.33 2.33 0 0 1-.05 3.43 3.71 3.71 0 0 1-2.28.63 10 10 0 0 1-1.39-.08 5.59 5.59 0 0 1-1.21-.32v-2a7.18 7.18 0 0 0 1.29.42 5.54 5.54 0 0 0 1.21.16q.81 0 .81-.37a.41.41 0 0 0-.22-.34 10.77 10.77 0 0 0-1.32-.58 3.38 3.38 0 0 1-1.39-.94 2.11 2.11 0 0 1-.39-1.31 1.83 1.83 0 0 1 .78-1.56 3.53 3.53 0 0 1 2.12-.57 6.65 6.65 0 0 1 2.72.62l-.68 1.61a7.84 7.84 0 0 0-1-.38 3.41 3.41 0 0 0-.91-.16q-.61 0-.61.3a.37.37 0 0 0 .21.32 11.39 11.39 0 0 0 1.23.53 4.47 4.47 0 0 1 1.08.59zm6.96 0a2.33 2.33 0 0 1-.05 3.43 3.71 3.71 0 0 1-2.24.63 10 10 0 0 1-1.39-.08 5.58 5.58 0 0 1-1.21-.32v-2a7.17 7.17 0 0 0 1.29.42 5.55 5.55 0 0 0 1.21.16q.81 0 .81-.37a.41.41 0 0 0-.22-.34 10.77 10.77 0 0 0-1.32-.58 3.38 3.38 0 0 1-1.39-.94 2.1 2.1 0 0 1-.39-1.31 1.82 1.82 0 0 1 .78-1.56 3.53 3.53 0 0 1 2.12-.57 6.65 6.65 0 0 1 2.72.62l-.68 1.61a7.82 7.82 0 0 0-1-.38 3.42 3.42 0 0 0-.91-.16q-.61 0-.61.3a.37.37 0 0 0 .21.32 11.3 11.3 0 0 0 1.23.53 4.49 4.49 0 0 1 1.04.59zm4.71-5.11q0 1.09-1.33 1.09t-1.33-1.09a1 1 0 0 1 .32-.84 2 2 0 0 1 2 0 1 1 0 0 1 .34.84zm-.1 1.79v7.22h-2.49v-7.22zm8.63 3.59a3.82 3.82 0 0 1-1 2.76 3.47 3.47 0 0 1-2.63 1 3.52 3.52 0 0 1-2.65-1 3.81 3.81 0 0 1-1-2.75 3.77 3.77 0 0 1 .95-2.73 3.56 3.56 0 0 1 2.68-1 3.39 3.39 0 0 1 2.6 1 3.66 3.66 0 0 1 1.05 2.72zm-2.53 0a3.09 3.09 0 0 0-.25-1.42 1 1 0 0 0-1.64 0 3 3 0 0 0-.25 1.41 3.11 3.11 0 0 0 .25 1.43.87.87 0 0 0 .82.47.85.85 0 0 0 .81-.47 3.23 3.23 0 0 0 .26-1.42zm11 3.62h-2.49v-3.93q0-1.45-.87-1.45a1 1 0 0 0-.91.5 3.73 3.73 0 0 0-.29 1.73v3.16h-2.49v-7.22h1.88l.31.89h.15a2.37 2.37 0 0 1 2.18-1 2.45 2.45 0 0 1 1.86.7 2.72 2.72 0 0 1 .67 2zm11.7 0h-6.1v-9.31h2.52v7.28h3.58v2.03zm4.84.17a3.89 3.89 0 0 1-2.8-1 3.68 3.68 0 0 1-1-2.77 3.89 3.89 0 0 1 .92-2.77 3.4 3.4 0 0 1 2.6-1 3.55 3.55 0 0 1 2.57.86 3.24 3.24 0 0 1 .89 2.45v1.1h-4.45a1.22 1.22 0 0 0 .44 1 1.68 1.68 0 0 0 1.1.34 5.79 5.79 0 0 0 1.24-.12 5.63 5.63 0 0 0 1.2-.43v1.79a4.21 4.21 0 0 1-1.19.41 8.31 8.31 0 0 1-1.52.14zm.62-5.46a1 1 0 0 0-.75-.31 1 1 0 0 0-.76.29 1.34 1.34 0 0 0-.34.86h2.14a1.22 1.22 0 0 0-.3-.88zm6.77 3.08a2.57 2.57 0 0 1 .12-.72l1.28-4.28H226l-2.75 7.22h-2.46l-2.79-7.22h2.6l1.22 4.27v.29a2.3 2.3 0 0 1 .11.44zm8.38 2.38a3.89 3.89 0 0 1-2.8-1 3.68 3.68 0 0 1-1-2.77 3.89 3.89 0 0 1 .92-2.77 3.4 3.4 0 0 1 2.6-1 3.55 3.55 0 0 1 2.57.86 3.24 3.24 0 0 1 .89 2.45v1.1H229a1.22 1.22 0 0 0 .44 1 1.68 1.68 0 0 0 1.1.34 5.79 5.79 0 0 0 1.24-.12 5.63 5.63 0 0 0 1.2-.43v1.79a4.21 4.21 0 0 1-1.19.41 8.31 8.31 0 0 1-1.48.14zm.62-5.46a1 1 0 0 0-.75-.31 1 1 0 0 0-.76.29 1.34 1.34 0 0 0-.34.86h2.14a1.22 1.22 0 0 0-.3-.88zm3.95-4.61h2.49v9.91h-2.49zM3.31 186.14a5.17 5.17 0 0 0-.57 2.13 1.61 1.61 0 0 0 .74 1.41 3.56 3.56 0 0 0 2 .5q2.68 0 2.68-2a6.6 6.6 0 0 0-.58-2.36h2.15a6.42 6.42 0 0 1 .52 2.64A4.17 4.17 0 0 1 9 191.65a5.06 5.06 0 0 1-3.53 1.12 5.48 5.48 0 0 1-2.47-.54 4 4 0 0 1-1.7-1.58 4.61 4.61 0 0 1-.58-2.4 6.56 6.56 0 0 1 .66-2.88zm3.19-8.92a3.82 3.82 0 0 1 2.76 1 3.48 3.48 0 0 1 1 2.63 3.51 3.51 0 0 1-1 2.65 3.81 3.81 0 0 1-2.75 1 3.76 3.76 0 0 1-2.73-.95 3.56 3.56 0 0 1-1-2.68 3.39 3.39 0 0 1 1-2.6 3.66 3.66 0 0 1 2.72-1.05zm0 2.53a3.08 3.08 0 0 0-1.42.25 1 1 0 0 0 0 1.64 3.06 3.06 0 0 0 1.41.25 3.11 3.11 0 0 0 1.43-.25.87.87 0 0 0 .47-.82.85.85 0 0 0-.47-.81 3.23 3.23 0 0 0-1.42-.26zm3.62-15.3v2.49H6.2a2.38 2.38 0 0 0-1.11.2.68.68 0 0 0-.36.64.89.89 0 0 0 .49.84 3.37 3.37 0 0 0 1.54.27h3.36v2.5H6.2a2.41 2.41 0 0 0-1.1.19.65.65 0 0 0-.36.61.89.89 0 0 0 .52.86 4 4 0 0 0 1.71.27h3.16v2.49H2.9v-1.88l.89-.31v-.15a1.83 1.83 0 0 1-.75-.82 2.8 2.8 0 0 1-.27-1.25 2.44 2.44 0 0 1 .95-2.19V169a2 2 0 0 1-.7-.85 2.84 2.84 0 0 1-.25-1.2 2.47 2.47 0 0 1 .65-1.88 2.83 2.83 0 0 1 2-.62zm.13-6.03a2.46 2.46 0 0 1-.19 1 2.56 2.56 0 0 1-.65.85v.11a8.27 8.27 0 0 1 .94-.11h2.9v2.49H2.9v-2l.92-.35v-.11a2.27 2.27 0 0 1 0-3.79 4.71 4.71 0 0 1 2.72-.69 4.7 4.7 0 0 1 2.75.71 2.25 2.25 0 0 1 .96 1.89zm-2 .84a.75.75 0 0 0-.41-.73 3.12 3.12 0 0 0-1.36-.22 3 3 0 0 0-1.34.22.77.77 0 0 0-.4.74.8.8 0 0 0 .38.75 2.48 2.48 0 0 0 1.17.25h.2a2.75 2.75 0 0 0 1.34-.27.82.82 0 0 0 .42-.74zM2.77 150a5.54 5.54 0 0 1 .08-.76l2.35.22a3.77 3.77 0 0 0-.08.85q0 1.56 1.45 1.56h3.55v2.49H2.9v-1.86l1.15-.39V152a2.44 2.44 0 0 1-.93-.87 2.1 2.1 0 0 1-.35-1.13zm7.48-5a3.89 3.89 0 0 1-1 2.8 3.68 3.68 0 0 1-2.77 1 3.89 3.89 0 0 1-2.77-.92 3.39 3.39 0 0 1-1-2.6 3.55 3.55 0 0 1 .86-2.57 3.25 3.25 0 0 1 2.45-.89h1.1v4.45a1.22 1.22 0 0 0 1-.44 1.68 1.68 0 0 0 .34-1.1 5.78 5.78 0 0 0-.12-1.24 5.63 5.63 0 0 0-.43-1.2h1.81a4.21 4.21 0 0 1 .41 1.19 8.31 8.31 0 0 1 .12 1.52zm-5.46-.62a1 1 0 0 0-.31.75 1 1 0 0 0 .29.76 1.33 1.33 0 0 0 .86.34v-2.14a1.22 1.22 0 0 0-.85.31zm1.43-8.78a2 2 0 0 1 1.71-.73 2 2 0 0 1 1.73.78 3.71 3.71 0 0 1 .59 2.28 10 10 0 0 1-.08 1.39 5.58 5.58 0 0 1-.32 1.21h-2a7.17 7.17 0 0 0 .42-1.29 5.55 5.55 0 0 0 .17-1.24q0-.81-.37-.81a.41.41 0 0 0-.34.22 10.77 10.77 0 0 0-.58 1.32 3.38 3.38 0 0 1-.94 1.39 2.1 2.1 0 0 1-1.31.39 1.82 1.82 0 0 1-1.56-.78 3.53 3.53 0 0 1-.57-2.12 6.65 6.65 0 0 1 .62-2.72l1.61.68a7.82 7.82 0 0 0-.38 1 3.42 3.42 0 0 0-.16.91q0 .61.3.61a.37.37 0 0 0 .32-.21 11.3 11.3 0 0 0 .53-1.23 4.49 4.49 0 0 1 .61-1.05zm0-6.96a2 2 0 0 1 1.71-.73 2 2 0 0 1 1.73.78 3.72 3.72 0 0 1 .59 2.28 10 10 0 0 1-.08 1.39 5.59 5.59 0 0 1-.32 1.21h-2a7.19 7.19 0 0 0 .42-1.29 5.56 5.56 0 0 0 .16-1.21q0-.81-.37-.81a.41.41 0 0 0-.34.22 10.74 10.74 0 0 0-.58 1.32 3.38 3.38 0 0 1-.94 1.39 2.1 2.1 0 0 1-1.31.39 1.82 1.82 0 0 1-1.56-.78 3.53 3.53 0 0 1-.57-2.12 6.65 6.65 0 0 1 .63-2.68l1.61.68a7.76 7.76 0 0 0-.38 1 3.42 3.42 0 0 0-.16.91q0 .61.3.61a.37.37 0 0 0 .32-.21 11.45 11.45 0 0 0 .53-1.23 4.53 4.53 0 0 1 .61-1.12zm-5.11-4.71q1.09 0 1.09 1.33t-1.09 1.33a1 1 0 0 1-.84-.32 2 2 0 0 1 0-2 1 1 0 0 1 .84-.34zm1.79.1h7.22v2.49H2.9zm3.6-8.63a3.82 3.82 0 0 1 2.76 1 3.47 3.47 0 0 1 1 2.63 3.52 3.52 0 0 1-1 2.65 3.81 3.81 0 0 1-2.75 1 3.77 3.77 0 0 1-2.73-.95 3.56 3.56 0 0 1-1-2.68 3.39 3.39 0 0 1 1-2.6 3.66 3.66 0 0 1 2.72-1.05zm0 2.53a3.09 3.09 0 0 0-1.42.25 1 1 0 0 0 0 1.64 3 3 0 0 0 1.41.25 3.11 3.11 0 0 0 1.43-.25.87.87 0 0 0 .48-.82.85.85 0 0 0-.47-.81 3.23 3.23 0 0 0-1.43-.26zm3.62-11v2.49H6.19q-1.45 0-1.45.87a1 1 0 0 0 .5.91 3.73 3.73 0 0 0 1.73.29h3.16V114H2.9v-1.9l.89-.31v-.15a2.37 2.37 0 0 1-1-2.18 2.45 2.45 0 0 1 .7-1.86 2.72 2.72 0 0 1 2-.67zm-3.39-8.12h3.39v2.52H.81v-3.05q0-3.8 2.75-3.8a2.75 2.75 0 0 1 2.51 1.59l4.06-2.72v2.85l-3.39 2zm-4 0h2.11v-.47Q4.84 97 3.67 97q-1 0-1 1.29zm7.39-12.59v1.72l-1 .48a2.75 2.75 0 0 1 .85 1 3.39 3.39 0 0 1 .23 1.36 2.1 2.1 0 0 1-.62 1.61 2.4 2.4 0 0 1-1.66.61q-2.22 0-2.35-3.09V88.7h-.1a.78.78 0 0 0-.89.88 5.34 5.34 0 0 0 .53 2l-1.64.72a6.93 6.93 0 0 1-.65-3.18A3.08 3.08 0 0 1 3.47 87a2.47 2.47 0 0 1 1.92-.76zm-2.29 4.27q.67 0 .67-.71a1.12 1.12 0 0 0-.29-.78 1 1 0 0 0-.75-.32H6.9v.57q.1 1.24.93 1.24zm-.25-8.83q.7 0 .7-.67A3.76 3.76 0 0 0 8 79.78h1.84a4.59 4.59 0 0 1 .3.93 5.34 5.34 0 0 1 .1 1.09 2.35 2.35 0 0 1-.61 1.8 2.72 2.72 0 0 1-1.9.56h-3V85h-1L3 83.94l-1.51-.64v-1.64H2.9v-1.77h1.87v1.77zm-6.47-5.74q1.09 0 1.09 1.33t-1.09 1.32a1 1 0 0 1-.84-.32 2 2 0 0 1 0-2 1 1 0 0 1 .84-.33zM2.9 76h7.22v2.49H2.9zm3.6-8.61a3.82 3.82 0 0 1 2.76 1 3.47 3.47 0 0 1 1 2.63 3.52 3.52 0 0 1-1 2.65 3.81 3.81 0 0 1-2.75 1 3.77 3.77 0 0 1-2.73-.95 3.56 3.56 0 0 1-1-2.68 3.39 3.39 0 0 1 1-2.6 3.66 3.66 0 0 1 2.72-1.05zm0 2.53a3.09 3.09 0 0 0-1.42.25 1 1 0 0 0 0 1.64 3 3 0 0 0 1.41.25 3.11 3.11 0 0 0 1.43-.25.87.87 0 0 0 .48-.81.85.85 0 0 0-.47-.81 3.23 3.23 0 0 0-1.43-.27z"/></svg>