<svg id="Layer_1" data-name="Layer 1" xmlns="http://www.w3.org/2000/svg" viewBox="0 0 375.23 287.97"><defs><style>.cls-1{fill:#067bc2;}.cls-2{fill:#ba1200;}.cls-3{fill:#fdfffc;}.cls-4{fill:#f3a712;}</style></defs><title>compression-ratios</title><polygon class="cls-1" points="63.61 3.58 63.61 258.83 70.23 258.83 70.23 3.33 63.61 3.33 63.61 3.58"/><polygon class="cls-1" points="89.11 156.59 89.11 258.83 95.73 258.83 95.73 156.34 89.11 156.34 89.11 156.59"/><polygon class="cls-1" points="114.61 159.13 114.61 258.83 121.23 258.83 121.23 158.88 114.61 158.88 114.61 159.13"/><polygon class="cls-1" points="140.11 161.69 140.11 258.83 146.73 258.83 146.73 161.44 140.11 161.44 140.11 161.69"/><polygon class="cls-1" points="165.61 166.78 165.61 258.83 172.23 258.83 172.23 166.53 165.61 166.53 165.61 166.78"/><polygon class="cls-1" points="191.11 169.34 191.11 258.83 197.73 258.83 197.73 169.09 191.11 169.09 191.11 169.34"/><polygon class="cls-1" points="216.61 169.34 216.61 258.83 223.23 258.83 223.23 169.09 216.61 169.09 216.61 169.34"/><polygon class="cls-1" points="242.11 169.34 242.11 258.83 248.73 258.83 248.73 169.09 242.11 169.09 242.11 169.34"/><polygon class="cls-1" points="267.61 169.34 267.61 258.83 274.23 258.83 274.23 169.09 267.61 169.09 267.61 169.34"/><polygon class="cls-1" points="293.11 169.09 293.11 169.34 293.11 258.83 299.73 258.83 299.73 169.09 293.11 169.09"/><polygon class="cls-2" points="56.81 3.58 56.81 258.83 63.43 258.83 63.43 3.33 56.81 3.33 56.81 3.58"/><polygon class="cls-2" points="82.31 3.58 82.31 258.83 88.93 258.83 88.93 3.33 82.31 3.33 82.31 3.58"/><polygon class="cls-2" points="107.81 3.58 107.81 258.83 114.43 258.83 114.43 3.33 107.81 3.33 107.81 3.58"/><polygon class="cls-2" points="133.31 3.58 133.31 258.83 139.93 258.83 139.93 3.33 133.31 3.33 133.31 3.58"/><polygon class="cls-2" points="158.81 3.58 158.81 258.83 165.43 258.83 165.43 3.33 158.81 3.33 158.81 3.58"/><polygon class="cls-2" points="184.31 3.58 184.31 258.83 190.93 258.83 190.93 3.33 184.31 3.33 184.31 3.58"/><polygon class="cls-2" points="209.81 3.58 209.81 258.83 216.43 258.83 216.43 3.33 209.81 3.33 209.81 3.58"/><polygon class="cls-2" points="235.31 3.58 235.31 258.83 241.93 258.83 241.93 3.33 235.31 3.33 235.31 3.58"/><polygon class="cls-2" points="260.81 3.58 260.81 258.83 267.43 258.83 267.43 3.33 260.81 3.33 260.81 3.58"/><polygon class="cls-2" points="286.31 3.33 286.31 3.58 286.31 258.83 292.93 258.83 292.93 3.33 286.31 3.33"/><polygon class="cls-3" points="50.01 3.58 50.01 258.83 56.63 258.83 56.63 3.33 50.01 3.33 50.01 3.58"/><polygon class="cls-3" points="75.51 3.58 75.51 258.83 82.13 258.83 82.13 3.33 75.51 3.33 75.51 3.58"/><polygon class="cls-3" points="101.01 3.58 101.01 258.83 107.63 258.83 107.63 3.33 101.01 3.33 101.01 3.58"/><polygon class="cls-3" points="126.51 3.58 126.51 258.83 133.13 258.83 133.13 3.33 126.51 3.33 126.51 3.58"/><polygon class="cls-3" points="152.01 3.58 152.01 258.83 158.63 258.83 158.63 3.33 152.01 3.33 152.01 3.58"/><polygon class="cls-3" points="177.51 3.58 177.51 258.83 184.13 258.83 184.13 3.33 177.51 3.33 177.51 3.58"/><polygon class="cls-3" points="203.01 3.58 203.01 258.83 209.63 258.83 209.63 3.33 203.01 3.33 203.01 3.58"/><polygon class="cls-3" points="228.51 3.58 228.51 258.83 235.13 258.83 235.13 3.33 228.51 3.33 228.51 3.58"/><polygon class="cls-3" points="254.01 3.58 254.01 258.83 260.63 258.83 260.63 3.33 254.01 3.33 254.01 3.58"/><polygon class="cls-3" points="279.51 3.33 279.51 3.58 279.51 258.83 286.13 258.83 286.13 3.33 279.51 3.33"/><polyline points="47.87 258.58 47.87 252.21 46.87 252.21 46.87 258.58"/><path class="cls-4" d="M27.39,256a2.45,2.45,0,0,1,2.14-1q2.89,0,2.89,4.1a5.37,5.37,0,0,1-.7,3.08,2.48,2.48,0,0,1-2.17,1q-2.87,0-2.87-4.07A5.44,5.44,0,0,1,27.39,256Zm2.17.73q-.4,0-.57.51A10.39,10.39,0,0,0,29,261q.17.51.57.5t.56-.52a7.07,7.07,0,0,0,.16-1.85,6.76,6.76,0,0,0-.17-1.84Q30,256.72,29.56,256.72Z"/><path class="cls-4" d="M35,255a1.88,1.88,0,0,1,1.52.67,3.34,3.34,0,0,1,0,3.67,2,2,0,0,1-3,0,2.87,2.87,0,0,1-.54-1.85,2.8,2.8,0,0,1,.53-1.82A1.82,1.82,0,0,1,35,255Zm0,1.33c-.14,0-.25.09-.32.28a3,3,0,0,0-.1.9,2.92,2.92,0,0,0,.1.9c.07.19.17.28.31.28s.25-.09.31-.28a2.94,2.94,0,0,0,.1-.91Q35.48,256.33,35.08,256.33Zm4.4-1.21h1.61l-4.41,8H35.07Zm1.62,3.05a1.88,1.88,0,0,1,1.52.67,3.32,3.32,0,0,1,0,3.66,2,2,0,0,1-3,0,2.89,2.89,0,0,1-.54-1.85,2.78,2.78,0,0,1,.53-1.81A1.82,1.82,0,0,1,41.09,258.17Zm0,1.33q-.21,0-.31.28a2.88,2.88,0,0,0-.1.9q0,1.18.41,1.18t.41-1.18Q41.54,259.5,41.12,259.5Z"/><path class="cls-4" d="M25.87,210.3v1.77H20.1v-1.41l1.94-2q.85-.89,1.09-1.2a2.65,2.65,0,0,0,.35-.54,1.23,1.23,0,0,0,.1-.51.59.59,0,0,0-.2-.46.82.82,0,0,0-.57-.18,1.53,1.53,0,0,0-.74.21,5.24,5.24,0,0,0-.89.65L20,205.28a6.13,6.13,0,0,1,1-.79,4.07,4.07,0,0,1,2-.49,2.81,2.81,0,0,1,1.92.6,1.9,1.9,0,0,1,.74,1.57,3,3,0,0,1-.48,1.65,5.64,5.64,0,0,1-.66.82q-.41.43-1.71,1.59v.05Z"/><path class="cls-4" d="M27.39,205a2.45,2.45,0,0,1,2.14-1q2.89,0,2.89,4.1a5.37,5.37,0,0,1-.7,3.08,2.48,2.48,0,0,1-2.17,1q-2.87,0-2.87-4.07A5.44,5.44,0,0,1,27.39,205Zm2.17.73q-.4,0-.57.51A10.39,10.39,0,0,0,29,210q.17.51.57.5t.56-.52a7.07,7.07,0,0,0,.16-1.85,6.76,6.76,0,0,0-.17-1.84Q30,205.72,29.56,205.72Z"/><path class="cls-4" d="M35,204a1.88,1.88,0,0,1,1.52.67,3.34,3.34,0,0,1,0,3.67,2,2,0,0,1-3,0,2.87,2.87,0,0,1-.54-1.85,2.8,2.8,0,0,1,.53-1.82A1.82,1.82,0,0,1,35,204Zm0,1.33c-.14,0-.25.09-.32.28a3,3,0,0,0-.1.9,2.92,2.92,0,0,0,.1.9c.07.19.17.28.31.28s.25-.09.31-.28a2.94,2.94,0,0,0,.1-.91Q35.48,205.33,35.08,205.33Zm4.4-1.21h1.61l-4.41,8H35.07Zm1.62,3.05a1.88,1.88,0,0,1,1.52.67,3.32,3.32,0,0,1,0,3.66,2,2,0,0,1-3,0,2.89,2.89,0,0,1-.54-1.85,2.78,2.78,0,0,1,.53-1.81A1.82,1.82,0,0,1,41.09,207.17Zm0,1.33q-.21,0-.31.28a2.88,2.88,0,0,0-.1.9q0,1.18.41,1.18t.41-1.18Q41.54,208.5,41.12,208.5Z"/><path class="cls-4" d="M26.13,157.92v1.6h-.88v1.54H23.13v-1.54H20v-1.58l3.31-4.83h2v4.81Zm-3,0V157q0-.26,0-.7c0-.29,0-.45,0-.47h-.06a4.85,4.85,0,0,1-.42.79l-.88,1.31Z"/><path class="cls-4" d="M27.39,154a2.45,2.45,0,0,1,2.14-1q2.89,0,2.89,4.1a5.37,5.37,0,0,1-.7,3.08,2.48,2.48,0,0,1-2.17,1q-2.87,0-2.87-4.07A5.44,5.44,0,0,1,27.39,154Zm2.17.73q-.4,0-.57.51A10.39,10.39,0,0,0,29,159q.17.51.57.5t.56-.52a7.07,7.07,0,0,0,.16-1.85,6.76,6.76,0,0,0-.17-1.84Q30,154.72,29.56,154.72Z"/><path class="cls-4" d="M35,153a1.88,1.88,0,0,1,1.52.67,3.34,3.34,0,0,1,0,3.67,2,2,0,0,1-3,0,2.87,2.87,0,0,1-.54-1.85,2.8,2.8,0,0,1,.53-1.82A1.82,1.82,0,0,1,35,153Zm0,1.33c-.14,0-.25.09-.32.28a3,3,0,0,0-.1.9,2.92,2.92,0,0,0,.1.9c.07.19.17.28.31.28s.25-.09.31-.28a2.94,2.94,0,0,0,.1-.91Q35.48,154.33,35.08,154.33Zm4.4-1.21h1.61l-4.41,8H35.07Zm1.62,3.05a1.88,1.88,0,0,1,1.52.67,3.32,3.32,0,0,1,0,3.66,2,2,0,0,1-3,0,2.89,2.89,0,0,1-.54-1.85,2.78,2.78,0,0,1,.53-1.81A1.82,1.82,0,0,1,41.09,156.17Zm0,1.33q-.21,0-.31.28a2.88,2.88,0,0,0-.1.9q0,1.18.41,1.18t.41-1.18Q41.54,157.5,41.12,157.5Z"/><path class="cls-4" d="M24.27,103.67a2.33,2.33,0,0,0-1.61.48,2.13,2.13,0,0,0-.57,1.54h.07a1.64,1.64,0,0,1,1.56-.92,2.06,2.06,0,0,1,1.66.68,2.91,2.91,0,0,1,.58,1.95,2.77,2.77,0,0,1-.74,2,2.81,2.81,0,0,1-2.11.76,2.73,2.73,0,0,1-2.16-.91,3.79,3.79,0,0,1-.79-2.56,5.1,5.1,0,0,1,1-3.57A4.12,4.12,0,0,1,24.31,102a7.62,7.62,0,0,1,1.14.1v1.68A6.6,6.6,0,0,0,24.27,103.67Zm-2,3.61a1.51,1.51,0,0,0,.22.86.71.71,0,0,0,1.15.06,1.31,1.31,0,0,0,.21-.81q0-1-.76-1a.77.77,0,0,0-.6.25A.88.88,0,0,0,22.29,107.28Z"/><path class="cls-4" d="M27.39,103a2.45,2.45,0,0,1,2.14-1q2.89,0,2.89,4.1a5.37,5.37,0,0,1-.7,3.08,2.48,2.48,0,0,1-2.17,1q-2.87,0-2.87-4.07A5.44,5.44,0,0,1,27.39,103Zm2.17.73q-.4,0-.57.51A10.39,10.39,0,0,0,29,108q.17.5.57.5t.56-.52a7.06,7.06,0,0,0,.16-1.85,6.76,6.76,0,0,0-.17-1.84Q30,103.72,29.56,103.72Z"/><path class="cls-4" d="M35,102a1.88,1.88,0,0,1,1.52.67,3.34,3.34,0,0,1,0,3.67,2,2,0,0,1-3,0,2.87,2.87,0,0,1-.54-1.85,2.8,2.8,0,0,1,.53-1.82A1.82,1.82,0,0,1,35,102Zm0,1.33c-.14,0-.25.09-.32.28a3,3,0,0,0-.1.9,2.92,2.92,0,0,0,.1.9c.07.19.17.28.31.28s.25-.09.31-.28a2.94,2.94,0,0,0,.1-.91Q35.48,103.33,35.08,103.33Zm4.4-1.21h1.61l-4.41,8H35.07Zm1.62,3.05a1.88,1.88,0,0,1,1.52.67,3.32,3.32,0,0,1,0,3.66,2,2,0,0,1-3,0,2.89,2.89,0,0,1-.54-1.85,2.78,2.78,0,0,1,.53-1.81A1.82,1.82,0,0,1,41.09,105.17Zm0,1.33q-.21,0-.31.28a2.88,2.88,0,0,0-.1.9q0,1.18.41,1.18t.41-1.18Q41.54,106.5,41.12,106.5Z"/><path class="cls-4" d="M21.09,51.51a3.33,3.33,0,0,1,2-.51,3.28,3.28,0,0,1,2,.51,1.67,1.67,0,0,1,.7,1.44,2.1,2.1,0,0,1-1.37,1.93,3.87,3.87,0,0,1,1.24,1A1.81,1.81,0,0,1,25.94,57a1.94,1.94,0,0,1-.76,1.64,3.48,3.48,0,0,1-2.15.58,3.47,3.47,0,0,1-2.14-.57A1.93,1.93,0,0,1,20.14,57a2,2,0,0,1,.34-1.19,2.91,2.91,0,0,1,1.12-.88,2.34,2.34,0,0,1-1.21-2A1.65,1.65,0,0,1,21.09,51.51Zm1,5.38a.67.67,0,0,0,.24.54,1,1,0,0,0,.66.2q1,0,1-.7a.82.82,0,0,0-.22-.53,3.05,3.05,0,0,0-.74-.57Q22.11,56.3,22.11,56.89Zm1.44-3.33a.68.68,0,0,0,.14-.43.51.51,0,0,0-.19-.41.69.69,0,0,0-.46-.16.7.7,0,0,0-.47.16.52.52,0,0,0-.19.41q0,.48.63.83A1.84,1.84,0,0,0,23.55,53.55Z"/><path class="cls-4" d="M27.39,52a2.45,2.45,0,0,1,2.14-1q2.89,0,2.89,4.1a5.37,5.37,0,0,1-.7,3.08,2.48,2.48,0,0,1-2.17,1q-2.87,0-2.87-4.07A5.44,5.44,0,0,1,27.39,52Zm2.17.73q-.4,0-.57.51a6.82,6.82,0,0,0-.17,1.87A6.79,6.79,0,0,0,29,57q.17.5.57.5t.56-.52a7.06,7.06,0,0,0,.16-1.85,6.76,6.76,0,0,0-.17-1.84Q30,52.72,29.56,52.72Z"/><path class="cls-4" d="M35,51a1.88,1.88,0,0,1,1.52.67,3.34,3.34,0,0,1,0,3.67,2,2,0,0,1-3,0A2.87,2.87,0,0,1,33,53.47a2.8,2.8,0,0,1,.53-1.82A1.82,1.82,0,0,1,35,51Zm0,1.33c-.14,0-.25.09-.32.28a3,3,0,0,0-.1.9,2.92,2.92,0,0,0,.1.9c.07.19.17.28.31.28s.25-.09.31-.28a2.94,2.94,0,0,0,.1-.91Q35.48,52.33,35.08,52.33Zm4.4-1.21h1.61l-4.41,8H35.07Zm1.62,3.05a1.88,1.88,0,0,1,1.52.67,3.32,3.32,0,0,1,0,3.66,2,2,0,0,1-3,0,2.89,2.89,0,0,1-.54-1.85,2.78,2.78,0,0,1,.53-1.81A1.82,1.82,0,0,1,41.09,54.17Zm0,1.33q-.21,0-.31.28a2.88,2.88,0,0,0-.1.9q0,1.18.41,1.18t.41-1.18Q41.54,55.5,41.12,55.5Z"/><path class="cls-4" d="M18.37.11v8H16.19V3.86q0-.69,0-1.4a5.06,5.06,0,0,1-.5.51l-.9.74L13.7,2.34,16.43.11Z"/><path class="cls-4" d="M20.87,1A2.45,2.45,0,0,1,23,0Q25.9,0,25.9,4.1a5.37,5.37,0,0,1-.7,3.08,2.48,2.48,0,0,1-2.17,1q-2.87,0-2.87-4.07A5.44,5.44,0,0,1,20.87,1ZM23,1.72q-.4,0-.57.51A6.82,6.82,0,0,0,22.3,4.1,6.79,6.79,0,0,0,22.47,6q.17.5.57.5t.56-.52a7.06,7.06,0,0,0,.16-1.85,6.76,6.76,0,0,0-.17-1.84Q23.43,1.72,23,1.72Z"/><path class="cls-4" d="M27.39,1a2.45,2.45,0,0,1,2.14-1q2.89,0,2.89,4.1a5.37,5.37,0,0,1-.7,3.08,2.48,2.48,0,0,1-2.17,1q-2.87,0-2.87-4.07A5.44,5.44,0,0,1,27.39,1Zm2.17.73q-.4,0-.57.51a6.82,6.82,0,0,0-.17,1.87A6.79,6.79,0,0,0,29,6q.17.5.57.5t.56-.52a7.06,7.06,0,0,0,.16-1.85,6.76,6.76,0,0,0-.17-1.84Q30,1.72,29.56,1.72Z"/><path class="cls-4" d="M35,0a1.88,1.88,0,0,1,1.52.67,2.78,2.78,0,0,1,.56,1.84,2.81,2.81,0,0,1-.54,1.83,2,2,0,0,1-3,0A2.87,2.87,0,0,1,33,2.47,2.8,2.8,0,0,1,33.55.65,1.82,1.82,0,0,1,35,0Zm0,1.33c-.14,0-.25.09-.32.28a3,3,0,0,0-.1.9,2.92,2.92,0,0,0,.1.9c.07.19.17.28.31.28s.25-.09.31-.28a2.94,2.94,0,0,0,.1-.91Q35.48,1.33,35.08,1.33ZM39.48.11h1.61l-4.41,8H35.07Zm1.62,3.05a1.88,1.88,0,0,1,1.52.67,2.78,2.78,0,0,1,.56,1.84,2.78,2.78,0,0,1-.54,1.82,2,2,0,0,1-3,0,2.89,2.89,0,0,1-.54-1.85,2.78,2.78,0,0,1,.53-1.81A1.82,1.82,0,0,1,41.09,3.17Zm0,1.33q-.21,0-.31.28a2.88,2.88,0,0,0-.1.9q0,1.18.41,1.18t.41-1.18Q41.54,4.5,41.12,4.5Z"/><polyline points="47.37 259.08 53.75 259.08 53.75 258.08 47.37 258.08"/><polygon class="cls-4" points="302.87 252.21 301.87 252.21 301.87 258.08 277.37 258.08 277.37 252.21 276.37 252.21 276.37 258.08 251.87 258.08 251.87 252.21 250.87 252.21 250.87 258.08 226.37 258.08 226.37 252.21 225.37 252.21 225.37 258.08 200.87 258.08 200.87 252.21 199.87 252.21 199.87 258.08 175.37 258.08 175.37 252.21 174.37 252.21 174.37 258.08 149.87 258.08 149.87 252.21 148.87 252.21 148.87 258.08 124.37 258.08 124.37 252.21 123.37 252.21 123.37 258.08 98.87 258.08 98.87 252.21 97.87 252.21 97.87 258.08 73.37 258.08 73.37 252.21 72.37 252.21 72.37 258.08 47.87 258.08 47.87 208.09 53.75 208.09 53.75 207.09 47.87 207.09 47.87 157.09 53.75 157.09 53.75 156.09 47.87 156.09 47.87 106.08 53.75 106.08 53.75 105.08 47.87 105.08 47.87 55.09 53.75 55.09 53.75 54.09 47.87 54.09 47.87 4.08 53.75 4.08 53.75 3.08 47.37 3.08 47.37 3.58 46.87 3.58 46.87 258.58 47.37 258.58 47.37 259.08 302.37 259.08 302.37 258.58 302.87 258.58 302.87 252.21"/><polygon class="cls-1" points="314.56 79.83 314.56 80.08 314.56 105.83 346.93 105.83 346.93 79.83 314.56 79.83"/><polygon class="cls-2" points="314.56 41.59 314.56 41.84 314.56 67.58 346.93 67.58 346.93 41.59 314.56 41.59"/><polygon class="cls-3" points="314.56 3.33 314.56 3.58 314.56 29.34 346.93 29.34 346.93 3.33 314.56 3.33"/><path class="cls-4" d="M351.16,95a6.12,6.12,0,0,0,1.29.5,4.68,4.68,0,0,0,1.16.17,1.33,1.33,0,0,0,.74-.16.5.5,0,0,0,.23-.43.46.46,0,0,0-.09-.28,1.21,1.21,0,0,0-.27-.24,10.93,10.93,0,0,0-1-.5,5.47,5.47,0,0,1-1.21-.7,2.2,2.2,0,0,1-.76-1.76,2.06,2.06,0,0,1,.8-1.73,3.53,3.53,0,0,1,2.2-.62,6.18,6.18,0,0,1,2.52.57l-.66,1.66a4.78,4.78,0,0,0-1.93-.51,1,1,0,0,0-.6.14.43.43,0,0,0-.2.37.53.53,0,0,0,.24.42,8.78,8.78,0,0,0,1.29.66,3.71,3.71,0,0,1,1.44,1,2.1,2.1,0,0,1,.4,1.33,2.23,2.23,0,0,1-.85,1.83,3.42,3.42,0,0,1-2.27.69,6.54,6.54,0,0,1-1.35-.12,5,5,0,0,1-1.1-.38Z"/><path class="cls-4" d="M361,95.27a12.58,12.58,0,0,1,.35-1.85l1.11-4.05h2.4l-2.6,8h-2.53l-2.59-8h2.42l1.08,4A12.14,12.14,0,0,1,361,95.27Z"/><path class="cls-4" d="M368.77,94.32V92.66h3.43v4.28a9.39,9.39,0,0,1-3.07.48,3.73,3.73,0,0,1-2.84-1.06,4.23,4.23,0,0,1-1-3,4,4,0,0,1,1.09-3,4.21,4.21,0,0,1,3.08-1.07,6.31,6.31,0,0,1,2.57.5l-.68,1.69a4.08,4.08,0,0,0-1.84-.42,1.85,1.85,0,0,0-1.5.61,2.63,2.63,0,0,0-.51,1.74,2.71,2.71,0,0,0,.47,1.71,1.61,1.61,0,0,0,1.34.59,3.62,3.62,0,0,0,.88-.1V94.32Z"/><path class="cls-4" d="M349.79,59.78a4,4,0,0,0,.8.12.86.86,0,0,0,.75-.32,2,2,0,0,0,.23-1.1V51.11h2.16v7.17a3.67,3.67,0,0,1-.71,2.45,2.64,2.64,0,0,1-2.12.82,5.13,5.13,0,0,1-1.12-.11Z"/><path class="cls-4" d="M358.2,51.11a3.38,3.38,0,0,1,2.25.65,2.4,2.4,0,0,1,.76,1.93,2.61,2.61,0,0,1-.79,2,3.18,3.18,0,0,1-2.23.73h-.6v2.63h-2.15v-8Zm-.6,1.73v1.83H358a1.07,1.07,0,0,0,.77-.27,1,1,0,0,0,.28-.75c0-.54-.3-.81-.89-.81Z"/><path class="cls-4" d="M367.21,57.31v1.75h-4.72v-8h4.72v1.73h-2.57v1.25H367v1.72h-2.38v1.5Z"/><path class="cls-4" d="M371.79,56.07V54.41h3.43V58.7a9.39,9.39,0,0,1-3.07.48,3.73,3.73,0,0,1-2.84-1.06,4.23,4.23,0,0,1-1-3,4,4,0,0,1,1.09-3A4.21,4.21,0,0,1,372.49,51a6.31,6.31,0,0,1,2.57.5l-.68,1.69a4.08,4.08,0,0,0-1.84-.42,1.85,1.85,0,0,0-1.5.61,2.63,2.63,0,0,0-.51,1.74,2.71,2.71,0,0,0,.47,1.71,1.61,1.61,0,0,0,1.34.59,3.62,3.62,0,0,0,.88-.1V56.07Z"/><path class="cls-4" d="M354.28,12.86a3.38,3.38,0,0,1,2.25.65,2.4,2.4,0,0,1,.76,1.93,2.61,2.61,0,0,1-.79,2,3.18,3.18,0,0,1-2.23.73h-.6v2.63h-2.15v-8Zm-.6,1.73v1.83h.39a1.07,1.07,0,0,0,.77-.27,1,1,0,0,0,.28-.75c0-.54-.3-.81-.89-.81Z"/><path class="cls-4" d="M366.14,12.86v8h-2.82l-2.91-5.6h0q.1,1.37.1,2v3.58h-1.9v-8h2.81l2.89,5.53h0q-.08-1.16-.08-1.93v-3.6Z"/><path class="cls-4" d="M371,17.82V16.16h3.43v4.28a9.39,9.39,0,0,1-3.07.48,3.73,3.73,0,0,1-2.84-1.06,4.23,4.23,0,0,1-1-3,4,4,0,0,1,1.09-3,4.21,4.21,0,0,1,3.08-1.07,6.31,6.31,0,0,1,2.57.5l-.68,1.69a4.08,4.08,0,0,0-1.84-.42,1.85,1.85,0,0,0-1.5.61,2.63,2.63,0,0,0-.51,1.74,2.71,2.71,0,0,0,.47,1.71,1.61,1.61,0,0,0,1.34.59,3.62,3.62,0,0,0,.88-.1V17.82Z"/><path class="cls-4" d="M292.52,267.22a4.74,4.74,0,0,1-1,3.38,4.31,4.31,0,0,1-3.22,1,8.46,8.46,0,0,1-1.11-.05v-1.7a4.88,4.88,0,0,0,.94.09q2.35,0,2.46-2h-.06a2,2,0,0,1-.42.57,1.87,1.87,0,0,1-1.25.36,2,2,0,0,1-1.61-.69,3,3,0,0,1-.58-2,2.73,2.73,0,0,1,.75-2,2.8,2.8,0,0,1,2.07-.75,2.77,2.77,0,0,1,2.26,1A4.21,4.21,0,0,1,292.52,267.22Zm-2.14-.82a1.42,1.42,0,0,0-.24-.83.73.73,0,0,0-.61-.34.7.7,0,0,0-.58.27,1.21,1.21,0,0,0-.21.77q0,1,.77,1a.86.86,0,0,0,.62-.25A.83.83,0,0,0,290.38,266.4Z"/><path class="cls-4" d="M262.17,264a3.33,3.33,0,0,1,2-.51,3.27,3.27,0,0,1,2,.51,1.67,1.67,0,0,1,.7,1.44,2.1,2.1,0,0,1-1.37,1.93,3.86,3.86,0,0,1,1.24,1,1.8,1.8,0,0,1,.36,1.07,1.94,1.94,0,0,1-.76,1.64,4.29,4.29,0,0,1-4.29,0,1.93,1.93,0,0,1-.75-1.63,2,2,0,0,1,.33-1.19,2.92,2.92,0,0,1,1.12-.88,2.35,2.35,0,0,1-1.21-2A1.65,1.65,0,0,1,262.17,264Zm1,5.38a.67.67,0,0,0,.24.54,1,1,0,0,0,.66.2q1,0,1-.7a.81.81,0,0,0-.22-.53,3,3,0,0,0-.74-.57Q263.2,268.77,263.2,269.35Zm1.44-3.33a.68.68,0,0,0,.14-.43.51.51,0,0,0-.19-.41.69.69,0,0,0-.46-.16.7.7,0,0,0-.46.16.52.52,0,0,0-.19.41q0,.48.63.83A1.86,1.86,0,0,0,264.63,266Z"/><path class="cls-4" d="M235.78,265.37v-1.78h5.74v1.27l-2.8,6.67h-2.22l2.73-6.16Z"/><path class="cls-4" d="M214.35,265.14a2.33,2.33,0,0,0-1.61.48,2.13,2.13,0,0,0-.57,1.54h.07a1.64,1.64,0,0,1,1.56-.92,2.06,2.06,0,0,1,1.66.68,2.91,2.91,0,0,1,.58,1.95,2.77,2.77,0,0,1-.74,2,2.81,2.81,0,0,1-2.11.76,2.73,2.73,0,0,1-2.16-.91,3.79,3.79,0,0,1-.79-2.56,5.11,5.11,0,0,1,1-3.57,4.12,4.12,0,0,1,3.13-1.14,7.62,7.62,0,0,1,1.14.1v1.68A6.6,6.6,0,0,0,214.35,265.14Zm-2,3.61a1.51,1.51,0,0,0,.22.86.71.71,0,0,0,1.15.06,1.31,1.31,0,0,0,.21-.81q0-1-.76-1a.77.77,0,0,0-.6.25A.88.88,0,0,0,212.38,268.75Z"/><path class="cls-4" d="M187,266.42a5,5,0,0,1,.94-.1,2.38,2.38,0,0,1,1.23.31,2.22,2.22,0,0,1,.87.91,2.73,2.73,0,0,1,.3,1.34,2.57,2.57,0,0,1-.81,2,3.58,3.58,0,0,1-2.42.71,5.23,5.23,0,0,1-2.27-.43v-1.76a5.48,5.48,0,0,0,1.07.36,4.6,4.6,0,0,0,1,.14,1.45,1.45,0,0,0,.92-.25.88.88,0,0,0,.32-.73.87.87,0,0,0-.33-.73,1.46,1.46,0,0,0-.9-.25,3.79,3.79,0,0,0-1.17.19l-.79-.39.3-4.2h4.53v1.79h-2.71Z"/><path class="cls-4" d="M165.21,268.39V270h-.88v1.54h-2.12V270H159v-1.58l3.31-4.83h2v4.81Zm-3,0v-.92q0-.26,0-.7c0-.29,0-.45,0-.47h-.06a4.85,4.85,0,0,1-.42.79l-.88,1.31Z"/><path class="cls-4" d="M136.11,271.64a6.49,6.49,0,0,1-2.37-.43v-1.78a4.49,4.49,0,0,0,2.06.52,2,2,0,0,0,1-.2.7.7,0,0,0,.33-.65.65.65,0,0,0-.38-.63,3.45,3.45,0,0,0-1.31-.2H135v-1.61h.5q1.64,0,1.64-.84a.52.52,0,0,0-.24-.46,1.2,1.2,0,0,0-.66-.15,3,3,0,0,0-1.58.51l-.89-1.43a4.33,4.33,0,0,1,1.28-.62,5.53,5.53,0,0,1,1.53-.19,3.35,3.35,0,0,1,1.94.49,1.56,1.56,0,0,1,.7,1.35,1.88,1.88,0,0,1-.45,1.27,2.61,2.61,0,0,1-1.31.77v0q2,.25,2,1.88a2,2,0,0,1-.88,1.74A4.09,4.09,0,0,1,136.11,271.64Z"/><path class="cls-4" d="M114,269.76v1.77h-5.77v-1.41l1.94-2q.85-.89,1.09-1.2a2.65,2.65,0,0,0,.35-.54,1.23,1.23,0,0,0,.1-.51.59.59,0,0,0-.2-.46.82.82,0,0,0-.57-.18,1.53,1.53,0,0,0-.74.21,5.24,5.24,0,0,0-.89.65l-1.18-1.38a6.13,6.13,0,0,1,1-.79,4.07,4.07,0,0,1,2-.49,2.81,2.81,0,0,1,1.92.6,1.9,1.9,0,0,1,.74,1.57,3,3,0,0,1-.48,1.65,5.64,5.64,0,0,1-.66.82q-.41.43-1.71,1.59v.05Z"/><path class="cls-4" d="M87.48,263.58v8H85.3v-4.21q0-.69,0-1.4a4.92,4.92,0,0,1-.5.51l-.9.74-1.11-1.37,2.73-2.22Z"/><path class="cls-4" d="M58,264.46a2.45,2.45,0,0,1,2.14-1q2.89,0,2.89,4.1a5.37,5.37,0,0,1-.7,3.08,2.48,2.48,0,0,1-2.17,1q-2.87,0-2.87-4.07A5.44,5.44,0,0,1,58,264.46Zm2.17.73q-.4,0-.57.51a10.39,10.39,0,0,0,0,3.73q.17.51.57.5t.56-.52a7.07,7.07,0,0,0,.16-1.85,6.76,6.76,0,0,0-.17-1.84Q60.52,265.19,60.12,265.19Z"/><path class="cls-4" d="M118.79,278a5.16,5.16,0,0,0-2.13-.57,1.61,1.61,0,0,0-1.41.74,3.56,3.56,0,0,0-.5,2q0,2.68,2,2.68a6.6,6.6,0,0,0,2.36-.58v2.12a6.42,6.42,0,0,1-2.64.52,4.17,4.17,0,0,1-3.23-1.22,5.06,5.06,0,0,1-1.12-3.53,5.48,5.48,0,0,1,.53-2.54,4,4,0,0,1,1.58-1.7,4.61,4.61,0,0,1,2.4-.58,6.56,6.56,0,0,1,2.88.66Z"/><path class="cls-4" d="M127.72,281.21a3.82,3.82,0,0,1-1,2.76,3.48,3.48,0,0,1-2.63,1,3.52,3.52,0,0,1-2.65-1,3.81,3.81,0,0,1-1-2.75,3.76,3.76,0,0,1,.95-2.73,3.56,3.56,0,0,1,2.68-1,3.4,3.4,0,0,1,2.6,1A3.66,3.66,0,0,1,127.72,281.21Zm-2.53,0a3.09,3.09,0,0,0-.25-1.42,1,1,0,0,0-1.64,0,3.06,3.06,0,0,0-.25,1.41,3.11,3.11,0,0,0,.25,1.43.87.87,0,0,0,.82.47.85.85,0,0,0,.81-.47A3.23,3.23,0,0,0,125.18,281.21Z"/><path class="cls-4" d="M140.48,284.83H138v-3.92a2.38,2.38,0,0,0-.2-1.11.68.68,0,0,0-.64-.36.89.89,0,0,0-.84.49,3.36,3.36,0,0,0-.27,1.54v3.36h-2.5v-3.92a2.41,2.41,0,0,0-.19-1.1.65.65,0,0,0-.61-.36.9.9,0,0,0-.86.52,4,4,0,0,0-.27,1.71v3.16h-2.49v-7.22H131l.31.89h.15a1.83,1.83,0,0,1,.82-.75,2.8,2.8,0,0,1,1.25-.27,2.44,2.44,0,0,1,2.19.95h.2a2,2,0,0,1,.85-.7,2.85,2.85,0,0,1,1.2-.25,2.47,2.47,0,0,1,1.88.65,2.83,2.83,0,0,1,.62,2Z"/><path class="cls-4" d="M146.51,285a2.46,2.46,0,0,1-1-.19,2.56,2.56,0,0,1-.85-.65h-.11a8.15,8.15,0,0,1,.11.94V288h-2.49V277.62h2l.35.92h.11a2.27,2.27,0,0,1,3.79,0,5.71,5.71,0,0,1,0,5.48A2.25,2.25,0,0,1,146.51,285Zm-.83-2a.75.75,0,0,0,.73-.41,3.11,3.11,0,0,0,.22-1.36,3,3,0,0,0-.22-1.34.77.77,0,0,0-.74-.4.8.8,0,0,0-.75.38,2.47,2.47,0,0,0-.25,1.17v.2a2.74,2.74,0,0,0,.25,1.34A.82.82,0,0,0,145.67,283Z"/><path class="cls-4" d="M154.92,277.49a5.56,5.56,0,0,1,.76.08l-.22,2.35a3.78,3.78,0,0,0-.85-.08q-1.56,0-1.56,1.45v3.55h-2.49v-7.22h1.85l.39,1.15h.12a2.44,2.44,0,0,1,.87-.93A2.1,2.1,0,0,1,154.92,277.49Z"/><path class="cls-4" d="M159.91,285a3.89,3.89,0,0,1-2.8-1,3.68,3.68,0,0,1-1-2.77,3.89,3.89,0,0,1,.92-2.77,3.39,3.39,0,0,1,2.6-1,3.55,3.55,0,0,1,2.57.86,3.24,3.24,0,0,1,.89,2.45v1.1h-4.45a1.22,1.22,0,0,0,.44,1,1.68,1.68,0,0,0,1.1.34,5.79,5.79,0,0,0,1.24-.12,5.63,5.63,0,0,0,1.2-.43v1.79a4.22,4.22,0,0,1-1.19.41A8.32,8.32,0,0,1,159.91,285Zm.62-5.46a1,1,0,0,0-.75-.31,1,1,0,0,0-.76.29,1.34,1.34,0,0,0-.34.86h2.14A1.22,1.22,0,0,0,160.53,279.5Z"/><path class="cls-4" d="M169.33,280.94a2.33,2.33,0,0,1-.05,3.43A3.71,3.71,0,0,1,167,285a10,10,0,0,1-1.39-.08,5.59,5.59,0,0,1-1.21-.32v-2a7.18,7.18,0,0,0,1.29.42,5.54,5.54,0,0,0,1.21.16q.81,0,.81-.37a.41.41,0,0,0-.22-.34,10.77,10.77,0,0,0-1.32-.58,3.38,3.38,0,0,1-1.39-.94,2.11,2.11,0,0,1-.39-1.31,1.83,1.83,0,0,1,.78-1.56,3.53,3.53,0,0,1,2.12-.57,6.65,6.65,0,0,1,2.72.62l-.68,1.61a7.84,7.84,0,0,0-1-.38,3.41,3.41,0,0,0-.91-.16q-.61,0-.61.3a.37.37,0,0,0,.21.32,11.39,11.39,0,0,0,1.23.53A4.47,4.47,0,0,1,169.33,280.94Z"/><path class="cls-4" d="M176.29,280.94a2.33,2.33,0,0,1-.05,3.43A3.71,3.71,0,0,1,174,285a10,10,0,0,1-1.39-.08,5.58,5.58,0,0,1-1.21-.32v-2a7.17,7.17,0,0,0,1.29.42,5.55,5.55,0,0,0,1.21.16q.81,0,.81-.37a.41.41,0,0,0-.22-.34,10.77,10.77,0,0,0-1.32-.58,3.38,3.38,0,0,1-1.39-.94,2.1,2.1,0,0,1-.39-1.31,1.82,1.82,0,0,1,.78-1.56,3.53,3.53,0,0,1,2.12-.57,6.65,6.65,0,0,1,2.72.62l-.68,1.61a7.82,7.82,0,0,0-1-.38,3.42,3.42,0,0,0-.91-.16q-.61,0-.61.3a.37.37,0,0,0,.21.32,11.3,11.3,0,0,0,1.23.53A4.49,4.49,0,0,1,176.29,280.94Z"/><path class="cls-4" d="M181,275.83q0,1.09-1.33,1.09t-1.33-1.09a1,1,0,0,1,.32-.84,2,2,0,0,1,2,0A1,1,0,0,1,181,275.83Zm-.1,1.79v7.22h-2.49v-7.22Z"/><path class="cls-4" d="M189.53,281.21a3.82,3.82,0,0,1-1,2.76,3.47,3.47,0,0,1-2.63,1,3.52,3.52,0,0,1-2.65-1,3.81,3.81,0,0,1-1-2.75,3.77,3.77,0,0,1,.95-2.73,3.56,3.56,0,0,1,2.68-1,3.39,3.39,0,0,1,2.6,1A3.66,3.66,0,0,1,189.53,281.21Zm-2.53,0a3.09,3.09,0,0,0-.25-1.42,1,1,0,0,0-1.64,0,3,3,0,0,0-.25,1.41,3.11,3.11,0,0,0,.25,1.43.87.87,0,0,0,.82.47.85.85,0,0,0,.81-.47A3.23,3.23,0,0,0,187,281.21Z"/><path class="cls-4" d="M198,284.83h-2.49V280.9q0-1.45-.87-1.45a1,1,0,0,0-.91.5,3.73,3.73,0,0,0-.29,1.73v3.16h-2.49v-7.22h1.88l.31.89h.15a2.37,2.37,0,0,1,2.18-1,2.45,2.45,0,0,1,1.86.7,2.72,2.72,0,0,1,.67,2Z"/><polygon class="cls-4" points="209.7 284.83 203.6 284.83 203.6 275.52 206.12 275.52 206.12 282.8 209.7 282.8 209.7 284.83"/><path class="cls-4" d="M214.54,285a3.89,3.89,0,0,1-2.8-1,3.68,3.68,0,0,1-1-2.77,3.89,3.89,0,0,1,.92-2.77,3.4,3.4,0,0,1,2.6-1,3.55,3.55,0,0,1,2.57.86,3.24,3.24,0,0,1,.89,2.45v1.1h-4.45a1.22,1.22,0,0,0,.44,1,1.68,1.68,0,0,0,1.1.34,5.79,5.79,0,0,0,1.24-.12,5.63,5.63,0,0,0,1.2-.43v1.79a4.21,4.21,0,0,1-1.19.41A8.31,8.31,0,0,1,214.54,285Zm.62-5.46a1,1,0,0,0-.75-.31,1,1,0,0,0-.76.29,1.34,1.34,0,0,0-.34.86h2.14A1.22,1.22,0,0,0,215.15,279.5Z"/><path class="cls-4" d="M221.93,282.62h0a2.57,2.57,0,0,1,.12-.72l1.28-4.28H226l-2.75,7.22h-2.46L218,277.62h2.6l1.22,4.27,0,.11,0,.18A2.3,2.3,0,0,1,221.93,282.62Z"/><path class="cls-4" d="M230.31,285a3.89,3.89,0,0,1-2.8-1,3.68,3.68,0,0,1-1-2.77,3.89,3.89,0,0,1,.92-2.77,3.4,3.4,0,0,1,2.6-1,3.55,3.55,0,0,1,2.57.86,3.24,3.24,0,0,1,.89,2.45v1.1H229a1.22,1.22,0,0,0,.44,1,1.68,1.68,0,0,0,1.1.34,5.79,5.79,0,0,0,1.24-.12,5.63,5.63,0,0,0,1.2-.43v1.79a4.21,4.21,0,0,1-1.19.41A8.31,8.31,0,0,1,230.31,285Zm.62-5.46a1,1,0,0,0-.75-.31,1,1,0,0,0-.76.29,1.34,1.34,0,0,0-.34.86h2.14A1.22,1.22,0,0,0,230.92,279.5Z"/><rect class="cls-4" x="234.88" y="274.93" width="2.49" height="9.91"/><path class="cls-4" d="M3.31,186.14a5.17,5.17,0,0,0-.57,2.13,1.61,1.61,0,0,0,.74,1.41,3.56,3.56,0,0,0,2,.5q2.68,0,2.68-2a6.6,6.6,0,0,0-.58-2.36H9.73a6.42,6.42,0,0,1,.52,2.64A4.17,4.17,0,0,1,9,191.65a5.06,5.06,0,0,1-3.53,1.12A5.48,5.48,0,0,1,3,192.23a4,4,0,0,1-1.7-1.58,4.61,4.61,0,0,1-.58-2.4,6.56,6.56,0,0,1,.66-2.88Z"/><path class="cls-4" d="M6.5,177.22a3.82,3.82,0,0,1,2.76,1,3.48,3.48,0,0,1,1,2.63,3.51,3.51,0,0,1-1,2.65,3.81,3.81,0,0,1-2.75,1,3.76,3.76,0,0,1-2.73-.95,3.56,3.56,0,0,1-1-2.68,3.39,3.39,0,0,1,1-2.6A3.66,3.66,0,0,1,6.5,177.22Zm0,2.53a3.08,3.08,0,0,0-1.42.25,1,1,0,0,0,0,1.64,3.06,3.06,0,0,0,1.41.25,3.11,3.11,0,0,0,1.43-.25.87.87,0,0,0,.47-.82.85.85,0,0,0-.47-.81A3.23,3.23,0,0,0,6.5,179.75Z"/><path class="cls-4" d="M10.12,164.45v2.49H6.2a2.38,2.38,0,0,0-1.11.2.68.68,0,0,0-.36.64.89.89,0,0,0,.49.84,3.37,3.37,0,0,0,1.54.27h3.36v2.5H6.2a2.41,2.41,0,0,0-1.1.19.65.65,0,0,0-.36.61.89.89,0,0,0,.52.86,4,4,0,0,0,1.71.27h3.16v2.49H2.9v-1.88l.89-.31v-.15a1.83,1.83,0,0,1-.75-.82,2.8,2.8,0,0,1-.27-1.25,2.44,2.44,0,0,1,.95-2.19V169a2,2,0,0,1-.7-.85,2.84,2.84,0,0,1-.25-1.2,2.47,2.47,0,0,1,.65-1.88,2.83,2.83,0,0,1,2-.62Z"/><path class="cls-4" d="M10.25,158.42a2.46,2.46,0,0,1-.19,1,2.56,2.56,0,0,1-.65.85v.11a8.27,8.27,0,0,1,.94-.11h2.9v2.49H2.9v-2l.92-.35v-.11a2.27,2.27,0,0,1,0-3.79,4.71,4.71,0,0,1,2.72-.69,4.7,4.7,0,0,1,2.75.71A2.25,2.25,0,0,1,10.25,158.42Zm-2,.84a.75.75,0,0,0-.41-.73,3.12,3.12,0,0,0-1.36-.22,3,3,0,0,0-1.34.22.77.77,0,0,0-.4.74.8.8,0,0,0,.38.75,2.48,2.48,0,0,0,1.17.25h.2A2.75,2.75,0,0,0,7.83,160,.82.82,0,0,0,8.25,159.26Z"/><path class="cls-4" d="M2.77,150a5.54,5.54,0,0,1,.08-.76l2.35.22a3.77,3.77,0,0,0-.08.85q0,1.56,1.45,1.56h3.55v2.49H2.9v-1.86l1.15-.39V152a2.44,2.44,0,0,1-.93-.87A2.1,2.1,0,0,1,2.77,150Z"/><path class="cls-4" d="M10.25,145a3.89,3.89,0,0,1-1,2.8,3.68,3.68,0,0,1-2.77,1,3.89,3.89,0,0,1-2.77-.92,3.39,3.39,0,0,1-1-2.6,3.55,3.55,0,0,1,.86-2.57,3.25,3.25,0,0,1,2.45-.89h1.1v4.45a1.22,1.22,0,0,0,1-.44,1.68,1.68,0,0,0,.34-1.1,5.78,5.78,0,0,0-.12-1.24,5.63,5.63,0,0,0-.43-1.2H9.72a4.21,4.21,0,0,1,.41,1.19A8.31,8.31,0,0,1,10.25,145Zm-5.46-.62a1,1,0,0,0-.31.75,1,1,0,0,0,.29.76,1.33,1.33,0,0,0,.86.34v-2.14A1.22,1.22,0,0,0,4.78,144.4Z"/><path class="cls-4" d="M6.22,135.6a2,2,0,0,1,1.71-.73,2,2,0,0,1,1.73.78,3.71,3.71,0,0,1,.59,2.28,10,10,0,0,1-.08,1.39,5.58,5.58,0,0,1-.32,1.21h-2a7.17,7.17,0,0,0,.42-1.29A5.55,5.55,0,0,0,8.44,138q0-.81-.37-.81a.41.41,0,0,0-.34.22,10.77,10.77,0,0,0-.58,1.32,3.38,3.38,0,0,1-.94,1.39,2.1,2.1,0,0,1-1.31.39,1.82,1.82,0,0,1-1.56-.78,3.53,3.53,0,0,1-.57-2.12,6.65,6.65,0,0,1,.62-2.72l1.61.68a7.82,7.82,0,0,0-.38,1,3.42,3.42,0,0,0-.16.91q0,.61.3.61a.37.37,0,0,0,.32-.21,11.3,11.3,0,0,0,.53-1.23A4.49,4.49,0,0,1,6.22,135.6Z"/><path class="cls-4" d="M6.22,128.64a2,2,0,0,1,1.71-.73,2,2,0,0,1,1.73.78,3.72,3.72,0,0,1,.59,2.28,10,10,0,0,1-.08,1.39,5.59,5.59,0,0,1-.32,1.21h-2a7.19,7.19,0,0,0,.42-1.29,5.56,5.56,0,0,0,.16-1.21q0-.81-.37-.81a.41.41,0,0,0-.34.22,10.74,10.74,0,0,0-.58,1.32,3.38,3.38,0,0,1-.94,1.39,2.1,2.1,0,0,1-1.31.39,1.82,1.82,0,0,1-1.56-.78,3.53,3.53,0,0,1-.57-2.12A6.65,6.65,0,0,1,3.39,128l1.61.68a7.76,7.76,0,0,0-.38,1,3.42,3.42,0,0,0-.16.91q0,.61.3.61a.37.37,0,0,0,.32-.21,11.45,11.45,0,0,0,.53-1.23A4.53,4.53,0,0,1,6.22,128.64Z"/><path class="cls-4" d="M1.11,123.93q1.09,0,1.09,1.33t-1.09,1.33a1,1,0,0,1-.84-.32,2,2,0,0,1,0-2A1,1,0,0,1,1.11,123.93Zm1.79.1h7.22v2.49H2.9Z"/><path class="cls-4" d="M6.5,115.4a3.82,3.82,0,0,1,2.76,1,3.47,3.47,0,0,1,1,2.63,3.52,3.52,0,0,1-1,2.65,3.81,3.81,0,0,1-2.75,1,3.77,3.77,0,0,1-2.73-.95,3.56,3.56,0,0,1-1-2.68,3.39,3.39,0,0,1,1-2.6A3.66,3.66,0,0,1,6.5,115.4Zm0,2.53a3.09,3.09,0,0,0-1.42.25,1,1,0,0,0,0,1.64,3,3,0,0,0,1.41.25,3.11,3.11,0,0,0,1.43-.25A.87.87,0,0,0,8.4,119a.85.85,0,0,0-.47-.81A3.23,3.23,0,0,0,6.5,117.93Z"/><path class="cls-4" d="M10.12,106.93v2.49H6.19q-1.45,0-1.45.87a1,1,0,0,0,.5.91,3.73,3.73,0,0,0,1.73.29h3.16V114H2.9V112.1l.89-.31v-.15a2.37,2.37,0,0,1-1-2.18,2.45,2.45,0,0,1,.7-1.86,2.72,2.72,0,0,1,2-.67Z"/><path class="cls-4" d="M6.73,98.81h3.39v2.52H.81V98.28q0-3.8,2.75-3.8a2.75,2.75,0,0,1,2.51,1.59l4.06-2.72V96.2l-3.39,2Zm-4,0H4.84v-.47Q4.84,97,3.67,97q-1,0-1,1.29Z"/><path class="cls-4" d="M10.12,86.22v1.72l-1,.48v0a2.75,2.75,0,0,1,.85,1,3.39,3.39,0,0,1,.23,1.36,2.1,2.1,0,0,1-.62,1.61A2.4,2.4,0,0,1,7.92,93Q5.7,93,5.57,89.91l0-1.21h-.1a.78.78,0,0,0-.89.88,5.34,5.34,0,0,0,.53,2l-1.64.72a6.93,6.93,0,0,1-.65-3.18A3.08,3.08,0,0,1,3.47,87a2.47,2.47,0,0,1,1.92-.76ZM7.83,90.49q.67,0,.67-.71A1.12,1.12,0,0,0,8.21,89a1,1,0,0,0-.75-.32H6.9l0,.57Q7,90.49,7.83,90.49Z"/><path class="cls-4" d="M7.58,81.66q.7,0,.7-.67A3.76,3.76,0,0,0,8,79.78H9.84a4.59,4.59,0,0,1,.3.93,5.34,5.34,0,0,1,.1,1.09,2.35,2.35,0,0,1-.61,1.8,2.72,2.72,0,0,1-1.9.56h-3V85h-1L3,83.94l-1.51-.64V81.66H2.9V79.89H4.77v1.77Z"/><path class="cls-4" d="M1.11,75.92q1.09,0,1.09,1.33T1.11,78.57a1,1,0,0,1-.84-.32,2,2,0,0,1,0-2A1,1,0,0,1,1.11,75.92ZM2.9,76h7.22v2.49H2.9Z"/><path class="cls-4" d="M6.5,67.39a3.82,3.82,0,0,1,2.76,1,3.47,3.47,0,0,1,1,2.63,3.52,3.52,0,0,1-1,2.65,3.81,3.81,0,0,1-2.75,1,3.77,3.77,0,0,1-2.73-.95,3.56,3.56,0,0,1-1-2.68,3.39,3.39,0,0,1,1-2.6A3.66,3.66,0,0,1,6.5,67.39Zm0,2.53a3.09,3.09,0,0,0-1.42.25,1,1,0,0,0,0,1.64,3,3,0,0,0,1.41.25,3.11,3.11,0,0,0,1.43-.25A.87.87,0,0,0,8.4,71a.85.85,0,0,0-.47-.81A3.23,3.23,0,0,0,6.5,69.92Z"/></svg>