<svg xmlns="http://www.w3.org/2000/svg" xmlns:xlink="http://www.w3.org/1999/xlink" viewBox="0 0 249.38 113.74"><defs><style>.cls-1{isolation:isolate}.cls-2{fill:#f3a712}.cls-3{fill:#3f2b20}.cls-4{fill:#21140b}.cls-5{fill:#2d1c10}.cls-6{fill:#443e39}.cls-7{fill:#d3bba7}.cls-8{fill:#f9e3cf}.cls-9{fill:#e5e5e5}.cls-10{fill:#fff}.cls-11{fill:#302012}.cls-12{fill:#470b0b}.cls-13{fill:#6d0f0f}.cls-14{fill:none;stroke:#000;stroke-miterlimit:10;stroke-width:.25px}.cls-15{fill:#cb685c}.cls-16{fill:#af5454}.cls-17{fill:#e08079}.cls-18{fill:#9b755c}.cls-19{fill:#7a553c}.cls-20{fill:#2d416d}.cls-21{fill:#1b2a54}.cls-22{fill:#132244}.cls-23{fill:#91694e}.cls-24{fill:#ce4a2c}.cls-25{fill:#600707}.cls-26{fill:#911010}.cls-27{fill:#770b0b}.cls-28{fill:#aa4526}.cls-29{opacity:.5;mix-blend-mode:multiply}.cls-30{fill:url(#linear-gradient)}.cls-31{fill:url(#linear-gradient-2)}.cls-32{fill:#ba1200}</style><linearGradient id="linear-gradient" x1="61.48" y1="2.25" x2="61.48" y2="2.25" gradientUnits="userSpaceOnUse"><stop offset="0" stop-color="#fff"/><stop offset=".12" stop-color="#ded8d3"/><stop offset=".13" stop-color="#dbd4cf"/><stop offset=".3" stop-color="#b3a599"/><stop offset=".46" stop-color="#927d6c"/><stop offset=".62" stop-color="#785f49"/><stop offset=".76" stop-color="#65492f"/><stop offset=".89" stop-color="#5a3c20"/><stop offset="1" stop-color="#56371b"/></linearGradient><linearGradient id="linear-gradient-2" x1="57.16" y1="58.46" x2="134.49" y2="190.02" xlink:href="#linear-gradient"/></defs><title>elaine</title><g class="cls-1"><g id="Vector"><path class="cls-2" d="M118.4 96.27a29.58 29.58 0 0 0-1.26-6.32 29.08 29.08 0 0 0-2.32-5.51c-.34-.6-.69-1.16-1-1.7l-.51-.8-1.13-1.81a68.73 68.73 0 0 1-2.12-3.68 23.24 23.24 0 0 1-2.23-5.94v-.1a7.21 7.21 0 0 1-.14-.8l-.18-1.69v-1.29a28.61 28.61 0 0 1 1.06-7c.3-1.1.63-2.22 1-3.34.45-1.5.92-3 1.3-4.61a34.73 34.73 0 0 0 .81-4.33 20.36 20.36 0 0 0 0-4.46 15.87 15.87 0 0 0-.82-3.59l.35-.09a6.6 6.6 0 0 0 2.19-1.05 6.21 6.21 0 0 0 1.44-1.51 6.06 6.06 0 0 0 .39-.65l.11-.21v-.1l.24-.56.15-.41.05-.16.09-.33.13-.57v-.33a2.38 2.38 0 0 0 0-.36 2.32 2.32 0 0 0 0-.39 2.24 2.24 0 0 0-.59-1.13 2.19 2.19 0 0 0-.28-.25 2.24 2.24 0 0 0-1.09-.43 2.31 2.31 0 0 0-.54 0 2.25 2.25 0 0 0-1.27.6l-.1.1-.56.6-.15.13-.2.18a3.22 3.22 0 0 1-.87.54.86.86 0 0 1-.61 0 3.46 3.46 0 0 1-1.31-1 13.8 13.8 0 0 1-1.59-2.19 56.42 56.42 0 0 1-2.67-5.18l-.48-1c-.29-.59-.58-1.19-.89-1.78a16.89 16.89 0 0 0-1.13-1.89 24.37 24.37 0 0 0-2.63-3.35 27.11 27.11 0 0 0-6.55-5.16 24.28 24.28 0 0 0-11.12-3.09 9.5 9.5 0 0 0-2.53-2.81 15.09 15.09 0 0 0-3.15-1.87 14.41 14.41 0 0 0-3.16-.92c-.43-.07-.84-.11-1.31-.15H70a15.79 15.79 0 0 0-7.42 2.1c.11-.19.24-.37.37-.56l.15-.19A2.24 2.24 0 0 0 61.8 0h-.7l-.1.06a2.24 2.24 0 0 0-.34.11h-.07l-.75.35-.16.08a12.48 12.48 0 0 0-1.94 1.23 9.65 9.65 0 0 0-2.19 2.27 7.78 7.78 0 0 0-1.1 2.44 7.94 7.94 0 0 0-.18 2.62v.38a21.93 21.93 0 0 0-5-.76 20.88 20.88 0 0 0-8.8 1.77 22.25 22.25 0 0 0-5.9 3.93l-.11.11-.38.4a19.51 19.51 0 0 0-1.63 1.82c-.69.87-1.36 1.86-2.15 3.06l-.38.59c-.56.86-1.14 1.75-1.74 2.59A16.87 16.87 0 0 1 26 25.67a7.71 7.71 0 0 1-1.11.85 4.71 4.71 0 0 1-1.11.49 4.24 4.24 0 0 1-2 0 4.13 4.13 0 0 1-.58-.16l-.47-.17-.33-.13-.7-.34a2.25 2.25 0 0 0-3.23 2 3.08 3.08 0 0 0 .72 1.81 11.34 11.34 0 0 0 1.46 1.78 10.27 10.27 0 0 0 2.92 2.06 8.65 8.65 0 0 0 1 .39l-.81.93-.45.51a31.52 31.52 0 0 0-2.81 3.57 16.09 16.09 0 0 0-2.63 7.57 12.6 12.6 0 0 0 .77 5.56A19 19 0 0 0 18 55.1l.17.28a9.11 9.11 0 0 1 1 2 1.17 1.17 0 0 1 .05.46 1.07 1.07 0 0 1-.19.41l-.26.3a15 15 0 0 0-.79.8 16.94 16.94 0 0 0-1.35 1.75 21.08 21.08 0 0 0-2.07 4 15.4 15.4 0 0 0-1.1 4.78 9.23 9.23 0 0 0 .28 2.93 6.76 6.76 0 0 0 1.75 3.05 7.11 7.11 0 0 0 3 1.75h.13l.46.12a8.19 8.19 0 0 1-.21 1.27c-.05.24-.12.49-.19.74h-.4c-2.53-.13-5.69-.26-8.22-.37l-3.43-.14a4.48 4.48 0 0 0-2.87.11 5.26 5.26 0 0 0-2.33 1.75A6.48 6.48 0 0 0 .44 83a7.5 7.5 0 0 0-.34 1.36l-.1.82a7.27 7.27 0 0 0 0 1.33 6.5 6.5 0 0 0 .58 2 5.2 5.2 0 0 0 1.84 2.18 4.57 4.57 0 0 0 3.47.68l3 .13 2.65.09c-.18.41-.33.81-.47 1.2a12.41 12.41 0 0 0-.65 2.92 18.86 18.86 0 0 0 .29 5.42 20.36 20.36 0 0 0 1.65 5 13.66 13.66 0 0 0 3.34 4.48 8.8 8.8 0 0 0 5.9 2.2 8.76 8.76 0 0 0 3-.75c.46-.2.9-.42 1.33-.63l.22-.11c.42-.16.87-.36 1.31-.56a4.83 4.83 0 0 1 .5-.14 9.72 9.72 0 0 1 1.56-.22 14.29 14.29 0 0 1 3.26.23 18.11 18.11 0 0 1 4 1.26c.72.29 1.47.59 2.22.84a18 18 0 0 0 5.92.93h.81a28.32 28.32 0 0 0 4.84-.67c1.14-.25 2-.5 2.64-.67l.2-.06c1.23-.35 2.46-.75 3.78-1.17s2.66-.86 4-1.24a23.27 23.27 0 0 1 7.23-1.06 15.14 15.14 0 0 1 1.82.19 6 6 0 0 0 .42.54 7.84 7.84 0 0 0 2.25 1.75 11.5 11.5 0 0 0 2.28.91 14.5 14.5 0 0 0 2.24.45h2.5a19.07 19.07 0 0 0 4.21-.85 42.37 42.37 0 0 0 5.25-2.17c.62-.29 1.23-.58 1.84-.85a28.57 28.57 0 0 1 3.13-1.21 6 6 0 0 1 2.47-.22 12 12 0 0 1 2.82.73l1.27.48c.69.27 1.38.53 2.08.77a15.48 15.48 0 0 0 4.18.84h1.15l.81-.09a4.7 4.7 0 0 0 .75-.12l.34-.08a6.68 6.68 0 0 0 1-.26l.19-.06a9.86 9.86 0 0 0 3.85-2.35 10.3 10.3 0 0 0 2.34-3.68 14.16 14.16 0 0 0 .83-3.79 21.14 21.14 0 0 0-.04-3.45z"/><path class="cls-3" d="M29.93 28.54c5.83-8.29 12.8-16.29 23-16.72a18.46 18.46 0 0 0-17.49 6.08C31 22.84 27.55 33.33 18.87 28.47l.17.28c3.16 3.15 8.44 3.16 10.89-.21zM61.57 2.62l.13-.15c-5.53 2.94-4.92 7.14-4 9.54-.32-3.55.95-7.4 3.87-9.39zM78 8.06a12.45 12.45 0 0 0-3-1.8 13.18 13.18 0 0 0-12.66 1.91C67.4 6.85 73.4 5.51 78 8.06zM26.82 33.32c-2.31 3.72-6 6.39-7.4 10.65a11.55 11.55 0 0 0-.31 7.17 9.94 9.94 0 0 0 .92 2c-.94-7.33 3.15-13.49 6.79-19.82z"/><path class="cls-4" d="M31.22 104.1a4.33 4.33 0 0 1-.69 1.82c-4.46 3.51-12.28 3.6-15.82-1.33 1.26 2.93 3.33 5.31 6.1 5.76 2.41.39 4.23-1.43 6.42-2a15 15 0 0 1 6.7 0c2.68.52 5 2 7.61 2.54 9.4 2.09 18.54-5.3 28-4.21a23 23 0 0 1 3.78.8c.29-1.81 1.26-3.49 1.82-5.16-13.92 3.36-31.44 12.91-43.92 1.78z"/><path class="cls-4" d="M53.66 103.9c8.6.2 14.51-7.44 22.94-10a3.88 3.88 0 0 1 3.33.67c1.67 1 1.67 2.67.67 4.67-1.49 2.13-3.79 2.9-5.79 4a21 21 0 0 0-1.5 4.32A15.25 15.25 0 0 1 77 109.1l17.63-8.17V77.47a11.15 11.15 0 0 0-4.39 1.41C77.16 85.75 67.59 98.1 53.66 103.9z"/><path class="cls-3" d="M17.6 68.54c.85-3.41 5.08-6.81 4.47-10.22a3.93 3.93 0 0 1-1.2 2.32c-3 2.66-6.57 10.49-3.19 13.58a8.07 8.07 0 0 1-.08-5.68z"/><path class="cls-4" d="M35.48 42.24c8.09-5.93 15.36-15.84 15.45-25.85C42.82 22.78 36.72 32 35.48 42.24zm8.97 59.52c-1-11.92-7.15-23.06-12.94-33.21-1.41 12.35 1.15 27.08 12.94 33.21z"/><path class="cls-5" d="M76.2 12.18c1.54 3 4 1.3 3.68-1.23A4.81 4.81 0 0 0 78 8.06c-4.6-2.55-10.6-1.21-15.66.11a12.37 12.37 0 0 0-1.39 1.22c-2.9-2.3 0-6 .62-6.77-2.92 2-4.19 5.84-3.82 9.39a9.42 9.42 0 0 0 1 1.88 20.83 20.83 0 0 0-5.83-2.07c-10.18.43-17.15 8.43-23 16.72-2.45 3.37-7.73 3.36-10.89.22.7 1.08 3.54 4.83 8.41 3.47-.19.38-.41.74-.63 1.1-3.64 6.33-7.72 12.49-6.79 19.8 1 1.72 2.24 3.43 2 5.2.61 3.41-3.62 6.81-4.47 10.22a8.07 8.07 0 0 0 .08 5.68 4.46 4.46 0 0 0 1.67.94c2.19 0 4.07-1.41 3.72-3.95.52.53.43 1.28.59 2a5.14 5.14 0 0 0 .05-.74A4.31 4.31 0 0 1 22 77.64c0 6.7-6.37 10.48-8.3 16.77-.83 2.69-.43 6.8 1 10.19 3.54 4.93 11.36 4.84 15.82 1.33a4.33 4.33 0 0 0 .69-1.82c12.48 11.13 30 1.57 43.9-1.79-.09.28-.2.56-.31.84 2-1.06 4.3-1.83 5.79-4 1-2 1-3.67-.67-4.67a3.88 3.88 0 0 0-3.33-.67c-8.43 2.59-14.34 10.23-22.94 10 13.94-5.8 23.5-18.15 36.61-25a11.15 11.15 0 0 1 4.39-1.41V48.24zM31.51 68.55c5.79 10.15 11.9 21.3 12.94 33.21C32.66 95.63 30.1 80.9 31.51 68.55zm4-26.31C36.72 32 42.82 22.78 50.94 16.39c-.1 10.01-7.37 19.92-15.46 25.85z"/><path class="cls-4" d="M19.35 75.16a8 8 0 0 0 2.43.34v.18a3 3 0 0 0 1.84-2.49c-.15-.7-.07-1.44-.59-2 .38 2.55-1.49 3.96-3.68 3.97z"/><path class="cls-4" d="M23.71 72.44a3.22 3.22 0 0 1-1.9 3.23 11.37 11.37 0 0 1 .17 2 4.31 4.31 0 0 0 1.73-5.23z"/><path class="cls-6" d="M53 110.38c2.43-.68 5.08-1.64 7.77-2.4a25.37 25.37 0 0 1 7.93-1.13 20.77 20.77 0 0 1 6.07 1.2 14.74 14.74 0 0 1 1.68.72l.58.32-.56-.35a14.46 14.46 0 0 0-1.65-.82 20.45 20.45 0 0 0-6.1-1.52 24.83 24.83 0 0 0-8.15.84c-2.75.7-5.43 1.6-7.82 2.27a29.69 29.69 0 0 1-7 1.26 15.36 15.36 0 0 1-5.55-.77c-2-.65-4.12-1.82-6.7-2.23a13.34 13.34 0 0 0-8.05.74 10.66 10.66 0 0 1-3.79 1.4A5.71 5.71 0 0 1 18 108.5c-2.15-1.85-3.35-4.78-3.94-7.71a15.69 15.69 0 0 1-.25-4.5A11.9 11.9 0 0 1 15.17 92c1.42-2.71 3.54-5.05 5.17-7.75a14 14 0 0 0 1.83-4.36 10.91 10.91 0 0 0 .24-2.35 5.78 5.78 0 0 0-.06-1.17l-.07-.58-.07-.53c0-.07 0-.23-.07-.23H21.1c-.18 0-.35 0-.52-.06a6.35 6.35 0 0 1-1-.21 4 4 0 0 1-1.69-1 4.57 4.57 0 0 1-1.11-3.59 15.21 15.21 0 0 1 2.64-7.14 14 14 0 0 1 1.09-1.41c.2-.21.39-.42.6-.61s.43-.49.64-.74a4.06 4.06 0 0 0 .61-3.58A12.42 12.42 0 0 0 21 53.84a17.37 17.37 0 0 1-1.26-2.36 9.51 9.51 0 0 1-.55-4.14 12.87 12.87 0 0 1 .5-2.63 18.66 18.66 0 0 1 4.06-6.77c.89-1.08 1.81-2.17 2.6-3.31.19-.29.39-.57.57-.87l.26-.44c.1-.14.24-.44.36-.65l.36-.67v-.08s0-.06 0 0h-.18l-.36.08a9.75 9.75 0 0 1-1.25.25 6.54 6.54 0 0 1-3.32-.42 7.92 7.92 0 0 1-2.3-1.46A9.2 9.2 0 0 1 19.24 29c-.26-.34-.38-.55-.38-.55a6.5 6.5 0 0 0 .35.57 9.13 9.13 0 0 0 1.17 1.43 8 8 0 0 0 2.29 1.62 6.85 6.85 0 0 0 3.48.6 3.69 3.69 0 0 0 .63-.07h.11s.08 0 0 0l-.12.19-.41.62c-.18.28-.39.54-.58.82-.81 1.08-1.75 2.12-2.68 3.18a29.71 29.71 0 0 0-2.63 3.33 13.86 13.86 0 0 0-2.26 6.49 10.38 10.38 0 0 0 .61 4.55c.65 1.7 2 3.23 2.61 5.14a3.14 3.14 0 0 1-.43 2.85l-.51.6c-.15.17-.45.44-.67.67a14.86 14.86 0 0 0-1.16 1.51 18.68 18.68 0 0 0-1.84 3.51 13.35 13.35 0 0 0-1 4.09 5.45 5.45 0 0 0 1.37 4.27 4.86 4.86 0 0 0 2.06 1.19 7.25 7.25 0 0 0 1.15.24c.19 0 .39.06.58.06h.35l.07.56a5.11 5.11 0 0 1 .06 1.08 10 10 0 0 1-.22 2.16 13.1 13.1 0 0 1-1.72 4.09c-1.56 2.6-3.7 5-5.2 7.8a12.8 12.8 0 0 0-1.49 4.59 16.57 16.57 0 0 0 .26 4.77 18.36 18.36 0 0 0 1.46 4.47 11.31 11.31 0 0 0 2.78 3.75 6.58 6.58 0 0 0 4.32 1.67 11.28 11.28 0 0 0 4.13-1.49 9.71 9.71 0 0 1 3.77-.92 16.28 16.28 0 0 1 3.75.25c2.41.37 4.47 1.51 6.56 2.2a16.25 16.25 0 0 0 5.91.78 30.51 30.51 0 0 0 7.23-1.29z"/><path class="cls-7" d="M55 17a22.22 22.22 0 0 0-6.76 4.05c0 1.94.15 3.79 1.53 5.3.38 2.85 1.15 6.06 3.35 8.1-2-6.2-1-14.75 6.42-15.54a5.15 5.15 0 0 0 1.79-3.71A42.64 42.64 0 0 0 55 17zM37.79 56.13a16 16 0 0 0-3.92 3.56c4.18 1.84 9.3-.41 12.39-3.82-2.9.02-5.66.13-8.47.26zm8.41-10.05a3.29 3.29 0 0 0-.84-.7c-3.47-.87-6.94.79-10.65.86v1.32a23.53 23.53 0 0 1 11.49-1.48zm12.8-.43c6.1 1.77 12.79 0 18.89 2.09-4.6-5.23-12.81-3.93-18.89-2.09z"/><path class="cls-7" d="M48.39 23.34a14 14 0 0 1-.14-2.28c-4.79 4.12-8.14 10-10.82 15.72a26.5 26.5 0 0 0-1 2.38c3.3-5.7 6.98-11.52 11.96-15.82zm22.88 70.53c-4.33 2-8.67 4.33-13 6-4.87 1.95-12.58 2.31-15.14-3.21-.7 1.07-.4 2.29 0 3.59 6.39 6.87 11.86 4 19-.21 3.39-2 6.8-4.05 10.11-6.26 2.63-1.75 5.19-3.58 7.65-5.52-.33.09-.65.18-.94.28a28.92 28.92 0 0 1-7.68 5.33zm22.16-58.94a46.87 46.87 0 0 0-2-5.4h-4.36c-2.18 7.11-8 14.21-5.14 21 .91 2 1.7 4.05 2.38 6.06a14.52 14.52 0 0 1-.05 5.27c-.67 3.67-2.33 6.67-1.67 10.33 1 5.21 1.61 10.6-1 14.66l1-.87C90.77 79 94.85 69.57 96 59.52a62.5 62.5 0 0 0-2.57-24.59zM58.68 55.47a93.2 93.2 0 0 1 1.59 2.07c4.54 6.16 14.43 4.75 18.34-1.76-6.61-.65-13.39-1.47-19.93-.31z"/><path class="cls-8" d="M91.44 29.54a32.42 32.42 0 0 0-5-8.08 10.13 10.13 0 0 1-9.55 2.42c-4.33-1.33-8-7.33-12.67-3.33-2.45 1.73-3.22 4.6-3.1 7.45A11.58 11.58 0 0 1 60 21.47 9.33 9.33 0 0 0 62.63 15l-1.3.25a5.15 5.15 0 0 1-1.79 3.71c-7.42.79-8.39 9.34-6.42 15.54-2.2-2-3-5.25-3.35-8.1a5.61 5.61 0 0 1-1.38-3c-5 4.29-8.66 10.12-12 15.82a23 23 0 0 0-1.68 7.07c3.71-.07 7.18-1.73 10.65-.86a3.29 3.29 0 0 1 .84.7 23.53 23.53 0 0 0-11.49 1.48 9.88 9.88 0 0 0 4.16 7.92c-.37.21-.73.43-1.08.66 2.82-.09 5.58-.24 8.47-.26-3.1 3.41-8.21 5.66-12.39 3.82-5.36 6.87-3.74 17.18.19 26.19 2.67 3.86 5.18 8.18 9.28 10.49a2.76 2.76 0 0 0-.2.28c2.56 5.52 10.27 5.16 15.14 3.21 4.33-1.67 8.67-4 13-6a28.92 28.92 0 0 0 7.67-5.33c.29-.1.61-.19.94-.28q.87-.68 1.71-1.39c2.63-4.07 2-9.46 1-14.66-.67-3.67 1-6.67 1.67-10.33a14.52 14.52 0 0 0 .05-5.27c-.69-2-1.48-4-2.38-6.06-2.91-6.79 3-13.89 5.14-21zM42.27 71.87a7.4 7.4 0 0 1 0-1.79 13 13 0 0 0 7.33 2.78c-2.12 1.97-6.38 1.55-7.33-.99zm35.61-24.13c-6.1-2.07-12.79-.32-18.89-2.09 6.09-1.84 14.3-3.14 18.89 2.09zm-17.61 9.8c-.53-.71-1.06-1.39-1.59-2.07 6.55-1.16 13.37-.34 19.93.31-3.92 6.51-13.81 7.92-18.34 1.76z"/><path class="cls-7" d="M34.06 85.89a55.21 55.21 0 0 0 8.66 13.91l.41.45c-.43-1.41-.75-2.74.21-3.87-4.1-2.31-6.62-6.63-9.28-10.49zm8.21-14.02c1 2.53 5.21 3 7.35 1a13 13 0 0 1-7.33-2.78 7.4 7.4 0 0 0-.02 1.78zM60 21.47A11.58 11.58 0 0 0 61.12 28c-.17-2.87.65-5.73 3.14-7.48 4.67-4 8.33 2 12.67 3.33a10.13 10.13 0 0 0 9.55-2.42A18.61 18.61 0 0 0 78.9 16c-5-1.84-10.79-2-16.27-1A9.33 9.33 0 0 1 60 21.47z"/><path class="cls-6" d="M36.68 90A54.25 54.25 0 0 1 32 78.45a27.36 27.36 0 0 1-.8-12.35 15.65 15.65 0 0 1 1.89-5 15 15 0 0 1 2.68-3.32A12.68 12.68 0 0 1 37 56.75a8.66 8.66 0 0 1 1-.75l.87-.57L38 56a8.66 8.66 0 0 0-1 .67 12.7 12.7 0 0 0-1.29 1 15.1 15.1 0 0 0-2.85 3.27 15.92 15.92 0 0 0-2.12 5 27.41 27.41 0 0 0 .4 12.7A50.41 50.41 0 0 0 35.8 90.5a53.27 53.27 0 0 0 6.34 9.34c.44.52 1 1 1.45 1.55l.84.74a6.69 6.69 0 0 0 .91.71 9.94 9.94 0 0 0 4.6 1.93 11.61 11.61 0 0 0 5.39-.72 34 34 0 0 0 5.17-2.48A153.65 153.65 0 0 0 82 87.27c.91-.73 1.76-1.55 2.62-2.36.42-.42.89-.79 1.28-1.25L87 82.3a26.58 26.58 0 0 0 2.22-2.85 29 29 0 0 0 2-3.07 42.58 42.58 0 0 0 4.87-13.82c1.65-9.74.37-19.73-2.39-28.61a37.79 37.79 0 0 0-6.16-12.09 21.79 21.79 0 0 0-4.71-4.44 18.38 18.38 0 0 0-5.61-2.55 31.6 31.6 0 0 0-11-.91 42.24 42.24 0 0 0-9 1.72 25 25 0 0 0-6.41 2.81 24.43 24.43 0 0 0-3.51 2.67 38.72 38.72 0 0 0-7.63 10.24c-2 3.88-4 7.88-4.79 11.77a15.9 15.9 0 0 0-.24 5.45 10.33 10.33 0 0 0 1.5 4.07 10.17 10.17 0 0 0 1.91 2.13l.81.65-.78-.68A9.47 9.47 0 0 1 35 48.58a15.64 15.64 0 0 1 .43-5.29c.87-3.76 2.94-7.65 5.06-11.45A40.49 40.49 0 0 1 48 22a22.88 22.88 0 0 1 9.5-5.24 41.16 41.16 0 0 1 8.77-1.68 30.53 30.53 0 0 1 10.61.87 17.28 17.28 0 0 1 5.29 2.4 20.71 20.71 0 0 1 4.47 4.22 36.73 36.73 0 0 1 6 11.74c2.72 8.73 4 18.58 2.35 28.1a41.5 41.5 0 0 1-4.74 13.47 28 28 0 0 1-1.9 3 25.6 25.6 0 0 1-2.16 2.77l-1.15 1.31c-.37.44-.83.81-1.24 1.21-.84.79-1.66 1.59-2.56 2.31a152.65 152.65 0 0 1-21.35 14.24 33 33 0 0 1-5 2.4 10.54 10.54 0 0 1-4.89.67 8.87 8.87 0 0 1-4.09-1.79 6 6 0 0 1-.85-.66l-.79-.69c-.47-.51-1-1-1.38-1.48A52.24 52.24 0 0 1 36.68 90z"/><path class="cls-7" d="M44.93 66.21c1.57-2.36 3.14-4.31 3.9-6.65-1.81 2.55-4.4 6.12-6.14 8.25-2.37 2.91-.4 5 4.25 5.22-2.79-.82-4.23-3.36-2.01-6.82z"/><path class="cls-8" d="M50.62 72.81l.33-16.25-2.11 3c-.76 2.35-2.33 4.29-3.9 6.65-2.23 3.46-.78 6 2 6.82a21.13 21.13 0 0 0 3.68-.22z"/><path class="cls-6" d="M43.45 67.68c1.06-1.32 3-4.08 4.56-6.54s2.94-4.59 2.94-4.59l-3.35 4.3L42.66 67a9.68 9.68 0 0 0-.92 1.32 3.22 3.22 0 0 0-.41 2.19 2.86 2.86 0 0 0 1.58 1.87 6.79 6.79 0 0 0 2.24.65 15.7 15.7 0 0 0 3.86 0c1-.13 1.61-.25 1.61-.25s-.63.06-1.62.09a16 16 0 0 1-3.75-.3 6.35 6.35 0 0 1-2-.76 2.12 2.12 0 0 1-1.09-1.43 2.41 2.41 0 0 1 .41-1.56 12.31 12.31 0 0 1 .88-1.14z"/><path class="cls-9" d="M58.88 55l-.52.37s5.25 5.7 11.75 4.51 9-4.51 9-4.51a3.11 3.11 0 0 0-.4-.67 18.77 18.77 0 0 1-19.83.3z"/><path class="cls-10" d="M69 50.65c-3.92.22-8.62 3.3-10.15 4.38a18.77 18.77 0 0 0 19.83-.3A12.6 12.6 0 0 0 69 50.65z"/><path class="cls-11" d="M72.56 51s-2.56 1.56-1.82 4.22 3.05 3.06 5 2.8a12.72 12.72 0 0 0 3.39-2.62s-1.23-2.78-6.57-4.4z"/><path class="cls-6" d="M78.71 55.36l-.19.2-.44.43a12.4 12.4 0 0 1-1.11.88A15.34 15.34 0 0 1 74 58.5a14.41 14.41 0 0 1-7.44 1.26 14.79 14.79 0 0 1-6-2.56 15.54 15.54 0 0 1-2.18-1.8 15.41 15.41 0 0 0 2.12 1.88 14.89 14.89 0 0 0 6 2.81 11.19 11.19 0 0 0 4 0 19.37 19.37 0 0 0 3.75-1 15.42 15.42 0 0 0 3.1-1.62 12.36 12.36 0 0 0 1.18-.92c.17-.16.34-.31.48-.46l.22-.24.18-.22.09-.11v-.12a3.52 3.52 0 0 0-.39-.69 4.69 4.69 0 0 0-.43-.53 8.67 8.67 0 0 0-1.12-1 13.64 13.64 0 0 0-3.06-1.72 12.73 12.73 0 0 0-3.8-.93 10.54 10.54 0 0 0-3.94.43 24.75 24.75 0 0 0-6 2.89c-1.47.94-2.33 1.62-2.33 1.62s.89-.65 2.38-1.53a24.86 24.86 0 0 1 6.06-2.66 11.07 11.07 0 0 1 7.43.7 13.44 13.44 0 0 1 2.88 1.71 8.36 8.36 0 0 1 1 .95 4.18 4.18 0 0 1 .37.47 2.15 2.15 0 0 1 .16.25z"/><path class="cls-3" d="M62.37 13.71c-1.49 1.57-6.31 7.48-1.61 13.88-1.22-4.67-.33-9.51 1.61-13.88z"/><path class="cls-12" d="M42.38 87a12.35 12.35 0 0 1-.05 1.3l.42.82A102.51 102.51 0 0 1 53.18 89c2.75.1 6.29.92 8.94-.23-5.93-3.38-13.33-3.16-19.74-1.77z"/><path class="cls-13" d="M58 78.25c0-.56.07-1.13.11-1.69-2.38.14-4.8.65-6.46.81-3.44.34-6.89.59-10.35.78a5.5 5.5 0 0 1-.23 4.36A9 9 0 0 1 42.38 87c6.41-1.41 13.81-1.64 19.74 1.79a5.5 5.5 0 0 0 .52-.26 8 8 0 0 0 3.48-6.87c-1.5-2.6-4.87-3.81-8.12-3.41z"/><path class="cls-12" d="M66.12 81.69a5.6 5.6 0 0 0-.53-2.29c-1.28-2.61-4.34-3-7.45-2.85 0 .56-.07 1.13-.11 1.69 3.22-.39 6.59.82 8.09 3.45z"/><path class="cls-3" d="M77.45 102.8c-1.48-2.27-6 .42-5.48 3.36a3.77 3.77 0 0 0 .2.71c1.05-2.18 2.76-4.29 5.28-4.07z"/><path class="cls-4" d="M77.6 20.87c-2.91-2.58-5.82-4.87-9.6-4.38 6.23-.29 8.15 8.73 14.29 5.83a6.71 6.71 0 0 1-4.69-1.45zm24.21 37.97c1.75.84 3.65-.6 5-2.14l.82-2.65a2.77 2.77 0 0 1-.47-.08c-1.49 2.18-2.49 4.6-5.35 4.87z"/><path class="cls-3" d="M87.6 54.54c-1.42-3.79-4-7.59-4.21-11.62-.15.56-.3 1.12-.42 1.7-1.14 5.27 2.93 8.38 3.6 13.3.47 3.44-1.37 6.53-2.13 9.81 2.26-4.11 4.94-8.36 3.16-13.19zm17.74 32.11c-1.53-5 .31-10.37 0-15.56a20.47 20.47 0 0 1-.4-4c-1.46 6.62-3.58 14.65.4 19.56z"/><path class="cls-5" d="M112.2 85.14a72.72 72.72 0 0 1-5.25-9.14c-1.47 3.78-1.88 8.56-.29 12.31a7.81 7.81 0 0 1-1.45-2.14l.13.47c-4-4.92-1.86-12.95-.4-19.54a27.79 27.79 0 0 1 .78-6.37c.3-1.32.7-2.67 1.13-4-1.39 1.54-3.28 3-5 2.14 2.86-.27 3.85-2.7 5.38-4.87a2.77 2.77 0 0 0 .47.08c1.75-5.77 3.14-11.79-.76-17.1 0 0 4.26 1.52 6.26-1.49a6.28 6.28 0 0 1-8.24-2.26c-4.92-9-10.09-18.43-19.43-21.65a22.32 22.32 0 0 0-5.6-.46l-17.15 2.19s-.16.14-.41.41c-1.94 4.37-2.84 9.21-1.61 13.88l.35.46c-1.58-4.88.2-10.21 5.69-11.41a7 7 0 0 1 1.2-.16c3.82-.47 6.73 1.79 9.63 4.38a6.71 6.71 0 0 0 4.66 1.45 9.78 9.78 0 0 0 1.44-.85c6.39 7.89 1.86 13.59-.31 21.44.18 4 2.79 7.83 4.21 11.62 1.78 4.83-.9 9.08-3.16 13.19-.09.38-.17.76-.22 1.15a17.65 17.65 0 0 0 .11 5.26c3.56 8.48 6.44 21.86-2.55 26.79a7.44 7.44 0 0 1-4.07 2.45 2.44 2.44 0 0 0-.27-.56c-2.52-.22-4.23 1.89-5.28 4.06.69 1.8 2.66 2.75 4.6 3.18a23.81 23.81 0 0 0 4.83-.84c3.67-1.67 7-3.67 10.67-5s7.58-.65 11.38 0l2.51.43a9.31 9.31 0 0 0 8.11-4.11 8.87 8.87 0 0 0 1.66-3.91 27.65 27.65 0 0 0-3.75-11.48z"/><path class="cls-3" d="M84.33 74.14c.8 5.08 3.1 9.88 2.15 15.39-.57 3.3-1.93 8.36-4.69 11.4 8.98-4.93 6.11-18.31 2.54-26.79z"/><path class="cls-4" d="M106.95 76a23.16 23.16 0 0 1-1.61-4.92c.3 5-1.42 10.25-.14 15.09a7.81 7.81 0 0 0 1.45 2.14c-1.58-3.73-1.17-8.51.3-12.31zm8.97 20.63a8.87 8.87 0 0 1-1.66 3.91 9.31 9.31 0 0 1-8.11 4.11c-4.6-.75-9.33-2-13.89-.45-3.67 1.33-7 3.33-10.67 5a23.81 23.81 0 0 1-4.83.84 12.82 12.82 0 0 0 1.76.26c5.86 0 9.71-3.27 15-5 6-1.95 10 3.3 15.73 2.33a7.37 7.37 0 0 0 4.93-2.85c1.6-2.09 2-5.07 1.74-8.15z"/><path class="cls-3" d="M104.93 33.21a6.28 6.28 0 0 0 8.24 2.26 6 6 0 0 0 .86-2.29c-6.86 8.14-11.17-7.89-14.25-11.87a23.77 23.77 0 0 0-14.28-9.75c9.34 3.22 14.5 12.68 19.43 21.65z"/><path class="cls-10" d="M51.68 77.37c-3.94.39-7.9.67-11.86.86 0 0 0 .31.08.84a28.78 28.78 0 0 0 .54 3.17c6.34-.66 13.06-1.65 19.66-1.49a13 13 0 0 1 .66-2.7 11.58 11.58 0 0 1 .59-1.38c-3.19-.51-7.23.46-9.67.7z"/><path class="cls-9" d="M40.44 82.24l.17.73s4.46-.33 9.08-.71 6.88-.58 10.33-.83c0 0 0-.26.07-.68-6.59-.16-13.31.83-19.65 1.49z"/><path class="cls-6" d="M114 33.18l-.27.29a7.41 7.41 0 0 1-.8.78 5.47 5.47 0 0 1-1.47.93 3.08 3.08 0 0 1-2.23.06c-1.62-.58-2.94-2.26-4.08-4.13S103 27 101.91 24.73a24.27 24.27 0 0 0-10.27-11.17 22.24 22.24 0 0 0-11.75-2.8v.67h2.38l1.36.15a9.7 9.7 0 0 1 1.45.22 20.9 20.9 0 0 1 6.26 2.23 24 24 0 0 1 10.25 10.82c1.13 2.25 2.19 4.45 3.38 6.34s2.55 3.55 4.23 4.12a3.16 3.16 0 0 0 2.29-.11 5.51 5.51 0 0 0 1.47-1 7.41 7.41 0 0 0 .79-.79z"/><path class="cls-6" d="M105.4 66.84a30.78 30.78 0 0 1 1.13-7.57c.7-2.6 1.6-5.23 2.25-7.91a33.54 33.54 0 0 0 .76-4 18.15 18.15 0 0 0 0-4 13.84 13.84 0 0 0-.89-3.62c-.27-.54-.51-1.07-.79-1.57l-.38-.57-.15-.22-.08-.11s-.06-.08 0-.05a5 5 0 0 0 .66.14 8.73 8.73 0 0 0 1 .1 6.47 6.47 0 0 0 1.82-.19 4.19 4.19 0 0 0 2.38-1.69l.31-.5.19-.47a3.22 3.22 0 0 0 .24-.77l.15-.65-.17.65a3.2 3.2 0 0 1-.27.75l-.21.46-.32.48a4.06 4.06 0 0 1-2.35 1.56 6.27 6.27 0 0 1-1.76.13 8.51 8.51 0 0 1-1-.12 10.53 10.53 0 0 1-1.41-.39l.07.11.14.22.29.46.51.82c.25.49.47 1 .72 1.54a13.49 13.49 0 0 1 .76 3.52 17.82 17.82 0 0 1-.12 3.84 33.73 33.73 0 0 1-.84 3.93c-.7 2.63-1.65 5.24-2.39 7.87a30.13 30.13 0 0 0-1.22 7.79 20.42 20.42 0 0 0 .44 4.54 26.21 26.21 0 0 0 2.53 6.76c1.28 2.48 3.05 5.15 4.83 8.06a27.54 27.54 0 0 1 3.18 10.54 14 14 0 0 1-.64 6 6.71 6.71 0 0 1-4.25 4.16 8.47 8.47 0 0 1-3.17.45 12.41 12.41 0 0 1-3.25-.68c-2.15-.71-4.32-1.85-6.83-2.12a9.18 9.18 0 0 0-3.75.34 31 31 0 0 0-3.46 1.34 66.15 66.15 0 0 1-6.76 2.9 16 16 0 0 1-3.57.72h-.91a3.48 3.48 0 0 1-.42 0h-.45a11.33 11.33 0 0 1-1.78-.35 6.33 6.33 0 0 1-3-1.7 2.91 2.91 0 0 1-.63-3A4.05 4.05 0 0 1 75 102.6a2 2 0 0 1 1.5 0l.29.2.23.28a1 1 0 0 1 .08.17l.19.4c.05.45.46.14.73.11 2.8-.67 4.57-2.85 5.82-5a27.08 27.08 0 0 0 2.6-7.05 24.51 24.51 0 0 0 .67-3.71 19.66 19.66 0 0 0-.11-3.72c-.65-4.83-2.6-9.21-2.45-13.6a18.52 18.52 0 0 1 1.39-6.24A14.71 14.71 0 0 0 87 58.17a16.67 16.67 0 0 0-1.92-5.66 16.54 16.54 0 0 1-1.82-4.94 11 11 0 0 1 .56-4.69c.42-1.49.91-2.88 1.38-4.18a37 37 0 0 0 2-6.91 12.82 12.82 0 0 0-.13-4.61c-.15-.5-.26-1-.46-1.53s-.41-1-.67-1.49l-.84-1.43-1.1-1.49-.24-.32c-.09 0-.22.11-.33.16l-.53.35a7.9 7.9 0 0 1-.69.4 5.85 5.85 0 0 1-1.47.55 4.22 4.22 0 0 1-3-.45c-1.9-1-3.36-2.88-5.2-4.18a7.88 7.88 0 0 0-3-1.4 6.73 6.73 0 0 0-3.19.18 7.65 7.65 0 0 0-4.56 3.26 8.45 8.45 0 0 0-1.29 4.29 11 11 0 0 0 .3 2.95c.18.67.3 1 .3 1l-.26-1a11 11 0 0 1-.2-2.93A8.27 8.27 0 0 1 62 19.95a7.31 7.31 0 0 1 4.44-3 6.26 6.26 0 0 1 3-.09 7.34 7.34 0 0 1 2.79 1.38c1.74 1.28 3.12 3.14 5.2 4.35a5 5 0 0 0 3.54.58 6.63 6.63 0 0 0 1.68-.6 8.65 8.65 0 0 0 .76-.43l.16-.1.84 1.16.78 1.35c.24.46.41.94.61 1.39s.28.95.42 1.41a11.91 11.91 0 0 1 .12 4.28 36.24 36.24 0 0 1-2 6.73c-.47 1.31-1 2.71-1.4 4.24a24.16 24.16 0 0 0-.56 2.4 8.56 8.56 0 0 0 0 2.66c.48 3.68 3.35 6.68 3.74 10.56a13.88 13.88 0 0 1-1.08 5.89c-.34 1-.71 2-1 3.12a14.37 14.37 0 0 0-.45 3.38c-.14 4.66 1.85 9.09 2.46 13.74a18.77 18.77 0 0 1 .12 3.52 23.65 23.65 0 0 1-.59 3.53 26.22 26.22 0 0 1-2.51 6.81 12.61 12.61 0 0 1-2.07 2.92 6.65 6.65 0 0 1-3 1.7 1.62 1.62 0 0 0-.13-.25l-.37-.45c-.15-.12-.32-.23-.49-.34a2.9 2.9 0 0 0-2.18-.1 4.93 4.93 0 0 0-3 2.68 3.38 3.38 0 0 0-.18 2.13 4.26 4.26 0 0 0 1 1.85 7.2 7.2 0 0 0 3.45 2 12.23 12.23 0 0 0 1.91.38l.48.05a3.85 3.85 0 0 0 .52 0h1a16.87 16.87 0 0 0 3.76-.76 66.51 66.51 0 0 0 6.72-3.02 30.16 30.16 0 0 1 3.36-1.3 8.27 8.27 0 0 1 3.39-.31c2.29.24 4.4 1.33 6.65 2.08a13.29 13.29 0 0 0 3.49.72 9.36 9.36 0 0 0 3.5-.49 7.64 7.64 0 0 0 3-1.82 8 8 0 0 0 1.82-2.88 14.87 14.87 0 0 0 .69-6.34 28.4 28.4 0 0 0-3.29-10.91c-1.84-3-3.55-5.59-4.82-8a25.31 25.31 0 0 1-2.45-6.53 19.53 19.53 0 0 1-.43-4.38z"/><path class="cls-6" d="M59.33 20.47A13.34 13.34 0 0 1 60.86 16a17.36 17.36 0 0 1 1.28-1.94c.38-.48.64-.76.64-.76s-.3.24-.74.67a16.11 16.11 0 0 0-1.55 1.79 11.19 11.19 0 0 0-2 4.56c0 .27-.09.6-.1 1s0 .81.06 1.26.18.91.29 1.38l.51 1.33a11.25 11.25 0 0 0 1.29 2l.63.78-.51-.86a11.72 11.72 0 0 1-1-2.09l-.33-1.3-.13-1.3v-1.15c.03-.37.1-.66.13-.9z"/><path class="cls-9" d="M57.1 88.51c-.16-.34-.27-.62-.27-.62a63.43 63.43 0 0 0-14.79 0 2.86 2.86 0 0 0-.32.6c5.12-.31 10.28-.95 15.38.02z"/><path class="cls-10" d="M41.71 88.49a3.9 3.9 0 0 0-.21.74A97.31 97.31 0 0 1 53.18 89c1.33 0 2.85.26 4.36.34-.15-.26-.32-.6-.45-.89-5.09-.91-10.25-.27-15.38.04z"/><path class="cls-6" d="M36.94 17a21.14 21.14 0 0 1 5-3.49 18.31 18.31 0 0 1 7.52-1.81 20 20 0 0 1 6.63 1.08l1.12.41.83.37.71.32-.7-.36-.81-.42-1.11-.46a20 20 0 0 0-6.68-1.4 18.53 18.53 0 0 0-7.84 1.57 20 20 0 0 0-5.29 3.53 23.8 23.8 0 0 0-1.88 2.07c-.67.85-1.34 1.84-2 2.9a33.91 33.91 0 0 1-4.73 6.25 8.33 8.33 0 0 1-3.11 1.82 6.34 6.34 0 0 1-.81.15 2.84 2.84 0 0 1-.78.06 6.43 6.43 0 0 1-1.41-.15c-.42-.11-.82-.2-1.15-.3l-.83-.37-.72-.31.7.35.82.41c.33.12.72.23 1.15.36a6.56 6.56 0 0 0 1.44.22 3 3 0 0 0 .81 0 6.6 6.6 0 0 0 .85-.11A8.65 8.65 0 0 0 28 27.91a33.07 33.07 0 0 0 5-6.16c.72-1 1.41-2 2.08-2.79s1.36-1.43 1.86-1.96zm20.8-9.47a3.1 3.1 0 0 1 .2-.69 4.25 4.25 0 0 1 .37-.84 7.53 7.53 0 0 1 1.26-1.76l.76-.72c.25-.21.5-.37.7-.53l.67-.49-.7.34c-.23.12-.51.24-.79.42l-.89.62a7.36 7.36 0 0 0-1.62 1.71 4.33 4.33 0 0 0-.51.93 2.88 2.88 0 0 0-.27.79 5.52 5.52 0 0 0-.13 1.89 8.11 8.11 0 0 0 .57 2.28 11 11 0 0 0 .94 1.74c.29.42.5.67.5.67s-.16-.28-.38-.74a11.72 11.72 0 0 1-.63-1.81 8.46 8.46 0 0 1-.24-2.16 6.85 6.85 0 0 1 .19-1.65z"/><path class="cls-15" d="M38.34 78.3zm20.82-1.78c-5.62-1.51-11.48.92-17.36.21a6.2 6.2 0 0 1-3.46 1.57c4.45-.2 8.9-.49 13.34-.93 1.9-.19 4.78-.82 7.48-.85z"/><path class="cls-16" d="M49.78 91c-.64 0-1.62 0-2.71.1l-1.69.11-.86.07h-.77l-.22-.24c-.09-.09-.18-.19-.28-.27a6.08 6.08 0 0 0-.57-.45 8.39 8.39 0 0 0-1-.63 8 8 0 0 0-1-.45 8.18 8.18 0 0 1 1 .51 8.46 8.46 0 0 1 1 .69 6 6 0 0 1 .52.47c.09.08.16.18.25.27l.28.35h6.14l5.53-.17a8.12 8.12 0 0 1 2.6-1.58 9.37 9.37 0 0 1 1.28-.38 9.14 9.14 0 0 0-1.31.29 8.39 8.39 0 0 0-2.73 1.36C53.25 91 50.92 91 49.78 91z"/><path class="cls-15" d="M56.85 89.35a41.35 41.35 0 0 1-15.65-.09l-.59.05a7.89 7.89 0 0 1 3.08 2.16s2.21-.25 11.56-.27a8.35 8.35 0 0 1 4-1.8 20 20 0 0 1-2.4-.05z"/><path class="cls-17" d="M56.85 89.35c-1.28-.1-2.54-.26-3.67-.3a96.23 96.23 0 0 0-12 .21 41.35 41.35 0 0 0 15.67.09zm2.31-12.83h.36a25.29 25.29 0 0 0-4.16-1.26c-7.12.92-7.12 1.07-13.25 1.19l-.31.28c5.88.71 11.74-1.73 17.36-.21z"/><path class="cls-17" d="M48.75 76.38c1.38-.14 4.11-.6 6.49-1a2.62 2.62 0 0 1 .82.12l.81.2 1.37.39 1.28.4-1.25-.49-1.35-.48-.8-.25a2.71 2.71 0 0 0-.91-.17l-6.52.7c-1.37.18-4.09.37-6.54.47-.12 0-.2.13-.25.15l-.16.15c-.1.1-.22.19-.33.28a6.7 6.7 0 0 1-.66.48 6.45 6.45 0 0 1-1.26.63 4.5 4.5 0 0 1-1.3.29 4.48 4.48 0 0 0 1.32-.21 6.5 6.5 0 0 0 1.33-.56 6.81 6.81 0 0 0 .71-.46c.12-.09.24-.17.35-.27s.24-.23.29-.22a58.75 58.75 0 0 0 6.56-.15z"/><path class="cls-6" d="M70.26 5.87a12.16 12.16 0 0 1 4.51.73A12.55 12.55 0 0 1 77.33 8a6.43 6.43 0 0 1 2 2.08 3 3 0 0 1 .13 2.58 1.51 1.51 0 0 1-1.75 1 2.56 2.56 0 0 1-1.22-.95l-.32-.5.29.52a2.63 2.63 0 0 0 1.21 1.06 1.49 1.49 0 0 0 1.13-.07 2.05 2.05 0 0 0 .91-.94 3.34 3.34 0 0 0 0-2.9 6.86 6.86 0 0 0-2.01-2.41 12.82 12.82 0 0 0-2.65-1.57 11.84 11.84 0 0 0-4.81-.9 13.64 13.64 0 0 0-4.78 1 14.32 14.32 0 0 0-2.69 1.48 13.19 13.19 0 0 0-1.23 1c-.1.08-.19.18-.28.27L61 9s0 .1-.08 0l-.14-.12a2.87 2.87 0 0 1-.93-2.4 6 6 0 0 1 .66-2.2 9.8 9.8 0 0 1 .83-1.37c.22-.31.36-.47.36-.47s-.15.15-.39.45a9.77 9.77 0 0 0-.93 1.32 6.12 6.12 0 0 0-.82 2.24 3.23 3.23 0 0 0 .9 2.75l.4.4s.07.09.1.08l.11-.1.21-.2.33-.3a3.72 3.72 0 0 1 .28-.24A12.91 12.91 0 0 1 63.12 8a14.14 14.14 0 0 1 2.62-1.28 14.39 14.39 0 0 1 4.52-.85zM50.39 81.94c-1.82.15-5.47.49-8.65.81l-.59.06h-.45l-.13-.47-.13-.52a32.54 32.54 0 0 1-.62-3.61s0 .69.15 1.77c.07.54.16 1.18.29 1.88l.11.53.14.62c0 .1.1 0 .16 0h1.08c3.2-.18 6.85-.4 8.68-.54l4.34-.4 5.37-.54v-.62l.06-.5c0-.32.1-.63.16-.93a13.28 13.28 0 0 1 .45-1.48 11.27 11.27 0 0 1 .54-1.32 11 11 0 0 0-.6 1.32 13.18 13.18 0 0 0-.49 1.51 8 8 0 0 0-.2.93l-.08.5v.43l-5.19.31zm-.85 5.24a52.53 52.53 0 0 0-5.33.36l-1.39.18-.61.09c-.1 0-.23 0-.27.14a2.62 2.62 0 0 0-.13.24 3.39 3.39 0 0 0-.31 1 3.42 3.42 0 0 1 .38-1c.1-.13.14-.34.33-.29h.62l1.39-.08c2-.1 4.2-.09 5.31-.09s3.35 0 5.31.09c.49 0 1 .06 1.39.1a2.54 2.54 0 0 1 .56.07l.24.46.51 1-.43-1-.23-.52a2.21 2.21 0 0 0-.63-.14c-.43-.07-.9-.14-1.39-.2a44.6 44.6 0 0 0-5.32-.41z"/><path class="cls-10" d="M46 55.4c-2.21-3.39-9.37-6.74-11.86-2.25a3.12 3.12 0 0 0-.37 1.37c2.81 4.43 7.96 3.01 12.23.88z"/><path class="cls-9" d="M33.8 54.52a4.41 4.41 0 0 0 2.18 4c3.15 1.64 8-.52 10.34-2.58a5.37 5.37 0 0 0-.3-.49c-4.29 2.08-9.44 3.5-12.22-.93z"/><path class="cls-11" d="M41.42 51.76s-2.31 3.87 2.67 5.67a14.12 14.12 0 0 0 2.23-1.54s-1.08-2.42-4.9-4.13z"/><path class="cls-6" d="M34.14 54.46a2.68 2.68 0 0 1 .57-1.53 3.58 3.58 0 0 1 1.65-1.37 5.24 5.24 0 0 1 2.47-.3 9.85 9.85 0 0 1 2.54.65 12 12 0 0 1 3.77 2.45 5.31 5.31 0 0 1 .54.59 3 3 0 0 1 .37.49l.28.44-.26-.46a3.05 3.05 0 0 0-.34-.51 5.36 5.36 0 0 0-.51-.62 12 12 0 0 0-3.72-2.69 7.31 7.31 0 0 0-5.35-.6 4.13 4.13 0 0 0-2 1.52 3.24 3.24 0 0 0-.72 1.85 4.72 4.72 0 0 0 1.81 3.94 6.37 6.37 0 0 0 5.36.69 14.22 14.22 0 0 0 4.18-1.89 11.44 11.44 0 0 0 1.54-1.19A11.6 11.6 0 0 1 44.73 57a14.23 14.23 0 0 1-4.2 1.65 6 6 0 0 1-4.9-.74 4.25 4.25 0 0 1-1.49-3.45zM21.53 70.18a2.46 2.46 0 0 1 .76.42 2.69 2.69 0 0 1 1 1.64 3.2 3.2 0 0 1-.29 2.1 1.56 1.56 0 0 1-1.21.7v.9a2.22 2.22 0 0 0 1-.3 2.19 2.19 0 0 0 .87-.94 3.64 3.64 0 0 0 .06-2.58 2.93 2.93 0 0 0-1.34-1.65 2.44 2.44 0 0 0-.85-.29zm86.63 14.58l.21.1a2.58 2.58 0 0 1 .55.35 2.32 2.32 0 0 1 .85 2.06 2.39 2.39 0 0 1-.62 1.41 1.32 1.32 0 0 1-1.55.34c-1.1-.55-1.74-1.95-2.18-3.28a13.3 13.3 0 0 1-.43-4.37c.06-1.49.22-3 .37-4.38a31.08 31.08 0 0 0 .23-7.12l-.89.13a34.43 34.43 0 0 1-.09 6.92c-.1 1.41-.22 2.91-.22 4.44a13.67 13.67 0 0 0 .62 4.53 9.35 9.35 0 0 0 1 2 3.61 3.61 0 0 0 1.54 1.42 1.57 1.57 0 0 0 1.81-.46 2.56 2.56 0 0 0 .61-1.54 2.4 2.4 0 0 0-1-2.11 2.6 2.6 0 0 0-.57-.32zm-7.09-27.16a.75.75 0 0 0-.26.36c-.12.29.18.77.7.87a3 3 0 0 0 1.77-.22 4.39 4.39 0 0 0 1.77-1.24 18 18 0 0 0 2.51-3.83 32.63 32.63 0 0 0 1.44-3.29l-.63-.23a29.18 29.18 0 0 1-3.6 7.13 4.13 4.13 0 0 1-1.6 1.27 2.87 2.87 0 0 1-1.66.31c-.5-.06-.79-.48-.7-.76a.74.74 0 0 1 .26-.37z"/><path class="cls-3" d="M51.06 16.16a15.18 15.18 0 0 0-3.92 8 8.45 8.45 0 0 0 4.19 8.52c-4.05-4.38-2.85-11.3-.27-16.52z"/><path class="cls-5" d="M56.91 15.77l-3.69-1.71a20.74 20.74 0 0 0-2.16 2.1c-2.58 5.22-3.78 12.14.27 16.49l.37.2a15.82 15.82 0 0 1-1.34-8.29c.58-3.42 3.3-7.44 6.55-8.79z"/><path class="cls-6" d="M50.74 31.9a8 8 0 0 1-3-4.26 8.78 8.78 0 0 1-.35-3.35 11.89 11.89 0 0 1 .84-3.38 17.57 17.57 0 0 1 3.2-5c.52-.59 1-1 1.3-1.34l.51-.47-.53.45c-.33.29-.82.72-1.36 1.29a17.59 17.59 0 0 0-3.44 5 12.17 12.17 0 0 0-1 3.46 9.19 9.19 0 0 0 .26 3.56 8.38 8.38 0 0 0 3.2 4.66l.58.37 1 .52.26.14s.1.06.12.05l-.05-.14-.28-.64-.43-1.1a20.14 20.14 0 0 1-.85-2.94 12.92 12.92 0 0 1-.26-3.4 10.69 10.69 0 0 1 .86-3.38 13.43 13.43 0 0 1 3.45-4.84 9.47 9.47 0 0 1 1.52-1.08l.62-.31-.63.28a9.48 9.48 0 0 0-1.57 1A13.53 13.53 0 0 0 51 21.87a11 11 0 0 0-1 3.47 13.2 13.2 0 0 0 .16 3.54 19.67 19.67 0 0 0 .8 3.06c.08.22.06.17 0 .17l-.1-.07zm-7.11 64.19a3.6 3.6 0 0 0-.44.38 2.78 2.78 0 0 0-.69 1.21 4.21 4.21 0 0 0 .37 2.94l.77-.46a4.68 4.68 0 0 1-.7-2.41 2.61 2.61 0 0 1 .36-1.21 3.87 3.87 0 0 1 .33-.45z"/><path class="cls-18" d="M14.38 82.22l-7.72-.48c2.57 1.26 5.15 1 7.72.48z"/><path class="cls-19" d="M6.16 89.34q3.49.08 7 .11a9.25 9.25 0 0 0-7-.11z"/><path class="cls-20" d="M23.58 82.71c-3.07-.14-6-.31-8.64-.46 2.77 1 5.87 1.6 8.64.46z"/><path class="cls-21" d="M22.63 89.3a10.37 10.37 0 0 0 1-6.58h-.08c-2.77 1.14-5.87.54-8.64-.46h-.57a22.75 22.75 0 0 1 .26 3.22 7.63 7.63 0 0 1-1.13 4h.69a10.64 10.64 0 0 1 8.47-.18z"/><path class="cls-22" d="M14.14 89.45h8.45v-.07a10.64 10.64 0 0 0-8.45.07z"/><path class="cls-23" d="M14.33 82.23c-2.55.51-5.11.73-7.66-.49l-.88-.06-1 7.63h1.37a9.25 9.25 0 0 1 7 .11h.31a7.63 7.63 0 0 0 1.13-4 22.75 22.75 0 0 0-.27-3.19zm27.26.95H39.2a26.56 26.56 0 0 1-14.2-.4l-1.37-.06a10.31 10.31 0 0 1-1.06 6.65H23c6.2-2.81 18.52 1.9 20.72-5.42a2.81 2.81 0 0 0-2.13-.77z"/><path class="cls-18" d="M39.2 83.19C35 83.17 30 83 25 82.78a26.56 26.56 0 0 0 14.2.41z"/><path class="cls-19" d="M43.7 83.93c-2.2 7.33-14.52 2.62-20.7 5.43 4.79-.12 9.59-.37 14.36-.9 1.21-.13 2.42-.27 3.62-.46s2.91-.53 3.29-2a2.09 2.09 0 0 0-.57-2.07z"/><path class="cls-6" d="M17.39 89.16c-5 0-12.61.16-12.61.16s7.56.27 12.62.29h3.63c1.74 0 3.94-.09 6.47-.2s5.36-.29 8.35-.58c1.49-.14 3-.35 4.57-.54a10 10 0 0 0 2.34-.49 2.57 2.57 0 0 0 1.71-1.8 2.33 2.33 0 0 0-.73-2.36 3.23 3.23 0 0 0-2.35-.64h-4.58c-3-.05-5.83-.14-8.35-.24-5-.2-8.82-.41-10.08-.47-5-.26-12.6-.54-12.6-.54s7.54.73 12.58 1c1.26.07 5 .28 10.08.48 2.52.1 5.36.19 8.36.24h4.6a2.78 2.78 0 0 1 2 .6 1.87 1.87 0 0 1 .6 1.85 2.11 2.11 0 0 1-1.44 1.46 9.61 9.61 0 0 1-2.24.47c-1.54.19-3.06.4-4.55.54-3 .29-5.81.47-8.32.58s-4.72.17-6.46.2z"/><path class="cls-3" d="M75.83 44.57a11.86 11.86 0 0 0-3.28-2.16c-3.35-1.41-7.39-.55-10.74 1.18 4.83-1.43 9.61-.67 14.02.98z"/><path class="cls-5" d="M77.89 46.76a20 20 0 0 0-2.06-2.18c-4.41-1.65-9.19-2.42-14-1a19.44 19.44 0 0 0-2.2 1.34 29.77 29.77 0 0 1 18.26 1.84z"/><path class="cls-4" d="M59.61 44.92c-.44.31-.86.62-1.24.95 0 0 13.42-2.81 20.95 2.78-.43-.63-.91-1.27-1.42-1.89a29.77 29.77 0 0 0-18.29-1.84z"/><path class="cls-6" d="M69.18 45a34.25 34.25 0 0 0-6.47.17c-1.18.13-2.27.32-3.06.46s-1.28.28-1.28.28.5-.08 1.3-.17 1.89-.18 3.07-.23a47.47 47.47 0 0 1 6.38.17 28.51 28.51 0 0 1 6.24 1.15l.82.27.74.33a8.85 8.85 0 0 1 1.25.61l1.13.67-1.07-.76a8.79 8.79 0 0 0-1.23-.77l-.73-.39-.81-.33A23.4 23.4 0 0 0 69.18 45z"/><path class="cls-6" d="M69.63 42.07a10 10 0 0 1 3 .7A12.3 12.3 0 0 1 76 44.95a21.55 21.55 0 0 1 2.4 2.53c.58.71.91 1.18.91 1.18s-.3-.49-.83-1.24a20.93 20.93 0 0 0-2.26-2.71 12.26 12.26 0 0 0-3.34-2.45 9.34 9.34 0 0 0-3.2-.85 11.67 11.67 0 0 0-3.28.26 16.65 16.65 0 0 0-3.89 1.39 19 19 0 0 0-3 1.86c-.37.27-.65.51-.85.69l-.31.26.32-.24c.2-.16.51-.38.89-.62a19.48 19.48 0 0 1 3.07-1.64 17.13 17.13 0 0 1 3.86-1.14 13.08 13.08 0 0 1 3.14-.16z"/><path class="cls-3" d="M43.15 43.17a5.71 5.71 0 0 0-4-1.21 6.11 6.11 0 0 0-3.68 2.38 14.06 14.06 0 0 1 7.68-1.17z"/><path class="cls-5" d="M44.94 44.72a12.06 12.06 0 0 0-1.78-1.55 14.06 14.06 0 0 0-7.64 1.17 13.38 13.38 0 0 0-1.31 1.94 13.52 13.52 0 0 1 10.73-1.56z"/><path class="cls-4" d="M34.19 46.28c-.35.62-.54 1.06-.54 1.06s4.5-3.37 12-1.75a11.24 11.24 0 0 0-.75-.86 13.52 13.52 0 0 0-10.71 1.55z"/><path class="cls-6" d="M39 41.66a4.75 4.75 0 0 0-2 .89 8.51 8.51 0 0 0-1.84 1.95 13.42 13.42 0 0 0-1.52 2.84 14.23 14.23 0 0 1 1.78-2.63A8.64 8.64 0 0 1 37.34 43a4.87 4.87 0 0 1 1.78-.7 4.6 4.6 0 0 1 1.9.09 7.59 7.59 0 0 1 2.28 1.08 12.8 12.8 0 0 1 2.38 2.1 12.16 12.16 0 0 0-2.18-2.37 7.58 7.58 0 0 0-2.32-1.35 4.56 4.56 0 0 0-2.18-.19z"/><path class="cls-6" d="M39.53 45.62a24.62 24.62 0 0 1 3.64-.24c.68 0 1.31.06 1.77.12l.75.08-.69-.18a17 17 0 0 0-1.8-.4 15.49 15.49 0 0 0-3.75-.1 13.42 13.42 0 0 0-3.6 1.1 11.55 11.55 0 0 0-1.57.86 6.66 6.66 0 0 0-.61.45 11.72 11.72 0 0 1 2.31-1 19.53 19.53 0 0 1 3.55-.69zm35.12 6.21a7.33 7.33 0 0 0 3.93-1 3.75 3.75 0 0 1-2.19 1.93m1.76 1.36s1.47.38 3.43-1.36c0 0-1.17 2.16-2.42 2.72"/><path class="cls-6" d="M78.58 50.83a5 5 0 0 1-.75.95 3 3 0 0 1-1.47.83l.06.29a2.8 2.8 0 0 0 1.52-1 4.67 4.67 0 0 0 .64-1.07zm0 0a4.66 4.66 0 0 1-1.53.63 10.13 10.13 0 0 1-2.4.22V52a8.2 8.2 0 0 0 2.45-.38 4.55 4.55 0 0 0 1.48-.79zm3 1.93A11.69 11.69 0 0 1 80.7 54a5.06 5.06 0 0 1-1.6 1.37l.12.27a4.53 4.53 0 0 0 1.6-1.56 10.58 10.58 0 0 0 .76-1.32zm0 0l-.37.28a6.54 6.54 0 0 1-.93.55 3.6 3.6 0 0 1-2.1.39l-.08.29a3.43 3.43 0 0 0 2.24-.55 6.29 6.29 0 0 0 .89-.64z"/><path class="cls-24" d="M6.53 81.91a2.18 2.18 0 0 0-.74-.23c-1.57-.17-3 1.4-3.26 3.51a5 5 0 0 0 0 1.43c.68-2.22 1.86-4.21 4-4.71z"/><path class="cls-25" d="M3.8 88.85a2.24 2.24 0 0 0 1.14.48 2.78 2.78 0 0 0 2.57-1.47 5.38 5.38 0 0 1-3.71.99z"/><path class="cls-26" d="M8.23 85.29a4.63 4.63 0 0 0-.33-1.78 5.26 5.26 0 0 0-4.64 3.36 3.92 3.92 0 0 0-.31.92 3.47 3.47 0 0 0 .31.49 8.57 8.57 0 0 1 4.97-2.99z"/><path class="cls-27" d="M3.26 88.29a2.89 2.89 0 0 0 .54.57 5.38 5.38 0 0 0 3.71-1 4.82 4.82 0 0 0 .69-2 5.14 5.14 0 0 0 0-.53 8.57 8.57 0 0 0-4.94 2.96z"/><path class="cls-28" d="M3.27 86.87a5.26 5.26 0 0 1 4.63-3.36 3 3 0 0 0-1.38-1.6c-2.14.5-3.32 2.49-4 4.72A4.25 4.25 0 0 0 3 87.79a3.92 3.92 0 0 1 .27-.92z"/><path class="cls-6" d="M8 85.79a4.63 4.63 0 0 1-1 2.42 2.7 2.7 0 0 1-1.33.91 2 2 0 0 1-1.6-.22 3.51 3.51 0 0 1-1.49-2.44 5 5 0 0 1-.07-.93v-.35.35a5 5 0 0 0 0 .94A3.63 3.63 0 0 0 4 89.1a2.3 2.3 0 0 0 1.8.32 3 3 0 0 0 1.54-1A4.86 4.86 0 0 0 7.89 83a3 3 0 0 0-1.3-1.27 2.3 2.3 0 0 0-1.83-.07 3.63 3.63 0 0 0-2 2.24 5 5 0 0 0-.23.91v.34l.06-.34a5 5 0 0 1 .26-.81 3.51 3.51 0 0 1 2-2.05 2 2 0 0 1 1.61.05 2.7 2.7 0 0 1 1.1 1.18A4.63 4.63 0 0 1 8 85.79zm20.74 16.89a2.15 2.15 0 0 1 1.35-.07 1.32 1.32 0 0 1 .85 1 2.63 2.63 0 0 1-.27 1.64 6.21 6.21 0 0 1-2.81 2.27 27.68 27.68 0 0 1-2.73 1.17l.3.85a18.29 18.29 0 0 0 2.8-1.35 11.94 11.94 0 0 0 1.61-1.13 4.06 4.06 0 0 0 1.25-1.63 3 3 0 0 0 .13-1.89 1.52 1.52 0 0 0-1.09-1.08 2.18 2.18 0 0 0-1.39.22zm47 4.38a4.47 4.47 0 0 0 .6 0 2.14 2.14 0 0 0 1.28-.72 3 3 0 0 0 .63-1.65 4.19 4.19 0 0 0-.08-1.39l-.87.24a3.85 3.85 0 0 1 0 2.55 1.9 1.9 0 0 1-.95.84 4.9 4.9 0 0 1-.61.13zM14.81 85.94a9.26 9.26 0 0 0-.14-2.24 10.11 10.11 0 0 0-.38-1.48 11.63 11.63 0 0 1 .16 1.5 15.81 15.81 0 0 1-.08 2.18A10.72 10.72 0 0 1 14 88a8.26 8.26 0 0 1-.53 1.41 7.47 7.47 0 0 0 .75-1.33 7.36 7.36 0 0 0 .59-2.14zm9.19.24a8.88 8.88 0 0 0-.07-2.09 10.36 10.36 0 0 0-.3-1.38 12.29 12.29 0 0 1 .07 1.4 16.6 16.6 0 0 1-.16 2 9.9 9.9 0 0 1-.39 2 6.27 6.27 0 0 1-.57 1.27 5.76 5.76 0 0 0 .78-1.18 6.65 6.65 0 0 0 .64-2.02zm42.48-4.83A5.28 5.28 0 0 0 65 78a5.38 5.38 0 0 0-1.92-1.22 9.18 9.18 0 0 0-2.37-.49c-3.32-.3-6.83.75-10.13 1l-12.36 1 12.4-.67c3.35-.15 6.89-1.1 10-.73a8.63 8.63 0 0 1 2.19.49 4.72 4.72 0 0 1 1.65 1.09 4.64 4.64 0 0 1 1.25 2.92 7.77 7.77 0 0 1-.48 3.28 7.07 7.07 0 0 1-2.47 3.41 8 8 0 0 1-4.65 1.06c-1.69 0-3.41-.27-5.1-.3-3.34-.07-6.45 0-8.72.13s-3.69.32-3.69.32 1.43-.14 3.69-.2 5.37 0 8.7.12c1.65.07 3.36.37 5.1.44a8.47 8.47 0 0 0 5-1 7.66 7.66 0 0 0 2.79-3.68 8.24 8.24 0 0 0 .6-3.62zM35.32 51.76a5.26 5.26 0 0 1-3.26-1.48s.8 2.3 2.1 2.86"/><path class="cls-6" d="M32.06 50.29a8.09 8.09 0 0 0 .56 1.37 3.52 3.52 0 0 0 1.48 1.63l.12-.28a3.73 3.73 0 0 1-1.47-1.43 8.72 8.72 0 0 1-.69-1.29z"/><path class="cls-6" d="M32.06 50.29a3.91 3.91 0 0 0 1.15 1 5.5 5.5 0 0 0 2.1.67v-.3a6.43 6.43 0 0 1-2.05-.51 4 4 0 0 1-1.2-.86z"/><g class="cls-29"><path class="cls-31" d="M116.15 96.44a27.39 27.39 0 0 0-1.15-5.82 27.06 27.06 0 0 0-2.13-5.08c-.44-.78-.91-1.48-1.35-2.18s-.87-1.38-1.28-2q-1.23-2-2.2-3.82A25.31 25.31 0 0 1 105.6 71a13.18 13.18 0 0 1-.23-1.33l-.09-.61v-.57c0-.37-.05-.7-.06-1v-.83a30.85 30.85 0 0 1 1.09-7.66c.69-2.6 1.6-5.23 2.26-7.91a32.3 32.3 0 0 0 .76-4 18.35 18.35 0 0 0 0-4 13.5 13.5 0 0 0-.91-3.62l-.37-.81c-.13-.27-.27-.52-.41-.76l-.22-.36c0-.07-.09-.15-.14-.22l-.16-.22-.08-.11v-.06a5 5 0 0 0 .66.14 8.27 8.27 0 0 0 1 .1 6.14 6.14 0 0 0 1.82-.19 4.39 4.39 0 0 0 1.45-.69 4 4 0 0 0 .93-1 5.14 5.14 0 0 0 .3-.5l.21-.47.15-.42.1-.35c.06-.21.08-.38.1-.49v-.17c-.15.18-.29.34-.44.49l.18-.2.26-.29-.27.29-.32.35c-.13.13-.3.27-.48.43a5.47 5.47 0 0 1-1.47.93A3.08 3.08 0 0 1 109 35a5.72 5.72 0 0 1-2.22-1.58 16 16 0 0 1-1.78-2.54c-1.16-1.9-2.17-4.11-3.26-6.38-.27-.57-.56-1.14-.86-1.71a14.39 14.39 0 0 0-1-1.68A22.18 22.18 0 0 0 97.41 18a24.75 24.75 0 0 0-6-4.72A21.87 21.87 0 0 0 85 11a22.14 22.14 0 0 0-5.19-.42 3.19 3.19 0 0 0-.28-.91 6.87 6.87 0 0 0-2.06-2.38 12.81 12.81 0 0 0-2.65-1.57 12.2 12.2 0 0 0-2.66-.77c-.41-.07-.81-.1-1.17-.14s-.69 0-1 0a13.63 13.63 0 0 0-4.78 1 14.3 14.3 0 0 0-2.69 1.48l-.63.47-.6.51c-.1.08-.19.18-.28.27l-.22.23-.06.07a1.37 1.37 0 0 1-.15-.12 3 3 0 0 1-.76-1.12 3.08 3.08 0 0 1-.17-1.29 5.88 5.88 0 0 1 .66-2.2 10.08 10.08 0 0 1 .84-1.37c.22-.31.36-.47.36-.47l-.76.35a10.66 10.66 0 0 0-1.68 1 7.39 7.39 0 0 0-1.62 1.71 5.53 5.53 0 0 0-.79 1.73A5.87 5.87 0 0 0 56.51 9a7.93 7.93 0 0 0 .58 2.28A10.08 10.08 0 0 0 58 13a7.38 7.38 0 0 0 .5.67l-.7-.36-.8-.42-1.11-.46A20 20 0 0 0 49.23 11a18.53 18.53 0 0 0-7.84 1.58 20 20 0 0 0-5.29 3.53 24.18 24.18 0 0 0-1.88 2.07c-.67.85-1.34 1.85-2 2.9s-1.4 2.17-2.18 3.25a19.25 19.25 0 0 1-2.56 3A9.86 9.86 0 0 1 26 28.48a6.89 6.89 0 0 1-1.61.7 6.39 6.39 0 0 1-3 .07 9.18 9.18 0 0 1-1.15-.31c-.33-.13-.62-.23-.84-.34l-.7-.34a6.49 6.49 0 0 0 .35.57 9.13 9.13 0 0 0 1.17 1.43 8 8 0 0 0 2.29 1.62 6.85 6.85 0 0 0 3.48.6h.78l-.12.19-.05.09-.08.12-.27.41c-.18.28-.39.54-.58.82-.81 1.08-1.75 2.12-2.68 3.18a29.67 29.67 0 0 0-2.63 3.33A13.86 13.86 0 0 0 18 47a10.43 10.43 0 0 0 .61 4.55A18.3 18.3 0 0 0 20 54.08a11.63 11.63 0 0 1 1.29 2.65 3.37 3.37 0 0 1 .11 1.44 3.27 3.27 0 0 1-.59 1.37l-.25.31-.16.15-.07.08c-.23.21-.45.44-.67.67a14.85 14.85 0 0 0-1.16 1.51 18.67 18.67 0 0 0-1.84 3.51 13.35 13.35 0 0 0-1 4.09 7 7 0 0 0 .21 2.23 4.53 4.53 0 0 0 1.17 2 4.86 4.86 0 0 0 2.06 1.19 7.29 7.29 0 0 0 1.15.24c.19 0 .39.06.58.06h.36c0 .18.06.35.07.53v1.08a10.37 10.37 0 0 1-.23 2.16 11.47 11.47 0 0 1-.91 2.6l-2-.11c-2.52-.13-5.67-.26-8.19-.36l-3.75-.15a2.3 2.3 0 0 0-1.68 0 3.08 3.08 0 0 0-1.33 1 4.25 4.25 0 0 0-.65 1.22 5 5 0 0 0-.23.91v.69a5 5 0 0 0 0 .94 4.25 4.25 0 0 0 .37 1.33 3.08 3.08 0 0 0 1.08 1.29 2.3 2.3 0 0 0 1.8.32h.17L9 89.3c1.93.08 4.22.14 6.32.15-.41.62-.8 1.26-1.15 1.93a16.2 16.2 0 0 0-1 2.21 10 10 0 0 0-.52 2.41 16.77 16.77 0 0 0 .26 4.77 18.07 18.07 0 0 0 1.47 4.47 11.45 11.45 0 0 0 2.78 3.76 6.49 6.49 0 0 0 4.32 1.66 6.59 6.59 0 0 0 2.22-.57c.54-.23 1-.49 1.55-.74s.85-.34 1.36-.59a7.09 7.09 0 0 1 .85-.24 12 12 0 0 1 1.92-.27 16.27 16.27 0 0 1 3.75.25c2.41.37 4.47 1.51 6.56 2.2a16.34 16.34 0 0 0 5.91.8 26 26 0 0 0 4.45-.61c1.2-.27 2.11-.53 2.72-.69 2.43-.69 5.08-1.64 7.77-2.41a25.49 25.49 0 0 1 7.93-1.15 19.69 19.69 0 0 1 3.16.42 4.31 4.31 0 0 0 .69 1.09 5.69 5.69 0 0 0 1.61 1.24 9.33 9.33 0 0 0 1.84.73 12.21 12.21 0 0 0 1.91.38l.48.05h1.52a16.86 16.86 0 0 0 3.76-.76 66.38 66.38 0 0 0 6.86-2.94 30.2 30.2 0 0 1 3.36-1.3 8.27 8.27 0 0 1 3.39-.31 14.37 14.37 0 0 1 3.34.85c1.09.4 2.18.86 3.3 1.23a13.3 13.3 0 0 0 3.49.72h.9l.89-.09a2.7 2.7 0 0 0 .44-.07l.43-.09a6.59 6.59 0 0 0 .85-.24 7.64 7.64 0 0 0 3-1.82 8 8 0 0 0 1.82-2.88 12.06 12.06 0 0 0 .69-3.2 18.87 18.87 0 0 0-.05-3.21zM6.51 81.55l.41.18z"/></g><path class="cls-2" d="M237.84 53a7.14 7.14 0 0 0 .23-1 5.31 5.31 0 0 0-1.19-4.43 6.77 6.77 0 0 0-4.31-2l-4.12-.57a1.74 1.74 0 0 0-1.31.37 1.74 1.74 0 0 0-1.17-.69l-3.21-.42a1.74 1.74 0 0 0-1.47.51l-1.19-.44a1.73 1.73 0 0 0-1.06-.56l-.9-.12a146.18 146.18 0 0 0-53.62-7.09l-1.52-.2a1.74 1.74 0 0 0-1.38.43l-1 .1a1.74 1.74 0 0 0-1.36-1l-3.26-.46a1.73 1.73 0 0 0-.88.12 1.73 1.73 0 0 0-.82-.34l-9-1.19a1.75 1.75 0 0 0-2 1.51l-.3 2.61a1.75 1.75 0 0 0 1.25 1.9c-9.69 3.08-16 7.91-16.75 14a12.57 12.57 0 0 0 2.5 8.78c-2.11 4.93-11.13 5.3-11.13 5.3s6.89 1.89 13.2-.6l-1 7.51a1.75 1.75 0 0 0 1.51 2l2.15.28a1.73 1.73 0 0 0 .89-.12 1.73 1.73 0 0 0 .83.35l1.89.25a1.74 1.74 0 0 0 .8-.08 1.75 1.75 0 0 0 .75.29l2 .27a1.74 1.74 0 0 0 .81-.08 1.74 1.74 0 0 0 .76.29l2 .26a1.63 1.63 0 0 1 .85.11l2.35.31a1.75 1.75 0 0 0 1.85-1.07 1.75 1.75 0 0 0 1.49 1.47l2.34.31a1.73 1.73 0 0 0 1.31-.38l.28.11a6 6 0 0 0 2.56.94h.13a140.59 140.59 0 0 0 26.5 6.05 140.08 140.08 0 0 0 27.68 1l6.13.81a1.63 1.63 0 0 1 1.13.15l4.7.62a1.73 1.73 0 0 1 1.39.18l2.14.28a1.75 1.75 0 0 1 2.22.29l2.42.32a1.73 1.73 0 0 0 .71-.07l.38.16a8.26 8.26 0 0 0 1.69.38 5.15 5.15 0 0 0 3.5-.64 4 4 0 0 0 1.9-3 3.81 3.81 0 0 0-.45-2.47l-.1-.17a1.76 1.76 0 0 0 .14-.21l.87-1.56a1.74 1.74 0 0 0-.51-2.27c4.72-2.79 7.66-6.26 8.19-10.29.81-5.78-3.54-11.79-11.41-17.1z"/><path class="cls-32" d="M150.87 39.18l-1.22 9.25-3.22-.43 1.22-9.25-2.9-.38.35-2.63 9 1.19-.35 2.63zm15.13-.67l-1.6 11.87-3.22-.38.64-4.84-3.74-.49-.64 4.84-3.21-.51 1.57-11.87 3.22.43-.58 4.4 3.74.49.58-4.4zM174.36 49l-.36 2.65-7-.93 1.57-11.87 7 .93-.34 2.58-3.83-.51-.25 1.87 3.55.47-.34 2.57-3.55-.47-.3 2.24zm10.28-.48l-.59 4.48-3.16-.42 1.57-11.87 7 .93-.34 2.58-3.86-.51L185 46l3.55.47-.35 2.53zm8.44 5.65l-3.22-.43 1.57-11.87 3.22.43zm9.99-4.6l3.27 6.35-3.71-.49-1.82-4-2.81 3.4-3.63-.48 4.74-5.55-2.93-6.29 3.55.47 1.65 4 2.55-3.4 3.66.48zm9.33 3.17l-4.58-.61.33-2.53 4.58.61zM222.52 46l3.21.42-.94 7.14A4.84 4.84 0 0 1 223 57a5.24 5.24 0 0 1-3.94.78 5.35 5.35 0 0 1-3.61-1.78 4.77 4.77 0 0 1-.83-3.75l1-7.22 3.22.43-.92 7a2.92 2.92 0 0 0 .22 1.88 1.73 1.73 0 0 0 1.34.77 1.68 1.68 0 0 0 1.47-.38 3.05 3.05 0 0 0 .68-1.78zm9.82 1.28a5.09 5.09 0 0 1 3.24 1.42 3.62 3.62 0 0 1 .76 3 3.93 3.93 0 0 1-1.57 2.84 4.79 4.79 0 0 1-3.47.64l-.9-.12-.53 3.94-3.21-.42 1.57-11.87zm-1.24 2.47l-.36 2.73.58.08a1.62 1.62 0 0 0 1.21-.25 1.49 1.49 0 0 0 .57-1.06q.16-1.21-1.18-1.39zm-97.7 7.02a4.27 4.27 0 0 1 1.39-2.89 4.52 4.52 0 0 1 5.73.75 4.3 4.3 0 0 1 .57 3.16 4.31 4.31 0 0 1-1.38 2.91 4.49 4.49 0 0 1-5.72-.77 4.29 4.29 0 0 1-.59-3.16zm4.16-1.77q-1.61-.21-1.91 2.09t1.29 2.52a1.38 1.38 0 0 0 1.28-.4 4.1 4.1 0 0 0 .46-3.49 1.37 1.37 0 0 0-1.12-.72zm6.96 4.35l-.38 2.88-2.14-.29 1-7.94 2.59.34q3.23.43 2.92 2.77a2.36 2.36 0 0 1-1.63 2l1.85 3.75-2.42-.32-1.3-3.1zm.45-3.42l-.24 1.81.4.05q1.12.15 1.26-.84.11-.82-1-1zM152.3 58a1 1 0 0 1-.4.72 1.19 1.19 0 0 1-.87.16 1.21 1.21 0 0 1-.8-.38 1.13 1.13 0 0 1 .2-1.53 1.22 1.22 0 0 1 .88-.16 1.19 1.19 0 0 1 .8.38 1 1 0 0 1 .19.81zm-.56 4.27a1 1 0 0 1-.4.73 1.18 1.18 0 0 1-.86.16 1.22 1.22 0 0 1-.8-.38 1.13 1.13 0 0 1 .19-1.53 1.23 1.23 0 0 1 .88-.16 1.19 1.19 0 0 1 .8.38 1 1 0 0 1 .19.84zm9.59 2.23l-5.18-.69 1-7.91 2.14.28-.82 6.19 3 .4zm6.2-.96l-.23 1.74-4.7-.62 1-7.91 4.7.62-.23 1.72-2.56-.34-.12 1.25 2.37.31-.22 1.69-2.37-.31-.2 1.49zm8.35 2.88l-2.34-.31-.19-1.54-2.57-.34-.59 1.43-2.35-.31 3.63-7.6 2.86.38zm-4.43-3.88l1.68.22q-.37-2.91-.4-3.52-.22.76-1.28 3.31zm7.8 1.4l-.38 2.88-2.14-.28 1-7.91 2.59.34q3.23.43 2.92 2.77a2.36 2.36 0 0 1-1.63 2l1.85 3.75-2.42-.32L179.8 64zm.45-3.42l-.24 1.81.4.05q1.12.15 1.26-.84.11-.82-1-1zm13.11.09l-1 7.91-2.8-.37-2.16-6q-.08 1.37-.16 2l-.47 3.57-1.89-.25 1-7.91 2.8.37 2.15 5.88q.07-1.17.18-1.94l.47-3.58zm8.19 2.86l-.82 6.16-2.18-.28.82-6.16-1.93-.26.23-1.75 6 .79-.23 1.75zm2.24 2.53a4.27 4.27 0 0 1 1.39-2.89 4.52 4.52 0 0 1 5.73.75 5.26 5.26 0 0 1-.81 6.07 4.49 4.49 0 0 1-5.72-.77 4.29 4.29 0 0 1-.59-3.16zm4.16-1.81q-1.61-.21-1.91 2.09t1.29 2.52a1.38 1.38 0 0 0 1.28-.4 4.1 4.1 0 0 0 .46-3.49 1.37 1.37 0 0 0-1.12-.71zm12.82 8.1L215 71.6l1-7.91 2.14.28-.82 6.19 3 .4zm1.28-3.87a4.27 4.27 0 0 1 1.39-2.89 4.52 4.52 0 0 1 5.73.75 5.26 5.26 0 0 1-.81 6.07 4.49 4.49 0 0 1-5.72-.77 4.29 4.29 0 0 1-.59-3.16zm4.16-1.81q-1.61-.21-1.91 2.09t1.25 2.52a1.38 1.38 0 0 0 1.28-.4 4.1 4.1 0 0 0 .46-3.49 1.37 1.37 0 0 0-1.07-.72zm7.6 5.33a12.41 12.41 0 0 1 .59-1.79l1.63-3.89 2.39.32-3.64 7.57-2.52-.33-1.53-8.26 2.41.32.55 4.15a12.38 12.38 0 0 1 .12 1.91zm9.35 1.53l-.23 1.74-4.7-.62 1-7.91 4.7.62-.18 1.7-2.56-.34-.16 1.24 2.37.31-.22 1.79-2.37-.31-.2 1.49zM135 75.54l-2.15-.28 1-7.91 2.15.28zm9.21-2.31q.09-.69.37-2.21l-2.35 5.48-2-.27-.86-5.92q-.07 1.43-.19 2.28L138.6 76l-1.89-.25 1-7.91 2.85.38.91 5.84 2.36-5.4 2.86.38-1 7.91-2-.26zm10.4 4.91l-2.34-.31-.19-1.54-2.57-.29-.59 1.43-2.35-.31 3.63-7.6 2.86.38zm-4.43-3.88l1.68.22q-.37-2.91-.4-3.52-.21.73-1.27 3.3zm8.63 1.4L159 74l3.42.45-.56 4.26a9.45 9.45 0 0 1-3.12.07 3.74 3.74 0 0 1-2.69-1.43 4.24 4.24 0 0 1-.6-3.13 4.06 4.06 0 0 1 1.55-2.86 4.23 4.23 0 0 1 3.21-.66 6.33 6.33 0 0 1 2.5.84l-.9 1.59a4.11 4.11 0 0 0-1.78-.66 1.86 1.86 0 0 0-1.58.41 2.64 2.64 0 0 0-.74 1.66 2.72 2.72 0 0 0 .24 1.77 1.62 1.62 0 0 0 1.26.76 3.6 3.6 0 0 0 .89 0l.16-1.24zm9.57 2.52l-.23 1.74-4.7-.62 1-7.91 4.7.62-.15 1.72-2.56-.34-.16 1.25 2.37.31-.23 1.71-2.42-.31-.2 1.49zm4.62-1.66a4.27 4.27 0 0 1 1.39-2.89 4.52 4.52 0 0 1 5.73.75 5.26 5.26 0 0 1-.81 6.07 4.49 4.49 0 0 1-5.72-.77 4.29 4.29 0 0 1-.59-3.16zm4.16-1.81q-1.61-.21-1.91 2.09t1.29 2.52a1.38 1.38 0 0 0 1.28-.4 3.1 3.1 0 0 0 .62-1.69 3.13 3.13 0 0 0-.16-1.8 1.37 1.37 0 0 0-1.15-.71zm8.2-.56a3.4 3.4 0 0 1 2.16.95 2.41 2.41 0 0 1 .5 2 2.62 2.62 0 0 1-1 1.9 3.19 3.19 0 0 1-2.31.43l-.6-.08-.4 2.65-2.14-.28 1-7.91zm-.83 1.65l-.24 1.82.38.05a1.08 1.08 0 0 0 .81-.17 1 1 0 0 0 .38-.71q.11-.81-.78-.92zm8.35 1.12l-.82 6.17-2.14-.28.82-6.17-1.93-.26.23-1.75 6 .79-.23 1.75zm4.39 6.86l-2.15-.28 1-7.91 2.15.28zm9.22-2.32q.09-.69.37-2.21l-2.35 5.48-2-.27-.86-5.92q-.07 1.43-.19 2.28l-.45 3.43L199 84l1-7.91 2.85.38.91 5.84 2.36-5.4 2.86.38-1 7.91-2-.26zm5.36 4.24l-2.15-.28 1-7.91 2.15.28zm7.58-.7l-.23 1.73-6.2-.87.17-1.32 4.07-4.41-3.35-.44.23-1.73 6 .79-.12 1.32-4.07 4.42zm5.84.7l-.27 1.75-4.7-.62 1-7.91 4.7.62-.23 1.72-2.56-.34-.16 1.25 2.37.31-.23 1.71-2.37-.31-.2 1.49zm3.68-.7l-.38 2.88-2.14-.28 1-7.91 2.59.34q3.23.43 2.92 2.77a2.36 2.36 0 0 1-1.63 2l1.85 3.75-2.42-.32-1.3-3.1zm.45-3.42l-.24 1.81.4.05q1.12.15 1.26-.84.11-.82-1-1zm4.46 4.7a6.17 6.17 0 0 0 1.22.67 4.68 4.68 0 0 0 1.13.32 1.33 1.33 0 0 0 .75-.06.5.5 0 0 0 .29-.4.46.46 0 0 0-.05-.29 1.19 1.19 0 0 0-.24-.27q-.16-.14-1-.64a5.49 5.49 0 0 1-1.12-.86 2.21 2.21 0 0 1-.53-1.86 2.07 2.07 0 0 1 1-1.62 3.55 3.55 0 0 1 2.27-.32 6.2 6.2 0 0 1 2.43.9l-.87 1.56a4.8 4.8 0 0 0-1.85-.76 1.06 1.06 0 0 0-.61.06.43.43 0 0 0-.25.34.53.53 0 0 0 .19.45 8.76 8.76 0 0 0 1.2.83 3.73 3.73 0 0 1 1.31 1.19 2.11 2.11 0 0 1 .23 1.38 2.24 2.24 0 0 1-1.09 1.71A3.43 3.43 0 0 1 236 89a6.62 6.62 0 0 1-1.33-.29 5 5 0 0 1-1-.53z"/></g></g></svg>