<svg xmlns="http://www.w3.org/2000/svg" xmlns:xlink="http://www.w3.org/1999/xlink" viewBox="0 0 256.18 113.74"><defs><style>.cls-1{isolation:isolate}.cls-2{fill:#f3a712}.cls-3{fill:#3f2b20}.cls-4{fill:#21140b}.cls-5{fill:#2d1c10}.cls-6{fill:#443e39}.cls-7{fill:#d3bba7}.cls-8{fill:#f9e3cf}.cls-9{fill:#e5e5e5}.cls-10{fill:#fff}.cls-11{fill:#302012}.cls-12{fill:#470b0b}.cls-13{fill:#6d0f0f}.cls-14{fill:none;stroke:#000;stroke-miterlimit:10;stroke-width:.25px}.cls-15{fill:#cb685c}.cls-16{fill:#af5454}.cls-17{fill:#e08079}.cls-18{fill:#9b755c}.cls-19{fill:#7a553c}.cls-20{fill:#2d416d}.cls-21{fill:#1b2a54}.cls-22{fill:#132244}.cls-23{fill:#91694e}.cls-24{fill:#ce4a2c}.cls-25{fill:#600707}.cls-26{fill:#911010}.cls-27{fill:#770b0b}.cls-28{fill:#aa4526}.cls-29{opacity:.5;mix-blend-mode:multiply}.cls-30{fill:url(#linear-gradient)}.cls-31{fill:url(#linear-gradient-2)}.cls-32{fill:#ba1200}.cls-33{fill:#c67b55}.cls-34{fill:#8e3d14}.cls-35{fill:#b45118}.cls-36{opacity:.75}.cls-37{fill:#878787}.cls-38{fill:#ededed}.cls-39{fill:#ccc}</style><linearGradient id="linear-gradient" x1="61.5" y1="2.3" x2="61.5" y2="2.3" gradientUnits="userSpaceOnUse"><stop offset="0" stop-color="#fff"/><stop offset=".1" stop-color="#ded8d3"/><stop offset=".1" stop-color="#dbd4cf"/><stop offset=".3" stop-color="#b3a599"/><stop offset=".5" stop-color="#927d6c"/><stop offset=".6" stop-color="#785f49"/><stop offset=".8" stop-color="#65492f"/><stop offset=".9" stop-color="#5a3c20"/><stop offset="1" stop-color="#56371b"/></linearGradient><linearGradient id="linear-gradient-2" x1="57.2" y1="58.5" x2="134.5" y2="190" xlink:href="#linear-gradient"/></defs><title>elaine</title><g class="cls-1"><g id="Vector"><path class="cls-2" d="M256.1 56.9a4.4 4.4 0 0 0-.2-1.2A5.2 5.2 0 0 0 253 53a6.5 6.5 0 0 0-2.1-.5h-1l-.4-.8a6.4 6.4 0 0 0-3.6-2.9 5 5 0 0 0-1.8-.3 7 7 0 0 0-4.9 2.6 5.3 5.3 0 0 0-.9 1.4l-.3.8-.3-.2a7.1 7.1 0 0 0 .3-1 5.3 5.3 0 0 0-1.2-4.4 6.8 6.8 0 0 0-4.3-2l-4.2-.6a1.7 1.7 0 0 0-1.3.4 1.7 1.7 0 0 0-1.1-.7l-3.2-.4a1.7 1.7 0 0 0-1.5.5l-1.2-.5a1.7 1.7 0 0 0-1-.5l-1-.2a146.2 146.2 0 0 0-53.6-7l-1.5-.2a1.7 1.7 0 0 0-1.4.4h-1a1.7 1.7 0 0 0-1.3-1l-3.3-.4a1.7 1.7 0 0 0-.9.2 1.7 1.7 0 0 0-.8-.4l-9-1.2a1.8 1.8 0 0 0-2 1.5l-.3 2a10.2 10.2 0 0 0-2.7-1.8 4.3 4.3 0 0 0-1-.4 4.4 4.4 0 0 0-.9 0 5.2 5.2 0 0 0-2.8.8 6.2 6.2 0 0 0-1.5 1.5l-.5.9h-.9a6.2 6.2 0 0 0-4 1.5c-1.8 1.4-2.4 3.8-1.5 6.5a5.1 5.1 0 0 0 .7 1.5 10.2 10.2 0 0 0 1.3 1.5 10.8 10.8 0 0 0-1.7 4.5 12.6 12.6 0 0 0 2.5 8.8c-2.1 5-11.1 5.3-11.1 5.3s6.9 2 13.2-.6l-1 7.5a1.8 1.8 0 0 0 1.5 2l2.1.3a1.7 1.7 0 0 0 1-.1 1.7 1.7 0 0 0 .7.3l2 .3a1.7 1.7 0 0 0 .7 0 1.8 1.8 0 0 0 .8.2l2 .3a1.7 1.7 0 0 0 .8-.1 1.7 1.7 0 0 0 .8.3l2 .2a1.6 1.6 0 0 1 .8.2l2.4.3a1.8 1.8 0 0 0 1.8-1.1 1.8 1.8 0 0 0 1.5 1.5l2.3.3a1.7 1.7 0 0 0 1.3-.4l.3.1a6 6 0 0 0 2.6 1h.1a136.5 136.5 0 0 0 20.4 5 3.5 3.5 0 0 0-.1.9 7 7 0 0 0 .3 2.2 4.5 4.5 0 0 1 .2.5 1.5 1.5 0 0 0-.4.8 1.7 1.7 0 0 0 .6 1.3 1.5 1.5 0 0 0 1 .4h.3l.5.4 1 .6a5 5 0 0 0 2.5.6 7 7 0 0 0 3-.6l.3-.2a4.7 4.7 0 0 0 .4-.3 6 6 0 0 0 2.2-3.6 5.5 5.5 0 0 0 0-1.4 136.4 136.4 0 0 0 22 .4l6.2.8a1.6 1.6 0 0 1 1 .1l4.8.7a1.7 1.7 0 0 1 1.4.1l2.1.3a1.8 1.8 0 0 1 2.2.3l2.5.3a1.7 1.7 0 0 0 .7 0l.3.1a8.3 8.3 0 0 0 1.7.4 5.2 5.2 0 0 0 3.5-.6 4 4 0 0 0 2-3 3.8 3.8 0 0 0-.5-2.5l-.1-.2a1.8 1.8 0 0 0 .1-.2l.9-1.6a1.7 1.7 0 0 0-.5-2.2c4.7-2.8 7.6-6.3 8.2-10.3a10.4 10.4 0 0 0 0-3.1 9.6 9.6 0 0 0 5.4-4 8.7 8.7 0 0 0 1.2-2.8 10.7 10.7 0 0 0 .2-3.4zm-11.9-7.1zm5.5 3.9zM118.4 96.3a29.6 29.6 0 0 0-1.3-6.4 29 29 0 0 0-2.3-5.5l-1-1.7-.5-.8a130 130 0 0 1-3.2-5.5 23.2 23.2 0 0 1-2.3-5.9 7.2 7.2 0 0 1-.1-.9l-.2-1.7v-1.3a28.6 28.6 0 0 1 1-7 66 66 0 0 1 1-3.3l1.4-4.6a34.7 34.7 0 0 0 .8-4.4 20.4 20.4 0 0 0 0-4.4 15.9 15.9 0 0 0-.8-3.6h.3a6.6 6.6 0 0 0 2.2-1.1 6.2 6.2 0 0 0 1.4-1.6 6 6 0 0 0 .4-.6l.1-.2v-.1l.3-.6.1-.4v-.1l.2-.4.1-.5v-.4a2.4 2.4 0 0 0 0-.3 2.3 2.3 0 0 0 0-.4 2.2 2.2 0 0 0-.6-1.2 2.2 2.2 0 0 0-.3-.2 2.2 2.2 0 0 0-1-.4 2.3 2.3 0 0 0-.6 0 2.3 2.3 0 0 0-1.3.6l-.6.7-.2.1-.2.2a3.2 3.2 0 0 1-.9.5.9.9 0 0 1-.6 0 3.5 3.5 0 0 1-1.3-1 13.8 13.8 0 0 1-1.6-2.2c-.9-1.5-1.7-3.3-2.6-5.2l-.5-1-.9-1.7a16.9 16.9 0 0 0-1.1-2 24.4 24.4 0 0 0-2.7-3.3 27.1 27.1 0 0 0-6.5-5.1 24.3 24.3 0 0 0-11.1-3.1 9.5 9.5 0 0 0-2.6-2.8 15 15 0 0 0-3.1-1.9 14.4 14.4 0 0 0-3.2-1H70a15.8 15.8 0 0 0-7.4 2c0-.2.2-.3.3-.5l.2-.2A2.2 2.2 0 0 0 61.8 0H61a2.2 2.2 0 0 0-.3.2h-.1l-.8.3-.1.1a12.5 12.5 0 0 0-2 1.2 9.7 9.7 0 0 0-2.2 2.3 7.8 7.8 0 0 0-1 2.4 8 8 0 0 0-.2 2.7v.3a22 22 0 0 0-5-.7 20.9 20.9 0 0 0-8.8 1.8 22.3 22.3 0 0 0-6 3.9l-.4.5a19.5 19.5 0 0 0-1.7 1.8 43 43 0 0 0-2.1 3l-.4.7-1.7 2.5a16.9 16.9 0 0 1-2.2 2.7 7.7 7.7 0 0 1-1.1.8 4.7 4.7 0 0 1-1.1.5 4.2 4.2 0 0 1-2 0 4.1 4.1 0 0 1-.6-.1l-.5-.2-.3-.1-.7-.4a2.3 2.3 0 0 0-3.2 2 3 3 0 0 0 .7 1.8 11.3 11.3 0 0 0 1.5 1.8 10.3 10.3 0 0 0 2.9 2 8.7 8.7 0 0 0 1 .5l-.8.9-.5.5a31.5 31.5 0 0 0-2.8 3.6 16 16 0 0 0-2.6 7.5 12.6 12.6 0 0 0 .7 5.6A19 19 0 0 0 18 55l.2.3a9.1 9.1 0 0 1 1 2 1.2 1.2 0 0 1 0 .4 1 1 0 0 1-.2.5l-.2.3-.8.7a17 17 0 0 0-1.4 1.8 21 21 0 0 0-2 4 15.4 15.4 0 0 0-1.1 4.8 9.2 9.2 0 0 0 .2 3 6.8 6.8 0 0 0 1.8 3 7.1 7.1 0 0 0 3 1.7h.1l.5.1a8.2 8.2 0 0 1-.2 1.3l-.2.7h-.4l-8.2-.3-3.5-.2a4.5 4.5 0 0 0-2.8.1A5.3 5.3 0 0 0 1.4 81a6.5 6.5 0 0 0-1 1.9 7.5 7.5 0 0 0-.3 1.4l-.1.8a7.3 7.3 0 0 0 0 1.3 6.5 6.5 0 0 0 .6 2 5.2 5.2 0 0 0 1.8 2.2 4.6 4.6 0 0 0 3.5.7l3 .1h2.6l-.4 1.3a12.4 12.4 0 0 0-.7 3 18.9 18.9 0 0 0 .3 5.3 20.4 20.4 0 0 0 1.7 5 13.7 13.7 0 0 0 3.3 4.5 8.8 8.8 0 0 0 5.9 2.2 8.8 8.8 0 0 0 3-.7l1.3-.7h.3l1.3-.6a4.8 4.8 0 0 1 .5-.2 9.7 9.7 0 0 1 1.5-.2 14.3 14.3 0 0 1 3.3.2 18.1 18.1 0 0 1 4 1.3l2.2.8a18 18 0 0 0 6 1h.7a28.3 28.3 0 0 0 4.9-.7l2.6-.7h.2l3.8-1.2c1.3-.4 2.6-.9 4-1.2a23.3 23.3 0 0 1 7.2-1.1 15.1 15.1 0 0 1 1.8.2 6 6 0 0 0 .5.5 7.8 7.8 0 0 0 2.2 1.8 11.5 11.5 0 0 0 2.3.9 14.5 14.5 0 0 0 2.2.4H80a19 19 0 0 0 4.2-.8 42.4 42.4 0 0 0 5.3-2.2l1.8-.8a28.6 28.6 0 0 1 3.2-1.2 6 6 0 0 1 2.4-.3 12 12 0 0 1 2.8.8l1.3.4 2.1.8a15.5 15.5 0 0 0 4.2.9h1.1l.8-.1a4.7 4.7 0 0 0 .8-.2h.3a6.7 6.7 0 0 0 1-.3h.2a9.9 9.9 0 0 0 3.9-2.4 10.3 10.3 0 0 0 2.3-3.7 14.2 14.2 0 0 0 .8-3.8 21.1 21.1 0 0 0 0-3.4z"/><path class="cls-3" d="M30 28.5c5.8-8.3 12.7-16.3 23-16.7A18.5 18.5 0 0 0 35.3 18c-4.4 5-7.8 15.4-16.5 10.6l.1.2c3.2 3.2 8.5 3.2 11-.2zM61.6 2.6l.1-.1c-5.5 3-5 7.1-4 9.5-.3-3.5 1-7.4 3.9-9.4zM78 8a12.4 12.4 0 0 0-3-1.7 13.2 13.2 0 0 0-12.7 1.9C67.4 6.9 73.4 5.5 78 8zM26.8 33.3c-2.3 3.7-6 6.4-7.4 10.7a11.6 11.6 0 0 0-.3 7.1 10 10 0 0 0 1 2c-1-7.3 3-13.5 6.7-19.8z"/><path class="cls-4" d="M31.2 104.1a4.3 4.3 0 0 1-.7 1.8c-4.4 3.5-12.3 3.6-15.8-1.3 1.3 3 3.3 5.3 6.1 5.7 2.4.4 4.2-1.4 6.4-2a15 15 0 0 1 6.7 0c2.7.6 5 2 7.6 2.6 9.4 2 18.6-5.3 28-4.2a23 23 0 0 1 3.8.8c.3-1.8 1.3-3.5 1.8-5.2-13.9 3.4-31.4 13-43.9 1.8z"/><path class="cls-4" d="M53.7 103.9c8.6.2 14.5-7.4 22.9-10a3.9 3.9 0 0 1 3.3.7c1.7 1 1.7 2.6.7 4.6-1.5 2.2-3.8 3-5.8 4a21 21 0 0 0-1.5 4.4A15.3 15.3 0 0 1 77 109l17.6-8.2V77.5a11.2 11.2 0 0 0-4.4 1.4c-13 6.8-22.6 19.2-36.5 25z"/><path class="cls-3" d="M17.6 68.5c.8-3.4 5-6.8 4.5-10.2a4 4 0 0 1-1.2 2.3c-3 2.7-6.6 10.5-3.2 13.6a8 8 0 0 1-.1-5.7z"/><path class="cls-4" d="M35.5 42.2c8-5.9 15.3-15.8 15.4-25.8a39.9 39.9 0 0 0-15.4 25.8zm9 59.6a83 83 0 0 0-13-33.2c-1.4 12.3 1.2 27 13 33.2z"/><path class="cls-5" d="M76.2 12.2c1.5 3 4 1.3 3.7-1.2A4.8 4.8 0 0 0 78 8c-4.6-2.5-10.6-1.2-15.7.2A12.4 12.4 0 0 0 61 9.4c-3-2.3 0-6 .6-6.8-3 2-4.2 5.9-3.9 9.4a9.4 9.4 0 0 0 1 1.9 20.8 20.8 0 0 0-5.8-2c-10.2.3-17.1 8.3-23 16.6-2.4 3.4-7.7 3.4-10.9.3.7 1 3.6 4.8 8.4 3.4-.1.4-.4.8-.6 1.1-3.6 6.4-7.7 12.5-6.8 19.8 1 1.7 2.3 3.5 2 5.2.6 3.4-3.6 6.8-4.4 10.3a8 8 0 0 0 0 5.6 4.5 4.5 0 0 0 1.7 1c2.2 0 4-1.4 3.7-4 .5.5.5 1.3.6 2a5.1 5.1 0 0 0 0-.7 4.3 4.3 0 0 1-1.6 5.1c0 6.7-6.4 10.5-8.3 16.8-.8 2.7-.4 6.8 1 10.2 3.5 5 11.4 4.8 15.8 1.3a4.3 4.3 0 0 0 .7-1.8c12.5 11.1 30 1.6 44-1.8l-.4.9c2-1.1 4.3-1.9 5.8-4 1-2 1-3.7-.7-4.7a3.9 3.9 0 0 0-3.3-.7c-8.4 2.6-14.3 10.2-23 10 14-5.8 23.6-18.1 36.7-25a11.2 11.2 0 0 1 4.4-1.4V48.2zM31.5 68.5a84.6 84.6 0 0 1 13 33.3c-11.8-6.2-14.4-20.9-13-33.3zm4-26.3A39.7 39.7 0 0 1 51 16.4c0 10-7.3 20-15.4 25.8z"/><path class="cls-4" d="M19.4 75.2a8 8 0 0 0 2.4.3v.2a3 3 0 0 0 1.8-2.5c-.1-.7 0-1.4-.6-2 .4 2.5-1.5 4-3.6 4z"/><path class="cls-4" d="M23.7 72.4a3.2 3.2 0 0 1-1.9 3.3 11.4 11.4 0 0 1 .2 2 4.3 4.3 0 0 0 1.7-5.3z"/><path class="cls-6" d="M53 110.4c2.4-.7 5-1.7 7.8-2.4a25.4 25.4 0 0 1 7.9-1.2 20.8 20.8 0 0 1 6 1.2 14.7 14.7 0 0 1 1.7.8l.6.3-.5-.4a14.5 14.5 0 0 0-1.7-.8 20.4 20.4 0 0 0-6-1.5 24.8 24.8 0 0 0-8.2.8c-2.8.7-5.5 1.6-7.9 2.3a29.7 29.7 0 0 1-7 1.3 15.4 15.4 0 0 1-5.5-.8c-2-.7-4.1-1.8-6.7-2.2a13.3 13.3 0 0 0-8 .7 10.7 10.7 0 0 1-3.8 1.4 5.7 5.7 0 0 1-3.7-1.4 13.6 13.6 0 0 1-4-7.7 15.7 15.7 0 0 1-.2-4.5 11.9 11.9 0 0 1 1.4-4.3c1.4-2.7 3.5-5 5.1-7.8a14 14 0 0 0 1.9-4.3 11 11 0 0 0 .2-2.4 5.8 5.8 0 0 0 0-1.1l-.1-.6v-.5c0-.1 0-.3-.2-.3h-1.5a6.3 6.3 0 0 1-1-.2 4 4 0 0 1-1.7-1 4.6 4.6 0 0 1-1.1-3.6 15.2 15.2 0 0 1 2.6-7.2 14 14 0 0 1 1.1-1.4l.6-.6.6-.7a4 4 0 0 0 .7-3.6 12.4 12.4 0 0 0-1.4-2.9 17.4 17.4 0 0 1-1.3-2.3 9.5 9.5 0 0 1-.5-4.2 12.9 12.9 0 0 1 .5-2.6 18.7 18.7 0 0 1 4-6.8c1-1 1.9-2.1 2.6-3.3l.6-.8.3-.5.3-.6.4-.7s0-.1 0 0h-.5a9.8 9.8 0 0 1-1.3.3 6.5 6.5 0 0 1-3.3-.5 8 8 0 0 1-2.3-1.4 9.2 9.2 0 0 1-1.3-1.4l-.3-.6a6.5 6.5 0 0 0 .3.6 9.1 9.1 0 0 0 1.2 1.4 8 8 0 0 0 2.3 1.7 6.8 6.8 0 0 0 3.5.6 3.7 3.7 0 0 0 .6-.1s.2 0 0 0v.2l-.4.6-.6.8-2.7 3.2a29.7 29.7 0 0 0-2.6 3.3 13.9 13.9 0 0 0-2.3 6.5 10.4 10.4 0 0 0 .6 4.6c.7 1.7 2 3.2 2.6 5.1a3.1 3.1 0 0 1-.4 2.9l-.5.6-.7.6a14.9 14.9 0 0 0-1.1 1.6 18.7 18.7 0 0 0-1.9 3.5 13.3 13.3 0 0 0-1 4 5.5 5.5 0 0 0 1.4 4.3 4.9 4.9 0 0 0 2 1.2 7.3 7.3 0 0 0 1.2.3h.9l.1.6a5.1 5.1 0 0 1 0 1 10 10 0 0 1-.2 2.2 13.1 13.1 0 0 1-1.7 4.1c-1.5 2.6-3.7 5-5.2 7.8a12.8 12.8 0 0 0-1.5 4.6 16.6 16.6 0 0 0 .3 4.8 18.4 18.4 0 0 0 1.4 4.4 11.3 11.3 0 0 0 2.8 3.8 6.6 6.6 0 0 0 4.3 1.6 11.3 11.3 0 0 0 4.2-1.4 9.7 9.7 0 0 1 3.7-1 16.3 16.3 0 0 1 3.8.3c2.4.4 4.5 1.5 6.6 2.2a16.3 16.3 0 0 0 5.9.8 30.5 30.5 0 0 0 7.2-1.3z"/><path class="cls-7" d="M55 17a22.2 22.2 0 0 0-6.8 4c0 2 .2 3.8 1.6 5.4.4 2.8 1.1 6 3.3 8-2-6.1-1-14.7 6.4-15.5a5.2 5.2 0 0 0 1.8-3.7A42.6 42.6 0 0 0 55 17zM37.8 56.1a16 16 0 0 0-4 3.6c4.3 1.8 9.4-.4 12.5-3.8l-8.5.2zM46.2 46a3.3 3.3 0 0 0-.8-.6c-3.5-.9-7 .8-10.7.8v1.4A23.5 23.5 0 0 1 46.2 46zm12.8-.4c6.1 1.8 12.8 0 18.9 2.1-4.6-5.2-12.8-3.9-18.9-2z"/><path class="cls-7" d="M48.4 23.3a14 14 0 0 1-.1-2.2 46.4 46.4 0 0 0-11.9 18c3.3-5.6 7-11.5 12-15.8zm22.9 70.6c-4.4 2-8.7 4.3-13 6-4.9 2-12.6 2.3-15.2-3.2-.7 1-.4 2.3 0 3.6 6.4 6.8 11.9 4 19-.3A213.6 213.6 0 0 0 80 88.3l-1 .2a29 29 0 0 1-7.6 5.4zM93.4 35a46.9 46.9 0 0 0-2-5.5h-4.3c-2.2 7.1-8 14.2-5.2 21 1 2 1.7 4 2.4 6a14.5 14.5 0 0 1 0 5.4c-.7 3.6-2.4 6.6-1.7 10.3 1 5.2 1.6 10.6-1 14.6l1-.8c8.2-7 12.3-16.4 13.4-26.5A62.5 62.5 0 0 0 93.4 35zM58.7 55.5l1.6 2c4.5 6.2 14.4 4.8 18.3-1.7-6.6-.7-13.4-1.5-20-.3z"/><path class="cls-8" d="M91.4 29.5a32.4 32.4 0 0 0-5-8 10.1 10.1 0 0 1-9.5 2.4c-4.3-1.3-8-7.3-12.7-3.3-2.4 1.7-3.2 4.5-3 7.4a11.6 11.6 0 0 1-1.2-6.5 9.3 9.3 0 0 0 2.6-6.5l-1.3.3a5.2 5.2 0 0 1-1.8 3.7c-7.4.8-8.3 9.3-6.4 15.5-2.2-2-3-5.3-3.3-8.1a5.6 5.6 0 0 1-1.4-3 60 60 0 0 0-12 15.8 23 23 0 0 0-1.7 7c3.7 0 7.2-1.6 10.7-.8a3.3 3.3 0 0 1 .8.7 23.5 23.5 0 0 0-11.5 1.5 9.9 9.9 0 0 0 4.2 8c-.4.1-.8.4-1.1.6 2.8-.1 5.6-.3 8.5-.3-3.1 3.4-8.2 5.7-12.4 3.9-5.4 6.8-3.8 17.1.2 26.1 2.6 3.9 5.1 8.2 9.2 10.5a2.8 2.8 0 0 0-.2.3c2.6 5.5 10.3 5.2 15.2 3.2 4.3-1.7 8.7-4 13-6a29 29 0 0 0 7.7-5.3l.9-.3 1.7-1.4c2.6-4 2-9.4 1-14.6-.7-3.7 1-6.7 1.7-10.4a14.5 14.5 0 0 0 0-5.2L82 50.6c-2.9-6.8 3-13.9 5.2-21zM42.3 72a7.4 7.4 0 0 1 0-1.8 13 13 0 0 0 7.3 2.8c-2.1 2-6.4 1.5-7.3-1zm35.6-24.2c-6.1-2-12.8-.3-19-2 6.2-1.9 14.4-3.2 19 2zm-17.6 9.8l-1.6-2c6.5-1.2 13.3-.4 20 .3-4 6.5-13.9 7.9-18.4 1.7z"/><path class="cls-7" d="M34 85.9a55.2 55.2 0 0 0 8.7 13.9l.4.5c-.4-1.5-.7-2.8.2-4-4-2.2-6.6-6.5-9.2-10.4zm8.3-14c1 2.5 5.2 3 7.3 1a13 13 0 0 1-7.3-2.8 7.4 7.4 0 0 0 0 1.8zM60 21.5a11.6 11.6 0 0 0 1.1 6.5c-.2-2.9.7-5.7 3.2-7.5 4.6-4 8.3 2 12.6 3.3a10.1 10.1 0 0 0 9.6-2.4 18.6 18.6 0 0 0-7.6-5.4 32 32 0 0 0-16.3-1 9.3 9.3 0 0 1-2.6 6.5z"/><path class="cls-6" d="M36.7 90A54.3 54.3 0 0 1 32 78.5a27.4 27.4 0 0 1-.8-12.4 15.7 15.7 0 0 1 1.9-5 15 15 0 0 1 2.7-3.3 12.7 12.7 0 0 1 1.2-1 8.7 8.7 0 0 1 1-.8l.9-.6-.9.6a8.7 8.7 0 0 0-1 .7 12.7 12.7 0 0 0-1.3 1 15.1 15.1 0 0 0-2.8 3.2 16 16 0 0 0-2.2 5 27.4 27.4 0 0 0 .4 12.7 50.4 50.4 0 0 0 4.7 11.9 53.3 53.3 0 0 0 6.3 9.3l1.5 1.6.8.7a6.7 6.7 0 0 0 1 .7 10 10 0 0 0 4.5 2 11.6 11.6 0 0 0 5.4-.8 34 34 0 0 0 5.2-2.4A153.7 153.7 0 0 0 82 87.3l2.6-2.4 1.3-1.2 1.1-1.4a26.6 26.6 0 0 0 2.2-2.9 29 29 0 0 0 2-3 42.6 42.6 0 0 0 4.9-13.8c1.6-9.8.4-19.8-2.4-28.6a37.8 37.8 0 0 0-6.2-12.1 21.8 21.8 0 0 0-4.7-4.5 18.4 18.4 0 0 0-5.6-2.5 31.6 31.6 0 0 0-11-1 42.2 42.2 0 0 0-9 1.8 25 25 0 0 0-6.4 2.8 24.4 24.4 0 0 0-3.5 2.7 38.7 38.7 0 0 0-7.6 10.2 48 48 0 0 0-4.8 11.8 15.9 15.9 0 0 0-.3 5.4 10.3 10.3 0 0 0 1.5 4 10.2 10.2 0 0 0 2 2.2l.8.7-.8-.7a9.5 9.5 0 0 1-3.1-6.2 15.6 15.6 0 0 1 .4-5.3c.9-3.8 3-7.7 5-11.5A40.5 40.5 0 0 1 48 22a22.9 22.9 0 0 1 9.5-5.2 41.2 41.2 0 0 1 8.8-1.7 30.5 30.5 0 0 1 10.6.8 17.3 17.3 0 0 1 5.3 2.4 20.7 20.7 0 0 1 4.4 4.3 36.7 36.7 0 0 1 6 11.7c2.8 8.7 4 18.6 2.4 28.1A41.5 41.5 0 0 1 90.2 76a28 28 0 0 1-1.9 3 25.6 25.6 0 0 1-2.1 2.7L85 83l-1.2 1.2-2.6 2.3A152.7 152.7 0 0 1 60 100.7a33 33 0 0 1-5 2.4 10.5 10.5 0 0 1-4.9.7 8.9 8.9 0 0 1-4-1.8 6 6 0 0 1-1-.7l-.7-.6-1.4-1.5a52.2 52.2 0 0 1-6.2-9.2z"/><path class="cls-7" d="M45 66.2c1.5-2.4 3-4.3 3.8-6.6a181 181 0 0 1-6.1 8.2c-2.4 3-.4 5 4.2 5.2-2.8-.8-4.2-3.3-2-6.8z"/><path class="cls-8" d="M50.6 72.8l.3-16.2-2 3c-.8 2.3-2.4 4.3-4 6.6-2.2 3.5-.7 6 2 6.8a21.1 21.1 0 0 0 3.7-.2z"/><path class="cls-6" d="M43.5 67.7c1-1.3 3-4.1 4.5-6.6l3-4.5-3.4 4.3-5 6.1a9.7 9.7 0 0 0-.9 1.3 3.2 3.2 0 0 0-.4 2.2 2.9 2.9 0 0 0 1.6 1.9 6.8 6.8 0 0 0 2.2.6 15.7 15.7 0 0 0 4 0l1.5-.2H49a16 16 0 0 1-3.8-.2 6.3 6.3 0 0 1-2-.8 2.1 2.1 0 0 1-1-1.4 2.4 2.4 0 0 1 .4-1.6 12.3 12.3 0 0 1 .9-1.1z"/><path class="cls-9" d="M58.9 55l-.5.4S63.6 61 70 59.9s9-4.5 9-4.5a3.1 3.1 0 0 0-.4-.7A18.8 18.8 0 0 1 59 55z"/><path class="cls-10" d="M69 50.6C65 51 60.4 54 58.8 55a18.8 18.8 0 0 0 19.9-.3 12.6 12.6 0 0 0-9.7-4z"/><path class="cls-11" d="M72.6 51s-2.6 1.6-1.9 4.2 3 3 5 2.8a12.7 12.7 0 0 0 3.4-2.6S78 52.6 72.6 51z"/><path class="cls-6" d="M78.7 55.4l-.2.2-.4.4a12.4 12.4 0 0 1-1.1.9 15.3 15.3 0 0 1-3 1.6 14.4 14.4 0 0 1-7.4 1.3 14.8 14.8 0 0 1-6-2.6 15.5 15.5 0 0 1-2.2-1.8 15.4 15.4 0 0 0 2.1 1.9 14.9 14.9 0 0 0 6 2.8 11.2 11.2 0 0 0 4 0 19.4 19.4 0 0 0 3.8-1 15.4 15.4 0 0 0 3-1.6 12.4 12.4 0 0 0 1.2-1l.5-.4.2-.2.2-.3h.1v-.2a3.5 3.5 0 0 0-.4-.7 4.7 4.7 0 0 0-.4-.5 8.7 8.7 0 0 0-1.1-1 13.6 13.6 0 0 0-3.1-1.7 12.7 12.7 0 0 0-3.8-1 10.5 10.5 0 0 0-4 .5 24.8 24.8 0 0 0-6 2.9l-2.3 1.6 2.4-1.6a24.9 24.9 0 0 1 6-2.6 11 11 0 0 1 7.5.7 13.4 13.4 0 0 1 2.9 1.7 8.4 8.4 0 0 1 1 1 4.2 4.2 0 0 1 .4.4 2.1 2.1 0 0 1 .1.3z"/><path class="cls-3" d="M62.4 13.7c-1.5 1.6-6.3 7.5-1.6 13.9-1.3-4.7-.4-9.5 1.6-13.9z"/><path class="cls-12" d="M42.4 87a12.3 12.3 0 0 1 0 1.3l.4.8a102.5 102.5 0 0 1 10.4-.1c2.7.1 6.3 1 9-.2-6-3.4-13.4-3.2-19.8-1.8z"/><path class="cls-13" d="M58 78.3l.1-1.7c-2.4.1-4.8.6-6.5.8-3.4.3-6.8.6-10.3.7a5.5 5.5 0 0 1-.2 4.4 9 9 0 0 1 1.3 4.5A27.8 27.8 0 0 1 62 88.8a5.5 5.5 0 0 0 .5-.3 8 8 0 0 0 3.5-6.8c-1.5-2.6-4.8-3.9-8.1-3.5z"/><path class="cls-12" d="M66.1 81.7a5.6 5.6 0 0 0-.5-2.3c-1.3-2.6-4.3-3-7.5-2.9v1.7c3.1-.4 6.5.9 8 3.5z"/><path class="cls-3" d="M77.5 102.8c-1.5-2.3-6 .4-5.5 3.4a3.8 3.8 0 0 0 .2.7c1-2.2 2.7-4.3 5.3-4.1z"/><path class="cls-4" d="M77.6 20.9c-3-2.6-5.8-4.9-9.6-4.4 6.2-.3 8.2 8.7 14.3 5.8a6.7 6.7 0 0 1-4.7-1.4zm24.2 37.9c1.8.9 3.7-.6 5-2.1l.8-2.6a2.8 2.8 0 0 1-.4-.1c-1.5 2.1-2.5 4.6-5.4 4.8z"/><path class="cls-3" d="M87.6 54.5c-1.4-3.8-4-7.6-4.2-11.6l-.4 1.7C81.8 50 85.9 53 86.6 58c.4 3.5-1.4 6.6-2.2 9.8 2.3-4 5-8.3 3.2-13.2zm17.7 32.2c-1.5-5 .4-10.4 0-15.6a20.5 20.5 0 0 1-.4-4c-1.4 6.6-3.5 14.6.4 19.6z"/><path class="cls-5" d="M112.2 85.1a72.7 72.7 0 0 1-5.3-9.1 17.1 17.1 0 0 0-.2 12.3 7.8 7.8 0 0 1-1.5-2.1l.1.4c-4-4.9-1.8-13-.4-19.5a27.8 27.8 0 0 1 .8-6.4 47 47 0 0 1 1.1-4c-1.3 1.6-3.2 3-5 2.2 3-.3 3.9-2.7 5.4-4.9a2.8 2.8 0 0 0 .5 0c1.7-5.7 3.1-11.7-.8-17 0 0 4.3 1.5 6.3-1.5a6.3 6.3 0 0 1-8.2-2.3c-5-9-10.1-18.4-19.5-21.6A22.3 22.3 0 0 0 80 11l-17.1 2.2-.4.4a21 21 0 0 0-1.6 13.9l.3.5c-1.6-5 .2-10.3 5.7-11.4a7 7 0 0 1 1.2-.2c3.8-.5 6.7 1.8 9.6 4.4a6.7 6.7 0 0 0 4.7 1.4 9.8 9.8 0 0 0 1.4-.8c6.4 7.9 1.9 13.6-.3 21.4.2 4 2.8 7.8 4.2 11.6 1.8 4.9-.9 9.1-3.1 13.2l-.3 1.2a17.6 17.6 0 0 0 .2 5.2c3.5 8.5 6.4 21.9-2.6 26.8a7.4 7.4 0 0 1-4 2.5 2.4 2.4 0 0 0-.3-.6c-2.6-.2-4.3 1.9-5.3 4 .7 1.9 2.6 2.8 4.6 3.3a23.8 23.8 0 0 0 4.8-.9c3.7-1.7 7-3.7 10.7-5s7.6-.6 11.4 0l2.5.4a9.3 9.3 0 0 0 8-4 8.9 8.9 0 0 0 1.7-4 27.6 27.6 0 0 0-3.7-11.5z"/><path class="cls-3" d="M84.3 74.1c.8 5.1 3.1 10 2.2 15.4a25 25 0 0 1-4.7 11.4c9-4.9 6.1-18.3 2.5-26.8z"/><path class="cls-4" d="M107 76a23.2 23.2 0 0 1-1.7-5c.3 5-1.4 10.3-.1 15.2a7.8 7.8 0 0 0 1.4 2.1c-1.5-3.7-1.1-8.5.4-12.3zm9 20.6a8.9 8.9 0 0 1-1.7 4 9.3 9.3 0 0 1-8.1 4c-4.6-.7-9.4-2-14-.4-3.6 1.3-7 3.3-10.6 5a23.8 23.8 0 0 1-4.8.8 12.8 12.8 0 0 0 1.7.3c5.9 0 9.7-3.3 15-5 6-2 10 3.3 15.8 2.3a7.4 7.4 0 0 0 4.9-2.8c1.6-2.1 2-5 1.7-8.2z"/><path class="cls-3" d="M105 33.2a6.3 6.3 0 0 0 8.2 2.3 6 6 0 0 0 .8-2.3c-6.8 8.1-11.1-8-14.2-11.9a23.8 23.8 0 0 0-14.3-9.7c9.3 3.2 14.5 12.6 19.4 21.6z"/><path class="cls-10" d="M51.7 77.4c-4 .4-8 .6-11.9.8l.1.9a28.8 28.8 0 0 0 .5 3.1c6.4-.6 13.1-1.6 19.7-1.4a13 13 0 0 1 .7-2.7 11.6 11.6 0 0 1 .5-1.4c-3.1-.5-7.2.4-9.6.7z"/><path class="cls-9" d="M40.4 82.2l.2.8 9-.7 10.4-.9v-.6c-6.5-.2-13.2.8-19.6 1.4z"/><path class="cls-6" d="M114 33.2l-.3.3a7.4 7.4 0 0 1-.8.7 5.5 5.5 0 0 1-1.4 1 3 3 0 0 1-2.3 0c-1.6-.5-3-2.2-4-4l-3.3-6.5a24.3 24.3 0 0 0-10.3-11.1A22.2 22.2 0 0 0 80 10.8v.6h2.4l1.3.2a9.7 9.7 0 0 1 1.5.2 20.9 20.9 0 0 1 6.2 2.2 24 24 0 0 1 10.2 11c1.1 2.2 2.2 4.4 3.4 6.3s2.5 3.5 4.2 4.1a3.2 3.2 0 0 0 2.3-.1 5.5 5.5 0 0 0 1.5-1 7.4 7.4 0 0 0 .8-.8z"/><path class="cls-6" d="M105.4 66.8a30.8 30.8 0 0 1 1.1-7.5l2.3-8a33.5 33.5 0 0 0 .7-4 18.1 18.1 0 0 0 0-4 13.8 13.8 0 0 0-.8-3.6l-.8-1.5-.4-.6-.2-.2v-.1a5 5 0 0 0 .6 0 8.7 8.7 0 0 0 1 .2 6.5 6.5 0 0 0 1.8-.2 4.2 4.2 0 0 0 2.4-1.7l.3-.5.2-.5a3.2 3.2 0 0 0 .2-.8l.2-.6-.2.6a3.2 3.2 0 0 1-.2.8l-.3.5-.3.4a4 4 0 0 1-2.3 1.6 6.3 6.3 0 0 1-1.8.1 8.5 8.5 0 0 1-1-.1 10.5 10.5 0 0 1-1.4-.4v.1l.2.2.3.5.5.8.7 1.6a13.5 13.5 0 0 1 .8 3.5 17.8 17.8 0 0 1-.1 3.8 33.7 33.7 0 0 1-.9 4l-2.3 7.8a30.1 30.1 0 0 0-1.3 7.8 20.4 20.4 0 0 0 .5 4.6 26.2 26.2 0 0 0 2.5 6.7c1.3 2.5 3 5.2 4.8 8a27.5 27.5 0 0 1 3.2 10.6 14 14 0 0 1-.6 6 6.7 6.7 0 0 1-4.3 4.2 8.5 8.5 0 0 1-3.1.4 12.4 12.4 0 0 1-3.3-.7c-2.1-.7-4.3-1.8-6.8-2a9.2 9.2 0 0 0-3.8.3 31 31 0 0 0-3.4 1.3 66.2 66.2 0 0 1-6.8 2.9 16 16 0 0 1-3.6.7h-.9a3.5 3.5 0 0 1-.4 0H78a11.3 11.3 0 0 1-1.8-.3 6.3 6.3 0 0 1-3-1.7 3 3 0 0 1-.7-3 4 4 0 0 1 2.5-2.2 2 2 0 0 1 1.5 0l.3.2.2.3a1 1 0 0 1 .1.2l.2.4c0 .4.5 0 .7 0 2.8-.6 4.6-2.8 5.8-5a27 27 0 0 0 2.6-7 24.5 24.5 0 0 0 .7-3.7 19.7 19.7 0 0 0-.1-3.7c-.7-4.8-2.6-9.2-2.5-13.6a18.5 18.5 0 0 1 1.4-6.3 14.7 14.7 0 0 0 1.1-6.2 16.7 16.7 0 0 0-2-5.7 16.5 16.5 0 0 1-1.7-5 11 11 0 0 1 .5-4.6l1.4-4.2a37 37 0 0 0 2-7 12.8 12.8 0 0 0-.1-4.5l-.5-1.5-.7-1.5-.8-1.5-1.1-1.5-.2-.3-.4.2-.5.3a7.9 7.9 0 0 1-.7.4 5.8 5.8 0 0 1-1.5.6 4.2 4.2 0 0 1-3-.5c-1.9-1-3.3-2.8-5.2-4.1a7.9 7.9 0 0 0-3-1.4 6.7 6.7 0 0 0-3.1.1 7.7 7.7 0 0 0-4.6 3.3 8.4 8.4 0 0 0-1.3 4.3 11 11 0 0 0 .3 3l.3 1-.3-1a11 11 0 0 1-.2-3 8.3 8.3 0 0 1 1.4-4.2 7.3 7.3 0 0 1 4.4-3 6.3 6.3 0 0 1 3 0 7.3 7.3 0 0 1 2.8 1.3c1.8 1.3 3.2 3.2 5.2 4.4a5 5 0 0 0 3.6.6 6.6 6.6 0 0 0 1.7-.6 8.7 8.7 0 0 0 .7-.5h.2l.8 1.1.8 1.3.6 1.4.4 1.4a12 12 0 0 1 .1 4.3 36.2 36.2 0 0 1-2 6.8L83 42.6a24.2 24.2 0 0 0-.5 2.4 8.6 8.6 0 0 0 0 2.7c.5 3.6 3.3 6.6 3.7 10.5a13.9 13.9 0 0 1-1 6c-.4 1-.8 2-1 3a14.4 14.4 0 0 0-.5 3.4c-.1 4.7 1.8 9.1 2.5 13.8a18.8 18.8 0 0 1 0 3.5 23.6 23.6 0 0 1-.5 3.5 26.2 26.2 0 0 1-2.5 6.8 12.6 12.6 0 0 1-2.1 3 6.7 6.7 0 0 1-3 1.6 1.6 1.6 0 0 0-.1-.2l-.4-.5-.5-.3a2.9 2.9 0 0 0-2.2-.1 5 5 0 0 0-3 2.7 3.4 3.4 0 0 0-.1 2.1 4.3 4.3 0 0 0 1 1.9 7.2 7.2 0 0 0 3.4 2 12.2 12.2 0 0 0 2 .3h.4a3.9 3.9 0 0 0 .5 0h1a16.9 16.9 0 0 0 3.8-.7 66.5 66.5 0 0 0 6.7-3 30.2 30.2 0 0 1 3.3-1.3 8.3 8.3 0 0 1 3.4-.3c2.3.2 4.4 1.3 6.7 2a13.3 13.3 0 0 0 3.5.8 9.4 9.4 0 0 0 3.5-.5 7.6 7.6 0 0 0 3-1.8 8 8 0 0 0 1.8-2.9 14.9 14.9 0 0 0 .7-6.3 28.4 28.4 0 0 0-3.3-11c-1.8-3-3.6-5.5-4.8-8a25.3 25.3 0 0 1-2.5-6.5 19.5 19.5 0 0 1-.4-4.4z"/><path class="cls-6" d="M59.3 20.5A13.3 13.3 0 0 1 61 16a17.4 17.4 0 0 1 1.2-2l.7-.7-.8.7a16.1 16.1 0 0 0-1.5 1.8 11.2 11.2 0 0 0-2 4.5l-.1 1v1.3c0 .5.2.9.3 1.4l.5 1.3a11.3 11.3 0 0 0 1.3 2l.7.8-.5-.9a11.7 11.7 0 0 1-1-2l-.4-1.4-.1-1.3v-1.1l.1-1z"/><path class="cls-9" d="M57.1 88.5l-.3-.6a63.4 63.4 0 0 0-14.8 0 2.9 2.9 0 0 0-.3.6c5.1-.3 10.3-1 15.4 0z"/><path class="cls-10" d="M41.7 88.5a3.9 3.9 0 0 0-.2.7 97.3 97.3 0 0 1 11.7-.2c1.3 0 2.8.3 4.3.3l-.4-.8c-5.1-1-10.3-.3-15.4 0z"/><path class="cls-6" d="M37 17a21.1 21.1 0 0 1 5-3.5 18.3 18.3 0 0 1 7.5-1.8 20 20 0 0 1 6.6 1l1.1.5.8.4.7.3-.7-.4-.8-.4-1-.5a20 20 0 0 0-6.8-1.4 18.5 18.5 0 0 0-7.8 1.6 20 20 0 0 0-5.3 3.5 23.8 23.8 0 0 0-1.9 2.1l-2 3a34 34 0 0 1-4.7 6.2 8.3 8.3 0 0 1-3.1 1.8 6.3 6.3 0 0 1-.8.1 2.8 2.8 0 0 1-.8 0 6.4 6.4 0 0 1-1.4 0l-1.2-.4-.8-.3-.7-.3.7.3.8.4 1.2.4a6.6 6.6 0 0 0 1.4.2 3 3 0 0 0 .8 0 6.6 6.6 0 0 0 .9-.1 8.7 8.7 0 0 0 3.3-1.8 33 33 0 0 0 5-6.1l2-2.8 2-2zm20.7-9.5a3.1 3.1 0 0 1 .2-.7 4.3 4.3 0 0 1 .4-.8 7.5 7.5 0 0 1 1.3-1.8l.7-.7.7-.5.7-.5-.7.3-.8.5-.9.6a7.4 7.4 0 0 0-1.6 1.7 4.3 4.3 0 0 0-.5 1 2.9 2.9 0 0 0-.3.7 5.5 5.5 0 0 0-.1 1.9 8.1 8.1 0 0 0 .6 2.3 11 11 0 0 0 .9 1.7l.5.7-.4-.8a11.7 11.7 0 0 1-.6-1.8 8.5 8.5 0 0 1-.3-2.1 6.8 6.8 0 0 1 .2-1.7z"/><path class="cls-15" d="M38.3 78.3zm20.9-1.8c-5.7-1.5-11.5 1-17.4.2a6.2 6.2 0 0 1-3.5 1.6c4.5-.2 9-.5 13.4-1 1.9-.1 4.8-.8 7.5-.8z"/><path class="cls-16" d="M49.8 91l-2.7.1-1.7.1h-1.6l-.3-.2-.2-.2a6 6 0 0 0-.6-.5 8.4 8.4 0 0 0-1-.6 8 8 0 0 0-1-.5 8.2 8.2 0 0 1 1 .5 8.5 8.5 0 0 1 1 .7 6 6 0 0 1 .5.5l.3.3.2.3H50l5.5-.1a8.1 8.1 0 0 1 2.6-1.6 9.4 9.4 0 0 1 1.3-.4 9.1 9.1 0 0 0-1.3.3 8.4 8.4 0 0 0-2.8 1.4l-5.4-.1z"/><path class="cls-15" d="M56.9 89.3a41.4 41.4 0 0 1-15.7 0h-.6a7.9 7.9 0 0 1 3 2.2s2.3-.3 11.6-.3a8.3 8.3 0 0 1 4-1.8 20 20 0 0 1-2.4 0z"/><path class="cls-17" d="M56.9 89.3c-1.3 0-2.6-.2-3.7-.3a96.2 96.2 0 0 0-12 .3 41.4 41.4 0 0 0 15.6 0zm2.3-12.8h.3a25.3 25.3 0 0 0-4.1-1.2c-7.2.9-7.2 1-13.3 1.1l-.3.3c5.9.7 11.7-1.7 17.4-.2z"/><path class="cls-17" d="M48.8 76.4l6.4-1a2.6 2.6 0 0 1 .9.1l.8.2 1.3.4 1.3.4-1.2-.5-1.4-.5-.8-.2a2.7 2.7 0 0 0-.9-.2l-6.5.7-6.5.5-.3.1-.2.2-.3.3a6.7 6.7 0 0 1-.6.4 6.5 6.5 0 0 1-1.3.7 4.5 4.5 0 0 1-1.3.3 4.5 4.5 0 0 0 1.3-.3 6.5 6.5 0 0 0 1.3-.5 6.8 6.8 0 0 0 .8-.5l.3-.2.3-.3a58.8 58.8 0 0 0 6.5-.1z"/><path class="cls-6" d="M70.3 5.9a12.2 12.2 0 0 1 4.5.7A12.6 12.6 0 0 1 77.3 8a6.4 6.4 0 0 1 2 2 3 3 0 0 1 .2 2.7 1.5 1.5 0 0 1-1.8 1 2.6 2.6 0 0 1-1.2-1l-.3-.5.3.5a2.6 2.6 0 0 0 1.2 1 1.5 1.5 0 0 0 1.1 0 2 2 0 0 0 1-1 3.3 3.3 0 0 0 0-2.8 6.9 6.9 0 0 0-2.1-2.4A12.8 12.8 0 0 0 75 5.9a11.8 11.8 0 0 0-4.8-.9 13.6 13.6 0 0 0-4.7 1 14.3 14.3 0 0 0-2.7 1.5 13.2 13.2 0 0 0-1.3 1l-.2.3-.3.2-.2-.1a2.9 2.9 0 0 1-1-2.4 6 6 0 0 1 .7-2.2 9.8 9.8 0 0 1 .8-1.4l.4-.5-.4.5a9.8 9.8 0 0 0-1 1.3 6.1 6.1 0 0 0-.7 2.3 3.2 3.2 0 0 0 .9 2.7l.4.4h.2l.2-.2.3-.3a3.7 3.7 0 0 1 .3-.3A13 13 0 0 1 63 8a14.1 14.1 0 0 1 2.6-1.3 14.4 14.4 0 0 1 4.6-.8zM50.4 82c-1.8 0-5.5.4-8.7.7l-.6.1h-.4l-.1-.5-.2-.5A32.5 32.5 0 0 1 40 80l.3 1.9v.5l.2.6c0 .1.1 0 .2 0h1l8.7-.5 4.4-.4 5.3-.6V81l.1-.5.2-1a13.3 13.3 0 0 1 .4-1.4 11.3 11.3 0 0 1 .6-1.3 11 11 0 0 0-.6 1.3 13.2 13.2 0 0 0-.5 1.5l-.2 1-.1.4v.5l-5.2.3zm-.9 5.2a52.5 52.5 0 0 0-5.3.3l-1.4.2-.6.1s-.2 0-.3.2a2.6 2.6 0 0 0 0 .2 3.4 3.4 0 0 0-.4 1 3.4 3.4 0 0 1 .4-1c0-.1.1-.3.3-.3h2c2-.2 4.2-.2 5.3-.2l5.3.1 1.4.1a2.5 2.5 0 0 1 .6 0l.2.5.5 1-.4-1-.2-.5a2.2 2.2 0 0 0-.6-.1l-1.4-.2a44.6 44.6 0 0 0-5.4-.4z"/><path class="cls-10" d="M46 55.4c-2.2-3.4-9.4-6.7-11.9-2.3a3.1 3.1 0 0 0-.3 1.4c2.8 4.5 8 3 12.2.9z"/><path class="cls-9" d="M33.8 54.5a4.4 4.4 0 0 0 2.2 4c3.1 1.7 8-.5 10.3-2.6a5.4 5.4 0 0 0-.3-.4c-4.3 2-9.4 3.5-12.2-1z"/><path class="cls-11" d="M41.4 51.8s-2.3 3.8 2.7 5.6a14.1 14.1 0 0 0 2.2-1.5s-1-2.4-4.9-4.1z"/><path class="cls-6" d="M34.1 54.5a2.7 2.7 0 0 1 .6-1.6 3.6 3.6 0 0 1 1.7-1.3 5.2 5.2 0 0 1 2.4-.3 9.8 9.8 0 0 1 2.6.6 12 12 0 0 1 3.7 2.5 5.3 5.3 0 0 1 .6.6 3 3 0 0 1 .3.4l.3.5-.2-.5a3 3 0 0 0-.4-.5 5.4 5.4 0 0 0-.5-.6 12 12 0 0 0-3.7-2.7 7.3 7.3 0 0 0-5.4-.6 4.1 4.1 0 0 0-2 1.5 3.2 3.2 0 0 0-.7 1.9 4.7 4.7 0 0 0 1.8 4 6.4 6.4 0 0 0 5.4.6 14.2 14.2 0 0 0 4.2-1.9 11.4 11.4 0 0 0 1.5-1.2 11.6 11.6 0 0 1-1.6 1.1 14.2 14.2 0 0 1-4.2 1.6 6 6 0 0 1-4.9-.7 4.3 4.3 0 0 1-1.5-3.4zM21.5 70.2a2.5 2.5 0 0 1 .8.4 2.7 2.7 0 0 1 1 1.6 3.2 3.2 0 0 1-.3 2.1 1.6 1.6 0 0 1-1.2.7v1a2.2 2.2 0 0 0 1-.4 2.2 2.2 0 0 0 .9-.9 3.6 3.6 0 0 0 0-2.6 3 3 0 0 0-1.3-1.6 2.4 2.4 0 0 0-.9-.3zm86.7 14.6h.2a2.6 2.6 0 0 1 .5.4 2.3 2.3 0 0 1 .9 2 2.4 2.4 0 0 1-.7 1.5 1.3 1.3 0 0 1-1.5.3c-1.1-.5-1.7-2-2.2-3.3a13.3 13.3 0 0 1-.4-4.3c0-1.5.2-3 .4-4.4a31 31 0 0 0 .2-7.1l-.9.1a34.4 34.4 0 0 1 0 7c-.2 1.3-.3 2.8-.3 4.4a13.7 13.7 0 0 0 .6 4.5 9.3 9.3 0 0 0 1 2 3.6 3.6 0 0 0 1.5 1.4 1.6 1.6 0 0 0 1.9-.5 2.6 2.6 0 0 0 .6-1.5 2.4 2.4 0 0 0-1-2.1 2.6 2.6 0 0 0-.6-.3zM101 57.6a.8.8 0 0 0-.2.4c-.1.3.2.7.7.8a3 3 0 0 0 1.8-.2 4.4 4.4 0 0 0 1.7-1.2 18 18 0 0 0 2.6-3.9 32.6 32.6 0 0 0 1.4-3.3l-.6-.2a29.2 29.2 0 0 1-3.6 7.2 4.1 4.1 0 0 1-1.6 1.2 2.9 2.9 0 0 1-1.7.3c-.5 0-.8-.4-.7-.7a.7.7 0 0 1 .3-.4z"/><path class="cls-3" d="M51 16.2a15.2 15.2 0 0 0-3.9 8 8.4 8.4 0 0 0 4.2 8.5c-4-4.4-2.8-11.3-.2-16.5z"/><path class="cls-5" d="M57 15.8L53.1 14a20.7 20.7 0 0 0-2.1 2c-2.6 5.3-3.8 12.2.2 16.5l.4.2a15.8 15.8 0 0 1-1.3-8.2c.5-3.5 3.3-7.5 6.5-8.8z"/><path class="cls-6" d="M50.7 31.9a8 8 0 0 1-3-4.3 8.8 8.8 0 0 1-.3-3.3 11.9 11.9 0 0 1 .8-3.4 17.6 17.6 0 0 1 3.2-5l1.3-1.3.5-.5-.5.5-1.4 1.2a17.6 17.6 0 0 0-3.4 5 12.2 12.2 0 0 0-1 3.5 9.2 9.2 0 0 0 .3 3.6 8.4 8.4 0 0 0 3.2 4.6l.6.4 1 .5.2.1.1.1v-.1l-.3-.7-.4-1a20.1 20.1 0 0 1-.9-3 13 13 0 0 1-.2-3.4 10.7 10.7 0 0 1 .8-3.4 13.4 13.4 0 0 1 3.5-4.8 9.5 9.5 0 0 1 1.5-1.1l.6-.3-.6.2a9.5 9.5 0 0 0-1.6 1 13.5 13.5 0 0 0-3.7 5 11 11 0 0 0-1 3.4 13.2 13.2 0 0 0 .2 3.6 19.7 19.7 0 0 0 .8 3v.2h-.1zM43.6 96a3.6 3.6 0 0 0-.4.5 2.8 2.8 0 0 0-.7 1.2 4.2 4.2 0 0 0 .4 3l.7-.5a4.7 4.7 0 0 1-.7-2.5 2.6 2.6 0 0 1 .4-1.2 3.9 3.9 0 0 1 .3-.4z"/><path class="cls-18" d="M14.4 82.2l-7.7-.5c2.5 1.3 5.1 1 7.7.5z"/><path class="cls-19" d="M6.2 89.3l7 .2a9.3 9.3 0 0 0-7-.2z"/><path class="cls-20" d="M23.6 82.7l-8.7-.5c2.8 1 6 1.6 8.7.5z"/><path class="cls-21" d="M22.6 89.3a10.4 10.4 0 0 0 1-6.6c-2.8 1.2-6 .6-8.7-.4h-.6a22.8 22.8 0 0 1 .3 3.2 7.6 7.6 0 0 1-1.1 4h.7a10.6 10.6 0 0 1 8.4-.2z"/><path class="cls-22" d="M14.1 89.5h8.5v-.1a10.6 10.6 0 0 0-8.5 0z"/><path class="cls-23" d="M14.3 82.2c-2.5.5-5 .8-7.6-.5h-1l-1 7.6h1.5a9.3 9.3 0 0 1 7 .1h.3a7.6 7.6 0 0 0 1.1-4 22.8 22.8 0 0 0-.3-3.2zm27.3 1h-2.4a26.6 26.6 0 0 1-14.2-.4h-1.4a10.3 10.3 0 0 1-1 6.6h.4c6.2-2.8 18.5 1.9 20.7-5.5a2.8 2.8 0 0 0-2.1-.7z"/><path class="cls-18" d="M39.2 83.2c-4.2 0-9.2-.2-14.2-.4a26.6 26.6 0 0 0 14.2.4z"/><path class="cls-19" d="M43.7 84c-2.2 7.3-14.5 2.5-20.7 5.4A168.2 168.2 0 0 0 41 88c1.2-.2 2.9-.5 3.3-2a2 2 0 0 0-.6-2z"/><path class="cls-6" d="M17.4 89.2l-12.6.1s7.5.3 12.6.3H21a162 162 0 0 0 14.8-.8l4.6-.5a10 10 0 0 0 2.4-.5 2.6 2.6 0 0 0 1.7-1.8 2.3 2.3 0 0 0-.8-2.4 3.2 3.2 0 0 0-2.3-.6h-4.6l-8.3-.2-10.1-.5c-5-.3-12.6-.5-12.6-.5s7.5.7 12.6 1l10 .4 8.4.3h4.6a2.8 2.8 0 0 1 2 .6 1.9 1.9 0 0 1 .6 1.8 2.1 2.1 0 0 1-1.4 1.5 9.6 9.6 0 0 1-2.3.4l-4.5.6a159 159 0 0 1-14.8.8z"/><path class="cls-3" d="M75.8 44.6a11.9 11.9 0 0 0-3.2-2.2c-3.4-1.4-7.4-.5-10.8 1.2 4.8-1.4 9.6-.7 14 1z"/><path class="cls-5" d="M77.9 46.8a20 20 0 0 0-2-2.2 21.8 21.8 0 0 0-14-1 19.4 19.4 0 0 0-2.3 1.3A29.8 29.8 0 0 1 78 46.8z"/><path class="cls-4" d="M59.6 45c-.4.2-.9.5-1.2.9 0 0 13.4-2.8 21 2.8l-1.5-2A29.8 29.8 0 0 0 59.6 45z"/><path class="cls-6" d="M69.2 45a34.3 34.3 0 0 0-6.5.2l-3 .4-1.3.3 1.3-.2c.8-.2 1.9-.1 3-.2a47.5 47.5 0 0 1 6.4.2 28.5 28.5 0 0 1 6.3 1.1l.8.3.7.3a8.8 8.8 0 0 1 1.3.6l1.1.7-1-.7a8.8 8.8 0 0 0-1.3-.8l-.7-.4-.8-.3a23.4 23.4 0 0 0-6.3-1.5z"/><path class="cls-6" d="M69.6 42a10 10 0 0 1 3 .8A12.3 12.3 0 0 1 76 45a21.6 21.6 0 0 1 2.4 2.5l1 1.2-1-1.3a21 21 0 0 0-2.2-2.7 12.3 12.3 0 0 0-3.3-2.4 9.3 9.3 0 0 0-3.2-.9 11.7 11.7 0 0 0-3.3.3 16.6 16.6 0 0 0-3.9 1.4 19 19 0 0 0-3 1.8l-.8.7-.4.3.4-.3.9-.6a19.5 19.5 0 0 1 3-1.6 17.1 17.1 0 0 1 3.9-1.2 13 13 0 0 1 3.1-.1z"/><path class="cls-3" d="M43.1 43.2a5.7 5.7 0 0 0-4-1.2 6.1 6.1 0 0 0-3.6 2.3 14 14 0 0 1 7.6-1.1z"/><path class="cls-5" d="M45 44.7a12 12 0 0 0-1.8-1.5 14 14 0 0 0-7.7 1.1 13.4 13.4 0 0 0-1.3 2A13.5 13.5 0 0 1 45 44.7z"/><path class="cls-4" d="M34.2 46.3l-.6 1s4.5-3.3 12-1.7a11.2 11.2 0 0 0-.7-.9 13.5 13.5 0 0 0-10.7 1.6z"/><path class="cls-6" d="M39 41.7a4.8 4.8 0 0 0-2 .8 8.5 8.5 0 0 0-1.8 2 13.4 13.4 0 0 0-1.6 2.8 14.2 14.2 0 0 1 1.8-2.6 8.6 8.6 0 0 1 2-1.7 4.9 4.9 0 0 1 1.7-.7 4.6 4.6 0 0 1 2 0 7.6 7.6 0 0 1 2.2 1.2 12.8 12.8 0 0 1 2.4 2 12.2 12.2 0 0 0-2.2-2.3 7.6 7.6 0 0 0-2.3-1.4 4.6 4.6 0 0 0-2.2-.1z"/><path class="cls-6" d="M39.5 45.6a24.6 24.6 0 0 1 3.7-.2l1.7.1h.8l-.7-.1a17 17 0 0 0-1.8-.4 15.5 15.5 0 0 0-3.8-.1A13.4 13.4 0 0 0 36 46a11.6 11.6 0 0 0-1.6.9 6.7 6.7 0 0 0-.6.4 11.7 11.7 0 0 1 2.3-1 19.5 19.5 0 0 1 3.5-.7zm35.2 6.2a7.3 7.3 0 0 0 3.9-1 3.8 3.8 0 0 1-2.2 2m1.8 1.3s1.4.4 3.4-1.3c0 0-1.2 2.1-2.4 2.7"/><path class="cls-6" d="M78.6 50.8a5 5 0 0 1-.8 1 3 3 0 0 1-1.4.8v.3a2.8 2.8 0 0 0 1.5-1 4.7 4.7 0 0 0 .7-1z"/><path class="cls-6" d="M78.6 50.8a4.7 4.7 0 0 1-1.5.7 10.1 10.1 0 0 1-2.4.2v.3a8.2 8.2 0 0 0 2.4-.4 4.5 4.5 0 0 0 1.5-.8zm3 2a11.7 11.7 0 0 1-.9 1.2 5 5 0 0 1-1.6 1.4l.1.2a4.5 4.5 0 0 0 1.6-1.5 10.6 10.6 0 0 0 .8-1.3z"/><path class="cls-6" d="M81.6 52.8l-.4.2a6.5 6.5 0 0 1-1 .6 3.6 3.6 0 0 1-2 .4l-.1.3a3.4 3.4 0 0 0 2.2-.6 6.3 6.3 0 0 0 1-.6z"/><path class="cls-24" d="M6.5 82a2.2 2.2 0 0 0-.7-.3c-1.6-.2-3 1.4-3.3 3.5a5 5 0 0 0 0 1.4c.7-2.2 1.9-4.2 4-4.7z"/><path class="cls-25" d="M3.8 88.8a2.2 2.2 0 0 0 1.1.5A2.8 2.8 0 0 0 7.5 88a5.4 5.4 0 0 1-3.7 1z"/><path class="cls-26" d="M8.2 85.3a4.6 4.6 0 0 0-.3-1.8A5.3 5.3 0 0 0 3.3 87a4 4 0 0 0-.3.9 3.5 3.5 0 0 0 .3.5 8.6 8.6 0 0 1 5-3z"/><path class="cls-27" d="M3.3 88.3a2.9 2.9 0 0 0 .5.6 5.4 5.4 0 0 0 3.7-1 4.8 4.8 0 0 0 .7-2 5.1 5.1 0 0 0 0-.6 8.6 8.6 0 0 0-5 3z"/><path class="cls-28" d="M3.3 86.9a5.3 5.3 0 0 1 4.6-3.4A3 3 0 0 0 6.5 82c-2.1.5-3.3 2.5-4 4.7a4.3 4.3 0 0 0 .5 1.2 4 4 0 0 1 .3-1z"/><path class="cls-6" d="M8 85.8a4.6 4.6 0 0 1-1 2.4 2.7 2.7 0 0 1-1.3 1 2 2 0 0 1-1.6-.3 3.5 3.5 0 0 1-1.5-2.4 5 5 0 0 1 0-1v-.3.3a5 5 0 0 0 0 1A3.6 3.6 0 0 0 4 89a2.3 2.3 0 0 0 1.8.3 3 3 0 0 0 1.5-1A4.9 4.9 0 0 0 8 83a3 3 0 0 0-1.3-1.3 2.3 2.3 0 0 0-1.8 0 3.6 3.6 0 0 0-2 2.2 5 5 0 0 0-.3 1v.2-.3A5 5 0 0 1 3 84a3.5 3.5 0 0 1 2-2 2 2 0 0 1 1.6 0 2.7 2.7 0 0 1 1 1.2 4.6 4.6 0 0 1 .5 2.6zm20.7 16.9a2.1 2.1 0 0 1 1.4 0 1.3 1.3 0 0 1 .8 1 2.6 2.6 0 0 1-.2 1.6 6.2 6.2 0 0 1-2.8 2.2 27.7 27.7 0 0 1-2.8 1.2l.3.8a18.3 18.3 0 0 0 2.8-1.3 12 12 0 0 0 1.6-1.1 4 4 0 0 0 1.3-1.7 3 3 0 0 0 .1-1.9 1.5 1.5 0 0 0-1-1 2.2 2.2 0 0 0-1.5.2zm47 4.3a4.5 4.5 0 0 0 .6 0 2.1 2.1 0 0 0 1.3-.7 3 3 0 0 0 .6-1.6 4.2 4.2 0 0 0 0-1.4l-.9.2a3.9 3.9 0 0 1 0 2.6 1.9 1.9 0 0 1-1 .8 4.9 4.9 0 0 1-.6.2zM14.8 86a9.3 9.3 0 0 0-.1-2.3 10.1 10.1 0 0 0-.4-1.5 11.6 11.6 0 0 1 .1 1.5 15.8 15.8 0 0 1 0 2.2A10.7 10.7 0 0 1 14 88a8.3 8.3 0 0 1-.5 1.4 7.5 7.5 0 0 0 .7-1.3 7.4 7.4 0 0 0 .6-2.2zm9.2.2a8.9 8.9 0 0 0 0-2.1 10.4 10.4 0 0 0-.4-1.4 12.3 12.3 0 0 1 .1 1.4 16.6 16.6 0 0 1-.2 2 9.9 9.9 0 0 1-.4 2 6.3 6.3 0 0 1-.5 1.3 5.8 5.8 0 0 0 .8-1.2 6.7 6.7 0 0 0 .6-2zm42.5-4.9A5.3 5.3 0 0 0 65 78a5.4 5.4 0 0 0-2-1.2 9.2 9.2 0 0 0-2.3-.5c-3.3-.3-6.8.7-10.1 1l-12.4 1 12.4-.7c3.4-.1 7-1 10-.7a8.6 8.6 0 0 1 2.2.5 4.7 4.7 0 0 1 1.7 1 4.6 4.6 0 0 1 1.2 3 7.8 7.8 0 0 1-.5 3.3 7 7 0 0 1-2.4 3.4 8 8 0 0 1-4.7 1c-1.7 0-3.4-.2-5-.3-3.4 0-6.5 0-8.8.2l-3.7.3s1.4-.2 3.7-.2l8.7.1c1.6 0 3.3.4 5 .4a8.5 8.5 0 0 0 5-1 7.7 7.7 0 0 0 3-3.6 8.2 8.2 0 0 0 .6-3.7zM35.3 51.8a5.3 5.3 0 0 1-3.2-1.5s.8 2.3 2 2.8"/><path class="cls-6" d="M32 50.3a8 8 0 0 0 .6 1.4 3.5 3.5 0 0 0 1.5 1.6l.1-.3a3.7 3.7 0 0 1-1.5-1.4 8.7 8.7 0 0 1-.6-1.3z"/><path class="cls-6" d="M32 50.3a4 4 0 0 0 1.2 1 5.5 5.5 0 0 0 2.1.7v-.3a6.4 6.4 0 0 1-2-.5 4 4 0 0 1-1.2-1z"/><g class="cls-29"><path class="cls-31" d="M116.2 96.4a27.4 27.4 0 0 0-1.2-5.8 27 27 0 0 0-2.1-5l-1.4-2.2-1.3-2-2.2-3.9a25.3 25.3 0 0 1-2.4-6.5 13.2 13.2 0 0 1-.2-1.3l-.1-.6v-2.4a30.9 30.9 0 0 1 1-7.7c.7-2.6 1.6-5.2 2.3-8a32.3 32.3 0 0 0 .7-4 18.4 18.4 0 0 0 0-4 13.5 13.5 0 0 0-.9-3.5l-.3-.8-.5-.8-.2-.4-.1-.2-.2-.2V37a5 5 0 0 0 .6 0 8.3 8.3 0 0 0 1 .2 6.1 6.1 0 0 0 1.8-.2 4.4 4.4 0 0 0 1.5-.7 4 4 0 0 0 .9-1 5.1 5.1 0 0 0 .3-.5l.2-.5.2-.4v-.3l.2-.5v-.2l-.5.5.2-.2.3-.3-.3.3-.3.3-.5.5a5.5 5.5 0 0 1-1.5.9 3 3 0 0 1-2.2.1 5.7 5.7 0 0 1-2.2-1.6A16 16 0 0 1 105 31c-1.2-2-2.2-4.1-3.3-6.4l-.8-1.7a14.4 14.4 0 0 0-1-1.7 22.2 22.2 0 0 0-2.5-3.1 24.8 24.8 0 0 0-6-4.7A21.9 21.9 0 0 0 85 11a22.1 22.1 0 0 0-5.2-.4 3.2 3.2 0 0 0-.3-1 6.9 6.9 0 0 0-2-2.3 12.8 12.8 0 0 0-2.7-1.6 12.2 12.2 0 0 0-2.6-.8H70a13.6 13.6 0 0 0-4.8 1 14.3 14.3 0 0 0-2.7 1.4l-.6.5-.6.5-.3.2-.2.3a1.4 1.4 0 0 1-.2 0 3 3 0 0 1-.8-1.2 3 3 0 0 1-.2-1.3 5.9 5.9 0 0 1 .7-2.2 10 10 0 0 1 .8-1.4l.4-.4-.8.3a10.7 10.7 0 0 0-1.6 1 7.4 7.4 0 0 0-1.7 1.7 5.5 5.5 0 0 0-.7 1.8 5.9 5.9 0 0 0-.2 1.9 8 8 0 0 0 .6 2.3A10 10 0 0 0 58 13a7.4 7.4 0 0 0 .5.7l-.7-.4-.8-.4-1.1-.5a20 20 0 0 0-6.7-1.4 18.5 18.5 0 0 0-7.8 1.6A20 20 0 0 0 36 16a24.2 24.2 0 0 0-1.9 2l-2 3-2.2 3.2a19.3 19.3 0 0 1-2.5 3 9.9 9.9 0 0 1-1.5 1.2 6.9 6.9 0 0 1-1.6.7 6.4 6.4 0 0 1-3 0 9.2 9.2 0 0 1-1.2-.3c-.3 0-.6-.2-.8-.3l-.7-.3a6.5 6.5 0 0 0 .4.5 9.1 9.1 0 0 0 1.1 1.5 8 8 0 0 0 2.3 1.6 6.8 6.8 0 0 0 3.5.6h.8v.2h-.1v.2l-.3.4-.6.8-2.7 3.2a29.7 29.7 0 0 0-2.6 3.3A13.9 13.9 0 0 0 18 47a10.4 10.4 0 0 0 .6 4.5 18.3 18.3 0 0 0 1.4 2.6 11.6 11.6 0 0 1 1.3 2.6 3.4 3.4 0 0 1 .1 1.5 3.3 3.3 0 0 1-.6 1.3l-.2.3-.2.2-.7.7a14.8 14.8 0 0 0-1.2 1.6 18.7 18.7 0 0 0-1.8 3.5 13.3 13.3 0 0 0-1 4 7 7 0 0 0 .2 2.3 4.5 4.5 0 0 0 1.1 2 4.9 4.9 0 0 0 2.1 1.2 7.3 7.3 0 0 0 1.1.2h1v1.7a10.4 10.4 0 0 1-.2 2.2 11.5 11.5 0 0 1-.9 2.6l-2-.2-8.2-.3-3.7-.2a2.3 2.3 0 0 0-1.7 0 3 3 0 0 0-1.3 1 4.3 4.3 0 0 0-.7 1.3 5 5 0 0 0-.2.9v.6a5 5 0 0 0 0 1 4.3 4.3 0 0 0 .4 1.3 3 3 0 0 0 1 1.3 2.3 2.3 0 0 0 1.8.3h.2l3.3.3 6.3.1-1.1 2a16.2 16.2 0 0 0-1 2.2 10 10 0 0 0-.5 2.4 16.8 16.8 0 0 0 .2 4.8 18 18 0 0 0 1.5 4.4 11.4 11.4 0 0 0 2.8 3.8 6.5 6.5 0 0 0 4.3 1.7 6.6 6.6 0 0 0 2.2-.6l1.6-.7 1.3-.6a7 7 0 0 1 .9-.3 12 12 0 0 1 1.9-.2 16.3 16.3 0 0 1 3.7.2c2.4.4 4.5 1.5 6.6 2.2a16.3 16.3 0 0 0 5.9.8 26 26 0 0 0 4.5-.6l2.7-.7 7.7-2.4a25.5 25.5 0 0 1 8-1.2 19.7 19.7 0 0 1 3.1.5 4.3 4.3 0 0 0 .7 1 5.7 5.7 0 0 0 1.6 1.3 9.3 9.3 0 0 0 1.9.7 12.2 12.2 0 0 0 1.9.4h2a16.9 16.9 0 0 0 3.7-.7 66.4 66.4 0 0 0 6.9-3 30.2 30.2 0 0 1 3.4-1.2 8.3 8.3 0 0 1 3.3-.4 14.4 14.4 0 0 1 3.4.9l3.3 1.2a13.3 13.3 0 0 0 3.5.7h1.8a2.7 2.7 0 0 0 .4-.1l.4-.1a6.6 6.6 0 0 0 .9-.2 7.6 7.6 0 0 0 3-1.9 8 8 0 0 0 1.8-2.8 12 12 0 0 0 .7-3.2 18.9 18.9 0 0 0 0-3.3zM6.5 81.5l.4.2z"/></g><path class="cls-32" d="M150.9 39.2l-1.3 9.2-3.2-.4 1.3-9.3-3-.3.4-2.7 9 1.2-.3 2.7zm15.1-.7l-1.6 11.9-3.2-.4.6-4.8-3.7-.5-.7 4.8-3.2-.5 1.6-11.9 3.2.5-.6 4.4 3.8.5.6-4.4zm8.4 10.5l-.4 2.6-7-.9 1.6-11.9 7 1-.4 2.6-3.8-.5-.3 1.8 3.6.5-.3 2.6-3.6-.5-.3 2.2zm10.2-.5l-.5 4.5-3.2-.4 1.6-11.9 7 1-.4 2.5-3.8-.5-.3 2.3 3.5.5-.3 2.5zm8.4 5.7l-3.1-.5 1.5-11.8 3.3.4zm10-4.6l3.3 6.3-3.7-.5-1.8-4-2.8 3.4-3.6-.4 4.7-5.6-3-6.3 3.6.5 1.7 4 2.5-3.4 3.7.5zm9.4 3.1l-4.6-.6.3-2.5 4.6.6zm10.1-6.7l3.2.4-1 7.2A4.8 4.8 0 0 1 223 57a5.2 5.2 0 0 1-4 .8 5.3 5.3 0 0 1-3.6-1.8 4.8 4.8 0 0 1-.8-3.8l1-7.2 3.2.5-.9 7a3 3 0 0 0 .2 1.8 1.7 1.7 0 0 0 1.4.8 1.7 1.7 0 0 0 1.4-.4 3 3 0 0 0 .7-1.7zm9.8 1.3a5 5 0 0 1 3.3 1.4 3.6 3.6 0 0 1 .7 3 4 4 0 0 1-1.5 2.8 4.8 4.8 0 0 1-3.5.7l-.9-.1-.5 3.9-3.2-.4 1.5-11.9zm-1.2 2.5l-.4 2.7h.6a1.6 1.6 0 0 0 1.2-.2 1.5 1.5 0 0 0 .6-1q.2-1.3-1.2-1.4zm-97.7 7a4.3 4.3 0 0 1 1.4-3 4.5 4.5 0 0 1 5.7.8 4.3 4.3 0 0 1 .6 3.2 4.3 4.3 0 0 1-1.4 2.9 4.5 4.5 0 0 1-5.7-.8 4.3 4.3 0 0 1-.6-3.1zm4.2-1.8q-1.6-.2-2 2t1.3 2.6a1.4 1.4 0 0 0 1.3-.4 4.1 4.1 0 0 0 .5-3.5 1.4 1.4 0 0 0-1.1-.7zm6.9 4.4l-.4 2.8-2.1-.3 1-7.9 2.6.3q3.2.5 3 2.8a2.4 2.4 0 0 1-1.7 2l1.8 3.8-2.4-.4-1.3-3zm.5-3.5l-.3 1.8h.4q1.2.2 1.3-.8.1-.8-1-1zm7.3 2.1a1 1 0 0 1-.4.7 1.2 1.2 0 0 1-.9.2 1.2 1.2 0 0 1-.8-.4 1.1 1.1 0 0 1 .2-1.5 1.2 1.2 0 0 1 1-.2 1.2 1.2 0 0 1 .7.4 1 1 0 0 1 .2.8zm-.6 4.3a1 1 0 0 1-.4.7 1.2 1.2 0 0 1-.8.2 1.2 1.2 0 0 1-.8-.4 1.1 1.1 0 0 1 .2-1.6 1.2 1.2 0 0 1 .8-.1 1.2 1.2 0 0 1 .8.4 1 1 0 0 1 .2.8zm9.6 2.2l-5.1-.7 1-7.9 2 .3-.7 6.2 3 .4zm6.2-1l-.2 1.8-4.7-.6 1-8 4.7.7-.2 1.7-2.6-.4-.1 1.3 2.4.3-.3 1.7-2.3-.3-.2 1.5zm8.4 2.9l-2.4-.3-.2-1.5-2.5-.4-.6 1.5-2.4-.4 3.7-7.6 2.8.4zm-4.5-3.9l1.7.3-.4-3.6q-.2.8-1.3 3.3zm7.9 1.5l-.4 2.8-2.2-.3 1-7.9 2.6.4q3.3.4 3 2.7a2.4 2.4 0 0 1-1.7 2l1.9 3.8-2.5-.3-1.2-3.2zm.4-3.5l-.2 1.8h.4q1 .2 1.2-.8.1-.8-1-1zm13.1.1l-1 8-2.8-.4-2.2-6-.1 2-.5 3.5-1.9-.2 1-8 2.8.4 2.2 6q0-1.3.2-2l.4-3.6zm8.2 2.9l-.8 6.1-2.2-.3.8-6.1-2-.3.3-1.7 6 .8-.2 1.7zm2.2 2.5a4.3 4.3 0 0 1 1.4-2.9 4.5 4.5 0 0 1 5.8.8 5.3 5.3 0 0 1-.9 6 4.5 4.5 0 0 1-5.7-.7 4.3 4.3 0 0 1-.6-3.2zm4.2-1.8q-1.6-.2-2 2t1.4 2.6a1.4 1.4 0 0 0 1.3-.4 4.1 4.1 0 0 0 .4-3.5 1.4 1.4 0 0 0-1.1-.7zm12.8 8.1l-5.2-.7 1-8 2.1.4-.8 6.2 3 .4zm1.3-3.9a4.3 4.3 0 0 1 1.4-2.9 4.5 4.5 0 0 1 5.7.8 5.3 5.3 0 0 1-.8 6 4.5 4.5 0 0 1-5.7-.7 4.3 4.3 0 0 1-.6-3.2zm4.2-1.8q-1.6-.2-2 2.1t1.3 2.5a1.4 1.4 0 0 0 1.3-.4 4.1 4.1 0 0 0 .4-3.5 1.4 1.4 0 0 0-1-.7zm7.6 5.4a12.4 12.4 0 0 1 .5-1.9l1.7-3.8 2.4.3-3.7 7.5-2.5-.3-1.5-8.2 2.4.3.5 4.1a12.4 12.4 0 0 1 .2 2zm9.3 1.5l-.2 1.7-4.7-.6 1-8 4.7.7-.2 1.7-2.6-.3-.1 1.2 2.3.3-.2 1.8-2.3-.3-.2 1.5zm-107.6 2l-2.1-.2 1-8 2.1.3zm9.2-2.3l.4-2.2-2.4 5.5-2-.3-.8-5.9-.2 2.3-.6 3.4-1.9-.3 1-7.9 2.9.4.9 5.9 2.3-5.4 2.9.3-1 8-2-.3zm10.4 4.9l-2.3-.3-.2-1.5-2.6-.3-.6 1.4-2.3-.3 3.6-7.6 2.9.4zm-4.4-3.8l1.7.2-.4-3.5-1.3 3.3zm8.6 1.4l.2-1.7 3.4.5-.5 4.2a9.4 9.4 0 0 1-3.2 0 3.7 3.7 0 0 1-2.7-1.4 4.2 4.2 0 0 1-.6-3 4 4 0 0 1 1.6-3 4.2 4.2 0 0 1 3.2-.6 6.3 6.3 0 0 1 2.5.8l-.9 1.6a4.1 4.1 0 0 0-1.8-.6 1.9 1.9 0 0 0-1.5.4 2.6 2.6 0 0 0-.8 1.6 2.7 2.7 0 0 0 .2 1.8 1.6 1.6 0 0 0 1.3.8 3.6 3.6 0 0 0 .9 0l.2-1.3zm9.6 2.5l-.3 1.7-4.6-.6 1-8 4.7.7-.2 1.7-2.6-.3-.1 1.2 2.3.4-.2 1.7-2.4-.4-.2 1.5zm4.6-1.7a4.3 4.3 0 0 1 1.4-2.9 4.5 4.5 0 0 1 5.7.8 5.3 5.3 0 0 1-.8 6 4.5 4.5 0 0 1-5.7-.7 4.3 4.3 0 0 1-.6-3.2zm4.2-1.8q-1.6-.2-2 2.1t1.3 2.5a1.4 1.4 0 0 0 1.3-.4 3.1 3.1 0 0 0 .6-1.7 3.1 3.1 0 0 0-.1-1.8 1.4 1.4 0 0 0-1.2-.7zm8.2-.5a3.4 3.4 0 0 1 2.1.9 2.4 2.4 0 0 1 .5 2 2.6 2.6 0 0 1-1 1.9 3.2 3.2 0 0 1-2.3.4h-.6l-.4 2.6-2.1-.3 1-7.9zm-.9 1.6l-.2 1.8h.4a1 1 0 0 0 .8-.1 1 1 0 0 0 .4-.7q0-.8-.8-1zm8.4 1.2l-.8 6-2.2-.2.8-6.2-1.9-.2.2-1.8 6 .8-.2 1.8zm4.4 6.8l-2.2-.3 1-8 2.2.4zm9.2-2.3q0-.7.4-2.3l-2.4 5.5-2-.2-.8-6-.2 2.3-.5 3.5-2-.3 1-8 2.9.5.9 5.8L206 77l2.9.4-1 7.9-2-.3zm5.3 4.2l-2.1-.3 1-7.9 2.1.3zm7.6-.7l-.2 1.7-6.2-.8.2-1.4 4-4.4-3.3-.4.2-1.7 6 .8-.1 1.3-4 4.4zm5.9.7l-.3 1.8-4.7-.7 1-7.9 4.7.6-.2 1.8-2.6-.4-.1 1.3 2.3.3-.2 1.7-2.4-.3-.2 1.5zm3.7-.7l-.4 2.9-2.2-.3 1-8 2.6.4q3.3.5 3 2.8a2.4 2.4 0 0 1-1.7 2l1.9 3.8-2.5-.4-1.3-3zm.4-3.4l-.2 1.8h.4q1 .2 1.2-.8.1-.8-1-1zm4.5 4.7a6.2 6.2 0 0 0 1.2.7 4.7 4.7 0 0 0 1.1.3 1.3 1.3 0 0 0 .8 0 .5.5 0 0 0 .3-.5.5.5 0 0 0-.1-.3 1.2 1.2 0 0 0-.2-.3q-.2 0-1-.6a5.5 5.5 0 0 1-1.2-.9 2.2 2.2 0 0 1-.5-1.8 2 2 0 0 1 1-1.6 3.5 3.5 0 0 1 2.3-.4 6.2 6.2 0 0 1 2.4 1l-.9 1.5a4.8 4.8 0 0 0-1.8-.8 1 1 0 0 0-.6.1.4.4 0 0 0-.3.3.5.5 0 0 0 .2.5 8.8 8.8 0 0 0 1.2.8 3.7 3.7 0 0 1 1.3 1.2 2.1 2.1 0 0 1 .3 1.4 2.2 2.2 0 0 1-1.1 1.7 3.4 3.4 0 0 1-2.3.4 6.6 6.6 0 0 1-1.3-.3 5 5 0 0 1-1-.5z"/><path class="cls-33" d="M245.5 50c-2.3-.9-4.3.9-5.2 1.9a4 4 0 0 0-.7 1c2-3 6.4-4 8.8-.7a5 5 0 0 0-2.9-2.2z"/><path class="cls-34" d="M243 53.3a3.5 3.5 0 0 1 1.6-1 1 1 0 0 0-.4 0c-2 .4-3 2.9-2.1 4.8a4.5 4.5 0 0 1 0-1 3.7 3.7 0 0 1 .9-2.8zm-3.2 8.2c.2.4.5 1 1 1.6 1.6 2 5 3 7 2.8h.4a10.3 10.3 0 0 1-8.4-4.4zm7.4-2.2a1.6 1.6 0 0 1 .8-1.6 2.8 2.8 0 0 0 .7-.6 1.4 1.4 0 0 0 .1-.2 6.5 6.5 0 0 1-.9.5 1.8 1.8 0 0 0-.6 2.6 3.6 3.6 0 0 0 .9.9 2 2 0 0 1-1-1.6zm4.5 0a6.7 6.7 0 0 1-1.5 1.8h-.1a.8.8 0 0 0 .5-.1 3.6 3.6 0 0 0 1.5-3.2 2.7 2.7 0 0 1-.4 1.5zm-6-3.7a2.3 2.3 0 0 0-.6 1 1.8 1.8 0 0 1-.3.8 1.3 1.3 0 0 1-.4.2.8.8 0 0 0 .8-.6c.2-1 1.2-1.7 1.3-2.8a2 2 0 0 0 0-.7 2.9 2.9 0 0 1-.8 2zm.3 4.1a2 2 0 0 1 .1 1.2v.2a1 1 0 0 0-.1-1.4z"/><path class="cls-33" d="M254.6 56.2a3.9 3.9 0 0 0-2-2.2 5.5 5.5 0 0 0-1.7-.3 6.3 6.3 0 0 1 3.7 2.5z"/><path class="cls-34" d="M254.7 60a13.2 13.2 0 0 1-5.9 5.8 8.3 8.3 0 0 0 4.8-3.4 7.3 7.3 0 0 0 1-2.4z"/><path class="cls-33" d="M247.5 61.7a4.2 4.2 0 0 1 2.7 1.4 3 3 0 0 0-2.7-1.4zm-1 .9a36.9 36.9 0 0 1-3.8-2.1c1.4 1.5 3.5 2 4.6 3.7a1.7 1.7 0 0 0-.8-1.6z"/><path class="cls-35" d="M254.7 60a9.3 9.3 0 0 0 0-3 3.1 3.1 0 0 0 0-.8 6.3 6.3 0 0 0-3.8-2.5 15.3 15.3 0 0 0-1.8 0 11.5 11.5 0 0 0-.7-1.4c-2.4-3.2-6.8-2.2-8.8.7a10 10 0 0 0-.7 3 8.5 8.5 0 0 1-.1.9 3.5 3.5 0 0 0 .1.8c-.2 0-.4.3-.5.4-.8.6-.4 1.5.3 2a3.2 3.2 0 0 0 .4.2 5.6 5.6 0 0 0 .7 1.3 10.3 10.3 0 0 0 8.4 4.3 6.2 6.2 0 0 0 .7-.1 13.2 13.2 0 0 0 5.8-5.8zm-.6-3.3a5 5 0 0 0-3.1-2.3c1.4.2 3 1 3.1 2.4zm-6.2.7a6.5 6.5 0 0 0 .9-.5c.1-.3.2-.6.5-.8a1.7 1.7 0 0 1 1.8.2 1.8 1.8 0 0 1 1 1.5 3.6 3.6 0 0 1-1.5 3.2.8.8 0 0 1-.5.2c-.5.3-1 .2-1.5 0a3.2 3.2 0 0 1-.4-.3 3.6 3.6 0 0 1-1-.8 1.8 1.8 0 0 1 .7-2.7zm-3.1 1.9a1.6 1.6 0 0 1 .4-.1.8.8 0 0 1 .8.5 1 1 0 0 1 0 1.4.3.3 0 0 1-.2.3c-.3 0-1.1-.4-1.4-.5s-1.1-.5-1.3-1c-.2 0-.3-.2-.2-.3.2-.8 1.2-.4 1.9-.3zm-.6-7a1 1 0 0 1 .4 0h.2a1.8 1.8 0 0 1 1.6 1 1.6 1.6 0 0 1 0 .2 2 2 0 0 1 .1.7c-.1 1.1-1.1 1.8-1.4 2.8a.8.8 0 0 1-.7.6 2.8 2.8 0 0 1-1.7.3c-.4 0-.6-.4-.6-.8-.8-1.9.1-4.4 2.1-4.8zm-3.7 5.5c.8.2 1.8.4 2 1.2a3.4 3.4 0 0 0-2-1.2zm2.2 2.7a36.9 36.9 0 0 0 3.8 2.2 1.7 1.7 0 0 1 .8 1.5c-1-1.7-3.2-2.2-4.6-3.7zm4.8 1.2a3 3 0 0 1 2.7 1.5 4.2 4.2 0 0 0-2.7-1.5z"/><path class="cls-33" d="M240.5 57.8a3.4 3.4 0 0 1 2 1.2c-.2-.8-1.2-1-2-1.2zm13.6-1c-.2-1.5-1.7-2.2-3.2-2.4a5 5 0 0 1 3.2 2.4z"/><path class="cls-34" d="M243.2 59.5c.1-.2.5-.2.7-.2a4.5 4.5 0 0 0 .7 0h.2c-.7 0-1.7-.5-2 .3l.3.4a.5.5 0 0 1 0-.5zm-4.8-1.5l.5-.3a3.5 3.5 0 0 1-.1-.9 6.9 6.9 0 0 1-.2.8 1.2 1.2 0 0 0-.9 1.9 1.4 1.4 0 0 0 1 .6c-.7-.6-1.2-1.5-.3-2z"/><g class="cls-36"><path class="cls-37" d="M243.2 50.2a1 1 0 0 0-.2 0v.3h.3a2.2 2.2 0 0 0 0-.3z"/><path class="cls-38" d="M243.1 50.2a1 1 0 0 0-.2 0v.3h.2a.5.5 0 0 0 0-.3z"/><path class="cls-39" d="M243.2 50.2a.5.5 0 0 1-.1.3h-.3.3a2.2 2.2 0 0 0 .1-.3z"/></g><g class="cls-36"><path class="cls-37" d="M241.8 52.8a1 1 0 0 0-.2 0v.2h.3a2.2 2.2 0 0 0 0-.3z"/><path class="cls-38" d="M241.7 52.7a1 1 0 0 0-.2 0v.3c0 .1.1 0 .2 0a.5.5 0 0 0 0-.3z"/><path class="cls-39" d="M241.8 52.7a.5.5 0 0 1-.1.3h-.3.3a2.2 2.2 0 0 0 .1-.3z"/></g><g class="cls-36"><path class="cls-37" d="M246 50.3a.8.8 0 0 0-.3 0v.3h.3a1.9 1.9 0 0 0 0-.3z"/><path class="cls-38" d="M245.9 50.3a.8.8 0 0 0-.2 0v.2c0 .1.1 0 .2 0a.4.4 0 0 0 0-.2z"/><path class="cls-39" d="M246 50.3h-.1a.4.4 0 0 1 0 .3h-.2.2a1.9 1.9 0 0 0 0-.3z"/></g><g class="cls-36"><path class="cls-37" d="M246.2 58.2a1 1 0 0 0-.3 0v.3h.3a2.2 2.2 0 0 0 0-.3z"/><path class="cls-38" d="M246.1 58.2a1 1 0 0 0-.2 0v.3c0 .2.1 0 .2 0a.5.5 0 0 0 0-.3z"/><path class="cls-39" d="M246.2 58.2h-.1a.5.5 0 0 1 0 .3h-.3.3a2.2 2.2 0 0 0 0-.3z"/></g><g class="cls-36"><path class="cls-37" d="M248.6 55.9a.7.7 0 0 0-.2 0v.2h.2a1.7 1.7 0 0 0 0-.3z"/><path class="cls-38" d="M248.5 55.8a.7.7 0 0 0-.2 0v.2h.2a.4.4 0 0 0 0-.2z"/><path class="cls-39" d="M248.5 55.8a.4.4 0 0 1 0 .2h-.2.2a1.7 1.7 0 0 0 0-.2z"/></g><g class="cls-36"><path class="cls-37" d="M246.3 55.4a.8.8 0 0 0-.3 0v.2h.3a1.8 1.8 0 0 0 0-.2z"/><path class="cls-38" d="M246.2 55.3a.8.8 0 0 0-.2 0v.3h.2a.4.4 0 0 0 0-.3z"/><path class="cls-39" d="M246.3 55.4a.4.4 0 0 1 0 .2h-.3.3a1.8 1.8 0 0 0 0-.3z"/></g><g class="cls-36"><path class="cls-37" d="M247.8 53a1 1 0 0 0-.3 0v.3h.3a2.2 2.2 0 0 0 0-.3z"/><path class="cls-38" d="M247.7 53a1 1 0 0 0-.3 0v.3h.3a.5.5 0 0 0 0-.3z"/><path class="cls-39" d="M247.8 53h-.1a.5.5 0 0 1 0 .3h-.3.3a2.2 2.2 0 0 0 0-.3z"/></g><g class="cls-36"><path class="cls-37" d="M251.7 54.8a.5.5 0 0 0-.2 0v.2h.2a1.3 1.3 0 0 0 0-.2z"/><path class="cls-38" d="M251.6 54.8a.5.5 0 0 0-.1 0v.2h.1a.3.3 0 0 0 0-.2z"/><path class="cls-39" d="M251.7 54.8a.3.3 0 0 1 0 .2h-.2.2a1.3 1.3 0 0 0 0-.2z"/></g><g class="cls-36"><path class="cls-37" d="M254.1 58.5a1 1 0 0 0-.3 0v.3h.3a2.2 2.2 0 0 0 0-.3z"/><path class="cls-38" d="M254 58.5a1 1 0 0 0-.3 0v.2h.3a.5.5 0 0 0 0-.3z"/><path class="cls-39" d="M254 58.5a.5.5 0 0 1 0 .2h-.3.3a2.2 2.2 0 0 0 0-.2z"/></g><g class="cls-36"><path class="cls-37" d="M253.7 56.3h-.1a.8.8 0 0 0-.2 0v.3h.2a2 2 0 0 0 0-.3z"/><path class="cls-38" d="M253.6 56.3a.8.8 0 0 0-.3 0v.3c0 .2.2 0 .3 0a.4.4 0 0 0 0-.3z"/><path class="cls-39" d="M253.6 56.3a.4.4 0 0 1 0 .3h-.3.3a2 2 0 0 0 0-.3z"/></g><g class="cls-36"><path class="cls-37" d="M252.6 61.4a1 1 0 0 0-.3 0v.3h.3a2.2 2.2 0 0 0 0-.3z"/><path class="cls-38" d="M252.5 61.4a1 1 0 0 0-.2 0v.2c0 .1.1 0 .2 0a.5.5 0 0 0 0-.3z"/><path class="cls-39" d="M252.6 61.4a.5.5 0 0 1-.1.2h-.3.3a2.2 2.2 0 0 0 0-.2z"/></g><g class="cls-36"><path class="cls-37" d="M249.7 64a1 1 0 0 0-.2 0v.3h.3a2.2 2.2 0 0 0 0-.3z"/><path class="cls-38" d="M249.6 64a1 1 0 0 0-.2 0v.3h.2a.5.5 0 0 0 0-.3z"/><path class="cls-39" d="M249.7 64a.5.5 0 0 1-.1.3h-.3.3a2.2 2.2 0 0 0 .1-.3z"/></g><g class="cls-36"><path class="cls-37" d="M247.4 61.1a.5.5 0 0 0-.1 0v.2h.1a1.3 1.3 0 0 0 0-.2z"/><path class="cls-38" d="M247.4 61a.5.5 0 0 0-.2 0v.2h.2a.3.3 0 0 0 0-.1z"/><path class="cls-39" d="M247.4 61a.3.3 0 0 1 0 .3h-.1.1a1.3 1.3 0 0 0 0-.2z"/></g><g class="cls-36"><path class="cls-37" d="M250 61.5a.5.5 0 0 0-.1 0v.1h.1a1.3 1.3 0 0 0 0-.1z"/><path class="cls-38" d="M250 61.5a.5.5 0 0 0-.1 0v.1c0 .1 0 0 .1 0a.3.3 0 0 0 0-.1z"/><path class="cls-39" d="M250 61.5a.3.3 0 0 1 0 .1h-.1.1a1.3 1.3 0 0 0 0-.1z"/></g><g class="cls-36"><path class="cls-37" d="M246.4 65a.8.8 0 0 0-.3 0v.3h.3a1.9 1.9 0 0 0 0-.2z"/><path class="cls-38" d="M246.3 65a.8.8 0 0 0-.2 0v.3h.2a.4.4 0 0 0 0-.3z"/><path class="cls-39" d="M246.4 65a.4.4 0 0 1 0 .3h-.3.3a1.9 1.9 0 0 0 0-.2z"/></g><g class="cls-36"><path class="cls-37" d="M244.6 62.2a.9.9 0 0 0-.3 0v.3h.3a2.1 2.1 0 0 0 0-.3z"/><path class="cls-38" d="M244.5 62.2a.9.9 0 0 0-.3 0v.2h.3a.5.5 0 0 0 0-.2z"/><path class="cls-39" d="M244.6 62.2h-.1a.5.5 0 0 1 0 .3h-.3.3a2.1 2.1 0 0 0 0-.3z"/></g><g class="cls-36"><path class="cls-37" d="M242 61.8a1 1 0 0 0-.3 0v.3h.4a2.2 2.2 0 0 0-.1-.3z"/><path class="cls-38" d="M242 61.8a1 1 0 0 0-.3 0v.3h.3a.5.5 0 0 0 0-.3z"/><path class="cls-39" d="M242 61.8a.5.5 0 0 1-.1.3h-.3.3a2.2 2.2 0 0 0 .1-.3z"/></g><g class="cls-36"><path class="cls-37" d="M243.1 64a.6.6 0 0 0-.1 0v.2h.2a1.4 1.4 0 0 0 0-.2z"/><path class="cls-38" d="M243 64v.1c0 .1 0 0 0 0a.3.3 0 0 0 0-.1z"/><path class="cls-39" d="M243.1 64a.3.3 0 0 1 0 .2h-.2.2a1.4 1.4 0 0 0 0-.2z"/></g><g class="cls-36"><path class="cls-37" d="M247 63.2a.6.6 0 0 0-.2 0v.1h.2a1.4 1.4 0 0 0 0-.1z"/><path class="cls-38" d="M247 63.1a.6.6 0 0 0-.2 0v.2c0 .1.1 0 .2 0a.3.3 0 0 0 0-.2z"/><path class="cls-39" d="M247 63.1a.3.3 0 0 1 0 .2h-.2.2a1.4 1.4 0 0 0 0-.1z"/></g><g class="cls-36"><path class="cls-37" d="M240.6 60.6a.6.6 0 0 0-.2 0v.2h.2a1.4 1.4 0 0 0 0-.1z"/><path class="cls-38" d="M240.5 60.6a.6.6 0 0 0-.2 0v.2c0 .1.1 0 .2 0a.3.3 0 0 0 0-.2z"/><path class="cls-39" d="M240.6 60.6a.3.3 0 0 1 0 .2h-.3.2a1.4 1.4 0 0 0 0-.2z"/></g><g class="cls-36"><path class="cls-37" d="M241.6 59a1 1 0 0 0-.3 0v.4h.3a2.2 2.2 0 0 0 0-.3z"/><path class="cls-38" d="M241.5 59a1 1 0 0 0-.3 0v.3h.3a.5.5 0 0 0 0-.3z"/><path class="cls-39" d="M241.6 59h-.1a.5.5 0 0 1 0 .4h-.3.3a2.2 2.2 0 0 0 0-.3z"/></g><g class="cls-36"><path class="cls-37" d="M242.6 58.2a1 1 0 0 0-.2 0v.3h.3a2.2 2.2 0 0 0 0-.3z"/><path class="cls-38" d="M242.6 58.2a1 1 0 0 0-.3 0v.3c0 .2.2 0 .3 0a.5.5 0 0 0 0-.3z"/><path class="cls-39" d="M242.6 58.2a.5.5 0 0 1-.1.3h-.3.3a2.2 2.2 0 0 0 .1-.3z"/></g><g class="cls-36"><path class="cls-37" d="M239.8 54.8a1 1 0 0 0-.2 0v.3h.3a2.2 2.2 0 0 0 0-.3z"/><path class="cls-38" d="M239.8 54.8a1 1 0 0 0-.3 0v.3c0 .2.2 0 .3 0a.5.5 0 0 0 0-.3z"/><path class="cls-39" d="M239.8 54.8a.5.5 0 0 1-.1.3h-.3.3a2.2 2.2 0 0 0 .1-.3z"/></g><g class="cls-36"><path class="cls-37" d="M239.7 57.6a1 1 0 0 0-.3 0v.3h.3a2.2 2.2 0 0 0 0-.3z"/><path class="cls-38" d="M239.6 57.6a1 1 0 0 0-.3 0v.3h.3a.5.5 0 0 0 0-.3z"/><path class="cls-39" d="M239.7 57.6h-.1a.5.5 0 0 1 0 .3h-.3.3a2.2 2.2 0 0 0 0-.3z"/></g><g class="cls-36"><path class="cls-37" d="M238.4 58.9a1 1 0 0 0-.3 0v.2h.3a2.2 2.2 0 0 0 0-.2z"/><path class="cls-38" d="M238.3 58.8a1 1 0 0 0-.3 0v.3h.3a.5.5 0 0 0 0-.3z"/><path class="cls-39" d="M238.4 58.9h-.1a.5.5 0 0 1 0 .2h-.3.3a2.2 2.2 0 0 0 0-.3z"/></g><path class="cls-33" d="M129.5 41c-1.9 1.4-1.5 4-1 5.2a3.9 3.9 0 0 0 .4 1c-1.4-3 0-7.1 3.9-7.5a4.8 4.8 0 0 0-3.3 1.2z"/><path class="cls-34" d="M131 44.6a3.3 3.3 0 0 1 0-1.8 1 1 0 0 0-.3.3c-.6 1.9 1 3.9 2.9 4.1a4.3 4.3 0 0 1-.9-.5 3.6 3.6 0 0 1-1.8-2.1zm5 6.8l1.9-.1c2.5-.3 4.9-2.6 5.8-4.3l.1-.3a9.9 9.9 0 0 1-7.7 4.7zm2-7.2a1.5 1.5 0 0 1-1-1.5 2.7 2.7 0 0 0-.2-.8 1.4 1.4 0 0 0 0-.2 6.2 6.2 0 0 1-.1 1 1.7 1.7 0 0 0 1.8 1.8 3.4 3.4 0 0 0 1.2-.3 2 2 0 0 1-1.7 0zm2.2-3.7a6.4 6.4 0 0 1 .7 2 1.6 1.6 0 0 1 0 .3.8.8 0 0 0 0-.5 3.5 3.5 0 0 0-1.8-2.9 2.6 2.6 0 0 1 1 1.1zm-6.1 3.1a2.2 2.2 0 0 0 .6 1 1.8 1.8 0 0 1 .5.6 1.3 1.3 0 0 1 0 .5.7.7 0 0 0-.2-1c-.7-.6-.8-1.8-1.6-2.5a2 2 0 0 0-.6-.3 2.8 2.8 0 0 1 1.3 1.7zm3.6 1.8a2 2 0 0 1 1 .4l.2.2c-.1-.5-.7-.7-1.2-.6z"/><path class="cls-33" d="M139 36.5a3.7 3.7 0 0 0-2.7.7 5.2 5.2 0 0 0-1.1 1.2 6 6 0 0 1 3.9-1.9z"/><path class="cls-34" d="M142.2 38.4a12.7 12.7 0 0 1 1.9 7.6 8 8 0 0 0-.4-5.6 7 7 0 0 0-1.5-2z"/><path class="cls-33" d="M140 45a4 4 0 0 1 2.6-1.4 2.8 2.8 0 0 0-2.5 1.5zm.4 1.4a35.4 35.4 0 0 1-3.7 2c1.9-.3 3.4-1.9 5.3-1.9a1.7 1.7 0 0 0-1.6-.1z"/><path class="cls-35" d="M142.2 38.4a9 9 0 0 0-2.4-1.6 3 3 0 0 0-.7-.3 6 6 0 0 0-4 1.9 14.7 14.7 0 0 0-.8 1.4 11 11 0 0 0-1.5-.1c-4 .4-5.3 4.4-3.9 7.5a9.6 9.6 0 0 0 2.2 2.1 8.2 8.2 0 0 1 .6.6 3.4 3.4 0 0 0 .8.3v.6c0 1 1 1 1.8.8a3 3 0 0 0 .3-.3 5.4 5.4 0 0 0 1.4 0 9.9 9.9 0 0 0 7.8-4.6 6 6 0 0 0 .2-.7 12.7 12.7 0 0 0-1.8-7.6zm-3-1.2a4.8 4.8 0 0 0-3.4 1.5c.8-1 2.2-2 3.5-1.5zm-2.5 5.5a6.2 6.2 0 0 0 0-1 1.7 1.7 0 0 1-.3-.9 1.6 1.6 0 0 1 1-1.3 1.7 1.7 0 0 1 1.7-.1 3.5 3.5 0 0 1 1.9 2.9.8.8 0 0 1 0 .5c0 .5-.4.8-.9 1.1a3 3 0 0 1-.4.3 3.4 3.4 0 0 1-1.1.3 1.7 1.7 0 0 1-1.9-1.8zm0 3.5a1.5 1.5 0 0 1 .1-.4.8.8 0 0 1 .9-.4c.5 0 1 .1 1.2.6a.3.3 0 0 1 0 .4c0 .3-.8.7-1 .9a2.9 2.9 0 0 1-1.5.6h-.4c-.5-.6.3-1.2.7-1.7zm-6-3a1 1 0 0 1 .2-.3v-.1a1.7 1.7 0 0 1 1.7-1l.2.2a2 2 0 0 1 .6.2c.8.7 1 1.9 1.6 2.6a.7.7 0 0 1 .2.9 2.7 2.7 0 0 1-.6 1.5.9.9 0 0 1-1 .1c-2-.3-3.5-2.3-2.9-4.2zm2.7 5.8c.5-.6 1.2-1.3 2-1a3.3 3.3 0 0 0-2 1zm3.3-.5a35.4 35.4 0 0 0 3.7-2 1.7 1.7 0 0 1 1.6.1c-2 0-3.4 1.5-5.3 1.8zM140 45a2.8 2.8 0 0 1 2.5-1.5A4 4 0 0 0 140 45z"/><path class="cls-33" d="M133.4 49a3.3 3.3 0 0 1 2-1c-.8-.3-1.5.4-2 1zm5.9-11.8c-1.3-.5-2.7.4-3.5 1.5a4.8 4.8 0 0 1 3.5-1.5z"/><path class="cls-34" d="M136 47.6l.3-.7a4.3 4.3 0 0 0 .4-.6 1 1 0 0 0 0-.1c-.4.5-1.2 1-.7 1.7h.4a.4.4 0 0 1-.3-.3zm-3.4 3.2v-.6a3.4 3.4 0 0 1-.8-.3 6.6 6.6 0 0 1 .5.5 1.2 1.2 0 0 0 1 1.7 1.4 1.4 0 0 0 1-.5c-.8.3-1.7.2-1.8-.8z"/><g class="cls-36"><path class="cls-37" d="M128.5 43a.9.9 0 0 0-.1.1l.2.2.2-.2a2.1 2.1 0 0 0-.3-.2z"/><path class="cls-38" d="M128.5 43a.9.9 0 0 0-.2.2l.2.2.2-.2a.5.5 0 0 0-.2-.2z"/><path class="cls-39" d="M128.5 43a.5.5 0 0 1 .2.2l-.1.2.1-.2a2.1 2.1 0 0 0-.2-.3z"/></g><g class="cls-36"><path class="cls-37" d="M129.9 45.3a.9.9 0 0 0-.1.2l.2.2.1-.2a2.1 2.1 0 0 0-.2-.2z"/><path class="cls-38" d="M129.8 45.4a.9.9 0 0 0-.1.2l.2.2.1-.2a.5.5 0 0 0-.2-.2z"/><path class="cls-39" d="M129.9 45.3v.1a.5.5 0 0 1 .1.2l-.1.2.2-.2a2.1 2.1 0 0 0-.2-.3z"/></g><g class="cls-36"><path class="cls-37" d="M130 40.8a.7.7 0 0 0-.1.1l.2.2.1-.2a1.8 1.8 0 0 0-.2-.1z"/><path class="cls-38" d="M130 40.8a.7.7 0 0 0-.2.2l.2.1V41a.4.4 0 0 0 0-.1z"/><path class="cls-39" d="M130 40.8a.4.4 0 0 1 .2.1l-.1.2.1-.2a1.8 1.8 0 0 0-.2-.1z"/></g><g class="cls-36"><path class="cls-37" d="M136.6 44.5a.9.9 0 0 0-.2.2l.2.1.2-.2a2.1 2.1 0 0 0-.2-.1z"/><path class="cls-38" d="M136.5 44.5a.9.9 0 0 0-.2.2l.3.2v-.2a.5.5 0 0 0-.1-.2z"/><path class="cls-39" d="M136.5 44.5a.5.5 0 0 1 .2.2l-.1.2.1-.2a2.1 2.1 0 0 0-.2-.2z"/></g><g class="cls-36"><path class="cls-37" d="M135.8 41.4a.7.7 0 0 0-.1.1l.1.1.2-.1a1.6 1.6 0 0 0-.2-.1z"/><path class="cls-38" d="M135.7 41.4a.7.7 0 0 0 0 .1v.2l.2-.2a.4.4 0 0 0-.2-.1z"/><path class="cls-39" d="M135.8 41.4a.4.4 0 0 1 .1.1v.1-.1a1.6 1.6 0 0 0-.1-.1z"/></g><g class="cls-36"><path class="cls-37" d="M134.3 43a.7.7 0 0 0-.1.2l.1.1.2-.2a1.8 1.8 0 0 0-.2-.1z"/><path class="cls-38" d="M134.2 43a.7.7 0 0 0-.1.2l.2.1v-.1a.4.4 0 0 0 0-.2z"/><path class="cls-39" d="M134.3 43a.4.4 0 0 1 .1.1v.2-.2a1.8 1.8 0 0 0-.2-.1z"/></g><g class="cls-36"><path class="cls-37" d="M133.1 40.6a.9.9 0 0 0-.1.2l.2.2.2-.3a2.1 2.1 0 0 0-.3-.1z"/><path class="cls-38" d="M133 40.6a.9.9 0 0 0-.1.2l.2.2c.2 0 0-.1.1-.2a.5.5 0 0 0-.2-.1z"/><path class="cls-39" d="M133 40.6a.5.5 0 0 1 .2.2v.2-.2a2.1 2.1 0 0 0-.1-.2z"/></g><g class="cls-36"><path class="cls-37" d="M136.5 38.3a.5.5 0 0 0 0 .1v.1l.1-.1a1.3 1.3 0 0 0-.1 0z"/><path class="cls-38" d="M136.4 38.3a.5.5 0 0 0 0 .2h.1a.3.3 0 0 0 0-.2z"/><path class="cls-39" d="M136.5 38.3a.3.3 0 0 1 .1.1v.1-.1a1.3 1.3 0 0 0-.1 0z"/></g><g class="cls-36"><path class="cls-37" d="M140.7 38.1a.9.9 0 0 0-.1.2l.2.2.1-.2a2.1 2.1 0 0 0-.2-.2z"/><path class="cls-38" d="M140.6 38.2a.9.9 0 0 0-.1.2l.2.2c.1.2 0-.2.1-.2a.5.5 0 0 0-.2-.2z"/><path class="cls-39" d="M140.7 38.1a.5.5 0 0 1 .1.3v.2-.3a2.1 2.1 0 0 0-.1-.2z"/></g><g class="cls-36"><path class="cls-37" d="M138.7 37.4a.8.8 0 0 0-.1.2l.2.1.1-.2a1.9 1.9 0 0 0-.2 0z"/><path class="cls-38" d="M138.6 37.5a.8.8 0 0 0 0 .1l.1.2.1-.2a.4.4 0 0 0-.2-.1z"/><path class="cls-39" d="M138.7 37.4a.4.4 0 0 1 .2.2l-.1.2.1-.2a1.9 1.9 0 0 0-.2-.2z"/></g><g class="cls-36"><path class="cls-37" d="M142.3 40.8a.9.9 0 0 0-.1.2l.2.2.2-.3a2.1 2.1 0 0 0-.3-.1z"/><path class="cls-38" d="M142.3 40.8a.9.9 0 0 0-.2.2l.2.2.2-.2a.5.5 0 0 0-.2-.2z"/><path class="cls-39" d="M142.3 40.8a.5.5 0 0 1 .2.2s0 .2-.2.2l.2-.2a2.1 2.1 0 0 0-.2-.2z"/></g><g class="cls-36"><path class="cls-37" d="M143 44.5a.9.9 0 0 0 0 .2l.1.1.2-.2a2.1 2.1 0 0 0-.2-.1z"/><path class="cls-38" d="M143 44.5a.9.9 0 0 0-.1.2l.2.2c.2.1 0-.1.1-.2a.5.5 0 0 0-.2-.2z"/><path class="cls-39" d="M143 44.5a.5.5 0 0 1 .2.2l-.1.2.2-.2a2.1 2.1 0 0 0-.3-.2z"/></g><g class="cls-36"><path class="cls-37" d="M139.5 44.9a.5.5 0 0 0 0 .1v.1l.2-.1a1.2 1.2 0 0 0-.2-.1z"/><path class="cls-38" d="M139.5 45v.1h.1a.3.3 0 0 0-.1-.2z"/><path class="cls-39" d="M139.5 44.9a.3.3 0 0 1 .1 0v.2-.1a1.2 1.2 0 0 0 0-.1z"/></g><g class="cls-36"><path class="cls-37" d="M141.2 43a.5.5 0 0 0-.1 0v.1h.2a1.2 1.2 0 0 0-.2-.2z"/><path class="cls-38" d="M141.1 43a.5.5 0 0 0 0 .1v.1l.1-.1a.3.3 0 0 0-.1-.1z"/><path class="cls-39" d="M141.1 43a.3.3 0 0 1 .2 0l-.1.1a1.2 1.2 0 0 0 0-.2z"/></g><g class="cls-36"><path class="cls-37" d="M142.3 47.7a.7.7 0 0 0-.1.2l.2.1.1-.2a1.8 1.8 0 0 0-.2-.1z"/><path class="cls-38" d="M142.2 47.7a.7.7 0 0 0 0 .2l.1.2.1-.2a.4.4 0 0 0-.2-.2z"/><path class="cls-39" d="M142.3 47.7a.4.4 0 0 1 .1.1v.2-.2a1.8 1.8 0 0 0-.1-.1z"/></g><g class="cls-36"><path class="cls-37" d="M139 47.8a.8.8 0 0 0-.1.2l.2.1.1-.2a2 2 0 0 0-.2-.1z"/><path class="cls-38" d="M139 47.8a.8.8 0 0 0-.2.2l.2.2c.1.1 0-.1.2-.2a.5.5 0 0 0-.3-.2z"/><path class="cls-39" d="M139 47.8a.5.5 0 0 1 .1.2v.2l.1-.2a2 2 0 0 0-.2-.2z"/></g><g class="cls-36"><path class="cls-37" d="M137.4 49.7a.9.9 0 0 0 0 .2l.1.1.2-.2a2.1 2.1 0 0 0-.3-.1z"/><path class="cls-38" d="M137.4 49.7a.9.9 0 0 0-.2.2l.3.2v-.2a.5.5 0 0 0-.1-.2z"/><path class="cls-39" d="M137.4 49.7a.5.5 0 0 1 .2.2l-.2.2.2-.2a2.1 2.1 0 0 0-.2-.2z"/></g><g class="cls-36"><path class="cls-37" d="M139.8 49.8a.6.6 0 0 0-.1.2h.2a1.4 1.4 0 0 0-.1-.2z"/><path class="cls-38" d="M139.7 49.9v.2l.1-.1a.3.3 0 0 0 0-.1z"/><path class="cls-39" d="M139.8 49.8a.3.3 0 0 1 0 .2h.1a1.4 1.4 0 0 0-.2-.2z"/></g><g class="cls-36"><path class="cls-37" d="M141 46.2a.6.6 0 0 0 0 .2h.2a1.4 1.4 0 0 0-.2-.2z"/><path class="cls-38" d="M141 46.3a.6.6 0 0 0 0 .1v.1l.1-.1a.3.3 0 0 0-.1-.1z"/><path class="cls-39" d="M141 46.2a.3.3 0 0 1 .1.2 1.4 1.4 0 0 0-.1-.2z"/></g><g class="cls-36"><path class="cls-37" d="M135.8 50.3a.6.6 0 0 0-.1.1l.1.1.1-.1a1.4 1.4 0 0 0-.1-.1z"/><path class="cls-38" d="M135.7 50.3a.6.6 0 0 0 0 .2h.1a.3.3 0 0 0 0-.2z"/><path class="cls-39" d="M135.7 50.3a.3.3 0 0 1 .2.1l-.1.1.1-.1a1.4 1.4 0 0 0-.2-.1z"/></g><g class="cls-36"><path class="cls-37" d="M135 48.7a.9.9 0 0 0-.1.2l.2.2.1-.3a2.1 2.1 0 0 0-.2-.1z"/><path class="cls-38" d="M135 48.7a.9.9 0 0 0-.2.2l.2.2.1-.2a.5.5 0 0 0-.2-.2z"/><path class="cls-39" d="M135 48.7a.5.5 0 0 1 .2.2l-.2.2.2-.2a2.1 2.1 0 0 0-.2-.2z"/></g><g class="cls-36"><path class="cls-37" d="M134.8 47.4a.9.9 0 0 0-.1.2l.2.2.1-.3a2.1 2.1 0 0 0-.2-.1z"/><path class="cls-38" d="M134.7 47.4a.9.9 0 0 0-.1.2l.2.2c.1.1 0-.1.1-.2a.5.5 0 0 0-.2-.2z"/><path class="cls-39" d="M134.8 47.4a.5.5 0 0 1 .1.2l-.1.2.2-.2a2.1 2.1 0 0 0-.2-.2z"/></g><g class="cls-36"><path class="cls-37" d="M130.6 48a.9.9 0 0 0-.1.2l.2.2.2-.3a2.1 2.1 0 0 0-.3-.1z"/><path class="cls-38" d="M130.5 48a.9.9 0 0 0-.1.2l.2.2.1-.2a.5.5 0 0 0-.2-.2z"/><path class="cls-39" d="M130.6 48a.5.5 0 0 1 .1.2v.2-.2a2.1 2.1 0 0 0-.1-.2z"/></g><g class="cls-36"><path class="cls-37" d="M132.8 49.5a.9.9 0 0 0 0 .2l.1.2.2-.2a2.1 2.1 0 0 0-.3-.2z"/><path class="cls-38" d="M132.8 49.6a.9.9 0 0 0-.2.2l.3.2v-.2a.5.5 0 0 0-.1-.2z"/><path class="cls-39" d="M132.8 49.5a.5.5 0 0 1 .2.3l-.2.2.2-.3a2.1 2.1 0 0 0-.2-.2z"/></g><g class="cls-36"><path class="cls-37" d="M133.2 51.2a.9.9 0 0 0-.1.2l.2.2.1-.3a2.1 2.1 0 0 0-.2-.1z"/><path class="cls-38" d="M133.1 51.3a.9.9 0 0 0-.1.2l.2.1c.1.1 0 0 .2-.2a.5.5 0 0 0-.3-.1z"/><path class="cls-39" d="M133.2 51.2a.5.5 0 0 1 .1.2v.2l.1-.2a2.1 2.1 0 0 0-.2-.2z"/></g><path class="cls-33" d="M182.3 83.4c-1.5 0-2.2 1.5-2.5 2.3a2.5 2.5 0 0 0-.1.8c.4-2.2 2.6-3.8 4.9-2.5a3.2 3.2 0 0 0-2.3-.6z"/><path class="cls-34" d="M181.7 85.9a2.2 2.2 0 0 1 .7-1 .6.6 0 0 0-.3.1 2.2 2.2 0 0 0 0 3.3 2.8 2.8 0 0 1-.2-.6 2.3 2.3 0 0 1-.2-1.8zm.2 5.5l1 .6a5.6 5.6 0 0 0 4.7 0l.2-.2a6.4 6.4 0 0 1-6-.4zm3.7-3.1a1 1 0 0 1 0-1.1 1.8 1.8 0 0 0 .3-.5.9.9 0 0 0 0-.2 4 4 0 0 1-.4.5 1.1 1.1 0 0 0 .3 1.7 2.2 2.2 0 0 0 .7.3 1.3 1.3 0 0 1-1-.7zm2.6-1.1a4.2 4.2 0 0 1-.4 1.4.5.5 0 0 0 .1-.2 2.3 2.3 0 0 0 .1-2.2 1.7 1.7 0 0 1 .2 1zm-4.4-.7a1.4 1.4 0 0 0 0 .7 1.1 1.1 0 0 1 0 .6.8.8 0 0 1-.2.2.5.5 0 0 0 .3-.5c-.2-.6.2-1.3 0-2a1.3 1.3 0 0 0-.2-.4 1.8 1.8 0 0 1 0 1.4zm1.2 2.3a1.3 1.3 0 0 1 .4.7v.1c.1-.3-.1-.6-.4-.8z"/><path class="cls-33" d="M189 84.7a2.4 2.4 0 0 0-1.6-.7 3.4 3.4 0 0 0-1 .2 4 4 0 0 1 2.7.5z"/><path class="cls-34" d="M190 86.9a8.3 8.3 0 0 1-2 4.7 5.2 5.2 0 0 0 2-3.1 4.6 4.6 0 0 0 0-1.6z"/><path class="cls-33" d="M186.4 89.6a2.6 2.6 0 0 1 1.9.2 1.8 1.8 0 0 0-2-.2zm-.4.8a23 23 0 0 1-2.7-.3c1.1.5 2.5.3 3.5 1a1 1 0 0 0-.8-.7z"/><path class="cls-35" d="M190 86.9a5.8 5.8 0 0 0-.7-1.8 2 2 0 0 0-.3-.4 4 4 0 0 0-2.7-.5 9.6 9.6 0 0 0-1 .4 7.2 7.2 0 0 0-.7-.6c-2.2-1.3-4.5.3-5 2.5a6.3 6.3 0 0 0 .4 2 5.3 5.3 0 0 1 .1.5 2.2 2.2 0 0 0 .3.4l-.2.4c-.3.5.1 1 .7 1.1a2 2 0 0 0 .3 0 3.5 3.5 0 0 0 .7.5 6.4 6.4 0 0 0 5.9.5l.3-.3A8.3 8.3 0 0 0 190 87zm-1.1-1.8a3.2 3.2 0 0 0-2.4-.5 2 2 0 0 1 2.4.5zm-3.4 1.9a4 4 0 0 0 .4-.5 1.1 1.1 0 0 1 .1-.6 1 1 0 0 1 1-.3 1.1 1.1 0 0 1 1 .6 2.3 2.3 0 0 1 0 2.2.5.5 0 0 1-.3.3c-.2.3-.5.3-.9.3h-.3a2.2 2.2 0 0 1-.7-.3 1.1 1.1 0 0 1-.3-1.7zm-1.3 1.9a1 1 0 0 1 .2-.2.5.5 0 0 1 .6.1c.3.2.5.5.4.8a.2.2 0 0 1-.1.2 2.1 2.1 0 0 1-1 0 1.9 1.9 0 0 1-1-.1l-.2-.2c0-.5.7-.5 1-.6zm-2-4a.6.6 0 0 1 .2 0 1.1 1.1 0 0 1 1.3.1v.2a1.3 1.3 0 0 1 .3.4c.2.6-.2 1.3-.1 2a.5.5 0 0 1-.3.5 1.8 1.8 0 0 1-.9.6c-.2 0-.4-.1-.6-.4a2.2 2.2 0 0 1 0-3.3zm-.8 4.2c.5-.1 1.1-.2 1.4.2a2.1 2.1 0 0 0-1.4-.2zm2 1a23 23 0 0 0 2.7.3 1 1 0 0 1 .8.7c-1-.7-2.5-.5-3.6-1zm3-.5a1.8 1.8 0 0 1 2 .2 2.6 2.6 0 0 0-2-.2z"/><path class="cls-33" d="M181.4 89.1a2.1 2.1 0 0 1 1.4.2c-.3-.4-1-.3-1.4-.2zm7.6-4a2 2 0 0 0-2.5-.5 3.2 3.2 0 0 1 2.4.5z"/><path class="cls-34" d="M183.3 89.4c0-.2.3-.2.4-.3a2.8 2.8 0 0 0 .4-.1v-.1c-.3.1-1 .1-1 .6l.3.2a.3.3 0 0 1 0-.3zm-3.1.4l.2-.4a2.2 2.2 0 0 1-.3-.4 4.3 4.3 0 0 1 .1.5.8.8 0 0 0 0 1.2.9.9 0 0 0 .7.2c-.6-.2-1-.6-.7-1.1z"/><g class="cls-36"><path class="cls-37" d="M181 84a.6.6 0 0 0 0 .1v.2h.1a1.4 1.4 0 0 0 0-.2z"/><path class="cls-38" d="M181 84a.6.6 0 0 0-.1.1v.2c0 .1 0 0 0 0a.3.3 0 0 0 .1-.2z"/><path class="cls-39" d="M181 84a.3.3 0 0 1 0 .2v.1h.1a1.4 1.4 0 0 0 0-.2z"/></g><g class="cls-36"><path class="cls-37" d="M180.9 85.9a.6.6 0 0 0-.2 0v.2h.2a1.4 1.4 0 0 0 0-.2z"/><path class="cls-38" d="M180.8 85.9a.6.6 0 0 0-.1 0v.2c0 .1 0 0 .1 0a.3.3 0 0 0 0-.2z"/><path class="cls-39" d="M180.9 85.8a.3.3 0 0 1 0 .2h-.2.2a1.4 1.4 0 0 0 0-.2z"/></g><g class="cls-36"><path class="cls-37" d="M182.7 83.5a.5.5 0 0 0-.2 0v.1h.2a1.2 1.2 0 0 0 0-.1z"/><path class="cls-38" d="M182.6 83.5a.5.5 0 0 0-.1 0v.1c0 .1 0 0 .1 0a.3.3 0 0 0 0-.1z"/><path class="cls-39" d="M182.7 83.5a.3.3 0 0 1 0 .1h-.2.2a1.2 1.2 0 0 0 0-.1z"/></g><g class="cls-36"><path class="cls-37" d="M184.7 88a.6.6 0 0 0-.1 0v.2l.2-.1a1.4 1.4 0 0 0 0-.2z"/><path class="cls-38" d="M184.7 88a.6.6 0 0 0-.2 0v.2c0 .2.1 0 .2-.1a.3.3 0 0 0 0-.2z"/><path class="cls-39" d="M184.7 88l-.1.2.2-.1a1.4 1.4 0 0 0 0-.2z"/></g><g class="cls-36"><path class="cls-37" d="M185.5 86v.1a1 1 0 0 0 0-.1z"/><path class="cls-38" d="M185.5 86h-.1v.1c0 .1 0 0 0 0a.2.2 0 0 0 0-.1z"/><path class="cls-39" d="M185.5 86a.2.2 0 0 1 0 .1h-.1.1a1 1 0 0 0 0-.1z"/></g><g class="cls-36"><path class="cls-37" d="M184.1 86.3a.5.5 0 0 0-.1 0v.1h.1a1.1 1.1 0 0 0 0-.1z"/><path class="cls-38" d="M184 86.3v.1c0 .1 0 0 0 0a.3.3 0 0 0 0-.1z"/><path class="cls-39" d="M184 86.3h.1z"/></g><g class="cls-36"><path class="cls-37" d="M184.4 84.6a.6.6 0 0 0-.2 0v.2h.2a1.4 1.4 0 0 0 0-.2z"/><path class="cls-38" d="M184.3 84.6a.6.6 0 0 0-.1 0v.2c0 .1 0 0 .1 0a.3.3 0 0 0 0-.2z"/><path class="cls-39" d="M184.4 84.5a.3.3 0 0 1 0 .2h-.2.2a1.4 1.4 0 0 0 0-.2z"/></g><g class="cls-36"><path class="cls-37" d="M187 84.6v.1z"/><path class="cls-38" d="M187 84.6v.2a.2.2 0 0 0 0-.2z"/><path class="cls-39" d="M187 84.6a.2.2 0 0 1 0 .1z"/></g><g class="cls-36"><path class="cls-37" d="M189.3 86.1a.6.6 0 0 0-.1 0v.3h.2a1.4 1.4 0 0 0 0-.3z"/><path class="cls-38" d="M189.3 86.1a.6.6 0 0 0-.2 0v.3h.2a.3.3 0 0 0 0-.3z"/><path class="cls-39" d="M189.3 86.1a.3.3 0 0 1 0 .2h-.1.2a1.4 1.4 0 0 0 0-.2z"/></g><g class="cls-36"><path class="cls-37" d="M188.6 85a.5.5 0 0 0-.2 0v.1h.2a1.2 1.2 0 0 0 0-.1z"/><path class="cls-38" d="M188.5 85a.5.5 0 0 0-.1 0v.2c0 .2 0 0 .1 0a.3.3 0 0 0 0-.2z"/><path class="cls-39" d="M188.6 85a.3.3 0 0 1 0 .2h-.2.2a1.2 1.2 0 0 0 0-.2z"/></g><g class="cls-36"><path class="cls-37" d="M189.2 88.2a.6.6 0 0 0-.1 0v.2h.1a1.4 1.4 0 0 0 0-.2z"/><path class="cls-38" d="M189.1 88.2a.6.6 0 0 0-.1 0v.2c0 .1 0 0 .1 0a.3.3 0 0 0 0-.2z"/><path class="cls-39" d="M189.2 88.2a.3.3 0 0 1 0 .1l-.1.1h.1a1.4 1.4 0 0 0 0-.2z"/></g><g class="cls-36"><path class="cls-37" d="M188.2 90.4a.6.6 0 0 0-.1 0v.2h.1a1.4 1.4 0 0 0 0-.2z"/><path class="cls-38" d="M188.1 90.4a.6.6 0 0 0-.1 0v.2h.1a.3.3 0 0 0 0-.2z"/><path class="cls-39" d="M188.2 90.4a.3.3 0 0 1 0 .2h-.1.1a1.4 1.4 0 0 0 0-.2z"/></g><g class="cls-36"><path class="cls-37" d="M186.2 89.3h-.1z"/><path class="cls-39" d="M186.2 89.3h-.1z"/></g><g class="cls-36"><path class="cls-37" d="M187.8 88.8h-.1v.1z"/><path class="cls-38" d="M187.7 88.8v.1z"/><path class="cls-39" d="M187.8 88.8a.2.2 0 0 1 0 .1h-.1z"/></g><g class="cls-36"><path class="cls-37" d="M186.6 91.8a.5.5 0 0 0-.2 0v.2h.2a1.2 1.2 0 0 0 0-.2z"/><path class="cls-38" d="M186.5 91.8a.5.5 0 0 0-.1 0v.2h.1a.3.3 0 0 0 0-.2z"/><path class="cls-39" d="M186.6 91.8a.3.3 0 0 1 0 .2h-.2.2a1.2 1.2 0 0 0 0-.2z"/></g><g class="cls-36"><path class="cls-37" d="M184.8 90.6a.6.6 0 0 0-.1 0v.2h.1a1.3 1.3 0 0 0 0-.2z"/><path class="cls-38" d="M184.7 90.6a.6.6 0 0 0-.1 0v.2h.1a.3.3 0 0 0 0-.2z"/><path class="cls-39" d="M184.8 90.6a.3.3 0 0 1 0 .2h-.2.2a1.3 1.3 0 0 0 0-.2z"/></g><g class="cls-36"><path class="cls-37" d="M183.3 91a.6.6 0 0 0-.2 0v.2h.2a1.4 1.4 0 0 0 0-.2z"/><path class="cls-38" d="M183.2 91a.6.6 0 0 0-.2 0v.2h.2a.3.3 0 0 0 0-.2z"/><path class="cls-39" d="M183.2 91a.3.3 0 0 1 0 .2h-.1.2a1.4 1.4 0 0 0 0-.2z"/></g><g class="cls-36"><path class="cls-37" d="M184.4 92v.1a.9.9 0 0 0 0-.1z"/><path class="cls-38" d="M184.4 92h-.1v.1c0 .1 0 0 0 0a.2.2 0 0 0 0-.1z"/><path class="cls-39" d="M184.4 92a.2.2 0 0 1 0 .1.9.9 0 0 0 0-.1z"/></g><g class="cls-36"><path class="cls-38" d="M186.4 90.6h-.1a.2.2 0 0 0 .1 0z"/><path class="cls-39" d="M186.4 90.5a.2.2 0 0 1 0 .2.9.9 0 0 0 0-.2z"/></g><g class="cls-36"><path class="cls-37" d="M182.1 90.7v.1z"/><path class="cls-38" d="M182 90.7v.1c0 .1 0 0 0 0z"/><path class="cls-39" d="M182.1 90.7a.2.2 0 0 1 0 .1.9.9 0 0 0 0-.1z"/></g><g class="cls-36"><path class="cls-37" d="M182.3 89.6a.6.6 0 0 0-.1 0v.2h.1a1.4 1.4 0 0 0 0-.2z"/><path class="cls-38" d="M182.3 89.6a.6.6 0 0 0-.2 0v.2c0 .1 0 0 .1 0a.3.3 0 0 0 0-.2z"/><path class="cls-39" d="M182.3 89.5a.3.3 0 0 1 0 .2h-.1.1a1.4 1.4 0 0 0 0-.2z"/></g><g class="cls-36"><path class="cls-37" d="M182.7 88.8a.6.6 0 0 0-.1 0v.2h.1a1.4 1.4 0 0 0 0-.2z"/><path class="cls-38" d="M182.6 88.8a.6.6 0 0 0-.1 0v.2h.1a.3.3 0 0 0 0-.2z"/><path class="cls-39" d="M182.7 88.8a.3.3 0 0 1 0 .2h-.1.1a1.4 1.4 0 0 0 0-.2z"/></g><g class="cls-36"><path class="cls-37" d="M180.3 87.5a.6.6 0 0 0-.2 0v.3h.2a1.4 1.4 0 0 0 0-.3z"/><path class="cls-38" d="M180.2 87.5a.6.6 0 0 0-.1 0v.3a.3.3 0 0 0 .1-.3z"/><path class="cls-39" d="M180.2 87.5a.3.3 0 0 1 0 .2h-.1.2a1.4 1.4 0 0 0 0-.2z"/></g><g class="cls-36"><path class="cls-37" d="M180.9 89.2a.6.6 0 0 0-.2 0v.2h.2a1.4 1.4 0 0 0 0-.2z"/><path class="cls-38" d="M180.8 89.2a.6.6 0 0 0-.1 0v.2c0 .1 0 0 0 0a.3.3 0 0 0 .1-.2z"/><path class="cls-39" d="M180.8 89.2a.3.3 0 0 1 0 .2 1.4 1.4 0 0 0 0-.2z"/></g><g class="cls-36"><path class="cls-37" d="M180.4 90.2a.6.6 0 0 0-.1 0v.3h.1a1.4 1.4 0 0 0 0-.3z"/><path class="cls-38" d="M180.3 90.2a.6.6 0 0 0-.1 0v.3h.1a.3.3 0 0 0 0-.3z"/><path class="cls-39" d="M180.4 90.2a.3.3 0 0 1 0 .2h-.1.1a1.4 1.4 0 0 0 0-.2z"/></g></g></g></svg>