<svg id="Layer_1" data-name="Layer 1" xmlns="http://www.w3.org/2000/svg" viewBox="0 0 410.63 308"><defs><style>.cls-1{fill:#f3a712;}.cls-2{fill:#ba1200;}</style></defs><title>flowchart</title><path class="cls-1" d="M402.63,208.75H374V162.83H326.18V115.58H383a8,8,0,0,0,8-8V96.25a8,8,0,0,0-8-8H267.34a8,8,0,0,0-8,8v4.67H148.45V53.67H251.11a8,8,0,0,0,8-8V8a8,8,0,0,0-8-8H43.78a8,8,0,0,0-8,8V45.67a8,8,0,0,0,8,8H146.45v47.25H98.58v49.25H8a8,8,0,0,0-8,8V169.5a8,8,0,0,0,8,8H98.58v47.25H50.72V274H18.36a8,8,0,0,0-8,8v18a8,8,0,0,0,8,8H85.08a8,8,0,0,0,8-8V282a8,8,0,0,0-8-8H52.72V226.75h93.73V274H123a8,8,0,0,0-8,8v18a8,8,0,0,0,8,8h48.94a8,8,0,0,0,8-8V282a8,8,0,0,0-8-8H148.45V224.75H100.58V177.5h90.58a8,8,0,0,0,8-8V158.17a8,8,0,0,0-8-8H100.58V102.92H259.34v4.67a8,8,0,0,0,8,8h56.83v47.25H276.31v45.92H247.72a8,8,0,0,0-8,8v18a8,8,0,0,0,8,8H306.9a8,8,0,0,0,8-8v-18a8,8,0,0,0-8-8H278.31V164.83H372v43.92H343.45a8,8,0,0,0-8,8v18a8,8,0,0,0,8,8h59.18a8,8,0,0,0,8-8v-18A8,8,0,0,0,402.63,208.75Z"/><path class="cls-2" d="M79.72,11.07a4.12,4.12,0,0,1-1.1,3.08,4.22,4.22,0,0,1-3.09,1.08H72.94v-8h2.77a4.16,4.16,0,0,1,3,1A3.71,3.71,0,0,1,79.72,11.07Zm-4.14,2.39A1.74,1.74,0,0,0,77,12.89a2.66,2.66,0,0,0,.46-1.7A2.62,2.62,0,0,0,77,9.52,1.61,1.61,0,0,0,75.73,9H75.1v4.47Z"/><path class="cls-2" d="M80.86,11.23a4.27,4.27,0,0,1,1-3.05,4.52,4.52,0,0,1,5.78,0,4.3,4.3,0,0,1,1,3.06,4.31,4.31,0,0,1-1,3.07,4.49,4.49,0,0,1-5.78,0A4.29,4.29,0,0,1,80.86,11.23Zm3.89-2.34q-1.62,0-1.62,2.33t1.61,2.33A1.39,1.39,0,0,0,86,13a3.1,3.1,0,0,0,.39-1.75A3.12,3.12,0,0,0,86,9.47,1.37,1.37,0,0,0,84.75,8.89Z"/><path class="cls-2" d="M94.8,13.47v1.76H90.06v-8H94.8V9H92.22v1.26h2.39V12H92.22v1.5Z"/><path class="cls-2" d="M95.83,12.92a6.21,6.21,0,0,0,1.3.5,4.7,4.7,0,0,0,1.16.17,1.33,1.33,0,0,0,.74-.16.5.5,0,0,0,.23-.43.46.46,0,0,0-.09-.29,1.19,1.19,0,0,0-.28-.24,10.81,10.81,0,0,0-1-.51,5.48,5.48,0,0,1-1.22-.7,2.21,2.21,0,0,1-.76-1.77,2.07,2.07,0,0,1,.8-1.74,3.55,3.55,0,0,1,2.21-.62,6.22,6.22,0,0,1,2.53.58l-.66,1.66a4.8,4.8,0,0,0-1.94-.51,1.05,1.05,0,0,0-.6.14.43.43,0,0,0-.2.37.53.53,0,0,0,.25.42,8.79,8.79,0,0,0,1.3.66,3.71,3.71,0,0,1,1.45,1,2.11,2.11,0,0,1,.41,1.33,2.23,2.23,0,0,1-.85,1.84,3.43,3.43,0,0,1-2.28.7,6.55,6.55,0,0,1-1.36-.12,5,5,0,0,1-1.11-.39Z"/><path class="cls-2" d="M109.41,9v6.22h-2.16V9H105.3V7.25h6V9Z"/><path class="cls-2" d="M119.33,7.25v8h-2.17V12h-2.51v3.25h-2.17v-8h2.17v3h2.51v-3Z"/><path class="cls-2" d="M125.79,13.47v1.76h-4.74v-8h4.74V9h-2.58v1.26h2.39V12h-2.39v1.5Z"/><path class="cls-2" d="M132.59,15.23h-2.17v-8h2.17Z"/><path class="cls-2" d="M141.43,11.73q0-.69.08-2.24h0l-1.61,5.74h-2.06l-1.63-5.75h0q.11,1.43.12,2.29v3.46h-1.91v-8h2.88l1.66,5.67h0l1.63-5.67h2.88v8h-2Z"/><path class="cls-2" d="M152.38,15.23H150l-.39-1.5H147l-.4,1.5h-2.37l2.6-8h2.88ZM147.49,12h1.7q-.75-2.84-.86-3.43Q148.2,9.29,147.49,12Z"/><path class="cls-2" d="M156.23,12.22V10.56h3.45v4.3a9.43,9.43,0,0,1-3.08.48,3.74,3.74,0,0,1-2.85-1.07,4.24,4.24,0,0,1-1-3,4.06,4.06,0,0,1,1.1-3,4.23,4.23,0,0,1,3.09-1.08,6.34,6.34,0,0,1,2.58.5l-.68,1.69A4.1,4.1,0,0,0,157,8.91a1.86,1.86,0,0,0-1.51.61,2.64,2.64,0,0,0-.52,1.74,2.72,2.72,0,0,0,.47,1.72,1.62,1.62,0,0,0,1.35.59,3.65,3.65,0,0,0,.88-.1V12.22Z"/><path class="cls-2" d="M166,13.47v1.76H161.3v-8H166V9h-2.58v1.26h2.39V12h-2.39v1.5Z"/><path class="cls-2" d="M176.05,9.4a4.44,4.44,0,0,0-1.83-.49,1.38,1.38,0,0,0-1.21.63,3.05,3.05,0,0,0-.43,1.74q0,2.3,1.75,2.3a5.65,5.65,0,0,0,2-.5V14.9a5.51,5.51,0,0,1-2.26.44,3.58,3.58,0,0,1-2.77-1,4.34,4.34,0,0,1-1-3,4.7,4.7,0,0,1,.46-2.17,3.38,3.38,0,0,1,1.36-1.46,4,4,0,0,1,2.06-.5,5.62,5.62,0,0,1,2.47.56Z"/><path class="cls-2" d="M177.4,11.23a4.27,4.27,0,0,1,1-3.05,4.52,4.52,0,0,1,5.78,0,4.3,4.3,0,0,1,1,3.06,4.31,4.31,0,0,1-1,3.07,4.49,4.49,0,0,1-5.78,0A4.29,4.29,0,0,1,177.4,11.23Zm3.89-2.34q-1.62,0-1.62,2.33t1.61,2.33A1.39,1.39,0,0,0,182.5,13a3.1,3.1,0,0,0,.39-1.75,3.12,3.12,0,0,0-.4-1.76A1.37,1.37,0,0,0,181.29,8.89Z"/><path class="cls-2" d="M194.21,7.25v8h-2.83l-2.92-5.62h0q.1,1.37.1,2v3.6h-1.91v-8h2.82l2.9,5.55h0q-.08-1.17-.08-1.94V7.25Z"/><path class="cls-2" d="M199.46,9v6.22H197.3V9h-1.95V7.25h6V9Z"/><path class="cls-2" d="M209,15.23h-2.36l-.39-1.5h-2.6l-.4,1.5h-2.37l2.6-8h2.88ZM204.12,12h1.7q-.75-2.84-.86-3.43Q204.83,9.29,204.12,12Z"/><path class="cls-2" d="M212,15.23h-2.17v-8H212Z"/><path class="cls-2" d="M221.37,7.25v8h-2.83l-2.92-5.62h0q.1,1.37.1,2v3.6h-1.91v-8h2.82l2.9,5.55h0q-.08-1.17-.08-1.94V7.25Z"/><path class="cls-2" d="M46,21.65a3.39,3.39,0,0,1,2.26.66A2.41,2.41,0,0,1,49,24.24a2.62,2.62,0,0,1-.79,2A3.2,3.2,0,0,1,46,27h-.61v2.65H43.25v-8Zm-.61,1.74v1.84h.39a1.08,1.08,0,0,0,.78-.27,1,1,0,0,0,.29-.75q0-.81-.9-.81Z"/><path class="cls-2" d="M57.16,21.65v8H55V26.38H52.49v3.25H50.32v-8h2.17v3H55v-3Z"/><path class="cls-2" d="M58.6,25.63a4.27,4.27,0,0,1,1-3.05,4.52,4.52,0,0,1,5.78,0,4.3,4.3,0,0,1,1,3.06,4.31,4.31,0,0,1-1,3.07,4.49,4.49,0,0,1-5.78,0A4.29,4.29,0,0,1,58.6,25.63Zm3.89-2.34q-1.62,0-1.62,2.33t1.61,2.33a1.39,1.39,0,0,0,1.22-.56,3.1,3.1,0,0,0,.39-1.75,3.12,3.12,0,0,0-.4-1.76A1.37,1.37,0,0,0,62.49,23.29Z"/><path class="cls-2" d="M71,23.41v6.22H68.83V23.41H66.88V21.65h6v1.77Z"/><path class="cls-2" d="M73.56,25.63a4.27,4.27,0,0,1,1-3.05,4.52,4.52,0,0,1,5.78,0,4.3,4.3,0,0,1,1,3.06,4.31,4.31,0,0,1-1,3.07,4.49,4.49,0,0,1-5.78,0A4.29,4.29,0,0,1,73.56,25.63Zm3.89-2.34q-1.62,0-1.62,2.33t1.61,2.33a1.39,1.39,0,0,0,1.22-.56A3.1,3.1,0,0,0,79,25.63a3.12,3.12,0,0,0-.4-1.76A1.37,1.37,0,0,0,77.45,23.29Z"/><path class="cls-2" d="M86,26.62V25h3.45v4.3a9.43,9.43,0,0,1-3.08.48,3.74,3.74,0,0,1-2.85-1.07,4.24,4.24,0,0,1-1-3,4.06,4.06,0,0,1,1.1-3,4.23,4.23,0,0,1,3.09-1.08,6.34,6.34,0,0,1,2.58.5l-.68,1.69a4.1,4.1,0,0,0-1.85-.42,1.86,1.86,0,0,0-1.51.61,2.64,2.64,0,0,0-.52,1.74,2.72,2.72,0,0,0,.47,1.72,1.62,1.62,0,0,0,1.35.59,3.65,3.65,0,0,0,.88-.1V26.62Z"/><path class="cls-2" d="M93.19,26.73v2.91H91v-8h2.61q3.26,0,3.26,2.36a2.36,2.36,0,0,1-1.36,2.15l2.33,3.48H95.43l-1.69-2.91Zm0-3.45v1.83h.4q1.13,0,1.13-1,0-.82-1.11-.83Z"/><path class="cls-2" d="M105.86,29.63H103.5l-.39-1.5h-2.6l-.4,1.5H97.74l2.6-8h2.88ZM101,26.37h1.7q-.75-2.84-.86-3.43Q101.68,23.69,101,26.37Z"/><path class="cls-2" d="M109.48,21.65a3.39,3.39,0,0,1,2.26.66,2.41,2.41,0,0,1,.76,1.94,2.62,2.62,0,0,1-.79,2,3.2,3.2,0,0,1-2.24.73h-.61v2.65h-2.16v-8Zm-.61,1.74v1.84h.39A1.08,1.08,0,0,0,110,25a1,1,0,0,0,.29-.75q0-.81-.9-.81Z"/><path class="cls-2" d="M120.63,21.65v8h-2.17V26.38H116v3.25h-2.17v-8H116v3h2.51v-3Z"/><path class="cls-2" d="M124.52,29.63h-2.17v-8h2.17Z"/><path class="cls-2" d="M131.63,23.8a4.44,4.44,0,0,0-1.83-.49,1.38,1.38,0,0,0-1.21.63,3.05,3.05,0,0,0-.43,1.74q0,2.3,1.75,2.3a5.65,5.65,0,0,0,2-.5V29.3a5.51,5.51,0,0,1-2.26.44,3.58,3.58,0,0,1-2.77-1,4.34,4.34,0,0,1-1-3,4.7,4.7,0,0,1,.46-2.17A3.38,3.38,0,0,1,127.77,22a4,4,0,0,1,2.06-.5,5.62,5.62,0,0,1,2.47.56Z"/><path class="cls-2" d="M142.12,23.8a4.44,4.44,0,0,0-1.83-.49,1.38,1.38,0,0,0-1.21.63,3.05,3.05,0,0,0-.43,1.74q0,2.3,1.75,2.3a5.65,5.65,0,0,0,2-.5V29.3a5.51,5.51,0,0,1-2.26.44,3.58,3.58,0,0,1-2.77-1,4.34,4.34,0,0,1-1-3,4.7,4.7,0,0,1,.46-2.17A3.38,3.38,0,0,1,138.25,22a4,4,0,0,1,2.06-.5,5.62,5.62,0,0,1,2.47.56Z"/><path class="cls-2" d="M143.47,25.63a4.27,4.27,0,0,1,1-3.05,4.52,4.52,0,0,1,5.78,0,4.3,4.3,0,0,1,1,3.06,4.31,4.31,0,0,1-1,3.07,4.49,4.49,0,0,1-5.78,0A4.29,4.29,0,0,1,143.47,25.63Zm3.89-2.34q-1.62,0-1.62,2.33t1.61,2.33a1.39,1.39,0,0,0,1.22-.56,3.1,3.1,0,0,0,.39-1.75,3.12,3.12,0,0,0-.4-1.76A1.37,1.37,0,0,0,147.36,23.29Z"/><path class="cls-2" d="M160.27,21.65v8h-2.83L154.53,24h0q.1,1.37.1,2v3.6h-1.91v-8h2.82l2.9,5.55h0q-.08-1.17-.08-1.94V21.65Z"/><path class="cls-2" d="M165.52,23.41v6.22h-2.16V23.41h-1.95V21.65h6v1.77Z"/><path class="cls-2" d="M173.34,27.87v1.76H168.6v-8h4.74v1.74h-2.58v1.26h2.39v1.73h-2.39v1.5Z"/><path class="cls-2" d="M182.35,21.65v8h-2.83L176.6,24h0q.1,1.37.1,2v3.6h-1.91v-8h2.82l2.9,5.55h0q-.08-1.17-.08-1.94V21.65Z"/><path class="cls-2" d="M187.59,23.41v6.22h-2.16V23.41h-1.95V21.65h6v1.77Z"/><path class="cls-2" d="M193.61,25.63a4.27,4.27,0,0,1,1-3.05,4.52,4.52,0,0,1,5.78,0,4.3,4.3,0,0,1,1,3.06,4.31,4.31,0,0,1-1,3.07,4.49,4.49,0,0,1-5.78,0A4.29,4.29,0,0,1,193.61,25.63Zm3.89-2.34q-1.62,0-1.62,2.33t1.61,2.33a1.39,1.39,0,0,0,1.22-.56,3.1,3.1,0,0,0,.39-1.75,3.12,3.12,0,0,0-.4-1.76A1.37,1.37,0,0,0,197.5,23.29Z"/><path class="cls-2" d="M205,26.73v2.91h-2.16v-8h2.61q3.26,0,3.26,2.36a2.36,2.36,0,0,1-1.36,2.15l2.33,3.48h-2.44l-1.69-2.91Zm0-3.45v1.83h.4q1.13,0,1.13-1,0-.82-1.11-.83Z"/><path class="cls-2" d="M220.38,25.47a4.12,4.12,0,0,1-1.1,3.08,4.22,4.22,0,0,1-3.09,1.08h-2.58v-8h2.77a4.16,4.16,0,0,1,3,1A3.71,3.71,0,0,1,220.38,25.47Zm-4.14,2.39a1.74,1.74,0,0,0,1.44-.57,2.66,2.66,0,0,0,.46-1.7,2.62,2.62,0,0,0-.43-1.67,1.61,1.61,0,0,0-1.32-.53h-.62v4.47Z"/><path class="cls-2" d="M226.55,27.87v1.76h-4.74v-8h4.74v1.74H224v1.26h2.39v1.73H224v1.5Z"/><path class="cls-2" d="M230.72,21.65a3.39,3.39,0,0,1,2.26.66,2.41,2.41,0,0,1,.76,1.94,2.62,2.62,0,0,1-.79,2,3.2,3.2,0,0,1-2.24.73h-.61v2.65H228v-8Zm-.61,1.74v1.84h.39a1.08,1.08,0,0,0,.78-.27,1,1,0,0,0,.29-.75q0-.81-.9-.81Z"/><path class="cls-2" d="M237.19,29.63H235v-8h2.17Z"/><path class="cls-2" d="M244.3,23.8a4.44,4.44,0,0,0-1.83-.49,1.38,1.38,0,0,0-1.21.63,3.05,3.05,0,0,0-.43,1.74q0,2.3,1.75,2.3a5.65,5.65,0,0,0,2-.5V29.3a5.51,5.51,0,0,1-2.26.44,3.58,3.58,0,0,1-2.77-1,4.34,4.34,0,0,1-1-3,4.7,4.7,0,0,1,.46-2.17A3.38,3.38,0,0,1,240.44,22a4,4,0,0,1,2.06-.5,5.62,5.62,0,0,1,2.47.56Z"/><path class="cls-2" d="M249.7,23.41v6.22h-2.16V23.41h-1.95V21.65h6v1.77Z"/><path class="cls-2" d="M73.38,44H71l-.39-1.5H68l-.4,1.5H65.26l2.6-8h2.88Zm-4.9-3.26h1.7q-.75-2.84-.86-3.43Q69.2,38.09,68.48,40.77Z"/><path class="cls-2" d="M80.23,36a3.39,3.39,0,0,1,2.26.66,2.41,2.41,0,0,1,.76,1.94,2.62,2.62,0,0,1-.79,2,3.2,3.2,0,0,1-2.24.73h-.61V44H77.47V36Zm-.61,1.74v1.84H80a1.08,1.08,0,0,0,.78-.27,1,1,0,0,0,.29-.75q0-.81-.9-.81Z"/><path class="cls-2" d="M91.38,36v8H89.21V40.78H86.7V44H84.53V36H86.7v3h2.51V36Z"/><path class="cls-2" d="M92.81,40a4.27,4.27,0,0,1,1-3.05,4.52,4.52,0,0,1,5.78,0,4.3,4.3,0,0,1,1,3.06,4.31,4.31,0,0,1-1,3.07,4.49,4.49,0,0,1-5.78,0A4.29,4.29,0,0,1,92.81,40Zm3.89-2.34q-1.62,0-1.62,2.33t1.61,2.33a1.39,1.39,0,0,0,1.22-.56A3.1,3.1,0,0,0,98.3,40a3.12,3.12,0,0,0-.4-1.76A1.37,1.37,0,0,0,96.7,37.69Z"/><path class="cls-2" d="M105.2,37.81V44H103V37.81H101.1V36h6v1.77Z"/><path class="cls-2" d="M107.77,40a4.27,4.27,0,0,1,1-3.05,4.52,4.52,0,0,1,5.78,0,4.3,4.3,0,0,1,1,3.06,4.31,4.31,0,0,1-1,3.07,4.49,4.49,0,0,1-5.78,0A4.29,4.29,0,0,1,107.77,40Zm3.89-2.34Q110,37.69,110,40t1.61,2.33a1.39,1.39,0,0,0,1.22-.56,3.1,3.1,0,0,0,.39-1.75,3.12,3.12,0,0,0-.4-1.76A1.37,1.37,0,0,0,111.66,37.69Z"/><path class="cls-2" d="M119.13,41.13V44H117V36h2.61q3.26,0,3.26,2.36a2.36,2.36,0,0,1-1.36,2.15L123.82,44h-2.44l-1.69-2.91Zm0-3.45v1.83h.4q1.13,0,1.13-1,0-.82-1.11-.83Z"/><path class="cls-2" d="M129.28,42.27V44h-4.74V36h4.74v1.74H126.7V39h2.39v1.73H126.7v1.5Z"/><path class="cls-2" d="M137.93,44h-2.36l-.39-1.5h-2.6l-.4,1.5h-2.37l2.6-8h2.88ZM133,40.77h1.7q-.75-2.84-.86-3.43Q133.75,38.09,133,40.77Z"/><path class="cls-2" d="M144,44H138.8V36H141v6.24H144Z"/><path class="cls-2" d="M147.47,44h-2.17V36h2.17Z"/><path class="cls-2" d="M148.83,41.72a6.21,6.21,0,0,0,1.3.5,4.7,4.7,0,0,0,1.16.17,1.33,1.33,0,0,0,.74-.16.5.5,0,0,0,.23-.43.46.46,0,0,0-.09-.29,1.19,1.19,0,0,0-.28-.24,10.81,10.81,0,0,0-1-.51,5.48,5.48,0,0,1-1.22-.7,2.21,2.21,0,0,1-.76-1.77,2.07,2.07,0,0,1,.8-1.74,3.55,3.55,0,0,1,2.21-.62,6.22,6.22,0,0,1,2.53.58l-.66,1.66a4.8,4.8,0,0,0-1.94-.51,1.05,1.05,0,0,0-.6.14.43.43,0,0,0-.2.37.53.53,0,0,0,.25.42,8.79,8.79,0,0,0,1.3.66,3.71,3.71,0,0,1,1.45,1,2.11,2.11,0,0,1,.41,1.33,2.23,2.23,0,0,1-.85,1.84,3.43,3.43,0,0,1-2.28.7,6.55,6.55,0,0,1-1.36-.12,5,5,0,0,1-1.11-.39Z"/><path class="cls-2" d="M159.18,37.81V44H157V37.81h-1.95V36h6v1.77Z"/><path class="cls-2" d="M164.43,44h-2.17V36h2.17Z"/><path class="cls-2" d="M171.54,38.2a4.44,4.44,0,0,0-1.83-.49,1.38,1.38,0,0,0-1.21.63,3.05,3.05,0,0,0-.43,1.74q0,2.3,1.75,2.3a5.65,5.65,0,0,0,2-.5V43.7a5.51,5.51,0,0,1-2.26.44,3.58,3.58,0,0,1-2.77-1,4.34,4.34,0,0,1-1-3,4.7,4.7,0,0,1,.46-2.17,3.38,3.38,0,0,1,1.36-1.46,4,4,0,0,1,2.06-.5,5.62,5.62,0,0,1,2.47.56Z"/><path class="cls-2" d="M176.27,41.72a6.21,6.21,0,0,0,1.3.5,4.7,4.7,0,0,0,1.16.17,1.33,1.33,0,0,0,.74-.16.5.5,0,0,0,.23-.43.46.46,0,0,0-.09-.29,1.19,1.19,0,0,0-.28-.24,10.81,10.81,0,0,0-1-.51,5.48,5.48,0,0,1-1.22-.7,2.21,2.21,0,0,1-.76-1.77,2.07,2.07,0,0,1,.8-1.74,3.55,3.55,0,0,1,2.21-.62,6.22,6.22,0,0,1,2.53.58l-.66,1.66a4.8,4.8,0,0,0-1.94-.51,1.05,1.05,0,0,0-.6.14.43.43,0,0,0-.2.37.53.53,0,0,0,.25.42,8.79,8.79,0,0,0,1.3.66,3.71,3.71,0,0,1,1.45,1,2.11,2.11,0,0,1,.41,1.33,2.23,2.23,0,0,1-.85,1.84,3.43,3.43,0,0,1-2.28.7,6.55,6.55,0,0,1-1.36-.12,5,5,0,0,1-1.11-.39Z"/><path class="cls-2" d="M187.72,36h2.16v4.8a3.23,3.23,0,0,1-.89,2.43,3.5,3.5,0,0,1-2.54.86,3.57,3.57,0,0,1-2.54-.83,3.18,3.18,0,0,1-.87-2.41V36h2.17v4.68a2,2,0,0,0,.31,1.23,1.15,1.15,0,0,0,1,.39,1.12,1.12,0,0,0,.94-.38,2,2,0,0,0,.3-1.24Z"/><path class="cls-2" d="M191.56,44V36h2.78a4.72,4.72,0,0,1,2.41.49,1.64,1.64,0,0,1,.79,1.5,1.9,1.9,0,0,1-.34,1.15,1.55,1.55,0,0,1-.91.61v.05a1.9,1.9,0,0,1,1.07.65,1.94,1.94,0,0,1,.34,1.2,2,2,0,0,1-.82,1.71,3.58,3.58,0,0,1-2.23.63Zm2.16-6.35v1.43h.65a1.17,1.17,0,0,0,.72-.19.67.67,0,0,0,.25-.57q0-.67-1-.67Zm.72,3h-.72v1.68h.76q1,0,1-.86a.73.73,0,0,0-.27-.61A1.24,1.24,0,0,0,194.43,40.69Z"/><path class="cls-2" d="M197.35,44.75a4,4,0,0,0,.8.12.87.87,0,0,0,.76-.32,2,2,0,0,0,.23-1.1V36h2.17v7.2a3.68,3.68,0,0,1-.71,2.46,2.65,2.65,0,0,1-2.13.83,5.12,5.12,0,0,1-1.12-.12Z"/><path class="cls-2" d="M207.77,42.27V44H203V36h4.74v1.74h-2.58V39h2.39v1.73h-2.39v1.5Z"/><path class="cls-2" d="M214.56,38.2a4.44,4.44,0,0,0-1.83-.49,1.38,1.38,0,0,0-1.21.63,3.05,3.05,0,0,0-.43,1.74q0,2.3,1.75,2.3a5.65,5.65,0,0,0,2-.5V43.7a5.51,5.51,0,0,1-2.26.44,3.58,3.58,0,0,1-2.77-1,4.34,4.34,0,0,1-1-3,4.7,4.7,0,0,1,.46-2.17,3.38,3.38,0,0,1,1.36-1.46,4,4,0,0,1,2.06-.5,5.62,5.62,0,0,1,2.47.56Z"/><path class="cls-2" d="M219.95,37.81V44h-2.16V37.81h-1.95V36h6v1.77Z"/><path class="cls-2" d="M226.35,41.22h-1.68v-.47a1.72,1.72,0,0,1,.22-.9,2.18,2.18,0,0,1,.73-.69,3.2,3.2,0,0,0,.7-.55.73.73,0,0,0,.19-.48.43.43,0,0,0-.21-.39,1,1,0,0,0-.54-.13,4.24,4.24,0,0,0-1.93.58l-.76-1.49a5.64,5.64,0,0,1,2.84-.78,3,3,0,0,1,1.91.54,1.75,1.75,0,0,1,.69,1.46,2.08,2.08,0,0,1-.31,1.14,3,3,0,0,1-.94.89,4,4,0,0,0-.77.58.62.62,0,0,0-.14.4Zm.37,1.91a1,1,0,0,1-.3.77,1.19,1.19,0,0,1-.84.28,1.21,1.21,0,0,1-.84-.27,1.15,1.15,0,0,1,0-1.55,1.21,1.21,0,0,1,.85-.27,1.19,1.19,0,0,1,.85.28A1,1,0,0,1,226.72,43.13Z"/><circle class="cls-2" cx="99.58" cy="101.92" r="15.85"/><path class="cls-1" d="M94.56,105.91H92.39v-3.05l-2.63-4.93h2.35l1.37,3,1.38-3h2.34l-2.63,4.87Z"/><path class="cls-1" d="M102.78,104.15v1.76H98v-8h4.74v1.74h-2.58v1.26h2.39v1.73h-2.39v1.5Z"/><path class="cls-1" d="M103.81,103.59a6.2,6.2,0,0,0,1.3.5,4.69,4.69,0,0,0,1.16.17,1.33,1.33,0,0,0,.74-.16.5.5,0,0,0,.23-.43.46.46,0,0,0-.09-.29,1.19,1.19,0,0,0-.28-.24,11.08,11.08,0,0,0-1-.51,5.47,5.47,0,0,1-1.22-.7,2.21,2.21,0,0,1-.76-1.77,2.07,2.07,0,0,1,.8-1.74,3.55,3.55,0,0,1,2.21-.62,6.22,6.22,0,0,1,2.53.58l-.66,1.66a4.8,4.8,0,0,0-1.94-.51,1.05,1.05,0,0,0-.6.14.43.43,0,0,0-.2.37.53.53,0,0,0,.25.42,8.69,8.69,0,0,0,1.29.66,3.72,3.72,0,0,1,1.45,1,2.11,2.11,0,0,1,.41,1.33,2.24,2.24,0,0,1-.85,1.84,3.43,3.43,0,0,1-2.28.7,6.55,6.55,0,0,1-1.36-.12,5,5,0,0,1-1.11-.39Z"/><circle class="cls-2" cx="195.31" cy="101.92" r="15.85"/><path class="cls-1" d="M194.51,97.93v8h-2.83l-2.92-5.62h0q.1,1.37.1,2v3.6h-1.91v-8h2.82l2.9,5.55h0q-.08-1.17-.08-1.94V97.93Z"/><path class="cls-1" d="M195.95,101.91a4.27,4.27,0,0,1,1-3.05,4.52,4.52,0,0,1,5.78,0,5.26,5.26,0,0,1,0,6.13,4.49,4.49,0,0,1-5.78,0A4.29,4.29,0,0,1,195.95,101.91Zm3.89-2.34q-1.62,0-1.62,2.33t1.61,2.33a1.38,1.38,0,0,0,1.22-.56,4.1,4.1,0,0,0,0-3.52A1.37,1.37,0,0,0,199.83,99.57Z"/><circle class="cls-2" cx="277.31" cy="163.83" r="15.85"/><path class="cls-1" d="M272.29,167.83h-2.17v-3.05l-2.63-4.93h2.35l1.37,3,1.38-3h2.34l-2.63,4.87Z"/><path class="cls-1" d="M280.51,166.07v1.76h-4.74v-8h4.74v1.74h-2.58v1.26h2.39v1.73h-2.39v1.5Z"/><path class="cls-1" d="M281.54,165.51a6.2,6.2,0,0,0,1.3.5,4.69,4.69,0,0,0,1.16.17,1.33,1.33,0,0,0,.74-.16.5.5,0,0,0,.23-.43.46.46,0,0,0-.09-.29,1.19,1.19,0,0,0-.28-.24,11.08,11.08,0,0,0-1-.51,5.47,5.47,0,0,1-1.22-.7,2.21,2.21,0,0,1-.76-1.77,2.07,2.07,0,0,1,.8-1.74,3.55,3.55,0,0,1,2.21-.62,6.22,6.22,0,0,1,2.53.58l-.66,1.66a4.8,4.8,0,0,0-1.94-.51,1.05,1.05,0,0,0-.6.14.43.43,0,0,0-.2.37.53.53,0,0,0,.25.42,8.69,8.69,0,0,0,1.29.66,3.72,3.72,0,0,1,1.45,1,2.11,2.11,0,0,1,.41,1.33,2.24,2.24,0,0,1-.85,1.84,3.43,3.43,0,0,1-2.28.7,6.55,6.55,0,0,1-1.36-.12,5,5,0,0,1-1.11-.39Z"/><circle class="cls-2" cx="373.04" cy="163.83" r="15.85"/><path class="cls-1" d="M372.24,159.85v8h-2.83l-2.92-5.62h0q.1,1.37.1,2v3.6h-1.91v-8h2.82l2.9,5.55h0q-.08-1.17-.08-1.94v-3.61Z"/><path class="cls-1" d="M373.68,163.83a4.27,4.27,0,0,1,1-3.05,4.52,4.52,0,0,1,5.78,0,5.26,5.26,0,0,1,0,6.13,4.49,4.49,0,0,1-5.78,0A4.29,4.29,0,0,1,373.68,163.83Zm3.89-2.34q-1.62,0-1.62,2.33t1.61,2.33a1.38,1.38,0,0,0,1.22-.56,4.1,4.1,0,0,0,0-3.52A1.37,1.37,0,0,0,377.56,161.49Z"/><path class="cls-2" d="M272.43,105.9h-2.17v-8h2.17Z"/><path class="cls-2" d="M273.79,103.58a6.24,6.24,0,0,0,1.3.5,4.69,4.69,0,0,0,1.16.17,1.33,1.33,0,0,0,.74-.16.5.5,0,0,0,.23-.43.46.46,0,0,0-.09-.29,1.21,1.21,0,0,0-.28-.24,10.81,10.81,0,0,0-1-.51,5.52,5.52,0,0,1-1.22-.7,2.21,2.21,0,0,1-.76-1.77,2.07,2.07,0,0,1,.8-1.74,3.55,3.55,0,0,1,2.21-.62,6.22,6.22,0,0,1,2.53.58l-.66,1.66a4.81,4.81,0,0,0-1.94-.51,1,1,0,0,0-.6.14.43.43,0,0,0-.2.37.53.53,0,0,0,.25.42,8.71,8.71,0,0,0,1.3.67,3.72,3.72,0,0,1,1.45,1,2.1,2.1,0,0,1,.41,1.33,2.23,2.23,0,0,1-.85,1.84,3.43,3.43,0,0,1-2.28.7,6.55,6.55,0,0,1-1.36-.12,5,5,0,0,1-1.11-.38Z"/><path class="cls-2" d="M283.47,103.58a6.22,6.22,0,0,0,1.3.5,4.69,4.69,0,0,0,1.16.17,1.34,1.34,0,0,0,.74-.16.5.5,0,0,0,.23-.43.46.46,0,0,0-.09-.29,1.21,1.21,0,0,0-.28-.24,11.08,11.08,0,0,0-1-.51,5.49,5.49,0,0,1-1.22-.7,2.21,2.21,0,0,1-.76-1.77,2.07,2.07,0,0,1,.8-1.74,3.55,3.55,0,0,1,2.21-.62,6.22,6.22,0,0,1,2.53.58l-.66,1.66a4.8,4.8,0,0,0-1.94-.51,1,1,0,0,0-.6.14.43.43,0,0,0-.2.37.53.53,0,0,0,.25.42,8.62,8.62,0,0,0,1.29.67,3.73,3.73,0,0,1,1.45,1,2.11,2.11,0,0,1,.41,1.33,2.24,2.24,0,0,1-.85,1.84,3.43,3.43,0,0,1-2.28.7,6.55,6.55,0,0,1-1.36-.12,5,5,0,0,1-1.11-.38Z"/><path class="cls-2" d="M293.32,103.84a12.41,12.41,0,0,1,.35-1.86l1.11-4.07h2.42l-2.62,8H292l-2.6-8h2.43l1.09,4A12.38,12.38,0,0,1,293.32,103.84Z"/><path class="cls-2" d="M301.15,102.89v-1.66h3.45v4.3a9.45,9.45,0,0,1-3.08.48,3.74,3.74,0,0,1-2.85-1.07,4.24,4.24,0,0,1-1-3,4.06,4.06,0,0,1,1.1-3,4.23,4.23,0,0,1,3.09-1.08,6.33,6.33,0,0,1,2.58.5l-.68,1.69a4.09,4.09,0,0,0-1.85-.42,1.86,1.86,0,0,0-1.51.61,2.63,2.63,0,0,0-.52,1.74,2.72,2.72,0,0,0,.47,1.72,1.62,1.62,0,0,0,1.35.59,3.65,3.65,0,0,0,.88-.1v-1.25Z"/><path class="cls-2" d="M316.71,105.9h-2.36l-.39-1.5h-2.6l-.4,1.5h-2.37l2.6-8h2.88Zm-4.9-3.26h1.7q-.75-2.84-.86-3.43Q312.53,100,311.81,102.64Z"/><path class="cls-2" d="M325.17,97.92v8h-2.83l-2.92-5.62h0q.1,1.37.1,2v3.6h-1.91v-8h2.82l2.9,5.55h0q-.08-1.17-.08-1.94V97.92Z"/><path class="cls-2" d="M329.83,101.9a4.27,4.27,0,0,1,1-3.05,4.52,4.52,0,0,1,5.78,0,5.26,5.26,0,0,1,0,6.13,4.49,4.49,0,0,1-5.78,0A4.29,4.29,0,0,1,329.83,101.9Zm3.89-2.34q-1.62,0-1.62,2.33t1.61,2.33a1.38,1.38,0,0,0,1.22-.56,4.1,4.1,0,0,0,0-3.52A1.37,1.37,0,0,0,333.72,99.56Z"/><path class="cls-2" d="M341.8,97.92a3.4,3.4,0,0,1,2.26.66,2.41,2.41,0,0,1,.76,1.94,2.62,2.62,0,0,1-.79,2,3.19,3.19,0,0,1-2.24.73h-.61v2.65H339v-8Zm-.61,1.74v1.84h.39a1.08,1.08,0,0,0,.78-.27,1,1,0,0,0,.28-.75q0-.81-.9-.81Z"/><path class="cls-2" d="M349.62,99.68v6.22h-2.16V99.68h-1.95V97.92h6v1.77Z"/><path class="cls-2" d="M354.87,105.9h-2.17v-8h2.17Z"/><path class="cls-2" d="M356.31,101.9a4.27,4.27,0,0,1,1-3.05,4.52,4.52,0,0,1,5.78,0,5.26,5.26,0,0,1,0,6.13,4.49,4.49,0,0,1-5.78,0A4.29,4.29,0,0,1,356.31,101.9Zm3.89-2.34q-1.62,0-1.62,2.33t1.61,2.33a1.38,1.38,0,0,0,1.22-.56,4.1,4.1,0,0,0,0-3.52A1.37,1.37,0,0,0,360.2,99.56Z"/><path class="cls-2" d="M373.11,97.92v8h-2.83l-2.92-5.62h0q.1,1.37.1,2v3.6h-1.91v-8h2.82l2.9,5.55h0q-.08-1.17-.08-1.94V97.92Z"/><path class="cls-2" d="M377.93,103.08h-1.68v-.47a1.72,1.72,0,0,1,.21-.9,2.2,2.2,0,0,1,.73-.69,3.19,3.19,0,0,0,.7-.55.74.74,0,0,0,.19-.48.43.43,0,0,0-.21-.39,1,1,0,0,0-.54-.13,4.24,4.24,0,0,0-1.93.58l-.76-1.49a5.65,5.65,0,0,1,2.84-.78,3.05,3.05,0,0,1,1.91.54,1.75,1.75,0,0,1,.69,1.46,2.08,2.08,0,0,1-.31,1.14,3,3,0,0,1-.94.89,4,4,0,0,0-.77.58.63.63,0,0,0-.14.4Zm.37,1.91a1,1,0,0,1-.3.77,1.19,1.19,0,0,1-.84.28,1.21,1.21,0,0,1-.84-.27,1.16,1.16,0,0,1,0-1.55,1.21,1.21,0,0,1,.85-.27,1.19,1.19,0,0,1,.85.28A1,1,0,0,1,378.3,105Z"/><path class="cls-2" d="M259.44,221.76h2.16v4.8a3.23,3.23,0,0,1-.89,2.43,3.5,3.5,0,0,1-2.54.86,3.57,3.57,0,0,1-2.54-.83,3.18,3.18,0,0,1-.87-2.41v-4.85h2.17v4.68a2,2,0,0,0,.31,1.23,1.16,1.16,0,0,0,1,.39,1.12,1.12,0,0,0,.94-.38,2,2,0,0,0,.3-1.24Z"/><path class="cls-2" d="M262.91,227.43a6.17,6.17,0,0,0,1.3.5,4.68,4.68,0,0,0,1.16.17,1.33,1.33,0,0,0,.74-.16.5.5,0,0,0,.23-.43.46.46,0,0,0-.09-.29A1.19,1.19,0,0,0,266,227q-.18-.12-1-.51a5.49,5.49,0,0,1-1.22-.7A2.21,2.21,0,0,1,263,224a2.07,2.07,0,0,1,.8-1.74,3.55,3.55,0,0,1,2.21-.62,6.2,6.2,0,0,1,2.53.58l-.66,1.66a4.8,4.8,0,0,0-1.94-.51,1.06,1.06,0,0,0-.6.14.43.43,0,0,0-.2.37.53.53,0,0,0,.25.42,8.76,8.76,0,0,0,1.29.66,3.73,3.73,0,0,1,1.45,1,2.11,2.11,0,0,1,.41,1.33,2.24,2.24,0,0,1-.85,1.84,3.43,3.43,0,0,1-2.28.7,6.62,6.62,0,0,1-1.36-.12,5,5,0,0,1-1.11-.39Z"/><path class="cls-2" d="M274.47,228v1.76h-4.74v-8h4.74v1.73h-2.58v1.26h2.39v1.73h-2.39V228Z"/><path class="cls-2" d="M278.73,227.43a6.17,6.17,0,0,0,1.3.5,4.68,4.68,0,0,0,1.16.17,1.33,1.33,0,0,0,.74-.16.5.5,0,0,0,.23-.43.46.46,0,0,0-.09-.29,1.19,1.19,0,0,0-.28-.24q-.18-.12-1-.51a5.49,5.49,0,0,1-1.22-.7,2.21,2.21,0,0,1-.76-1.77,2.07,2.07,0,0,1,.8-1.74,3.55,3.55,0,0,1,2.21-.62,6.2,6.2,0,0,1,2.53.58l-.66,1.66a4.8,4.8,0,0,0-1.94-.51,1.06,1.06,0,0,0-.6.14.43.43,0,0,0-.2.37.53.53,0,0,0,.25.42,8.76,8.76,0,0,0,1.29.66,3.73,3.73,0,0,1,1.45,1,2.11,2.11,0,0,1,.41,1.33,2.24,2.24,0,0,1-.85,1.84,3.43,3.43,0,0,1-2.28.7,6.62,6.62,0,0,1-1.36-.12,5,5,0,0,1-1.11-.39Z"/><path class="cls-2" d="M288.58,227.69a12.41,12.41,0,0,1,.35-1.86l1.11-4.07h2.42l-2.62,8h-2.54l-2.6-8h2.43l1.09,4A12.38,12.38,0,0,1,288.58,227.69Z"/><path class="cls-2" d="M296.41,226.74v-1.66h3.45v4.3a9.45,9.45,0,0,1-3.08.48,3.74,3.74,0,0,1-2.85-1.07,4.24,4.24,0,0,1-1-3,4.06,4.06,0,0,1,1.1-3,4.23,4.23,0,0,1,3.09-1.08,6.33,6.33,0,0,1,2.58.5l-.68,1.69a4.11,4.11,0,0,0-1.85-.42,1.86,1.86,0,0,0-1.51.61,2.64,2.64,0,0,0-.52,1.74,2.72,2.72,0,0,0,.47,1.72,1.62,1.62,0,0,0,1.35.59,3.6,3.6,0,0,0,.88-.1v-1.25Z"/><path class="cls-2" d="M347,214.56h2.16v4.8a3.23,3.23,0,0,1-.89,2.43,3.5,3.5,0,0,1-2.54.86,3.57,3.57,0,0,1-2.54-.83,3.18,3.18,0,0,1-.87-2.41v-4.85h2.17v4.68a2,2,0,0,0,.31,1.23,1.16,1.16,0,0,0,1,.39,1.12,1.12,0,0,0,.94-.38,2,2,0,0,0,.3-1.24Z"/><path class="cls-2" d="M350.42,220.23a6.17,6.17,0,0,0,1.3.5,4.68,4.68,0,0,0,1.16.17,1.33,1.33,0,0,0,.74-.16.5.5,0,0,0,.23-.43.46.46,0,0,0-.09-.29,1.19,1.19,0,0,0-.28-.24q-.18-.12-1-.51a5.49,5.49,0,0,1-1.22-.7,2.21,2.21,0,0,1-.76-1.77,2.07,2.07,0,0,1,.8-1.74,3.55,3.55,0,0,1,2.21-.62A6.2,6.2,0,0,1,356,215l-.66,1.66a4.8,4.8,0,0,0-1.94-.51,1.06,1.06,0,0,0-.6.14.43.43,0,0,0-.2.37.53.53,0,0,0,.25.42,8.76,8.76,0,0,0,1.29.66,3.73,3.73,0,0,1,1.45,1,2.11,2.11,0,0,1,.41,1.33,2.24,2.24,0,0,1-.85,1.84,3.43,3.43,0,0,1-2.28.7,6.62,6.62,0,0,1-1.36-.12,5,5,0,0,1-1.11-.39Z"/><path class="cls-2" d="M362,220.79v1.76h-4.74v-8H362v1.73H359.4v1.26h2.39v1.73H359.4v1.5Z"/><path class="cls-2" d="M369.81,219.54v-1.66h3.45v4.3a9.45,9.45,0,0,1-3.08.48,3.74,3.74,0,0,1-2.85-1.07,4.24,4.24,0,0,1-1-3,4.06,4.06,0,0,1,1.1-3,4.23,4.23,0,0,1,3.09-1.08,6.33,6.33,0,0,1,2.58.5l-.68,1.69a4.11,4.11,0,0,0-1.85-.42,1.86,1.86,0,0,0-1.51.61,2.64,2.64,0,0,0-.52,1.74,2.72,2.72,0,0,0,.47,1.72,1.62,1.62,0,0,0,1.35.59,3.6,3.6,0,0,0,.88-.1v-1.25Z"/><path class="cls-2" d="M377.05,222.55h-2.17v-8h2.17Z"/><path class="cls-2" d="M380.9,219.55v3h-2.12v-8h4.72v1.73h-2.6v1.52h2.39v1.73Z"/><path class="cls-2" d="M387.75,218.54a4.27,4.27,0,0,1,1-3.05,4.52,4.52,0,0,1,5.78,0,5.26,5.26,0,0,1,0,6.13,4.49,4.49,0,0,1-5.78,0A4.29,4.29,0,0,1,387.75,218.54Zm3.89-2.34q-1.62,0-1.62,2.33t1.61,2.33a1.38,1.38,0,0,0,1.22-.56,3.1,3.1,0,0,0,.39-1.75,3.13,3.13,0,0,0-.4-1.76A1.37,1.37,0,0,0,391.64,216.21Z"/><path class="cls-2" d="M399.11,219.64v2.91H397v-8h2.62q3.26,0,3.26,2.36a2.36,2.36,0,0,1-1.36,2.15l2.33,3.48h-2.45l-1.69-2.91Zm0-3.45V218h.4q1.13,0,1.13-1,0-.83-1.11-.83Z"/><path class="cls-2" d="M345.49,229.36a3.35,3.35,0,0,1,2-.51,3.29,3.29,0,0,1,2,.51,1.68,1.68,0,0,1,.7,1.44,2.11,2.11,0,0,1-1.38,1.94,3.87,3.87,0,0,1,1.25,1,1.81,1.81,0,0,1,.36,1.07,2,2,0,0,1-.77,1.65,4.3,4.3,0,0,1-4.31,0,1.93,1.93,0,0,1-.75-1.64,2,2,0,0,1,.34-1.19,2.91,2.91,0,0,1,1.12-.88,2.35,2.35,0,0,1-1.22-2A1.66,1.66,0,0,1,345.49,229.36Zm1,5.4a.67.67,0,0,0,.24.55,1,1,0,0,0,.66.2q1,0,1-.7a.82.82,0,0,0-.22-.53,3.07,3.07,0,0,0-.75-.57Q346.52,234.17,346.52,234.76Zm1.44-3.35a.68.68,0,0,0,.15-.43.51.51,0,0,0-.19-.41.69.69,0,0,0-.46-.16.7.7,0,0,0-.47.16.52.52,0,0,0-.19.42q0,.48.64.83A1.85,1.85,0,0,0,348,231.41Z"/><path class="cls-2" d="M354.41,234.32h-3.08v-1.7h3.08Z"/><path class="cls-2" d="M355.88,236.95v-8h2.79a4.71,4.71,0,0,1,2.41.49,1.64,1.64,0,0,1,.79,1.5,1.9,1.9,0,0,1-.34,1.15,1.55,1.55,0,0,1-.91.61v.05a1.89,1.89,0,0,1,1.07.65,2,2,0,0,1,.34,1.2,2,2,0,0,1-.82,1.71,3.58,3.58,0,0,1-2.23.63ZM358,230.6V232h.65a1.17,1.17,0,0,0,.72-.19.67.67,0,0,0,.25-.57q0-.67-1-.67Zm.72,3H358v1.68h.76q1,0,1-.86a.74.74,0,0,0-.27-.61A1.24,1.24,0,0,0,358.75,233.61Z"/><path class="cls-2" d="M365.58,236.95h-2.17v-8h2.17Z"/><path class="cls-2" d="M370.83,230.73v6.22h-2.16v-6.22h-1.95V229h6v1.76Z"/><path class="cls-2" d="M379.91,229a3.4,3.4,0,0,1,2.26.65,2.41,2.41,0,0,1,.76,1.94,2.62,2.62,0,0,1-.79,2,3.19,3.19,0,0,1-2.24.73h-.61v2.65h-2.16v-8Zm-.61,1.74v1.84h.39a1.08,1.08,0,0,0,.78-.27,1,1,0,0,0,.28-.75q0-.81-.9-.81Z"/><path class="cls-2" d="M391.81,229v8H389l-2.92-5.62h0q.1,1.37.1,2v3.6h-1.91v-8H387l2.9,5.55h0q-.08-1.16-.08-1.94V229Z"/><path class="cls-2" d="M396.74,233.94v-1.66h3.45v4.3a9.45,9.45,0,0,1-3.08.48,3.74,3.74,0,0,1-2.85-1.07,4.24,4.24,0,0,1-1-3,4.06,4.06,0,0,1,1.1-3,4.23,4.23,0,0,1,3.09-1.08,6.33,6.33,0,0,1,2.58.5l-.68,1.69a4.11,4.11,0,0,0-1.85-.42,1.86,1.86,0,0,0-1.51.61,2.64,2.64,0,0,0-.52,1.74,2.72,2.72,0,0,0,.47,1.72,1.62,1.62,0,0,0,1.35.59,3.6,3.6,0,0,0,.88-.1v-1.25Z"/><path class="cls-2" d="M17.83,163.65a4.12,4.12,0,0,1-1.1,3.08,4.22,4.22,0,0,1-3.09,1.08H11v-8h2.77a4.16,4.16,0,0,1,3,1A3.71,3.71,0,0,1,17.83,163.65ZM13.69,166a1.74,1.74,0,0,0,1.44-.57,2.66,2.66,0,0,0,.46-1.7,2.62,2.62,0,0,0-.43-1.67,1.61,1.61,0,0,0-1.32-.53h-.62V166Z"/><path class="cls-2" d="M19,163.81a4.27,4.27,0,0,1,1-3.05,3.8,3.8,0,0,1,2.9-1,3.78,3.78,0,0,1,2.88,1,5.26,5.26,0,0,1,0,6.13,3.77,3.77,0,0,1-2.88,1A3.79,3.79,0,0,1,20,166.87,4.29,4.29,0,0,1,19,163.81Zm3.89-2.34q-1.62,0-1.62,2.33t1.61,2.33a1.38,1.38,0,0,0,1.22-.56,4.1,4.1,0,0,0,0-3.52A1.37,1.37,0,0,0,22.85,161.48Z"/><path class="cls-2" d="M35.33,167.82H33.16v-3.05l-2.63-4.93h2.35l1.37,3,1.38-3H38l-2.63,4.87Z"/><path class="cls-2" d="M38.31,163.81a4.27,4.27,0,0,1,1-3.05,3.8,3.8,0,0,1,2.9-1,3.78,3.78,0,0,1,2.88,1,5.26,5.26,0,0,1,0,6.13,3.77,3.77,0,0,1-2.88,1,3.79,3.79,0,0,1-2.89-1.06A4.29,4.29,0,0,1,38.31,163.81Zm3.89-2.34q-1.62,0-1.62,2.33t1.61,2.33a1.38,1.38,0,0,0,1.22-.56,4.1,4.1,0,0,0,0-3.52A1.37,1.37,0,0,0,42.2,161.48Z"/><path class="cls-2" d="M52.14,159.83H54.3v4.81a3.23,3.23,0,0,1-.89,2.43,3.5,3.5,0,0,1-2.54.86,3.57,3.57,0,0,1-2.54-.83,3.18,3.18,0,0,1-.87-2.41v-4.85h2.17v4.68a2,2,0,0,0,.31,1.23,1.15,1.15,0,0,0,1,.39,1.12,1.12,0,0,0,.94-.38,2,2,0,0,0,.3-1.24Z"/><path class="cls-2" d="M66.8,159.83v8H64l-2.92-5.62h0q.1,1.37.1,2v3.6H59.2v-8H62l2.9,5.55h0q-.08-1.16-.08-1.94v-3.61Z"/><path class="cls-2" d="M73.26,166.06v1.76H68.52v-8h4.74v1.74H70.68v1.25h2.39v1.73H70.68v1.5Z"/><path class="cls-2" d="M79.4,166.06v1.76H74.66v-8H79.4v1.74H76.82v1.25h2.39v1.73H76.82v1.5Z"/><path class="cls-2" d="M87.58,163.65a4.12,4.12,0,0,1-1.1,3.08,4.22,4.22,0,0,1-3.09,1.08H80.8v-8h2.77a4.16,4.16,0,0,1,3,1A3.71,3.71,0,0,1,87.58,163.65ZM83.44,166a1.74,1.74,0,0,0,1.44-.57,2.66,2.66,0,0,0,.46-1.7,2.62,2.62,0,0,0-.43-1.67,1.61,1.61,0,0,0-1.32-.53H83V166Z"/><path class="cls-2" d="M95.76,161.6v6.22H93.6V161.6H91.66v-1.77h6v1.77Z"/><path class="cls-2" d="M101,164.91v2.91H98.85v-8h2.61q3.26,0,3.26,2.36a2.36,2.36,0,0,1-1.36,2.15l2.33,3.48h-2.44l-1.69-2.91Zm0-3.45v1.83h.4q1.13,0,1.13-1,0-.82-1.11-.83Z"/><path class="cls-2" d="M113.67,167.82h-2.36l-.39-1.5h-2.6l-.4,1.5h-2.37l2.6-8H111Zm-4.9-3.26h1.7q-.75-2.84-.86-3.43Q109.49,161.87,108.77,164.55Z"/><path class="cls-2" d="M122.13,159.83v8H119.3l-2.92-5.62h0q.1,1.37.1,2v3.6h-1.91v-8h2.82l2.9,5.55h0q-.08-1.16-.08-1.94v-3.61Z"/><path class="cls-2" d="M123.48,165.5a6.19,6.19,0,0,0,1.3.5,4.7,4.7,0,0,0,1.16.17,1.33,1.33,0,0,0,.74-.16.5.5,0,0,0,.23-.43.46.46,0,0,0-.09-.29,1.17,1.17,0,0,0-.28-.24,10.81,10.81,0,0,0-1-.51,5.46,5.46,0,0,1-1.22-.7,2.21,2.21,0,0,1-.76-1.77,2.07,2.07,0,0,1,.8-1.74,3.55,3.55,0,0,1,2.21-.62,6.22,6.22,0,0,1,2.53.58l-.66,1.66a4.8,4.8,0,0,0-1.94-.51,1.06,1.06,0,0,0-.6.14.44.44,0,0,0-.2.37.53.53,0,0,0,.25.42,8.86,8.86,0,0,0,1.3.66,3.7,3.7,0,0,1,1.45,1,2.11,2.11,0,0,1,.41,1.33,2.24,2.24,0,0,1-.85,1.84,3.43,3.43,0,0,1-2.28.7,6.55,6.55,0,0,1-1.36-.12,5,5,0,0,1-1.11-.39Z"/><path class="cls-2" d="M133.07,159.83a3.39,3.39,0,0,1,2.26.66,2.41,2.41,0,0,1,.76,1.94,2.62,2.62,0,0,1-.79,2,3.2,3.2,0,0,1-2.24.73h-.61v2.64h-2.16v-8Zm-.61,1.74v1.84h.39a1.08,1.08,0,0,0,.78-.27,1,1,0,0,0,.29-.75q0-.81-.9-.81Z"/><path class="cls-2" d="M144.07,167.82h-2.36l-.39-1.5h-2.6l-.4,1.5H136l2.6-8h2.88Zm-4.9-3.26h1.7q-.75-2.84-.86-3.43Q139.89,161.87,139.18,164.55Z"/><path class="cls-2" d="M147.09,164.91v2.91h-2.16v-8h2.61q3.26,0,3.26,2.36a2.36,2.36,0,0,1-1.36,2.15l2.33,3.48h-2.44l-1.69-2.91Zm0-3.45v1.83h.4q1.13,0,1.13-1,0-.82-1.11-.83Z"/><path class="cls-2" d="M157.24,166.06v1.76H152.5v-8h4.74v1.74h-2.58v1.25h2.39v1.73h-2.39v1.5Z"/><path class="cls-2" d="M166.24,159.83v8h-2.83l-2.92-5.62h0q.1,1.37.1,2v3.6h-1.91v-8h2.82l2.9,5.55h0q-.08-1.16-.08-1.94v-3.61Z"/><path class="cls-2" d="M173.35,162a4.44,4.44,0,0,0-1.83-.49,1.38,1.38,0,0,0-1.21.63,3.05,3.05,0,0,0-.43,1.74q0,2.3,1.75,2.3a5.65,5.65,0,0,0,2-.5v1.82a5.51,5.51,0,0,1-2.26.44,3.58,3.58,0,0,1-2.77-1,4.33,4.33,0,0,1-1-3,4.71,4.71,0,0,1,.46-2.17,3.38,3.38,0,0,1,1.36-1.46,4,4,0,0,1,2.06-.5,5.62,5.62,0,0,1,2.47.56Z"/><path class="cls-2" d="M179.16,167.82H177v-3.05l-2.63-4.93h2.35l1.37,3,1.38-3h2.34l-2.63,4.87Z"/><path class="cls-2" d="M186,165h-1.68v-.47a1.72,1.72,0,0,1,.22-.89,2.18,2.18,0,0,1,.73-.69,3.21,3.21,0,0,0,.7-.55.74.74,0,0,0,.19-.48.44.44,0,0,0-.21-.39,1,1,0,0,0-.54-.13,4.23,4.23,0,0,0-1.93.58l-.76-1.49a5.64,5.64,0,0,1,2.84-.78,3,3,0,0,1,1.91.54,1.75,1.75,0,0,1,.69,1.46,2.07,2.07,0,0,1-.31,1.14,3,3,0,0,1-.94.89,3.93,3.93,0,0,0-.77.58.62.62,0,0,0-.14.4Zm.37,1.91a1,1,0,0,1-.3.77,1.19,1.19,0,0,1-.84.28,1.21,1.21,0,0,1-.84-.27,1.16,1.16,0,0,1,0-1.55,1.21,1.21,0,0,1,.85-.27,1.19,1.19,0,0,1,.85.28A1,1,0,0,1,186.33,166.91Z"/><circle class="cls-2" cx="51.72" cy="225.75" r="15.85"/><path class="cls-1" d="M46.69,229.74H44.52v-3.05l-2.63-4.93h2.35l1.37,3,1.38-3h2.34l-2.63,4.87Z"/><path class="cls-1" d="M54.92,228v1.76H50.18v-8h4.74v1.74H52.34v1.26h2.39v1.73H52.34V228Z"/><path class="cls-1" d="M56,227.43a6.2,6.2,0,0,0,1.3.5,4.69,4.69,0,0,0,1.16.17,1.33,1.33,0,0,0,.74-.16.5.5,0,0,0,.23-.43.46.46,0,0,0-.09-.29A1.19,1.19,0,0,0,59,227a11.08,11.08,0,0,0-1-.51,5.47,5.47,0,0,1-1.22-.7A2.21,2.21,0,0,1,56,224a2.07,2.07,0,0,1,.8-1.74,3.55,3.55,0,0,1,2.21-.62,6.22,6.22,0,0,1,2.53.58l-.66,1.66a4.8,4.8,0,0,0-1.94-.51,1.05,1.05,0,0,0-.6.14.43.43,0,0,0-.2.37.53.53,0,0,0,.25.42,8.69,8.69,0,0,0,1.29.66,3.72,3.72,0,0,1,1.45,1,2.11,2.11,0,0,1,.41,1.33,2.24,2.24,0,0,1-.85,1.84,3.43,3.43,0,0,1-2.28.7,6.55,6.55,0,0,1-1.36-.12,5,5,0,0,1-1.11-.39Z"/><circle class="cls-2" cx="147.45" cy="225.75" r="15.85"/><path class="cls-1" d="M146.65,221.76v8h-2.83l-2.92-5.62h0q.1,1.37.1,2v3.6H139v-8h2.82l2.9,5.55h0q-.08-1.17-.08-1.94v-3.61Z"/><path class="cls-1" d="M148.08,225.74a4.27,4.27,0,0,1,1-3.05,4.52,4.52,0,0,1,5.78,0,5.26,5.26,0,0,1,0,6.13,4.49,4.49,0,0,1-5.78,0A4.29,4.29,0,0,1,148.08,225.74Zm3.89-2.34q-1.62,0-1.62,2.33t1.61,2.33a1.38,1.38,0,0,0,1.22-.56,4.1,4.1,0,0,0,0-3.52A1.37,1.37,0,0,0,152,223.41Z"/><path class="cls-2" d="M31.41,279.81h2.16v4.8a3.23,3.23,0,0,1-.89,2.43,3.5,3.5,0,0,1-2.54.86,3.57,3.57,0,0,1-2.54-.83,3.18,3.18,0,0,1-.87-2.41v-4.85H28.9v4.68a2,2,0,0,0,.31,1.23,1.16,1.16,0,0,0,1,.39,1.12,1.12,0,0,0,.94-.38,2,2,0,0,0,.3-1.24Z"/><path class="cls-2" d="M34.87,285.48a6.17,6.17,0,0,0,1.3.5,4.68,4.68,0,0,0,1.16.17,1.33,1.33,0,0,0,.74-.16.5.5,0,0,0,.23-.43.46.46,0,0,0-.09-.29,1.19,1.19,0,0,0-.28-.24q-.18-.12-1-.51a5.49,5.49,0,0,1-1.22-.7,2.21,2.21,0,0,1-.76-1.77,2.07,2.07,0,0,1,.8-1.74,3.55,3.55,0,0,1,2.21-.62,6.2,6.2,0,0,1,2.53.58l-.66,1.66a4.8,4.8,0,0,0-1.94-.51,1.06,1.06,0,0,0-.6.14.43.43,0,0,0-.2.37.53.53,0,0,0,.25.42,8.76,8.76,0,0,0,1.29.66,3.73,3.73,0,0,1,1.45,1,2.11,2.11,0,0,1,.41,1.33,2.24,2.24,0,0,1-.85,1.84,3.43,3.43,0,0,1-2.28.7,6.62,6.62,0,0,1-1.36-.12,5,5,0,0,1-1.11-.39Z"/><path class="cls-2" d="M46.44,286v1.76H41.7v-8h4.74v1.73H43.86v1.26h2.39v1.73H43.86V286Z"/><path class="cls-2" d="M53.19,284.8v3H51.07v-8h4.72v1.73h-2.6v1.52h2.39v1.73Z"/><path class="cls-2" d="M61.72,279.81h2.16v4.8A3.23,3.23,0,0,1,63,287a3.5,3.5,0,0,1-2.54.86,3.57,3.57,0,0,1-2.54-.83,3.18,3.18,0,0,1-.87-2.41v-4.85h2.17v4.68a2,2,0,0,0,.31,1.23,1.16,1.16,0,0,0,1,.39,1.12,1.12,0,0,0,.94-.38,2,2,0,0,0,.3-1.24Z"/><path class="cls-2" d="M70.79,287.79H65.56v-8h2.16v6.24h3.07Z"/><path class="cls-2" d="M77.3,287.79H72.07v-8h2.16v6.24H77.3Z"/><path class="cls-2" d="M24.77,296.36a4.42,4.42,0,0,0-1.83-.49,1.38,1.38,0,0,0-1.21.63,3.05,3.05,0,0,0-.43,1.74q0,2.3,1.75,2.3a5.67,5.67,0,0,0,2-.5v1.82a5.5,5.5,0,0,1-2.26.44,3.58,3.58,0,0,1-2.77-1,4.34,4.34,0,0,1-1-3,4.7,4.7,0,0,1,.46-2.17,3.38,3.38,0,0,1,1.36-1.46,3.94,3.94,0,0,1,2.06-.5,5.62,5.62,0,0,1,2.47.56Z"/><path class="cls-2" d="M26.12,298.19a4.27,4.27,0,0,1,1-3.05,3.81,3.81,0,0,1,2.9-1,3.78,3.78,0,0,1,2.88,1,5.25,5.25,0,0,1,0,6.13,3.77,3.77,0,0,1-2.88,1,3.79,3.79,0,0,1-2.89-1.06A4.28,4.28,0,0,1,26.12,298.19ZM30,295.85q-1.62,0-1.62,2.33T30,300.51a1.39,1.39,0,0,0,1.22-.56,4.09,4.09,0,0,0,0-3.52A1.36,1.36,0,0,0,30,295.85Z"/><path class="cls-2" d="M40.55,302.19H35.32v-8h2.16v6.24h3.07Z"/><path class="cls-2" d="M41.32,298.19a4.27,4.27,0,0,1,1-3.05,3.8,3.8,0,0,1,2.9-1,3.78,3.78,0,0,1,2.88,1,5.26,5.26,0,0,1,0,6.13,3.77,3.77,0,0,1-2.88,1,3.79,3.79,0,0,1-2.89-1.06A4.29,4.29,0,0,1,41.32,298.19Zm3.89-2.34q-1.62,0-1.62,2.33t1.61,2.33a1.38,1.38,0,0,0,1.22-.56,3.1,3.1,0,0,0,.39-1.75,3.13,3.13,0,0,0-.4-1.76A1.37,1.37,0,0,0,45.21,295.85Z"/><path class="cls-2" d="M52.68,299.29v2.91H50.52v-8h2.62q3.26,0,3.26,2.36A2.36,2.36,0,0,1,55,298.72l2.33,3.48H54.92l-1.69-2.91Zm0-3.45v1.83h.4q1.13,0,1.13-1,0-.83-1.11-.83Z"/><path class="cls-2" d="M64.08,294.21a3.4,3.4,0,0,1,2.26.65,2.41,2.41,0,0,1,.76,1.94,2.62,2.62,0,0,1-.79,2,3.19,3.19,0,0,1-2.24.73h-.61v2.65H61.31v-8ZM63.47,296v1.84h.39a1.08,1.08,0,0,0,.78-.27,1,1,0,0,0,.28-.75q0-.81-.9-.81Z"/><path class="cls-2" d="M76,294.21v8H73.15l-2.92-5.62h0q.1,1.37.1,2v3.6H68.38v-8H71.2l2.9,5.55h0q-.08-1.16-.08-1.94v-3.61Z"/><path class="cls-2" d="M80.91,299.19v-1.66h3.45v4.3a9.45,9.45,0,0,1-3.08.48,3.74,3.74,0,0,1-2.85-1.07,4.24,4.24,0,0,1-1-3,4.06,4.06,0,0,1,1.1-3,4.23,4.23,0,0,1,3.09-1.08,6.33,6.33,0,0,1,2.58.5l-.68,1.69a4.11,4.11,0,0,0-1.85-.42,1.86,1.86,0,0,0-1.51.61,2.64,2.64,0,0,0-.52,1.74,2.72,2.72,0,0,0,.47,1.72,1.62,1.62,0,0,0,1.35.59,3.6,3.6,0,0,0,.88-.1v-1.25Z"/><path class="cls-2" d="M128.06,285.81h2.16v4.8a3.23,3.23,0,0,1-.89,2.43,3.5,3.5,0,0,1-2.54.86,3.57,3.57,0,0,1-2.54-.83,3.18,3.18,0,0,1-.87-2.41v-4.85h2.17v4.68a2,2,0,0,0,.31,1.23,1.16,1.16,0,0,0,1,.39,1.12,1.12,0,0,0,.94-.38,2,2,0,0,0,.3-1.24Z"/><path class="cls-2" d="M131.52,291.48a6.17,6.17,0,0,0,1.3.5,4.68,4.68,0,0,0,1.16.17,1.33,1.33,0,0,0,.74-.16.5.5,0,0,0,.23-.43.46.46,0,0,0-.09-.29,1.19,1.19,0,0,0-.28-.24q-.18-.12-1-.51a5.49,5.49,0,0,1-1.22-.7,2.21,2.21,0,0,1-.76-1.77,2.07,2.07,0,0,1,.8-1.74,3.55,3.55,0,0,1,2.21-.62,6.2,6.2,0,0,1,2.53.58l-.66,1.66a4.8,4.8,0,0,0-1.94-.51,1.06,1.06,0,0,0-.6.14.43.43,0,0,0-.2.37.53.53,0,0,0,.25.42,8.76,8.76,0,0,0,1.29.66,3.73,3.73,0,0,1,1.45,1,2.11,2.11,0,0,1,.41,1.33,2.24,2.24,0,0,1-.85,1.84,3.43,3.43,0,0,1-2.28.7,6.62,6.62,0,0,1-1.36-.12,5,5,0,0,1-1.11-.39Z"/><path class="cls-2" d="M143.08,292v1.76h-4.74v-8h4.74v1.73h-2.58v1.26h2.39v1.73h-2.39V292Z"/><path class="cls-2" d="M146,294.51a3.92,3.92,0,0,0,.8.12.87.87,0,0,0,.76-.32,2,2,0,0,0,.23-1.1v-7.39h2.17V293a3.69,3.69,0,0,1-.71,2.46,2.66,2.66,0,0,1-2.13.83,5.18,5.18,0,0,1-1.12-.12Z"/><path class="cls-2" d="M154.42,285.81a3.4,3.4,0,0,1,2.26.65,2.41,2.41,0,0,1,.76,1.94,2.62,2.62,0,0,1-.79,2,3.19,3.19,0,0,1-2.24.73h-.61v2.65h-2.16v-8Zm-.61,1.74v1.84h.39a1.08,1.08,0,0,0,.78-.27,1,1,0,0,0,.28-.75q0-.81-.9-.81Z"/><path class="cls-2" d="M163.46,292v1.76h-4.74v-8h4.74v1.73h-2.58v1.26h2.39v1.73h-2.39V292Z"/><path class="cls-2" d="M168.06,290.79v-1.66h3.45v4.3a9.45,9.45,0,0,1-3.08.48,3.74,3.74,0,0,1-2.85-1.07,4.24,4.24,0,0,1-1-3,4.06,4.06,0,0,1,1.1-3,4.23,4.23,0,0,1,3.09-1.08,6.33,6.33,0,0,1,2.58.5l-.68,1.69a4.11,4.11,0,0,0-1.85-.42,1.86,1.86,0,0,0-1.51.61,2.64,2.64,0,0,0-.52,1.74,2.72,2.72,0,0,0,.47,1.72,1.62,1.62,0,0,0,1.35.59,3.6,3.6,0,0,0,.88-.1v-1.25Z"/></svg>