<svg id="Layer_1" data-name="Layer 1" xmlns="http://www.w3.org/2000/svg" viewBox="0 0 410.63 308"><defs><style>.cls-1{fill:#f3a712}.cls-2{fill:#ba1200}</style></defs><title>flowchart</title><path class="cls-1" d="M402.63 208.75H374v-45.92h-47.82v-47.25H383a8 8 0 0 0 8-8V96.25a8 8 0 0 0-8-8H267.34a8 8 0 0 0-8 8v4.67H148.45V53.67h102.66a8 8 0 0 0 8-8V8a8 8 0 0 0-8-8H43.78a8 8 0 0 0-8 8v37.67a8 8 0 0 0 8 8h102.67v47.25H98.58v49.25H8a8 8 0 0 0-8 8v11.33a8 8 0 0 0 8 8h90.58v47.25H50.72V274H18.36a8 8 0 0 0-8 8v18a8 8 0 0 0 8 8h66.72a8 8 0 0 0 8-8v-18a8 8 0 0 0-8-8H52.72v-47.25h93.73V274H123a8 8 0 0 0-8 8v18a8 8 0 0 0 8 8h48.94a8 8 0 0 0 8-8v-18a8 8 0 0 0-8-8h-23.49v-49.25h-47.87V177.5h90.58a8 8 0 0 0 8-8v-11.33a8 8 0 0 0-8-8h-90.58v-47.25h158.76v4.67a8 8 0 0 0 8 8h56.83v47.25h-47.86v45.92h-28.59a8 8 0 0 0-8 8v18a8 8 0 0 0 8 8h59.18a8 8 0 0 0 8-8v-18a8 8 0 0 0-8-8h-28.59v-43.93H372v43.92h-28.55a8 8 0 0 0-8 8v18a8 8 0 0 0 8 8h59.18a8 8 0 0 0 8-8v-18a8 8 0 0 0-8-8z"/><path class="cls-2" d="M79.72 11.07a4.12 4.12 0 0 1-1.1 3.08 4.22 4.22 0 0 1-3.09 1.08h-2.59v-8h2.77a4.16 4.16 0 0 1 3 1 3.71 3.71 0 0 1 1.01 2.84zm-4.14 2.39a1.74 1.74 0 0 0 1.42-.57 2.66 2.66 0 0 0 .46-1.7A2.62 2.62 0 0 0 77 9.52 1.61 1.61 0 0 0 75.73 9h-.63v4.47zm5.28-2.23a4.27 4.27 0 0 1 1-3.05 4.52 4.52 0 0 1 5.78 0 4.3 4.3 0 0 1 1 3.06 4.31 4.31 0 0 1-1 3.07 4.49 4.49 0 0 1-5.78 0 4.29 4.29 0 0 1-1-3.08zm3.89-2.34q-1.62 0-1.62 2.33t1.61 2.33A1.39 1.39 0 0 0 86 13a3.1 3.1 0 0 0 .39-1.75A3.12 3.12 0 0 0 86 9.47a1.37 1.37 0 0 0-1.25-.58zm10.05 4.58v1.76h-4.74v-8h4.74V9h-2.58v1.26h2.39V12h-2.39v1.5zm1.03-.55a6.21 6.21 0 0 0 1.3.5 4.7 4.7 0 0 0 1.16.17 1.33 1.33 0 0 0 .74-.16.5.5 0 0 0 .23-.43.46.46 0 0 0-.09-.29 1.19 1.19 0 0 0-.28-.24 10.81 10.81 0 0 0-1-.51 5.48 5.48 0 0 1-1.22-.7 2.21 2.21 0 0 1-.76-1.77 2.07 2.07 0 0 1 .8-1.74 3.55 3.55 0 0 1 2.21-.62 6.22 6.22 0 0 1 2.53.58l-.66 1.66a4.8 4.8 0 0 0-1.94-.51 1.05 1.05 0 0 0-.6.14.43.43 0 0 0-.2.37.53.53 0 0 0 .25.42 8.79 8.79 0 0 0 1.3.66 3.71 3.71 0 0 1 1.45 1 2.11 2.11 0 0 1 .41 1.33 2.23 2.23 0 0 1-.85 1.84 3.43 3.43 0 0 1-2.28.7 6.55 6.55 0 0 1-1.36-.12 5 5 0 0 1-1.11-.39zM109.41 9v6.22h-2.16V9h-1.95V7.25h6V9zm9.92-1.75v8h-2.17V12h-2.51v3.25h-2.17v-8h2.17v3h2.51v-3zm6.46 6.22v1.76h-4.74v-8h4.74V9h-2.58v1.26h2.39V12h-2.39v1.5zm6.8 1.76h-2.17v-8h2.17zm8.84-3.5q0-.69.08-2.24l-1.61 5.74h-2.06l-1.63-5.75q.11 1.43.12 2.29v3.46h-1.91v-8h2.88l1.66 5.67 1.63-5.67h2.88v8h-2zm10.95 3.5H150l-.39-1.5H147l-.4 1.5h-2.37l2.6-8h2.88zM147.49 12h1.7q-.75-2.84-.86-3.43-.13.72-.84 3.43zm8.74.22v-1.66h3.45v4.3a9.43 9.43 0 0 1-3.08.48 3.74 3.74 0 0 1-2.85-1.07 4.24 4.24 0 0 1-1-3 4.06 4.06 0 0 1 1.1-3 4.23 4.23 0 0 1 3.09-1.08 6.34 6.34 0 0 1 2.58.5l-.68 1.69a4.1 4.1 0 0 0-1.84-.47 1.86 1.86 0 0 0-1.51.61 2.64 2.64 0 0 0-.52 1.74 2.72 2.72 0 0 0 .47 1.72 1.62 1.62 0 0 0 1.35.59 3.65 3.65 0 0 0 .88-.1v-1.25zm9.77 1.25v1.76h-4.7v-8h4.7V9h-2.58v1.26h2.39V12h-2.39v1.5zm10.05-4.07a4.44 4.44 0 0 0-1.83-.49 1.38 1.38 0 0 0-1.21.63 3.05 3.05 0 0 0-.43 1.74q0 2.3 1.75 2.3a5.65 5.65 0 0 0 2-.5v1.82a5.51 5.51 0 0 1-2.26.44 3.58 3.58 0 0 1-2.77-1 4.34 4.34 0 0 1-1-3 4.7 4.7 0 0 1 .46-2.17 3.38 3.38 0 0 1 1.36-1.46 4 4 0 0 1 2.06-.5 5.62 5.62 0 0 1 2.47.56zm1.35 1.83a4.27 4.27 0 0 1 1-3.05 4.52 4.52 0 0 1 5.78 0 4.3 4.3 0 0 1 1 3.06 4.31 4.31 0 0 1-1 3.07 4.49 4.49 0 0 1-5.78 0 4.29 4.29 0 0 1-1-3.08zm3.89-2.34q-1.62 0-1.62 2.33t1.61 2.33a1.39 1.39 0 0 0 1.22-.55 3.1 3.1 0 0 0 .39-1.75 3.12 3.12 0 0 0-.4-1.76 1.37 1.37 0 0 0-1.2-.6zm12.92-1.64v8h-2.83l-2.92-5.62q.1 1.37.1 2v3.6h-1.91v-8h2.82l2.9 5.55q-.08-1.17-.08-1.94V7.25zM199.46 9v6.22h-2.16V9h-1.95V7.25h6V9zm9.54 6.23h-2.36l-.39-1.5h-2.6l-.4 1.5h-2.37l2.6-8h2.88zM204.12 12h1.7q-.75-2.84-.86-3.43-.13.72-.84 3.43zm7.88 3.23h-2.17v-8H212zm9.37-7.98v8h-2.83l-2.92-5.62q.1 1.37.1 2v3.6h-1.91v-8h2.82l2.9 5.55q-.08-1.17-.08-1.94V7.25zM46 21.65a3.39 3.39 0 0 1 2.26.66 2.41 2.41 0 0 1 .74 1.93 2.62 2.62 0 0 1-.79 2A3.2 3.2 0 0 1 46 27h-.61v2.65h-2.14v-8zm-.61 1.74v1.84h.39a1.08 1.08 0 0 0 .78-.27 1 1 0 0 0 .29-.75q0-.81-.9-.81zm11.77-1.74v8H55v-3.27h-2.51v3.25h-2.17v-8h2.17v3H55v-3zm1.44 3.98a4.27 4.27 0 0 1 1-3.05 4.52 4.52 0 0 1 5.78 0 4.3 4.3 0 0 1 1 3.06 4.31 4.31 0 0 1-1 3.07 4.49 4.49 0 0 1-5.78 0 4.29 4.29 0 0 1-1-3.08zm3.89-2.34q-1.62 0-1.62 2.33t1.61 2.33a1.39 1.39 0 0 0 1.22-.56 3.1 3.1 0 0 0 .39-1.75 3.12 3.12 0 0 0-.4-1.76 1.37 1.37 0 0 0-1.2-.59zm8.51.12v6.22h-2.17v-6.22h-1.95v-1.76h6v1.77zm2.56 2.22a4.27 4.27 0 0 1 1-3.05 4.52 4.52 0 0 1 5.78 0 4.3 4.3 0 0 1 1 3.06 4.31 4.31 0 0 1-1 3.07 4.49 4.49 0 0 1-5.78 0 4.29 4.29 0 0 1-1-3.08zm3.89-2.34q-1.62 0-1.62 2.33t1.61 2.33a1.39 1.39 0 0 0 1.22-.56 3.1 3.1 0 0 0 .34-1.76 3.12 3.12 0 0 0-.4-1.76 1.37 1.37 0 0 0-1.15-.58zM86 26.62V25h3.45v4.3a9.43 9.43 0 0 1-3.08.48 3.74 3.74 0 0 1-2.85-1.07 4.24 4.24 0 0 1-1-3 4.06 4.06 0 0 1 1.1-3 4.23 4.23 0 0 1 3.09-1.08 6.34 6.34 0 0 1 2.58.5l-.68 1.69a4.1 4.1 0 0 0-1.85-.42 1.86 1.86 0 0 0-1.51.61 2.64 2.64 0 0 0-.52 1.74 2.72 2.72 0 0 0 .47 1.72 1.62 1.62 0 0 0 1.35.59 3.65 3.65 0 0 0 .88-.1v-1.34zm7.19.11v2.91H91v-8h2.61q3.26 0 3.26 2.36a2.36 2.36 0 0 1-1.36 2.15l2.33 3.48h-2.41l-1.69-2.91zm0-3.45v1.83h.4q1.13 0 1.13-1 0-.82-1.11-.83z"/><path class="cls-2" d="M105.86 29.63h-2.36l-.39-1.5h-2.6l-.4 1.5h-2.37l2.6-8h2.88zM101 26.37h1.7q-.75-2.84-.86-3.43-.16.75-.84 3.43zm8.48-4.72a3.39 3.39 0 0 1 2.26.66 2.41 2.41 0 0 1 .76 1.94 2.62 2.62 0 0 1-.79 2 3.2 3.2 0 0 1-2.24.73h-.61v2.65h-2.16v-8zm-.61 1.74v1.84h.39A1.08 1.08 0 0 0 110 25a1 1 0 0 0 .29-.75q0-.81-.9-.81zm11.76-1.74v8h-2.17v-3.27H116v3.25h-2.17v-8H116v3h2.51v-3zm3.89 7.98h-2.17v-8h2.17zm7.11-5.83a4.44 4.44 0 0 0-1.83-.49 1.38 1.38 0 0 0-1.21.63 3.05 3.05 0 0 0-.43 1.74q0 2.3 1.75 2.3a5.65 5.65 0 0 0 2-.5v1.82a5.51 5.51 0 0 1-2.26.44 3.58 3.58 0 0 1-2.77-1 4.34 4.34 0 0 1-1-3 4.7 4.7 0 0 1 .46-2.17 3.38 3.38 0 0 1 1.43-1.57 4 4 0 0 1 2.06-.5 5.62 5.62 0 0 1 2.47.56zm10.49 0a4.44 4.44 0 0 0-1.83-.49 1.38 1.38 0 0 0-1.21.63 3.05 3.05 0 0 0-.43 1.74q0 2.3 1.75 2.3a5.65 5.65 0 0 0 2-.5v1.82a5.51 5.51 0 0 1-2.26.44 3.58 3.58 0 0 1-2.77-1 4.34 4.34 0 0 1-1-3 4.7 4.7 0 0 1 .46-2.17 3.38 3.38 0 0 1 1.42-1.57 4 4 0 0 1 2.06-.5 5.62 5.62 0 0 1 2.47.56zm1.35 1.83a4.27 4.27 0 0 1 1-3.05 4.52 4.52 0 0 1 5.78 0 4.3 4.3 0 0 1 1 3.06 4.31 4.31 0 0 1-1 3.07 4.49 4.49 0 0 1-5.78 0 4.29 4.29 0 0 1-1-3.08zm3.89-2.34q-1.62 0-1.62 2.33t1.61 2.33a1.39 1.39 0 0 0 1.22-.56 3.1 3.1 0 0 0 .39-1.75 3.12 3.12 0 0 0-.4-1.76 1.37 1.37 0 0 0-1.2-.59zm12.91-1.64v8h-2.83L154.53 24q.1 1.37.1 2v3.6h-1.91v-8h2.82l2.9 5.55q-.08-1.17-.08-1.94v-3.56zm5.25 1.76v6.22h-2.16v-6.22h-1.95v-1.76h6v1.77zm7.82 4.46v1.76h-4.74v-8h4.74v1.74h-2.58v1.26h2.39v1.73h-2.39v1.5zm9.01-6.22v8h-2.83L176.6 24q.1 1.37.1 2v3.6h-1.91v-8h2.82l2.9 5.55q-.08-1.17-.08-1.94v-3.56zm5.24 1.76v6.22h-2.16v-6.22h-1.95v-1.76h6v1.77zm6.02 2.22a4.27 4.27 0 0 1 1-3.05 4.52 4.52 0 0 1 5.78 0 4.3 4.3 0 0 1 1 3.06 4.31 4.31 0 0 1-1 3.07 4.49 4.49 0 0 1-5.78 0 4.29 4.29 0 0 1-1-3.08zm3.89-2.34q-1.62 0-1.62 2.33t1.61 2.33a1.39 1.39 0 0 0 1.22-.56 3.1 3.1 0 0 0 .39-1.75 3.12 3.12 0 0 0-.4-1.76 1.37 1.37 0 0 0-1.2-.59zm7.5 3.44v2.91h-2.16v-8h2.61q3.26 0 3.26 2.36a2.36 2.36 0 0 1-1.36 2.15l2.33 3.48h-2.44l-1.69-2.91zm0-3.45v1.83h.4q1.13 0 1.13-1 0-.82-1.11-.83zm15.38 2.19a4.12 4.12 0 0 1-1.1 3.08 4.22 4.22 0 0 1-3.09 1.08h-2.58v-8h2.77a4.16 4.16 0 0 1 3 1 3.71 3.71 0 0 1 1 2.84zm-4.14 2.39a1.74 1.74 0 0 0 1.44-.57 2.66 2.66 0 0 0 .46-1.7 2.62 2.62 0 0 0-.43-1.67 1.61 1.61 0 0 0-1.32-.53h-.62v4.47zm10.31.01v1.76h-4.74v-8h4.74v1.74H224v1.26h2.39v1.73H224v1.5zm4.17-6.22a3.39 3.39 0 0 1 2.26.66 2.41 2.41 0 0 1 .76 1.94 2.62 2.62 0 0 1-.79 2 3.2 3.2 0 0 1-2.24.73h-.61v2.65H228v-8zm-.61 1.74v1.84h.39a1.08 1.08 0 0 0 .78-.27 1 1 0 0 0 .29-.75q0-.81-.9-.81zm7.08 6.24H235v-8h2.17zm7.11-5.83a4.44 4.44 0 0 0-1.83-.49 1.38 1.38 0 0 0-1.21.63 3.05 3.05 0 0 0-.43 1.74q0 2.3 1.75 2.3a5.65 5.65 0 0 0 2-.5v1.82a5.51 5.51 0 0 1-2.26.44 3.58 3.58 0 0 1-2.77-1 4.34 4.34 0 0 1-1-3 4.7 4.7 0 0 1 .46-2.17 3.38 3.38 0 0 1 1.43-1.57 4 4 0 0 1 2.06-.5 5.62 5.62 0 0 1 2.47.56zm5.4-.39v6.22h-2.16v-6.22h-1.95v-1.76h6v1.77zM73.38 44H71l-.39-1.5H68l-.4 1.5h-2.34l2.6-8h2.88zm-4.9-3.26h1.7q-.75-2.84-.86-3.43-.12.78-.84 3.46zM80.23 36a3.39 3.39 0 0 1 2.26.66 2.41 2.41 0 0 1 .76 1.94 2.62 2.62 0 0 1-.79 2 3.2 3.2 0 0 1-2.24.73h-.61V44h-2.14v-8zm-.61 1.74v1.84H80a1.08 1.08 0 0 0 .78-.27 1 1 0 0 0 .29-.75q0-.81-.9-.81zM91.38 36v8h-2.17v-3.22H86.7V44h-2.17v-8h2.17v3h2.51v-3zm1.43 4a4.27 4.27 0 0 1 1-3.05 4.52 4.52 0 0 1 5.78 0 4.3 4.3 0 0 1 1 3.06 4.31 4.31 0 0 1-1 3.07 4.49 4.49 0 0 1-5.78 0 4.29 4.29 0 0 1-1-3.08zm3.89-2.34q-1.62 0-1.62 2.33t1.61 2.33a1.39 1.39 0 0 0 1.22-.56A3.1 3.1 0 0 0 98.3 40a3.12 3.12 0 0 0-.4-1.76 1.37 1.37 0 0 0-1.2-.55zm8.5.15V44H103v-6.19h-1.9V36h6v1.77zm2.57 2.19a4.27 4.27 0 0 1 1-3.05 4.52 4.52 0 0 1 5.78 0 4.3 4.3 0 0 1 1 3.06 4.31 4.31 0 0 1-1 3.07 4.49 4.49 0 0 1-5.78 0 4.29 4.29 0 0 1-1-3.08zm3.89-2.34Q110 37.69 110 40t1.61 2.33a1.39 1.39 0 0 0 1.22-.56 3.1 3.1 0 0 0 .39-1.75 3.12 3.12 0 0 0-.4-1.76 1.37 1.37 0 0 0-1.16-.57zm7.47 3.47V44H117v-8h2.61q3.26 0 3.26 2.36a2.36 2.36 0 0 1-1.36 2.15l2.31 3.49h-2.44l-1.69-2.91zm0-3.45v1.83h.4q1.13 0 1.13-1 0-.82-1.11-.83zm10.15 4.59V44h-4.74v-8h4.74v1.74h-2.58V39h2.39v1.73h-2.39v1.5zm8.65 1.73h-2.36l-.39-1.5h-2.6l-.4 1.5h-2.37l2.6-8h2.88zM133 40.77h1.7q-.75-2.84-.86-3.43-.09.75-.84 3.43zM144 44h-5.2v-8h2.2v6.24h3zm3.47 0h-2.17v-8h2.17zm1.36-2.28a6.21 6.21 0 0 0 1.3.5 4.7 4.7 0 0 0 1.16.17 1.33 1.33 0 0 0 .74-.16.5.5 0 0 0 .23-.43.46.46 0 0 0-.09-.29 1.19 1.19 0 0 0-.28-.24 10.81 10.81 0 0 0-1-.51 5.48 5.48 0 0 1-1.22-.7 2.21 2.21 0 0 1-.76-1.77 2.07 2.07 0 0 1 .8-1.74 3.55 3.55 0 0 1 2.21-.62 6.22 6.22 0 0 1 2.53.58l-.66 1.66a4.8 4.8 0 0 0-1.94-.51 1.05 1.05 0 0 0-.6.14.43.43 0 0 0-.2.37.53.53 0 0 0 .25.42 8.79 8.79 0 0 0 1.3.66 3.71 3.71 0 0 1 1.45 1 2.11 2.11 0 0 1 .41 1.33 2.23 2.23 0 0 1-.85 1.84 3.43 3.43 0 0 1-2.28.7 6.55 6.55 0 0 1-1.36-.12 5 5 0 0 1-1.11-.39zm10.35-3.91V44H157v-6.19h-1.95V36h6v1.77zm5.25 6.19h-2.17v-8h2.17zm7.11-5.8a4.44 4.44 0 0 0-1.83-.49 1.38 1.38 0 0 0-1.21.63 3.05 3.05 0 0 0-.43 1.74q0 2.3 1.75 2.3a5.65 5.65 0 0 0 2-.5v1.82a5.51 5.51 0 0 1-2.26.44 3.58 3.58 0 0 1-2.77-1 4.34 4.34 0 0 1-1-3 4.7 4.7 0 0 1 .46-2.17 3.38 3.38 0 0 1 1.36-1.46 4 4 0 0 1 2.06-.5 5.62 5.62 0 0 1 2.47.56zm4.73 3.52a6.21 6.21 0 0 0 1.3.5 4.7 4.7 0 0 0 1.16.17 1.33 1.33 0 0 0 .74-.16.5.5 0 0 0 .23-.43.46.46 0 0 0-.09-.29 1.19 1.19 0 0 0-.28-.24 10.81 10.81 0 0 0-1-.51 5.48 5.48 0 0 1-1.22-.7 2.21 2.21 0 0 1-.76-1.77 2.07 2.07 0 0 1 .8-1.74 3.55 3.55 0 0 1 2.21-.62 6.22 6.22 0 0 1 2.53.58l-.66 1.66a4.8 4.8 0 0 0-1.94-.51 1.05 1.05 0 0 0-.6.14.43.43 0 0 0-.2.37.53.53 0 0 0 .25.42 8.79 8.79 0 0 0 1.3.66 3.71 3.71 0 0 1 1.45 1 2.11 2.11 0 0 1 .41 1.33 2.23 2.23 0 0 1-.85 1.84 3.43 3.43 0 0 1-2.28.7 6.55 6.55 0 0 1-1.36-.12 5 5 0 0 1-1.11-.39zM187.72 36h2.16v4.8a3.23 3.23 0 0 1-.89 2.43 3.5 3.5 0 0 1-2.54.86 3.57 3.57 0 0 1-2.54-.83 3.18 3.18 0 0 1-.87-2.41V36h2.17v4.68a2 2 0 0 0 .31 1.23 1.15 1.15 0 0 0 1 .39 1.12 1.12 0 0 0 .94-.38 2 2 0 0 0 .3-1.24zm3.84 8v-8h2.78a4.72 4.72 0 0 1 2.41.49 1.64 1.64 0 0 1 .79 1.5 1.9 1.9 0 0 1-.34 1.15 1.55 1.55 0 0 1-.91.61v.05a1.9 1.9 0 0 1 1.07.65 1.94 1.94 0 0 1 .34 1.2 2 2 0 0 1-.82 1.71 3.58 3.58 0 0 1-2.23.63zm2.16-6.35v1.43h.65a1.17 1.17 0 0 0 .72-.19.67.67 0 0 0 .25-.57q0-.67-1-.67zm.72 3h-.72v1.68h.76q1 0 1-.86a.73.73 0 0 0-.27-.61 1.24 1.24 0 0 0-.78-.17zm2.91 4.1a4 4 0 0 0 .8.12.87.87 0 0 0 .76-.32 2 2 0 0 0 .23-1.1V36h2.17v7.2a3.68 3.68 0 0 1-.71 2.46 2.65 2.65 0 0 1-2.13.83 5.12 5.12 0 0 1-1.12-.12zm10.42-2.48V44H203v-8h4.74v1.74h-2.58V39h2.39v1.73h-2.39v1.5zm6.79-4.07a4.44 4.44 0 0 0-1.83-.49 1.38 1.38 0 0 0-1.21.63 3.05 3.05 0 0 0-.43 1.74q0 2.3 1.75 2.3a5.65 5.65 0 0 0 2-.5v1.82a5.51 5.51 0 0 1-2.26.44 3.58 3.58 0 0 1-2.77-1 4.34 4.34 0 0 1-1-3 4.7 4.7 0 0 1 .46-2.17 3.38 3.38 0 0 1 1.36-1.46 4 4 0 0 1 2.06-.5 5.62 5.62 0 0 1 2.47.56zm5.39-.39V44h-2.16v-6.19h-1.95V36h6v1.77zm6.4 3.41h-1.68v-.47a1.72 1.72 0 0 1 .22-.9 2.18 2.18 0 0 1 .73-.69 3.2 3.2 0 0 0 .7-.55.73.73 0 0 0 .19-.48.43.43 0 0 0-.21-.39 1 1 0 0 0-.54-.13 4.24 4.24 0 0 0-1.93.58l-.76-1.49a5.64 5.64 0 0 1 2.84-.78 3 3 0 0 1 1.91.54 1.75 1.75 0 0 1 .69 1.46 2.08 2.08 0 0 1-.31 1.14 3 3 0 0 1-.94.89 4 4 0 0 0-.77.58.62.62 0 0 0-.14.4zm.37 1.91a1 1 0 0 1-.3.77 1.19 1.19 0 0 1-.84.28 1.21 1.21 0 0 1-.84-.27 1.15 1.15 0 0 1 0-1.55 1.21 1.21 0 0 1 .85-.27 1.19 1.19 0 0 1 .85.28 1 1 0 0 1 .28.76z"/><circle class="cls-2" cx="99.58" cy="101.92" r="15.85"/><path class="cls-1" d="M94.56 105.91h-2.17v-3.05l-2.63-4.93h2.35l1.37 3 1.38-3h2.34l-2.63 4.87zm8.22-1.76v1.76H98v-8h4.74v1.74h-2.58v1.26h2.39v1.73h-2.39v1.5zm1.03-.56a6.2 6.2 0 0 0 1.3.5 4.69 4.69 0 0 0 1.16.17 1.33 1.33 0 0 0 .74-.16.5.5 0 0 0 .23-.43.46.46 0 0 0-.09-.29 1.19 1.19 0 0 0-.28-.24 11.08 11.08 0 0 0-1-.51 5.47 5.47 0 0 1-1.22-.7 2.21 2.21 0 0 1-.76-1.77 2.07 2.07 0 0 1 .8-1.74 3.55 3.55 0 0 1 2.21-.62 6.22 6.22 0 0 1 2.53.58l-.66 1.66a4.8 4.8 0 0 0-1.94-.51 1.05 1.05 0 0 0-.6.14.43.43 0 0 0-.2.37.53.53 0 0 0 .25.42 8.69 8.69 0 0 0 1.29.66 3.72 3.72 0 0 1 1.45 1 2.11 2.11 0 0 1 .41 1.33 2.24 2.24 0 0 1-.85 1.84 3.43 3.43 0 0 1-2.28.7 6.55 6.55 0 0 1-1.36-.12 5 5 0 0 1-1.11-.39z"/><circle class="cls-2" cx="195.31" cy="101.92" r="15.85"/><path class="cls-1" d="M194.51 97.93v8h-2.83l-2.92-5.62q.1 1.37.1 2v3.6h-1.91v-8h2.82l2.9 5.55q-.08-1.17-.08-1.94v-3.59zm1.44 3.98a4.27 4.27 0 0 1 1-3.05 4.52 4.52 0 0 1 5.78 0 5.26 5.26 0 0 1 0 6.13 4.49 4.49 0 0 1-5.78 0 4.29 4.29 0 0 1-1-3.08zm3.89-2.34q-1.62 0-1.62 2.33t1.61 2.33a1.38 1.38 0 0 0 1.22-.56 4.1 4.1 0 0 0 0-3.52 1.37 1.37 0 0 0-1.22-.58z"/><circle class="cls-2" cx="277.31" cy="163.83" r="15.85"/><path class="cls-1" d="M272.29 167.83h-2.17v-3.05l-2.63-4.93h2.35l1.37 3 1.38-3h2.34l-2.63 4.87zm8.22-1.76v1.76h-4.74v-8h4.74v1.74h-2.58v1.26h2.39v1.73h-2.39v1.5zm1.03-.56a6.2 6.2 0 0 0 1.3.5 4.69 4.69 0 0 0 1.16.17 1.33 1.33 0 0 0 .74-.16.5.5 0 0 0 .23-.43.46.46 0 0 0-.09-.29 1.19 1.19 0 0 0-.28-.24 11.08 11.08 0 0 0-1-.51 5.47 5.47 0 0 1-1.22-.7 2.21 2.21 0 0 1-.76-1.77 2.07 2.07 0 0 1 .8-1.74 3.55 3.55 0 0 1 2.21-.62 6.22 6.22 0 0 1 2.53.58l-.66 1.66a4.8 4.8 0 0 0-1.94-.51 1.05 1.05 0 0 0-.6.14.43.43 0 0 0-.2.37.53.53 0 0 0 .25.42 8.69 8.69 0 0 0 1.29.66 3.72 3.72 0 0 1 1.45 1 2.11 2.11 0 0 1 .41 1.33 2.24 2.24 0 0 1-.85 1.84 3.43 3.43 0 0 1-2.28.7 6.55 6.55 0 0 1-1.36-.12 5 5 0 0 1-1.11-.39z"/><circle class="cls-2" cx="373.04" cy="163.83" r="15.85"/><path class="cls-1" d="M372.24 159.85v8h-2.83l-2.92-5.62q.1 1.37.1 2v3.6h-1.91v-8h2.82l2.9 5.55q-.08-1.17-.08-1.94v-3.61zm1.44 3.98a4.27 4.27 0 0 1 1-3.05 4.52 4.52 0 0 1 5.78 0 5.26 5.26 0 0 1 0 6.13 4.49 4.49 0 0 1-5.78 0 4.29 4.29 0 0 1-1-3.08zm3.89-2.34q-1.62 0-1.62 2.33t1.61 2.33a1.38 1.38 0 0 0 1.22-.56 4.1 4.1 0 0 0 0-3.52 1.37 1.37 0 0 0-1.22-.58z"/><path class="cls-2" d="M272.43 105.9h-2.17v-8h2.17zm1.36-2.32a6.24 6.24 0 0 0 1.3.5 4.69 4.69 0 0 0 1.16.17 1.33 1.33 0 0 0 .74-.16.5.5 0 0 0 .23-.43.46.46 0 0 0-.09-.29 1.21 1.21 0 0 0-.28-.24 10.81 10.81 0 0 0-1-.51 5.52 5.52 0 0 1-1.22-.7 2.21 2.21 0 0 1-.76-1.77 2.07 2.07 0 0 1 .8-1.74 3.55 3.55 0 0 1 2.21-.62 6.22 6.22 0 0 1 2.53.58l-.66 1.66a4.81 4.81 0 0 0-1.94-.51 1 1 0 0 0-.6.14.43.43 0 0 0-.2.37.53.53 0 0 0 .25.42 8.71 8.71 0 0 0 1.3.67 3.72 3.72 0 0 1 1.45 1 2.1 2.1 0 0 1 .41 1.33 2.23 2.23 0 0 1-.85 1.84 3.43 3.43 0 0 1-2.28.7 6.55 6.55 0 0 1-1.36-.12 5 5 0 0 1-1.11-.38zm9.68 0a6.22 6.22 0 0 0 1.3.5 4.69 4.69 0 0 0 1.16.17 1.34 1.34 0 0 0 .74-.16.5.5 0 0 0 .23-.43.46.46 0 0 0-.09-.29 1.21 1.21 0 0 0-.28-.24 11.08 11.08 0 0 0-1-.51 5.49 5.49 0 0 1-1.22-.7 2.21 2.21 0 0 1-.76-1.77 2.07 2.07 0 0 1 .8-1.74 3.55 3.55 0 0 1 2.21-.62 6.22 6.22 0 0 1 2.53.58l-.66 1.66a4.8 4.8 0 0 0-1.94-.51 1 1 0 0 0-.6.14.43.43 0 0 0-.2.37.53.53 0 0 0 .25.42 8.62 8.62 0 0 0 1.29.67 3.73 3.73 0 0 1 1.45 1 2.11 2.11 0 0 1 .41 1.33 2.24 2.24 0 0 1-.85 1.84 3.43 3.43 0 0 1-2.28.7 6.55 6.55 0 0 1-1.36-.12 5 5 0 0 1-1.11-.38zm9.85.26a12.41 12.41 0 0 1 .35-1.86l1.11-4.07h2.42l-2.62 8H292l-2.6-8h2.43l1.09 4a12.38 12.38 0 0 1 .4 1.93zm7.83-.95v-1.66h3.45v4.3a9.45 9.45 0 0 1-3.08.48 3.74 3.74 0 0 1-2.85-1.07 4.24 4.24 0 0 1-1-3 4.06 4.06 0 0 1 1.1-3 4.23 4.23 0 0 1 3.09-1.08 6.33 6.33 0 0 1 2.58.5l-.68 1.69a4.09 4.09 0 0 0-1.85-.42 1.86 1.86 0 0 0-1.51.61 2.63 2.63 0 0 0-.52 1.74 2.72 2.72 0 0 0 .47 1.72 1.62 1.62 0 0 0 1.35.59 3.65 3.65 0 0 0 .88-.1v-1.25zm15.56 3.01h-2.36l-.39-1.5h-2.6l-.4 1.5h-2.37l2.6-8h2.88zm-4.9-3.26h1.7q-.75-2.84-.86-3.43-.12.79-.84 3.43zm13.36-4.72v8h-2.83l-2.92-5.62q.1 1.37.1 2v3.6h-1.91v-8h2.82l2.9 5.55q-.08-1.17-.08-1.94v-3.59zm4.66 3.98a4.27 4.27 0 0 1 1-3.05 4.52 4.52 0 0 1 5.78 0 5.26 5.26 0 0 1 0 6.13 4.49 4.49 0 0 1-5.78 0 4.29 4.29 0 0 1-1-3.08zm3.89-2.34q-1.62 0-1.62 2.33t1.61 2.33a1.38 1.38 0 0 0 1.22-.56 4.1 4.1 0 0 0 0-3.52 1.37 1.37 0 0 0-1.21-.58zm8.08-1.64a3.4 3.4 0 0 1 2.26.66 2.41 2.41 0 0 1 .76 1.94 2.62 2.62 0 0 1-.79 2 3.19 3.19 0 0 1-2.24.73h-.61v2.65H339v-8zm-.61 1.74v1.84h.39a1.08 1.08 0 0 0 .78-.27 1 1 0 0 0 .28-.75q0-.81-.9-.81zm8.43.02v6.22h-2.16v-6.22h-1.95v-1.76h6v1.77zm5.25 6.22h-2.17v-8h2.17zm1.44-4a4.27 4.27 0 0 1 1-3.05 4.52 4.52 0 0 1 5.78 0 5.26 5.26 0 0 1 0 6.13 4.49 4.49 0 0 1-5.78 0 4.29 4.29 0 0 1-1-3.08zm3.89-2.34q-1.62 0-1.62 2.33t1.61 2.33a1.38 1.38 0 0 0 1.22-.56 4.1 4.1 0 0 0 0-3.52 1.37 1.37 0 0 0-1.21-.58zm12.91-1.64v8h-2.83l-2.92-5.62q.1 1.37.1 2v3.6h-1.91v-8h2.82l2.9 5.55q-.08-1.17-.08-1.94v-3.59zm4.82 5.16h-1.68v-.47a1.72 1.72 0 0 1 .21-.9 2.2 2.2 0 0 1 .73-.69 3.19 3.19 0 0 0 .7-.55.74.74 0 0 0 .19-.48.43.43 0 0 0-.21-.39 1 1 0 0 0-.54-.13 4.24 4.24 0 0 0-1.93.58l-.76-1.49a5.65 5.65 0 0 1 2.84-.78 3.05 3.05 0 0 1 1.91.54 1.75 1.75 0 0 1 .69 1.46 2.08 2.08 0 0 1-.31 1.14 3 3 0 0 1-.94.89 4 4 0 0 0-.77.58.63.63 0 0 0-.14.4zm.37 1.91a1 1 0 0 1-.3.77 1.19 1.19 0 0 1-.84.28 1.21 1.21 0 0 1-.84-.27 1.16 1.16 0 0 1 0-1.55 1.21 1.21 0 0 1 .85-.27 1.19 1.19 0 0 1 .85.28 1 1 0 0 1 .28.77zM259.44 221.76h2.16v4.8a3.23 3.23 0 0 1-.89 2.43 3.5 3.5 0 0 1-2.54.86 3.57 3.57 0 0 1-2.54-.83 3.18 3.18 0 0 1-.87-2.41v-4.85h2.17v4.68a2 2 0 0 0 .31 1.23 1.16 1.16 0 0 0 1 .39 1.12 1.12 0 0 0 .94-.38 2 2 0 0 0 .3-1.24zm3.47 5.67a6.17 6.17 0 0 0 1.3.5 4.68 4.68 0 0 0 1.16.17 1.33 1.33 0 0 0 .74-.16.5.5 0 0 0 .23-.43.46.46 0 0 0-.09-.29 1.19 1.19 0 0 0-.25-.22q-.18-.12-1-.51a5.49 5.49 0 0 1-1.22-.7A2.21 2.21 0 0 1 263 224a2.07 2.07 0 0 1 .8-1.74 3.55 3.55 0 0 1 2.21-.62 6.2 6.2 0 0 1 2.53.58l-.66 1.66a4.8 4.8 0 0 0-1.94-.51 1.06 1.06 0 0 0-.6.14.43.43 0 0 0-.2.37.53.53 0 0 0 .25.42 8.76 8.76 0 0 0 1.29.66 3.73 3.73 0 0 1 1.45 1 2.11 2.11 0 0 1 .41 1.33 2.24 2.24 0 0 1-.85 1.84 3.43 3.43 0 0 1-2.28.7 6.62 6.62 0 0 1-1.36-.12 5 5 0 0 1-1.11-.39zm11.56.57v1.76h-4.74v-8h4.74v1.73h-2.58v1.26h2.39v1.73h-2.39V228zm4.26-.57a6.17 6.17 0 0 0 1.3.5 4.68 4.68 0 0 0 1.16.17 1.33 1.33 0 0 0 .74-.16.5.5 0 0 0 .23-.43.46.46 0 0 0-.09-.29 1.19 1.19 0 0 0-.28-.24q-.18-.12-1-.51a5.49 5.49 0 0 1-1.22-.7 2.21 2.21 0 0 1-.76-1.77 2.07 2.07 0 0 1 .8-1.74 3.55 3.55 0 0 1 2.21-.62 6.2 6.2 0 0 1 2.53.58l-.66 1.66a4.8 4.8 0 0 0-1.94-.51 1.06 1.06 0 0 0-.6.14.43.43 0 0 0-.2.37.53.53 0 0 0 .25.42 8.76 8.76 0 0 0 1.29.66 3.73 3.73 0 0 1 1.45 1 2.11 2.11 0 0 1 .41 1.33 2.24 2.24 0 0 1-.85 1.84 3.43 3.43 0 0 1-2.28.7 6.62 6.62 0 0 1-1.36-.12 5 5 0 0 1-1.11-.39zm9.85.26a12.41 12.41 0 0 1 .35-1.86l1.11-4.07h2.42l-2.62 8h-2.54l-2.6-8h2.43l1.09 4a12.38 12.38 0 0 1 .36 1.93zm7.83-.95v-1.66h3.45v4.3a9.45 9.45 0 0 1-3.08.48 3.74 3.74 0 0 1-2.85-1.07 4.24 4.24 0 0 1-1-3 4.06 4.06 0 0 1 1.1-3 4.23 4.23 0 0 1 3.09-1.08 6.33 6.33 0 0 1 2.58.5l-.68 1.69a4.11 4.11 0 0 0-1.85-.42 1.86 1.86 0 0 0-1.51.61 2.64 2.64 0 0 0-.52 1.74 2.72 2.72 0 0 0 .47 1.72 1.62 1.62 0 0 0 1.35.59 3.6 3.6 0 0 0 .88-.1v-1.25zM347 214.56h2.16v4.8a3.23 3.23 0 0 1-.89 2.43 3.5 3.5 0 0 1-2.54.86 3.57 3.57 0 0 1-2.54-.83 3.18 3.18 0 0 1-.87-2.41v-4.85h2.17v4.68a2 2 0 0 0 .31 1.23 1.16 1.16 0 0 0 1 .39 1.12 1.12 0 0 0 .94-.38 2 2 0 0 0 .3-1.24zm3.42 5.67a6.17 6.17 0 0 0 1.3.5 4.68 4.68 0 0 0 1.16.17 1.33 1.33 0 0 0 .74-.16.5.5 0 0 0 .23-.43.46.46 0 0 0-.09-.29 1.19 1.19 0 0 0-.28-.24q-.18-.12-1-.51a5.49 5.49 0 0 1-1.22-.7 2.21 2.21 0 0 1-.76-1.77 2.07 2.07 0 0 1 .8-1.74 3.55 3.55 0 0 1 2.21-.62 6.2 6.2 0 0 1 2.49.56l-.66 1.66a4.8 4.8 0 0 0-1.94-.51 1.06 1.06 0 0 0-.6.14.43.43 0 0 0-.2.37.53.53 0 0 0 .25.42 8.76 8.76 0 0 0 1.29.66 3.73 3.73 0 0 1 1.45 1 2.11 2.11 0 0 1 .41 1.33 2.24 2.24 0 0 1-.85 1.84 3.43 3.43 0 0 1-2.28.7 6.62 6.62 0 0 1-1.36-.12 5 5 0 0 1-1.11-.39zm11.58.56v1.76h-4.74v-8H362v1.73h-2.6v1.26h2.39v1.73h-2.39v1.5zm7.81-1.25v-1.66h3.45v4.3a9.45 9.45 0 0 1-3.08.48 3.74 3.74 0 0 1-2.85-1.07 4.24 4.24 0 0 1-1-3 4.06 4.06 0 0 1 1.1-3 4.23 4.23 0 0 1 3.09-1.08 6.33 6.33 0 0 1 2.58.5l-.68 1.69a4.11 4.11 0 0 0-1.85-.42 1.86 1.86 0 0 0-1.51.61 2.64 2.64 0 0 0-.52 1.74 2.72 2.72 0 0 0 .47 1.72 1.62 1.62 0 0 0 1.35.59 3.6 3.6 0 0 0 .88-.1v-1.25zm7.24 3.01h-2.17v-8h2.17zm3.85-3v3h-2.12v-8h4.72v1.73h-2.6v1.52h2.39v1.73zm6.85-1.01a4.27 4.27 0 0 1 1-3.05 4.52 4.52 0 0 1 5.78 0 5.26 5.26 0 0 1 0 6.13 4.49 4.49 0 0 1-5.78 0 4.29 4.29 0 0 1-1-3.08zm3.89-2.34q-1.62 0-1.62 2.33t1.61 2.33a1.38 1.38 0 0 0 1.22-.56 3.1 3.1 0 0 0 .39-1.75 3.13 3.13 0 0 0-.4-1.76 1.37 1.37 0 0 0-1.2-.58zm7.47 3.44v2.91H397v-8h2.62q3.26 0 3.26 2.36a2.36 2.36 0 0 1-1.36 2.15l2.33 3.48h-2.45l-1.69-2.91zm0-3.45V218h.4q1.13 0 1.13-1 0-.83-1.11-.83zm-53.62 13.17a3.35 3.35 0 0 1 2-.51 3.29 3.29 0 0 1 2 .51 1.68 1.68 0 0 1 .7 1.44 2.11 2.11 0 0 1-1.38 1.94 3.87 3.87 0 0 1 1.25 1 1.81 1.81 0 0 1 .36 1.07 2 2 0 0 1-.77 1.65 4.3 4.3 0 0 1-4.31 0 1.93 1.93 0 0 1-.75-1.64 2 2 0 0 1 .34-1.19 2.91 2.91 0 0 1 1.12-.88 2.35 2.35 0 0 1-1.22-2 1.66 1.66 0 0 1 .66-1.39zm1 5.4a.67.67 0 0 0 .24.55 1 1 0 0 0 .66.2q1 0 1-.7a.82.82 0 0 0-.22-.53 3.07 3.07 0 0 0-.75-.57q-.9.46-.9 1.05zm1.44-3.35a.68.68 0 0 0 .15-.43.51.51 0 0 0-.19-.41.69.69 0 0 0-.46-.16.7.7 0 0 0-.47.16.52.52 0 0 0-.19.42q0 .48.64.83a1.85 1.85 0 0 0 .59-.41zm6.48 2.91h-3.08v-1.7h3.08zm1.47 2.63v-8h2.79a4.71 4.71 0 0 1 2.41.49 1.64 1.64 0 0 1 .79 1.5 1.9 1.9 0 0 1-.34 1.15 1.55 1.55 0 0 1-.91.61v.05a1.89 1.89 0 0 1 1.07.65 2 2 0 0 1 .34 1.2 2 2 0 0 1-.82 1.71 3.58 3.58 0 0 1-2.23.63zm2.12-6.35v1.4h.65a1.17 1.17 0 0 0 .72-.19.67.67 0 0 0 .25-.57q0-.67-1-.67zm.72 3H358v1.68h.76q1 0 1-.86a.74.74 0 0 0-.27-.61 1.24 1.24 0 0 0-.74-.2zm6.86 3.35h-2.17v-8h2.17zm5.25-6.22v6.22h-2.16v-6.22h-1.95V229h6v1.76zm9.08-1.73a3.4 3.4 0 0 1 2.26.65 2.41 2.41 0 0 1 .76 1.94 2.62 2.62 0 0 1-.79 2 3.19 3.19 0 0 1-2.24.73h-.61v2.65h-2.16v-8zm-.61 1.74v1.84h.39a1.08 1.08 0 0 0 .78-.27 1 1 0 0 0 .28-.75q0-.81-.9-.81zm12.51-1.74v8H389l-2.92-5.62q.1 1.37.1 2v3.6h-1.91v-8H387l2.9 5.55q-.08-1.16-.08-1.94V229zm4.93 4.94v-1.66h3.45v4.3a9.45 9.45 0 0 1-3.08.48 3.74 3.74 0 0 1-2.85-1.07 4.24 4.24 0 0 1-1-3 4.06 4.06 0 0 1 1.1-3 4.23 4.23 0 0 1 3.09-1.08 6.33 6.33 0 0 1 2.58.5l-.68 1.69a4.11 4.11 0 0 0-1.85-.42 1.86 1.86 0 0 0-1.51.61 2.64 2.64 0 0 0-.52 1.74 2.72 2.72 0 0 0 .47 1.72 1.62 1.62 0 0 0 1.35.59 3.6 3.6 0 0 0 .88-.1v-1.25zM17.83 163.65a4.12 4.12 0 0 1-1.1 3.08 4.22 4.22 0 0 1-3.09 1.08H11v-8h2.77a4.16 4.16 0 0 1 3 1 3.71 3.71 0 0 1 1.06 2.84zM13.69 166a1.74 1.74 0 0 0 1.44-.57 2.66 2.66 0 0 0 .46-1.7 2.62 2.62 0 0 0-.43-1.67 1.61 1.61 0 0 0-1.32-.53h-.62V166zm5.31-2.19a4.27 4.27 0 0 1 1-3.05 3.8 3.8 0 0 1 2.9-1 3.78 3.78 0 0 1 2.88 1 5.26 5.26 0 0 1 0 6.13 3.77 3.77 0 0 1-2.88 1 3.79 3.79 0 0 1-2.9-1.02 4.29 4.29 0 0 1-1-3.06zm3.89-2.34q-1.62 0-1.62 2.33t1.61 2.33a1.38 1.38 0 0 0 1.22-.56 4.1 4.1 0 0 0 0-3.52 1.37 1.37 0 0 0-1.25-.57zm12.44 6.35h-2.17v-3.05l-2.63-4.93h2.35l1.37 3 1.38-3H38l-2.63 4.87zm2.98-4.01a4.27 4.27 0 0 1 1-3.05 3.8 3.8 0 0 1 2.9-1 3.78 3.78 0 0 1 2.88 1 5.26 5.26 0 0 1 0 6.13 3.77 3.77 0 0 1-2.88 1 3.79 3.79 0 0 1-2.89-1.06 4.29 4.29 0 0 1-1.01-3.02zm3.89-2.34q-1.62 0-1.62 2.33t1.61 2.33a1.38 1.38 0 0 0 1.22-.56 4.1 4.1 0 0 0 0-3.52 1.37 1.37 0 0 0-1.21-.57zm9.94-1.64h2.16v4.81a3.23 3.23 0 0 1-.89 2.43 3.5 3.5 0 0 1-2.54.86 3.57 3.57 0 0 1-2.54-.83 3.18 3.18 0 0 1-.87-2.41v-4.85h2.17v4.68a2 2 0 0 0 .31 1.23 1.15 1.15 0 0 0 1 .39 1.12 1.12 0 0 0 .94-.38 2 2 0 0 0 .3-1.24zm14.66 0v8H64l-2.92-5.62q.1 1.37.1 2v3.6H59.2v-8H62l2.9 5.55q-.08-1.16-.08-1.94v-3.61zm6.46 6.23v1.76h-4.74v-8h4.74v1.74h-2.58v1.25h2.39v1.73h-2.39v1.5zm6.14 0v1.76h-4.74v-8h4.74v1.74h-2.58v1.25h2.39v1.73h-2.39v1.5zm8.18-2.41a4.12 4.12 0 0 1-1.1 3.08 4.22 4.22 0 0 1-3.09 1.08H80.8v-8h2.77a4.16 4.16 0 0 1 3 1 3.71 3.71 0 0 1 1.01 2.84zM83.44 166a1.74 1.74 0 0 0 1.44-.57 2.66 2.66 0 0 0 .46-1.7 2.62 2.62 0 0 0-.43-1.67 1.61 1.61 0 0 0-1.32-.53H83V166zm12.32-4.4v6.22H93.6v-6.22h-1.94v-1.77h6v1.77zm5.24 3.31v2.91h-2.15v-8h2.61q3.26 0 3.26 2.36a2.36 2.36 0 0 1-1.36 2.15l2.33 3.48h-2.44l-1.69-2.91zm0-3.45v1.83h.4q1.13 0 1.13-1 0-.82-1.11-.83z"/><path class="cls-2" d="M113.67 167.82h-2.36l-.39-1.5h-2.6l-.4 1.5h-2.37l2.6-8H111zm-4.9-3.26h1.7q-.75-2.84-.86-3.43-.12.74-.84 3.42zm13.36-4.73v8h-2.83l-2.92-5.62q.1 1.37.1 2v3.6h-1.91v-8h2.82l2.9 5.55q-.08-1.16-.08-1.94v-3.61zm1.35 5.67a6.19 6.19 0 0 0 1.3.5 4.7 4.7 0 0 0 1.16.17 1.33 1.33 0 0 0 .74-.16.5.5 0 0 0 .23-.43.46.46 0 0 0-.09-.29 1.17 1.17 0 0 0-.28-.24 10.81 10.81 0 0 0-1-.51 5.46 5.46 0 0 1-1.22-.7 2.21 2.21 0 0 1-.76-1.77 2.07 2.07 0 0 1 .8-1.74 3.55 3.55 0 0 1 2.21-.62 6.22 6.22 0 0 1 2.53.58l-.66 1.66a4.8 4.8 0 0 0-1.94-.51 1.06 1.06 0 0 0-.6.14.44.44 0 0 0-.2.37.53.53 0 0 0 .25.42 8.86 8.86 0 0 0 1.3.66 3.7 3.7 0 0 1 1.45 1 2.11 2.11 0 0 1 .41 1.33 2.24 2.24 0 0 1-.85 1.84 3.43 3.43 0 0 1-2.28.7 6.55 6.55 0 0 1-1.36-.12 5 5 0 0 1-1.11-.39zm9.59-5.67a3.39 3.39 0 0 1 2.26.66 2.41 2.41 0 0 1 .76 1.94 2.62 2.62 0 0 1-.79 2 3.2 3.2 0 0 1-2.24.73h-.61v2.64h-2.16v-8zm-.61 1.74v1.84h.39a1.08 1.08 0 0 0 .78-.27 1 1 0 0 0 .29-.75q0-.81-.9-.81zm11.61 6.25h-2.36l-.39-1.5h-2.6l-.4 1.5H136l2.6-8h2.88zm-4.9-3.26h1.7q-.75-2.84-.86-3.43-.12.74-.83 3.42zm7.92.35v2.91h-2.16v-8h2.61q3.26 0 3.26 2.36a2.36 2.36 0 0 1-1.36 2.15l2.33 3.48h-2.44l-1.69-2.91zm0-3.45v1.83h.4q1.13 0 1.13-1 0-.82-1.11-.83zm10.15 4.6v1.76h-4.74v-8h4.74v1.74h-2.58v1.25h2.39v1.73h-2.39v1.5zm9-6.23v8h-2.83l-2.92-5.62q.1 1.37.1 2v3.6h-1.91v-8h2.82l2.9 5.55q-.08-1.16-.08-1.94v-3.61zm7.11 2.17a4.44 4.44 0 0 0-1.83-.49 1.38 1.38 0 0 0-1.21.63 3.05 3.05 0 0 0-.43 1.74q0 2.3 1.75 2.3a5.65 5.65 0 0 0 2-.5v1.82a5.51 5.51 0 0 1-2.26.44 3.58 3.58 0 0 1-2.77-1 4.33 4.33 0 0 1-1-3 4.71 4.71 0 0 1 .46-2.17 3.38 3.38 0 0 1 1.36-1.46 4 4 0 0 1 2.06-.5 5.62 5.62 0 0 1 2.47.56zm5.81 5.82H177v-3.05l-2.63-4.93h2.35l1.37 3 1.38-3h2.34l-2.63 4.87zM186 165h-1.68v-.47a1.72 1.72 0 0 1 .22-.89 2.18 2.18 0 0 1 .73-.69 3.21 3.21 0 0 0 .7-.55.74.74 0 0 0 .19-.48.44.44 0 0 0-.21-.39 1 1 0 0 0-.54-.13 4.23 4.23 0 0 0-1.93.58l-.76-1.49a5.64 5.64 0 0 1 2.84-.78 3 3 0 0 1 1.91.54 1.75 1.75 0 0 1 .69 1.46 2.07 2.07 0 0 1-.31 1.14 3 3 0 0 1-.94.89 3.93 3.93 0 0 0-.77.58.62.62 0 0 0-.14.4zm.37 1.91a1 1 0 0 1-.3.77 1.19 1.19 0 0 1-.84.28 1.21 1.21 0 0 1-.84-.27 1.16 1.16 0 0 1 0-1.55 1.21 1.21 0 0 1 .85-.27 1.19 1.19 0 0 1 .85.28 1 1 0 0 1 .24.76z"/><circle class="cls-2" cx="51.72" cy="225.75" r="15.85"/><path class="cls-1" d="M46.69 229.74h-2.17v-3.05l-2.63-4.93h2.35l1.37 3 1.38-3h2.34l-2.63 4.87zm8.23-1.74v1.76h-4.74v-8h4.74v1.74h-2.58v1.26h2.39v1.73h-2.39V228zm1.08-.57a6.2 6.2 0 0 0 1.3.5 4.69 4.69 0 0 0 1.16.17 1.33 1.33 0 0 0 .74-.16.5.5 0 0 0 .23-.43.46.46 0 0 0-.09-.29A1.19 1.19 0 0 0 59 227a11.08 11.08 0 0 0-1-.51 5.47 5.47 0 0 1-1.22-.7A2.21 2.21 0 0 1 56 224a2.07 2.07 0 0 1 .8-1.74 3.55 3.55 0 0 1 2.21-.62 6.22 6.22 0 0 1 2.53.58l-.66 1.66a4.8 4.8 0 0 0-1.94-.51 1.05 1.05 0 0 0-.6.14.43.43 0 0 0-.2.37.53.53 0 0 0 .25.42 8.69 8.69 0 0 0 1.29.66 3.72 3.72 0 0 1 1.45 1 2.11 2.11 0 0 1 .41 1.33 2.24 2.24 0 0 1-.85 1.84 3.43 3.43 0 0 1-2.28.7 6.55 6.55 0 0 1-1.36-.12 5 5 0 0 1-1.11-.39z"/><circle class="cls-2" cx="147.45" cy="225.75" r="15.85"/><path class="cls-1" d="M146.65 221.76v8h-2.83l-2.92-5.62q.1 1.37.1 2v3.6h-2v-8h2.82l2.9 5.55q-.08-1.17-.08-1.94v-3.61zm1.43 3.98a4.27 4.27 0 0 1 1-3.05 4.52 4.52 0 0 1 5.78 0 5.26 5.26 0 0 1 0 6.13 4.49 4.49 0 0 1-5.78 0 4.29 4.29 0 0 1-1-3.08zm3.89-2.34q-1.62 0-1.62 2.33t1.61 2.33a1.38 1.38 0 0 0 1.22-.56 4.1 4.1 0 0 0 0-3.52 1.37 1.37 0 0 0-1.18-.57z"/><path class="cls-2" d="M31.41 279.81h2.16v4.8a3.23 3.23 0 0 1-.89 2.43 3.5 3.5 0 0 1-2.54.86 3.57 3.57 0 0 1-2.54-.83 3.18 3.18 0 0 1-.87-2.41v-4.85h2.17v4.68a2 2 0 0 0 .31 1.23 1.16 1.16 0 0 0 1 .39 1.12 1.12 0 0 0 .94-.38 2 2 0 0 0 .3-1.24zm3.46 5.67a6.17 6.17 0 0 0 1.3.5 4.68 4.68 0 0 0 1.16.17 1.33 1.33 0 0 0 .74-.16.5.5 0 0 0 .23-.43.46.46 0 0 0-.09-.29 1.19 1.19 0 0 0-.28-.24q-.18-.12-1-.51a5.49 5.49 0 0 1-1.22-.7 2.21 2.21 0 0 1-.76-1.77 2.07 2.07 0 0 1 .8-1.74 3.55 3.55 0 0 1 2.21-.62 6.2 6.2 0 0 1 2.53.58l-.66 1.66a4.8 4.8 0 0 0-1.94-.51 1.06 1.06 0 0 0-.6.14.43.43 0 0 0-.2.37.53.53 0 0 0 .25.42 8.76 8.76 0 0 0 1.29.66 3.73 3.73 0 0 1 1.45 1 2.11 2.11 0 0 1 .41 1.33 2.24 2.24 0 0 1-.85 1.84 3.43 3.43 0 0 1-2.28.7 6.62 6.62 0 0 1-1.36-.12 5 5 0 0 1-1.11-.39zm11.57.52v1.76H41.7v-8h4.74v1.73h-2.58v1.26h2.39v1.73h-2.39V286zm6.75-1.2v3h-2.12v-8h4.72v1.73h-2.6v1.52h2.39v1.73zm8.53-4.99h2.16v4.8A3.23 3.23 0 0 1 63 287a3.5 3.5 0 0 1-2.54.86 3.57 3.57 0 0 1-2.54-.83 3.18 3.18 0 0 1-.87-2.41v-4.85h2.17v4.68a2 2 0 0 0 .31 1.23 1.16 1.16 0 0 0 1 .39 1.12 1.12 0 0 0 .94-.38 2 2 0 0 0 .3-1.24zm9.07 7.98h-5.23v-8h2.16v6.24h3.07zm6.51 0h-5.23v-8h2.16v6.24h3.07zm-52.53 8.57a4.42 4.42 0 0 0-1.83-.49 1.38 1.38 0 0 0-1.21.63 3.05 3.05 0 0 0-.43 1.74q0 2.3 1.75 2.3a5.67 5.67 0 0 0 2-.5v1.82a5.5 5.5 0 0 1-2.26.44 3.58 3.58 0 0 1-2.77-1 4.34 4.34 0 0 1-1-3 4.7 4.7 0 0 1 .46-2.17 3.38 3.38 0 0 1 1.36-1.46 3.94 3.94 0 0 1 2.06-.5 5.62 5.62 0 0 1 2.47.56zm1.35 1.83a4.27 4.27 0 0 1 1-3.05 3.81 3.81 0 0 1 2.9-1 3.78 3.78 0 0 1 2.88 1 5.25 5.25 0 0 1 0 6.13 3.77 3.77 0 0 1-2.88 1 3.79 3.79 0 0 1-2.89-1.06 4.28 4.28 0 0 1-1.01-3.02zm3.88-2.34q-1.62 0-1.62 2.33t1.62 2.33a1.39 1.39 0 0 0 1.22-.56 4.09 4.09 0 0 0 0-3.52 1.36 1.36 0 0 0-1.22-.58zm10.55 6.34h-5.23v-8h2.16v6.24h3.07zm.77-4a4.27 4.27 0 0 1 1-3.05 3.8 3.8 0 0 1 2.9-1 3.78 3.78 0 0 1 2.88 1 5.26 5.26 0 0 1 0 6.13 3.77 3.77 0 0 1-2.88 1 3.79 3.79 0 0 1-2.89-1.06 4.29 4.29 0 0 1-1.01-3.02zm3.89-2.34q-1.62 0-1.62 2.33t1.61 2.33a1.38 1.38 0 0 0 1.22-.56 3.1 3.1 0 0 0 .39-1.75 3.13 3.13 0 0 0-.4-1.76 1.37 1.37 0 0 0-1.2-.59zm7.47 3.44v2.91h-2.16v-8h2.62q3.26 0 3.26 2.36a2.36 2.36 0 0 1-1.4 2.16l2.33 3.48h-2.41l-1.69-2.91zm0-3.45v1.83h.4q1.13 0 1.13-1 0-.83-1.11-.83zm11.4-1.63a3.4 3.4 0 0 1 2.26.65 2.41 2.41 0 0 1 .76 1.94 2.62 2.62 0 0 1-.79 2 3.19 3.19 0 0 1-2.24.73h-.61v2.65h-2.15v-8zm-.61 1.79v1.84h.39a1.08 1.08 0 0 0 .78-.27 1 1 0 0 0 .28-.75q0-.81-.9-.81zM76 294.21v8h-2.85l-2.92-5.62q.1 1.37.1 2v3.6h-1.95v-8h2.82l2.9 5.55q-.08-1.16-.08-1.94v-3.61zm4.91 4.98v-1.66h3.45v4.3a9.45 9.45 0 0 1-3.08.48 3.74 3.74 0 0 1-2.85-1.07 4.24 4.24 0 0 1-1-3 4.06 4.06 0 0 1 1.1-3 4.23 4.23 0 0 1 3.09-1.08 6.33 6.33 0 0 1 2.58.5l-.68 1.69a4.11 4.11 0 0 0-1.85-.42 1.86 1.86 0 0 0-1.51.61 2.64 2.64 0 0 0-.52 1.74 2.72 2.72 0 0 0 .47 1.72 1.62 1.62 0 0 0 1.35.59 3.6 3.6 0 0 0 .88-.1v-1.25zm47.15-13.38h2.16v4.8a3.23 3.23 0 0 1-.89 2.43 3.5 3.5 0 0 1-2.54.86 3.57 3.57 0 0 1-2.54-.83 3.18 3.18 0 0 1-.87-2.41v-4.85h2.17v4.68a2 2 0 0 0 .31 1.23 1.16 1.16 0 0 0 1 .39 1.12 1.12 0 0 0 .94-.38 2 2 0 0 0 .3-1.24zm3.46 5.67a6.17 6.17 0 0 0 1.3.5 4.68 4.68 0 0 0 1.16.17 1.33 1.33 0 0 0 .74-.16.5.5 0 0 0 .23-.43.46.46 0 0 0-.09-.29 1.19 1.19 0 0 0-.28-.24q-.18-.12-1-.51a5.49 5.49 0 0 1-1.22-.7 2.21 2.21 0 0 1-.76-1.77 2.07 2.07 0 0 1 .8-1.74 3.55 3.55 0 0 1 2.21-.62 6.2 6.2 0 0 1 2.53.58l-.66 1.66a4.8 4.8 0 0 0-1.94-.51 1.06 1.06 0 0 0-.6.14.43.43 0 0 0-.2.37.53.53 0 0 0 .25.42 8.76 8.76 0 0 0 1.29.66 3.73 3.73 0 0 1 1.45 1 2.11 2.11 0 0 1 .41 1.33 2.24 2.24 0 0 1-.85 1.84 3.43 3.43 0 0 1-2.28.7 6.62 6.62 0 0 1-1.36-.12 5 5 0 0 1-1.11-.39zm11.56.52v1.76h-4.74v-8h4.74v1.73h-2.58v1.26h2.39v1.73h-2.39V292zm2.92 2.51a3.92 3.92 0 0 0 .8.12.87.87 0 0 0 .76-.32 2 2 0 0 0 .23-1.1v-7.39h2.17V293a3.69 3.69 0 0 1-.71 2.46 2.66 2.66 0 0 1-2.13.83 5.18 5.18 0 0 1-1.12-.12zm8.42-8.7a3.4 3.4 0 0 1 2.26.65 2.41 2.41 0 0 1 .76 1.94 2.62 2.62 0 0 1-.79 2 3.19 3.19 0 0 1-2.24.73h-.61v2.65h-2.16v-8zm-.61 1.74v1.84h.39a1.08 1.08 0 0 0 .78-.27 1 1 0 0 0 .28-.75q0-.81-.9-.81zm9.65 4.45v1.76h-4.74v-8h4.74v1.73h-2.58v1.26h2.39v1.73h-2.39V292zm4.6-1.21v-1.66h3.45v4.3a9.45 9.45 0 0 1-3.08.48 3.74 3.74 0 0 1-2.85-1.07 4.24 4.24 0 0 1-1-3 4.06 4.06 0 0 1 1.1-3 4.23 4.23 0 0 1 3.09-1.08 6.33 6.33 0 0 1 2.58.5l-.68 1.69a4.11 4.11 0 0 0-1.85-.42 1.86 1.86 0 0 0-1.51.61 2.64 2.64 0 0 0-.52 1.74 2.72 2.72 0 0 0 .47 1.72 1.62 1.62 0 0 0 1.35.59 3.6 3.6 0 0 0 .88-.1v-1.25z"/></svg>