<svg id="Layer_1" data-name="Layer 1" xmlns="http://www.w3.org/2000/svg" viewBox="0 0 807.06 547.38"><defs><style>.cls-1{fill:#f3a712;}.cls-2{fill:#fefefe;}</style></defs><title>image-sizes</title><path class="cls-1" d="M15.9,518.72q0,6.81,4.8,6.81a4.15,4.15,0,0,0,3.63-1.65,9,9,0,0,0,1.18-5.16q0-6.87-4.84-6.87a4.09,4.09,0,0,0-3.58,1.67A9.11,9.11,0,0,0,15.9,518.72Zm5.74-3.09a11.27,11.27,0,0,1,.28,3.08,11.88,11.88,0,0,1-.27,3.09q-.27.87-.95.87t-1-.84a17.35,17.35,0,0,1,0-6.24q.28-.85,1-.85T21.65,515.63ZM14,522.56a2,2,0,0,0-1.41-.46,2.05,2.05,0,0,0-1.42.45,1.89,1.89,0,0,0,0,2.58,2,2,0,0,0,1.41.46,2,2,0,0,0,1.39-.46,1.93,1.93,0,0,0,0-2.57ZM-.41,518.72q0,6.81,4.8,6.81A4.15,4.15,0,0,0,8,523.89a9,9,0,0,0,1.18-5.16q0-6.87-4.84-6.87a4.09,4.09,0,0,0-3.58,1.67A9.11,9.11,0,0,0-.41,518.72Zm5.74-3.09a11.27,11.27,0,0,1,.28,3.08,11.88,11.88,0,0,1-.27,3.09q-.27.87-.95.87t-1-.84a17.35,17.35,0,0,1,0-6.24q.28-.85,1-.85T5.34,515.63Z" transform="translate(0.66 0.38)"/><path class="cls-1" d="M19.89,387.29h4.53v-3H16.83l-.51,7,1.32.66a6.34,6.34,0,0,1,2-.32,2.43,2.43,0,0,1,1.51.42,1.45,1.45,0,0,1,.56,1.22,1.47,1.47,0,0,1-.54,1.22,2.43,2.43,0,0,1-1.54.42,7.7,7.7,0,0,1-1.71-.24,9.22,9.22,0,0,1-1.79-.6v3a8.75,8.75,0,0,0,3.8.72,6,6,0,0,0,4-1.18,4.31,4.31,0,0,0,1.35-3.43,4.56,4.56,0,0,0-.51-2.24,3.72,3.72,0,0,0-1.45-1.53,4,4,0,0,0-2.06-.52,8.37,8.37,0,0,0-1.57.16ZM14,394.81a2,2,0,0,0-1.41-.46,2.05,2.05,0,0,0-1.42.45,1.89,1.89,0,0,0,0,2.58,2,2,0,0,0,1.41.46,2,2,0,0,0,1.39-.46,1.93,1.93,0,0,0,0-2.57ZM-.41,391q0,6.81,4.8,6.81A4.15,4.15,0,0,0,8,396.14,9,9,0,0,0,9.2,391q0-6.87-4.84-6.87a4.09,4.09,0,0,0-3.58,1.67A9.11,9.11,0,0,0-.41,391Zm5.74-3.09A11.27,11.27,0,0,1,5.62,391a11.88,11.88,0,0,1-.27,3.09q-.27.87-.95.87t-1-.84a17.35,17.35,0,0,1,0-6.24q.28-.85,1-.85T5.34,387.88Z" transform="translate(0.66 0.38)"/><path class="cls-1" d="M15.9,263.22q0,6.81,4.8,6.81a4.15,4.15,0,0,0,3.63-1.65,9,9,0,0,0,1.18-5.16q0-6.87-4.84-6.87A4.09,4.09,0,0,0,17.08,258,9.11,9.11,0,0,0,15.9,263.22Zm5.74-3.09a11.27,11.27,0,0,1,.28,3.08,11.88,11.88,0,0,1-.27,3.09q-.27.87-.95.87t-1-.84a17.35,17.35,0,0,1,0-6.24q.28-.85,1-.85T21.65,260.13ZM14,267.06a2,2,0,0,0-1.41-.46,2.05,2.05,0,0,0-1.42.45,1.89,1.89,0,0,0,0,2.58,2,2,0,0,0,1.41.46,2,2,0,0,0,1.39-.46,1.93,1.93,0,0,0,0-2.57Zm-9.7-10.51-4.56,3.72,1.86,2.29,1.51-1.24a8.18,8.18,0,0,0,.84-.86q-.05,1.19-.05,2.35v7H7.51V256.55Z" transform="translate(0.66 0.38)"/><path class="cls-1" d="M19.89,131.79h4.53v-3H16.83l-.51,7,1.32.66a6.35,6.35,0,0,1,2-.32,2.43,2.43,0,0,1,1.51.42,1.45,1.45,0,0,1,.56,1.22,1.47,1.47,0,0,1-.54,1.22,2.43,2.43,0,0,1-1.54.42,7.71,7.71,0,0,1-1.71-.24,9.19,9.19,0,0,1-1.79-.6v3a8.75,8.75,0,0,0,3.8.72,6,6,0,0,0,4-1.18,4.31,4.31,0,0,0,1.35-3.43,4.56,4.56,0,0,0-.51-2.24,3.72,3.72,0,0,0-1.45-1.53,4,4,0,0,0-2.06-.52,8.45,8.45,0,0,0-1.57.16ZM14,139.31a2,2,0,0,0-1.41-.46,2.05,2.05,0,0,0-1.42.45,1.89,1.89,0,0,0,0,2.58,2,2,0,0,0,1.41.46,2,2,0,0,0,1.39-.46,1.93,1.93,0,0,0,0-2.57ZM4.27,128.8l-4.56,3.72,1.86,2.3,1.51-1.24a8.28,8.28,0,0,0,.84-.86q-.05,1.19-.05,2.35v7H7.51V128.8Z" transform="translate(0.66 0.38)"/><path class="cls-1" d="M15.9,7.72q0,6.82,4.8,6.81a4.15,4.15,0,0,0,3.63-1.65,9,9,0,0,0,1.18-5.16q0-6.87-4.84-6.87a4.09,4.09,0,0,0-3.58,1.67A9.11,9.11,0,0,0,15.9,7.72Zm5.74-3.09a11.28,11.28,0,0,1,.28,3.08,11.88,11.88,0,0,1-.27,3.09q-.27.87-.95.87t-1-.84a11.38,11.38,0,0,1-.28-3.12,11.44,11.44,0,0,1,.28-3.12q.28-.85,1-.85T21.65,4.63ZM14,11.56a2,2,0,0,0-1.41-.46,2.05,2.05,0,0,0-1.42.45,1.64,1.64,0,0,0-.5,1.28,1.64,1.64,0,0,0,.52,1.29,2,2,0,0,0,1.41.46,2,2,0,0,0,1.39-.46,1.66,1.66,0,0,0,.5-1.29A1.67,1.67,0,0,0,14,11.56Zm-9.85-.16V11.3Q6.29,9.35,7,8.63A9.4,9.4,0,0,0,8.09,7.26,5,5,0,0,0,8.9,4.5,3.19,3.19,0,0,0,7.65,1.87a4.7,4.7,0,0,0-3.21-1,6.81,6.81,0,0,0-3.38.82A10.4,10.4,0,0,0-.66,3l2,2.32A8.75,8.75,0,0,1,2.8,4.23,2.58,2.58,0,0,1,4,3.88a1.37,1.37,0,0,1,.95.3A1,1,0,0,1,5.33,5a2.05,2.05,0,0,1-.17.85,4.35,4.35,0,0,1-.59.9q-.41.52-1.83,2L-.51,12v2.37H9.15v-3Z" transform="translate(0.66 0.38)"/><path class="cls-1" d="M805.65,498.35h-1a.75.75,0,0,0-.75.75v11.53H751.61V499.1a.75.75,0,0,0-.75-.75h-1a.75.75,0,0,0-.75.75v11.53H696.83V499.1a.75.75,0,0,0-.75-.75h-1a.75.75,0,0,0-.75.75v11.53H642V499.1a.75.75,0,0,0-.75-.75h-1a.75.75,0,0,0-.75.75v11.53H587.26V499.1a.75.75,0,0,0-.75-.75h-1a.75.75,0,0,0-.75.75v11.53H532.47V499.1a.75.75,0,0,0-.75-.75h-1a.75.75,0,0,0-.75.75v11.53H477.69V499.1a.75.75,0,0,0-.75-.75h-1a.75.75,0,0,0-.75.75v11.53H422.9V499.1a.75.75,0,0,0-.75-.75h-1a.75.75,0,0,0-.75.75v11.53H368.11V499.1a.75.75,0,0,0-.75-.75h-1a.75.75,0,0,0-.75.75v11.53H313.33V499.1a.75.75,0,0,0-.75-.75h-1a.75.75,0,0,0-.75.75v11.53H258.54V499.1a.75.75,0,0,0-.75-.75h-1a.75.75,0,0,0-.75.75v11.53H203.76V499.1a.75.75,0,0,0-.75-.75h-1a.75.75,0,0,0-.75.75v11.53H149V499.1a.75.75,0,0,0-.75-.75h-1a.75.75,0,0,0-.75.75v11.53H94.19V499.1a.75.75,0,0,0-.75-.75h-1a.75.75,0,0,0-.75.75v11.53H39.4V385.37H57.33a.75.75,0,0,0,.75-.75v-1a.75.75,0,0,0-.75-.75H39.4V257.62H57.33a.75.75,0,0,0,.75-.75v-1a.75.75,0,0,0-.75-.75H39.4V129.87H57.33a.75.75,0,0,0,.75-.75v-1a.75.75,0,0,0-.75-.75H39.4V2.12H57.33a.75.75,0,0,0,.75-.75v-1a.75.75,0,0,0-.75-.75H38.15a.74.74,0,0,0-.71.54.74.74,0,0,0-.54.71v511a.74.74,0,0,0,.54.71.74.74,0,0,0,.71.54h767a3.39,3.39,0,0,0,1.25-1.25V499.1A.75.75,0,0,0,805.65,498.35Z" transform="translate(0.66 0.38)"/><polygon class="cls-2" points="775.17 95.81 775.17 96.06 775.17 98.53 726.88 105.79 726.88 104.04 720.38 104.04 720.38 104.29 720.38 107.92 672.1 134.09 672.1 133.73 665.6 133.73 665.6 133.98 665.6 137.14 617.31 155.4 617.31 154.44 610.81 154.44 610.81 154.69 610.81 157.69 562.52 173.31 562.52 172.16 556.02 172.16 556.02 172.41 556.02 175.75 507.74 197.08 507.74 196.36 501.24 196.36 501.24 196.61 501.24 200.5 452.94 231.29 446.45 231.29 446.45 231.54 446.45 234.7 398.17 252.96 398.17 252 391.67 252 391.67 252.25 391.67 256.25 343.14 289.18 336.88 289.18 336.88 289.43 336.88 292.84 288.6 315.27 288.6 314.63 282.1 314.63 282.1 314.88 282.1 318.35 233.81 341.88 233.81 341.33 227.31 341.33 227.31 341.58 227.31 344.62 179.02 360.89 179.02 359.79 172.52 359.79 172.52 360.04 172.52 363.8 124.24 392.39 124.24 392.23 117.74 392.23 117.74 392.48 117.74 395 69.45 402.92 69.45 401.21 62.95 401.21 62.95 401.46 62.95 407.71 69.45 407.71 69.45 404.94 117.74 397.02 117.74 398.73 124.24 398.73 124.24 394.72 172.52 366.13 172.52 366.29 179.02 366.29 179.02 363 227.31 346.73 227.31 347.83 233.81 347.83 233.81 344.11 282.1 320.58 282.1 321.13 288.6 321.13 288.6 317.47 336.88 295.04 336.88 295.68 343.38 295.68 343.38 291.43 391.91 258.5 398.17 258.5 398.17 255.09 446.45 236.84 446.45 237.79 452.95 237.79 452.95 233.66 501.25 202.86 507.74 202.86 507.74 199.27 556.02 177.94 556.02 178.66 562.52 178.66 562.52 175.41 610.81 159.79 610.81 160.94 617.31 160.94 617.31 157.53 665.6 139.28 665.6 140.23 672.1 140.23 672.1 136.36 720.38 110.19 720.38 110.54 726.88 110.54 726.88 107.81 775.17 100.56 775.17 102.31 781.67 102.31 781.67 95.81 775.17 95.81"/><path class="cls-1" d="M793.8,536.51l-4.57,10.31H793l4.69-11.16v-2.12H788v3Zm-12.06-3-4.56,3.72,1.86,2.29,1.51-1.24a8.27,8.27,0,0,0,.84-.86q-.05,1.19-.05,2.35v7H785V533.52ZM768.27,547h3.14l5-13.68h-3.15Zm-6.37-10.5h4.53v-3h-7.58l-.51,7,1.32.66a6.34,6.34,0,0,1,2-.32,2.43,2.43,0,0,1,1.51.42,1.45,1.45,0,0,1,.56,1.22,1.47,1.47,0,0,1-.54,1.22,2.42,2.42,0,0,1-1.54.42,7.7,7.7,0,0,1-1.71-.24,9.21,9.21,0,0,1-1.79-.6v3a8.75,8.75,0,0,0,3.8.72,6,6,0,0,0,4-1.18,4.31,4.31,0,0,0,1.35-3.43,4.56,4.56,0,0,0-.51-2.24,3.72,3.72,0,0,0-1.45-1.53,4,4,0,0,0-2.06-.52,8.37,8.37,0,0,0-1.57.16Z" transform="translate(0.66 0.38)"/><path class="cls-1" d="M747.51,536.3v-2.81a12.81,12.81,0,0,0-1.9-.16,6.89,6.89,0,0,0-5.23,1.91q-1.74,1.88-1.73,6a6.34,6.34,0,0,0,1.33,4.28,4.56,4.56,0,0,0,3.62,1.53,4.7,4.7,0,0,0,3.52-1.27,4.64,4.64,0,0,0,1.24-3.39,4.86,4.86,0,0,0-1-3.26A3.45,3.45,0,0,0,744.6,538,2.75,2.75,0,0,0,742,539.5h-.11a3.56,3.56,0,0,1,1-2.58,3.9,3.9,0,0,1,2.69-.8A11,11,0,0,1,747.51,536.3Zm-4.91,4.85a1.29,1.29,0,0,1,1-.42q1.26,0,1.26,1.62a2.2,2.2,0,0,1-.35,1.36,1.18,1.18,0,0,1-1.93-.1,2.51,2.51,0,0,1-.37-1.44A1.46,1.46,0,0,1,742.6,541.15Zm-10.19-7.63-4.56,3.72,1.86,2.29,1.51-1.24a8.27,8.27,0,0,0,.84-.86q-.05,1.19-.05,2.35v7h3.65V533.52ZM718.95,547h3.14l5-13.68H723.9Zm-5.83-3.14v-.09q2.17-2,2.86-2.67a9.39,9.39,0,0,0,1.11-1.37,5,5,0,0,0,.81-2.76,3.19,3.19,0,0,0-1.24-2.63,4.7,4.7,0,0,0-3.21-1,6.8,6.8,0,0,0-3.38.82,10.31,10.31,0,0,0-1.73,1.31l2,2.32a8.75,8.75,0,0,1,1.48-1.08,2.59,2.59,0,0,1,1.24-.34,1.37,1.37,0,0,1,.95.3,1,1,0,0,1,.34.77,2.07,2.07,0,0,1-.17.85,4.38,4.38,0,0,1-.59.9q-.41.52-1.83,2l-3.25,3.29v2.37h9.66v-3Zm-10.77-10.34-4.56,3.72,1.86,2.29,1.51-1.24a8.27,8.27,0,0,0,.84-.86q-.05,1.19-.05,2.35v7h3.65V533.52Z" transform="translate(0.66 0.38)"/><path class="cls-1" d="M687.27,536.3v-2.81a12.81,12.81,0,0,0-1.9-.16,6.89,6.89,0,0,0-5.23,1.91q-1.74,1.88-1.73,6a6.34,6.34,0,0,0,1.33,4.28,4.56,4.56,0,0,0,3.62,1.53,4.7,4.7,0,0,0,3.52-1.27,4.64,4.64,0,0,0,1.24-3.39,4.86,4.86,0,0,0-1-3.26,3.45,3.45,0,0,0-2.77-1.14,2.75,2.75,0,0,0-2.61,1.55h-.11a3.56,3.56,0,0,1,1-2.58,3.9,3.9,0,0,1,2.69-.8A11,11,0,0,1,687.27,536.3Zm-4.91,4.85a1.29,1.29,0,0,1,1-.42q1.26,0,1.26,1.62a2.2,2.2,0,0,1-.35,1.36,1.18,1.18,0,0,1-1.93-.1,2.51,2.51,0,0,1-.37-1.44A1.46,1.46,0,0,1,682.36,541.15Zm-10.19-7.63-4.56,3.72,1.86,2.29,1.51-1.24a8.27,8.27,0,0,0,.84-.86q-.05,1.19-.05,2.35v7h3.65V533.52ZM658.7,547h3.14l5-13.68h-3.15Zm-6.37-10.5h4.53v-3h-7.58l-.51,7,1.32.66a6.34,6.34,0,0,1,2-.32,2.43,2.43,0,0,1,1.51.42,1.45,1.45,0,0,1,.56,1.22,1.47,1.47,0,0,1-.54,1.22,2.42,2.42,0,0,1-1.54.42,7.7,7.7,0,0,1-1.71-.24,9.21,9.21,0,0,1-1.79-.6v3a8.75,8.75,0,0,0,3.8.72,6,6,0,0,0,4-1.18,4.31,4.31,0,0,0,1.35-3.43,4.56,4.56,0,0,0-.51-2.24,3.72,3.72,0,0,0-1.45-1.53,4,4,0,0,0-2.06-.52,8.37,8.37,0,0,0-1.57.16Z" transform="translate(0.66 0.38)"/><path class="cls-1" d="M633.08,536.51h4.53v-3H630l-.51,7,1.32.66a6.34,6.34,0,0,1,2-.32,2.43,2.43,0,0,1,1.51.42,1.45,1.45,0,0,1,.56,1.22,1.47,1.47,0,0,1-.54,1.22,2.42,2.42,0,0,1-1.54.42,7.7,7.7,0,0,1-1.71-.24,9.21,9.21,0,0,1-1.79-.6v3a8.75,8.75,0,0,0,3.8.72,6,6,0,0,0,4-1.18,4.31,4.31,0,0,0,1.35-3.43,4.56,4.56,0,0,0-.51-2.24,3.72,3.72,0,0,0-1.45-1.53,4,4,0,0,0-2.06-.52,8.37,8.37,0,0,0-1.57.16Zm-10.23-3-4.56,3.72,1.86,2.29,1.51-1.24a8.27,8.27,0,0,0,.84-.86q-.05,1.19-.05,2.35v7h3.65V533.52ZM609.38,547h3.14l5-13.68h-3.15Zm-5.83-3.14v-.09q2.17-2,2.86-2.67a9.39,9.39,0,0,0,1.11-1.37,5,5,0,0,0,.81-2.76,3.19,3.19,0,0,0-1.24-2.63,4.7,4.7,0,0,0-3.21-1,6.8,6.8,0,0,0-3.38.82,10.31,10.31,0,0,0-1.73,1.31l2,2.32a8.75,8.75,0,0,1,1.48-1.08,2.59,2.59,0,0,1,1.24-.34,1.37,1.37,0,0,1,.95.3,1,1,0,0,1,.34.77,2.07,2.07,0,0,1-.17.85,4.38,4.38,0,0,1-.59.9q-.41.52-1.83,2l-3.25,3.29v2.37h9.66v-3Zm-10.77-10.34-4.56,3.72,1.86,2.29,1.51-1.24a8.27,8.27,0,0,0,.84-.86q-.05,1.19-.05,2.35v7H596V533.52Z" transform="translate(0.66 0.38)"/><path class="cls-1" d="M572.83,536.51h4.53v-3h-7.58l-.51,7,1.32.66a6.34,6.34,0,0,1,2-.32,2.43,2.43,0,0,1,1.51.42,1.45,1.45,0,0,1,.56,1.22,1.47,1.47,0,0,1-.54,1.22,2.42,2.42,0,0,1-1.54.42,7.7,7.7,0,0,1-1.71-.24,9.21,9.21,0,0,1-1.79-.6v3a8.75,8.75,0,0,0,3.8.72,6,6,0,0,0,4-1.18,4.31,4.31,0,0,0,1.35-3.43,4.56,4.56,0,0,0-.51-2.24,3.72,3.72,0,0,0-1.45-1.53,4,4,0,0,0-2.06-.52,8.37,8.37,0,0,0-1.57.16Zm-10.23-3L558,537.24l1.86,2.29,1.51-1.24a8.27,8.27,0,0,0,.84-.86q-.05,1.19-.05,2.35v7h3.65V533.52ZM549.13,547h3.14l5-13.68h-3.15Zm-6.37-10.5h4.53v-3h-7.58l-.51,7,1.32.66a6.34,6.34,0,0,1,2-.32,2.43,2.43,0,0,1,1.51.42,1.45,1.45,0,0,1,.56,1.22,1.47,1.47,0,0,1-.54,1.22,2.42,2.42,0,0,1-1.54.42,7.7,7.7,0,0,1-1.71-.24,9.21,9.21,0,0,1-1.79-.6v3a8.75,8.75,0,0,0,3.8.72,6,6,0,0,0,4-1.18,4.31,4.31,0,0,0,1.35-3.43,4.56,4.56,0,0,0-.51-2.24,3.72,3.72,0,0,0-1.45-1.53,4,4,0,0,0-2.06-.52,8.37,8.37,0,0,0-1.57.16Z" transform="translate(0.66 0.38)"/><path class="cls-1" d="M528,541.57v-8h-3.32l-5.54,8.09v2.64h5.31v2.58H528v-2.58h1.47v-2.68Zm-5.74,0,1.48-2.19a8.15,8.15,0,0,0,.7-1.31h.1s0,.31-.05.79,0,.88,0,1.17v1.55Zm-9-8-4.56,3.72,1.86,2.29,1.51-1.24a8.27,8.27,0,0,0,.84-.86q-.05,1.19-.05,2.35v7h3.65V533.52ZM499.8,547h3.14l5-13.68h-3.15ZM494,543.86v-.09q2.17-2,2.86-2.67a9.39,9.39,0,0,0,1.11-1.37,5,5,0,0,0,.81-2.76,3.19,3.19,0,0,0-1.24-2.63,4.7,4.7,0,0,0-3.21-1,6.8,6.8,0,0,0-3.38.82,10.31,10.31,0,0,0-1.73,1.31l2,2.32a8.75,8.75,0,0,1,1.48-1.08,2.59,2.59,0,0,1,1.24-.34,1.37,1.37,0,0,1,.95.3,1,1,0,0,1,.34.77,2.07,2.07,0,0,1-.17.85,4.38,4.38,0,0,1-.59.9q-.41.52-1.83,2l-3.25,3.29v2.37H499v-3ZM483.2,533.52l-4.56,3.72,1.86,2.29,1.51-1.24a8.27,8.27,0,0,0,.84-.86q-.05,1.19-.05,2.35v7h3.65V533.52Z" transform="translate(0.66 0.38)"/><path class="cls-1" d="M467.79,541.57v-8h-3.32l-5.54,8.09v2.64h5.31v2.58h3.55v-2.58h1.47v-2.68Zm-5.74,0,1.48-2.19a8.15,8.15,0,0,0,.7-1.31h.1s0,.31-.05.79,0,.88,0,1.17v1.55Zm-9-8-4.56,3.72,1.86,2.29,1.51-1.24a8.27,8.27,0,0,0,.84-.86q-.05,1.19-.05,2.35v7h3.65V533.52ZM439.56,547h3.14l5-13.68h-3.15Zm-6.37-10.5h4.53v-3h-7.58l-.51,7,1.32.66a6.34,6.34,0,0,1,2-.32,2.43,2.43,0,0,1,1.51.42,1.45,1.45,0,0,1,.56,1.22,1.47,1.47,0,0,1-.54,1.22,2.42,2.42,0,0,1-1.54.42,7.7,7.7,0,0,1-1.71-.24,9.21,9.21,0,0,1-1.79-.6v3a8.75,8.75,0,0,0,3.8.72,6,6,0,0,0,4-1.18,4.31,4.31,0,0,0,1.35-3.43,4.56,4.56,0,0,0-.51-2.24,3.72,3.72,0,0,0-1.45-1.53,4,4,0,0,0-2.06-.52,8.37,8.37,0,0,0-1.57.16Z" transform="translate(0.66 0.38)"/><path class="cls-1" d="M418,545.94a3.41,3.41,0,0,0,1.47-2.92q0-2.73-3.33-3.15v-.05a4.37,4.37,0,0,0,2.18-1.28,3.14,3.14,0,0,0,.76-2.12,2.61,2.61,0,0,0-1.17-2.26,5.6,5.6,0,0,0-3.25-.82,9.24,9.24,0,0,0-2.55.32,7.23,7.23,0,0,0-2.14,1l1.49,2.4a5,5,0,0,1,2.64-.85,2,2,0,0,1,1.1.26.86.86,0,0,1,.39.77q0,1.41-2.74,1.41H412v2.7h.82a5.76,5.76,0,0,1,2.19.34,1.08,1.08,0,0,1,.64,1.06,1.17,1.17,0,0,1-.55,1.08,3.41,3.41,0,0,1-1.72.33,7.49,7.49,0,0,1-3.45-.87v3a10.86,10.86,0,0,0,4,.72A6.84,6.84,0,0,0,418,545.94ZM403.7,533.52l-4.56,3.72,1.86,2.29,1.51-1.24a8.18,8.18,0,0,0,.84-.86q-.05,1.19-.05,2.35v7h3.65V533.52ZM390.23,547h3.14l5-13.68h-3.15Zm-5.83-3.14v-.09q2.17-2,2.86-2.67a9.46,9.46,0,0,0,1.11-1.37,5,5,0,0,0,.81-2.76,3.19,3.19,0,0,0-1.24-2.63,4.7,4.7,0,0,0-3.21-1,6.81,6.81,0,0,0-3.38.82,10.37,10.37,0,0,0-1.73,1.31l2,2.32a8.78,8.78,0,0,1,1.48-1.08,2.59,2.59,0,0,1,1.24-.34,1.37,1.37,0,0,1,.95.3,1,1,0,0,1,.34.77,2.06,2.06,0,0,1-.17.85,4.36,4.36,0,0,1-.59.9q-.41.52-1.83,2l-3.25,3.29v2.37h9.66v-3Zm-10.77-10.34-4.56,3.72,1.86,2.29,1.51-1.24a8.18,8.18,0,0,0,.84-.86q-.05,1.19-.05,2.35v7h3.65V533.52Z" transform="translate(0.66 0.38)"/><path class="cls-1" d="M357.73,545.94A3.41,3.41,0,0,0,359.2,543q0-2.73-3.33-3.15v-.05a4.37,4.37,0,0,0,2.18-1.28,3.14,3.14,0,0,0,.76-2.12,2.61,2.61,0,0,0-1.17-2.26,5.6,5.6,0,0,0-3.25-.82,9.24,9.24,0,0,0-2.55.32,7.23,7.23,0,0,0-2.14,1l1.49,2.4a5,5,0,0,1,2.64-.85,2,2,0,0,1,1.1.26.86.86,0,0,1,.39.77q0,1.41-2.74,1.41h-.84v2.7h.82a5.76,5.76,0,0,1,2.19.34,1.08,1.08,0,0,1,.64,1.06,1.17,1.17,0,0,1-.55,1.08,3.41,3.41,0,0,1-1.72.33,7.49,7.49,0,0,1-3.45-.87v3a10.86,10.86,0,0,0,4,.72A6.84,6.84,0,0,0,357.73,545.94Zm-14.28-12.42-4.56,3.72,1.86,2.29,1.51-1.24a8.18,8.18,0,0,0,.84-.86q-.05,1.19-.05,2.35v7h3.65V533.52ZM330,547h3.14l5-13.68h-3.15Zm-6.37-10.5h4.53v-3h-7.58l-.51,7,1.32.66a6.34,6.34,0,0,1,2-.32,2.43,2.43,0,0,1,1.51.42,1.45,1.45,0,0,1,.56,1.22,1.47,1.47,0,0,1-.54,1.22,2.43,2.43,0,0,1-1.54.42,7.7,7.7,0,0,1-1.71-.24,9.22,9.22,0,0,1-1.79-.6v3a8.75,8.75,0,0,0,3.8.72,6,6,0,0,0,4-1.18,4.31,4.31,0,0,0,1.35-3.43,4.56,4.56,0,0,0-.51-2.24,3.72,3.72,0,0,0-1.45-1.53,4,4,0,0,0-2.06-.52,8.37,8.37,0,0,0-1.57.16Z" transform="translate(0.66 0.38)"/><path class="cls-1" d="M304.9,543.86v-.09q2.17-2,2.86-2.67a9.46,9.46,0,0,0,1.11-1.37,5,5,0,0,0,.81-2.76,3.19,3.19,0,0,0-1.24-2.63,4.7,4.7,0,0,0-3.21-1,6.81,6.81,0,0,0-3.38.82,10.37,10.37,0,0,0-1.73,1.31l2,2.32a8.78,8.78,0,0,1,1.48-1.08,2.59,2.59,0,0,1,1.24-.34,1.37,1.37,0,0,1,.95.3,1,1,0,0,1,.34.77,2.06,2.06,0,0,1-.17.85,4.36,4.36,0,0,1-.59.9q-.41.52-1.83,2l-3.25,3.29v2.37h9.66v-3Zm-10.77-10.34-4.56,3.72,1.86,2.29,1.51-1.24a8.18,8.18,0,0,0,.84-.86q-.05,1.19-.05,2.35v7h3.65V533.52ZM280.66,547h3.14l5-13.68h-3.15Zm-5.83-3.14v-.09q2.17-2,2.86-2.67a9.46,9.46,0,0,0,1.11-1.37,5,5,0,0,0,.81-2.76,3.19,3.19,0,0,0-1.24-2.63,4.7,4.7,0,0,0-3.21-1,6.81,6.81,0,0,0-3.38.82,10.37,10.37,0,0,0-1.73,1.31l2,2.32a8.78,8.78,0,0,1,1.48-1.08,2.59,2.59,0,0,1,1.24-.34,1.37,1.37,0,0,1,.95.3,1,1,0,0,1,.34.77,2.06,2.06,0,0,1-.17.85,4.36,4.36,0,0,1-.59.9q-.41.52-1.83,2l-3.25,3.29v2.37h9.66v-3Zm-10.77-10.34-4.56,3.72,1.86,2.29,1.51-1.24a8.18,8.18,0,0,0,.84-.86q-.05,1.19-.05,2.35v7h3.65V533.52Z" transform="translate(0.66 0.38)"/><path class="cls-1" d="M244.65,543.86v-.09q2.17-2,2.86-2.67a9.46,9.46,0,0,0,1.11-1.37,5,5,0,0,0,.81-2.76,3.19,3.19,0,0,0-1.24-2.63,4.7,4.7,0,0,0-3.21-1,6.81,6.81,0,0,0-3.38.82,10.37,10.37,0,0,0-1.73,1.31l2,2.32a8.78,8.78,0,0,1,1.48-1.08,2.59,2.59,0,0,1,1.24-.34,1.37,1.37,0,0,1,.95.3,1,1,0,0,1,.34.77,2.06,2.06,0,0,1-.17.85,4.36,4.36,0,0,1-.59.9q-.41.52-1.83,2L240,544.46v2.37h9.66v-3Zm-10.77-10.34-4.56,3.72,1.86,2.29,1.51-1.24a8.18,8.18,0,0,0,.84-.86q-.05,1.19-.05,2.35v7h3.65V533.52ZM220.42,547h3.14l5-13.68h-3.15ZM214,536.51h4.53v-3H211l-.51,7,1.32.66a6.34,6.34,0,0,1,2-.32,2.43,2.43,0,0,1,1.51.42,1.45,1.45,0,0,1,.56,1.22,1.47,1.47,0,0,1-.54,1.22,2.43,2.43,0,0,1-1.54.42,7.7,7.7,0,0,1-1.71-.24,9.22,9.22,0,0,1-1.79-.6v3a8.75,8.75,0,0,0,3.8.72,6,6,0,0,0,4-1.18,4.31,4.31,0,0,0,1.35-3.43,4.56,4.56,0,0,0-.51-2.24,3.72,3.72,0,0,0-1.45-1.53,4,4,0,0,0-2.06-.52,8.37,8.37,0,0,0-1.57.16Z" transform="translate(0.66 0.38)"/><path class="cls-1" d="M195.48,533.52l-4.56,3.72,1.86,2.29,1.51-1.24a8.18,8.18,0,0,0,.84-.86q-.05,1.19-.05,2.35v7h3.65V533.52Zm-10.92,0L180,537.24l1.86,2.29,1.51-1.24a8.18,8.18,0,0,0,.84-.86q-.05,1.19-.05,2.35v7h3.65V533.52ZM171.09,547h3.14l5-13.68H176Zm-5.83-3.14v-.09q2.17-2,2.86-2.67a9.46,9.46,0,0,0,1.11-1.37A5,5,0,0,0,170,537a3.19,3.19,0,0,0-1.24-2.63,4.7,4.7,0,0,0-3.21-1,6.81,6.81,0,0,0-3.38.82,10.37,10.37,0,0,0-1.73,1.31l2,2.32a8.78,8.78,0,0,1,1.48-1.08,2.59,2.59,0,0,1,1.24-.34,1.37,1.37,0,0,1,.95.3,1,1,0,0,1,.34.77,2.06,2.06,0,0,1-.17.85,4.36,4.36,0,0,1-.59.9q-.41.52-1.83,2l-3.25,3.29v2.37h9.66v-3Zm-10.77-10.34-4.56,3.72,1.86,2.29,1.51-1.24a8.18,8.18,0,0,0,.84-.86q-.05,1.19-.05,2.35v7h3.65V533.52Z" transform="translate(0.66 0.38)"/><path class="cls-1" d="M135.23,533.52l-4.56,3.72,1.86,2.29,1.51-1.24a8.18,8.18,0,0,0,.84-.86q-.05,1.19-.05,2.35v7h3.65V533.52Zm-10.92,0-4.56,3.72,1.86,2.29,1.51-1.24a8.18,8.18,0,0,0,.84-.86q-.05,1.19-.05,2.35v7h3.65V533.52ZM110.84,547H114l5-13.68H115.8Zm-6.37-10.5H109v-3h-7.58l-.51,7,1.32.66a6.34,6.34,0,0,1,2-.32,2.43,2.43,0,0,1,1.51.42,1.45,1.45,0,0,1,.56,1.22,1.47,1.47,0,0,1-.54,1.22,2.43,2.43,0,0,1-1.54.42,7.7,7.7,0,0,1-1.71-.24,9.22,9.22,0,0,1-1.79-.6v3a8.75,8.75,0,0,0,3.8.72,6,6,0,0,0,4-1.18,4.31,4.31,0,0,0,1.35-3.43,4.56,4.56,0,0,0-.51-2.24,3.72,3.72,0,0,0-1.45-1.53,4,4,0,0,0-2.06-.52,8.37,8.37,0,0,0-1.57.16Z" transform="translate(0.66 0.38)"/><path class="cls-1" d="M81.24,540.19q0,6.81,4.8,6.81a4.15,4.15,0,0,0,3.63-1.65,9,9,0,0,0,1.18-5.16q0-6.87-4.84-6.87A4.09,4.09,0,0,0,82.41,535,9.11,9.11,0,0,0,81.24,540.19ZM87,537.1a11.27,11.27,0,0,1,.28,3.08,11.88,11.88,0,0,1-.27,3.09q-.27.87-.95.87t-1-.84a17.35,17.35,0,0,1,0-6.24q.28-.85,1-.85T87,537.1Zm-12-3.58-4.56,3.72,1.86,2.29,1.51-1.24a8.18,8.18,0,0,0,.84-.86q-.05,1.19-.05,2.35v7h3.65V533.52ZM61.52,547h3.14l5-13.68H66.47Zm-5.83-3.14v-.09q2.17-2,2.86-2.67a9.46,9.46,0,0,0,1.11-1.37,5,5,0,0,0,.81-2.76,3.19,3.19,0,0,0-1.24-2.63,4.7,4.7,0,0,0-3.21-1,6.81,6.81,0,0,0-3.38.82,10.37,10.37,0,0,0-1.73,1.31l2,2.32a8.78,8.78,0,0,1,1.48-1.08,2.59,2.59,0,0,1,1.24-.34,1.37,1.37,0,0,1,.95.3,1,1,0,0,1,.34.77,2.06,2.06,0,0,1-.17.85,4.36,4.36,0,0,1-.59.9q-.41.52-1.83,2l-3.25,3.29v2.37h9.66v-3ZM44.92,533.52l-4.56,3.72,1.86,2.29,1.51-1.24a8.18,8.18,0,0,0,.84-.86q-.05,1.19-.05,2.35v7h3.65V533.52Z" transform="translate(0.66 0.38)"/></svg>