<svg id="Layer_1" data-name="Layer 1" xmlns="http://www.w3.org/2000/svg" viewBox="0 0 807.06 547.38"><defs><style>.cls-1{fill:#f3a712}.cls-2{fill:#fefefe}</style></defs><title>image-sizes</title><path class="cls-1" d="M15.9 518.72q0 6.81 4.8 6.81a4.15 4.15 0 0 0 3.63-1.65 9 9 0 0 0 1.18-5.16q0-6.87-4.84-6.87a4.09 4.09 0 0 0-3.58 1.67 9.11 9.11 0 0 0-1.19 5.2zm5.74-3.09a11.27 11.27 0 0 1 .28 3.08 11.88 11.88 0 0 1-.27 3.09q-.27.87-.95.87t-1-.84a17.35 17.35 0 0 1 0-6.24q.28-.85 1-.85t.95.89zM14 522.56a2 2 0 0 0-1.41-.46 2.05 2.05 0 0 0-1.42.45 1.89 1.89 0 0 0 0 2.58 2 2 0 0 0 1.41.46 2 2 0 0 0 1.39-.46 1.93 1.93 0 0 0 0-2.57zm-14.41-3.84q0 6.81 4.8 6.81A4.15 4.15 0 0 0 8 523.89a9 9 0 0 0 1.18-5.16q0-6.87-4.84-6.87a4.09 4.09 0 0 0-3.58 1.67 9.11 9.11 0 0 0-1.17 5.19zm5.74-3.09a11.27 11.27 0 0 1 .28 3.08 11.88 11.88 0 0 1-.27 3.09q-.27.87-.95.87t-1-.84a17.35 17.35 0 0 1 0-6.24q.28-.85 1-.85t.95.89zm14.56-128.34h4.53v-3h-7.59l-.51 7 1.32.66a6.34 6.34 0 0 1 2-.32 2.43 2.43 0 0 1 1.51.42 1.45 1.45 0 0 1 .56 1.22 1.47 1.47 0 0 1-.54 1.22 2.43 2.43 0 0 1-1.54.42 7.7 7.7 0 0 1-1.71-.24 9.22 9.22 0 0 1-1.79-.6v3a8.75 8.75 0 0 0 3.8.72 6 6 0 0 0 4-1.18 4.31 4.31 0 0 0 1.35-3.43 4.56 4.56 0 0 0-.51-2.24 3.72 3.72 0 0 0-1.45-1.53 4 4 0 0 0-2.06-.52 8.37 8.37 0 0 0-1.57.16zM14 394.81a2 2 0 0 0-1.41-.46 2.05 2.05 0 0 0-1.42.45 1.89 1.89 0 0 0 0 2.58 2 2 0 0 0 1.41.46 2 2 0 0 0 1.39-.46 1.93 1.93 0 0 0 0-2.57zM-.41 391q0 6.81 4.8 6.81A4.15 4.15 0 0 0 8 396.14 9 9 0 0 0 9.2 391q0-6.87-4.84-6.87a4.09 4.09 0 0 0-3.58 1.67A9.11 9.11 0 0 0-.41 391zm5.74-3.09a11.27 11.27 0 0 1 .29 3.09 11.88 11.88 0 0 1-.27 3.09q-.27.87-.95.87t-1-.84a17.35 17.35 0 0 1 0-6.24q.28-.85 1-.85t.94.85zM15.9 263.22q0 6.81 4.8 6.81a4.15 4.15 0 0 0 3.63-1.65 9 9 0 0 0 1.18-5.16q0-6.87-4.84-6.87a4.09 4.09 0 0 0-3.59 1.65 9.11 9.11 0 0 0-1.18 5.22zm5.74-3.09a11.27 11.27 0 0 1 .28 3.08 11.88 11.88 0 0 1-.27 3.09q-.27.87-.95.87t-1-.84a17.35 17.35 0 0 1 0-6.24q.28-.85 1-.85t.95.89zM14 267.06a2 2 0 0 0-1.41-.46 2.05 2.05 0 0 0-1.42.45 1.89 1.89 0 0 0 0 2.58 2 2 0 0 0 1.41.46 2 2 0 0 0 1.39-.46 1.93 1.93 0 0 0 0-2.57zm-9.7-10.51l-4.56 3.72 1.86 2.29 1.51-1.24a8.18 8.18 0 0 0 .84-.86q-.05 1.19-.05 2.35v7h3.61v-13.26zm15.59-124.76h4.53v-3h-7.59l-.51 7 1.32.66a6.35 6.35 0 0 1 2-.32 2.43 2.43 0 0 1 1.51.42 1.45 1.45 0 0 1 .56 1.22 1.47 1.47 0 0 1-.54 1.22 2.43 2.43 0 0 1-1.54.42 7.71 7.71 0 0 1-1.71-.24 9.19 9.19 0 0 1-1.79-.6v3a8.75 8.75 0 0 0 3.8.72 6 6 0 0 0 4-1.18 4.31 4.31 0 0 0 1.35-3.43 4.56 4.56 0 0 0-.51-2.24 3.72 3.72 0 0 0-1.45-1.53 4 4 0 0 0-2.06-.52 8.45 8.45 0 0 0-1.57.16zM14 139.31a2 2 0 0 0-1.41-.46 2.05 2.05 0 0 0-1.42.45 1.89 1.89 0 0 0 0 2.58 2 2 0 0 0 1.41.46 2 2 0 0 0 1.39-.46 1.93 1.93 0 0 0 0-2.57zM4.27 128.8l-4.56 3.72 1.86 2.3 1.51-1.24a8.28 8.28 0 0 0 .84-.86q-.05 1.19-.05 2.35v7h3.64V128.8zM15.9 7.72q0 6.82 4.8 6.81a4.15 4.15 0 0 0 3.63-1.65 9 9 0 0 0 1.18-5.16q0-6.87-4.84-6.87a4.09 4.09 0 0 0-3.58 1.67 9.11 9.11 0 0 0-1.19 5.2zm5.74-3.09a11.28 11.28 0 0 1 .28 3.08 11.88 11.88 0 0 1-.27 3.09q-.27.87-.95.87t-1-.84a11.38 11.38 0 0 1-.28-3.12 11.44 11.44 0 0 1 .28-3.12q.28-.85 1-.85t.95.89zM14 11.56a2 2 0 0 0-1.41-.46 2.05 2.05 0 0 0-1.42.45 1.64 1.64 0 0 0-.5 1.28 1.64 1.64 0 0 0 .52 1.29 2 2 0 0 0 1.41.46 2 2 0 0 0 1.39-.46 1.66 1.66 0 0 0 .5-1.29 1.67 1.67 0 0 0-.49-1.27zm-9.85-.16v-.1Q6.29 9.35 7 8.63a9.4 9.4 0 0 0 1.09-1.37A5 5 0 0 0 8.9 4.5a3.19 3.19 0 0 0-1.25-2.63 4.7 4.7 0 0 0-3.21-1 6.81 6.81 0 0 0-3.38.82A10.4 10.4 0 0 0-.66 3l2 2.32A8.75 8.75 0 0 1 2.8 4.23 2.58 2.58 0 0 1 4 3.88a1.37 1.37 0 0 1 .95.3 1 1 0 0 1 .38.82 2.05 2.05 0 0 1-.17.85 4.35 4.35 0 0 1-.59.9q-.41.52-1.83 2L-.51 12v2.37h9.66v-3zm801.5 486.95h-1a.75.75 0 0 0-.75.75v11.53h-52.29V499.1a.75.75 0 0 0-.75-.75h-1a.75.75 0 0 0-.75.75v11.53h-52.28V499.1a.75.75 0 0 0-.75-.75h-1a.75.75 0 0 0-.75.75v11.53H642V499.1a.75.75 0 0 0-.75-.75h-1a.75.75 0 0 0-.75.75v11.53h-52.24V499.1a.75.75 0 0 0-.75-.75h-1a.75.75 0 0 0-.75.75v11.53h-52.29V499.1a.75.75 0 0 0-.75-.75h-1a.75.75 0 0 0-.75.75v11.53h-52.28V499.1a.75.75 0 0 0-.75-.75h-1a.75.75 0 0 0-.75.75v11.53H422.9V499.1a.75.75 0 0 0-.75-.75h-1a.75.75 0 0 0-.75.75v11.53h-52.29V499.1a.75.75 0 0 0-.75-.75h-1a.75.75 0 0 0-.75.75v11.53h-52.28V499.1a.75.75 0 0 0-.75-.75h-1a.75.75 0 0 0-.75.75v11.53h-52.29V499.1a.75.75 0 0 0-.75-.75h-1a.75.75 0 0 0-.75.75v11.53h-52.28V499.1a.75.75 0 0 0-.75-.75h-1a.75.75 0 0 0-.75.75v11.53H149V499.1a.75.75 0 0 0-.75-.75h-1a.75.75 0 0 0-.75.75v11.53H94.19V499.1a.75.75 0 0 0-.75-.75h-1a.75.75 0 0 0-.75.75v11.53H39.4V385.37h17.93a.75.75 0 0 0 .75-.75v-1a.75.75 0 0 0-.75-.75H39.4V257.62h17.93a.75.75 0 0 0 .75-.75v-1a.75.75 0 0 0-.75-.75H39.4V129.87h17.93a.75.75 0 0 0 .75-.75v-1a.75.75 0 0 0-.75-.75H39.4V2.12h17.93a.75.75 0 0 0 .75-.75v-1a.75.75 0 0 0-.75-.75H38.15a.74.74 0 0 0-.71.54.74.74 0 0 0-.54.71v511a.74.74 0 0 0 .54.71.74.74 0 0 0 .71.54h767a3.39 3.39 0 0 0 1.25-1.25V499.1a.75.75 0 0 0-.75-.75z" transform="translate(.66 .38)"/><path class="cls-2" d="M775.17 95.81v2.72l-48.29 7.26v-1.75h-6.5v3.88l-48.28 26.17v-.36h-6.5v3.41l-48.29 18.26v-.96h-6.5v3.25l-48.29 15.62v-1.15h-6.5v3.59l-48.28 21.33v-.72h-6.5v4.14l-48.3 30.79h-6.49v3.41l-48.28 18.26V252h-6.5v4.25l-48.53 32.93h-6.26v3.66l-48.28 22.43v-.64h-6.5v3.72l-48.29 23.53v-.55h-6.5v3.29l-48.29 16.27v-1.1h-6.5v4.01l-48.28 28.59v-.16h-6.5V395l-48.29 7.92v-1.71h-6.5v6.5h6.5v-2.77l48.29-7.92v1.71h6.5v-4.01l48.28-28.59v.16h6.5V363l48.29-16.27v1.1h6.5v-3.72l48.29-23.53v.55h6.5v-3.66l48.28-22.43v.64h6.5v-4.25l48.53-32.93h6.26v-3.41l48.28-18.25v.95h6.5v-4.13l48.3-30.8h6.49v-3.59l48.28-21.33v.72h6.5v-3.25l48.29-15.62v1.15h6.5v-3.41l48.29-18.25v.95h6.5v-3.87l48.28-26.17v.35h6.5v-2.73l48.29-7.25v1.75h6.5v-6.5h-6.5z"/><path class="cls-1" d="M793.8 536.51l-4.57 10.31H793l4.69-11.16v-2.12H788v3zm-12.06-3l-4.56 3.72 1.86 2.29 1.51-1.24a8.27 8.27 0 0 0 .84-.86q-.05 1.19-.05 2.35v7H785v-13.25zM768.27 547h3.14l5-13.68h-3.15zm-6.37-10.5h4.53v-3h-7.58l-.51 7 1.32.66a6.34 6.34 0 0 1 2-.32 2.43 2.43 0 0 1 1.51.42 1.45 1.45 0 0 1 .56 1.22 1.47 1.47 0 0 1-.54 1.22 2.42 2.42 0 0 1-1.54.42 7.7 7.7 0 0 1-1.71-.24 9.21 9.21 0 0 1-1.79-.6v3a8.75 8.75 0 0 0 3.8.72 6 6 0 0 0 4-1.18 4.31 4.31 0 0 0 1.35-3.43 4.56 4.56 0 0 0-.51-2.24 3.72 3.72 0 0 0-1.45-1.53 4 4 0 0 0-2.06-.52 8.37 8.37 0 0 0-1.57.16zm-14.39-.2v-2.81a12.81 12.81 0 0 0-1.9-.16 6.89 6.89 0 0 0-5.23 1.91q-1.74 1.88-1.73 6a6.34 6.34 0 0 0 1.33 4.28 4.56 4.56 0 0 0 3.62 1.53 4.7 4.7 0 0 0 3.52-1.27 4.64 4.64 0 0 0 1.24-3.39 4.86 4.86 0 0 0-1-3.26 3.45 3.45 0 0 0-2.76-1.13 2.75 2.75 0 0 0-2.6 1.5h-.11a3.56 3.56 0 0 1 1-2.58 3.9 3.9 0 0 1 2.69-.8 11 11 0 0 1 1.93.18zm-4.91 4.85a1.29 1.29 0 0 1 1-.42q1.26 0 1.26 1.62a2.2 2.2 0 0 1-.35 1.36 1.18 1.18 0 0 1-1.93-.1 2.51 2.51 0 0 1-.37-1.44 1.46 1.46 0 0 1 .39-1.02zm-10.19-7.63l-4.56 3.72 1.86 2.29 1.51-1.24a8.27 8.27 0 0 0 .84-.86q-.05 1.19-.05 2.35v7h3.65v-13.26zM718.95 547h3.14l5-13.68h-3.19zm-5.83-3.14v-.09q2.17-2 2.86-2.67a9.39 9.39 0 0 0 1.11-1.37 5 5 0 0 0 .81-2.76 3.19 3.19 0 0 0-1.24-2.63 4.7 4.7 0 0 0-3.21-1 6.8 6.8 0 0 0-3.38.82 10.31 10.31 0 0 0-1.73 1.31l2 2.32a8.75 8.75 0 0 1 1.48-1.08 2.59 2.59 0 0 1 1.24-.34 1.37 1.37 0 0 1 .95.3 1 1 0 0 1 .34.77 2.07 2.07 0 0 1-.17.85 4.38 4.38 0 0 1-.59.9q-.41.52-1.83 2l-3.25 3.29v2.37h9.66v-3zm-10.77-10.34l-4.56 3.72 1.86 2.29 1.51-1.24a8.27 8.27 0 0 0 .84-.86q-.05 1.19-.05 2.35v7h3.65v-13.26zm-15.08 2.78v-2.81a12.81 12.81 0 0 0-1.9-.16 6.89 6.89 0 0 0-5.23 1.91q-1.74 1.88-1.73 6a6.34 6.34 0 0 0 1.33 4.28 4.56 4.56 0 0 0 3.62 1.53 4.7 4.7 0 0 0 3.52-1.27 4.64 4.64 0 0 0 1.24-3.39 4.86 4.86 0 0 0-1-3.26 3.45 3.45 0 0 0-2.77-1.14 2.75 2.75 0 0 0-2.61 1.55h-.11a3.56 3.56 0 0 1 1-2.58 3.9 3.9 0 0 1 2.69-.8 11 11 0 0 1 1.95.14zm-4.91 4.85a1.29 1.29 0 0 1 1-.42q1.26 0 1.26 1.62a2.2 2.2 0 0 1-.35 1.36 1.18 1.18 0 0 1-1.93-.1 2.51 2.51 0 0 1-.37-1.44 1.46 1.46 0 0 1 .39-1.02zm-10.19-7.63l-4.56 3.72 1.86 2.29 1.51-1.24a8.27 8.27 0 0 0 .84-.86q-.05 1.19-.05 2.35v7h3.65v-13.26zM658.7 547h3.14l5-13.68h-3.15zm-6.37-10.5h4.53v-3h-7.58l-.51 7 1.32.66a6.34 6.34 0 0 1 2-.32 2.43 2.43 0 0 1 1.51.42 1.45 1.45 0 0 1 .56 1.22 1.47 1.47 0 0 1-.54 1.22 2.42 2.42 0 0 1-1.54.42 7.7 7.7 0 0 1-1.71-.24 9.21 9.21 0 0 1-1.79-.6v3a8.75 8.75 0 0 0 3.8.72 6 6 0 0 0 4-1.18 4.31 4.31 0 0 0 1.35-3.43 4.56 4.56 0 0 0-.51-2.24 3.72 3.72 0 0 0-1.45-1.53 4 4 0 0 0-2.06-.52 8.37 8.37 0 0 0-1.57.16zm-19.25.01h4.53v-3H630l-.51 7 1.32.66a6.34 6.34 0 0 1 2-.32 2.43 2.43 0 0 1 1.51.42 1.45 1.45 0 0 1 .56 1.22 1.47 1.47 0 0 1-.54 1.22 2.42 2.42 0 0 1-1.54.42 7.7 7.7 0 0 1-1.71-.24 9.21 9.21 0 0 1-1.79-.6v3a8.75 8.75 0 0 0 3.8.72 6 6 0 0 0 4-1.18 4.31 4.31 0 0 0 1.35-3.43 4.56 4.56 0 0 0-.51-2.24 3.72 3.72 0 0 0-1.45-1.53 4 4 0 0 0-2.06-.52 8.37 8.37 0 0 0-1.57.16zm-10.23-3l-4.56 3.72 1.86 2.29 1.51-1.24a8.27 8.27 0 0 0 .84-.86q-.05 1.19-.05 2.35v7h3.65v-13.25zM609.38 547h3.14l5-13.68h-3.15zm-5.83-3.14v-.09q2.17-2 2.86-2.67a9.39 9.39 0 0 0 1.11-1.37 5 5 0 0 0 .81-2.76 3.19 3.19 0 0 0-1.24-2.63 4.7 4.7 0 0 0-3.21-1 6.8 6.8 0 0 0-3.38.82 10.31 10.31 0 0 0-1.73 1.31l2 2.32a8.75 8.75 0 0 1 1.48-1.08 2.59 2.59 0 0 1 1.24-.34 1.37 1.37 0 0 1 .95.3 1 1 0 0 1 .34.77 2.07 2.07 0 0 1-.17.85 4.38 4.38 0 0 1-.59.9q-.41.52-1.83 2l-3.25 3.29v2.37h9.66v-3zm-10.77-10.34l-4.56 3.72 1.86 2.29 1.51-1.24a8.27 8.27 0 0 0 .84-.86q-.05 1.19-.05 2.35v7H596v-13.26zm-19.95 2.99h4.53v-3h-7.58l-.51 7 1.32.66a6.34 6.34 0 0 1 2-.32 2.43 2.43 0 0 1 1.51.42 1.45 1.45 0 0 1 .56 1.22 1.47 1.47 0 0 1-.54 1.22 2.42 2.42 0 0 1-1.54.42 7.7 7.7 0 0 1-1.71-.24 9.21 9.21 0 0 1-1.79-.6v3a8.75 8.75 0 0 0 3.8.72 6 6 0 0 0 4-1.18 4.31 4.31 0 0 0 1.35-3.43 4.56 4.56 0 0 0-.51-2.24 3.72 3.72 0 0 0-1.45-1.53 4 4 0 0 0-2.06-.52 8.37 8.37 0 0 0-1.57.16zm-10.23-3l-4.6 3.73 1.86 2.29 1.51-1.24a8.27 8.27 0 0 0 .84-.86q-.05 1.19-.05 2.35v7h3.65v-13.26zM549.13 547h3.14l5-13.68h-3.15zm-6.37-10.5h4.53v-3h-7.58l-.51 7 1.32.66a6.34 6.34 0 0 1 2-.32 2.43 2.43 0 0 1 1.51.42 1.45 1.45 0 0 1 .56 1.22 1.47 1.47 0 0 1-.54 1.22 2.42 2.42 0 0 1-1.54.42 7.7 7.7 0 0 1-1.71-.24 9.21 9.21 0 0 1-1.79-.6v3a8.75 8.75 0 0 0 3.8.72 6 6 0 0 0 4-1.18 4.31 4.31 0 0 0 1.35-3.43 4.56 4.56 0 0 0-.51-2.24 3.72 3.72 0 0 0-1.45-1.53 4 4 0 0 0-2.06-.52 8.37 8.37 0 0 0-1.57.16zM528 541.57v-8h-3.32l-5.54 8.09v2.64h5.31v2.58H528v-2.58h1.47v-2.68zm-5.74 0l1.48-2.19a8.15 8.15 0 0 0 .7-1.31h.1s0 .31-.05.79 0 .88 0 1.17v1.55zm-9-8l-4.56 3.72 1.86 2.29 1.51-1.24a8.27 8.27 0 0 0 .84-.86q-.05 1.19-.05 2.35v7h3.65v-13.31zM499.8 547h3.14l5-13.68h-3.15zm-5.8-3.14v-.09q2.17-2 2.86-2.67a9.39 9.39 0 0 0 1.11-1.37 5 5 0 0 0 .81-2.76 3.19 3.19 0 0 0-1.24-2.63 4.7 4.7 0 0 0-3.21-1 6.8 6.8 0 0 0-3.38.82 10.31 10.31 0 0 0-1.73 1.31l2 2.32a8.75 8.75 0 0 1 1.48-1.08 2.59 2.59 0 0 1 1.24-.34 1.37 1.37 0 0 1 .95.3 1 1 0 0 1 .34.77 2.07 2.07 0 0 1-.17.85 4.38 4.38 0 0 1-.59.9q-.41.52-1.83 2l-3.25 3.29v2.37H499v-3zm-10.8-10.34l-4.56 3.72 1.86 2.29 1.51-1.24a8.27 8.27 0 0 0 .84-.86q-.05 1.19-.05 2.35v7h3.65v-13.26zm-15.41 8.05v-8h-3.32l-5.54 8.09v2.64h5.31v2.58h3.55v-2.58h1.47v-2.68zm-5.74 0l1.48-2.19a8.15 8.15 0 0 0 .7-1.31h.1s0 .31-.05.79 0 .88 0 1.17v1.55zm-9-8l-4.56 3.72 1.86 2.29 1.51-1.24a8.27 8.27 0 0 0 .84-.86q-.05 1.19-.05 2.35v7h3.65v-13.31zM439.56 547h3.14l5-13.68h-3.15zm-6.37-10.5h4.53v-3h-7.58l-.51 7 1.32.66a6.34 6.34 0 0 1 2-.32 2.43 2.43 0 0 1 1.51.42 1.45 1.45 0 0 1 .56 1.22 1.47 1.47 0 0 1-.54 1.22 2.42 2.42 0 0 1-1.54.42 7.7 7.7 0 0 1-1.71-.24 9.21 9.21 0 0 1-1.79-.6v3a8.75 8.75 0 0 0 3.8.72 6 6 0 0 0 4-1.18 4.31 4.31 0 0 0 1.35-3.43 4.56 4.56 0 0 0-.51-2.24 3.72 3.72 0 0 0-1.45-1.53 4 4 0 0 0-2.06-.52 8.37 8.37 0 0 0-1.57.16zM418 545.94a3.41 3.41 0 0 0 1.47-2.92q0-2.73-3.33-3.15v-.05a4.37 4.37 0 0 0 2.18-1.28 3.14 3.14 0 0 0 .76-2.12 2.61 2.61 0 0 0-1.17-2.26 5.6 5.6 0 0 0-3.25-.82 9.24 9.24 0 0 0-2.55.32 7.23 7.23 0 0 0-2.14 1l1.49 2.4a5 5 0 0 1 2.64-.85 2 2 0 0 1 1.1.26.86.86 0 0 1 .39.77q0 1.41-2.74 1.41H412v2.7h.82a5.76 5.76 0 0 1 2.19.34 1.08 1.08 0 0 1 .64 1.06 1.17 1.17 0 0 1-.55 1.08 3.41 3.41 0 0 1-1.72.33 7.49 7.49 0 0 1-3.45-.87v3a10.86 10.86 0 0 0 4 .72 6.84 6.84 0 0 0 4.07-1.07zm-14.3-12.42l-4.56 3.72 1.86 2.29 1.51-1.24a8.18 8.18 0 0 0 .84-.86q-.05 1.19-.05 2.35v7h3.65v-13.26zM390.23 547h3.14l5-13.68h-3.15zm-5.83-3.14v-.09q2.17-2 2.86-2.67a9.46 9.46 0 0 0 1.11-1.37 5 5 0 0 0 .81-2.76 3.19 3.19 0 0 0-1.24-2.63 4.7 4.7 0 0 0-3.21-1 6.81 6.81 0 0 0-3.38.82 10.37 10.37 0 0 0-1.73 1.31l2 2.32a8.78 8.78 0 0 1 1.48-1.08 2.59 2.59 0 0 1 1.24-.34 1.37 1.37 0 0 1 .95.3 1 1 0 0 1 .34.77 2.06 2.06 0 0 1-.17.85 4.36 4.36 0 0 1-.59.9q-.41.52-1.83 2l-3.25 3.29v2.37h9.66v-3zm-10.77-10.34l-4.56 3.72 1.86 2.29 1.51-1.24a8.18 8.18 0 0 0 .84-.86q-.05 1.19-.05 2.35v7h3.65v-13.26zm-15.9 12.42a3.41 3.41 0 0 0 1.47-2.94q0-2.73-3.33-3.15v-.05a4.37 4.37 0 0 0 2.18-1.28 3.14 3.14 0 0 0 .76-2.12 2.61 2.61 0 0 0-1.17-2.26 5.6 5.6 0 0 0-3.25-.82 9.24 9.24 0 0 0-2.55.32 7.23 7.23 0 0 0-2.14 1l1.49 2.4a5 5 0 0 1 2.64-.85 2 2 0 0 1 1.1.26.86.86 0 0 1 .39.77q0 1.41-2.74 1.41h-.84v2.7h.82a5.76 5.76 0 0 1 2.19.34 1.08 1.08 0 0 1 .64 1.06 1.17 1.17 0 0 1-.55 1.08 3.41 3.41 0 0 1-1.72.33 7.49 7.49 0 0 1-3.45-.87v3a10.86 10.86 0 0 0 4 .72 6.84 6.84 0 0 0 4.06-1.05zm-14.28-12.42l-4.56 3.72 1.86 2.29 1.51-1.24a8.18 8.18 0 0 0 .84-.86q-.05 1.19-.05 2.35v7h3.65v-13.26zM330 547h3.14l5-13.68h-3.15zm-6.37-10.5h4.53v-3h-7.58l-.51 7 1.32.66a6.34 6.34 0 0 1 2-.32 2.43 2.43 0 0 1 1.51.42 1.45 1.45 0 0 1 .56 1.22 1.47 1.47 0 0 1-.54 1.22 2.43 2.43 0 0 1-1.54.42 7.7 7.7 0 0 1-1.71-.24 9.22 9.22 0 0 1-1.79-.6v3a8.75 8.75 0 0 0 3.8.72 6 6 0 0 0 4-1.18 4.31 4.31 0 0 0 1.35-3.43 4.56 4.56 0 0 0-.51-2.24 3.72 3.72 0 0 0-1.45-1.53 4 4 0 0 0-2.06-.52 8.37 8.37 0 0 0-1.57.16zm-18.73 7.36v-.09q2.17-2 2.86-2.67a9.46 9.46 0 0 0 1.11-1.37 5 5 0 0 0 .81-2.76 3.19 3.19 0 0 0-1.24-2.63 4.7 4.7 0 0 0-3.21-1 6.81 6.81 0 0 0-3.38.82 10.37 10.37 0 0 0-1.73 1.31l2 2.32a8.78 8.78 0 0 1 1.48-1.08 2.59 2.59 0 0 1 1.24-.34 1.37 1.37 0 0 1 .95.3 1 1 0 0 1 .34.77 2.06 2.06 0 0 1-.17.85 4.36 4.36 0 0 1-.59.9q-.41.52-1.83 2l-3.25 3.29v2.37h9.66v-3zm-10.77-10.34l-4.56 3.72 1.86 2.29 1.51-1.24a8.18 8.18 0 0 0 .84-.86q-.05 1.19-.05 2.35v7h3.65v-13.26zM280.66 547h3.14l5-13.68h-3.15zm-5.83-3.14v-.09q2.17-2 2.86-2.67a9.46 9.46 0 0 0 1.11-1.37 5 5 0 0 0 .81-2.76 3.19 3.19 0 0 0-1.24-2.63 4.7 4.7 0 0 0-3.21-1 6.81 6.81 0 0 0-3.38.82 10.37 10.37 0 0 0-1.73 1.31l2 2.32a8.78 8.78 0 0 1 1.48-1.08 2.59 2.59 0 0 1 1.24-.34 1.37 1.37 0 0 1 .95.3 1 1 0 0 1 .34.77 2.06 2.06 0 0 1-.17.85 4.36 4.36 0 0 1-.59.9q-.41.52-1.83 2l-3.25 3.29v2.37h9.66v-3zm-10.77-10.34l-4.56 3.72 1.86 2.29 1.51-1.24a8.18 8.18 0 0 0 .84-.86q-.05 1.19-.05 2.35v7h3.65v-13.26zm-19.41 10.34v-.09q2.17-2 2.86-2.67a9.46 9.46 0 0 0 1.11-1.37 5 5 0 0 0 .81-2.76 3.19 3.19 0 0 0-1.24-2.63 4.7 4.7 0 0 0-3.21-1 6.81 6.81 0 0 0-3.38.82 10.37 10.37 0 0 0-1.73 1.31l2 2.32a8.78 8.78 0 0 1 1.48-1.08 2.59 2.59 0 0 1 1.24-.34 1.37 1.37 0 0 1 .95.3 1 1 0 0 1 .34.77 2.06 2.06 0 0 1-.17.85 4.36 4.36 0 0 1-.59.9q-.41.52-1.83 2l-3.29 3.27v2.37h9.66v-3zm-10.77-10.34l-4.56 3.72 1.86 2.29 1.51-1.24a8.18 8.18 0 0 0 .84-.86q-.05 1.19-.05 2.35v7h3.65v-13.26zM220.42 547h3.14l5-13.68h-3.15zM214 536.51h4.53v-3H211l-.51 7 1.32.66a6.34 6.34 0 0 1 2-.32 2.43 2.43 0 0 1 1.51.42 1.45 1.45 0 0 1 .56 1.22 1.47 1.47 0 0 1-.54 1.22 2.43 2.43 0 0 1-1.54.42 7.7 7.7 0 0 1-1.71-.24 9.22 9.22 0 0 1-1.79-.6v3a8.75 8.75 0 0 0 3.8.72 6 6 0 0 0 4-1.18 4.31 4.31 0 0 0 1.35-3.43 4.56 4.56 0 0 0-.51-2.24 3.72 3.72 0 0 0-1.45-1.53 4 4 0 0 0-2.06-.52 8.37 8.37 0 0 0-1.57.16zm-18.52-2.99l-4.56 3.72 1.86 2.29 1.51-1.24a8.18 8.18 0 0 0 .84-.86q-.05 1.19-.05 2.35v7h3.65v-13.26zm-10.92 0l-4.56 3.72 1.86 2.29 1.51-1.24a8.18 8.18 0 0 0 .84-.86q-.05 1.19-.05 2.35v7h3.65v-13.26zM171.09 547h3.14l5-13.68H176zm-5.83-3.14v-.09q2.17-2 2.86-2.67a9.46 9.46 0 0 0 1.11-1.37A5 5 0 0 0 170 537a3.19 3.19 0 0 0-1.24-2.63 4.7 4.7 0 0 0-3.21-1 6.81 6.81 0 0 0-3.38.82 10.37 10.37 0 0 0-1.73 1.31l2 2.32a8.78 8.78 0 0 1 1.48-1.08 2.59 2.59 0 0 1 1.24-.34 1.37 1.37 0 0 1 .95.3 1 1 0 0 1 .34.77 2.06 2.06 0 0 1-.17.85 4.36 4.36 0 0 1-.59.9q-.41.52-1.83 2l-3.25 3.29v2.37h9.66v-3zm-10.77-10.34l-4.56 3.72 1.86 2.29 1.51-1.24a8.18 8.18 0 0 0 .84-.86q-.05 1.19-.05 2.35v7h3.65v-13.26zm-19.26 0l-4.56 3.72 1.86 2.29 1.51-1.24a8.18 8.18 0 0 0 .84-.86q-.05 1.19-.05 2.35v7h3.65v-13.26zm-10.92 0l-4.56 3.72 1.86 2.29 1.51-1.24a8.18 8.18 0 0 0 .84-.86q-.05 1.19-.05 2.35v7h3.65v-13.26zM110.84 547H114l5-13.68h-3.2zm-6.37-10.5H109v-3h-7.58l-.51 7 1.32.66a6.34 6.34 0 0 1 2-.32 2.43 2.43 0 0 1 1.51.42 1.45 1.45 0 0 1 .56 1.22 1.47 1.47 0 0 1-.54 1.22 2.43 2.43 0 0 1-1.54.42 7.7 7.7 0 0 1-1.71-.24 9.22 9.22 0 0 1-1.79-.6v3a8.75 8.75 0 0 0 3.8.72 6 6 0 0 0 4-1.18 4.31 4.31 0 0 0 1.35-3.43 4.56 4.56 0 0 0-.51-2.24 3.72 3.72 0 0 0-1.45-1.53 4 4 0 0 0-2.06-.52 8.37 8.37 0 0 0-1.57.16zm-23.23 3.69q0 6.81 4.8 6.81a4.15 4.15 0 0 0 3.63-1.65 9 9 0 0 0 1.18-5.16q0-6.87-4.84-6.87a4.09 4.09 0 0 0-3.6 1.68 9.11 9.11 0 0 0-1.17 5.19zM87 537.1a11.27 11.27 0 0 1 .28 3.08 11.88 11.88 0 0 1-.27 3.09q-.27.87-.95.87t-1-.84a17.35 17.35 0 0 1 0-6.24q.28-.85 1-.85t.94.89zm-12-3.58l-4.56 3.72 1.86 2.29 1.51-1.24a8.18 8.18 0 0 0 .84-.86q-.05 1.19-.05 2.35v7h3.65v-13.26zM61.52 547h3.14l5-13.68h-3.19zm-5.83-3.14v-.09q2.17-2 2.86-2.67a9.46 9.46 0 0 0 1.11-1.37 5 5 0 0 0 .81-2.76 3.19 3.19 0 0 0-1.24-2.63 4.7 4.7 0 0 0-3.21-1 6.81 6.81 0 0 0-3.38.82 10.37 10.37 0 0 0-1.73 1.31l2 2.32a8.78 8.78 0 0 1 1.48-1.08 2.59 2.59 0 0 1 1.24-.34 1.37 1.37 0 0 1 .95.3 1 1 0 0 1 .34.77 2.06 2.06 0 0 1-.17.85 4.36 4.36 0 0 1-.59.9q-.41.52-1.83 2l-3.25 3.29v2.37h9.66v-3zm-10.77-10.34l-4.56 3.72 1.86 2.29 1.51-1.24a8.18 8.18 0 0 0 .84-.86q-.05 1.19-.05 2.35v7h3.65v-13.26z" transform="translate(.66 .38)"/></svg>