<svg xmlns="http://www.w3.org/2000/svg" viewBox="0 0 230.15 130.69"><defs><style>.cls-1{isolation:isolate}.cls-2{fill:#f3a712}.cls-3{fill:#442f1f}.cls-4{fill:#1e130a}.cls-5{fill:#302012}.cls-6{fill:#443e39}.cls-7{fill:#d3bba7}.cls-8{fill:#f9e3cf}.cls-9{fill:#6d0f0f}.cls-10{fill:#fff}.cls-11{fill:#e5e5e5}.cls-12,.cls-20{fill:none;stroke-linecap:round;stroke-linejoin:round}.cls-12{stroke:#443e39;stroke-width:1.5px}.cls-13,.cls-22{opacity:.5}.cls-14{fill:#bbdaff}.cls-15{fill:#a6c6f4}.cls-16{fill:#95b5e8}.cls-17{fill:#664018}.cls-18{fill:#3f2407}.cls-19{fill:#51310b}.cls-20{stroke:#2d1a05;stroke-width:.88px}.cls-21{fill:#ba1200}.cls-22{mix-blend-mode:multiply;fill:url(#linear-gradient)}.cls-23{fill:#c67b55}.cls-24{fill:#8e3d14}.cls-25{fill:#b45118}.cls-26{opacity:.75}.cls-27{fill:#878787}.cls-28{fill:#ededed}.cls-29{fill:#ccc}</style><linearGradient id="linear-gradient" x1="45.2" y1="64.2" x2="81.8" y2="234.9" gradientUnits="userSpaceOnUse"><stop offset="0" stop-color="#fff"/><stop offset=".1" stop-color="#ded8d3"/><stop offset=".1" stop-color="#dbd4cf"/><stop offset=".3" stop-color="#b3a599"/><stop offset=".5" stop-color="#927d6c"/><stop offset=".6" stop-color="#785f49"/><stop offset=".8" stop-color="#65492f"/><stop offset=".9" stop-color="#5a3c20"/><stop offset="1" stop-color="#56371b"/></linearGradient></defs><title>jerry</title><g class="cls-1"><g id="Layer_1" data-name="Layer 1"><path class="cls-2" d="M229.8 76.3a3 3 0 0 0-2.4-1.6l-2.4-.2a3 3 0 0 0-1.3.2 3 3 0 0 0-.4-.2 20.9 20.9 0 0 0-3.6-6.1l.8-9.7a3 3 0 0 0-2.8-3.2l-3.2-.3a3 3 0 0 0-2 .5 3 3 0 0 0-1.8-.8l-3.3-.2a2.7 2.7 0 0 1-1.7-.2l-9-.7a2.7 2.7 0 0 0-.5 0 95.7 95.7 0 0 0-19.4-4.2 6.5 6.5 0 0 0 0-2.9 6 6 0 0 0-.8-2 7.3 7.3 0 0 0-1.6-1.7 3 3 0 0 0-.7-.4 3.3 3.3 0 0 0-1.3-.2 3.8 3.8 0 0 0-1.4.2 4.4 4.4 0 0 0-1.2.9l-.6.5-.5-.2a4.1 4.1 0 0 0-1-.1 4.8 4.8 0 0 0-2.1.5c-1.5.7-2.2 2.3-2 4.4a3 3 0 0 0 0 .3 93 93 0 0 0-14.5 1.3h-.2l-.6.1a3 3 0 0 0-1.2-.4l-3.2-.2a3 3 0 0 0-2 .5 3 3 0 0 0-1.8-.8l-3.2-.2a3 3 0 0 0-.9 0 3 3 0 0 0-.8-.2l-9-.7a3 3 0 0 0-3.3 2.8l-.2 2.6a3 3 0 0 0 2.7 3.3l-.2 2.6a22.5 22.5 0 0 0-5.9 6.6h-.4a6.7 6.7 0 0 0-5.2 1.6A8.1 8.1 0 0 0 113 78a6.7 6.7 0 0 0 5 2.4 8.6 8.6 0 0 0 1 0 21.8 21.8 0 0 0 2.3 3.6c-6.2 8.4-21 6.2-21 6.2s13.4 8.6 26.2-.8c.6.4 1.1 1 1.8 1.4l-.2 1.7a3 3 0 0 0 2.8 3.2l2.2.2a3 3 0 0 0 1.2-.2l.6.2a9.5 9.5 0 0 0 2 .4 8 8 0 0 0 1 0 77.5 77.5 0 0 0 9.5 3.6 5 5 0 0 0-.1 1.3 10.3 10.3 0 0 0 .6 3.3 6.6 6.6 0 0 1 .2.6 2.2 2.2 0 0 0-.4 1.3 2.5 2.5 0 0 0 1 1.9 2.1 2.1 0 0 0 1.4.5h.4l.8.5 1.6 1a7 7 0 0 0 3.3.7 10.2 10.2 0 0 0 4.7-1.2l.3-.2a6.8 6.8 0 0 0 .6-.4 8.7 8.7 0 0 0 3-5.4v-.3l3.9.4a91 91 0 0 0 32.5-3 3 3 0 0 0 1.1.4l4.7.3a3 3 0 0 0 3.3-2.7v-1.6h.2a2.8 2.8 0 0 0 .5.8 2 2 0 0 0 1.6.6h.1l.7.5 1.4 1a7.1 7.1 0 0 0 3.8 1 9.6 9.6 0 0 0 3.8-.7l.4-.2a6.5 6.5 0 0 0 .6-.4 8.3 8.3 0 0 0 3.3-4.9 7.5 7.5 0 0 0 0-2.6 9.2 9.2 0 0 0-.9-2.9 3.8 3.8 0 0 0-.5-.8 4 4 0 0 0-.3-.3 3 3 0 0 0 2-2.6l.2-2.3 2.5-4a3 3 0 0 0 .2-3.2zm-8.3 12zM92.6 64.6a7 7 0 0 0-1.9-3.7 4.6 4.6 0 0 0-.9-.7h-.1a4 4 0 0 0-.6-.3 43.8 43.8 0 0 1 1.2-5l.5-1.4.8-3a15.9 15.9 0 0 0 .3-5.7 19.4 19.4 0 0 0-1.6-5.3l-1-2.2a7 7 0 0 1-.5-1.4 38.8 38.8 0 0 1-.5-6.8v-2a55.8 55.8 0 0 0-.7-7.5 14.2 14.2 0 0 0-.9-3 13 13 0 0 0-3.7-5.1 12.5 12.5 0 0 0-5.8-2.6 10.9 10.9 0 0 0-1.8-.1 13.2 13.2 0 0 0-1.5 0h-.1l-1.3.3-.8.2a10 10 0 0 1-1.5 0 8.3 8.3 0 0 1-1.4 0 5.2 5.2 0 0 1-2-.7l-.6-.8L65 6.3A17.3 17.3 0 0 0 57.8 1 15.5 15.5 0 0 0 52 0h-1.7a27.3 27.3 0 0 0-7.5 2 35.4 35.4 0 0 0-4 1.8l-2 1.1-.2.1-.7.5h-1a21 21 0 0 0-2.3.3A29.4 29.4 0 0 0 28.2 7 41.7 41.7 0 0 0 24 8.6a14 14 0 0 0-1.6.9l-.4.3-.2.1-.8.6-.2.2h-.1l-.2.2a8.3 8.3 0 0 0-1 .8 29.4 29.4 0 0 0-5.8 8.1 48 48 0 0 0-2 4.5l-.9 2.3-.3 1a9 9 0 0 0-.6.5 15.8 15.8 0 0 0-1.7 1.5 17.8 17.8 0 0 0-2.4 3.6 24.4 24.4 0 0 0-2.5 7.6 39.4 39.4 0 0 0-.7 7.3 31.8 31.8 0 0 0 .3 3.7l.2 1.5a10 10 0 0 0-.8.8 10.6 10.6 0 0 0-1.6 3.2A14.7 14.7 0 0 0 0 63a6.6 6.6 0 0 0 .2 1.3v.2a3 3 0 0 0 .2.5v.2a6.9 6.9 0 0 0 .6 1.2 8.7 8.7 0 0 0 2 2.4 10 10 0 0 0 1 .7v.7a23.8 23.8 0 0 0 .2 3.4 33.9 33.9 0 0 0 2 7.3 34.9 34.9 0 0 0 2.5 5.5 10.6 10.6 0 0 1-.2 1.4 7.2 7.2 0 0 1-.3 1.2v.1a3.8 3.8 0 0 1-.4.7l-.3.3-.9 1.2a7 7 0 0 0-1.1 3 5.1 5.1 0 0 0 1.6 4.3 5.7 5.7 0 0 0 1.3 1 3 3 0 0 0 .7.3l.6.2h.1a3.8 3.8 0 0 0 .6.1 5.6 5.6 0 0 1-.8 1.4 9.3 9.3 0 0 1-1.5 1.1l-.4.3-.3.2a16.4 16.4 0 0 0-2.6 2 7.6 7.6 0 0 0-1.7 2.6 6.3 6.3 0 0 0 0 4.2 3 3 0 0 0 .1.4l.1.2a6.4 6.4 0 0 0 .6 1.1l.6.8a3 3 0 0 0 .2.3l.4.4.3.4.2.2.7.6.2.2.1.1a12.2 12.2 0 0 0 5.5 2.4 14.9 14.9 0 0 0 2.5.2 17.2 17.2 0 0 0 8.9-2.6A14.6 14.6 0 0 1 27 115a58.7 58.7 0 0 0 11.5 12.3c3.3 2.6 7 3.1 10.4 3.3h.6l3 .1a14.2 14.2 0 0 0 7.2-1.6c4.2-2.4 7.8-6.4 11.2-10.3a38.6 38.6 0 0 0 2.5-3.1 12.4 12.4 0 0 0 2.4 1 11.7 11.7 0 0 0 3.5.5 10.6 10.6 0 0 0 3-.4 12.5 12.5 0 0 0 5.9-3.8 16 16 0 0 0 3.2-5.5 19.8 19.8 0 0 0 .8-9.6 19.4 19.4 0 0 0-.9-3.5 18.5 18.5 0 0 0-.9-2l-.7-1.3-.3-.5a23.3 23.3 0 0 1-1.7-3.7 15.2 15.2 0 0 0 1.4-1.9 19.3 19.3 0 0 0 2-4.9 44 44 0 0 0 1.4-7.2v-.7l.2-2.7a17.8 17.8 0 0 0 0-5z"/><path class="cls-3" d="M9 55.8A15.4 15.4 0 0 1 6.2 50a20.5 20.5 0 0 0 .6 4.3c-1.4 1-3.5 2.8-3.4 7.6a5.5 5.5 0 0 0 .6 2.7 9.7 9.7 0 0 1 5-8.8zm7.8-22.5C17.5 22 25.3 10.8 37 13.9c5.4-4.7 13.1-7.8 18.1-4 6.8 6 14.3 6.7 21 10.5 4.3 2.1 7.1 6.7 8.9 12.4-.3-3.8-.2-8.3-.8-12.4-1-6.5-6.6-8.9-10.4-7.8a11.6 11.6 0 0 1-9.2-1c-1.9-1.3-4.6-7.8-12.4-7.8s-15 5.4-15 5.4-4-.9-12 3-11.5 17.6-11.5 17.6-5 2.1-6.8 10.6l-.6 3.3c2.4-4.7 5.3-9.5 10.5-10.5z"/><path class="cls-4" d="M16.1 44.8a41.6 41.6 0 0 0 1.6 15 138.8 138.8 0 0 1 .6-15.2l-2.2.2zM85.7 61c-2.4.7-4.4 2.5-6.3 4.3.3 1.6.4 3.4.6 5l6-5.9a12.3 12.3 0 0 1-.3-3.4z"/><path class="cls-5" d="M87.6 41.6l-1.1-2.5-.4-.7a16.6 16.6 0 0 1-1.2-5.6c-1.8-5.6-4.5-10.3-8.8-12.4-6.8-3.7-14.2-4.5-21-10.5-5-3.8-12.7-.7-18.2 4-11.7-3-19.4 8.3-20.1 19.4-5.2 1-8.1 5.7-10.5 10.4a33.9 33.9 0 0 0-.1 6.3A15.4 15.4 0 0 0 9 55.8a9.7 9.7 0 0 0-5 8.8 6 6 0 0 0 1.8 2c2.1-3.5 5.9-5.3 9.6-2a20.1 20.1 0 0 1 3.6 4.7l-.8 8.2 3.3 3.2L68 82.4l12-12-.6-5c2-2 3.9-3.7 6.3-4.4a20 20 0 0 1 .2-2c-.7-5.9 2.5-11.6 1.7-17.4zM17.6 60a41.6 41.6 0 0 1-1.5-15l2.2-.3a138.8 138.8 0 0 0-.6 15.3zm61.6-4a137.4 137.4 0 0 0-.7-15.3 21.5 21.5 0 0 1 2.2 1c.6 5 .6 9.8-1.5 14.3z"/><path class="cls-4" d="M15.4 64.6c-3.7-3.2-7.5-1.5-9.6 2a8.5 8.5 0 0 0 2.9 1.3l9.6 9.6c0-2.8.6-5.4.8-8.2a20.1 20.1 0 0 0-3.7-4.7zM79 56a25 25 0 0 0 1.6-14.3 21.5 21.5 0 0 0-2.2-1 137.4 137.4 0 0 1 .7 15.3z"/><path class="cls-3" d="M87.6 41.6c.8 5.8-2.4 11.5-1.7 17.3a70.5 70.5 0 0 1 2-7.6l.2-1a12.3 12.3 0 0 0-.5-8.7z"/><path class="cls-6" d="M50.6 2.5A24.4 24.4 0 0 0 44 4a31.2 31.2 0 0 0-3.6 1.6l-1.9 1-.9.6-.4.3-.3.2H35a19 19 0 0 0-2 .3 28.8 28.8 0 0 0-4 1.2 36 36 0 0 0-3.9 1.6l-2 1.2a17.7 17.7 0 0 0-1.7 1.5 26.7 26.7 0 0 0-5.3 7.3 44 44 0 0 0-1.9 4.2l-.8 2.2-.3 1-.1.6v.2l-.5.3-.8.6a13.2 13.2 0 0 0-1.4 1.3 15 15 0 0 0-2 3A22 22 0 0 0 6 41.1a36.4 36.4 0 0 0-.5 6.9 29 29 0 0 0 .2 3.3l.2 1.7.2.7.1.5A7.4 7.4 0 0 0 3.5 58a11.8 11.8 0 0 0-.5 4.6 5.8 5.8 0 0 0 2 3.8 7.5 7.5 0 0 0 1.7 1 9.5 9.5 0 0 0 .9.5 7 7 0 0 0 .8.2l13 12.6-12.6-13a6.9 6.9 0 0 1-1-.4A9 9 0 0 1 7 67a7 7 0 0 1-1.5-1 5 5 0 0 1-1.7-3.4 11 11 0 0 1 .5-4.3 6.8 6.8 0 0 1 1-2 7.6 7.6 0 0 1 2-1.7l-.2-1-.1-.9-.2-1.6a28 28 0 0 1-.1-3.1 35.3 35.3 0 0 1 .7-6.6 20.5 20.5 0 0 1 2.2-6.2 13.4 13.4 0 0 1 2-2.7 11.5 11.5 0 0 1 1.2-1l.6-.5.2-.1.2-.2.6-.3.3-.9.2-.5.3-1 .8-2a42.3 42.3 0 0 1 1.9-4 24.7 24.7 0 0 1 5-6.8 15.5 15.5 0 0 1 1.5-1.2l1.7-1 3.7-1.4a26.7 26.7 0 0 1 3.6-1 16.6 16.6 0 0 1 1.7-.2H37l.5-.1.6-.2.6-.4.4-.2.9-.5 1.7-1A29.3 29.3 0 0 1 45 6.6a22.6 22.6 0 0 1 5.9-1.4 11.7 11.7 0 0 1 5.2.6 12.2 12.2 0 0 1 5 3.7l1.1 1.4a10.3 10.3 0 0 0 1.6 1.6 9.8 9.8 0 0 0 4.3 1.6 14.2 14.2 0 0 0 4.5-.1l2.1-.5a6.8 6.8 0 0 1 1.9 0A7.6 7.6 0 0 1 80 15a8.2 8.2 0 0 1 2.4 3.2 14.4 14.4 0 0 1 1 4.2l.4 4.6a57.3 57.3 0 0 0 .9 9.4 11.4 11.4 0 0 0 .8 2.4l1 2A15.4 15.4 0 0 1 88 45a11.8 11.8 0 0 1-.1 4.3l-1.1 4.2a31.2 31.2 0 0 0-1.4 8.5v1l.2 1v.3l-.2.2-.6.7-2.6 2.7-4.7 4.8-9.4 9.7 9.7-9.4 4.8-4.7 2.7-2.6.7-.7.5-.4a5.8 5.8 0 0 0-.1-.6 9.8 9.8 0 0 1-.1-1v-1a30.4 30.4 0 0 1 1.5-8.1l1.3-4.3a13 13 0 0 0 .3-4.7 16.7 16.7 0 0 0-1.4-4.6l-1-2.1a9.8 9.8 0 0 1-.7-2 56.9 56.9 0 0 1-.6-9.3l-.3-4.7-.3-2.4a11.5 11.5 0 0 0-.7-2.4 10.3 10.3 0 0 0-3-4 9.8 9.8 0 0 0-4.5-2 9 9 0 0 0-2.6 0c-.9 0-1.4.3-2 .4a11.8 11.8 0 0 1-3.9 0 7.5 7.5 0 0 1-3.1-1.2A9.1 9.1 0 0 1 64 9.3l-1.2-1.5a14.7 14.7 0 0 0-6-4.4 14.1 14.1 0 0 0-6.3-1z"/><path class="cls-4" d="M83.6 87.8l1-.3a22.4 22.4 0 0 1-.9-3.7v-5.4H74L72.5 96c5.4-.4 7-6.2 11-8.2z"/><path class="cls-5" d="M84.5 87.5l-1 .3c-4 2-5.7 7.8-11 8.2l-1.2 12.5a7.7 7.7 0 0 0 5 4.7c7.3-.6 11.3-5.8 12.7-12.4a16.2 16.2 0 0 0-2.2-8 27.5 27.5 0 0 1-2.3-5.3z"/><path class="cls-3" d="M76.4 113.2a8.6 8.6 0 0 0 4.3.4c3.9-.7 6.6-4.2 7.7-7.8a17.1 17.1 0 0 0 .7-5c-1.4 6.6-5.4 11.8-12.7 12.4z"/><path class="cls-6" d="M88.2 98.4a16.8 16.8 0 0 1-.5 7.6 12.3 12.3 0 0 1-2.3 4.2 8.8 8.8 0 0 1-3.9 2.8 7.8 7.8 0 0 1-4.5.2 9.2 9.2 0 0 1-3.5-1.7 6.6 6.6 0 0 1-1.7-2 4.4 4.4 0 0 1-.3-.7l-.1-.3v.3a4.4 4.4 0 0 0 .3.7 6.7 6.7 0 0 0 1.7 2.1 9.4 9.4 0 0 0 3.5 2 8.3 8.3 0 0 0 4.8.1 9.5 9.5 0 0 0 4.4-2.8 13.2 13.2 0 0 0 2.7-4.5 16.9 16.9 0 0 0 .8-8.2 16.3 16.3 0 0 0-.8-3 20.8 20.8 0 0 0-1.8-3.5 24.6 24.6 0 0 1-3-8v-5.6l-10 .3 9.4.3-.2 5.1a24.8 24.8 0 0 0 2.8 8.5 17.8 17.8 0 0 1 2.2 6.1z"/><path class="cls-3" d="M15 96.6a13.3 13.3 0 0 1-2.5 7c-2 2.4-8 3.9-5.7 7.8a9.1 9.1 0 0 0 .6.9c4.4-4.4 8.7-9 7.6-15.7zm-3.2-7.9a10.4 10.4 0 0 1-.5 1.5c-.6 1.6-3.5 3.8-2 5.6a2 2 0 0 0 1.9.9c-.2-2.6 2-5.7.6-8z"/><path class="cls-4" d="M20.1 90.2a82 82 0 0 0 .6-10h-9.1a19.8 19.8 0 0 1 .4 7.5 7.4 7.4 0 0 0 8.1 2.5z"/><path class="cls-5" d="M27 80.2h-6.3a82 82 0 0 1-.6 10 7.4 7.4 0 0 1-8.1-2.5l-.2 1c1.4 2.3-.8 5.4-.6 8 2-.3 3.7-3.7 4-5.2a46.8 46.8 0 0 1-.2 5.1c1.1 6.6-3.2 11.3-7.6 15.7 3.5 4.5 10.2 4.1 14.7 1.3 3.4-2.2 7.4-3.9 10.3 0V92.8z"/><path class="cls-6" d="M9.4 105.1a15 15 0 0 0-2.6 2 3.8 3.8 0 0 0-1 2 3.5 3.5 0 0 0 .3 2.3 9.1 9.1 0 0 0 3.2 3.4 9.8 9.8 0 0 0 4.7 1.4 13.7 13.7 0 0 0 5-.7 14.5 14.5 0 0 0 2.5-1l2.1-1.4a9.5 9.5 0 0 1 4.6-1.4 4.3 4.3 0 0 1 2.2.5 9.8 9.8 0 0 1 2.2 2.2v-8.9l-.1-6.6-.1-6-.1 6-.1 6.6v7.3a4.3 4.3 0 0 0-1.4-1.1 5 5 0 0 0-2.5-.8 10.2 10.2 0 0 0-5 1.5l-2.2 1.2a13.6 13.6 0 0 1-2.3 1 12.7 12.7 0 0 1-4.6.5 8.7 8.7 0 0 1-4.2-1.3 8 8 0 0 1-2.7-3 2.2 2.2 0 0 1 .5-2.7 14.5 14.5 0 0 1 2.4-1.9 14 14 0 0 0 2.7-2 10.3 10.3 0 0 0 2-3.5 28 28 0 0 0 1-9.2v-4l-1.1 3.9a11 11 0 0 1-1.4 2.9 4 4 0 0 1-2.3 1.9 1.4 1.4 0 0 1-1.2-.5 1.4 1.4 0 0 1-.5-1.2 7.4 7.4 0 0 1 1.6-2.9 5.9 5.9 0 0 0 .8-1.6 10.7 10.7 0 0 0 .4-1.7 15.7 15.7 0 0 0 .3-3.5 21.3 21.3 0 0 0-.4-3.3l-.1-.7-.1-.2v-.2h1.4l13.7-.2-13.7-.2h-2v.3l.1.5.2.8a20.9 20.9 0 0 1 .3 3.2 15.2 15.2 0 0 1-.3 3.3 10 10 0 0 1-.5 1.6 5 5 0 0 1-.8 1.4l-1 1.5a4.2 4.2 0 0 0-.8 1.8 2.3 2.3 0 0 0 .7 2 3.1 3.1 0 0 0 .9.5l.5.2a2.7 2.7 0 0 0 .6 0 3.4 3.4 0 0 0 1.8-.8 8.4 8.4 0 0 0 1.2-1.4 12 12 0 0 0 1.6-3.3l-1.1-.1a27.4 27.4 0 0 1-1.1 8.7 9.2 9.2 0 0 1-1.8 3 13.6 13.6 0 0 1-2.4 2z"/><path class="cls-7" d="M11.6 68.7a28 28 0 0 1 6.3 8.2A12.6 12.6 0 0 1 19 75a31.7 31.7 0 0 0-7.4-6.3zm3.2 15.2c1.5-1.3 3.7-1.4 5.6-1.4a8 8 0 0 0-2.4-.7c-1.6 0-2.6.4-3.3 2zm-3.9-1.1c1.4 3 4.5 8 7.5 6h4.4l-.4-3.5c-4 4.6-8.4 1.5-11.5-2.5z"/><path class="cls-8" d="M15.4 67.5a15.3 15.3 0 0 0-1.1-1.5 4 4 0 0 0-3.8-1.8 10.3 10.3 0 0 1 4.9 3.3z"/><path class="cls-8" d="M22.2 83.2l-.3-2.4c-3.3 1.3-6.8-1.9-8.7-5 2.6 2.6 5.3 3 8.5 3L21 73h-3.1a26.6 26.6 0 0 0-2.5-5.6 10.3 10.3 0 0 0-5-3.3c-1.2.2-2.2 1.4-2.6 3.3a27.1 27.1 0 0 0 3 15.3c3.2 4 7.6 7 11.6 2.6zM11.6 68.7A31.7 31.7 0 0 1 19 75a12.6 12.6 0 0 0-1.2 2 28 28 0 0 0-6.2-8.3zM14.8 84c.6-1.7 1.6-2 3.2-2.1a8 8 0 0 1 2.4.7c-1.8 0-4.1.1-5.6 1.4z"/><path class="cls-7" d="M21.9 80.8l-.3-2c-3.1 0-5.8-.4-8.4-3 1.9 3.2 5.4 6.3 8.7 5z"/><path class="cls-6" d="M8.5 72.9a24.3 24.3 0 0 1-.2-2.9 11.3 11.3 0 0 1 .4-3.5 3.3 3.3 0 0 1 1-1.4 2.3 2.3 0 0 1 1.6-.5 3.4 3.4 0 0 1 1.8.7 7.2 7.2 0 0 1 1.4 1.4 19.3 19.3 0 0 1 2 3.4l.7 1.6.6 1.5L21 73l-3-.1-.5-1.4-.6-1.7a19.5 19.5 0 0 0-1.9-3.5 5.5 5.5 0 0 0-3.6-2.6 3.3 3.3 0 0 0-2.4.6A4.3 4.3 0 0 0 7.6 66a11.8 11.8 0 0 0-.6 4 20.4 20.4 0 0 0 .2 3A30 30 0 0 0 9 79.6a27 27 0 0 0 4.2 7.5 6.2 6.2 0 0 0 3.3 2.4 2.7 2.7 0 0 0 1.8-.4.4.4 0 0 1 .4-.1h1l3.1-.2h-4.2a1 1 0 0 0-.2 0H18a2.3 2.3 0 0 1-1.5.3 5.8 5.8 0 0 1-3-2.3 27.3 27.3 0 0 1-3.6-7.6A35.5 35.5 0 0 1 8.5 73z"/><path class="cls-6" d="M14 84.7a3.9 3.9 0 0 1 .5-.3 4 4 0 0 1 1.1-.6 2.5 2.5 0 0 1 2.2.3l.7-1.1a3 3 0 0 0-1.4-.4 2.9 2.9 0 0 0-1.8.6 4 4 0 0 0-1 1 3.5 3.5 0 0 0-.2.5zM9.1 67l1.4 1a24 24 0 0 1 2.9 2.9 21.7 21.7 0 0 1 2.6 3.8 21.4 21.4 0 0 1 1.4 3.3l1.3-.4a16 16 0 0 0-1.7-3.5 20.5 20.5 0 0 0-3.1-3.7 23 23 0 0 0-3.2-2.6A16.6 16.6 0 0 0 9 67z"/><path class="cls-6" d="M12 74.6a9.7 9.7 0 0 0 1.8 2.3 9.1 9.1 0 0 0 4 2.2l.3-1.4a12 12 0 0 1-3.9-1.3 11 11 0 0 1-1.6-1.2 7.7 7.7 0 0 1-.7-.6z"/><path class="cls-7" d="M84 83a2.6 2.6 0 0 0-3.4-1.2v.9a4.6 4.6 0 0 1 3.4.4zm-4.2 2.3c0 .1-.1.2-.3.2 0 2.5 2.5 1.9 3.8.9a12 12 0 0 0 2.9-3.1c-2 1.6-4.3 3.3-6.4 2z"/><path class="cls-8" d="M86 62.6c-3.2.7-5 4.5-5.7 7.3l-4.7 2.5-.6 9.9 3 2 1.6 1v.2c0 .1.2 0 .2-.2 2.1 1.3 4.5-.4 6.4-2a12 12 0 0 0 .9-1.7c1.5-3.4 1.8-7.5 2.2-11.2.3-2.6 1.1-8.8-3.4-7.8zM81.2 76c.8-.7 1.4-1.8 2.2-2.6a5.8 5.8 0 0 1-2.2 4.5zm-.7 6.7v-1a2.6 2.6 0 0 1 3.4 1.4 4.6 4.6 0 0 0-3.4-.4zm1-11.5c-.4-.2-.5-.6-.6-1a10 10 0 0 1 5.1-3.8c-2 1.2-3 3.2-4.6 4.8z"/><path class="cls-7" d="M81 70.2c0 .4.1.8.5 1 1.7-1.7 2.7-3.7 4.6-5a10 10 0 0 0-5.1 4zm.3 5.8v1.9a5.8 5.8 0 0 0 2.2-4.5c-.8.8-1.4 1.9-2.2 2.6z"/><path class="cls-6" d="M89.8 72l.3-3a14.9 14.9 0 0 0-.2-4.1 4 4 0 0 0-1.1-2.2 3 3 0 0 0-2.5-.6 5.9 5.9 0 0 0-3.9 2.6 14 14 0 0 0-1.9 3.8l-.3.9v.4l-.4.1-1.4.9-2.8 1.6 3-1.4 1.4-.8.5-.2.1-.5.4-.9a13.6 13.6 0 0 1 2-3.5 5.1 5.1 0 0 1 3.4-2.1 2 2 0 0 1 1.7.5 3 3 0 0 1 .7 1.6 14.6 14.6 0 0 1 0 3.8l-.3 3a52.8 52.8 0 0 1-1 7 16 16 0 0 1-1.5 4 11.7 11.7 0 0 1-2.8 3.2 4.3 4.3 0 0 1-1.8.9 1.2 1.2 0 0 1-1.5-.6 2 2 0 0 1-.2-.8c.2-.5-.4-.6-.5-.8l-1.5-.8-2.7-1.7 2.7 1.9 1.3.9.3.2v.3a2.4 2.4 0 0 0 .2 1 1.4 1.4 0 0 0 .8.8 2.3 2.3 0 0 0 1.2.1 4.9 4.9 0 0 0 2.1-.9 12.3 12.3 0 0 0 3.2-3.3 16.5 16.5 0 0 0 1.8-4.2 41.5 41.5 0 0 0 1.2-7z"/><path class="cls-6" d="M87.2 65.6a8.4 8.4 0 0 0-1.3.7 14.2 14.2 0 0 0-2.5 2 16.4 16.4 0 0 0-3.8 5.8l1.3.4a20.3 20.3 0 0 1 3-5.8 14.7 14.7 0 0 1 2.2-2.3 8.7 8.7 0 0 1 1-.8zm-3.8 16.7a2.8 2.8 0 0 0-.3-.4 3 3 0 0 0-1-.8 2.3 2.3 0 0 0-1.6-.2 2.6 2.6 0 0 0-1.1.7l1 1a2 2 0 0 1 1.5-.8 3 3 0 0 1 1 .3 3 3 0 0 1 .5.2zm.7-9.9a12 12 0 0 1-1.6 1.8 26.2 26.2 0 0 1-2.7 2.1l.8 1.1a11.3 11.3 0 0 0 2.4-2.8 10.3 10.3 0 0 0 1.1-2.2z"/><path class="cls-7" d="M44.1 89.4c1 2.8 3.1 5.7 6.5 4.4a10.4 10.4 0 0 0 3.7-3c-3.4.2-7 0-10.1-1.4zm-9.1-60c15.6-6.2 28.7.7 42.3 7a13.5 13.5 0 0 0-1.3-2A25.7 25.7 0 0 0 65.6 27a38.1 38.1 0 0 0-44.9 12.7l3-1.3c4.5-2.2 7.5-7.4 11.2-9zm14.9 76.3c3 .4 5-1.3 6.8-3H44.5a8.8 8.8 0 0 0 5.4 3zm2.4 9.8a2 2 0 0 0-.9-.5c-2 .5-4 .8-5.3 2.4a12.8 12.8 0 0 1 8.5-.7 2.7 2.7 0 0 0-2.3-1.2zm-8-31.4a38.5 38.5 0 0 1-25.2 1.2c7.3 6 19.9 5.5 25.2-1.2zm33.2.7H55.2c6.6 5.8 15.3 4 22.3 0zM43.8 65.1c0-1-.2-2-.7-2-7-2.1-21.7-4.9-23.7 3.2 7.7-3.8 16-3.2 24.4-1.2z"/><path class="cls-8" d="M79.4 46.3a26 26 0 0 0-2.1-9.8C63.7 30 50.6 23.3 34.9 29.4c-3.7 1.5-6.7 6.7-11.2 9l-3 1.2c-.4.6-.9 1.2-1.2 1.9-2.9 4.2-1.8 11.7-1.8 16.5 0 5.9 0 11.8.2 17.6l.3 9.4c0 1.7.2 3.4.3 5 .3 3.7 2.2 7 4 10.1a120 120 0 0 0 9.3 14.8c8.7 8 22 10.1 32.7 5.6a91 91 0 0 0 3.9-4.3 37.6 37.6 0 0 0 7.2-13 88.7 88.7 0 0 0 4.2-19.9l.4-8a274.2 274.2 0 0 0-.8-29zM43.1 63c.5 0 .6 1 .7 2-8.3-2-16.7-2.6-24.4 1.2 2-8 16.8-5.3 23.7-3.2zM39 75.6a16 16 0 0 1-14.5 1c4.5-3.3 9.9-3 14.5-1zm-20 9.7c8 3 17 1.6 25.3-1.2-5.3 6.7-17.8 7.3-25.2 1.2zm35.3 5.5a10.4 10.4 0 0 1-3.7 3c-3.4 1.3-5.5-1.6-6.4-4.4 3.1 1.5 6.7 1.5 10 1.4zm-2 5.3c-1.1.2-2.3 1-3.4.8-.5-.6-2-.5-2.6-1.1a10.9 10.9 0 0 1 6 .3zM46 117.4c1.3-1.6 3.2-2 5.3-2.4a2 2 0 0 1 1 .5 2.7 2.7 0 0 1 2.1 1.2 12.8 12.8 0 0 0-8.4.7zm1-8.6c2 .7 4.4 1.7 6.4.1-1.6 2-4.9 3.1-6.3 0zm2.8-3a8.8 8.8 0 0 1-5.4-3h12.2c-1.9 1.6-3.8 3.3-6.8 3zm5.3-21h22.3c-7 4-15.7 5.8-22.3 0zm3.1-10.3c4.6-1.4 10-3.2 14.5-.3-4.5 2-9.7 1.4-14.5.3zm-4.2-9a3.6 3.6 0 0 1 1.8-3.3c6.2-2 18-4 22.2 1.4a45.4 45.4 0 0 0-24 2z"/><path class="cls-7" d="M24.5 76.6a16 16 0 0 0 14.5-1c-4.6-2-10-2.3-14.5 1zm48.3-2.4c-4.5-2.9-9.9-1-14.5.3 4.8 1.1 10 1.6 14.5-.3zM55.9 62.3a3.6 3.6 0 0 0-1.8 3.2 44.9 44.9 0 0 1 24-1.8c-4.2-5.5-16-3.5-22.2-1.4zM31.8 115a52.3 52.3 0 0 0 9 9.2c2.5 2 5.3 2.4 8.5 2.6 2.7.1 6.3.4 8.8-1a33.1 33.1 0 0 0 6.4-5.4 31 31 0 0 1-32.7-5.5zm20.5-19a10.9 10.9 0 0 0-6-.2c.6.6 2 .5 2.6 1.1 1.1.2 2.3-.6 3.4-.8zm-5.1 12.8c1.4 3.2 4.7 2.1 6.3.1-2 1.6-4.4.6-6.3 0z"/><path class="cls-9" d="M55 103c-1.8.7-3.5 1.7-5.4 1.7-1.3 0-2.4-.9-3.6-1.3a12.9 12.9 0 0 0-1.3-.5 32.1 32.1 0 0 0 10.2.1z"/><path class="cls-11" d="M42.8 102.5a14 14 0 0 1 2 .4 32.1 32.1 0 0 0 10.1.1l.7-.3a55.3 55.3 0 0 0-12.8-.2z"/><path class="cls-10" d="M41.3 101a17.2 17.2 0 0 0-2.6 1.5 16.9 16.9 0 0 1 4.1 0 55.3 55.3 0 0 1 12.8.2 9.6 9.6 0 0 1 1-.3 22.4 22.4 0 0 1 4.4-.7c-6.3-2.2-13-1.3-19.7-.6z"/><path class="cls-11" d="M61 101.7h.4c-3.6-2.7-8.5-2.1-12.7-2a18.3 18.3 0 0 0-7.4 1.4c6.7-.7 13.4-1.6 19.7.6z"/><path class="cls-12" d="M19.5 41.5a37.9 37.9 0 0 1 46-14.6A25.7 25.7 0 0 1 76 34.5c2.7 3.5 3 7.5 3.4 11.8a274.2 274.2 0 0 1 .8 29 92.9 92.9 0 0 1-4.6 28 37.6 37.6 0 0 1-7.2 13c-3 3.3-6.5 7.2-10.3 9.5-2.5 1.5-6 1.2-8.8 1a14 14 0 0 1-8.5-2.5 77.7 77.7 0 0 1-18.3-24.1c-1.8-3.2-3.7-6.4-4-10.1-.4-4.8-.4-9.6-.6-14.4a691 691 0 0 1-.2-17.6c0-5-1-12.4 1.8-16.6z"/><path class="cls-6" d="M50 99.2l-3.2.1a17.6 17.6 0 0 0-3.9 1 16.3 16.3 0 0 0-3 1.4c-.8.4-1.2.8-1.2.8l1.2-.7a16.7 16.7 0 0 1 3.2-1.2 18.5 18.5 0 0 1 3.8-.5h3a43.2 43.2 0 0 1 7 0 11.3 11.3 0 0 1 3.3.9 7 7 0 0 1 .9.5l.3.2-.3-.2a7 7 0 0 0-.9-.6 11.3 11.3 0 0 0-3.2-1.3 31.1 31.1 0 0 0-7-.4z"/><path class="cls-6" d="M50 105.2a8.9 8.9 0 0 0 3.1-1 27.4 27.4 0 0 1 3.6-1.6 22.7 22.7 0 0 1 4.7-1 21.5 21.5 0 0 0-4.8.5 24.5 24.5 0 0 0-3.8 1.4 9.7 9.7 0 0 1-2.8.7 3.3 3.3 0 0 1-1.2 0 8.8 8.8 0 0 1-1.5-.7 12.1 12.1 0 0 0-3.8-1.1 15.8 15.8 0 0 0-3.4-.1c-1 0-1.5.2-1.5.2h1.5a16.2 16.2 0 0 1 3.3.3 12.2 12.2 0 0 1 3.5 1.4 8.6 8.6 0 0 0 1.7.8 3.8 3.8 0 0 0 1.5.2zm.5 4a7 7 0 0 1-4.2-1 6.3 6.3 0 0 0 1.5 1.1 5.3 5.3 0 0 0 2.7.8 5.5 5.5 0 0 0 2.7-.9 7.3 7.3 0 0 0 1.4-1.2 8.3 8.3 0 0 1-1.6.8 7.3 7.3 0 0 1-2.5.4zm-1-13a9.8 9.8 0 0 1-2.1-.2 7 7 0 0 1-1.4-.4 6 6 0 0 0 1.3.9 5.5 5.5 0 0 0 2.2.6 5.4 5.4 0 0 0 2.2-.5 6.8 6.8 0 0 0 .9-.6l.4-.3-.5.2a8 8 0 0 1-1 .2 9.4 9.4 0 0 1-2 .1zm-13 7a3.7 3.7 0 0 1 0-2 3.3 3.3 0 0 0-.5.8 2.5 2.5 0 0 0-.2 1.4 2.3 2.3 0 0 0 .8 1.2 3 3 0 0 0 .5.3l.3.2-.2-.2a3.4 3.4 0 0 1-.4-.5 3.2 3.2 0 0 1-.3-1.2zM51 114.8a6.6 6.6 0 0 0-3.6 1.4 14 14 0 0 0-1.4 1l-.5.6.6-.4a16 16 0 0 1 1.5-.8 7.6 7.6 0 0 1 3.3-.9 5.5 5.5 0 0 1 3.2 1 10.6 10.6 0 0 1 1.4 1l.5.6-.4-.6a9.9 9.9 0 0 0-1.2-1.3 6 6 0 0 0-1.8-1.2 5.1 5.1 0 0 0-1-.3 6.2 6.2 0 0 0-.7-.1z"/><path class="cls-3" d="M35.8 61.7a7 7 0 0 0-6.2-2.4c-2 .3-3.7 2.2-4.9 4a11.4 11.4 0 0 1 11.1-1.6z"/><path class="cls-5" d="M37.6 64a13 13 0 0 0-1.8-2.3 11.4 11.4 0 0 0-11 1.7 21.4 21.4 0 0 0-1.4 2.5A23.4 23.4 0 0 1 37.6 64z"/><path class="cls-4" d="M23.4 65.9l-.6 1.6s10-6 15.3-2.4l-.5-1a23.4 23.4 0 0 0-14.2 1.8z"/><path class="cls-5" d="M73.8 63.2a12.2 12.2 0 0 0-.7-1c-4-2-8.1-3-12.2-2a11.8 11.8 0 0 0-2.7 2.3 28 28 0 0 1 15.6.7z"/><path class="cls-4" d="M58.1 62.5a9.3 9.3 0 0 0-.7 1s10.1-3.7 17.6 2a12.2 12.2 0 0 0-1.2-2.3 28 28 0 0 0-15.6-.7z"/><path class="cls-3" d="M73 62.2a8.9 8.9 0 0 0-6.5-3.6 9.4 9.4 0 0 0-5.6 1.5c4.1-1 8.2.1 12.2 2z"/><path class="cls-6" d="M23.5 64.6l-.5 1.2-.2.4-.3.7-.5 1.6a49.5 49.5 0 0 1 5.4-2.9 21.9 21.9 0 0 1 5-1.4 9 9 0 0 1 4.2.2 4.7 4.7 0 0 1 1.1.5l.4.2-.4-.3a4.7 4.7 0 0 0-1.1-.5 8.4 8.4 0 0 0-1.9-.5h-2.3a21.8 21.8 0 0 0-5.2 1.2l-2.5 1-1 .5h-.1l.1-.4.6-1a15.1 15.1 0 0 1 2.7-4 5 5 0 0 1 2.6-1.5 6.3 6.3 0 0 1 3 .2 9.4 9.4 0 0 1 4.2 3.3 12.5 12.5 0 0 1 1.3 2A12.3 12.3 0 0 0 37 63a9.6 9.6 0 0 0-4.2-3.6 6.8 6.8 0 0 0-3.2-.4 5.7 5.7 0 0 0-3 1.5 14.3 14.3 0 0 0-3 4.1zM59 62.3a10.7 10.7 0 0 1 4.2-2.9 9.4 9.4 0 0 1 3.2-.5 9 9 0 0 1 3.2.7 10.3 10.3 0 0 1 4.3 3.8 11.4 11.4 0 0 1 1.1 2.2 11.3 11.3 0 0 0-1-2.2 10.5 10.5 0 0 0-4.2-4.2 9.4 9.4 0 0 0-3.3-.9 10 10 0 0 0-3.5.4 10.8 10.8 0 0 0-4.6 3l-.4.3-.2.2-.3.3a19.4 19.4 0 0 0-1.2 2l1.3-.5 1.2-.4 1.2-.3a25.1 25.1 0 0 1 2.8-.4 20.4 20.4 0 0 1 5.9.1 16 16 0 0 1 4.6 1.6l1.2.8.5.2-.4-.3-1.3-.8a16.1 16.1 0 0 0-4.5-1.9 20.4 20.4 0 0 0-6-.4 24.4 24.4 0 0 0-3 .3l-1.2.3z"/><path class="cls-7" d="M45.4 90.8c-1.2-1.2-1.4-2.4-.8-3.6a1.7 1.7 0 0 0-1.2 2.8c.8 1.2 3 2 4.3 2.5a6.4 6.4 0 0 0 7-2.4 3 3 0 0 0 .3-.5 11 11 0 0 1-2.9 1.9 7.3 7.3 0 0 1-6.7-.7zm.3-23.7l.2 2.3a6.2 6.2 0 0 1 5.9-1l.1-1.7a17.2 17.2 0 0 0-6.2.4zm5.7 21.5a4.6 4.6 0 0 1 3.6-1 2 2 0 0 0-2.8-.3 141.3 141.3 0 0 1-.5-17.1c-.9 6.2-.4 12-.3 18.4z"/><path class="cls-8" d="M55 87.5a4.6 4.6 0 0 0-3.6 1.1c0-6.3-.6-12.2.3-18.4v-1.8a6.2 6.2 0 0 0-5.8 1c.3 5.5.3 14.3.1 18.1a2.6 2.6 0 0 0-1.4-.3c-.6 1.2-.4 2.4.8 3.6a7.3 7.3 0 0 0 6.7.7 11 11 0 0 0 2.9-1.8 2 2 0 0 0 0-2.2z"/><path class="cls-6" d="M52.1 91.8a6 6 0 0 1-3.8.4 11 11 0 0 1-2.3-.7 7 7 0 0 1-2.2-1.4 2 2 0 0 1-.5-1.1 1.1 1.1 0 0 1 .4-1 1.8 1.8 0 0 1 1.1-.4 1.8 1.8 0 0 1 .4 0h.4l.6.2h.1a.9.9 0 0 0 0-.1v-6.5a245.8 245.8 0 0 0-.5-10.3V87c0 .1-.2 0-.2 0h-.4a2.6 2.6 0 0 0-2 .5 1.9 1.9 0 0 0-.6 1.7 2.8 2.8 0 0 0 .7 1.4 7.6 7.6 0 0 0 2.4 1.7 11.6 11.6 0 0 0 2.5.8 6.8 6.8 0 0 0 4.3-.5 6.7 6.7 0 0 0 1.7-1.1 5.2 5.2 0 0 0 1.4-2 2.5 2.5 0 0 0 0-1.5 2 2 0 0 0-1-1.2 2.2 2.2 0 0 0-1.6-.2 2.1 2.1 0 0 0-.4 0l-.3-2.6-.2-3-.3-6a84.2 84.2 0 0 1 .4-10.3c0-1.3.2-2.4.3-3.1l.2-1.2-.2 1.2-.5 3.1a82.5 82.5 0 0 0-.6 10.3v6l.2 3 .2 3.1v.7c0 .1.1 0 .2 0l.3-.2.3-.1h.2a1.4 1.4 0 0 1 .3-.2 1.4 1.4 0 0 1 1 .2 1.4 1.4 0 0 1 .5 1.7 4.5 4.5 0 0 1-1.2 1.6 6 6 0 0 1-1.3 1z"/><path class="cls-4" d="M78.4 40.8c-3-3.3-4.8-8.2-6.4-12.5 0 2.9.7 9 6.4 12.5z"/><path class="cls-5" d="M72.1 26.8a13 13 0 0 0-.1 1.5c1.6 4.3 3.3 9.2 6.4 12.5a15.5 15.5 0 0 0 4 1.7z"/><path class="cls-6" d="M74.6 36.4a7.8 7.8 0 0 1-.6-1 11.6 11.6 0 0 1-.6-1.3 16.8 16.8 0 0 1-1-3.2 20.3 20.3 0 0 1-.3-2.9v-1.2L72 28a19.2 19.2 0 0 0 0 3 15.8 15.8 0 0 0 .7 3.4 10.4 10.4 0 0 0 .6 1.4 6.3 6.3 0 0 0 .6 1.1 11.3 11.3 0 0 0 1.7 2.1l1.3 1.1 1.5 1a15.6 15.6 0 0 0 2.8 1l1.2.3-1.2-.4a16.3 16.3 0 0 1-2.6-1.3l-1.3-1-1.2-1.2a14.7 14.7 0 0 1-1.5-2.1z"/><path class="cls-5" d="M67.8 27.6a29.6 29.6 0 0 0 2.8-1.4L47.2 22a11.5 11.5 0 0 0 .8 1.2c6 3.4 13 5.8 19.8 4.3z"/><path class="cls-4" d="M48 23.3c2.1 2.8 8.6 9.3 19.8 4.3A28.6 28.6 0 0 1 48 23.3z"/><path class="cls-6" d="M58 28.8l-1.5-.2-1.8-.6a15.8 15.8 0 0 1-3.8-2 16.6 16.6 0 0 1-2.7-2.6 13.1 13.1 0 0 1-1-1.3 12.7 12.7 0 0 0 .8 1.3 16.3 16.3 0 0 0 2.6 2.9 15.4 15.4 0 0 0 3.7 2.4c.7.3 1.4.6 2 .7l1.5.3a14 14 0 0 0 1.6.1 8.8 8.8 0 0 0 1 0h1l1-.2 1.2-.3a13.3 13.3 0 0 0 2.1-.7l2-.8 1.5-.8 1.4-.8-1.5.7-1.6.7-2 .6a13.3 13.3 0 0 1-2.1.5l-1 .2-1 .1h-1a9 9 0 0 1-1 0c-.5 0-1 0-1.4-.2z"/><path class="cls-4" d="M45.8 23.8A25.2 25.2 0 0 1 29.3 30c3 .9 10.5 2 16.5-6.3z"/><path class="cls-11" d="M23.3 76.5a12.7 12.7 0 0 0-.5 1.3c4.9-3.4 12-3.2 17.3-1.4l-.8-1.4c-5.1-1.5-11-1.6-16 1.5z"/><path class="cls-10" d="M39.3 75c-2-3.2-5.3-5.8-9.4-5-3 .4-5.4 3.7-6.6 6.5 5-3.1 10.9-3 16-1.5z"/><path class="cls-3" d="M34 71a4.6 4.6 0 0 0-.4-.8 7.2 7.2 0 0 0-4.8 0 5.7 5.7 0 0 0-.3.9 7.2 7.2 0 0 1 5.4-.2z"/><path class="cls-5" d="M28.5 71a6.5 6.5 0 0 0 .3 4.4 16 16 0 0 1 5.1-.2 8.5 8.5 0 0 0 0-4.3 7.2 7.2 0 0 0-5.4.1zm-.6-41.4a10.2 10.2 0 0 0 1.4.5c6-.2 12.2-2.2 16.5-6.3l1-1.4z"/><path class="cls-6" d="M38.5 29.3l-1.2.4-1.5.4a14.6 14.6 0 0 1-3.6.3 14.2 14.2 0 0 1-3-.4 10.7 10.7 0 0 1-1.3-.4 10.3 10.3 0 0 0 1.2.5 14.4 14.4 0 0 0 6.8.8l1.7-.3 1.2-.5a10.5 10.5 0 0 0 1.2-.6l.7-.4.7-.5a9.5 9.5 0 0 0 1.4-1.1 12.7 12.7 0 0 0 1.3-1.4l1.1-1.3.8-1.2.8-1.2-.9 1-.9 1.1-1.2 1.3a13 13 0 0 1-1.4 1.2 9.6 9.6 0 0 1-1.4 1l-.7.4-.7.4-1.1.5z"/><path class="cls-4" d="M27 33c-2.2 5-6.4 8.4-10.8 12.1 2.3-.8 9.6-4 10.7-12.2z"/><path class="cls-5" d="M27 33a16.9 16.9 0 0 0 0-3.4L15.6 45.4l.6-.2c4.4-3.8 8.6-7.3 10.7-12.3z"/><path class="cls-6" d="M30.9 70.2a8 8 0 0 1 3 .4 10 10 0 0 1 3.3 2 15 15 0 0 1 2.2 2.6l.5.9.2.3-.1-.3-.5-1a14.9 14.9 0 0 0-2.1-2.8A10.2 10.2 0 0 0 34 70a7.7 7.7 0 0 0-3.2-.6 6.2 6.2 0 0 0-3.1 1 10.2 10.2 0 0 0-2.9 3 15 15 0 0 0-1.6 3 12.1 12.1 0 0 0-.4 1.4 12.4 12.4 0 0 1 .5-1.3 15.3 15.3 0 0 1 1.8-3A10 10 0 0 1 28 71a6.1 6.1 0 0 1 2.9-.8z"/><path class="cls-6" d="M31.2 74.5a15.5 15.5 0 0 0-5.3 1.4l-1.2.6-1 .7-.9.6 1-.4 1-.5 1.4-.4a23.1 23.1 0 0 1 5.1-.7 32.6 32.6 0 0 1 5.2 0l2.5.4 1.1.2-1-.4a23.4 23.4 0 0 0-2.5-.8 18.8 18.8 0 0 0-5.4-.7z"/><g class="cls-13"><path class="cls-14" d="M43.7 65.3v-3.7H19v5.5a36.2 36.2 0 0 1 24.7-1.8z"/></g><g class="cls-13"><path class="cls-15" d="M43.7 67.5v-2.2A36.2 36.2 0 0 0 19 67.1v3a36.3 36.3 0 0 1 24.7-2.6z"/></g><g class="cls-13"><path class="cls-16" d="M19 70.2v15.6h24.7V67.5A36 36 0 0 0 19 70.2z"/></g><path class="cls-10" d="M73.5 73.7c-1.9-2.6-4.7-4.8-8-5s-6 2.4-8 5a30.3 30.3 0 0 1 16 0z"/><path class="cls-11" d="M57.6 73.7l-1 1.5a24.8 24.8 0 0 1 18 .3 14.8 14.8 0 0 0-1.1-1.8 30.3 30.3 0 0 0-16 0z"/><path class="cls-3" d="M68.5 70.6a5 5 0 0 0-.5-1.3 7.5 7.5 0 0 0-4.8-.2 4.9 4.9 0 0 0-.6 1.2c1.9-.5 4-.9 6 .3z"/><path class="cls-5" d="M62.6 70.3a4.5 4.5 0 0 0 .2 3.5 20.7 20.7 0 0 1 5.6 0 5.7 5.7 0 0 0 .1-3.2c-1.8-1.2-4-.8-5.9-.3z"/><path class="cls-6" d="M65.7 69.1a9.1 9.1 0 0 1 2.8.7 11.3 11.3 0 0 1 3.2 2 14.2 14.2 0 0 1 2.2 2.5l.7 1.2a14.5 14.5 0 0 0-2.7-4 11.3 11.3 0 0 0-3.2-2.2 8.6 8.6 0 0 0-3-.9 6.4 6.4 0 0 0-3 .6 10.6 10.6 0 0 0-3.3 2.3 18.1 18.1 0 0 0-2 2.7l-.8 1.2.8-1.1a18.6 18.6 0 0 1 2.3-2.5 10.5 10.5 0 0 1 3.1-2 6.3 6.3 0 0 1 2.9-.5z"/><path class="cls-6" d="M65.7 73a22.4 22.4 0 0 0-5.5 1c-1 .2-1.9.5-2.5.8l-1 .4 1-.2 2.7-.4a44.2 44.2 0 0 1 5.3-.2 30.4 30.4 0 0 1 5.4.2 19.5 19.5 0 0 1 2.5.6l1 .3-1-.5a17.7 17.7 0 0 0-2.4-1 18.5 18.5 0 0 0-5.5-1z"/><g class="cls-13"><path class="cls-14" d="M79.3 63.4v-2.5H54.6v5.3c7.2-3 16.4-4 24.7-2.8z"/></g><g class="cls-13"><path class="cls-15" d="M79.3 65v-1.6a48 48 0 0 0-24.7 2.8v2.1c7.5-4 16.1-3.9 24.7-3.3z"/></g><g class="cls-13"><path class="cls-16" d="M54.6 68.3V85h24.7V65c-8.6-.6-17.2-.6-24.7 3.3z"/></g><path class="cls-6" d="M23.8 39.2a18.4 18.4 0 0 1-4.5 4.2 21 21 0 0 1-2.6 1.5l-1.1.5 1.2-.4a19.9 19.9 0 0 0 2.8-1.2 16.9 16.9 0 0 0 3-2 10 10 0 0 0 1.1-1.1 6.5 6.5 0 0 0 .9-1l.7-1 .7-1.4.6-1.7.4-1.7a16.2 16.2 0 0 0 .1-3l-.1-1.3v1.2a16.9 16.9 0 0 1-.4 3l-.6 1.7-.7 1.5-.8 1.3a9 9 0 0 1-.7 1z"/><path class="cls-17" d="M44.2 61.3c-1.1-.9-3-1-4.2-1a76.6 76.6 0 0 0-10.7 0l-6.2.7c-1.6.2-4 .2-5.1 1.4a2.6 2.6 0 0 0-.5.7 80.1 80.1 0 0 1 26.7-1.8zm36.3.3c-1.3-3.3-7.3-2.2-16.1-2-2 0-4 .2-6 .4a10.1 10.1 0 0 0-4 .8 3 3 0 0 0-1.3 1.4c8.9-2 18.4-3 27.4-.6z"/><path class="cls-18" d="M53.1 83.7a3.8 3.8 0 0 0 .7 1.3c1 1.1 3 1.2 4.5 1.3a76.6 76.6 0 0 0 10.6-.2c2.1 0 4.2-.3 6.2-.5 1.6-.2 4-.2 5.2-1.4a2.4 2.4 0 0 0 .3-.5c-9.3 1.8-19 3.2-27.5 0zm-6.7-16a8.8 8.8 0 0 1 5.3-.6 3.6 3.6 0 0 0-5.3.6z"/><path class="cls-19" d="M81.3 76.5a84 84 0 0 0-.7-14.2 3.4 3.4 0 0 0-.1-.7c-9-2.3-18.6-1.4-27.4.7a6 6 0 0 0-.4 1.7v1.2a8.3 8.3 0 0 0-1.2-.3c-1.7.9-3.3.5-5 .5-.3 0-.6.2-.8.3-.1-1.6-.4-3.2-1.2-4.1a2.4 2.4 0 0 0-.3-.2c-9-.6-18-.7-26.7 1.7-1 1.9-.5 5.3-.6 6.9a84 84 0 0 0 .7 14.2 3.2 3.2 0 0 0 .3 1c9 2.2 18 1.2 27-.6a7.8 7.8 0 0 0 .7-3.1 73.3 73.3 0 0 0 .2-12.4v-1l.7-.4a3.6 3.6 0 0 1 5.3-.6 6 6 0 0 1 .7.2 72.9 72.9 0 0 0 0 10.1c.1 1.7 0 4.4.6 6.3a50.7 50.7 0 0 0 27.5 0c1-1.8.7-5.5.7-7.2zm-38.1 3.7c-.2 1.3-.1 2.7-1.5 3.5a8.4 8.4 0 0 1-3.3.6c-1.6.2-3.3.3-5 .3-7.8.3-13 1.2-13.4-2.1a69.7 69.7 0 0 1-.6-11.8c0-1.6-.4-5.2.9-6.4 1-1 3-1 4.2-1.2a81 81 0 0 1 5.2-.4 63.5 63.5 0 0 1 8.8-.2c1.2.1 2.9.2 3.7 1.1 1.2 1.3 1 4.6 1.1 6.3a60.7 60.7 0 0 1-.1 10.3zm34.8 2c-1 1-3 1-4.3 1.2a81 81 0 0 1-5.1.5 63.5 63.5 0 0 1-8.8 0c-1.2 0-2.9 0-3.7-1-1.2-1.3-1-4.6-1.2-6.3a60.7 60.7 0 0 1 .1-10.2c.1-1.4.1-2.8 1.5-3.6a8.4 8.4 0 0 1 3.2-.6l5-.3c7.9-.3 13-1.2 13.5 2.2a69.7 69.7 0 0 1 .6 11.8c0 1.5.4 5.1-.8 6.3z"/><path class="cls-17" d="M51.5 64.8a9 9 0 0 0-5 .5c1.7 0 3.3.4 5-.5z"/><path class="cls-18" d="M18 85.2c1.4 3 7.3 2 16 1.7 2 0 4-.2 6-.4a10.1 10.1 0 0 0 3.8-.8 3 3 0 0 0 1.2-1.1c-9 1.8-18 2.8-27 .6z"/><path class="cls-20" d="M81.3 76.5a84 84 0 0 0-.7-14.2c-.6-4.1-6.8-3-16.2-2.7-2 0-4 .3-6 .4a10.1 10.1 0 0 0-4 .8c-1.6 1-1.6 2.5-1.7 4.2v.1a9 9 0 0 0-7 .6c-.2-1.6-.5-3.3-1.3-4.2-1-1.1-3-1.1-4.4-1.3a76.6 76.6 0 0 0-10.7.2l-6.2.5c-1.5.2-4 .3-5.1 1.4-1.5 1.6-1 5.8-1 7.7a84 84 0 0 0 .6 14.3c.7 4 6.9 2.9 16.3 2.6 2 0 4-.2 6-.4a10.1 10.1 0 0 0 4-.8c1.6-1 1.6-2.5 1.7-4.2a73.3 73.3 0 0 0 .2-12.4v-1c1.3-.7 4-1.8 6.7-.8a72.9 72.9 0 0 0 0 10.1c.1 2 0 6 1.4 7.6 1 1.1 3 1.2 4.4 1.3A76.6 76.6 0 0 0 69 86c2 0 4.1-.3 6.2-.5 1.5-.2 4-.2 5.1-1.4 1.5-1.5 1-5.8 1-7.7zm-38.1 3.7c-.2 1.3-.1 2.7-1.5 3.5a8.4 8.4 0 0 1-3.3.6c-1.6.2-3.3.3-5 .3-7.8.3-13 1.2-13.4-2.1a69.7 69.7 0 0 1-.6-11.8c0-1.6-.4-5.2.9-6.4 1-1 3-1 4.2-1.2a81 81 0 0 1 5.2-.4 63.5 63.5 0 0 1 8.8-.2c1.2.1 2.9.2 3.7 1.1 1.2 1.3 1 4.6 1.1 6.3a60.7 60.7 0 0 1-.1 10.3zm34.8 2c-1 1-3 1-4.3 1.2a81 81 0 0 1-5.1.5 63.5 63.5 0 0 1-8.8 0c-1.2 0-2.9 0-3.7-1-1.2-1.3-1-4.6-1.2-6.3a60.7 60.7 0 0 1 .1-10.2c.1-1.4.1-2.8 1.5-3.6a8.4 8.4 0 0 1 3.2-.6l5-.3c7.9-.3 13-1.2 13.5 2.2a69.7 69.7 0 0 1 .6 11.8c0 1.5.4 5.1-.8 6.3z"/><path class="cls-6" d="M49.8 103.2l-3-.1a81 81 0 0 0 0 .2 26.1 26.1 0 0 0 3 .3 21 21 0 0 0 3-.2 19.4 19.4 0 0 0 2-.4l-2 .2h-3z"/><path class="cls-21" d="M131.9 54.5l-.8 9.3-3.2-.3.7-9.3-2.9-.2.2-2.6 9 .7-.2 2.6zm15-1.5l-.9 12-3.2-.3.3-4.9-3.7-.3-.4 4.9-3.2-.3.9-12 3.2.3-.3 4.5 3.8.3.3-4.5zm8.9 10l-.2 2.6-7-.5.9-12 7 .6-.1 2.6-3.9-.3-.1 1.9 3.5.2-.2 2.6-3.5-.2-.2 2.2zm12.8-5.7l-.8 9.3-3.2-.2.7-9.3-2.9-.3.2-2.6 9 .7-.2 2.6zm7.4 5.6l-.3 4.3-3.3-.2 1-12 3.9.3q4.8.4 4.6 4a3.5 3.5 0 0 1-2.3 3l3 5.4-3.6-.2-2.2-4.6zm.4-5.2l-.2 2.8h.6q1.7 0 1.8-1.4.1-1.2-1.6-1.4zm15.2-1.2l3.2.2-.5 7.2a4.8 4.8 0 0 1-1.6 3.5 5.3 5.3 0 0 1-4 1 5.3 5.3 0 0 1-3.6-1.5 4.8 4.8 0 0 1-1-3.7l.5-7.3 3.3.3-.6 7a3 3 0 0 0 .4 1.8 1.7 1.7 0 0 0 1.3.7 1.7 1.7 0 0 0 1.5-.4 3 3 0 0 0 .6-1.9zm10.8 3.5l-.7 9.3-3.3-.3.8-9.3-3-.2.3-2.7 9 .7-.2 2.7zm15-1.5l-.9 11.9-3.2-.3.4-4.8-3.8-.3-.4 4.9-3.2-.3 1-12 3.2.3-.4 4.5 3.8.2.3-4.4zM114.5 73a4.3 4.3 0 0 1 1.2-3 4.5 4.5 0 0 1 5.8.3 5.3 5.3 0 0 1-.5 6.2 4.5 4.5 0 0 1-5.7-.5 4.3 4.3 0 0 1-.8-3zm4-2q-1.5-.2-1.7 2.1t1.4 2.4a1.4 1.4 0 0 0 1.3-.4 3.1 3.1 0 0 0 .5-1.8 3.1 3.1 0 0 0-.3-1.7 1.4 1.4 0 0 0-1.1-.7zm7.3 3.9l-.3 2.9-2.1-.2.6-8 2.6.2q3.3.3 3 2.6a2.4 2.4 0 0 1-1.4 2l2 3.7-2.4-.1-1.5-3zm.2-3.5l-.1 1.9h.4q1.1 0 1.2-1 0-.8-1-.9zm7.4 1.8a1 1 0 0 1-.3.7 1.2 1.2 0 0 1-.9.2 1.2 1.2 0 0 1-.8-.3 1.1 1.1 0 0 1 .1-1.6 1.2 1.2 0 0 1 .9-.2 1.2 1.2 0 0 1 .8.4 1 1 0 0 1 .3.8zm-.3 4.3a1 1 0 0 1-.3.7 1.2 1.2 0 0 1-.9.2 1.2 1.2 0 0 1-.8-.3 1.1 1.1 0 0 1 .1-1.6 1.2 1.2 0 0 1 .9-.2 1.2 1.2 0 0 1 .8.4 1 1 0 0 1 .2.8zm6.7 1.4l-2.2-.2.6-8 2.2.2zm9-2.9l.3-2.2-2 5.6-2-.1-1.2-5.9-.1 2.3-.3 3.5-2-.2.6-8 2.9.2 1.2 5.8 2-5.5 3 .2-.7 8-2-.1zm10.7 4.4l-2.4-.2-.2-1.5-2.6-.2-.5 1.5-2.4-.2 3.2-7.8 2.9.2zm-4.6-3.6l1.7.1q-.6-2.9-.6-3.5l-1.1 3.4zm8.7.9V76l3.5.3-.3 4.3a9.4 9.4 0 0 1-3.1.3 3.7 3.7 0 0 1-2.8-1.3 4.2 4.2 0 0 1-.7-3.1 4 4 0 0 1 1.3-3 4.2 4.2 0 0 1 3.2-.8 6.3 6.3 0 0 1 2.5.7l-.8 1.6a4.1 4.1 0 0 0-1.8-.6 1.9 1.9 0 0 0-1.6.6 2.6 2.6 0 0 0-.7 1.7 2.7 2.7 0 0 0 .4 1.8 1.6 1.6 0 0 0 1.3.6 3.6 3.6 0 0 0 .9 0V78zm9.6 2l-.1 1.8-4.7-.4.6-8 4.7.4-.1 1.7-2.6-.2-.1 1.3 2.4.1-.2 1.8-2.3-.2-.1 1.5zm4.5-1.9a4.3 4.3 0 0 1 1.3-3 4.5 4.5 0 0 1 5.7.5 4.3 4.3 0 0 1 .8 3q-.2 2.8-2 3.6l1.7 2.4-2.6-.2-1.3-1.9a3.8 3.8 0 0 1-2.8-1.3 4.3 4.3 0 0 1-.8-3zm4.1-2q-1.6-.1-1.8 2.2t1.4 2.4a1.4 1.4 0 0 0 1.3-.4 3.1 3.1 0 0 0 .5-1.7 3.1 3.1 0 0 0-.3-1.8 1.4 1.4 0 0 0-1.1-.7zm10-.8h2.2l-.4 4.9a3.2 3.2 0 0 1-1 2.3 3.5 3.5 0 0 1-2.6.7 3.6 3.6 0 0 1-2.5-1 3.2 3.2 0 0 1-.7-2.5l.4-4.8 2.2.2-.4 4.6a2 2 0 0 0 .2 1.2 1.2 1.2 0 0 0 1 .5 1.1 1.1 0 0 0 1-.3 2 2 0 0 0 .3-1.2zm10.4 8.7l-2.4-.1-.3-1.6-2.6-.2-.5 1.5-2.3-.2 3.2-7.8 2.8.2zm-4.7-3.6l1.7.1-.6-3.5q-.1.8-1 3.4zm10.7 4.1l-5.2-.4.7-8 2.1.2-.5 6.2 3 .2zm3.5.3l-2.2-.2.6-8 2.2.2zm5.7-5.8l-.5 6.2-2.1-.2.4-6.2-1.9-.1.1-1.8 6 .5v1.7zm6.6 6.7l-2.3-.2.3-3-2.3-5 2.4.1 1.1 3 1.6-2.8 2.3.2-3 4.7zm-90.8 7.4l-2.1-.2.6-8 2.1.2zm1.6-2.2a6.2 6.2 0 0 0 1.2.6 4.7 4.7 0 0 0 1.1.3 1.3 1.3 0 0 0 .8-.1.5.5 0 0 0 .3-.4.5.5 0 0 0-.1-.3 1.2 1.2 0 0 0-.3-.3l-1-.6a5.5 5.5 0 0 1-1.1-.8 2.2 2.2 0 0 1-.6-1.8 2 2 0 0 1 .9-1.7 3.5 3.5 0 0 1 2.2-.4 6.2 6.2 0 0 1 2.5.8l-.8 1.6a4.8 4.8 0 0 0-1.9-.7 1 1 0 0 0-.6.1.4.4 0 0 0-.2.4.5.5 0 0 0 .2.4 8.8 8.8 0 0 0 1.2.8 3.7 3.7 0 0 1 1.4 1 2.1 2.1 0 0 1 .3 1.4 2.2 2.2 0 0 1-1 1.8 3.4 3.4 0 0 1-2.3.5 6.6 6.6 0 0 1-1.4-.2 5 5 0 0 1-1-.5zm9.6.8a6.2 6.2 0 0 0 1.3.6 4.7 4.7 0 0 0 1.1.2 1.3 1.3 0 0 0 .8 0 .5.5 0 0 0 .2-.5.5.5 0 0 0 0-.3 1.2 1.2 0 0 0-.3-.2l-1-.6a5.5 5.5 0 0 1-1.2-.8 2.2 2.2 0 0 1-.6-1.8 2 2 0 0 1 1-1.7 3.5 3.5 0 0 1 2.2-.5 6.2 6.2 0 0 1 2.5.8l-.8 1.6a4.8 4.8 0 0 0-2-.7 1 1 0 0 0-.5.1.4.4 0 0 0-.2.4.5.5 0 0 0 .2.4 8.8 8.8 0 0 0 1.2.8 3.7 3.7 0 0 1 1.4 1.1 2.1 2.1 0 0 1 .3 1.4 2.2 2.2 0 0 1-1 1.8 3.4 3.4 0 0 1-2.4.5 6.6 6.6 0 0 1-1.3-.3 5 5 0 0 1-1-.4zm11.9-4.8l2.1.2-.4 4.8a3.2 3.2 0 0 1-1 2.3 3.5 3.5 0 0 1-2.6.7 3.6 3.6 0 0 1-2.5-1 3.2 3.2 0 0 1-.6-2.5l.3-4.8 2.2.1-.4 4.7a2 2 0 0 0 .3 1.3 1.2 1.2 0 0 0 .9.4 1.1 1.1 0 0 0 1-.3 2 2 0 0 0 .4-1.2zm3.2 8.3l.6-8 2.8.2a4.7 4.7 0 0 1 2.3.7 1.6 1.6 0 0 1 .7 1.5 1.9 1.9 0 0 1-.4 1.1 1.6 1.6 0 0 1-1 .6 1.9 1.9 0 0 1 1 .8 2 2 0 0 1 .2 1.2 2 2 0 0 1-1 1.6 3.6 3.6 0 0 1-2.2.5zm2.6-6.2L162 90h.7a1.2 1.2 0 0 0 .7 0 .7.7 0 0 0 .3-.6q0-.7-1-.8zm.5 3h-.7l-.1 1.7h.7q1 .1 1-.7a.7.7 0 0 0-.1-.7 1.2 1.2 0 0 0-.8-.3zm2.6 4.3a4 4 0 0 0 .8.2.9.9 0 0 0 .7-.3 2 2 0 0 0 .4-1l.5-7.4 2.2.1-.6 7.2a3.7 3.7 0 0 1-.9 2.4 2.7 2.7 0 0 1-2.1.7 5.2 5.2 0 0 1-1.1-.2zm10.6-1.6l-.2 1.7-4.7-.4.6-8 4.8.4-.2 1.7-2.5-.2-.1 1.3 2.3.2-.1 1.7-2.4-.2-.1 1.5zm7-3.6a4.4 4.4 0 0 0-1.7-.6 1.4 1.4 0 0 0-1.3.5 3 3 0 0 0-.6 1.7q-.1 2.3 1.6 2.5a5.7 5.7 0 0 0 2-.4v1.8a5.5 5.5 0 0 1-2.4.3 3.6 3.6 0 0 1-2.6-1.3 4.3 4.3 0 0 1-.8-3 4.7 4.7 0 0 1 .7-2.2 3.4 3.4 0 0 1 1.4-1.3 4 4 0 0 1 2.1-.4 5.6 5.6 0 0 1 2.4.8zm5.5 0l-.5 6.2-2.2-.1.5-6.2-2-.2.2-1.7 6 .4-.1 1.8zm4.7 6.7l-2.2-.2.7-8 2.1.2zm4.9-1.7a12.4 12.4 0 0 1 .5-1.8l1.4-4 2.4.2-3.2 7.7-2.5-.2-2-8.1 2.4.2.8 4a12.4 12.4 0 0 1 .2 2zm9.4 1l-.1 1.8-4.7-.4.6-8 4.7.4-.1 1.7-2.6-.2v1.2l2.3.2-.1 1.7-2.4-.1-.1 1.5z"/><path class="cls-22" d="M90 65a4 4 0 0 0-1.2-2.3 3 3 0 0 0-2.5-.6h-.2v-.2a30.4 30.4 0 0 1 1.6-8c.4-1.5.9-2.8 1.2-4.3a13 13 0 0 0 .3-4.7 16.7 16.7 0 0 0-1.4-4.6l-1-2.1a9.8 9.8 0 0 1-.6-2.1 56.9 56.9 0 0 1-.7-9.2c0-1.6 0-3.1-.2-4.7l-.3-2.4a11.5 11.5 0 0 0-.7-2.4 10.3 10.3 0 0 0-3-4 9.8 9.8 0 0 0-4.6-2 9 9 0 0 0-2.5 0c-.9 0-1.5.2-2.1.3a11.8 11.8 0 0 1-3.8 0 7.5 7.5 0 0 1-3.1-1.2A9.1 9.1 0 0 1 64 9.3l-1.2-1.5a14.7 14.7 0 0 0-6-4.5 14.1 14.1 0 0 0-6.4-.8A24.4 24.4 0 0 0 44 4.1a31.2 31.2 0 0 0-3.6 1.6l-1.8 1-1 .6-.4.3-.2.2h-2a19 19 0 0 0-2 .3 28.8 28.8 0 0 0-4 1.2 36 36 0 0 0-3.9 1.7l-2 1.1a17.7 17.7 0 0 0-1.7 1.5A26.7 26.7 0 0 0 16 21a44 44 0 0 0-1.8 4.2l-.8 2.1-.4 1.1-.1.6v.2l-.6.3-.7.6a13.2 13.2 0 0 0-1.4 1.3 15 15 0 0 0-2 3A22 22 0 0 0 6 41a36.4 36.4 0 0 0-.5 6.9 29 29 0 0 0 .2 3.3l.2 1.7.2.7.1.5A7.4 7.4 0 0 0 3.5 58a11.8 11.8 0 0 0-.5 4.6 5.8 5.8 0 0 0 2 3.8 7.5 7.5 0 0 0 1.7 1.1l.4.2A16.2 16.2 0 0 0 7 70a20.4 20.4 0 0 0 .2 3A30 30 0 0 0 9 79.6a30.7 30.7 0 0 0 2.9 5.8 14.6 14.6 0 0 1-.3 2.8 10 10 0 0 1-.5 1.6 5 5 0 0 1-.8 1.4l-1 1.5a4.2 4.2 0 0 0-.8 1.7 2.3 2.3 0 0 0 .8 2 3.1 3.1 0 0 0 .8.6l.6.1a2.7 2.7 0 0 0 .5 0 3.4 3.4 0 0 0 1.8-.8 8.4 8.4 0 0 0 1.2-1.4l.4-.6a21.2 21.2 0 0 1-1 6 9.2 9.2 0 0 1-1.7 3 13.6 13.6 0 0 1-2.4 1.8 15 15 0 0 0-2.7 2.1 3.8 3.8 0 0 0-1 2 3.5 3.5 0 0 0 .4 2.3 9.1 9.1 0 0 0 3.2 3.3 9.8 9.8 0 0 0 4.6 1.5 13.7 13.7 0 0 0 5-.8 14.5 14.5 0 0 0 2.5-1l2.1-1.4a9.5 9.5 0 0 1 4.6-1.4h.4a57.8 57.8 0 0 0 11.8 13.1c2.5 2 5.3 2.5 8.8 2.7h.6l2.8.1a11.4 11.4 0 0 0 5.8-1.2c3.8-2.3 7.3-6 10.5-9.7a36.1 36.1 0 0 0 4-5.6l.4.5a9.4 9.4 0 0 0 3.5 2 8.3 8.3 0 0 0 4.9 0 9.5 9.5 0 0 0 4.4-2.8 13.2 13.2 0 0 0 2.6-4.5 16.9 16.9 0 0 0 .8-8.1 16.3 16.3 0 0 0-.8-3 20.8 20.8 0 0 0-1.7-3.4 25.8 25.8 0 0 1-2.5-6 12.4 12.4 0 0 0 2.2-2.5 16.5 16.5 0 0 0 1.8-4.2 41.5 41.5 0 0 0 1.3-7l.3-3a14.9 14.9 0 0 0-.2-4.2z"/><path class="cls-23" d="M215.1 87.1c-2.2 0-3.2 2-3.6 3.1a3.5 3.5 0 0 0-.2 1c.7-3 3.9-5 6.9-3.2a4.4 4.4 0 0 0-3.1-.9z"/><path class="cls-24" d="M214.1 90.5a3 3 0 0 1 1-1.3.8.8 0 0 0-.3.1 3 3 0 0 0-.2 4.6 4 4 0 0 1-.4-.9 3.2 3.2 0 0 1 0-2.5zm-.1 7.7l1.4 1c1.9 1.1 4.8.8 6.4 0l.3-.1a8.9 8.9 0 0 1-8.1-1zm5.3-4.1a1.4 1.4 0 0 1 .2-1.6 2.4 2.4 0 0 0 .3-.7 1.2 1.2 0 0 0 0-.1 5.6 5.6 0 0 1-.5.6 1.6 1.6 0 0 0 .3 2.4 3.1 3.1 0 0 0 1 .4 1.8 1.8 0 0 1-1.3-1zm3.7-1.4a5.8 5.8 0 0 1-.7 1.9v.1a.7.7 0 0 0 .3-.3 3.1 3.1 0 0 0 .2-3 2.3 2.3 0 0 1 .1 1.3zm-6-1.1a2 2 0 0 0-.2 1 1.6 1.6 0 0 1 0 .7 1.1 1.1 0 0 1-.2.3.7.7 0 0 0 .4-.7c-.1-.9.5-1.7.3-2.7a1.7 1.7 0 0 0-.4-.5 2.5 2.5 0 0 1 0 1.9zm1.5 3.2a1.8 1.8 0 0 1 .4.9v.2c.3-.4 0-.9-.4-1z"/><path class="cls-23" d="M224.3 89.3a3.4 3.4 0 0 0-2.3-1.1 4.7 4.7 0 0 0-1.5.2 5.5 5.5 0 0 1 3.8.9z"/><path class="cls-24" d="M225.6 92.3a11.4 11.4 0 0 1-3 6.5 7.2 7.2 0 0 0 2.9-4.2 6.3 6.3 0 0 0 0-2.3z"/><path class="cls-23" d="M220.3 95.9a3.6 3.6 0 0 1 2.7.3 2.5 2.5 0 0 0-2.7-.3zm-.5 1.1a31.9 31.9 0 0 1-3.7-.6c1.5.8 3.5.6 4.8 1.6a1.5 1.5 0 0 0-1-1z"/><path class="cls-25" d="M225.6 92.3a8 8 0 0 0-.9-2.4 2.7 2.7 0 0 0-.3-.6 5.5 5.5 0 0 0-3.8-.9 13.3 13.3 0 0 0-1.5.6 10 10 0 0 0-1-1c-3-1.8-6.2.3-6.9 3.3a8.7 8.7 0 0 0 .3 2.7 7.4 7.4 0 0 1 .2.7 3 3 0 0 0 .4.7l-.3.4c-.5.7.1 1.3.8 1.6a2.8 2.8 0 0 0 .4 0 4.8 4.8 0 0 0 1 .8 8.9 8.9 0 0 0 8.1.9 5.3 5.3 0 0 0 .5-.3 11.4 11.4 0 0 0 3-6.5zM224 90a4.4 4.4 0 0 0-3.3-.9c1.2-.3 2.7-.2 3.3.9zm-4.8 2.4a5.6 5.6 0 0 0 .6-.6 1.5 1.5 0 0 1 .1-.8 1.4 1.4 0 0 1 1.5-.4 1.6 1.6 0 0 1 1.3.9 3.1 3.1 0 0 1-.2 3 .7.7 0 0 1-.3.3c-.3.4-.7.4-1.2.4a2.8 2.8 0 0 1-.5 0 3.1 3.1 0 0 1-1-.5 1.6 1.6 0 0 1-.3-2.3zm-2 2.5a1.4 1.4 0 0 1 .4-.2.7.7 0 0 1 .8.2c.4.2.7.7.5 1.1a.3.3 0 0 1-.1.3 3 3 0 0 1-1.3 0 2.6 2.6 0 0 1-1.4-.3c-.1 0-.3-.1-.3-.3 0-.7.9-.6 1.5-.8zm-2.5-5.4a.8.8 0 0 1 .3-.1 1.5 1.5 0 0 1 1.8.2v.2a1.7 1.7 0 0 1 .4.6c.2.9-.4 1.8-.3 2.7a.7.7 0 0 1-.4.7 2.5 2.5 0 0 1-1.3.7c-.3 0-.6-.2-.8-.5a3 3 0 0 1 .3-4.6zm-1.3 5.6c.7-.2 1.6-.2 2 .3a3 3 0 0 0-2-.3zm2.6 1.4a31.9 31.9 0 0 0 3.7.6 1.5 1.5 0 0 1 1.1 1c-1.3-1-3.3-.8-4.8-1.6zm4.2-.5a2.5 2.5 0 0 1 2.7.4 3.6 3.6 0 0 0-2.7-.4z"/><path class="cls-23" d="M213.5 95a3 3 0 0 1 2 .3c-.5-.6-1.3-.5-2-.3zm10.6-5.1c-.6-1-2-1.2-3.3-.9a4.4 4.4 0 0 1 3.3.9z"/><path class="cls-24" d="M216.1 95.5c0-.2.4-.3.6-.4a4 4 0 0 0 .5-.2h.2c-.6.1-1.6 0-1.5.7 0 .2.2.2.3.3a.4.4 0 0 1 0-.4zm-4.3.3l.4-.4a3 3 0 0 1-.4-.7 6 6 0 0 1 0 .7 1 1 0 0 0 0 1.8 1.2 1.2 0 0 0 1 .2c-.8-.3-1.5-.9-1-1.6z"/><g class="cls-26"><path class="cls-27" d="M213.3 88a.8.8 0 0 0-.2 0v.3h.3a2 2 0 0 0 0-.3z"/><path class="cls-28" d="M213.2 88a.8.8 0 0 0-.2 0v.3h.3a.4.4 0 0 0 0-.3z"/><path class="cls-29" d="M213.3 88a.4.4 0 0 1 0 .2l-.3.1h.3a2 2 0 0 0 0-.3z"/></g><g class="cls-26"><path class="cls-27" d="M213 90.5a.8.8 0 0 0-.2 0v.3h.3a2 2 0 0 0-.1-.3z"/><path class="cls-28" d="M212.9 90.5a.8.8 0 0 0-.2 0v.3c0 .1.1 0 .2 0a.4.4 0 0 0 0-.3z"/><path class="cls-29" d="M213 90.5h-.1a.4.4 0 0 1 0 .2h-.2.2a2 2 0 0 0 0-.2z"/></g><g class="cls-26"><path class="cls-27" d="M215.6 87.3a.7.7 0 0 0-.2 0v.2h.2a1.6 1.6 0 0 0 0-.3z"/><path class="cls-28" d="M215.5 87.3a.7.7 0 0 0-.2 0v.2c0 .1.1 0 .2 0a.4.4 0 0 0 0-.3z"/><path class="cls-29" d="M215.5 87.2a.4.4 0 0 1 0 .2l-.2.1h.2a1.6 1.6 0 0 0 0-.3z"/></g><g class="cls-26"><path class="cls-27" d="M218.2 93.5a.8.8 0 0 0-.2 0v.3h.3a2 2 0 0 0-.1-.3z"/><path class="cls-28" d="M218.1 93.5a.8.8 0 0 0-.2 0v.3h.3a.4.4 0 0 0 0-.3z"/><path class="cls-29" d="M218.2 93.5a.4.4 0 0 1 0 .3h-.3.3a2 2 0 0 0 0-.3z"/></g><g class="cls-26"><path class="cls-27" d="M219.4 90.9a.6.6 0 0 0-.3 0v.2h.2a1.4 1.4 0 0 0 0-.2z"/><path class="cls-28" d="M219.3 90.9a.6.6 0 0 0-.2 0v.2c0 .1.1 0 .2 0a.3.3 0 0 0 0-.2z"/><path class="cls-29" d="M219.3 90.9a.3.3 0 0 1 0 .2h-.2.2a1.4 1.4 0 0 0 0-.2z"/></g><g class="cls-26"><path class="cls-27" d="M217.4 91.2a.7.7 0 0 0-.2 0v.3l.2-.1a1.6 1.6 0 0 0 0-.2z"/><path class="cls-28" d="M217.3 91.2a.7.7 0 0 0-.1 0v.3h.1a.3.3 0 0 0 0-.3z"/><path class="cls-29" d="M217.4 91.2a.3.3 0 0 1 0 .2h-.3.3a1.6 1.6 0 0 0 0-.2z"/></g><g class="cls-26"><path class="cls-27" d="M217.9 88.9a.8.8 0 0 0-.2 0v.3l.3-.1a2 2 0 0 0-.1-.2z"/><path class="cls-28" d="M217.8 88.9a.8.8 0 0 0-.2 0v.3h.2a.4.4 0 0 0 0-.3z"/><path class="cls-29" d="M217.9 88.8h-.1a.4.4 0 0 1 0 .3h-.2.2a2 2 0 0 0 0-.3z"/></g><g class="cls-26"><path class="cls-27" d="M221.6 89.1a.5.5 0 0 0-.2 0v.2h.2a1.1 1.1 0 0 0 0-.2z"/><path class="cls-28" d="M221.5 89.1a.5.5 0 0 0-.1 0v.2h.1a.3.3 0 0 0 0-.2z"/><path class="cls-29" d="M221.5 89.1a.3.3 0 0 1 0 .1 1.1 1.1 0 0 0 0-.1z"/></g><g class="cls-26"><path class="cls-27" d="M224.7 91.3a.8.8 0 0 0-.3 0v.3h.3a2 2 0 0 0 0-.3z"/><path class="cls-28" d="M224.6 91.3a.8.8 0 0 0-.2 0v.3c0 .1.1 0 .2 0a.4.4 0 0 0 0-.3z"/><path class="cls-29" d="M224.6 91.3a.4.4 0 0 1 0 .2h-.2.2a2 2 0 0 0 0-.2z"/></g><g class="cls-26"><path class="cls-27" d="M223.6 89.7a.7.7 0 0 0-.2 0v.3h.3a1.7 1.7 0 0 0 0-.3z"/><path class="cls-28" d="M223.5 89.7a.7.7 0 0 0-.2 0v.3l.2-.1a.4.4 0 0 0 0-.2z"/><path class="cls-29" d="M223.6 89.7a.4.4 0 0 1 0 .2h-.2.2a1.7 1.7 0 0 0 0-.2z"/></g><g class="cls-26"><path class="cls-27" d="M224.3 94.1a.8.8 0 0 0-.2 0v.3h.3a2 2 0 0 0 0-.3z"/><path class="cls-28" d="M224.3 94a.8.8 0 0 0-.3.2l.1.2c.1.1.1 0 .2 0a.4.4 0 0 0 0-.3z"/><path class="cls-29" d="M224.3 94a.4.4 0 0 1 0 .3h-.3.3a2 2 0 0 0 0-.2z"/></g><g class="cls-26"><path class="cls-27" d="M222.8 97.1a.8.8 0 0 0-.2.1v.2h.3a2 2 0 0 0 0-.3z"/><path class="cls-28" d="M222.8 97.1a.8.8 0 0 0-.3 0v.3h.3a.4.4 0 0 0 0-.3z"/><path class="cls-29" d="M222.8 97.1a.4.4 0 0 1 0 .3h-.3.3a2 2 0 0 0 0-.3z"/></g><g class="cls-26"><path class="cls-27" d="M220 95.5v.1h.1a1 1 0 0 0 0-.1z"/><path class="cls-28" d="M220 95.5h-.1v.1c0 .1 0 0 0 0a.2.2 0 0 0 .1-.1z"/><path class="cls-29" d="M220 95.5a.2.2 0 0 1 0 .1h.1a1 1 0 0 0 0-.1z"/></g><g class="cls-26"><path class="cls-27" d="M222.3 95h-.1v.1h.1a1 1 0 0 0 0-.1z"/><path class="cls-28" d="M222.3 95h-.2v.1c0 .1.1 0 .1 0a.2.2 0 0 0 0-.1z"/><path class="cls-29" d="M222.3 95a.2.2 0 0 1 0 .1h-.1.1a1 1 0 0 0 0-.1z"/></g><g class="cls-26"><path class="cls-27" d="M220.5 99a.7.7 0 0 0-.2 0v.3l.2-.1a1.6 1.6 0 0 0 0-.2z"/><path class="cls-28" d="M220.4 99a.7.7 0 0 0-.1 0v.3h.1a.4.4 0 0 0 0-.3z"/><path class="cls-29" d="M220.5 99a.4.4 0 0 1 0 .2h-.2.2a1.6 1.6 0 0 0 0-.2z"/></g><g class="cls-26"><path class="cls-27" d="M218.1 97.2a.8.8 0 0 0-.2.1v.2h.3a1.9 1.9 0 0 0 0-.3z"/><path class="cls-28" d="M218 97.2a.8.8 0 0 0-.2.1v.2h.3a.4.4 0 0 0-.1-.3z"/><path class="cls-29" d="M218.1 97.2h-.1a.4.4 0 0 1 0 .3h-.2.2a1.9 1.9 0 0 0 .1-.3z"/></g><g class="cls-26"><path class="cls-27" d="M216 97.7a.8.8 0 0 0-.2 0v.3h.2a2 2 0 0 0 0-.3z"/><path class="cls-28" d="M215.9 97.7a.8.8 0 0 0-.2 0v.3c0 .1.1 0 .2 0a.4.4 0 0 0 0-.3z"/><path class="cls-29" d="M216 97.7h-.1a.4.4 0 0 1 0 .2l-.2.1h.3a2 2 0 0 0 0-.3z"/></g><g class="cls-26"><path class="cls-27" d="M217.5 99.1a.5.5 0 0 0-.1 0v.2h.1a1.2 1.2 0 0 0 0-.2z"/><path class="cls-28" d="M217.5 99.1a.5.5 0 0 0-.2 0v.2h.2a.3.3 0 0 0 0-.2z"/><path class="cls-29" d="M217.5 99.1a.3.3 0 0 1 0 .2h-.1.1a1.2 1.2 0 0 0 0-.2z"/></g><g class="cls-26"><path class="cls-27" d="M220.4 97.3a.5.5 0 0 0-.2 0v.1h.2a1.2 1.2 0 0 0 0-.1z"/><path class="cls-28" d="M220.3 97.3a.5.5 0 0 0-.1 0v.1c0 .1 0 0 .1 0a.3.3 0 0 0 0-.2z"/><path class="cls-29" d="M220.4 97.3a.3.3 0 0 1 0 .1h-.2.2a1.2 1.2 0 0 0 0-.2z"/></g><g class="cls-26"><path class="cls-27" d="M214.4 97.2a.5.5 0 0 0-.1 0v.2h.1a1.2 1.2 0 0 0 0-.2z"/><path class="cls-28" d="M214.4 97.2a.5.5 0 0 0-.2 0v.2h.2a.3.3 0 0 0 0-.2z"/><path class="cls-29" d="M214.4 97.2a.3.3 0 0 1 0 .2h-.1.1a1.2 1.2 0 0 0 0-.2z"/></g><g class="cls-26"><path class="cls-27" d="M214.8 95.7a.8.8 0 0 0-.3 0l.1.3.3-.1a2 2 0 0 0-.1-.2z"/><path class="cls-28" d="M214.7 95.7a.8.8 0 0 0-.2 0v.3h.2a.4.4 0 0 0 0-.3z"/><path class="cls-29" d="M214.7 95.7a.4.4 0 0 1 0 .2h-.2.2a2 2 0 0 0 0-.3z"/></g><g class="cls-26"><path class="cls-27" d="M215.3 94.6a.8.8 0 0 0-.2.1v.2h.3a2 2 0 0 0 0-.3z"/><path class="cls-28" d="M215.3 94.6a.8.8 0 0 0-.3.1v.2h.3a.4.4 0 0 0 0-.3z"/><path class="cls-29" d="M215.3 94.6a.4.4 0 0 1 0 .3h-.3.3a2 2 0 0 0 0-.3z"/></g><g class="cls-26"><path class="cls-27" d="M212 92.8a.8.8 0 0 0-.2 0v.2h.3a2 2 0 0 0-.1-.3z"/><path class="cls-28" d="M212 92.8a.8.8 0 0 0-.3 0v.3l.3-.1a.4.4 0 0 0 0-.3z"/><path class="cls-29" d="M212 92.7a.4.4 0 0 1 0 .3h-.3.3a2 2 0 0 0 0-.3z"/></g><g class="cls-26"><path class="cls-27" d="M212.8 95a.8.8 0 0 0-.2.1v.3l.3-.1a2 2 0 0 0-.1-.2z"/><path class="cls-28" d="M212.7 95a.8.8 0 0 0-.2.1v.3h.2a.4.4 0 0 0 0-.3z"/><path class="cls-29" d="M212.8 95h-.1a.4.4 0 0 1 0 .3h-.2.2a2 2 0 0 0 0-.2z"/></g><g class="cls-26"><path class="cls-27" d="M212.1 96.5a.8.8 0 0 0-.2 0v.3h.3a2 2 0 0 0-.1-.3z"/><path class="cls-28" d="M212 96.5a.8.8 0 0 0-.2 0v.3c0 .1.2 0 .2 0a.4.4 0 0 0 0-.3z"/><path class="cls-29" d="M212 96.5a.4.4 0 0 1 0 .2h-.2.3a2 2 0 0 0 0-.2z"/></g><path class="cls-23" d="M152 96.5c-2.2.2-3.2 2.4-3.5 3.5a3.7 3.7 0 0 0-.2 1.2c.6-3.2 3.7-5.7 7-4a4.6 4.6 0 0 0-3.2-.7z"/><path class="cls-24" d="M151.3 100.1a3.1 3.1 0 0 1 1-1.4.9.9 0 0 0-.4.1c-1.5 1.2-1.3 3.6.1 4.8a4.1 4.1 0 0 1-.4-.8 3.4 3.4 0 0 1-.3-2.7zm.5 8.1l1.5.9c2.1 1 5.2.5 6.8-.4l.3-.2a9.4 9.4 0 0 1-8.6-.3zm5.2-4.7a1.4 1.4 0 0 1 0-1.7 2.5 2.5 0 0 0 .4-.7 1.3 1.3 0 0 0 0-.2 6 6 0 0 1-.6.7 1.6 1.6 0 0 0 .5 2.5 3.3 3.3 0 0 0 1.1.3 1.9 1.9 0 0 1-1.3-.9zm3.7-1.8a6.1 6.1 0 0 1-.4 2l-.1.2a.7.7 0 0 0 .3-.4 3.3 3.3 0 0 0 0-3.2 2.4 2.4 0 0 1 .2 1.4zm-6.4-.7a2 2 0 0 0 0 1 1.7 1.7 0 0 1 0 .8 1.2 1.2 0 0 1-.2.4.7.7 0 0 0 .4-.8c-.2-1 .3-2 0-2.9a1.8 1.8 0 0 0-.3-.5 2.6 2.6 0 0 1 .2 2zm1.9 3.3a1.8 1.8 0 0 1 .6.9v.2c.3-.4-.1-.9-.6-1z"/><path class="cls-23" d="M162 98a3.5 3.5 0 0 0-2.6-1 5 5 0 0 0-1.5.4 5.7 5.7 0 0 1 4 .6z"/><path class="cls-24" d="M163.5 101.1a12 12 0 0 1-2.6 7 7.5 7.5 0 0 0 2.6-4.6 6.7 6.7 0 0 0 0-2.4z"/><path class="cls-23" d="M158.3 105.3a3.8 3.8 0 0 1 2.8.1 2.6 2.6 0 0 0-2.8-.1zm-.5 1.2a33.6 33.6 0 0 1-4-.3c1.7.7 3.7.3 5.2 1.3a1.6 1.6 0 0 0-1.2-1z"/><path class="cls-25" d="M163.5 101.1a8.5 8.5 0 0 0-1.1-2.5 2.8 2.8 0 0 0-.5-.6 5.7 5.7 0 0 0-4-.6 14 14 0 0 0-1.4.7 10.4 10.4 0 0 0-1.1-.9c-3.3-1.7-6.5.8-7 4a9.1 9.1 0 0 0 .5 2.8 7.8 7.8 0 0 1 .3.8 3.2 3.2 0 0 0 .5.6c-.2.1-.3.4-.3.5-.5.8.2 1.4 1 1.6a3 3 0 0 0 .3 0 5 5 0 0 0 1.1.7 9.4 9.4 0 0 0 8.6.4 5.6 5.6 0 0 0 .5-.4 12 12 0 0 0 2.6-7zm-1.7-2.4a4.6 4.6 0 0 0-3.6-.7c1.3-.4 2.8-.4 3.6.7zm-5 3a6 6 0 0 0 .6-.8 1.6 1.6 0 0 1 .1-.9 1.5 1.5 0 0 1 1.6-.5 1.6 1.6 0 0 1 1.4.8 3.3 3.3 0 0 1 0 3.2.7.7 0 0 1-.3.4c-.3.5-.7.5-1.2.5a3 3 0 0 1-.5 0 3.3 3.3 0 0 1-1-.3 1.6 1.6 0 0 1-.6-2.5zm-1.7 2.7a1.4 1.4 0 0 1 .3-.2.8.8 0 0 1 .8.1c.5.2.9.7.6 1.1a.3.3 0 0 1 0 .4 3 3 0 0 1-1.5 0 2.7 2.7 0 0 1-1.4-.2c-.1 0-.3 0-.3-.2-.1-.8.9-.8 1.5-1zm-3.2-5.5a.9.9 0 0 1 .3-.2h.1a1.6 1.6 0 0 1 1.8.1l.1.2a1.8 1.8 0 0 1 .4.6c.3.9-.3 1.9 0 2.8a.7.7 0 0 1-.4.8 2.6 2.6 0 0 1-1.3.9 1 1 0 0 1-.9-.5c-1.4-1.2-1.6-3.6-.1-4.8zm-1 6c.8-.3 1.7-.4 2.1.1a3.1 3.1 0 0 0-2-.1zm3 1.3a33.6 33.6 0 0 0 4 .3 1.6 1.6 0 0 1 1.2 1c-1.6-1-3.6-.6-5.3-1.3zm4.4-1a2.6 2.6 0 0 1 2.8.2 3.8 3.8 0 0 0-2.8-.1z"/><path class="cls-23" d="M151 104.9a3.1 3.1 0 0 1 2 .1c-.4-.5-1.3-.3-2-.1zm10.8-6.2c-.8-1.1-2.3-1.1-3.6-.7a4.6 4.6 0 0 1 3.6.7z"/><path class="cls-24" d="M153.8 105.2c0-.3.3-.3.5-.4a4.1 4.1 0 0 0 .6-.3h.2c-.6.1-1.6.1-1.5 1l.3.1a.4.4 0 0 1-.1-.4zm-4.5.7l.3-.5a3.2 3.2 0 0 1-.4-.7 6.3 6.3 0 0 1 .1.8 1.1 1.1 0 0 0 0 1.8 1.3 1.3 0 0 0 1 .2c-.7-.2-1.4-.8-1-1.6z"/><g class="cls-26"><path class="cls-27" d="M150.3 97.6a.8.8 0 0 0-.2 0v.3l.3-.1a2 2 0 0 0-.1-.2z"/><path class="cls-28" d="M150.2 97.6a.8.8 0 0 0-.2 0v.3h.3a.5.5 0 0 0-.1-.3z"/><path class="cls-29" d="M150.3 97.5h-.1a.5.5 0 0 1 0 .3h-.2.3a2 2 0 0 0 0-.3z"/></g><g class="cls-26"><path class="cls-27" d="M150 100.2a.8.8 0 0 0-.1 0v.3h.3a2 2 0 0 0-.1-.3z"/><path class="cls-28" d="M150 100.2a.8.8 0 0 0-.2 0v.3h.3a.5.5 0 0 0-.1-.3z"/><path class="cls-29" d="M150 100.2a.5.5 0 0 1 0 .2l-.1.1h.2a2 2 0 0 0 0-.3z"/></g><g class="cls-26"><path class="cls-27" d="M152.6 96.6a.7.7 0 0 0-.2 0v.2h.3a1.7 1.7 0 0 0-.1-.2z"/><path class="cls-28" d="M152.5 96.6a.7.7 0 0 0-.2 0v.3l.2-.1a.4.4 0 0 0 0-.2z"/><path class="cls-29" d="M152.5 96.6a.4.4 0 0 1 0 .2h-.1.2a1.7 1.7 0 0 0 0-.2z"/></g><g class="cls-26"><path class="cls-27" d="M155.8 103a.8.8 0 0 0-.2 0v.3h.3a2 2 0 0 0 0-.3z"/><path class="cls-28" d="M155.7 103a.8.8 0 0 0-.2 0l.1.4c.1.2.1-.1.2-.1a.5.5 0 0 0 0-.3z"/><path class="cls-29" d="M155.8 103a.5.5 0 0 1 0 .3h-.2.3a2 2 0 0 0-.1-.3z"/></g><g class="cls-26"><path class="cls-27" d="M156.8 100.1a.6.6 0 0 0-.1 0v.2h.2a1.5 1.5 0 0 0 0-.2z"/><path class="cls-28" d="M156.8 100.1a.6.6 0 0 0-.2 0v.3l.2-.1a.3.3 0 0 0 0-.2z"/><path class="cls-29" d="M156.8 100a.3.3 0 0 1 0 .3h-.1.2a1.5 1.5 0 0 0 0-.2z"/></g><g class="cls-26"><path class="cls-27" d="M154.8 100.6a.7.7 0 0 0-.2 0v.3l.3-.1a1.7 1.7 0 0 0-.1-.2z"/><path class="cls-28" d="M154.7 100.6a.7.7 0 0 0-.2 0l.1.3.2-.1a.4.4 0 0 0 0-.2z"/><path class="cls-29" d="M154.8 100.6a.4.4 0 0 1 0 .2h-.2.2a1.7 1.7 0 0 0 0-.2z"/></g><g class="cls-26"><path class="cls-27" d="M155.1 98.1a.8.8 0 0 0-.2 0v.3h.3a2 2 0 0 0 0-.3z"/><path class="cls-28" d="M155 98.1a.8.8 0 0 0-.2 0v.4c0 .2.2-.1.3-.1a.5.5 0 0 0-.1-.3z"/><path class="cls-29" d="M155 98a.5.5 0 0 1 0 .3l-.1.1h.2a2 2 0 0 0 0-.3z"/></g><g class="cls-26"><path class="cls-27" d="M159 98a.5.5 0 0 0-.1.1v.2h.1a1.2 1.2 0 0 0 0-.2z"/><path class="cls-28" d="M159 98a.5.5 0 0 0-.2.1v.2h.1a.3.3 0 0 0 0-.2z"/><path class="cls-29" d="M159 98a.3.3 0 0 1 0 .2h-.1.1a1.2 1.2 0 0 0 0-.1z"/></g><g class="cls-26"><path class="cls-27" d="M162.4 100.1a.8.8 0 0 0-.2.1v.2h.3a2 2 0 0 0 0-.3z"/><path class="cls-28" d="M162.3 100.1a.8.8 0 0 0-.2.1l.1.3c.1.2.1-.1.2-.1a.5.5 0 0 0 0-.3z"/><path class="cls-29" d="M162.4 100a.5.5 0 0 1 0 .3l-.2.1h.3a2 2 0 0 0-.1-.3z"/></g><g class="cls-26"><path class="cls-27" d="M161.2 98.5a.8.8 0 0 0-.2.1v.2h.3a1.8 1.8 0 0 0 0-.3z"/><path class="cls-28" d="M161.1 98.5a.8.8 0 0 0-.2.1l.1.2c.1.1.1 0 .2 0a.4.4 0 0 0 0-.3z"/><path class="cls-29" d="M161.2 98.5a.4.4 0 0 1 0 .2l-.2.1h.2a1.8 1.8 0 0 0 0-.3z"/></g><g class="cls-26"><path class="cls-27" d="M162.3 103a.8.8 0 0 0-.2.2v.2h.3a2 2 0 0 0 0-.3z"/><path class="cls-28" d="M162.2 103a.8.8 0 0 0-.2.2l.1.2c.1.1.1 0 .2 0a.5.5 0 0 0 0-.3z"/><path class="cls-29" d="M162.3 103a.5.5 0 0 1 0 .3l-.2.1h.3a2 2 0 0 0-.1-.3z"/></g><g class="cls-26"><path class="cls-27" d="M161 106.4a.8.8 0 0 0-.2 0v.3h.3a2 2 0 0 0-.1-.3z"/><path class="cls-28" d="M160.9 106.4a.8.8 0 0 0-.2 0v.3h.3a.5.5 0 0 0-.1-.3z"/><path class="cls-29" d="M161 106.4a.5.5 0 0 1 0 .2l-.2.1h.2a2 2 0 0 0 0-.3z"/></g><g class="cls-26"><path class="cls-27" d="M158 104.9a.5.5 0 0 0-.1 0v.1h.1a1.1 1.1 0 0 0 0-.1z"/><path class="cls-28" d="M157.9 104.9a.5.5 0 0 0-.1 0v.2h.1a.3.3 0 0 0 0-.2z"/><path class="cls-29" d="M158 104.9a.3.3 0 0 1 0 .1h-.2.2a1.1 1.1 0 0 0 0-.1z"/></g><g class="cls-26"><path class="cls-27" d="M160.3 104.2a.5.5 0 0 0-.2 0v.1h.2a1.1 1.1 0 0 0 0-.1z"/><path class="cls-28" d="M160.2 104.2a.5.5 0 0 0-.1 0v.2c0 .2 0 0 .1 0a.3.3 0 0 0 0-.2z"/><path class="cls-29" d="M160.2 104.2v.1a1.1 1.1 0 0 0 0-.1z"/></g><g class="cls-26"><path class="cls-27" d="M158.7 108.5a.7.7 0 0 0-.2.1v.2h.3a1.7 1.7 0 0 0-.1-.3z"/><path class="cls-28" d="M158.6 108.5a.7.7 0 0 0-.2.1v.2c0 .1.2 0 .2 0a.4.4 0 0 0 0-.3z"/><path class="cls-29" d="M158.7 108.5h-.1a.4.4 0 0 1 0 .2l-.1.1h.2a1.7 1.7 0 0 0 0-.3z"/></g><g class="cls-26"><path class="cls-27" d="M156 106.9a.8.8 0 0 0-.2 0v.3h.3a2 2 0 0 0-.1-.3z"/><path class="cls-28" d="M156 106.9a.8.8 0 0 0-.2 0v.3h.3a.4.4 0 0 0-.1-.3z"/><path class="cls-29" d="M156 106.9a.4.4 0 0 1 0 .2l-.2.1h.3a2 2 0 0 0-.1-.3z"/></g><g class="cls-26"><path class="cls-27" d="M153.8 107.5a.8.8 0 0 0-.2.1v.3l.3-.1a2 2 0 0 0-.1-.3z"/><path class="cls-28" d="M153.7 107.5a.8.8 0 0 0-.2.1v.3h.3a.5.5 0 0 0 0-.4z"/><path class="cls-29" d="M153.8 107.5a.5.5 0 0 1 0 .3h-.2.2a2 2 0 0 0 0-.3z"/></g><g class="cls-26"><path class="cls-27" d="M155.6 108.9a.5.5 0 0 0-.2 0v.2h.2a1.3 1.3 0 0 0 0-.2z"/><path class="cls-28" d="M155.5 108.9a.5.5 0 0 0-.1 0v.2c0 .1 0 0 0 0a.3.3 0 0 0 0-.2z"/><path class="cls-29" d="M155.5 108.9a.3.3 0 0 1 0 .1v.1a1.3 1.3 0 0 0 0-.2z"/></g><g class="cls-26"><path class="cls-27" d="M158.4 106.7a.5.5 0 0 0-.1 0v.2h.1a1.3 1.3 0 0 0 0-.2z"/><path class="cls-28" d="M158.4 106.7a.5.5 0 0 0-.2 0v.2h.2a.3.3 0 0 0 0-.2z"/><path class="cls-29" d="M158.4 106.7a.3.3 0 0 1 0 .2h-.1.1a1.3 1.3 0 0 0 0-.2z"/></g><g class="cls-26"><path class="cls-27" d="M152.1 107.2a.5.5 0 0 0-.1 0v.2h.2a1.3 1.3 0 0 0 0-.2z"/><path class="cls-28" d="M152 107.2v.2a.3.3 0 0 0 0-.2z"/><path class="cls-29" d="M152.1 107.2a.3.3 0 0 1 0 .1h-.1.2a1.3 1.3 0 0 0 0-.1z"/></g><g class="cls-26"><path class="cls-27" d="M152.4 105.5a.8.8 0 0 0-.2 0v.3h.3a2 2 0 0 0-.1-.3z"/><path class="cls-28" d="M152.3 105.5a.8.8 0 0 0-.2 0v.3h.3a.5.5 0 0 0-.1-.3z"/><path class="cls-29" d="M152.3 105.5a.5.5 0 0 1 0 .2l-.2.1h.3a2 2 0 0 0 0-.3z"/></g><g class="cls-26"><path class="cls-27" d="M152.9 104.4a.8.8 0 0 0-.2 0v.3l.3-.1a2 2 0 0 0-.1-.2z"/><path class="cls-28" d="M152.8 104.4a.8.8 0 0 0-.2 0v.3h.3a.5.5 0 0 0 0-.3z"/><path class="cls-29" d="M152.9 104.3a.5.5 0 0 1 0 .3h-.2.2a2 2 0 0 0 0-.3z"/></g><g class="cls-26"><path class="cls-27" d="M149.3 102.6a.8.8 0 0 0-.2.1v.3l.3-.1a2 2 0 0 0-.1-.3z"/><path class="cls-28" d="M149.2 102.6a.8.8 0 0 0-.2.1v.3l.3-.1a.5.5 0 0 0-.1-.3z"/><path class="cls-29" d="M149.3 102.6h-.1a.5.5 0 0 1 0 .3h-.2.3a2 2 0 0 0 0-.3z"/></g><g class="cls-26"><path class="cls-27" d="M150.2 105a.8.8 0 0 0-.2 0l.1.3h.3a2 2 0 0 0-.2-.3z"/><path class="cls-28" d="M150.2 105a.8.8 0 0 0-.3 0l.1.4c.1.2.1-.1.2-.1a.5.5 0 0 0 0-.3z"/><path class="cls-29" d="M150.2 105a.5.5 0 0 1 0 .3h-.2.3a2 2 0 0 0 0-.3z"/></g><g class="cls-26"><path class="cls-27" d="M149.6 106.5a.8.8 0 0 0-.2.1l.1.3.3-.1a2 2 0 0 0-.2-.3z"/><path class="cls-28" d="M149.6 106.5a.8.8 0 0 0-.3.1l.1.3c.1.1.1 0 .2 0a.5.5 0 0 0 0-.4z"/><path class="cls-29" d="M149.6 106.5a.5.5 0 0 1 0 .3h-.2.3a2 2 0 0 0 0-.3z"/></g><path class="cls-23" d="M166 45c-1.5.8-1.6 2.6-1.6 3.5a2.8 2.8 0 0 0 .3.8c-.5-2.3 1-5 3.8-4.6a3.5 3.5 0 0 0-2.5.4z"/><path class="cls-24" d="M166.5 47.8a2.4 2.4 0 0 1 .2-1.2.7.7 0 0 0-.2.2A2.4 2.4 0 0 0 168 50a3.1 3.1 0 0 1-.5-.5 2.5 2.5 0 0 1-1-1.8zm2.5 5.6c.3 0 .7 0 1.3.2a6 6 0 0 0 4.7-2.1l.1-.2a7 7 0 0 1-6.1 2zm2.4-4.8a1 1 0 0 1-.4-1.2 2 2 0 0 0 0-.6 1 1 0 0 0 0-.1 4.4 4.4 0 0 1-.2.7 1.2 1.2 0 0 0 1 1.5 2.5 2.5 0 0 0 .9 0 1.4 1.4 0 0 1-1.3-.3zm2.1-2.2a4.6 4.6 0 0 1 .2 1.6.6.6 0 0 0 .1-.3 2.5 2.5 0 0 0-.8-2.2 1.8 1.8 0 0 1 .5 1zm-4.7 1.2a1.6 1.6 0 0 0 .3.8 1.3 1.3 0 0 1 .2.5.9.9 0 0 1 0 .3.5.5 0 0 0 0-.6c-.4-.6-.3-1.5-.7-2a1.4 1.4 0 0 0-.4-.3 2 2 0 0 1 .6 1.3zm2.2 1.8a1.4 1.4 0 0 1 .6.5l.1.1c0-.3-.3-.5-.7-.6z"/><path class="cls-23" d="M173.4 43.5a2.6 2.6 0 0 0-2 0 3.7 3.7 0 0 0-1 .7 4.3 4.3 0 0 1 3-.7z"/><path class="cls-24" d="M175.3 45.3a9 9 0 0 1 0 5.6 5.7 5.7 0 0 0 .7-4 5 5 0 0 0-.7-1.6z"/><path class="cls-23" d="M172.7 49.6a2.9 2.9 0 0 1 2-.7 2 2 0 0 0-2 .7zm0 .9a25.2 25.2 0 0 1-2.8.9c1.4 0 2.6-.8 4-.5a1.2 1.2 0 0 0-1.2-.4z"/><path class="cls-25" d="M175.3 45.3a6.4 6.4 0 0 0-1.5-1.5 2.1 2.1 0 0 0-.4-.3 4.3 4.3 0 0 0-3 .7 10.5 10.5 0 0 0-.9.8 7.8 7.8 0 0 0-1-.3c-2.8-.4-4.3 2.3-3.8 4.6a6.8 6.8 0 0 0 1.1 1.8 5.8 5.8 0 0 1 .4.5 2.4 2.4 0 0 0 .5.3l-.1.5c-.1.7.5.9 1.1.8a2.2 2.2 0 0 0 .3-.1 3.8 3.8 0 0 0 1 .2 7 7 0 0 0 6.1-2 4.2 4.2 0 0 0 .3-.4 9 9 0 0 0-.1-5.6zm-1.9-1.3a3.5 3.5 0 0 0-2.6.5 2.3 2.3 0 0 1 2.6-.5zm-2.6 3.4a4.4 4.4 0 0 0 .2-.7 1.2 1.2 0 0 1-.2-.6 1.1 1.1 0 0 1 1-.8 1.2 1.2 0 0 1 1.2.2 2.5 2.5 0 0 1 .8 2.2.6.6 0 0 1 0 .4c-.2.4-.4.5-.8.7h-.4a2.5 2.5 0 0 1-.8.1 1.2 1.2 0 0 1-1-1.5zm-.6 2.4a1 1 0 0 1 .2-.3.6.6 0 0 1 .6 0c.4 0 .8.2.8.5a.2.2 0 0 1 0 .3l-1 .5a2 2 0 0 1-1 .2l-.3-.1c-.3-.5.4-.8.8-1zm-3.7-3a.7.7 0 0 1 .2-.2 1.2 1.2 0 0 1 1.3-.5l.1.1a1.4 1.4 0 0 1 .5.3c.4.6.3 1.5.7 2a.5.5 0 0 1 0 .7 2 2 0 0 1-.7 1 .6.6 0 0 1-.7-.1 2.4 2.4 0 0 1-1.4-3.3zm1 4.4c.5-.3 1-.7 1.5-.4a2.3 2.3 0 0 0-1.5.4zm2.4.2a25.2 25.2 0 0 0 2.9-.9 1.2 1.2 0 0 1 1.1.4c-1.4-.3-2.7.6-4 .5zm2.9-1.8a2 2 0 0 1 2-.7 2.9 2.9 0 0 0-2 .7z"/><path class="cls-23" d="M167.5 51.2a2.3 2.3 0 0 1 1.5-.4c-.4-.3-1 .1-1.5.4zm5.9-7.2a2.3 2.3 0 0 0-2.6.5 3.5 3.5 0 0 1 2.6-.5z"/><path class="cls-24" d="M169.6 50.7l.2-.4a3 3 0 0 0 .4-.4c-.3.2-1 .5-.7 1h.3a.3.3 0 0 1-.2-.2zm-3 1.7l.1-.4a2.4 2.4 0 0 1-.5-.4 4.7 4.7 0 0 1 .3.5.8.8 0 0 0 .5 1.3 1 1 0 0 0 .8-.2c-.7 0-1.3-.1-1.2-.8z"/><g class="cls-26"><path class="cls-27" d="M165 46.3a.6.6 0 0 0 0 .1v.2l.2-.2a1.5 1.5 0 0 0-.1-.1z"/><path class="cls-28" d="M165 46.3a.6.6 0 0 0-.1.2v.1l.2-.1a.3.3 0 0 0-.1-.2z"/><path class="cls-29" d="M165 46.3a.3.3 0 0 1 .1.2h-.1.2a1.5 1.5 0 0 0-.2-.2z"/></g><g class="cls-26"><path class="cls-27" d="M165.6 48.2a.6.6 0 0 0-.1.1l.1.2.2-.2a1.5 1.5 0 0 0-.2-.1z"/><path class="cls-28" d="M165.6 48.2a.6.6 0 0 0-.2.1l.2.2v-.1a.3.3 0 0 0 0-.2z"/><path class="cls-29" d="M165.6 48.2a.3.3 0 0 1 .1.1v.2-.2a1.5 1.5 0 0 0 0-.1z"/></g><g class="cls-26"><path class="cls-27" d="M166.4 45a.5.5 0 0 0-.1.1v.1h.2a1.3 1.3 0 0 0-.1-.2z"/><path class="cls-28" d="M166.3 45a.5.5 0 0 0 0 .1v.1h.1a.3.3 0 0 0 0-.2z"/><path class="cls-29" d="M166.4 45a.3.3 0 0 1 0 .1v.1h.1a1.3 1.3 0 0 0-.1-.2z"/></g><g class="cls-26"><path class="cls-27" d="M170.4 48.6a.6.6 0 0 0-.1.1v.2l.2-.2a1.5 1.5 0 0 0-.1-.1z"/><path class="cls-28" d="M170.3 48.6a.6.6 0 0 0-.1.2l.1.1c.1.1 0 0 .1-.1a.3.3 0 0 0 0-.2z"/><path class="cls-29" d="M170.4 48.6a.3.3 0 0 1 .1.2h-.1.1a1.5 1.5 0 0 0-.1-.2z"/></g><g class="cls-26"><path class="cls-27" d="M170.3 46.3a.5.5 0 0 0 0 .1v.1h.2a1.1 1.1 0 0 0-.2-.2z"/><path class="cls-28" d="M170.3 46.4a.5.5 0 0 0-.1 0v.2l.2-.1a.3.3 0 0 0-.1-.1z"/><path class="cls-29" d="M170.3 46.3a.3.3 0 0 1 .1.1v.1a1.1 1.1 0 0 0 0-.2z"/></g><g class="cls-26"><path class="cls-27" d="M169 47.2a.5.5 0 0 0-.1.1v.1h.2a1.3 1.3 0 0 0-.1-.2z"/><path class="cls-28" d="M169 47.2a.5.5 0 0 0-.1.1l.1.2.1-.1a.3.3 0 0 0-.1-.2z"/><path class="cls-29" d="M169 47.2a.3.3 0 0 1 .1.1l-.1.1h.1a1.3 1.3 0 0 0-.1-.2z"/></g><g class="cls-26"><path class="cls-27" d="M168.6 45.4a.6.6 0 0 0-.1.1v.1h.2a1.5 1.5 0 0 0-.1-.2z"/><path class="cls-28" d="M168.5 45.4a.6.6 0 0 0-.1.1l.1.2.1-.1a.3.3 0 0 0 0-.2z"/><path class="cls-29" d="M168.6 45.4a.3.3 0 0 1 .1.1l-.1.1h.1a1.5 1.5 0 0 0-.1-.2z"/></g><g class="cls-26"><path class="cls-27" d="M171.3 44.3v.2l.1-.1z"/><path class="cls-28" d="M171.3 44.3a.4.4 0 0 0-.1.1v.1h.1a.2.2 0 0 0 0-.2z"/><path class="cls-29" d="M171.3 44.3a.2.2 0 0 1 0 .1z"/></g><g class="cls-26"><path class="cls-27" d="M174.3 44.8a.6.6 0 0 0-.2.2l.1.1.2-.1a1.5 1.5 0 0 0-.1-.2z"/><path class="cls-28" d="M174.2 44.9a.6.6 0 0 0-.1 0v.2h.2a.3.3 0 0 0-.1-.2z"/><path class="cls-29" d="M174.2 44.8a.3.3 0 0 1 .2.2l-.2.1.2-.1a1.5 1.5 0 0 0-.2-.2z"/></g><g class="cls-26"><path class="cls-27" d="M173 44a.6.6 0 0 0-.1.1v.1h.2a1.4 1.4 0 0 0-.1-.2z"/><path class="cls-28" d="M173 44a.6.6 0 0 0-.2.2l.1.1h.1a.3.3 0 0 0 0-.2z"/><path class="cls-29" d="M173 44a.3.3 0 0 1 .1.1l-.1.1h.1a1.4 1.4 0 0 0-.1-.2z"/></g><g class="cls-26"><path class="cls-27" d="M175 47a.6.6 0 0 0-.1 0v.2l.2-.1a1.5 1.5 0 0 0-.1-.1z"/><path class="cls-28" d="M175 47a.6.6 0 0 0-.2.1l.1.2.1-.1a.3.3 0 0 0 0-.2z"/><path class="cls-29" d="M175 47a.3.3 0 0 1 .1.1l-.1.1.2-.1a1.5 1.5 0 0 0-.2-.2z"/></g><g class="cls-26"><path class="cls-27" d="M175 49.6a.6.6 0 0 0-.2.1l.1.2.2-.1a1.5 1.5 0 0 0-.2-.2z"/><path class="cls-28" d="M174.9 49.6a.6.6 0 0 0-.2.2l.2.1c0 .1 0 0 0 0a.3.3 0 0 0 0-.3z"/><path class="cls-29" d="M175 49.6a.3.3 0 0 1 0 .2v.1-.1a1.5 1.5 0 0 0 0-.2z"/></g><g class="cls-26"><path class="cls-27" d="M172.4 49.4v.1a.9.9 0 0 0 0-.1z"/><path class="cls-28" d="M172.4 49.4a.4.4 0 0 0-.1 0v.1h.1a.2.2 0 0 0 0-.1z"/><path class="cls-29" d="M172.4 49.4v.1a.9.9 0 0 0 0-.1z"/></g><g class="cls-26"><path class="cls-27" d="M173.8 48.3v.1h.1a.9.9 0 0 0 0-.1z"/><path class="cls-28" d="M173.8 48.3v.1a.2.2 0 0 0 0-.1z"/><path class="cls-29" d="M173.8 48.3v.1h.1a.9.9 0 0 0 0-.1z"/></g><g class="cls-26"><path class="cls-27" d="M173.9 51.8a.5.5 0 0 0-.1 0v.2l.2-.1a1.3 1.3 0 0 0-.1-.1z"/><path class="cls-28" d="M173.8 51.8v.2l.1-.1a.3.3 0 0 0 0-.1z"/><path class="cls-29" d="M173.9 51.7a.3.3 0 0 1 0 .2h.1a1.3 1.3 0 0 0-.1-.2z"/></g><g class="cls-26"><path class="cls-27" d="M171.6 51.3a.6.6 0 0 0-.1.1v.1h.2a1.5 1.5 0 0 0-.1-.2z"/><path class="cls-28" d="M171.5 51.3a.6.6 0 0 0 0 .1v.2l.2-.1a.3.3 0 0 0-.2-.2z"/><path class="cls-29" d="M171.6 51.3a.3.3 0 0 1 0 .1v.2l.1-.2a1.5 1.5 0 0 0-.1-.1z"/></g><g class="cls-26"><path class="cls-27" d="M170.2 52.4a.6.6 0 0 0-.1 0v.2l.3-.1a1.5 1.5 0 0 0-.2-.1z"/><path class="cls-28" d="M170.1 52.4a.6.6 0 0 0 0 .1v.2l.2-.2a.3.3 0 0 0-.2-.1z"/><path class="cls-29" d="M170.2 52.4a.3.3 0 0 1 .1.1l-.1.1.2-.1a1.5 1.5 0 0 0-.2-.1z"/></g><g class="cls-26"><path class="cls-27" d="M171.8 52.8a.4.4 0 0 0 0 .1v.1a1 1 0 0 0 0-.2z"/><path class="cls-28" d="M171.8 52.9a.4.4 0 0 0-.1 0v.1h.1a.2.2 0 0 0 0-.1z"/><path class="cls-29" d="M171.8 52.8a.2.2 0 0 1 0 .1v.1a1 1 0 0 0 0-.2z"/></g><g class="cls-26"><path class="cls-27" d="M173.2 50.5a.4.4 0 0 0 0 .1v.1h.1a1 1 0 0 0 0-.2z"/><path class="cls-28" d="M173.2 50.5a.4.4 0 0 0-.1.1v.1h.2a.2.2 0 0 0-.1-.2z"/><path class="cls-29" d="M173.2 50.5a.2.2 0 0 1 0 .1v.1h.1a1 1 0 0 0 0-.2z"/></g><g class="cls-26"><path class="cls-27" d="M169 52.5a.4.4 0 0 0-.1.1v.1h.1a1 1 0 0 0 0-.2z"/><path class="cls-28" d="M168.9 52.5a.4.4 0 0 0 0 .1v.1a.2.2 0 0 0 0-.2z"/><path class="cls-29" d="M169 52.5a.2.2 0 0 1 0 .1v.1a1 1 0 0 0 0-.2z"/></g><g class="cls-26"><path class="cls-27" d="M168.7 51.3a.6.6 0 0 0-.2.1l.1.2.2-.2a1.5 1.5 0 0 0-.2-.1z"/><path class="cls-28" d="M168.6 51.3a.6.6 0 0 0-.1.1v.2l.2-.1a.3.3 0 0 0-.1-.2z"/><path class="cls-29" d="M168.6 51.3a.3.3 0 0 1 .2.2h-.2.2a1.5 1.5 0 0 0-.2-.2z"/></g><g class="cls-26"><path class="cls-27" d="M168.7 50.4a.6.6 0 0 0-.1 0l.1.2.2-.1a1.5 1.5 0 0 0-.2-.1z"/><path class="cls-28" d="M168.7 50.4a.6.6 0 0 0-.2.1l.2.2v-.2a.3.3 0 0 0 0-.1z"/><path class="cls-29" d="M168.7 50.4a.3.3 0 0 1 .1.1l-.1.1h.2a1.5 1.5 0 0 0-.2-.2z"/></g><g class="cls-26"><path class="cls-27" d="M165.7 50.1a.6.6 0 0 0-.1.2v.1l.3-.1a1.5 1.5 0 0 0-.2-.2z"/><path class="cls-28" d="M165.7 50.1a.6.6 0 0 0-.2.2l.1.1c0 .1.1 0 .2 0a.3.3 0 0 0-.2-.3z"/><path class="cls-29" d="M165.7 50.1a.3.3 0 0 1 .1.2l-.1.1.2-.1a1.5 1.5 0 0 0-.2-.2z"/></g><g class="cls-26"><path class="cls-27" d="M167 51.5a.6.6 0 0 0-.1.2v.1l.2-.1a1.5 1.5 0 0 0-.1-.2z"/><path class="cls-28" d="M167 51.6a.6.6 0 0 0-.1 0v.2h.2a.3.3 0 0 0-.1-.2z"/><path class="cls-29" d="M167 51.5a.3.3 0 0 1 .1.2l-.1.1.2-.1a1.5 1.5 0 0 0-.2-.2z"/></g><g class="cls-26"><path class="cls-27" d="M167 52.8a.6.6 0 0 0-.1 0v.2h.2a1.5 1.5 0 0 0-.1-.2z"/><path class="cls-28" d="M167 52.8a.6.6 0 0 0-.1.1v.2l.2-.1a.3.3 0 0 0-.1-.2z"/><path class="cls-29" d="M167 52.8a.3.3 0 0 1 .1.1l-.1.2.2-.2a1.5 1.5 0 0 0-.2-.1z"/></g></g></g></svg>