<svg xmlns="http://www.w3.org/2000/svg" xmlns:xlink="http://www.w3.org/1999/xlink" viewBox="0 0 230.15 130.69"><defs><style>.cls-1{isolation:isolate;}.cls-2{fill:#f3a712;}.cls-3{fill:#442f1f;}.cls-4{fill:#1e130a;}.cls-5{fill:#302012;}.cls-6{fill:#443e39;}.cls-7{fill:#d3bba7;}.cls-8{fill:#f9e3cf;}.cls-9{fill:#6d0f0f;}.cls-10{fill:#fff;}.cls-11{fill:#e5e5e5;}.cls-12,.cls-20{fill:none;stroke-linecap:round;stroke-linejoin:round;}.cls-12{stroke:#443e39;stroke-width:1.5px;}.cls-13,.cls-21{opacity:0.5;}.cls-14{fill:#bbdaff;}.cls-15{fill:#a6c6f4;}.cls-16{fill:#95b5e8;}.cls-17{fill:#664018;}.cls-18{fill:#3f2407;}.cls-19{fill:#51310b;}.cls-20{stroke:#2d1a05;stroke-width:0.88px;}.cls-21{mix-blend-mode:multiply;fill:url(#linear-gradient);}.cls-22{fill:#ba1200;}</style><linearGradient id="linear-gradient" x1="42.59" y1="55.41" x2="95" y2="250.31" gradientUnits="userSpaceOnUse"><stop offset="0" stop-color="#fff"/><stop offset="0.12" stop-color="#ded8d3"/><stop offset="0.13" stop-color="#dbd4cf"/><stop offset="0.3" stop-color="#b3a599"/><stop offset="0.46" stop-color="#927d6c"/><stop offset="0.62" stop-color="#785f49"/><stop offset="0.76" stop-color="#65492f"/><stop offset="0.89" stop-color="#5a3c20"/><stop offset="1" stop-color="#56371b"/></linearGradient></defs><title>jerry</title><g class="cls-1"><g id="Layer_1" data-name="Layer 1"><path class="cls-2" d="M229.84,76.33a3,3,0,0,0-2.46-1.66l-2.33-.18a3,3,0,0,0-1.39.22,3,3,0,0,0-.41-.19,20.85,20.85,0,0,0-3.55-6.16l.75-9.67a3,3,0,0,0-2.76-3.22l-3.24-.25a3,3,0,0,0-1.93.52,3,3,0,0,0-1.83-.81l-3.24-.25a2.7,2.7,0,0,1-1.71-.13l-9-.7a2.66,2.66,0,0,0-.56,0,100.87,100.87,0,0,0-47-3.65l-.19,0-.6.11a2.94,2.94,0,0,0-1.19-.37l-3.24-.25a3,3,0,0,0-1.93.52,3,3,0,0,0-1.83-.81l-3.24-.25a3,3,0,0,0-.86.07,3,3,0,0,0-.84-.2l-9-.7a3,3,0,0,0-3.22,2.76l-.2,2.64A3,3,0,0,0,125.4,57l-.2,2.61a22.46,22.46,0,0,0-5.9,6.59l-.36,0a6.71,6.71,0,0,0-5.21,1.59,8.11,8.11,0,0,0-.79,10.2,6.7,6.7,0,0,0,4.9,2.38,8.61,8.61,0,0,0,1.11,0,21.77,21.77,0,0,0,2.21,3.59c-6.15,8.39-21,6.27-21,6.27s13.44,8.57,26.24-.84c.57.46,1.15.92,1.77,1.37l-.13,1.71a3,3,0,0,0,2.76,3.22l2.16.17a3,3,0,0,0,1.22-.16c.2.08.41.16.62.23a9.48,9.48,0,0,0,2,.34h0a8,8,0,0,0,1,0,91.64,91.64,0,0,0,30.87,7.6,91,91,0,0,0,32.48-3,2.94,2.94,0,0,0,1.15.34l4.72.37a3,3,0,0,0,3.22-2.76l.12-1.57c4.87-2.48,8.67-5.53,11-9l.16,0,2.17.17a3,3,0,0,0,3.22-2.76l.18-2.35,2.58-4A3,3,0,0,0,229.84,76.33Z"/><path class="cls-2" d="M92.63,64.56a6.92,6.92,0,0,0-1.89-3.66,4.6,4.6,0,0,0-.9-.7l-.06,0-.11-.07a4,4,0,0,0-.53-.27,43.79,43.79,0,0,1,1.21-4.93c.14-.49.28-1,.42-1.44.28-.94.57-1.9.83-2.94v-.06a15.89,15.89,0,0,0,.32-5.72,19.42,19.42,0,0,0-1.62-5.32l0,0-1-2.12a7,7,0,0,1-.47-1.45,38.81,38.81,0,0,1-.55-6.74c0-.67,0-1.34-.06-2,0-1.43-.12-3.15-.28-4.88-.09-.87-.18-1.72-.35-2.62a14.22,14.22,0,0,0-.87-3A13,13,0,0,0,83,11.46l0,0a12.49,12.49,0,0,0-5.81-2.57,10.89,10.89,0,0,0-1.74-.14,13.2,13.2,0,0,0-1.5.09l-.19,0c-.49.09-.88.18-1.23.26s-.57.13-.81.17a10,10,0,0,1-1.53.12,8.29,8.29,0,0,1-1.39-.11,5.19,5.19,0,0,1-1.93-.66c-.15-.15-.53-.62-.65-.78-.38-.47-.81-1-1.26-1.55A17.25,17.25,0,0,0,57.77,1,15.53,15.53,0,0,0,52,0h0c-.55,0-1.11,0-1.71.07a27.33,27.33,0,0,0-7.49,1.78,35.38,35.38,0,0,0-4,1.81c-.74.4-1.39.77-2,1.15l-.17.11-.7.45c-.3,0-.62,0-1,0a21,21,0,0,0-2.29.29h-.05a29.36,29.36,0,0,0-4.4,1.2,41.66,41.66,0,0,0-4.14,1.72,13.92,13.92,0,0,0-1.64.88L22,9.82l-.17.1c-.32.21-.6.43-.82.6l-.25.2-.08.06-.19.15a8.3,8.3,0,0,0-.92.79,29.39,29.39,0,0,0-5.9,8.11,48,48,0,0,0-2,4.46c-.29.75-.57,1.5-.85,2.32l0,0-.3.94c-.21.15-.44.32-.66.51a15.8,15.8,0,0,0-1.62,1.54l0,0a17.81,17.81,0,0,0-2.48,3.57,24.37,24.37,0,0,0-2.5,7.61,39.36,39.36,0,0,0-.62,7.36,31.83,31.83,0,0,0,.23,3.63c.06.47.13,1,.22,1.48a9.92,9.92,0,0,0-.75.88A10.55,10.55,0,0,0,.66,57.3,14.74,14.74,0,0,0,.06,63a6.58,6.58,0,0,0,.23,1.31l.05.21A3,3,0,0,0,.5,65l.08.2a6.87,6.87,0,0,0,.54,1.17,8.67,8.67,0,0,0,2,2.41,10,10,0,0,0,1,.75q0,.32,0,.64a23.83,23.83,0,0,0,.21,3.44,33.86,33.86,0,0,0,1.95,7.24A34.9,34.9,0,0,0,8.84,86.4a10.56,10.56,0,0,1-.19,1.39A7.23,7.23,0,0,1,8.32,89l-.05.14a3.83,3.83,0,0,1-.4.61l-.27.36c-.27.35-.57.75-.86,1.19l0,0a7,7,0,0,0-1.18,3,5.13,5.13,0,0,0,1.61,4.35,5.72,5.72,0,0,0,1.31,1l.07,0a3,3,0,0,0,.62.28l.66.19.09,0a3.8,3.8,0,0,0,.61.09,5.6,5.6,0,0,1-.85,1.35,9.32,9.32,0,0,1-1.51,1.15l-.38.25-.32.21a16.44,16.44,0,0,0-2.54,2,7.62,7.62,0,0,0-1.77,2.6l0,.11a6.31,6.31,0,0,0,0,4.09,3,3,0,0,0,.18.43l.09.19A6.41,6.41,0,0,0,4,113.71l.57.83a3,3,0,0,0,.23.3l.35.39.37.41.14.15c.25.24.49.45.7.63l.24.21.14.11a12.24,12.24,0,0,0,5.51,2.39,14.86,14.86,0,0,0,2.43.2,17.19,17.19,0,0,0,8.88-2.58l0,0A14.57,14.57,0,0,1,27,115h0l.09,0a58.68,58.68,0,0,0,11.39,12.32c3.3,2.61,7,3.13,10.44,3.32l.62,0c.89,0,1.9.11,2.94.11a14.16,14.16,0,0,0,7.23-1.62c4.17-2.48,7.84-6.41,11.19-10.29a38.64,38.64,0,0,0,2.48-3.19,12.36,12.36,0,0,0,2.44,1,11.69,11.69,0,0,0,3.48.54,10.6,10.6,0,0,0,3-.43A12.47,12.47,0,0,0,88.18,113a16.09,16.09,0,0,0,3.19-5.45,19.78,19.78,0,0,0,.87-9.6,19.35,19.35,0,0,0-.93-3.5,18.53,18.53,0,0,0-.87-2c-.24-.47-.49-.92-.74-1.35l-.29-.5a23.29,23.29,0,0,1-1.69-3.71A15.18,15.18,0,0,0,89.08,85a19.34,19.34,0,0,0,2.1-4.89v0a44,44,0,0,0,1.29-7.17l0-.28v0l0-.41c.08-.75.17-1.67.26-2.71A17.8,17.8,0,0,0,92.63,64.56Z"/><path class="cls-3" d="M9,55.82A15.4,15.4,0,0,1,6.15,50a20.51,20.51,0,0,0,.68,4.33c-1.4.94-3.51,2.76-3.46,7.58A5.53,5.53,0,0,0,4,64.57,9.67,9.67,0,0,1,9,55.82Z"/><path class="cls-3" d="M16.83,33.25C17.5,22.14,25.28,10.83,37,13.88c5.43-4.64,13.12-7.75,18.15-4,6.74,6,14.22,6.74,21,10.48,4.27,2.14,7.05,6.76,8.85,12.45-.31-3.79-.19-8.34-.84-12.45-1-6.46-6.6-8.84-10.39-7.81a11.57,11.57,0,0,1-9.12-1C62.7,10.33,60,3.78,52.17,3.78s-15,5.38-15,5.38-3.93-.84-11.89,3S13.67,29.75,13.67,29.75s-5,2.15-6.78,10.67c-.24,1.16-.41,2.25-.54,3.29C8.7,39,11.62,34.21,16.83,33.25Z"/><path class="cls-4" d="M16.15,44.82a41.59,41.59,0,0,0,1.54,15.06,138.76,138.76,0,0,1,.64-15.32C17.61,44.6,16.88,44.74,16.15,44.82Z"/><path class="cls-4" d="M85.71,61c-2.43.66-4.37,2.46-6.33,4.28.28,1.62.43,3.37.64,5.06L86,64.42A12.29,12.29,0,0,1,85.71,61Z"/><path class="cls-5" d="M87.59,41.62c-.33-.81-.72-1.62-1.12-2.48l-.37-.78a16.56,16.56,0,0,1-1.17-5.52c-1.79-5.69-4.57-10.32-8.85-12.45-6.74-3.74-14.22-4.49-21-10.48-5-3.78-12.72-.67-18.15,4-11.7-3.05-19.47,8.26-20.14,19.37C11.62,34.21,8.7,39,6.34,43.7A33.9,33.9,0,0,0,6.15,50,15.4,15.4,0,0,0,9,55.82a9.67,9.67,0,0,0-5,8.75,6,6,0,0,0,1.81,2c2.1-3.46,5.85-5.22,9.6-2a20.14,20.14,0,0,1,3.64,4.77c-.22,2.79-.7,5.42-.82,8.15l3.24,3.24L68,82.38l12-12c-.21-1.69-.37-3.44-.64-5.06,2-1.83,3.9-3.63,6.33-4.28a20,20,0,0,1,.23-2.09C85.23,53.15,88.43,47.39,87.59,41.62ZM17.69,59.89a41.59,41.59,0,0,1-1.54-15.06c.73-.08,1.46-.22,2.18-.26A138.76,138.76,0,0,0,17.69,59.89ZM79.08,56a137.38,137.38,0,0,0-.65-15.29,21.46,21.46,0,0,1,2.19,1C81.21,46.64,81.24,51.55,79.08,56Z"/><path class="cls-4" d="M15.44,64.56c-3.75-3.21-7.5-1.45-9.6,2a8.5,8.5,0,0,0,2.82,1.31l9.6,9.6c.12-2.73.6-5.37.82-8.15A20.14,20.14,0,0,0,15.44,64.56Z"/><path class="cls-4" d="M79.08,56c2.16-4.48,2.13-9.39,1.54-14.31a21.46,21.46,0,0,0-2.19-1A137.38,137.38,0,0,1,79.08,56Z"/><path class="cls-3" d="M87.59,41.62c.84,5.76-2.36,11.53-1.65,17.29a70.51,70.51,0,0,1,1.9-7.58l.27-1A12.32,12.32,0,0,0,87.59,41.62Z"/><path class="cls-6" d="M50.58,2.49A24.44,24.44,0,0,0,44,4.07,31.23,31.23,0,0,0,40.37,5.7q-.91.48-1.83,1l-.92.58-.46.31-.23.16,0,0H36c-.34,0-.68,0-1,.06a19,19,0,0,0-2,.3A28.8,28.8,0,0,0,29,9.3c-1.3.48-2.59,1-3.87,1.65-.64.31-1.33.74-2,1.14a17.69,17.69,0,0,0-1.77,1.46,26.66,26.66,0,0,0-5.28,7.39,43.93,43.93,0,0,0-1.86,4.18c-.28.71-.53,1.43-.78,2.16l-.35,1.1L13,28.9l-.06.22-.48.3c-.26.18-.52.37-.76.58a13.2,13.2,0,0,0-1.36,1.3,15,15,0,0,0-2.09,3A21.92,21.92,0,0,0,6,41.12,36.41,36.41,0,0,0,5.46,48a29,29,0,0,0,.22,3.33c.07.55.15,1.09.25,1.62.05.25.11.56.17.77s.08.31.13.47A7.42,7.42,0,0,0,3.48,58,11.76,11.76,0,0,0,3,62.6a5.78,5.78,0,0,0,2,3.79,7.55,7.55,0,0,0,1.7,1.1,9.49,9.49,0,0,0,.9.38,7,7,0,0,0,.84.25l13,12.6L8.79,67.64a6.9,6.9,0,0,1-.92-.3A8.91,8.91,0,0,1,7,67a6.93,6.93,0,0,1-1.53-1.06,5.06,5.06,0,0,1-1.7-3.38,11,11,0,0,1,.54-4.25,6.79,6.79,0,0,1,1.06-1.95,7.64,7.64,0,0,1,2-1.74c-.1-.35-.2-.71-.28-1.07S7.07,53,7,52.71c-.08-.51-.15-1-.2-1.56A27.94,27.94,0,0,1,6.7,48a35.26,35.26,0,0,1,.72-6.56,20.47,20.47,0,0,1,2.21-6.26,13.42,13.42,0,0,1,1.93-2.66,11.49,11.49,0,0,1,1.2-1.09c.21-.17.43-.32.64-.46l.16-.1.08-.05.15-.08.63-.34.25-.86.18-.55.36-1c.25-.69.52-1.38.8-2.06a42.3,42.3,0,0,1,1.88-4,24.73,24.73,0,0,1,5-6.68A15.54,15.54,0,0,1,24.44,14c.56-.32,1.07-.64,1.68-.92,1.23-.57,2.46-1.06,3.67-1.48a26.67,26.67,0,0,1,3.61-1,16.61,16.61,0,0,1,1.74-.23c.28,0,.56,0,.83,0h.69l.24,0,.54-.11.53-.12.6-.42L39,9.48,39.87,9q.86-.5,1.71-.94a29.33,29.33,0,0,1,3.32-1.46A22.59,22.59,0,0,1,50.8,5.19a11.71,11.71,0,0,1,5.16.6,12.24,12.24,0,0,1,5,3.68c.39.45.77.91,1.18,1.41a10.31,10.31,0,0,0,1.54,1.62A9.77,9.77,0,0,0,68,14.11,14.19,14.19,0,0,0,72.53,14c.75-.13,1.58-.37,2.08-.47a6.82,6.82,0,0,1,1.84,0A7.58,7.58,0,0,1,80,15a8.22,8.22,0,0,1,2.41,3.17,14.42,14.42,0,0,1,1,4.2c.18,1.51.28,3,.37,4.6a57.3,57.3,0,0,0,.92,9.48,11.42,11.42,0,0,0,.83,2.35l1,2.08a15.36,15.36,0,0,1,1.4,4.16,11.77,11.77,0,0,1-.15,4.26c-.31,1.39-.74,2.84-1.1,4.24A31.2,31.2,0,0,0,85.26,62c0,.35,0,.69.07,1s.08.73.14.93.06.25.07.36l-.24.25-.63.65-2.6,2.68L77.38,72.7,68,82.38,77.67,73l4.83-4.69,2.68-2.6.74-.72.45-.44a5.77,5.77,0,0,0-.09-.6,9.76,9.76,0,0,1-.13-1c0-.32,0-.64,0-1a30.44,30.44,0,0,1,1.58-8.09c.4-1.4.86-2.76,1.24-4.27a13.05,13.05,0,0,0,.29-4.72,16.7,16.7,0,0,0-1.39-4.57l-1-2.13a9.82,9.82,0,0,1-.66-2.06,56.9,56.9,0,0,1-.64-9.19c0-1.57-.11-3.15-.26-4.73-.08-.8-.15-1.56-.31-2.38a11.46,11.46,0,0,0-.7-2.42,10.34,10.34,0,0,0-3-4.06,9.79,9.79,0,0,0-4.55-2,9.08,9.08,0,0,0-2.51,0c-.92.16-1.47.33-2.13.43a11.84,11.84,0,0,1-3.78,0,7.49,7.49,0,0,1-3.15-1.21,9.1,9.1,0,0,1-1.08-1.22c-.39-.49-.79-1-1.21-1.49a14.74,14.74,0,0,0-6-4.49A14.14,14.14,0,0,0,50.58,2.49Z"/><path class="cls-4" d="M83.57,87.77c.31-.1.63-.19,1-.27a22.43,22.43,0,0,1-.86-3.71V78.41H74L72.47,96C77.86,95.63,79.47,89.82,83.57,87.77Z"/><path class="cls-5" d="M84.53,87.5c-.33.08-.65.16-1,.27-4.11,2.05-5.71,7.86-11.11,8.27l-1.11,12.51a7.72,7.72,0,0,0,5,4.66c7.3-.57,11.31-5.82,12.7-12.36a16.23,16.23,0,0,0-2.18-8.07A27.54,27.54,0,0,1,84.53,87.5Z"/><path class="cls-3" d="M76.37,113.2a8.57,8.57,0,0,0,4.31.4c3.91-.73,6.61-4.21,7.68-7.84a17.1,17.1,0,0,0,.71-4.91C87.68,107.39,83.67,112.63,76.37,113.2Z"/><path class="cls-6" d="M88.2,98.42a16.83,16.83,0,0,1-.52,7.6,12.35,12.35,0,0,1-2.25,4.23,8.79,8.79,0,0,1-3.93,2.8,7.81,7.81,0,0,1-4.53.11,9.15,9.15,0,0,1-3.46-1.7,6.56,6.56,0,0,1-1.73-2,4.36,4.36,0,0,1-.31-.67l-.1-.24.09.24a4.38,4.38,0,0,0,.28.69,6.67,6.67,0,0,0,1.64,2.15,9.41,9.41,0,0,0,3.48,1.95,8.32,8.32,0,0,0,4.84.12,9.52,9.52,0,0,0,4.43-2.84,13.16,13.16,0,0,0,2.64-4.47,16.87,16.87,0,0,0,.78-8.18,16.28,16.28,0,0,0-.8-3A20.78,20.78,0,0,0,87,91.74a24.59,24.59,0,0,1-2.93-8l-.14-5.62L74,78.41l9.37.27-.14,5.15A24.78,24.78,0,0,0,86,92.31,17.78,17.78,0,0,1,88.2,98.42Z"/><path class="cls-3" d="M15,96.64a13.28,13.28,0,0,1-2.52,6.89c-2,2.43-7.94,3.93-5.67,7.82a9.1,9.1,0,0,0,.62.92C11.84,107.87,16.11,103.24,15,96.64Z"/><path class="cls-3" d="M11.79,88.72a10.44,10.44,0,0,1-.47,1.52c-.65,1.59-3.5,3.78-2,5.54a2,2,0,0,0,1.87.88C11,94.12,13.14,91,11.79,88.72Z"/><path class="cls-4" d="M20.12,90.22a82,82,0,0,0,.55-10H11.56A19.8,19.8,0,0,1,12,87.72,7.41,7.41,0,0,0,20.12,90.22Z"/><path class="cls-5" d="M27,80.24H20.68a82,82,0,0,1-.55,10A7.41,7.41,0,0,1,12,87.72c-.05.34-.12.68-.2,1,1.35,2.29-.84,5.39-.61,7.94,1.92-.26,3.67-3.65,4.08-5.16A46.83,46.83,0,0,1,15,96.64c1.11,6.6-3.16,11.23-7.58,15.63,3.47,4.57,10.18,4.14,14.63,1.31,3.42-2.18,7.41-3.88,10.33.06V92.81Z"/><path class="cls-6" d="M9.42,105.11a14.93,14.93,0,0,0-2.65,2.07,3.83,3.83,0,0,0-1.05,1.91,3.48,3.48,0,0,0,.41,2.34,9.14,9.14,0,0,0,3.17,3.37A9.81,9.81,0,0,0,14,116.24a13.72,13.72,0,0,0,5.07-.73,14.52,14.52,0,0,0,2.39-1.06c.77-.45,1.45-.91,2.17-1.32a9.5,9.5,0,0,1,4.54-1.47,4.32,4.32,0,0,1,2.19.58,9.75,9.75,0,0,1,2.26,2.21s0-.19,0-.31v-2.56l0-2.09-.06-3.94-.1-6.65-.09-6.09-.09,6.09-.1,6.65-.06,3.94,0,2.09v1.21s0,.14,0,.06a4.28,4.28,0,0,0-1.31-1.18,5,5,0,0,0-2.51-.74,10.22,10.22,0,0,0-5,1.45c-.76.41-1.5.88-2.2,1.26a13.62,13.62,0,0,1-2.25.93,12.74,12.74,0,0,1-4.69.57,8.7,8.7,0,0,1-4.16-1.35,8,8,0,0,1-2.67-2.93,2.16,2.16,0,0,1,.48-2.76,14.53,14.53,0,0,1,2.42-1.85,14,14,0,0,0,2.63-2.06,10.34,10.34,0,0,0,2-3.53,28,28,0,0,0,1-9.13l0-4-1.08,3.83a11,11,0,0,1-1.36,2.9,4,4,0,0,1-2.27,1.92,1.39,1.39,0,0,1-1.2-.49,1.35,1.35,0,0,1-.54-1.18,7.4,7.4,0,0,1,1.58-2.86A5.87,5.87,0,0,0,11.79,90a10.71,10.71,0,0,0,.46-1.73,15.74,15.74,0,0,0,.23-3.45,21.32,21.32,0,0,0-.38-3.29c0-.24-.12-.59-.15-.71l-.06-.25,0-.13s.07,0,.1,0l1.3,0L27,80.24,13.26,80,11.5,80c-.07,0-.22,0-.22,0l.05.25.11.51c.08.4.11.56.16.85a20.86,20.86,0,0,1,.28,3.21,15.15,15.15,0,0,1-.31,3.3,10,10,0,0,1-.47,1.61,5.08,5.08,0,0,1-.82,1.42c-.34.46-.72.92-1.05,1.44a4.2,4.2,0,0,0-.76,1.79,2.25,2.25,0,0,0,.77,1.93,3.15,3.15,0,0,0,.84.61l.54.15a2.67,2.67,0,0,0,.56,0A3.4,3.4,0,0,0,13,96.25a8.39,8.39,0,0,0,1.22-1.4,11.91,11.91,0,0,0,1.58-3.2l-1.1-.15a27.39,27.39,0,0,1-1.14,8.71,9.2,9.2,0,0,1-1.75,3.06A13.57,13.57,0,0,1,9.42,105.11Z"/><path class="cls-7" d="M11.6,68.73a27.91,27.91,0,0,1,6.27,8.2A12.6,12.6,0,0,1,19,75,31.7,31.7,0,0,0,11.6,68.73Z"/><path class="cls-7" d="M14.75,83.88c1.53-1.28,3.8-1.35,5.64-1.35A8.07,8.07,0,0,0,18,81.8C16.44,81.86,15.37,82.2,14.75,83.88Z"/><path class="cls-7" d="M10.88,82.8c1.4,2.91,4.51,8.09,7.54,6h4.41l-.41-3.45C18.39,89.88,14,86.8,10.88,82.8Z"/><path class="cls-8" d="M15.37,67.49A15.32,15.32,0,0,0,14.29,66a4.09,4.09,0,0,0-3.83-1.81A10.3,10.3,0,0,1,15.37,67.49Z"/><path class="cls-8" d="M22.17,83.21l-.29-2.45c-3.29,1.34-6.79-1.82-8.68-5,2.64,2.64,5.29,3,8.45,3L21,73H17.86a26.62,26.62,0,0,0-2.49-5.56,10.3,10.3,0,0,0-4.9-3.34c-1.25.24-2.29,1.35-2.63,3.34-.81,4.63.77,10,2.57,14.27.12.29.28.65.48,1,3.1,4,7.51,7.08,11.54,2.58ZM11.6,68.73A31.7,31.7,0,0,1,19,75a12.6,12.6,0,0,0-1.18,2A27.91,27.91,0,0,0,11.6,68.73Zm3.16,15.15c.61-1.68,1.68-2,3.22-2.09a8.07,8.07,0,0,1,2.43.73C18.55,82.53,16.29,82.6,14.75,83.88Z"/><path class="cls-7" d="M21.88,80.77l-.24-2c-3.16,0-5.8-.35-8.45-3C15.09,78.95,18.59,82.11,21.88,80.77Z"/><path class="cls-6" d="M8.49,72.88a24.33,24.33,0,0,1-.23-2.83,11.27,11.27,0,0,1,.42-3.5,3.31,3.31,0,0,1,1-1.46,2.28,2.28,0,0,1,1.64-.51,3.44,3.44,0,0,1,1.76.7,7.17,7.17,0,0,1,1.41,1.44,19.26,19.26,0,0,1,2,3.35c.27.55.51,1.09.72,1.6l.6,1.5L21,73l-3-.11-.45-1.4c-.18-.53-.39-1.08-.62-1.66A19.46,19.46,0,0,0,15,66.31a5.48,5.48,0,0,0-3.61-2.66A3.25,3.25,0,0,0,9,64.27a4.35,4.35,0,0,0-1.39,1.88A11.79,11.79,0,0,0,7,70a20.39,20.39,0,0,0,.18,3A30.09,30.09,0,0,0,9,79.63a27.07,27.07,0,0,0,4.18,7.51,6.2,6.2,0,0,0,3.36,2.32,2.68,2.68,0,0,0,1.81-.4.42.42,0,0,1,.31-.1H19l.74,0,3.1-.11-3.1-.11-.74,0H18.6a1.09,1.09,0,0,0-.24,0l-.22.11a2.32,2.32,0,0,1-1.57.25,5.75,5.75,0,0,1-2.91-2.32A27.32,27.32,0,0,1,10,79.24,35.47,35.47,0,0,1,8.49,72.88Z"/><path class="cls-6" d="M14.09,84.73a3.86,3.86,0,0,1,.43-.37,4,4,0,0,1,1.13-.6,2.47,2.47,0,0,1,2.16.38L18.5,83a3,3,0,0,0-1.43-.38,2.88,2.88,0,0,0-1.73.57,4,4,0,0,0-1,1.05A3.5,3.5,0,0,0,14.09,84.73Z"/><path class="cls-6" d="M9.13,66.94s.56.38,1.37,1.06a24,24,0,0,1,2.86,2.87A21.68,21.68,0,0,1,16,74.72a21.42,21.42,0,0,1,1.38,3.33l1.29-.41a16,16,0,0,0-1.68-3.5,20.46,20.46,0,0,0-3.1-3.74,23,23,0,0,0-3.23-2.57A16.59,16.59,0,0,0,9.13,66.94Z"/><path class="cls-6" d="M11.93,74.57a9.74,9.74,0,0,0,1.92,2.34,9.12,9.12,0,0,0,4,2.16l.27-1.32a12,12,0,0,1-3.87-1.38,11,11,0,0,1-1.68-1.19A7.73,7.73,0,0,1,11.93,74.57Z"/><path class="cls-7" d="M84,83.07a2.56,2.56,0,0,0-3.39-1.29v.88A4.64,4.64,0,0,1,84,83.07Z"/><path class="cls-7" d="M79.79,85.33c0,.11-.11.15-.25.17-.13,2.5,2.43,1.89,3.76.89a12,12,0,0,0,2.86-3.12C84.24,84.86,81.88,86.61,79.79,85.33Z"/><path class="cls-8" d="M85.91,62.58c-3.06.68-4.86,4.57-5.62,7.29l-4.66,2.58L75,82.29l3,2,1.57,1c0,.08,0,.14,0,.21s.21-.07.25-.17c2.09,1.28,4.45-.48,6.37-2.05a12,12,0,0,0,.89-1.66c1.49-3.42,1.85-7.51,2.23-11.18C89.55,67.81,90.42,61.57,85.91,62.58ZM81.33,76c.79-.74,1.4-1.83,2.18-2.59a5.83,5.83,0,0,1-2.18,4.45Zm-.75,6.66v-.88A2.56,2.56,0,0,1,84,83.07,4.64,4.64,0,0,0,80.58,82.66Zm1-11.46c-.41-.18-.48-.6-.54-1a10,10,0,0,1,5.09-3.81C84.17,67.59,83.16,69.59,81.54,71.2Z"/><path class="cls-7" d="M81,70.15c.07.45.14.86.54,1,1.62-1.61,2.63-3.61,4.54-4.86A10,10,0,0,0,81,70.15Z"/><path class="cls-7" d="M81.33,76v1.86a5.83,5.83,0,0,0,2.18-4.45C82.73,74.17,82.12,75.26,81.33,76Z"/><path class="cls-6" d="M89.79,72.08c.08-.84.19-1.87.29-3.08a14.9,14.9,0,0,0-.16-4.1,4.09,4.09,0,0,0-1.12-2.19,2.92,2.92,0,0,0-2.49-.65,5.89,5.89,0,0,0-3.91,2.59,14,14,0,0,0-1.89,3.81c-.11.31-.19.62-.28.92s-.06.27-.1.37l-.32.19-1.4.83-2.79,1.66L78.51,71,80,70.22l.45-.23c.07-.16.12-.37.17-.5.1-.29.2-.58.33-.88a13.62,13.62,0,0,1,2-3.55A5.12,5.12,0,0,1,86.41,63a1.94,1.94,0,0,1,1.67.48,3.09,3.09,0,0,1,.72,1.67,14.57,14.57,0,0,1,0,3.76l-.34,3.05a52.8,52.8,0,0,1-1,6.85,15.94,15.94,0,0,1-1.49,4,11.65,11.65,0,0,1-2.79,3.3,4.29,4.29,0,0,1-1.79.87,1.24,1.24,0,0,1-1.49-.53,2.06,2.06,0,0,1-.15-.89c.18-.42-.43-.56-.59-.72L77.74,84,75,82.29l2.66,1.87,1.33.93.32.22c.13,0,.08.19.08.31a2.44,2.44,0,0,0,.13,1,1.42,1.42,0,0,0,.82.8,2.34,2.34,0,0,0,1.15.1,4.87,4.87,0,0,0,2.11-.88,12.3,12.3,0,0,0,3.17-3.36,16.49,16.49,0,0,0,1.8-4.17A41.52,41.52,0,0,0,89.79,72.08Z"/><path class="cls-6" d="M87.18,65.64a8.38,8.38,0,0,0-1.24.63,14.24,14.24,0,0,0-2.59,2,16.35,16.35,0,0,0-3.75,5.82l1.27.45a20.29,20.29,0,0,1,3-5.82,14.7,14.7,0,0,1,2.21-2.31A8.72,8.72,0,0,1,87.18,65.64Z"/><path class="cls-6" d="M83.39,82.29a2.76,2.76,0,0,0-.29-.41,3.07,3.07,0,0,0-1-.78,2.32,2.32,0,0,0-1.6-.16,2.65,2.65,0,0,0-1.13.62l.94,1a2,2,0,0,1,1.59-.78,2.92,2.92,0,0,1,1,.3A3.06,3.06,0,0,1,83.39,82.29Z"/><path class="cls-6" d="M84.13,72.39a12,12,0,0,1-1.63,1.81,26.23,26.23,0,0,1-2.72,2.12l.78,1.1A11.35,11.35,0,0,0,83,74.63,10.32,10.32,0,0,0,84.13,72.39Z"/><path class="cls-7" d="M44.15,89.38c.93,2.79,3.09,5.73,6.48,4.38a10.4,10.4,0,0,0,3.65-2.9C50.89,90.95,47.34,90.89,44.15,89.38Z"/><path class="cls-7" d="M34.91,29.37c15.65-6.13,28.83.74,42.35,7.11a13.51,13.51,0,0,0-1.27-2A25.73,25.73,0,0,0,65.58,26.9c-15.22-6.62-35.46-1.14-44.86,12.65,1-.38,2-.77,3-1.2C28.17,36.11,31.17,30.87,34.91,29.37Z"/><path class="cls-7" d="M49.88,105.74c3.05.38,4.94-1.38,6.85-3H44.47A8.83,8.83,0,0,0,49.88,105.74Z"/><path class="cls-7" d="M52.32,115.49a2,2,0,0,0-.9-.44c-2.07.42-4,.78-5.34,2.37a12.83,12.83,0,0,1,8.48-.67A2.68,2.68,0,0,0,52.32,115.49Z"/><path class="cls-7" d="M44.34,84.12c-8.4,2.76-17.43,4.16-25.26,1.2C26.45,91.35,39,90.79,44.34,84.12Z"/><path class="cls-7" d="M77.49,84.77H55.18C61.83,90.62,70.55,88.84,77.49,84.77Z"/><path class="cls-7" d="M43.83,65.11c-.08-1.1-.26-2.05-.69-2.05-7-2.09-21.7-4.82-23.72,3.25C27.14,62.51,35.47,63.11,43.83,65.11Z"/><path class="cls-8" d="M79.43,46.28c-.3-3.45-.63-6.79-2.17-9.8-13.52-6.36-26.7-13.23-42.35-7.11-3.74,1.5-6.74,6.74-11.23,9-.93.42-1.92.81-3,1.2-.43.63-.84,1.26-1.22,1.92C16.64,45.74,17.67,53.19,17.68,58c0,5.88.08,11.76.24,17.63.09,3.11.16,6.24.29,9.36.07,1.69.16,3.37.29,5.05.29,3.69,2.21,6.92,4,10.11a119.91,119.91,0,0,0,9.34,14.76c8.65,8.06,22,10.09,32.68,5.55,1.38-1.4,2.67-2.86,3.86-4.23a37.58,37.58,0,0,0,7.22-13,88.69,88.69,0,0,0,4.15-19.93q.38-4,.46-7.94A274.23,274.23,0,0,0,79.43,46.28ZM43.14,63.06c.42,0,.61,1,.69,2.05-8.36-2-16.69-2.6-24.4,1.19C21.45,58.24,36.18,61,43.14,63.06ZM39,75.59a16,16,0,0,1-14.48,1C29,73.35,34.39,73.57,39,75.59ZM19.08,85.32c7.84,3,16.86,1.56,25.26-1.2C39,90.79,26.45,91.35,19.08,85.32Zm35.2,5.53a10.4,10.4,0,0,1-3.65,2.9c-3.39,1.36-5.55-1.58-6.48-4.38C47.34,90.89,50.89,90.95,54.28,90.85Zm-2,5.22c-1.12.25-2.24,1.05-3.36.85-.56-.61-2.05-.51-2.58-1.13A10.88,10.88,0,0,1,52.28,96.08Zm-6.21,21.33c1.31-1.58,3.26-1.94,5.34-2.37a2,2,0,0,1,.9.44,2.68,2.68,0,0,1,2.24,1.25A12.83,12.83,0,0,0,46.08,117.41Zm1.12-8.57c1.92.67,4.3,1.69,6.3.07C51.87,110.92,48.63,112,47.2,108.84Zm2.69-3.1a8.83,8.83,0,0,1-5.41-3H56.73C54.82,104.36,52.94,106.12,49.88,105.74Zm5.29-21H77.49C70.55,88.84,61.83,90.62,55.18,84.77Zm3.16-10.25c4.56-1.42,9.93-3.2,14.42-.29C68.29,76.14,63.12,75.63,58.34,74.52Zm-4.25-9a3.62,3.62,0,0,1,1.79-3.23c6.19-2.06,18-4.12,22.26,1.35C69.9,62.39,61.7,62.44,54.08,65.55Z"/><path class="cls-7" d="M24.52,76.63a16,16,0,0,0,14.48-1C34.39,73.57,29,73.35,24.52,76.63Z"/><path class="cls-7" d="M72.76,74.23c-4.49-2.91-9.85-1.12-14.42.29C63.12,75.63,68.29,76.14,72.76,74.23Z"/><path class="cls-7" d="M55.87,62.31a3.62,3.62,0,0,0-1.79,3.23c7.61-3.1,15.82-3.15,24.05-1.88C73.91,58.2,62.06,60.25,55.87,62.31Z"/><path class="cls-7" d="M31.84,114.91a52.3,52.3,0,0,0,9,9.31c2.49,2,5.28,2.39,8.42,2.55,2.75.14,6.34.47,8.8-1a33.13,33.13,0,0,0,6.46-5.32C53.84,125,40.49,123,31.84,114.91Z"/><path class="cls-7" d="M52.28,96.08a10.88,10.88,0,0,0-5.95-.28c.53.62,2,.53,2.58,1.13C50,97.13,51.16,96.32,52.28,96.08Z"/><path class="cls-7" d="M47.2,108.84c1.43,3.2,4.68,2.08,6.3.07C51.5,110.53,49.11,109.51,47.2,108.84Z"/><path class="cls-9" d="M54.91,103c-1.72.74-3.45,1.73-5.26,1.73-1.33,0-2.44-.89-3.63-1.37a12.86,12.86,0,0,0-1.31-.45h0A32.15,32.15,0,0,0,54.91,103Z"/><polygon class="cls-10" points="54.91 103.01 54.91 103.01 54.91 103.01 54.91 103.01"/><path class="cls-11" d="M42.84,102.53a13.93,13.93,0,0,1,1.87.39h0a32.15,32.15,0,0,0,10.19.09l.69-.28A55.3,55.3,0,0,0,42.84,102.53Z"/><path class="cls-10" d="M41.29,101.06a17.21,17.21,0,0,0-2.64,1.43,16.89,16.89,0,0,1,4.19,0,55.3,55.3,0,0,1,12.76.2,9.63,9.63,0,0,1,1-.32,22.39,22.39,0,0,1,4.38-.67C54.72,99.52,48,100.38,41.29,101.06Z"/><path class="cls-11" d="M61,101.74l.4,0C57.75,99,52.9,99.6,48.66,99.63a18.28,18.28,0,0,0-7.37,1.43C48,100.38,54.72,99.52,61,101.74Z"/><path class="cls-12" d="M19.5,41.48C28.27,26.27,49.67,20,65.58,26.9A25.73,25.73,0,0,1,76,34.46C78.66,38,79.06,42,79.43,46.28a274.23,274.23,0,0,1,.78,29.11,92.87,92.87,0,0,1-4.62,27.87,37.59,37.59,0,0,1-7.22,13c-2.91,3.37-6.44,7.25-10.31,9.56-2.45,1.46-6,1.13-8.8,1-3.14-.16-5.94-.59-8.42-2.55-8-6.33-13.43-15.25-18.34-24.07-1.77-3.18-3.7-6.42-4-10.11-.38-4.79-.45-9.61-.59-14.41-.16-5.88-.23-11.75-.24-17.63C17.67,53.19,16.64,45.74,19.5,41.48Z"/><path class="cls-6" d="M63.07,102.06c-.55-.37-1.19-.82-1.84-1.23a8.69,8.69,0,0,0-2.06-1,13.8,13.8,0,0,0-3.56-.7,72.29,72.29,0,0,0-7.92.22,16.84,16.84,0,0,0-8.4,2.74l-.64.44.67-.39a17.8,17.8,0,0,1,1.88-.9A17.51,17.51,0,0,1,47.72,100c2.57.07,5.38-.06,7.78.24a13.4,13.4,0,0,1,3.22.78c.65.25.41.19.45.2h-.08l-.78.13c-.53.1-1.09.23-1.67.38a11.65,11.65,0,0,0-1.78.64c-1.16.52-2.28,1.16-3.47,1.57a6,6,0,0,1-1.79.36,4,4,0,0,1-1.71-.42,13.8,13.8,0,0,0-6.44-1.63,17.67,17.67,0,0,0-2.05.1l-.75.1.76,0a17.87,17.87,0,0,1,2,0,13.55,13.55,0,0,1,6.17,2,4.72,4.72,0,0,0,2,.61,6.74,6.74,0,0,0,2.07-.28c1.32-.38,2.51-1,3.63-1.4a10.87,10.87,0,0,1,1.63-.51c.55-.12,1.08-.22,1.59-.3l.74-.1.65-.07.72-.06,2.79-.12Z"/><path class="cls-6" d="M50.5,109.24a6.92,6.92,0,0,1-4.15-1.11,6.33,6.33,0,0,0,1.45,1.19,5.35,5.35,0,0,0,2.71.82,5.52,5.52,0,0,0,2.68-.92A7.34,7.34,0,0,0,54.63,108a8.32,8.32,0,0,1-1.64.8A7.31,7.31,0,0,1,50.5,109.24Z"/><path class="cls-6" d="M49.47,96.21A9.78,9.78,0,0,1,47.39,96,7,7,0,0,1,46,95.61a6,6,0,0,0,1.27.86,5.46,5.46,0,0,0,2.2.64,5.36,5.36,0,0,0,2.23-.54A6.8,6.8,0,0,0,52.6,96l.37-.26-.43.14a8,8,0,0,1-1,.25A9.36,9.36,0,0,1,49.47,96.21Z"/><path class="cls-6" d="M36.45,103.23a3.68,3.68,0,0,1,0-2A3.31,3.31,0,0,0,36,102a2.55,2.55,0,0,0-.19,1.4,2.3,2.3,0,0,0,.78,1.19,3.06,3.06,0,0,0,.55.35l.24.12-.18-.2a3.44,3.44,0,0,1-.36-.49A3.17,3.17,0,0,1,36.45,103.23Z"/><path class="cls-6" d="M50.92,114.79a6.59,6.59,0,0,0-3.53,1.37A14.07,14.07,0,0,0,46,117.29l-.54.52.62-.41a16,16,0,0,1,1.51-.85,7.58,7.58,0,0,1,3.31-.85,5.52,5.52,0,0,1,3.21,1,10.63,10.63,0,0,1,1.35,1.07l.54.52-.43-.61a9.88,9.88,0,0,0-1.18-1.33,6,6,0,0,0-1.79-1.16,5.12,5.12,0,0,0-.94-.28A6.21,6.21,0,0,0,50.92,114.79Z"/><path class="cls-3" d="M35.81,61.72a7.07,7.07,0,0,0-6.17-2.38c-2.07.3-3.73,2.17-4.9,4A11.44,11.44,0,0,1,35.81,61.72Z"/><path class="cls-5" d="M37.62,64.09a13.08,13.08,0,0,0-1.81-2.37,11.44,11.44,0,0,0-11.07,1.66,21.41,21.41,0,0,0-1.32,2.48A23.36,23.36,0,0,1,37.62,64.09Z"/><path class="cls-4" d="M23.42,65.86c-.44,1-.67,1.65-.67,1.65s10.09-6.08,15.4-2.45c0,0-.18-.4-.53-1A23.36,23.36,0,0,0,23.42,65.86Z"/><path class="cls-5" d="M73.78,63.21a12.16,12.16,0,0,0-.72-1c-4-2-8.07-3.07-12.21-2.06a11.78,11.78,0,0,0-2.69,2.4A27.94,27.94,0,0,1,73.78,63.21Z"/><path class="cls-4" d="M58.15,62.53a9.27,9.27,0,0,0-.77,1.06s10.14-3.75,17.61,2a12.19,12.19,0,0,0-1.21-2.42A27.94,27.94,0,0,0,58.15,62.53Z"/><path class="cls-3" d="M73.06,62.19a8.88,8.88,0,0,0-6.61-3.57,9.36,9.36,0,0,0-5.6,1.51C65,59.11,69.11,60.23,73.06,62.19Z"/><path class="cls-6" d="M23.51,64.64c-.17.32-.35.7-.55,1.15l-.15.36-.29.73c-.19.5-.37,1-.55,1.58.66-.4,1.32-.79,2-1.16.4-.22.71-.39,1.1-.58.74-.38,1.53-.74,2.35-1.09a21.86,21.86,0,0,1,5-1.46,9.08,9.08,0,0,1,4.14.2,4.66,4.66,0,0,1,1.16.48l.41.21-.4-.23a4.7,4.7,0,0,0-1.14-.55,8.41,8.41,0,0,0-1.85-.45l-1.14-.06c-.4,0-.8,0-1.23.06A21.75,21.75,0,0,0,27.18,65c-.85.31-1.68.64-2.45,1-.37.17-.79.37-1.09.51h-.07l0-.05v0l.15-.34c.2-.43.37-.79.54-1.1a15.1,15.1,0,0,1,2.78-4,5.08,5.08,0,0,1,2.55-1.43,6.34,6.34,0,0,1,3,.23,9.38,9.38,0,0,1,4.21,3.24,12.49,12.49,0,0,1,1.26,1.95A12.31,12.31,0,0,0,37,63a9.57,9.57,0,0,0-4.17-3.58A6.81,6.81,0,0,0,29.55,59a5.69,5.69,0,0,0-3,1.47A14.3,14.3,0,0,0,23.51,64.64Z"/><path class="cls-6" d="M59,62.27a10.67,10.67,0,0,1,4.23-2.85,9.43,9.43,0,0,1,3.19-.5,8.94,8.94,0,0,1,3.22.72,10.3,10.3,0,0,1,4.23,3.79A11.42,11.42,0,0,1,75,65.63a11.3,11.3,0,0,0-1-2.26,10.49,10.49,0,0,0-4.15-4.12,9.37,9.37,0,0,0-3.39-.93,9.94,9.94,0,0,0-3.45.4,10.77,10.77,0,0,0-4.65,3L58,62l-.16.18-.3.37a19.41,19.41,0,0,0-1.2,1.87L57.57,64c.4-.14.8-.28,1.19-.37s.81-.21,1.24-.32a25.15,25.15,0,0,1,2.79-.46,20.38,20.38,0,0,1,5.91.16,16.07,16.07,0,0,1,4.58,1.58c.56.28,1,.59,1.26.77l.46.29-.44-.32c-.29-.19-.68-.53-1.22-.85a16.11,16.11,0,0,0-4.56-1.85,20.4,20.4,0,0,0-6-.46,24.42,24.42,0,0,0-2.89.36c-.45.09-.89.18-1.29.28h0l0,0Z"/><path class="cls-7" d="M45.39,90.76c-1.17-1.17-1.41-2.35-.75-3.52A1.67,1.67,0,0,0,43.37,90c.84,1.17,3,2.08,4.3,2.45a6.37,6.37,0,0,0,7.08-2.4,3,3,0,0,0,.25-.41,11.09,11.09,0,0,1-2.87,1.83A7.28,7.28,0,0,1,45.39,90.76Z"/><path class="cls-7" d="M45.72,67.12c.06.67.11,1.46.16,2.32a6.2,6.2,0,0,1,5.9-1c0-.58.08-1.16.13-1.73A17.2,17.2,0,0,0,45.72,67.12Z"/><path class="cls-7" d="M51.38,88.61a4.59,4.59,0,0,1,3.57-1.09,1.94,1.94,0,0,0-2.72-.25,141.26,141.26,0,0,1-.53-17.1C50.83,76.42,51.34,82.26,51.38,88.61Z"/><path class="cls-8" d="M54.95,87.52a4.59,4.59,0,0,0-3.57,1.09c0-6.35-.55-12.19.31-18.44,0-.58,0-1.16.08-1.73a6.2,6.2,0,0,0-5.9,1c.29,5.48.34,14.26.14,18.08a2.63,2.63,0,0,0-1.37-.28c-.67,1.17-.43,2.35.75,3.52a7.28,7.28,0,0,0,6.74.75A11.09,11.09,0,0,0,55,89.69,2.06,2.06,0,0,0,54.95,87.52Z"/><path class="cls-6" d="M52.1,91.75a6.06,6.06,0,0,1-3.76.47A11,11,0,0,1,46,91.46a7,7,0,0,1-2.17-1.4A2.09,2.09,0,0,1,43.31,89a1.15,1.15,0,0,1,.37-1,1.78,1.78,0,0,1,1.15-.42,1.82,1.82,0,0,1,.33,0l.16,0,.08,0,.16,0,.6.22.15.05a.86.86,0,0,0,0-.15v-.32l0-1V84.21l0-3c-.05-3.94-.19-7.6-.34-10.27s-.35-4.35-.35-4.35.15,1.68.21,4.35.09,6.33,0,10.27l-.07,3-.05,1.51,0,.76,0,.53c0,.12-.07,0-.14,0l-.13,0-.21,0a2.6,2.6,0,0,0-2,.52,1.87,1.87,0,0,0-.63,1.63,2.8,2.8,0,0,0,.72,1.48,7.64,7.64,0,0,0,2.4,1.63,11.55,11.55,0,0,0,2.48.86,6.81,6.81,0,0,0,4.31-.5,6.66,6.66,0,0,0,1.66-1.14,5.23,5.23,0,0,0,1.41-2,2.53,2.53,0,0,0,0-1.46,2.08,2.08,0,0,0-1-1.25,2.2,2.2,0,0,0-1.6-.21,2.13,2.13,0,0,0-.38.11l-.07,0s0,0,0,0l-.23-2.7-.22-3c-.13-2-.23-4-.27-6a84.19,84.19,0,0,1,.35-10.24c.13-1.33.28-2.41.39-3.16l.18-1.16-.22,1.16c-.14.74-.32,1.82-.49,3.15a82.48,82.48,0,0,0-.66,10.26c0,2,0,4,.1,6l.14,3,.2,3.11,0,.66c0,.18.12,0,.2,0l.29-.14.29-.14.15-.07.12,0a1.43,1.43,0,0,1,.28-.08,1.4,1.4,0,0,1,1,.14,1.44,1.44,0,0,1,.51,1.74,4.53,4.53,0,0,1-1.2,1.6A6,6,0,0,1,52.1,91.75Z"/><path class="cls-4" d="M78.43,40.81c-3.11-3.35-4.81-8.2-6.4-12.51C72,31.17,72.73,37.36,78.43,40.81Z"/><path class="cls-5" d="M72.11,26.75A13,13,0,0,0,72,28.3c1.58,4.31,3.29,9.16,6.4,12.51a15.48,15.48,0,0,0,4,1.67Z"/><path class="cls-6" d="M74.61,36.39a7.82,7.82,0,0,1-.57-1,11.56,11.56,0,0,1-.63-1.32,16.82,16.82,0,0,1-1-3.2A20.29,20.29,0,0,1,72.1,28c0-.76,0-1.24,0-1.24S72,27.23,72,28a19.21,19.21,0,0,0,0,3,15.78,15.78,0,0,0,.71,3.4,10.44,10.44,0,0,0,.57,1.44,6.35,6.35,0,0,0,.58,1.07A11.28,11.28,0,0,0,75.59,39c.43.36.86.77,1.34,1.11l1.49.93a15.64,15.64,0,0,0,2.76,1.07l1.2.34L81.22,42a16.29,16.29,0,0,1-2.58-1.33l-1.34-1c-.42-.37-.79-.79-1.17-1.16A14.66,14.66,0,0,1,74.61,36.39Z"/><path class="cls-5" d="M67.81,27.61a29.64,29.64,0,0,0,2.8-1.42L47.17,22.07A11.46,11.46,0,0,0,48,23.27C54.09,26.74,61.08,29.08,67.81,27.61Z"/><path class="cls-4" d="M48,23.27c2.15,2.83,8.6,9.32,19.83,4.35C61.08,29.08,54.09,26.74,48,23.27Z"/><path class="cls-6" d="M58,28.84l-1.46-.27c-.56-.12-1.16-.35-1.82-.54a15.75,15.75,0,0,1-3.78-2.1,16.55,16.55,0,0,1-2.75-2.57,13.12,13.12,0,0,1-1-1.28A12.71,12.71,0,0,0,48,23.44a16.28,16.28,0,0,0,2.57,2.84,15.45,15.45,0,0,0,3.78,2.45c.68.24,1.31.52,1.9.67l1.54.33a14.06,14.06,0,0,0,1.57.1,8.81,8.81,0,0,0,1,0l1-.12,1.1-.13c.37-.08.73-.19,1.1-.28a13.25,13.25,0,0,0,2.16-.67l1.93-.8c.58-.3,1.08-.6,1.52-.84l1.41-.79-1.47.67c-.45.2-1,.46-1.57.7l-2,.64a13.33,13.33,0,0,1-2.14.5c-.36.07-.72.15-1.08.2L61.33,29l-1,.06a9,9,0,0,1-.91-.05C58.86,28.91,58.35,28.91,58,28.84Z"/><path class="cls-4" d="M45.82,23.76c-4.27,4.16-10.59,6.11-16.5,6.33C32.37,31,39.76,32.08,45.82,23.76Z"/><path class="cls-11" d="M23.3,76.52a12.7,12.7,0,0,0-.47,1.33c4.83-3.44,11.92-3.27,17.27-1.41-.25-.48-.52-1-.82-1.43C34.16,73.55,28.3,73.39,23.3,76.52Z"/><path class="cls-10" d="M39.28,75c-2.05-3.2-5.3-5.81-9.42-5.09-3,.52-5.41,3.79-6.56,6.6C28.3,73.39,34.16,73.55,39.28,75Z"/><path class="cls-3" d="M33.93,70.91a4.62,4.62,0,0,0-.29-.7,7.21,7.21,0,0,0-4.79,0,5.68,5.68,0,0,0-.33.85A7.19,7.19,0,0,1,33.93,70.91Z"/><path class="cls-5" d="M28.52,71a6.54,6.54,0,0,0,.28,4.39,16,16,0,0,1,5.14-.22,8.54,8.54,0,0,0,0-4.31A7.19,7.19,0,0,0,28.52,71Z"/><path class="cls-5" d="M27.88,29.56a10.21,10.21,0,0,0,1.43.53c5.91-.22,12.23-2.17,16.5-6.33.3-.42.61-.85.9-1.32Z"/><path class="cls-6" d="M38.46,29.29l-1.15.43c-.45.16-1,.26-1.52.42a14.55,14.55,0,0,1-3.57.29A14.23,14.23,0,0,1,29.15,30a10.72,10.72,0,0,1-1.27-.41,10.32,10.32,0,0,0,1.23.54,14.41,14.41,0,0,0,6.82.78c.58-.12,1.15-.2,1.64-.34l1.24-.42A10.54,10.54,0,0,0,40,29.54c.22-.12.46-.24.7-.39l.7-.51a9.52,9.52,0,0,0,1.43-1.18,12.67,12.67,0,0,0,1.31-1.34l1.1-1.35c.32-.43.56-.86.79-1.2l.72-1.13-.83,1c-.26.32-.54.71-.89,1.11l-1.2,1.21A12.92,12.92,0,0,1,42.41,27,9.58,9.58,0,0,1,41,28l-.7.44c-.23.12-.47.22-.68.33C39.14,29,38.78,29.18,38.46,29.29Z"/><path class="cls-4" d="M26.92,32.91c-2.08,5-6.31,8.46-10.68,12.24C18.54,44.32,25.76,41.11,26.92,32.91Z"/><path class="cls-5" d="M26.92,32.91A16.9,16.9,0,0,0,27,29.56L15.56,45.38c.06,0,.31-.09.68-.23C20.61,41.36,24.84,37.86,26.92,32.91Z"/><path class="cls-6" d="M32.24,74.68a18.82,18.82,0,0,0-5.54.87,16.78,16.78,0,0,0-1.62.65,7.61,7.61,0,0,0-.8.4c-.23.13-.62.34-.61.35l-.27.2s0,0,0,0l0-.07,0-.15.05-.17.14-.36c.1-.27.23-.53.34-.79A12.1,12.1,0,0,1,27.58,71a6.59,6.59,0,0,1,1.63-.86l.66-.18-.67.15a6.64,6.64,0,0,0-1.69.78,12.26,12.26,0,0,0-3.93,4.54c-.13.26-.27.52-.39.79l-.2.44-.23.64c-.08.22-.16.44-.23.67l-.11.34-.06.17s.08,0,.12-.05l1.19-.72a10.26,10.26,0,0,1,.93-.5,7.19,7.19,0,0,1,.78-.35c.52-.23,1.05-.38,1.57-.55a20.32,20.32,0,0,1,5.32-.7,25,25,0,0,1,5.37.54c.27,0,.54.12.81.19l.41.1.11,0,.19.06.36.11.71.21.35.11.17.05h0l0,0,0-.08L40,75.55l-.31-.49c-.08-.13-.16-.25-.25-.37s-.34-.49-.53-.73a12.78,12.78,0,0,0-1.18-1.33,10.75,10.75,0,0,0-2.67-2,8.44,8.44,0,0,0-2.61-.83,8.35,8.35,0,0,0-1.87,0l-.68.1.68-.06a8.33,8.33,0,0,1,1.84.11,9.2,9.2,0,0,1,5,3,12.46,12.46,0,0,1,1.08,1.34c.17.23.32.48.48.72s.16.24.23.37l.15.27c0,.08.07.15.1.21s-.15-.05-.2-.07l0,0h0l-.1,0-.42-.12c-.28-.08-.55-.16-.83-.22A22.38,22.38,0,0,0,32.24,74.68Z"/><g class="cls-13"><path class="cls-14" d="M43.72,65.34V61.61H19v5.47C26.6,63.18,35.4,63.44,43.72,65.34Z"/></g><g class="cls-13"><path class="cls-15" d="M43.72,67.49V65.34C35.4,63.44,26.6,63.18,19,67.08v3.11C26.71,66.85,35.85,64.95,43.72,67.49Z"/></g><g class="cls-13"><path class="cls-16" d="M19,70.19V85.77H43.72V67.49C35.85,64.95,26.71,66.85,19,70.19Z"/></g><path class="cls-10" d="M73.54,73.74c-1.92-2.67-4.79-4.79-8.12-5s-6,2.39-7.83,5A30.28,30.28,0,0,1,73.54,73.74Z"/><path class="cls-11" d="M57.59,73.74c-.36.49-.68,1-1,1.45,5.64-1.84,12.57-2.35,18,.32a14.82,14.82,0,0,0-1.09-1.77A30.28,30.28,0,0,0,57.59,73.74Z"/><path class="cls-3" d="M68.55,70.64A5.08,5.08,0,0,0,68,69.31a7.46,7.46,0,0,0-4.79-.23,4.89,4.89,0,0,0-.6,1.23C64.47,69.76,66.68,69.4,68.55,70.64Z"/><path class="cls-5" d="M62.61,70.31a4.51,4.51,0,0,0,.23,3.51,20.7,20.7,0,0,1,5.59,0,5.72,5.72,0,0,0,.12-3.18C66.68,69.4,64.47,69.76,62.61,70.31Z"/><path class="cls-6" d="M65.95,73.2a26.42,26.42,0,0,0-5.5.6c-.55.11-1.1.25-1.66.4l-.84.24-.21.06-.07,0-.13.05c-.32.17-.13-.07,0-.31l.19-.28.24-.35.51-.68A11.55,11.55,0,0,1,63,69.25a6.4,6.4,0,0,1,1.77-.45l.68,0h-.68a6.45,6.45,0,0,0-1.82.36,11.72,11.72,0,0,0-4.78,3.55l-.56.67-.27.35c-.09.11-.17.22-.31.43-.33.57-1.69,2.05-.14,1.3l.69-.2.35-.1.21-.05.83-.2c.56-.12,1.1-.24,1.64-.32a30.61,30.61,0,0,1,5.36-.45,23.74,23.74,0,0,1,5.32.57c.52.14,1.06.26,1.59.46l.4.14c.23.07.48.19.69.27l1.3.53.08,0,0-.08-.09-.16L75,75.56l-.36-.62-.36-.58-.17-.28L74,73.9a13.82,13.82,0,0,0-1.11-1.37,11.61,11.61,0,0,0-5-3.32,8.88,8.88,0,0,0-1.81-.39l-.68,0,.68.09a8.87,8.87,0,0,1,1.77.49,11.43,11.43,0,0,1,4.66,3.48,13.55,13.55,0,0,1,1,1.38l.12.18,0,.09.09.16c0,.09.1.19.08.21l-.26-.14-.11-.05-.41-.16c-.54-.23-1.1-.38-1.64-.55A21.42,21.42,0,0,0,65.95,73.2Z"/><g class="cls-13"><path class="cls-14" d="M79.29,63.4V60.86H54.61v5.37C61.79,63.13,71,62.25,79.29,63.4Z"/></g><g class="cls-13"><path class="cls-15" d="M79.29,65V63.4c-8.3-1.15-17.5-.27-24.68,2.84v2.08C62.08,64.38,70.73,64.43,79.29,65Z"/></g><g class="cls-13"><path class="cls-16" d="M54.61,68.31V85H79.29V65C70.73,64.43,62.08,64.38,54.61,68.31Z"/></g><path class="cls-6" d="M23.8,39.22a18.38,18.38,0,0,1-4.45,4.19,21,21,0,0,1-2.61,1.46c-.71.33-1.18.49-1.18.49s.49-.11,1.23-.36a19.89,19.89,0,0,0,2.79-1.21,16.88,16.88,0,0,0,3-2,10,10,0,0,0,1.16-1.09,6.55,6.55,0,0,0,.81-.95c.2-.28.46-.61.71-1L26,37.32l.61-1.68L27,33.88a16.22,16.22,0,0,0,.14-3L27,29.56,27,30.84a16.87,16.87,0,0,1-.44,3L26,35.45,25.29,37l-.79,1.29C24.25,38.66,24,39,23.8,39.22Z"/><path class="cls-17" d="M44.16,61.31c-1.07-.9-2.91-1-4.19-1.05a76.61,76.61,0,0,0-10.65.13c-2.08.13-4.16.3-6.23.57-1.55.2-3.94.21-5.13,1.4a2.63,2.63,0,0,0-.5.75C26.1,60.64,35.11,60.8,44.16,61.31Z"/><path class="cls-17" d="M80.46,61.57c-1.21-3.25-7.23-2.21-16.08-1.95-2,.06-4,.23-6,.41a10.12,10.12,0,0,0-3.92.76,2.91,2.91,0,0,0-1.32,1.46C62,60.2,71.53,59.29,80.46,61.57Z"/><path class="cls-18" d="M53.11,83.67A3.79,3.79,0,0,0,53.83,85c1,1.12,3.06,1.16,4.44,1.27a76.61,76.61,0,0,0,10.65-.13c2.08-.13,4.16-.3,6.23-.57,1.55-.2,3.94-.21,5.13-1.4a2.4,2.4,0,0,0,.34-.45C71.35,85.52,61.55,86.88,53.11,83.67Z"/><path class="cls-18" d="M46.43,67.71a8.76,8.76,0,0,1,5.29-.63A3.63,3.63,0,0,0,46.43,67.71Z"/><path class="cls-19" d="M81.3,76.49a84.08,84.08,0,0,0-.66-14.23,3.42,3.42,0,0,0-.18-.69c-8.93-2.29-18.51-1.37-27.37.69A6,6,0,0,0,52.72,64c0,.35-.07.71-.1,1.08v.09a8.34,8.34,0,0,0-1.09-.3c-1.68.89-3.36.54-5,.49-.32.12-.6.25-.84.37-.12-1.62-.41-3.26-1.23-4.16a2.41,2.41,0,0,0-.25-.22c-9.06-.51-18.06-.67-26.69,1.79C16.59,65,17,68.37,16.94,70a84.08,84.08,0,0,0,.66,14.23,3.16,3.16,0,0,0,.31,1c9,2.17,18.05,1.15,27.08-.65a7.82,7.82,0,0,0,.63-3.08,73.27,73.27,0,0,0,.17-12.39c0-.32,0-.68,0-1.07l.69-.32a3.63,3.63,0,0,1,5.29-.63,6.09,6.09,0,0,1,.72.21,72.86,72.86,0,0,0,0,10.14c.12,1.61,0,4.36.66,6.24,8.45,3.21,18.24,1.85,27.5,0C81.69,81.94,81.26,78.25,81.3,76.49ZM43.19,80.16c-.14,1.39-.1,2.73-1.49,3.51a8.39,8.39,0,0,1-3.25.63c-1.67.16-3.34.29-5,.34-7.81.23-13,1.2-13.48-2.18a69.7,69.7,0,0,1-.55-11.8c0-1.59-.4-5.11.86-6.37,1-1,3-1,4.25-1.16,1.71-.22,3.44-.36,5.16-.47a63.51,63.51,0,0,1,8.83-.11c1.14.09,2.84.12,3.68,1.05,1.2,1.33,1,4.57,1.14,6.28A60.74,60.74,0,0,1,43.19,80.16ZM78,82.23c-1,1-3,1-4.25,1.16-1.71.22-3.44.36-5.16.47a63.51,63.51,0,0,1-8.83.11c-1.14-.09-2.84-.12-3.68-1.05-1.2-1.33-1-4.57-1.14-6.28A60.74,60.74,0,0,1,55,66.36c.14-1.39.1-2.73,1.49-3.51a8.39,8.39,0,0,1,3.25-.63c1.67-.16,3.34-.29,5-.34,7.81-.23,13-1.2,13.48,2.18a69.7,69.7,0,0,1,.55,11.8C78.79,77.45,79.23,81,78,82.23Z"/><path class="cls-17" d="M51.52,64.83a8.93,8.93,0,0,0-5,.49C48.16,65.36,49.84,65.72,51.52,64.83Z"/><path class="cls-18" d="M17.91,85.22c1.45,2.91,7.36,1.93,16,1.68,2-.06,4-.23,6-.41a10.12,10.12,0,0,0,3.92-.76A2.92,2.92,0,0,0,45,84.57C36,86.37,26.94,87.39,17.91,85.22Z"/><path class="cls-20" d="M81.3,76.49a84.08,84.08,0,0,0-.66-14.23c-.62-4.08-6.84-2.91-16.26-2.63-2,.06-4,.23-6,.41a10.12,10.12,0,0,0-3.92.76c-1.67.93-1.64,2.55-1.8,4.23v.09a9,9,0,0,0-7,.56c-.12-1.62-.41-3.26-1.23-4.16-1-1.12-3.06-1.16-4.44-1.27a76.61,76.61,0,0,0-10.65.13c-2.08.13-4.16.3-6.23.57-1.55.2-3.94.21-5.13,1.4-1.51,1.52-1,5.76-1,7.68a84.08,84.08,0,0,0,.66,14.23c.62,4.08,6.84,2.91,16.26,2.63,2-.06,4-.23,6-.41a10.12,10.12,0,0,0,3.92-.76c1.67-.93,1.64-2.55,1.8-4.23a73.27,73.27,0,0,0,.17-12.39c0-.32,0-.68,0-1.07,1.33-.66,4.08-1.71,6.7-.74a72.86,72.86,0,0,0,0,10.14c.15,2.06-.07,6,1.38,7.57,1,1.12,3.06,1.16,4.44,1.27a76.61,76.61,0,0,0,10.65-.13c2.08-.13,4.16-.3,6.23-.57,1.55-.2,3.94-.21,5.13-1.4C81.78,82.65,81.25,78.41,81.3,76.49ZM43.19,80.16c-.14,1.39-.1,2.73-1.49,3.51a8.39,8.39,0,0,1-3.25.63c-1.67.16-3.34.29-5,.34-7.81.23-13,1.2-13.48-2.18a69.7,69.7,0,0,1-.55-11.8c0-1.59-.4-5.11.86-6.37,1-1,3-1,4.25-1.16,1.71-.22,3.44-.36,5.16-.47a63.51,63.51,0,0,1,8.83-.11c1.14.09,2.84.12,3.68,1.05,1.2,1.33,1,4.57,1.14,6.28A60.74,60.74,0,0,1,43.19,80.16ZM78,82.23c-1,1-3,1-4.25,1.16-1.71.22-3.44.36-5.16.47a63.51,63.51,0,0,1-8.83.11c-1.14-.09-2.84-.12-3.68-1.05-1.2-1.33-1-4.57-1.14-6.28A60.74,60.74,0,0,1,55,66.36c.14-1.39.1-2.73,1.49-3.51a8.39,8.39,0,0,1,3.25-.63c1.67-.16,3.34-.29,5-.34,7.81-.23,13-1.2,13.48,2.18a69.7,69.7,0,0,1,.55,11.8C78.79,77.45,79.23,81,78,82.23Z"/><path class="cls-6" d="M49.81,103.16c-.64,0-1.91,0-3-.08s-2.07-.16-2.07-.16.94.22,2.05.39a26.11,26.11,0,0,0,3,.3,21,21,0,0,0,3.05-.21,19.37,19.37,0,0,0,2.05-.4s-1,.13-2.07.17S50.45,103.18,49.81,103.16Z"/><path class="cls-21" d="M89.7,65.15A4,4,0,0,0,88.63,63a3.15,3.15,0,0,0-.53-.38,3.11,3.11,0,0,0-.61-.22,2.61,2.61,0,0,0-.63-.07,2.12,2.12,0,0,0-.62,0l-.3.06c0-.09,0-.17,0-.26a30.51,30.51,0,0,1,1.56-8.13c.4-1.4.85-2.77,1.22-4.27A12.89,12.89,0,0,0,89,45.13a16.52,16.52,0,0,0-1.39-4.52l-1-2.12a10,10,0,0,1-.68-2.1,56.83,56.83,0,0,1-.67-9.23c-.05-1.57-.12-3.14-.27-4.71-.08-.79-.16-1.56-.31-2.36A11.21,11.21,0,0,0,84,17.73a10.07,10.07,0,0,0-2.9-4,9.51,9.51,0,0,0-4.42-2,8.8,8.8,0,0,0-2.43,0c-.87.16-1.45.33-2.12.44a12.14,12.14,0,0,1-3.88,0A7.78,7.78,0,0,1,64.94,11,9.06,9.06,0,0,1,63.8,9.69c-.39-.49-.79-1-1.21-1.48a14.43,14.43,0,0,0-5.89-4.39,13.84,13.84,0,0,0-6.18-.76,24.44,24.44,0,0,0-6.65,1.59A32.57,32.57,0,0,0,40.27,6.3c-.61.33-1.23.68-1.84,1.06-.31.19-.62.39-.93.59L37,8.27l-.15.1h-.13l-.52,0c-.34,0-.68,0-1,0a18.38,18.38,0,0,0-2,.26,26.25,26.25,0,0,0-3.95,1.08,38.47,38.47,0,0,0-3.9,1.62,20.43,20.43,0,0,0-2,1.09c-.32.21-.6.46-.91.68a8.12,8.12,0,0,0-.87.73,26.34,26.34,0,0,0-5.34,7.36,44.33,44.33,0,0,0-1.89,4.2q-.42,1.07-.79,2.17l-.36,1.1-.17.56-.08.27-.16.09-.4.26c-.26.18-.51.36-.75.56a12.86,12.86,0,0,0-1.33,1.28,14.8,14.8,0,0,0-2.07,3,21.8,21.8,0,0,0-2.19,6.71,36.25,36.25,0,0,0-.57,6.79,28.86,28.86,0,0,0,.21,3.31c.06.54.15,1.08.25,1.61.05.27.1.53.17.79l.07.29.07.23L6,54.65c-.13.11-.33.26-.48.41a6.77,6.77,0,0,0-.87,1,7.6,7.6,0,0,0-1.14,2.21A11.66,11.66,0,0,0,3,62.81a6.66,6.66,0,0,0,.22,1.1,6.14,6.14,0,0,0,.44,1,5.67,5.67,0,0,0,1.34,1.63,7.49,7.49,0,0,0,1.68,1.1c.18.09.36.16.55.23l-.09.54a17.19,17.19,0,0,0-.13,1.85,20.75,20.75,0,0,0,.19,3A30.64,30.64,0,0,0,9,79.81a30.91,30.91,0,0,0,2.86,5.8,14.72,14.72,0,0,1-.29,2.81A10.11,10.11,0,0,1,11.11,90a5.17,5.17,0,0,1-.83,1.44c-.34.46-.71.93-1,1.43a4.11,4.11,0,0,0-.74,1.75,2.14,2.14,0,0,0,.74,1.84,3,3,0,0,0,.81.59l.51.14a2.55,2.55,0,0,0,.53,0,3.28,3.28,0,0,0,1.74-.86A8.26,8.26,0,0,0,14,95c.25-.37.47-.74.68-1.12a22.48,22.48,0,0,1-1.07,6.6,9.35,9.35,0,0,1-1.78,3.12,13.61,13.61,0,0,1-2.42,1.86A15.93,15.93,0,0,0,7,107.33a4.58,4.58,0,0,0-1.08,1.58,3.32,3.32,0,0,0,0,2.14,7.14,7.14,0,0,0,.48.94l.59.86.71.8c.26.25.55.48.82.73a9.28,9.28,0,0,0,4.16,1.8,13.68,13.68,0,0,0,9.25-2,17.46,17.46,0,0,1,4.2-2.12,5.81,5.81,0,0,1,2.52-.25,57.53,57.53,0,0,0,11.73,13c2.49,2,5.3,2.49,8.74,2.67l.63,0c.88,0,1.82.1,2.78.1a11.2,11.2,0,0,0,5.7-1.2c3.8-2.26,7.27-6,10.45-9.67a35.92,35.92,0,0,0,4-5.6,7.22,7.22,0,0,0,.62.61,9.38,9.38,0,0,0,3.48,1.91,8.26,8.26,0,0,0,4.8.09A9.43,9.43,0,0,0,85.95,111a13.06,13.06,0,0,0,2.59-4.44,16.86,16.86,0,0,0,.74-8.1,16.37,16.37,0,0,0-.79-3,15.59,15.59,0,0,0-.74-1.7c-.29-.58-.64-1.16-1-1.74a25.74,25.74,0,0,1-2.46-6,12.3,12.3,0,0,0,2.22-2.63,16.4,16.4,0,0,0,1.77-4.15,42.57,42.57,0,0,0,1.23-7c.08-.84.19-1.87.29-3.08A14.83,14.83,0,0,0,89.7,65.15Z"/><path class="cls-22" d="M131.86,54.47l-.72,9.3-3.23-.25.72-9.3L125.71,54l.2-2.64,9,.7-.2,2.64Z"/><path class="cls-22" d="M146.9,53,146,64.92l-3.24-.25.38-4.86-3.76-.29L139,64.38l-3.24-.25.93-11.94,3.24.25-.34,4.43,3.76.29.34-4.43Z"/><path class="cls-22" d="M155.84,63l-.2,2.63-7.09-.55.93-11.94,7.09.55-.2,2.59-3.86-.3-.15,1.88,3.57.28-.2,2.59-3.57-.28L152,62.74Z"/><path class="cls-22" d="M168.55,57.32l-.72,9.3-3.23-.25.72-9.3-2.91-.23.2-2.64,9,.7-.2,2.64Z"/><path class="cls-22" d="M176,62.88l-.34,4.35L172.44,67,173.37,55l3.91.3q4.87.38,4.6,3.91a3.53,3.53,0,0,1-2.28,3.05l3.08,5.47L179,67.49l-2.19-4.54Zm.4-5.15-.21,2.73.6,0q1.7.13,1.81-1.36.1-1.23-1.56-1.36Z"/><path class="cls-22" d="M191.6,56.45l3.23.25-.56,7.19a4.84,4.84,0,0,1-1.61,3.53,5.25,5.25,0,0,1-3.89,1,5.35,5.35,0,0,1-3.7-1.54,4.77,4.77,0,0,1-1-3.7l.56-7.26,3.24.25-.54,7a2.92,2.92,0,0,0,.33,1.87,1.73,1.73,0,0,0,1.38.69,1.68,1.68,0,0,0,1.45-.46,3.05,3.05,0,0,0,.59-1.82Z"/><path class="cls-22" d="M202.4,59.95l-.72,9.3L198.45,69l.72-9.3-2.91-.23.2-2.64,9,.7-.2,2.64Z"/><path class="cls-22" d="M217.45,58.46l-.93,11.94-3.24-.25.38-4.86L209.91,65l-.38,4.86-3.24-.25.93-11.94,3.24.25-.34,4.43,3.76.29.34-4.43Z"/><path class="cls-22" d="M114.51,72.91a4.27,4.27,0,0,1,1.23-3,4.52,4.52,0,0,1,5.76.44,5.26,5.26,0,0,1-.48,6.11,4.49,4.49,0,0,1-5.76-.46A4.29,4.29,0,0,1,114.51,72.91Zm4.06-2q-1.62-.13-1.8,2.19t1.42,2.44a1.38,1.38,0,0,0,1.26-.47,3.1,3.1,0,0,0,.53-1.72,3.13,3.13,0,0,0-.26-1.79A1.37,1.37,0,0,0,118.57,70.88Z"/><path class="cls-22" d="M125.75,74.88l-.22,2.9-2.15-.17.62-8,2.61.2q3.25.25,3.07,2.6a2.36,2.36,0,0,1-1.52,2l2.05,3.65L127.76,78l-1.46-3Zm.27-3.43-.14,1.82.4,0q1.13.09,1.21-.91.06-.82-1-.91Z"/><path class="cls-22" d="M133.45,73.16a1,1,0,0,1-.36.75,1.18,1.18,0,0,1-.86.21,1.21,1.21,0,0,1-.82-.34,1.13,1.13,0,0,1,.12-1.53,1.22,1.22,0,0,1,.87-.21,1.19,1.19,0,0,1,.82.34A1,1,0,0,1,133.45,73.16Zm-.33,4.3a1,1,0,0,1-.36.75,1.18,1.18,0,0,1-.85.21,1.22,1.22,0,0,1-.82-.34,1.13,1.13,0,0,1,.11-1.54,1.23,1.23,0,0,1,.87-.2,1.19,1.19,0,0,1,.82.34A1,1,0,0,1,133.12,77.46Z"/><path class="cls-22" d="M139.76,78.89l-2.16-.17.62-8,2.16.17Z"/><path class="cls-22" d="M148.84,76.08q.05-.69.25-2.23h0l-2,5.6-2.05-.16-1.18-5.86h0q0,1.43-.06,2.29l-.27,3.45L141.48,79l.62-8,2.87.22,1.22,5.78h0l2.07-5.52,2.87.22-.62,8-2-.15Z"/><path class="cls-22" d="M159.5,80.42l-2.35-.18-.27-1.52-2.59-.2L153.77,80l-2.36-.18L154.62,72l2.87.22Zm-4.63-3.63,1.69.13Q156,74,156,73.43,155.79,74.17,154.87,76.78Z"/><path class="cls-22" d="M163.56,77.71l.13-1.66,3.44.27-.33,4.29a9.45,9.45,0,0,1-3.11.24,3.74,3.74,0,0,1-2.76-1.29,4.24,4.24,0,0,1-.77-3.1,4.06,4.06,0,0,1,1.33-2.94,4.23,4.23,0,0,1,3.17-.83,6.33,6.33,0,0,1,2.54.7L166.38,75a4.11,4.11,0,0,0-1.81-.57A1.86,1.86,0,0,0,163,75a2.64,2.64,0,0,0-.65,1.7,2.72,2.72,0,0,0,.33,1.75,1.62,1.62,0,0,0,1.3.69,3.6,3.6,0,0,0,.88,0l.1-1.25Z"/><path class="cls-22" d="M173.24,79.72l-.14,1.75-4.72-.37.62-8,4.72.37-.13,1.73L171,75l-.1,1.25,2.38.18-.13,1.72L170.79,78l-.12,1.5Z"/><path class="cls-22" d="M177.74,77.82a4.27,4.27,0,0,1,1.23-3,4.52,4.52,0,0,1,5.76.44,4.3,4.3,0,0,1,.74,3.13q-.21,2.71-2,3.51l1.77,2.39-2.68-.21-1.27-1.88h0a3.77,3.77,0,0,1-2.79-1.28A4.29,4.29,0,0,1,177.74,77.82Zm4.06-2q-1.62-.13-1.8,2.19t1.42,2.44a1.38,1.38,0,0,0,1.26-.47,3.1,3.1,0,0,0,.53-1.72,3.13,3.13,0,0,0-.26-1.79A1.37,1.37,0,0,0,181.8,75.79Z"/><path class="cls-22" d="M191.84,74.92l2.15.17-.37,4.79a3.23,3.23,0,0,1-1.07,2.35,3.5,3.5,0,0,1-2.59.66,3.57,3.57,0,0,1-2.46-1,3.18,3.18,0,0,1-.68-2.47l.38-4.84,2.16.17L189,79.39a2,2,0,0,0,.22,1.25,1.16,1.16,0,0,0,.92.46,1.12,1.12,0,0,0,1-.31,2,2,0,0,0,.39-1.21Z"/><path class="cls-22" d="M202.17,83.73l-2.35-.18L199.54,82l-2.59-.2-.52,1.46-2.36-.18,3.21-7.79,2.87.22Zm-4.63-3.63,1.69.13q-.53-2.89-.59-3.49Q198.46,77.48,197.54,80.1Z"/><path class="cls-22" d="M208.24,84.2l-5.21-.4.62-8,2.15.17-.48,6.22,3.06.24Z"/><path class="cls-22" d="M211.68,84.47l-2.16-.17.62-8,2.16.17Z"/><path class="cls-22" d="M217.4,78.67l-.48,6.2-2.15-.17.48-6.2-1.94-.15.14-1.76,6,.47-.14,1.76Z"/><path class="cls-22" d="M223.91,85.42l-2.17-.17.24-3-2.24-5.12,2.34.18,1.13,3.06,1.6-2.84,2.33.18-3,4.65Z"/><path class="cls-22" d="M133.22,92.82l-2.16-.17.62-8,2.16.17Z"/><path class="cls-22" d="M134.75,90.62a6.17,6.17,0,0,0,1.26.6,4.68,4.68,0,0,0,1.14.26,1.33,1.33,0,0,0,.75-.1.5.5,0,0,0,.27-.41.46.46,0,0,0-.07-.29,1.19,1.19,0,0,0-.26-.26q-.17-.13-1-.58a5.49,5.49,0,0,1-1.16-.8,2.21,2.21,0,0,1-.63-1.83,2.07,2.07,0,0,1,.93-1.67,3.55,3.55,0,0,1,2.25-.45,6.2,6.2,0,0,1,2.48.77l-.79,1.61a4.8,4.8,0,0,0-1.89-.66,1.06,1.06,0,0,0-.61.09.43.43,0,0,0-.23.36.53.53,0,0,0,.21.44,8.76,8.76,0,0,0,1.24.76A3.73,3.73,0,0,1,140,89.58a2.11,2.11,0,0,1,.3,1.36,2.24,2.24,0,0,1-1,1.77,3.43,3.43,0,0,1-2.33.52,6.62,6.62,0,0,1-1.34-.22,5,5,0,0,1-1.07-.47Z"/><path class="cls-22" d="M144.41,91.36a6.17,6.17,0,0,0,1.26.6,4.68,4.68,0,0,0,1.14.26,1.33,1.33,0,0,0,.75-.1.5.5,0,0,0,.27-.41.46.46,0,0,0-.07-.29,1.19,1.19,0,0,0-.26-.26q-.17-.13-1-.58a5.49,5.49,0,0,1-1.16-.8,2.21,2.21,0,0,1-.63-1.83,2.07,2.07,0,0,1,.93-1.67,3.55,3.55,0,0,1,2.25-.45,6.2,6.2,0,0,1,2.48.77l-.79,1.61a4.8,4.8,0,0,0-1.89-.66,1.06,1.06,0,0,0-.61.09.43.43,0,0,0-.23.36.53.53,0,0,0,.21.44,8.76,8.76,0,0,0,1.24.76,3.73,3.73,0,0,1,1.37,1.12,2.11,2.11,0,0,1,.3,1.36,2.24,2.24,0,0,1-1,1.77,3.43,3.43,0,0,1-2.33.52,6.62,6.62,0,0,1-1.34-.22,5,5,0,0,1-1.07-.47Z"/><path class="cls-22" d="M156.27,86.6l2.15.17L158,91.56A3.23,3.23,0,0,1,157,93.91a3.5,3.5,0,0,1-2.59.66,3.57,3.57,0,0,1-2.46-1,3.18,3.18,0,0,1-.68-2.47l.38-4.84,2.16.17-.36,4.67a2,2,0,0,0,.22,1.25,1.16,1.16,0,0,0,.92.46,1.12,1.12,0,0,0,1-.31,2,2,0,0,0,.39-1.21Z"/><path class="cls-22" d="M159.47,94.86l.62-8,2.78.22a4.71,4.71,0,0,1,2.37.67,1.64,1.64,0,0,1,.67,1.56,1.9,1.9,0,0,1-.43,1.12,1.55,1.55,0,0,1-1,.54v.05a1.89,1.89,0,0,1,1,.73,2,2,0,0,1,.25,1.22,2,2,0,0,1-.95,1.64,3.58,3.58,0,0,1-2.27.45Zm2.65-6.17L162,90.12l.65.05a1.17,1.17,0,0,0,.73-.14.67.67,0,0,0,.29-.55q.05-.67-1-.75Zm.48,3.06-.71-.06-.13,1.68.76.06q1,.08,1.07-.77a.74.74,0,0,0-.22-.63A1.24,1.24,0,0,0,162.6,91.75Z"/><path class="cls-22" d="M165.18,96a3.92,3.92,0,0,0,.79.18.87.87,0,0,0,.78-.26,2,2,0,0,0,.32-1.08l.57-7.37,2.17.17-.56,7.18a3.69,3.69,0,0,1-.9,2.4,2.66,2.66,0,0,1-2.18.66,5.18,5.18,0,0,1-1.11-.2Z"/><path class="cls-22" d="M175.77,94.36l-.14,1.75-4.72-.37.62-8,4.72.37-.13,1.73-2.57-.2-.1,1.25,2.38.18-.13,1.72-2.38-.18-.12,1.5Z"/><path class="cls-22" d="M182.85,90.82a4.43,4.43,0,0,0-1.78-.63,1.38,1.38,0,0,0-1.25.54,3,3,0,0,0-.57,1.7q-.18,2.29,1.57,2.43a5.67,5.67,0,0,0,2.06-.34l-.14,1.81a5.5,5.5,0,0,1-2.29.27,3.57,3.57,0,0,1-2.68-1.26,4.33,4.33,0,0,1-.72-3.09,4.71,4.71,0,0,1,.62-2.13,3.39,3.39,0,0,1,1.46-1.35,3.94,3.94,0,0,1,2.09-.34,5.62,5.62,0,0,1,2.42.75Z"/><path class="cls-22" d="M188.26,90.85l-.48,6.2-2.15-.17.48-6.2-1.94-.15.14-1.76,6,.47L190.19,91Z"/><path class="cls-22" d="M193,97.46l-2.16-.17.62-8,2.16.17Z"/><path class="cls-22" d="M197.9,95.78A12.41,12.41,0,0,1,198.4,94l1.42-4,2.41.19L199,97.93l-2.53-.2-2-8.16,2.42.19.77,4.12A12.38,12.38,0,0,1,197.9,95.78Z"/><path class="cls-22" d="M207.33,96.81l-.14,1.75-4.72-.37.62-8,4.72.37-.13,1.73-2.57-.2-.1,1.25,2.38.18-.13,1.72-2.38-.18-.12,1.5Z"/></g></g></svg>