<svg xmlns="http://www.w3.org/2000/svg" viewBox="0 0 230.15 130.69"><defs><style>.cls-1{isolation:isolate}.cls-2{fill:#f3a712}.cls-3{fill:#442f1f}.cls-4{fill:#1e130a}.cls-5{fill:#302012}.cls-6{fill:#443e39}.cls-7{fill:#d3bba7}.cls-8{fill:#f9e3cf}.cls-9{fill:#6d0f0f}.cls-10{fill:#fff}.cls-11{fill:#e5e5e5}.cls-12,.cls-20{fill:none;stroke-linecap:round;stroke-linejoin:round}.cls-12{stroke:#443e39;stroke-width:1.5px}.cls-13,.cls-22{opacity:.5}.cls-14{fill:#bbdaff}.cls-15{fill:#a6c6f4}.cls-16{fill:#95b5e8}.cls-17{fill:#664018}.cls-18{fill:#3f2407}.cls-19{fill:#51310b}.cls-20{stroke:#2d1a05;stroke-width:.88px}.cls-21{fill:#ba1200}.cls-22{mix-blend-mode:multiply;fill:url(#linear-gradient)}</style><linearGradient id="linear-gradient" x1="45.18" y1="64.21" x2="81.85" y2="234.88" gradientUnits="userSpaceOnUse"><stop offset="0" stop-color="#fff"/><stop offset=".12" stop-color="#ded8d3"/><stop offset=".13" stop-color="#dbd4cf"/><stop offset=".3" stop-color="#b3a599"/><stop offset=".46" stop-color="#927d6c"/><stop offset=".62" stop-color="#785f49"/><stop offset=".76" stop-color="#65492f"/><stop offset=".89" stop-color="#5a3c20"/><stop offset="1" stop-color="#56371b"/></linearGradient></defs><title>jerry</title><g class="cls-1"><g id="Layer_1" data-name="Layer 1"><path class="cls-2" d="M229.84 76.33a3 3 0 0 0-2.46-1.66l-2.33-.18a3 3 0 0 0-1.39.22 3 3 0 0 0-.41-.19 20.85 20.85 0 0 0-3.55-6.16l.75-9.67a3 3 0 0 0-2.76-3.22l-3.24-.25a3 3 0 0 0-1.93.52 3 3 0 0 0-1.83-.81l-3.24-.25a2.7 2.7 0 0 1-1.71-.13l-9-.7a2.66 2.66 0 0 0-.56 0 100.87 100.87 0 0 0-47-3.65h-.19l-.6.11a2.94 2.94 0 0 0-1.19-.37l-3.24-.25a3 3 0 0 0-1.93.52 3 3 0 0 0-1.83-.81l-3.24-.25a3 3 0 0 0-.86.07 3 3 0 0 0-.84-.2l-9-.7a3 3 0 0 0-3.22 2.76l-.2 2.64A3 3 0 0 0 125.4 57l-.2 2.61a22.46 22.46 0 0 0-5.9 6.59h-.36a6.71 6.71 0 0 0-5.21 1.59 8.11 8.11 0 0 0-.79 10.2 6.7 6.7 0 0 0 4.9 2.38 8.61 8.61 0 0 0 1.11 0 21.77 21.77 0 0 0 2.21 3.59c-6.15 8.39-21 6.27-21 6.27s13.44 8.57 26.24-.84c.57.46 1.15.92 1.77 1.37l-.13 1.71a3 3 0 0 0 2.76 3.22l2.16.17a3 3 0 0 0 1.22-.16l.62.23a9.48 9.48 0 0 0 2 .34 8.05 8.05 0 0 0 1 0 91.64 91.64 0 0 0 30.87 7.6 91 91 0 0 0 32.48-3 2.94 2.94 0 0 0 1.15.34l4.72.37a3 3 0 0 0 3.22-2.76l.12-1.57c4.87-2.48 8.67-5.53 11-9h.16l2.17.17a3 3 0 0 0 3.22-2.76l.18-2.35 2.58-4a3 3 0 0 0 .17-2.98zM92.63 64.56a6.92 6.92 0 0 0-1.89-3.66 4.6 4.6 0 0 0-.9-.7h-.06l-.11-.07a4 4 0 0 0-.53-.27 43.79 43.79 0 0 1 1.21-4.93c.14-.49.28-1 .42-1.44.28-.94.57-1.9.83-2.94v-.06a15.89 15.89 0 0 0 .32-5.72 19.42 19.42 0 0 0-1.62-5.32l-1-2.12a7 7 0 0 1-.47-1.45 38.81 38.81 0 0 1-.55-6.74c0-.67 0-1.34-.06-2a55.77 55.77 0 0 0-.63-7.5 14.22 14.22 0 0 0-.87-3A13 13 0 0 0 83 11.46a12.49 12.49 0 0 0-5.81-2.57 10.89 10.89 0 0 0-1.74-.14 13.2 13.2 0 0 0-1.5.09h-.19c-.49.09-.88.18-1.23.26s-.57.13-.81.17a10 10 0 0 1-1.53.12 8.29 8.29 0 0 1-1.39-.11 5.19 5.19 0 0 1-1.93-.66 344.49 344.49 0 0 0-1.91-2.33A17.25 17.25 0 0 0 57.77 1 15.53 15.53 0 0 0 52 0c-.55 0-1.11 0-1.71.07a27.33 27.33 0 0 0-7.49 1.78 35.38 35.38 0 0 0-4 1.81c-.74.4-1.39.77-2 1.15l-.17.11-.7.45h-1a21 21 0 0 0-2.29.29h-.05a29.36 29.36 0 0 0-4.4 1.2 41.66 41.66 0 0 0-4.14 1.72 13.92 13.92 0 0 0-1.64.88l-.41.36-.17.1c-.32.21-.6.43-.82.6l-.25.2-.08.06-.19.15a8.3 8.3 0 0 0-.92.79 29.39 29.39 0 0 0-5.9 8.11 48 48 0 0 0-2 4.46c-.29.75-.57 1.5-.85 2.32l-.3.94c-.21.15-.44.32-.66.51a15.8 15.8 0 0 0-1.62 1.54 17.81 17.81 0 0 0-2.48 3.57 24.37 24.37 0 0 0-2.5 7.61 39.36 39.36 0 0 0-.62 7.36 31.83 31.83 0 0 0 .23 3.63c.06.47.13 1 .22 1.48a9.92 9.92 0 0 0-.75.88A10.55 10.55 0 0 0 .66 57.3a14.74 14.74 0 0 0-.6 5.7 6.58 6.58 0 0 0 .23 1.31l.05.21A3 3 0 0 0 .5 65l.08.2a6.87 6.87 0 0 0 .54 1.17 8.67 8.67 0 0 0 2 2.41 10 10 0 0 0 1 .75v.64a23.83 23.83 0 0 0 .21 3.44 33.86 33.86 0 0 0 1.95 7.24 34.9 34.9 0 0 0 2.56 5.55 10.56 10.56 0 0 1-.19 1.39A7.23 7.23 0 0 1 8.32 89l-.05.14a3.83 3.83 0 0 1-.4.61l-.27.36c-.27.35-.57.75-.86 1.19a7 7 0 0 0-1.18 3 5.13 5.13 0 0 0 1.61 4.35 5.72 5.72 0 0 0 1.31 1h.07a3 3 0 0 0 .62.28l.66.19h.09a3.8 3.8 0 0 0 .61.09 5.6 5.6 0 0 1-.85 1.35 9.32 9.32 0 0 1-1.51 1.15l-.38.25-.32.21a16.44 16.44 0 0 0-2.54 2 7.62 7.62 0 0 0-1.77 2.6v.11a6.31 6.31 0 0 0 0 4.09 3 3 0 0 0 .18.43l.09.19a6.41 6.41 0 0 0 .57 1.12l.57.83a3 3 0 0 0 .23.3l.35.39.37.41.14.15c.25.24.49.45.7.63l.24.21.14.11a12.24 12.24 0 0 0 5.51 2.39 14.86 14.86 0 0 0 2.43.2 17.19 17.19 0 0 0 8.88-2.58A14.57 14.57 0 0 1 27 115h.09a58.68 58.68 0 0 0 11.39 12.32c3.3 2.61 7 3.13 10.44 3.32h.62c.89 0 1.9.11 2.94.11a14.16 14.16 0 0 0 7.23-1.62c4.17-2.48 7.84-6.41 11.19-10.29a38.64 38.64 0 0 0 2.48-3.19 12.36 12.36 0 0 0 2.44 1 11.69 11.69 0 0 0 3.48.54 10.6 10.6 0 0 0 3-.43 12.47 12.47 0 0 0 5.88-3.76 16.09 16.09 0 0 0 3.19-5.45 19.78 19.78 0 0 0 .87-9.6 19.35 19.35 0 0 0-.93-3.5 18.53 18.53 0 0 0-.87-2c-.24-.47-.49-.92-.74-1.35l-.29-.5a23.29 23.29 0 0 1-1.69-3.71A15.18 15.18 0 0 0 89.08 85a19.34 19.34 0 0 0 2.1-4.89 44 44 0 0 0 1.29-7.17v-.69l.26-2.71a17.8 17.8 0 0 0-.1-4.98z"/><path class="cls-3" d="M9 55.82A15.4 15.4 0 0 1 6.15 50a20.51 20.51 0 0 0 .68 4.33c-1.4.94-3.51 2.76-3.46 7.58A5.53 5.53 0 0 0 4 64.57a9.67 9.67 0 0 1 5-8.75zm7.83-22.57C17.5 22.14 25.28 10.83 37 13.88c5.43-4.64 13.12-7.75 18.15-4 6.74 6 14.22 6.74 21 10.48 4.27 2.14 7.05 6.76 8.85 12.45-.31-3.79-.19-8.34-.84-12.45-1-6.46-6.6-8.84-10.39-7.81a11.57 11.57 0 0 1-9.12-1C62.7 10.33 60 3.78 52.17 3.78s-15 5.38-15 5.38-3.93-.84-11.89 3-11.61 17.59-11.61 17.59-5 2.15-6.78 10.67a41.56 41.56 0 0 0-.54 3.29c2.35-4.71 5.27-9.5 10.48-10.46z"/><path class="cls-4" d="M16.15 44.82a41.59 41.59 0 0 0 1.54 15.06 138.76 138.76 0 0 1 .64-15.32c-.72.04-1.45.18-2.18.26zM85.71 61c-2.43.66-4.37 2.46-6.33 4.28.28 1.62.43 3.37.64 5.06L86 64.42a12.29 12.29 0 0 1-.29-3.42z"/><path class="cls-5" d="M87.59 41.62c-.33-.81-.72-1.62-1.12-2.48l-.37-.78a16.56 16.56 0 0 1-1.17-5.52c-1.79-5.69-4.57-10.32-8.85-12.45-6.74-3.74-14.22-4.49-21-10.48-5-3.78-12.72-.67-18.15 4-11.7-3.05-19.47 8.26-20.14 19.37C11.62 34.21 8.7 39 6.34 43.7a33.9 33.9 0 0 0-.19 6.3A15.4 15.4 0 0 0 9 55.82a9.67 9.67 0 0 0-5 8.75 6 6 0 0 0 1.81 2c2.1-3.46 5.85-5.22 9.6-2a20.14 20.14 0 0 1 3.64 4.77c-.22 2.79-.7 5.42-.82 8.15l3.24 3.24L68 82.38l12-12c-.21-1.69-.37-3.44-.64-5.06 2-1.83 3.9-3.63 6.33-4.28a20 20 0 0 1 .23-2.09c-.69-5.8 2.51-11.56 1.67-17.33zm-69.9 18.27a41.59 41.59 0 0 1-1.54-15.06c.73-.08 1.46-.22 2.18-.26a138.76 138.76 0 0 0-.64 15.32zM79.08 56a137.38 137.38 0 0 0-.65-15.29 21.46 21.46 0 0 1 2.19 1c.59 4.93.62 9.84-1.54 14.29z"/><path class="cls-4" d="M15.44 64.56c-3.75-3.21-7.5-1.45-9.6 2a8.5 8.5 0 0 0 2.82 1.31l9.6 9.6c.12-2.73.6-5.37.82-8.15a20.14 20.14 0 0 0-3.64-4.76zM79.08 56c2.16-4.48 2.13-9.39 1.54-14.31a21.46 21.46 0 0 0-2.19-1A137.38 137.38 0 0 1 79.08 56z"/><path class="cls-3" d="M87.59 41.62c.84 5.76-2.36 11.53-1.65 17.29a70.51 70.51 0 0 1 1.9-7.58l.27-1a12.32 12.32 0 0 0-.52-8.71z"/><path class="cls-6" d="M50.58 2.49A24.44 24.44 0 0 0 44 4.07a31.23 31.23 0 0 0-3.63 1.63q-.91.48-1.83 1l-.92.58-.46.31-.23.16H36c-.34 0-.68 0-1 .06a19 19 0 0 0-2 .3 28.8 28.8 0 0 0-4 1.19c-1.3.48-2.59 1-3.87 1.65-.64.31-1.33.74-2 1.14a17.69 17.69 0 0 0-1.77 1.46 26.66 26.66 0 0 0-5.28 7.39 43.93 43.93 0 0 0-1.86 4.18c-.28.71-.53 1.43-.78 2.16l-.35 1.1-.09.52-.06.22-.48.3c-.26.18-.52.37-.76.58a13.2 13.2 0 0 0-1.36 1.3 15 15 0 0 0-2.09 3A21.92 21.92 0 0 0 6 41.12 36.41 36.41 0 0 0 5.46 48a29 29 0 0 0 .22 3.33c.07.55.15 1.09.25 1.62.05.25.11.56.17.77l.13.47A7.42 7.42 0 0 0 3.48 58 11.76 11.76 0 0 0 3 62.6a5.78 5.78 0 0 0 2 3.79 7.55 7.55 0 0 0 1.7 1.1 9.49 9.49 0 0 0 .9.38 7 7 0 0 0 .84.25l13 12.6L8.79 67.64a6.9 6.9 0 0 1-.92-.3A8.91 8.91 0 0 1 7 67a6.93 6.93 0 0 1-1.53-1.06 5.06 5.06 0 0 1-1.7-3.38 11 11 0 0 1 .54-4.25 6.79 6.79 0 0 1 1.06-1.95 7.64 7.64 0 0 1 2-1.74c-.1-.35-.2-.71-.28-1.07S7.07 53 7 52.71c-.08-.51-.15-1-.2-1.56A27.94 27.94 0 0 1 6.7 48a35.26 35.26 0 0 1 .72-6.56 20.47 20.47 0 0 1 2.21-6.26 13.42 13.42 0 0 1 1.93-2.66 11.49 11.49 0 0 1 1.2-1.09c.21-.17.43-.32.64-.46l.16-.1.08-.05.15-.08.63-.34.25-.86.18-.55.36-1c.25-.69.52-1.38.8-2.06a42.3 42.3 0 0 1 1.88-4 24.73 24.73 0 0 1 5-6.68A15.54 15.54 0 0 1 24.44 14c.56-.32 1.07-.64 1.68-.92a39.67 39.67 0 0 1 3.67-1.48 26.67 26.67 0 0 1 3.61-1 16.61 16.61 0 0 1 1.74-.23h1.76l.54-.11.53-.12.6-.42.43-.24.87-.48q.86-.5 1.71-.94A29.33 29.33 0 0 1 44.9 6.6a22.59 22.59 0 0 1 5.9-1.41 11.71 11.71 0 0 1 5.16.6 12.24 12.24 0 0 1 5 3.68c.39.45.77.91 1.18 1.41a10.31 10.31 0 0 0 1.54 1.62A9.77 9.77 0 0 0 68 14.11a14.19 14.19 0 0 0 4.53-.11c.75-.13 1.58-.37 2.08-.47a6.82 6.82 0 0 1 1.84 0A7.58 7.58 0 0 1 80 15a8.22 8.22 0 0 1 2.41 3.17 14.42 14.42 0 0 1 1 4.2c.18 1.51.28 3 .37 4.6a57.3 57.3 0 0 0 .92 9.48 11.42 11.42 0 0 0 .83 2.35l1 2.08a15.36 15.36 0 0 1 1.4 4.16 11.77 11.77 0 0 1-.15 4.26c-.31 1.39-.74 2.84-1.1 4.24A31.2 31.2 0 0 0 85.26 62c0 .35 0 .69.07 1s.08.73.14.93.06.25.07.36l-.24.25-.63.65-2.6 2.68-4.69 4.83L68 82.38 77.67 73l4.83-4.69 2.68-2.6.74-.72.45-.44a5.77 5.77 0 0 0-.09-.6 9.76 9.76 0 0 1-.13-1v-1a30.44 30.44 0 0 1 1.58-8.09c.4-1.4.86-2.76 1.24-4.27a13.05 13.05 0 0 0 .29-4.72 16.7 16.7 0 0 0-1.39-4.57l-1-2.13a9.82 9.82 0 0 1-.66-2.06 56.9 56.9 0 0 1-.64-9.19c0-1.57-.11-3.15-.26-4.73-.08-.8-.15-1.56-.31-2.38a11.46 11.46 0 0 0-.7-2.42 10.34 10.34 0 0 0-3-4.06 9.79 9.79 0 0 0-4.55-2 9.08 9.08 0 0 0-2.51 0c-.92.16-1.47.33-2.13.43a11.84 11.84 0 0 1-3.78 0 7.49 7.49 0 0 1-3.15-1.21 9.1 9.1 0 0 1-1.08-1.22c-.39-.49-.79-1-1.21-1.49a14.74 14.74 0 0 0-6-4.49 14.14 14.14 0 0 0-6.31-.86z"/><path class="cls-4" d="M83.57 87.77c.31-.1.63-.19 1-.27a22.43 22.43 0 0 1-.86-3.71v-5.38H74L72.47 96c5.39-.37 7-6.18 11.1-8.23z"/><path class="cls-5" d="M84.53 87.5c-.33.08-.65.16-1 .27-4.11 2.05-5.71 7.86-11.11 8.27l-1.11 12.51a7.72 7.72 0 0 0 5 4.66c7.3-.57 11.31-5.82 12.7-12.36a16.23 16.23 0 0 0-2.18-8.07 27.54 27.54 0 0 1-2.3-5.28z"/><path class="cls-3" d="M76.37 113.2a8.57 8.57 0 0 0 4.31.4c3.91-.73 6.61-4.21 7.68-7.84a17.1 17.1 0 0 0 .71-4.91c-1.39 6.54-5.4 11.78-12.7 12.35z"/><path class="cls-6" d="M88.2 98.42a16.83 16.83 0 0 1-.52 7.6 12.35 12.35 0 0 1-2.25 4.23 8.79 8.79 0 0 1-3.93 2.8 7.81 7.81 0 0 1-4.53.11 9.15 9.15 0 0 1-3.46-1.7 6.56 6.56 0 0 1-1.73-2 4.36 4.36 0 0 1-.31-.67l-.1-.24.09.24a4.38 4.38 0 0 0 .28.69 6.67 6.67 0 0 0 1.64 2.15 9.41 9.41 0 0 0 3.48 1.95 8.32 8.32 0 0 0 4.84.12 9.52 9.52 0 0 0 4.43-2.84 13.16 13.16 0 0 0 2.64-4.47 16.87 16.87 0 0 0 .78-8.18 16.28 16.28 0 0 0-.8-3A20.78 20.78 0 0 0 87 91.74a24.59 24.59 0 0 1-2.93-8l-.14-5.62-9.93.29 9.37.27-.14 5.15A24.78 24.78 0 0 0 86 92.31a17.78 17.78 0 0 1 2.2 6.11z"/><path class="cls-3" d="M15 96.64a13.28 13.28 0 0 1-2.52 6.89c-2 2.43-7.94 3.93-5.67 7.82a9.1 9.1 0 0 0 .62.92c4.41-4.4 8.68-9.03 7.57-15.63zm-3.21-7.92a10.44 10.44 0 0 1-.47 1.52c-.65 1.59-3.5 3.78-2 5.54a2 2 0 0 0 1.87.88c-.19-2.54 1.95-5.66.6-7.94z"/><path class="cls-4" d="M20.12 90.22a82 82 0 0 0 .55-10h-9.11a19.8 19.8 0 0 1 .44 7.5 7.41 7.41 0 0 0 8.12 2.5z"/><path class="cls-5" d="M27 80.24h-6.32a82 82 0 0 1-.55 10A7.41 7.41 0 0 1 12 87.72c-.05.34-.12.68-.2 1 1.35 2.29-.84 5.39-.61 7.94 1.92-.26 3.67-3.65 4.08-5.16a46.83 46.83 0 0 1-.27 5.14c1.11 6.6-3.16 11.23-7.58 15.63 3.47 4.57 10.18 4.14 14.63 1.31 3.42-2.18 7.41-3.88 10.33.06V92.81z"/><path class="cls-6" d="M9.42 105.11a14.93 14.93 0 0 0-2.65 2.07 3.83 3.83 0 0 0-1.05 1.91 3.48 3.48 0 0 0 .41 2.34 9.14 9.14 0 0 0 3.17 3.37 9.81 9.81 0 0 0 4.7 1.44 13.72 13.72 0 0 0 5.07-.73 14.52 14.52 0 0 0 2.39-1.06c.77-.45 1.45-.91 2.17-1.32a9.5 9.5 0 0 1 4.54-1.47 4.32 4.32 0 0 1 2.19.58 9.75 9.75 0 0 1 2.26 2.21v-4.96l-.06-3.94-.1-6.65-.09-6.09-.09 6.09-.1 6.65-.06 3.94v3.36a4.28 4.28 0 0 0-1.31-1.18 5 5 0 0 0-2.51-.74 10.22 10.22 0 0 0-5 1.45c-.76.41-1.5.88-2.2 1.26a13.62 13.62 0 0 1-2.25.93 12.74 12.74 0 0 1-4.69.57 8.7 8.7 0 0 1-4.16-1.35 8 8 0 0 1-2.67-2.93 2.16 2.16 0 0 1 .48-2.76 14.53 14.53 0 0 1 2.42-1.85 14 14 0 0 0 2.63-2.06 10.34 10.34 0 0 0 2-3.53 28 28 0 0 0 1-9.13v-4l-1.08 3.83a11 11 0 0 1-1.36 2.9 4 4 0 0 1-2.27 1.92 1.39 1.39 0 0 1-1.2-.49 1.35 1.35 0 0 1-.54-1.18 7.4 7.4 0 0 1 1.58-2.86 5.87 5.87 0 0 0 .8-1.65 10.71 10.71 0 0 0 .46-1.73 15.74 15.74 0 0 0 .23-3.45 21.32 21.32 0 0 0-.38-3.29c0-.24-.12-.59-.15-.71l-.06-.25v-.13h1.4l13.71-.2L13.26 80h-1.98l.05.25.11.51.16.85a20.86 20.86 0 0 1 .28 3.21 15.15 15.15 0 0 1-.31 3.3 10 10 0 0 1-.47 1.61 5.08 5.08 0 0 1-.82 1.42c-.34.46-.72.92-1.05 1.44a4.2 4.2 0 0 0-.76 1.79 2.25 2.25 0 0 0 .77 1.93 3.15 3.15 0 0 0 .84.61l.54.15a2.67 2.67 0 0 0 .56 0 3.4 3.4 0 0 0 1.82-.82 8.39 8.39 0 0 0 1.22-1.4 11.91 11.91 0 0 0 1.58-3.2l-1.1-.15a27.39 27.39 0 0 1-1.14 8.71 9.2 9.2 0 0 1-1.75 3.06 13.57 13.57 0 0 1-2.39 1.84z"/><path class="cls-7" d="M11.6 68.73a27.91 27.91 0 0 1 6.27 8.2A12.6 12.6 0 0 1 19 75a31.7 31.7 0 0 0-7.4-6.27zm3.15 15.15c1.53-1.28 3.8-1.35 5.64-1.35A8.07 8.07 0 0 0 18 81.8c-1.56.06-2.63.4-3.25 2.08z"/><path class="cls-7" d="M10.88 82.8c1.4 2.91 4.51 8.09 7.54 6h4.41l-.41-3.45C18.39 89.88 14 86.8 10.88 82.8z"/><path class="cls-8" d="M15.37 67.49A15.32 15.32 0 0 0 14.29 66a4.09 4.09 0 0 0-3.83-1.81 10.3 10.3 0 0 1 4.91 3.3z"/><path class="cls-8" d="M22.17 83.21l-.29-2.45c-3.29 1.34-6.79-1.82-8.68-5 2.64 2.64 5.29 3 8.45 3L21 73h-3.14a26.62 26.62 0 0 0-2.49-5.56 10.3 10.3 0 0 0-4.9-3.34c-1.25.24-2.29 1.35-2.63 3.34-.81 4.63.77 10 2.57 14.27.12.29.28.65.48 1 3.1 4 7.51 7.08 11.54 2.58zM11.6 68.73A31.7 31.7 0 0 1 19 75a12.6 12.6 0 0 0-1.18 2 27.91 27.91 0 0 0-6.22-8.27zm3.16 15.15c.61-1.68 1.68-2 3.22-2.09a8.07 8.07 0 0 1 2.43.73c-1.86.01-4.12.08-5.66 1.36z"/><path class="cls-7" d="M21.88 80.77l-.24-2c-3.16 0-5.8-.35-8.45-3 1.9 3.18 5.4 6.34 8.69 5z"/><path class="cls-6" d="M8.49 72.88a24.33 24.33 0 0 1-.23-2.83 11.27 11.27 0 0 1 .42-3.5 3.31 3.31 0 0 1 1-1.46 2.28 2.28 0 0 1 1.64-.51 3.44 3.44 0 0 1 1.76.7 7.17 7.17 0 0 1 1.41 1.44 19.26 19.26 0 0 1 2 3.35c.27.55.51 1.09.72 1.6l.6 1.5L21 73l-3-.11-.45-1.4c-.18-.53-.39-1.08-.62-1.66A19.46 19.46 0 0 0 15 66.31a5.48 5.48 0 0 0-3.61-2.66 3.25 3.25 0 0 0-2.39.62 4.35 4.35 0 0 0-1.39 1.88A11.79 11.79 0 0 0 7 70a20.39 20.39 0 0 0 .18 3A30.09 30.09 0 0 0 9 79.63a27.07 27.07 0 0 0 4.18 7.51 6.2 6.2 0 0 0 3.36 2.32 2.68 2.68 0 0 0 1.81-.4.42.42 0 0 1 .31-.1h1.08l3.1-.11-3.1-.11H18.6a1.09 1.09 0 0 0-.24 0l-.22.11a2.32 2.32 0 0 1-1.57.25 5.75 5.75 0 0 1-2.91-2.32A27.32 27.32 0 0 1 10 79.24a35.47 35.47 0 0 1-1.51-6.36z"/><path class="cls-6" d="M14.09 84.73a3.86 3.86 0 0 1 .43-.37 4 4 0 0 1 1.13-.6 2.47 2.47 0 0 1 2.16.38L18.5 83a3 3 0 0 0-1.43-.38 2.88 2.88 0 0 0-1.73.57 4 4 0 0 0-1 1.05 3.5 3.5 0 0 0-.25.49zM9.13 66.94s.56.38 1.37 1.06a24 24 0 0 1 2.86 2.87A21.68 21.68 0 0 1 16 74.72a21.42 21.42 0 0 1 1.38 3.33l1.29-.41a16 16 0 0 0-1.68-3.5 20.46 20.46 0 0 0-3.1-3.74 23 23 0 0 0-3.23-2.57 16.59 16.59 0 0 0-1.53-.89z"/><path class="cls-6" d="M11.93 74.57a9.74 9.74 0 0 0 1.92 2.34 9.12 9.12 0 0 0 4 2.16l.27-1.32a12 12 0 0 1-3.87-1.38 11 11 0 0 1-1.68-1.19 7.73 7.73 0 0 1-.64-.61z"/><path class="cls-7" d="M84 83.07a2.56 2.56 0 0 0-3.39-1.29v.88a4.64 4.64 0 0 1 3.39.41zm-4.21 2.26c0 .11-.11.15-.25.17-.13 2.5 2.43 1.89 3.76.89a12 12 0 0 0 2.86-3.12c-1.92 1.59-4.28 3.34-6.37 2.06z"/><path class="cls-8" d="M85.91 62.58c-3.06.68-4.86 4.57-5.62 7.29l-4.66 2.58-.63 9.84 3 2 1.57 1v.21c0 .07.21-.07.25-.17 2.09 1.28 4.45-.48 6.37-2.05a12 12 0 0 0 .89-1.66c1.49-3.42 1.85-7.51 2.23-11.18.24-2.63 1.11-8.87-3.4-7.86zM81.33 76c.79-.74 1.4-1.83 2.18-2.59a5.83 5.83 0 0 1-2.18 4.45zm-.75 6.66v-.88A2.56 2.56 0 0 1 84 83.07a4.64 4.64 0 0 0-3.42-.41zm1-11.46c-.41-.18-.48-.6-.54-1a10 10 0 0 1 5.09-3.81c-1.96 1.2-2.97 3.2-4.59 4.81z"/><path class="cls-7" d="M81 70.15c.07.45.14.86.54 1 1.62-1.61 2.63-3.61 4.54-4.86A10 10 0 0 0 81 70.15zm.33 5.85v1.86a5.83 5.83 0 0 0 2.18-4.45c-.78.76-1.39 1.85-2.18 2.59z"/><path class="cls-6" d="M89.79 72.08c.08-.84.19-1.87.29-3.08a14.9 14.9 0 0 0-.16-4.1 4.09 4.09 0 0 0-1.12-2.19 2.92 2.92 0 0 0-2.49-.65 5.89 5.89 0 0 0-3.91 2.59 14 14 0 0 0-1.89 3.81c-.11.31-.19.62-.28.92s-.06.27-.1.37l-.32.19-1.4.83-2.79 1.66L78.51 71l1.49-.78.45-.23c.07-.16.12-.37.17-.5.1-.29.2-.58.33-.88a13.62 13.62 0 0 1 2-3.55A5.12 5.12 0 0 1 86.41 63a1.94 1.94 0 0 1 1.67.48 3.09 3.09 0 0 1 .72 1.67 14.57 14.57 0 0 1 0 3.76l-.34 3.05a52.8 52.8 0 0 1-1 6.85 15.94 15.94 0 0 1-1.49 4 11.65 11.65 0 0 1-2.79 3.3 4.29 4.29 0 0 1-1.79.87 1.24 1.24 0 0 1-1.49-.53 2.06 2.06 0 0 1-.15-.89c.18-.42-.43-.56-.59-.72L77.74 84 75 82.29l2.66 1.87 1.33.93.32.22c.13 0 .08.19.08.31a2.44 2.44 0 0 0 .13 1 1.42 1.42 0 0 0 .82.8 2.34 2.34 0 0 0 1.15.1 4.87 4.87 0 0 0 2.11-.88 12.3 12.3 0 0 0 3.17-3.36 16.49 16.49 0 0 0 1.8-4.17 41.52 41.52 0 0 0 1.22-7.03z"/><path class="cls-6" d="M87.18 65.64a8.38 8.38 0 0 0-1.24.63 14.24 14.24 0 0 0-2.59 2 16.35 16.35 0 0 0-3.75 5.82l1.27.45a20.29 20.29 0 0 1 3-5.82 14.7 14.7 0 0 1 2.21-2.31 8.72 8.72 0 0 1 1.1-.77zm-3.79 16.65a2.76 2.76 0 0 0-.29-.41 3.07 3.07 0 0 0-1-.78 2.32 2.32 0 0 0-1.6-.16 2.65 2.65 0 0 0-1.13.62l.94 1a2 2 0 0 1 1.59-.78 2.92 2.92 0 0 1 1 .3 3.06 3.06 0 0 1 .49.21zm.74-9.9a12 12 0 0 1-1.63 1.81 26.23 26.23 0 0 1-2.72 2.12l.78 1.1A11.35 11.35 0 0 0 83 74.63a10.32 10.32 0 0 0 1.13-2.24z"/><path class="cls-7" d="M44.15 89.38c.93 2.79 3.09 5.73 6.48 4.38a10.4 10.4 0 0 0 3.65-2.9c-3.39.09-6.94.03-10.13-1.48zm-9.24-60.01c15.65-6.13 28.83.74 42.35 7.11a13.51 13.51 0 0 0-1.27-2 25.73 25.73 0 0 0-10.41-7.58c-15.22-6.62-35.46-1.14-44.86 12.65 1-.38 2-.77 3-1.2 4.45-2.24 7.45-7.48 11.19-8.98zm14.97 76.37c3.05.38 4.94-1.38 6.85-3H44.47a8.83 8.83 0 0 0 5.41 3zm2.44 9.75a2 2 0 0 0-.9-.44c-2.07.42-4 .78-5.34 2.37a12.83 12.83 0 0 1 8.48-.67 2.68 2.68 0 0 0-2.24-1.26zm-7.98-31.37c-8.4 2.76-17.43 4.16-25.26 1.2 7.37 6.03 19.92 5.47 25.26-1.2zm33.15.65H55.18c6.65 5.85 15.37 4.07 22.31 0zM43.83 65.11c-.08-1.1-.26-2.05-.69-2.05-7-2.09-21.7-4.82-23.72 3.25 7.72-3.8 16.05-3.2 24.41-1.2z"/><path class="cls-8" d="M79.43 46.28c-.3-3.45-.63-6.79-2.17-9.8-13.52-6.36-26.7-13.23-42.35-7.11-3.74 1.5-6.74 6.74-11.23 9-.93.42-1.92.81-3 1.2a29.6 29.6 0 0 0-1.22 1.92c-2.82 4.25-1.79 11.7-1.78 16.51 0 5.88.08 11.76.24 17.63.09 3.11.16 6.24.29 9.36.07 1.69.16 3.37.29 5.05.29 3.69 2.21 6.92 4 10.11a119.91 119.91 0 0 0 9.34 14.76c8.65 8.06 22 10.09 32.68 5.55a90.98 90.98 0 0 0 3.86-4.23 37.58 37.58 0 0 0 7.22-13 88.69 88.69 0 0 0 4.15-19.93q.38-4 .46-7.94a274.23 274.23 0 0 0-.78-29.08zM43.14 63.06c.42 0 .61 1 .69 2.05-8.36-2-16.69-2.6-24.4 1.19 2.02-8.06 16.75-5.3 23.71-3.24zM39 75.59a16 16 0 0 1-14.48 1c4.48-3.24 9.87-3.02 14.48-1zm-19.92 9.73c7.84 3 16.86 1.56 25.26-1.2-5.34 6.67-17.89 7.23-25.26 1.2zm35.2 5.53a10.4 10.4 0 0 1-3.65 2.9c-3.39 1.36-5.55-1.58-6.48-4.38 3.19 1.52 6.74 1.58 10.13 1.48zm-2 5.22c-1.12.25-2.24 1.05-3.36.85-.56-.61-2.05-.51-2.58-1.13a10.88 10.88 0 0 1 5.94.29zm-6.21 21.33c1.31-1.58 3.26-1.94 5.34-2.37a2 2 0 0 1 .9.44 2.68 2.68 0 0 1 2.24 1.25 12.83 12.83 0 0 0-8.47.69zm1.12-8.57c1.92.67 4.3 1.69 6.3.07-1.62 2.02-4.86 3.1-6.29-.06zm2.69-3.1a8.83 8.83 0 0 1-5.41-3h12.26c-1.91 1.63-3.79 3.39-6.85 3.01zm5.29-21h22.32c-6.94 4.11-15.66 5.89-22.31.04zm3.16-10.25c4.56-1.42 9.93-3.2 14.42-.29-4.46 1.95-9.63 1.44-14.41.33zm-4.25-9a3.62 3.62 0 0 1 1.79-3.23c6.19-2.06 18-4.12 22.26 1.35-8.23-1.21-16.43-1.16-24.05 1.95z"/><path class="cls-7" d="M24.52 76.63a16 16 0 0 0 14.48-1c-4.61-2.06-10-2.28-14.48 1zm48.24-2.4c-4.49-2.91-9.85-1.12-14.42.29 4.78 1.11 9.95 1.62 14.42-.29zM55.87 62.31a3.62 3.62 0 0 0-1.79 3.23c7.61-3.1 15.82-3.15 24.05-1.88-4.22-5.46-16.07-3.41-22.26-1.35zm-24.03 52.6a52.3 52.3 0 0 0 9 9.31c2.49 2 5.28 2.39 8.42 2.55 2.75.14 6.34.47 8.8-1a33.13 33.13 0 0 0 6.46-5.32C53.84 125 40.49 123 31.84 114.91zm20.44-18.83a10.88 10.88 0 0 0-5.95-.28c.53.62 2 .53 2.58 1.13 1.09.2 2.25-.61 3.37-.85zm-5.08 12.76c1.43 3.2 4.68 2.08 6.3.07-2 1.62-4.39.6-6.3-.07z"/><path class="cls-9" d="M54.91 103c-1.72.74-3.45 1.73-5.26 1.73-1.33 0-2.44-.89-3.63-1.37a12.86 12.86 0 0 0-1.31-.45 32.15 32.15 0 0 0 10.2.09z"/><path class="cls-11" d="M42.84 102.53a13.93 13.93 0 0 1 1.87.39 32.15 32.15 0 0 0 10.19.09l.69-.28a55.3 55.3 0 0 0-12.75-.2z"/><path class="cls-10" d="M41.29 101.06a17.21 17.21 0 0 0-2.64 1.43 16.89 16.89 0 0 1 4.19 0 55.3 55.3 0 0 1 12.76.2 9.63 9.63 0 0 1 1-.32 22.39 22.39 0 0 1 4.38-.67c-6.26-2.18-12.98-1.32-19.69-.64z"/><path class="cls-11" d="M61 101.74h.4c-3.65-2.74-8.5-2.14-12.74-2.11a18.28 18.28 0 0 0-7.37 1.43c6.71-.68 13.43-1.54 19.71.68z"/><path class="cls-12" d="M19.5 41.48C28.27 26.27 49.67 20 65.58 26.9A25.73 25.73 0 0 1 76 34.46C78.66 38 79.06 42 79.43 46.28a274.23 274.23 0 0 1 .78 29.11 92.87 92.87 0 0 1-4.62 27.87 37.59 37.59 0 0 1-7.22 13c-2.91 3.37-6.44 7.25-10.31 9.56-2.45 1.46-6 1.13-8.8 1-3.14-.16-5.94-.59-8.42-2.55-8-6.33-13.43-15.25-18.34-24.07-1.77-3.18-3.7-6.42-4-10.11-.38-4.79-.45-9.61-.59-14.41-.16-5.88-.23-11.75-.24-17.63 0-4.86-1.03-12.31 1.83-16.57z"/><path class="cls-6" d="M49.94 99.16c-.73 0-1.85 0-3.12.17a17.62 17.62 0 0 0-3.9.88 16.25 16.25 0 0 0-3.07 1.47c-.75.47-1.19.81-1.19.81s.48-.29 1.26-.68a16.68 16.68 0 0 1 3.14-1.17 18.54 18.54 0 0 1 3.83-.56c1.22-.06 2.33 0 3.08 0a43.24 43.24 0 0 1 7 0 11.3 11.3 0 0 1 3.2.92 7 7 0 0 1 .92.5l.33.2-.31-.23a6.92 6.92 0 0 0-.87-.59A11.25 11.25 0 0 0 57 99.65a31.12 31.12 0 0 0-7.06-.49z"/><path class="cls-6" d="M50.08 105.17a8.88 8.88 0 0 0 3.07-1 27.41 27.41 0 0 1 3.54-1.6 22.71 22.71 0 0 1 4.68-.9 21.5 21.5 0 0 0-4.79.46 24.5 24.5 0 0 0-3.73 1.34 9.73 9.73 0 0 1-2.84.76 3.34 3.34 0 0 1-1.19-.09 8.8 8.8 0 0 1-1.53-.62 12.12 12.12 0 0 0-3.83-1.16 15.82 15.82 0 0 0-3.4-.08c-.88.07-1.42.17-1.42.17h1.43a16.21 16.21 0 0 1 3.31.39 12.18 12.18 0 0 1 3.55 1.39 8.64 8.64 0 0 0 1.64.78 3.83 3.83 0 0 0 1.51.16zm.42 4.07a6.92 6.92 0 0 1-4.15-1.11 6.33 6.33 0 0 0 1.45 1.19 5.35 5.35 0 0 0 2.71.82 5.52 5.52 0 0 0 2.68-.92 7.34 7.34 0 0 0 1.44-1.22 8.32 8.32 0 0 1-1.64.8 7.31 7.31 0 0 1-2.49.44zm-1.03-13.03a9.78 9.78 0 0 1-2.08-.21 7 7 0 0 1-1.39-.39 6 6 0 0 0 1.27.86 5.46 5.46 0 0 0 2.2.64 5.36 5.36 0 0 0 2.23-.54 6.8 6.8 0 0 0 .9-.57l.37-.26-.43.14a8 8 0 0 1-1 .25 9.36 9.36 0 0 1-2.07.08zm-13.02 7.02a3.68 3.68 0 0 1 0-2 3.31 3.31 0 0 0-.45.77 2.55 2.55 0 0 0-.19 1.4 2.3 2.3 0 0 0 .78 1.19 3.06 3.06 0 0 0 .55.35l.24.12-.18-.2a3.44 3.44 0 0 1-.36-.49 3.17 3.17 0 0 1-.39-1.14zm14.47 11.56a6.59 6.59 0 0 0-3.53 1.37 14.07 14.07 0 0 0-1.39 1.13l-.54.52.62-.41a16 16 0 0 1 1.51-.85 7.58 7.58 0 0 1 3.31-.85 5.52 5.52 0 0 1 3.21 1 10.63 10.63 0 0 1 1.35 1.07l.54.52-.43-.61a9.88 9.88 0 0 0-1.18-1.33 6 6 0 0 0-1.79-1.16 5.12 5.12 0 0 0-.94-.28 6.21 6.21 0 0 0-.74-.12z"/><path class="cls-3" d="M35.81 61.72a7.07 7.07 0 0 0-6.17-2.38c-2.07.3-3.73 2.17-4.9 4a11.44 11.44 0 0 1 11.07-1.62z"/><path class="cls-5" d="M37.62 64.09a13.08 13.08 0 0 0-1.81-2.37 11.44 11.44 0 0 0-11.07 1.66 21.41 21.41 0 0 0-1.32 2.48 23.36 23.36 0 0 1 14.2-1.77z"/><path class="cls-4" d="M23.42 65.86c-.44 1-.67 1.65-.67 1.65s10.09-6.08 15.4-2.45c0 0-.18-.4-.53-1a23.36 23.36 0 0 0-14.2 1.8z"/><path class="cls-5" d="M73.78 63.21a12.16 12.16 0 0 0-.72-1c-4-2-8.07-3.07-12.21-2.06a11.78 11.78 0 0 0-2.69 2.4 27.94 27.94 0 0 1 15.62.66z"/><path class="cls-4" d="M58.15 62.53a9.27 9.27 0 0 0-.77 1.06s10.14-3.75 17.61 2a12.19 12.19 0 0 0-1.21-2.42 27.94 27.94 0 0 0-15.63-.64z"/><path class="cls-3" d="M73.06 62.19a8.88 8.88 0 0 0-6.61-3.57 9.36 9.36 0 0 0-5.6 1.51c4.15-1.02 8.26.1 12.21 2.06z"/><path class="cls-6" d="M23.51 64.64c-.17.32-.35.7-.55 1.15l-.15.36-.29.73c-.19.5-.37 1-.55 1.58a49.52 49.52 0 0 1 3.1-1.74c.74-.38 1.53-.74 2.35-1.09a21.86 21.86 0 0 1 5-1.46 9.08 9.08 0 0 1 4.14.2 4.66 4.66 0 0 1 1.16.48l.41.21-.4-.23a4.7 4.7 0 0 0-1.14-.55 8.41 8.41 0 0 0-1.85-.45l-1.14-.06c-.4 0-.8 0-1.23.06A21.75 21.75 0 0 0 27.18 65c-.85.31-1.68.64-2.45 1l-1.09.51h-.07v-.05l.15-.34c.2-.43.37-.79.54-1.1a15.1 15.1 0 0 1 2.78-4 5.08 5.08 0 0 1 2.55-1.43 6.34 6.34 0 0 1 3 .23 9.38 9.38 0 0 1 4.21 3.24 12.49 12.49 0 0 1 1.26 1.95A12.31 12.31 0 0 0 37 63a9.57 9.57 0 0 0-4.17-3.58 6.81 6.81 0 0 0-3.28-.42 5.69 5.69 0 0 0-3 1.47 14.3 14.3 0 0 0-3.04 4.17zM59 62.27a10.67 10.67 0 0 1 4.23-2.85 9.43 9.43 0 0 1 3.19-.5 8.94 8.94 0 0 1 3.22.72 10.3 10.3 0 0 1 4.23 3.79 11.42 11.42 0 0 1 1.13 2.2 11.3 11.3 0 0 0-1-2.26 10.49 10.49 0 0 0-4.15-4.12 9.37 9.37 0 0 0-3.39-.93 9.94 9.94 0 0 0-3.45.4 10.77 10.77 0 0 0-4.65 3L58 62l-.16.18-.3.37a19.41 19.41 0 0 0-1.2 1.87l1.23-.42c.4-.14.8-.28 1.19-.37s.81-.21 1.24-.32a25.15 25.15 0 0 1 2.79-.46 20.38 20.38 0 0 1 5.91.16 16.07 16.07 0 0 1 4.58 1.58c.56.28 1 .59 1.26.77l.46.29-.44-.32c-.29-.19-.68-.53-1.22-.85a16.11 16.11 0 0 0-4.56-1.85 20.4 20.4 0 0 0-6-.46 24.42 24.42 0 0 0-2.89.36c-.45.09-.89.18-1.29.28z"/><path class="cls-7" d="M45.39 90.76c-1.17-1.17-1.41-2.35-.75-3.52A1.67 1.67 0 0 0 43.37 90c.84 1.17 3 2.08 4.3 2.45a6.37 6.37 0 0 0 7.08-2.4 3 3 0 0 0 .25-.41 11.09 11.09 0 0 1-2.87 1.83 7.28 7.28 0 0 1-6.74-.71zm.33-23.64c.06.67.11 1.46.16 2.32a6.2 6.2 0 0 1 5.9-1c0-.58.08-1.16.13-1.73a17.2 17.2 0 0 0-6.19.41zm5.66 21.49a4.59 4.59 0 0 1 3.57-1.09 1.94 1.94 0 0 0-2.72-.25 141.26 141.26 0 0 1-.53-17.1c-.87 6.25-.36 12.09-.32 18.44z"/><path class="cls-8" d="M54.95 87.52a4.59 4.59 0 0 0-3.57 1.09c0-6.35-.55-12.19.31-18.44 0-.58 0-1.16.08-1.73a6.2 6.2 0 0 0-5.9 1c.29 5.48.34 14.26.14 18.08a2.63 2.63 0 0 0-1.37-.28c-.67 1.17-.43 2.35.75 3.52a7.28 7.28 0 0 0 6.74.75A11.09 11.09 0 0 0 55 89.69a2.06 2.06 0 0 0-.05-2.17z"/><path class="cls-6" d="M52.1 91.75a6.06 6.06 0 0 1-3.76.47 11 11 0 0 1-2.34-.76 7 7 0 0 1-2.17-1.4 2.09 2.09 0 0 1-.52-1.06 1.15 1.15 0 0 1 .37-1 1.78 1.78 0 0 1 1.15-.42 1.82 1.82 0 0 1 .33 0h.4l.6.22.15.05a.86.86 0 0 0 0-.15v-6.49c-.05-3.94-.19-7.6-.34-10.27s-.35-4.35-.35-4.35.15 1.68.21 4.35.09 6.33 0 10.27l-.07 3-.05 1.51v1.29c0 .12-.07 0-.14 0h-.34a2.6 2.6 0 0 0-2 .52 1.87 1.87 0 0 0-.63 1.63 2.8 2.8 0 0 0 .72 1.48 7.64 7.64 0 0 0 2.4 1.63 11.55 11.55 0 0 0 2.48.86 6.81 6.81 0 0 0 4.31-.5 6.66 6.66 0 0 0 1.66-1.14 5.23 5.23 0 0 0 1.41-2 2.53 2.53 0 0 0 0-1.46 2.08 2.08 0 0 0-1-1.25 2.2 2.2 0 0 0-1.6-.21 2.13 2.13 0 0 0-.38.11h-.07l-.23-2.7-.22-3c-.13-2-.23-4-.27-6a84.19 84.19 0 0 1 .35-10.24c.13-1.33.28-2.41.39-3.16l.18-1.16-.22 1.16c-.14.74-.32 1.82-.49 3.15a82.48 82.48 0 0 0-.66 10.26c0 2 0 4 .1 6l.14 3 .2 3.11v.66c0 .18.12 0 .2 0l.29-.14.29-.14.15-.07h.12a1.43 1.43 0 0 1 .28-.08 1.4 1.4 0 0 1 1 .14 1.44 1.44 0 0 1 .51 1.74 4.53 4.53 0 0 1-1.2 1.6 6 6 0 0 1-1.34.94z"/><path class="cls-4" d="M78.43 40.81c-3.11-3.35-4.81-8.2-6.4-12.51-.03 2.87.7 9.06 6.4 12.51z"/><path class="cls-5" d="M72.11 26.75A13 13 0 0 0 72 28.3c1.58 4.31 3.29 9.16 6.4 12.51a15.48 15.48 0 0 0 4 1.67z"/><path class="cls-6" d="M74.61 36.39a7.82 7.82 0 0 1-.57-1 11.56 11.56 0 0 1-.63-1.32 16.82 16.82 0 0 1-1-3.2A20.29 20.29 0 0 1 72.1 28v-1.24s-.1.47-.1 1.24a19.21 19.21 0 0 0 0 3 15.78 15.78 0 0 0 .71 3.4 10.44 10.44 0 0 0 .57 1.44 6.35 6.35 0 0 0 .58 1.07A11.28 11.28 0 0 0 75.59 39c.43.36.86.77 1.34 1.11l1.49.93a15.64 15.64 0 0 0 2.76 1.07l1.2.34-1.16-.45a16.29 16.29 0 0 1-2.58-1.33l-1.34-1c-.42-.37-.79-.79-1.17-1.16a14.66 14.66 0 0 1-1.52-2.12z"/><path class="cls-5" d="M67.81 27.61a29.64 29.64 0 0 0 2.8-1.42l-23.44-4.12a11.46 11.46 0 0 0 .83 1.2c6.09 3.47 13.08 5.81 19.81 4.34z"/><path class="cls-4" d="M48 23.27c2.15 2.83 8.6 9.32 19.83 4.35-6.75 1.46-13.74-.88-19.83-4.35z"/><path class="cls-6" d="M58 28.84l-1.46-.27c-.56-.12-1.16-.35-1.82-.54a15.75 15.75 0 0 1-3.78-2.1 16.55 16.55 0 0 1-2.75-2.57 13.12 13.12 0 0 1-1-1.28 12.71 12.71 0 0 0 .81 1.36 16.28 16.28 0 0 0 2.57 2.84 15.45 15.45 0 0 0 3.78 2.45c.68.24 1.31.52 1.9.67l1.54.33a14.06 14.06 0 0 0 1.57.1 8.81 8.81 0 0 0 1 0l1-.12 1.1-.13c.37-.08.73-.19 1.1-.28a13.25 13.25 0 0 0 2.16-.67l1.93-.8c.58-.3 1.08-.6 1.52-.84l1.41-.79-1.47.67c-.45.2-1 .46-1.57.7l-2 .64a13.33 13.33 0 0 1-2.14.5c-.36.07-.72.15-1.08.2l-.99.09-1 .06a9 9 0 0 1-.91-.05c-.56-.1-1.07-.1-1.42-.17z"/><path class="cls-4" d="M45.82 23.76c-4.27 4.16-10.59 6.11-16.5 6.33 3.05.91 10.44 1.99 16.5-6.33z"/><path class="cls-11" d="M23.3 76.52a12.7 12.7 0 0 0-.47 1.33c4.83-3.44 11.92-3.27 17.27-1.41-.25-.48-.52-1-.82-1.43-5.12-1.46-10.98-1.62-15.98 1.51z"/><path class="cls-10" d="M39.28 75c-2.05-3.2-5.3-5.81-9.42-5.09-3 .52-5.41 3.79-6.56 6.6 5-3.12 10.86-2.96 15.98-1.51z"/><path class="cls-3" d="M33.93 70.91a4.62 4.62 0 0 0-.29-.7 7.21 7.21 0 0 0-4.79 0 5.68 5.68 0 0 0-.33.85 7.19 7.19 0 0 1 5.41-.15z"/><path class="cls-5" d="M28.52 71a6.54 6.54 0 0 0 .28 4.39 16 16 0 0 1 5.14-.22 8.54 8.54 0 0 0 0-4.31 7.19 7.19 0 0 0-5.42.14zm-.64-41.44a10.21 10.21 0 0 0 1.43.53c5.91-.22 12.23-2.17 16.5-6.33.3-.42.61-.85.9-1.32z"/><path class="cls-6" d="M38.46 29.29l-1.15.43c-.45.16-1 .26-1.52.42a14.55 14.55 0 0 1-3.57.29 14.23 14.23 0 0 1-3.07-.43 10.72 10.72 0 0 1-1.27-.41 10.32 10.32 0 0 0 1.23.54 14.41 14.41 0 0 0 6.82.78c.58-.12 1.15-.2 1.64-.34l1.24-.42a10.54 10.54 0 0 0 1.19-.61c.22-.12.46-.24.7-.39l.7-.51a9.52 9.52 0 0 0 1.43-1.18 12.67 12.67 0 0 0 1.31-1.34l1.1-1.35c.32-.43.56-.86.79-1.2l.72-1.13-.83 1c-.26.32-.54.71-.89 1.11l-1.2 1.21A12.92 12.92 0 0 1 42.41 27 9.58 9.58 0 0 1 41 28l-.7.44-.68.33c-.48.23-.84.41-1.16.52z"/><path class="cls-4" d="M26.92 32.91c-2.08 5-6.31 8.46-10.68 12.24 2.3-.83 9.52-4.04 10.68-12.24z"/><path class="cls-5" d="M26.92 32.91a16.9 16.9 0 0 0 .08-3.35L15.56 45.38c.06 0 .31-.09.68-.23 4.37-3.79 8.6-7.29 10.68-12.24z"/><path class="cls-6" d="M30.85 70.15a7.94 7.94 0 0 1 3 .42 10.09 10.09 0 0 1 3.3 2 15.07 15.07 0 0 1 2.21 2.59c.25.37.44.68.57.9l.2.34-.18-.35c-.11-.23-.28-.55-.5-.94a14.86 14.86 0 0 0-2.06-2.78A10.2 10.2 0 0 0 34 70a7.73 7.73 0 0 0-3.21-.56 6.24 6.24 0 0 0-3.12 1 10.18 10.18 0 0 0-2.85 2.91 15.09 15.09 0 0 0-1.58 3.08 12.1 12.1 0 0 0-.44 1.4 12.45 12.45 0 0 1 .53-1.36 15.32 15.32 0 0 1 1.75-2.92A10.09 10.09 0 0 1 28 71a6.12 6.12 0 0 1 2.85-.85z"/><path class="cls-6" d="M31.24 74.48a15.48 15.48 0 0 0-5.29 1.38c-.46.19-.88.46-1.27.66l-1 .65-.86.68 1-.5 1.06-.44c.41-.12.84-.3 1.31-.41a23.1 23.1 0 0 1 5.13-.66 32.61 32.61 0 0 1 5.21 0c1 .08 1.86.24 2.52.35l1.06.23-1-.43a23.35 23.35 0 0 0-2.46-.82 18.78 18.78 0 0 0-5.41-.69z"/><g class="cls-13"><path class="cls-14" d="M43.72 65.34v-3.73H19v5.47c7.6-3.9 16.4-3.64 24.72-1.74z"/></g><g class="cls-13"><path class="cls-15" d="M43.72 67.49v-2.15C35.4 63.44 26.6 63.18 19 67.08v3.11c7.71-3.34 16.85-5.24 24.72-2.7z"/></g><g class="cls-13"><path class="cls-16" d="M19 70.19v15.58h24.72V67.49c-7.87-2.54-17.01-.64-24.72 2.7z"/></g><path class="cls-10" d="M73.54 73.74c-1.92-2.67-4.79-4.79-8.12-5s-6 2.39-7.83 5a30.28 30.28 0 0 1 15.95 0z"/><path class="cls-11" d="M57.59 73.74c-.36.49-.68 1-1 1.45 5.64-1.84 12.57-2.35 18 .32a14.82 14.82 0 0 0-1.09-1.77 30.28 30.28 0 0 0-15.91 0z"/><path class="cls-3" d="M68.55 70.64a5.08 5.08 0 0 0-.55-1.33 7.46 7.46 0 0 0-4.79-.23 4.89 4.89 0 0 0-.6 1.23c1.86-.55 4.07-.91 5.94.33z"/><path class="cls-5" d="M62.61 70.31a4.51 4.51 0 0 0 .23 3.51 20.7 20.7 0 0 1 5.59 0 5.72 5.72 0 0 0 .12-3.18c-1.87-1.24-4.08-.88-5.94-.33z"/><path class="cls-6" d="M65.65 69.13a9.11 9.11 0 0 1 2.85.7 11.33 11.33 0 0 1 3.18 2 14.22 14.22 0 0 1 2.19 2.46c.49.71.76 1.19.76 1.19a14.46 14.46 0 0 0-2.72-3.89 11.32 11.32 0 0 0-3.18-2.31 8.58 8.58 0 0 0-3-.85 6.37 6.37 0 0 0-3.12.55 10.56 10.56 0 0 0-3.17 2.34A18.12 18.12 0 0 0 57.35 74c-.47.73-.73 1.21-.73 1.21s.3-.46.82-1.15a18.59 18.59 0 0 1 2.22-2.45 10.51 10.51 0 0 1 3.15-2.05 6.32 6.32 0 0 1 2.84-.43z"/><path class="cls-6" d="M65.68 73a22.42 22.42 0 0 0-5.5.93c-1 .28-1.87.6-2.52.85l-1 .43 1.1-.23c.68-.12 1.6-.28 2.59-.39a44.24 44.24 0 0 1 5.38-.24 30.37 30.37 0 0 1 5.34.25 19.46 19.46 0 0 1 2.54.57l1.06.36-1-.55a17.68 17.68 0 0 0-2.46-1 18.49 18.49 0 0 0-5.53-.98z"/><g class="cls-13"><path class="cls-14" d="M79.29 63.4v-2.54H54.61v5.37c7.18-3.1 16.39-3.98 24.68-2.83z"/></g><g class="cls-13"><path class="cls-15" d="M79.29 65v-1.6c-8.3-1.15-17.5-.27-24.68 2.84v2.08c7.47-3.94 16.12-3.89 24.68-3.32z"/></g><g class="cls-13"><path class="cls-16" d="M54.61 68.31V85h24.68V65c-8.56-.57-17.21-.62-24.68 3.31z"/></g><path class="cls-6" d="M23.8 39.22a18.38 18.38 0 0 1-4.45 4.19 21 21 0 0 1-2.61 1.46c-.71.33-1.18.49-1.18.49s.49-.11 1.23-.36a19.89 19.89 0 0 0 2.79-1.21 16.88 16.88 0 0 0 3-2 10 10 0 0 0 1.16-1.09 6.55 6.55 0 0 0 .81-.95c.2-.28.46-.61.71-1l.74-1.43.61-1.68.39-1.76a16.22 16.22 0 0 0 .14-3L27 29.56v1.28a16.87 16.87 0 0 1-.44 3L26 35.45 25.29 37l-.79 1.29c-.25.37-.5.71-.7.93z"/><path class="cls-17" d="M44.16 61.31c-1.07-.9-2.91-1-4.19-1.05a76.61 76.61 0 0 0-10.65.13 93 93 0 0 0-6.23.57c-1.55.2-3.94.21-5.13 1.4a2.63 2.63 0 0 0-.5.75c8.64-2.47 17.65-2.31 26.7-1.8zm36.3.26c-1.21-3.25-7.23-2.21-16.08-1.95-2 .06-4 .23-6 .41a10.12 10.12 0 0 0-3.92.76 2.91 2.91 0 0 0-1.32 1.46c8.86-2.05 18.39-2.96 27.32-.68z"/><path class="cls-18" d="M53.11 83.67a3.79 3.79 0 0 0 .72 1.33c1 1.12 3.06 1.16 4.44 1.27a76.61 76.61 0 0 0 10.65-.13 93 93 0 0 0 6.23-.57c1.55-.2 3.94-.21 5.13-1.4a2.4 2.4 0 0 0 .34-.45c-9.27 1.8-19.07 3.16-27.51-.05zm-6.68-15.96a8.76 8.76 0 0 1 5.29-.63 3.63 3.63 0 0 0-5.29.63z"/><path class="cls-19" d="M81.3 76.49a84.08 84.08 0 0 0-.66-14.23 3.42 3.42 0 0 0-.18-.69c-8.93-2.29-18.51-1.37-27.37.69a6 6 0 0 0-.37 1.74c0 .35-.07.71-.1 1.08v.09a8.34 8.34 0 0 0-1.09-.3c-1.68.89-3.36.54-5 .49-.32.12-.6.25-.84.37-.12-1.62-.41-3.26-1.23-4.16a2.41 2.41 0 0 0-.25-.22c-9.06-.51-18.06-.67-26.69 1.79-.93 1.86-.52 5.23-.58 6.86a84.08 84.08 0 0 0 .66 14.23 3.16 3.16 0 0 0 .31 1c9 2.17 18.05 1.15 27.08-.65a7.82 7.82 0 0 0 .63-3.08 73.27 73.27 0 0 0 .17-12.39v-1.07l.69-.32a3.63 3.63 0 0 1 5.29-.63 6.09 6.09 0 0 1 .72.21 72.86 72.86 0 0 0 0 10.14c.12 1.61 0 4.36.66 6.24 8.45 3.21 18.24 1.85 27.5 0 1.04-1.74.61-5.43.65-7.19zm-38.11 3.67c-.14 1.39-.1 2.73-1.49 3.51a8.39 8.39 0 0 1-3.25.63c-1.67.16-3.34.29-5 .34-7.81.23-13 1.2-13.48-2.18a69.7 69.7 0 0 1-.55-11.8c0-1.59-.4-5.11.86-6.37 1-1 3-1 4.25-1.16 1.71-.22 3.44-.36 5.16-.47a63.51 63.51 0 0 1 8.83-.11c1.14.09 2.84.12 3.68 1.05 1.2 1.33 1 4.57 1.14 6.28a60.74 60.74 0 0 1-.15 10.28zM78 82.23c-1 1-3 1-4.25 1.16-1.71.22-3.44.36-5.16.47a63.51 63.51 0 0 1-8.83.11c-1.14-.09-2.84-.12-3.68-1.05-1.2-1.33-1-4.57-1.14-6.28A60.74 60.74 0 0 1 55 66.36c.14-1.39.1-2.73 1.49-3.51a8.39 8.39 0 0 1 3.25-.63c1.67-.16 3.34-.29 5-.34 7.81-.23 13-1.2 13.48 2.18a69.7 69.7 0 0 1 .55 11.8c.02 1.59.46 5.14-.77 6.37z"/><path class="cls-17" d="M51.52 64.83a8.93 8.93 0 0 0-5 .49c1.64.04 3.32.4 5-.49z"/><path class="cls-18" d="M17.91 85.22c1.45 2.91 7.36 1.93 16 1.68 2-.06 4-.23 6-.41a10.12 10.12 0 0 0 3.92-.76A2.92 2.92 0 0 0 45 84.57c-9 1.8-18.06 2.82-27.09.65z"/><path class="cls-20" d="M81.3 76.49a84.08 84.08 0 0 0-.66-14.23c-.62-4.08-6.84-2.91-16.26-2.63-2 .06-4 .23-6 .41a10.12 10.12 0 0 0-3.92.76c-1.67.93-1.64 2.55-1.8 4.23v.09a9 9 0 0 0-7 .56c-.12-1.62-.41-3.26-1.23-4.16-1-1.12-3.06-1.16-4.44-1.27a76.61 76.61 0 0 0-10.65.13 93 93 0 0 0-6.23.57c-1.55.2-3.94.21-5.13 1.4-1.51 1.52-1 5.76-1 7.68a84.08 84.08 0 0 0 .66 14.23c.62 4.08 6.84 2.91 16.26 2.63 2-.06 4-.23 6-.41a10.12 10.12 0 0 0 3.92-.76c1.67-.93 1.64-2.55 1.8-4.23a73.27 73.27 0 0 0 .17-12.39v-1.07c1.33-.66 4.08-1.71 6.7-.74a72.86 72.86 0 0 0 0 10.14c.15 2.06-.07 6 1.38 7.57 1 1.12 3.06 1.16 4.44 1.27a76.61 76.61 0 0 0 10.65-.13 93 93 0 0 0 6.23-.57c1.55-.2 3.94-.21 5.13-1.4 1.46-1.52.93-5.76.98-7.68zm-38.11 3.67c-.14 1.39-.1 2.73-1.49 3.51a8.39 8.39 0 0 1-3.25.63c-1.67.16-3.34.29-5 .34-7.81.23-13 1.2-13.48-2.18a69.7 69.7 0 0 1-.55-11.8c0-1.59-.4-5.11.86-6.37 1-1 3-1 4.25-1.16 1.71-.22 3.44-.36 5.16-.47a63.51 63.51 0 0 1 8.83-.11c1.14.09 2.84.12 3.68 1.05 1.2 1.33 1 4.57 1.14 6.28a60.74 60.74 0 0 1-.15 10.28zM78 82.23c-1 1-3 1-4.25 1.16-1.71.22-3.44.36-5.16.47a63.51 63.51 0 0 1-8.83.11c-1.14-.09-2.84-.12-3.68-1.05-1.2-1.33-1-4.57-1.14-6.28A60.74 60.74 0 0 1 55 66.36c.14-1.39.1-2.73 1.49-3.51a8.39 8.39 0 0 1 3.25-.63c1.67-.16 3.34-.29 5-.34 7.81-.23 13-1.2 13.48 2.18a69.7 69.7 0 0 1 .55 11.8c.02 1.59.46 5.14-.77 6.37z"/><path class="cls-6" d="M49.81 103.16c-.64 0-1.91 0-3-.08l-2.07-.16s.94.22 2.05.39a26.11 26.11 0 0 0 3 .3 21 21 0 0 0 3.05-.21 19.37 19.37 0 0 0 2.05-.4s-1 .13-2.07.17-2.37.01-3.01-.01z"/><path class="cls-21" d="M131.86 54.47l-.72 9.3-3.23-.25.72-9.3-2.92-.22.2-2.64 9 .7-.2 2.64zM146.9 53l-.9 11.92-3.24-.25.38-4.86-3.76-.29-.38 4.86-3.24-.25.93-11.94 3.24.25-.34 4.43 3.76.29.34-4.43zm8.94 10l-.2 2.63-7.09-.55.93-11.94 7.09.55-.2 2.59-3.86-.3-.15 1.88 3.57.28-.2 2.59-3.57-.28-.16 2.29zm12.71-5.68l-.72 9.3-3.23-.25.72-9.3-2.91-.23.2-2.64 9 .7-.2 2.64zm7.45 5.56l-.34 4.35-3.22-.23.93-12 3.91.3q4.87.38 4.6 3.91a3.53 3.53 0 0 1-2.28 3.05l3.08 5.47-3.68-.24-2.19-4.54zm.4-5.15l-.21 2.73h.6q1.7.13 1.81-1.36.1-1.23-1.56-1.36zm15.2-1.28l3.23.25-.56 7.19a4.84 4.84 0 0 1-1.61 3.53 5.25 5.25 0 0 1-3.89 1 5.35 5.35 0 0 1-3.7-1.54 4.77 4.77 0 0 1-1-3.7l.56-7.26 3.24.25-.54 7a2.92 2.92 0 0 0 .33 1.87 1.73 1.73 0 0 0 1.38.69 1.68 1.68 0 0 0 1.45-.46 3.05 3.05 0 0 0 .59-1.82zm10.8 3.5l-.72 9.3-3.23-.25.72-9.3-2.91-.23.2-2.64 9 .7-.2 2.64zm15.05-1.49l-.93 11.94-3.24-.25.38-4.86-3.75-.29-.38 4.86-3.24-.25.93-11.94 3.24.25-.34 4.43 3.76.29.34-4.43zM114.51 72.91a4.27 4.27 0 0 1 1.23-3 4.52 4.52 0 0 1 5.76.44 5.26 5.26 0 0 1-.48 6.11 4.49 4.49 0 0 1-5.76-.46 4.29 4.29 0 0 1-.75-3.09zm4.06-2q-1.62-.13-1.8 2.19t1.42 2.44a1.38 1.38 0 0 0 1.26-.47 3.1 3.1 0 0 0 .53-1.72 3.13 3.13 0 0 0-.26-1.79 1.37 1.37 0 0 0-1.15-.68zm7.18 3.97l-.22 2.9-2.15-.17.62-8 2.61.2q3.25.25 3.07 2.6a2.36 2.36 0 0 1-1.52 2l2.05 3.65-2.45-.06-1.46-3zm.27-3.43l-.14 1.82h.4q1.13.09 1.21-.91.06-.82-1-.91zm7.43 1.71a1 1 0 0 1-.36.75 1.18 1.18 0 0 1-.86.21 1.21 1.21 0 0 1-.82-.34 1.13 1.13 0 0 1 .12-1.53 1.22 1.22 0 0 1 .87-.21 1.19 1.19 0 0 1 .82.34 1 1 0 0 1 .23.78zm-.33 4.3a1 1 0 0 1-.36.75 1.18 1.18 0 0 1-.85.21 1.22 1.22 0 0 1-.82-.34 1.13 1.13 0 0 1 .11-1.54 1.23 1.23 0 0 1 .87-.2 1.19 1.19 0 0 1 .82.34 1 1 0 0 1 .23.78zm6.64 1.43l-2.16-.17.62-8 2.16.17zm9.08-2.81q.05-.69.25-2.23l-2 5.6-2.05-.16-1.18-5.86q0 1.43-.06 2.29l-.27 3.45-2.05-.17.62-8 2.87.22 1.22 5.78 2.07-5.52 2.87.22-.62 8-2-.15zm10.66 4.34l-2.35-.18-.27-1.52-2.59-.2-.52 1.48-2.36-.18 3.21-7.82 2.87.22zm-4.63-3.63l1.69.13Q156 74 156 73.43q-.21.74-1.13 3.35zm8.69.92l.13-1.66 3.44.27-.33 4.29a9.45 9.45 0 0 1-3.11.24 3.74 3.74 0 0 1-2.76-1.29 4.24 4.24 0 0 1-.77-3.1 4.06 4.06 0 0 1 1.33-2.94 4.23 4.23 0 0 1 3.17-.83 6.33 6.33 0 0 1 2.54.7l-.82 1.61a4.11 4.11 0 0 0-1.81-.57A1.86 1.86 0 0 0 163 75a2.64 2.64 0 0 0-.65 1.7 2.72 2.72 0 0 0 .33 1.75 1.62 1.62 0 0 0 1.3.69 3.6 3.6 0 0 0 .88 0l.1-1.25zm9.68 2.01l-.14 1.75-4.72-.37.62-8 4.72.37-.13 1.73L171 75l-.1 1.25 2.38.18-.13 1.72-2.36-.15-.12 1.5zm4.5-1.9a4.27 4.27 0 0 1 1.23-3 4.52 4.52 0 0 1 5.76.44 4.3 4.3 0 0 1 .74 3.13q-.21 2.71-2 3.51l1.77 2.39-2.68-.21-1.27-1.88a3.77 3.77 0 0 1-2.79-1.28 4.29 4.29 0 0 1-.76-3.1zm4.06-2q-1.62-.13-1.8 2.19t1.42 2.44a1.38 1.38 0 0 0 1.26-.47 3.1 3.1 0 0 0 .53-1.72 3.13 3.13 0 0 0-.26-1.79 1.37 1.37 0 0 0-1.15-.68zm10.04-.9l2.15.17-.37 4.79a3.23 3.23 0 0 1-1.07 2.35 3.5 3.5 0 0 1-2.59.66 3.57 3.57 0 0 1-2.46-1 3.18 3.18 0 0 1-.68-2.47l.38-4.84 2.16.17-.36 4.64a2 2 0 0 0 .22 1.25 1.16 1.16 0 0 0 .92.46 1.12 1.12 0 0 0 1-.31 2 2 0 0 0 .39-1.21zm10.33 8.81l-2.35-.18-.28-1.55-2.59-.2-.52 1.46-2.36-.18 3.21-7.79 2.87.22zm-4.63-3.63l1.69.13q-.53-2.89-.59-3.49-.18.74-1.1 3.36zm10.7 4.1l-5.21-.4.62-8 2.15.17-.48 6.22 3.06.24zm3.44.27l-2.16-.17.62-8 2.16.17zm5.72-5.8l-.48 6.2-2.15-.17.48-6.2-1.94-.15.14-1.76 6 .47-.14 1.76zm6.51 6.75l-2.17-.17.24-3-2.24-5.12 2.34.18 1.13 3.06 1.6-2.84 2.33.18-3 4.65zm-90.69 7.4l-2.16-.17.62-8 2.16.17zm1.53-2.2a6.17 6.17 0 0 0 1.26.6 4.68 4.68 0 0 0 1.14.26 1.33 1.33 0 0 0 .75-.1.5.5 0 0 0 .27-.41.46.46 0 0 0-.07-.29 1.19 1.19 0 0 0-.26-.26q-.17-.13-1-.58a5.49 5.49 0 0 1-1.16-.8 2.21 2.21 0 0 1-.63-1.83 2.07 2.07 0 0 1 .93-1.67 3.55 3.55 0 0 1 2.25-.45 6.2 6.2 0 0 1 2.48.77l-.79 1.61a4.8 4.8 0 0 0-1.89-.66 1.06 1.06 0 0 0-.61.09.43.43 0 0 0-.23.36.53.53 0 0 0 .21.44 8.76 8.76 0 0 0 1.24.76 3.73 3.73 0 0 1 1.36 1.12 2.11 2.11 0 0 1 .3 1.36 2.24 2.24 0 0 1-1 1.77 3.43 3.43 0 0 1-2.33.52 6.62 6.62 0 0 1-1.34-.22 5 5 0 0 1-1.07-.47zm9.66.74a6.17 6.17 0 0 0 1.26.6 4.68 4.68 0 0 0 1.14.26 1.33 1.33 0 0 0 .75-.1.5.5 0 0 0 .27-.41.46.46 0 0 0-.07-.29 1.19 1.19 0 0 0-.26-.26q-.17-.13-1-.58a5.49 5.49 0 0 1-1.16-.8 2.21 2.21 0 0 1-.63-1.83 2.07 2.07 0 0 1 .93-1.67 3.55 3.55 0 0 1 2.25-.45 6.2 6.2 0 0 1 2.48.77l-.79 1.61a4.8 4.8 0 0 0-1.89-.66 1.06 1.06 0 0 0-.61.09.43.43 0 0 0-.23.36.53.53 0 0 0 .21.44 8.76 8.76 0 0 0 1.24.76 3.73 3.73 0 0 1 1.37 1.12 2.11 2.11 0 0 1 .3 1.36 2.24 2.24 0 0 1-1 1.77 3.43 3.43 0 0 1-2.33.52 6.62 6.62 0 0 1-1.34-.22 5 5 0 0 1-1.07-.47zm11.86-4.76l2.15.17-.42 4.79a3.23 3.23 0 0 1-1 2.35 3.5 3.5 0 0 1-2.59.66 3.57 3.57 0 0 1-2.46-1 3.18 3.18 0 0 1-.68-2.47l.38-4.84 2.16.17-.36 4.67a2 2 0 0 0 .22 1.25 1.16 1.16 0 0 0 .92.46 1.12 1.12 0 0 0 1-.31 2 2 0 0 0 .39-1.21zm3.2 8.26l.62-8 2.78.22a4.71 4.71 0 0 1 2.37.67 1.64 1.64 0 0 1 .67 1.56 1.9 1.9 0 0 1-.43 1.12 1.55 1.55 0 0 1-1 .54v.05a1.89 1.89 0 0 1 1 .73 2 2 0 0 1 .25 1.22 2 2 0 0 1-.95 1.64 3.58 3.58 0 0 1-2.27.45zm2.65-6.17l-.12 1.43.65.05a1.17 1.17 0 0 0 .73-.14.67.67 0 0 0 .29-.55q.05-.67-1-.75zm.48 3.06l-.71-.06-.13 1.68.76.06q1 .08 1.07-.77a.74.74 0 0 0-.22-.63 1.24 1.24 0 0 0-.77-.28zm2.58 4.25a3.92 3.92 0 0 0 .79.18.87.87 0 0 0 .78-.26 2 2 0 0 0 .32-1.08l.57-7.37 2.17.17-.56 7.18a3.69 3.69 0 0 1-.9 2.4 2.66 2.66 0 0 1-2.18.66 5.18 5.18 0 0 1-1.11-.2zm10.59-1.64l-.14 1.75-4.72-.37.62-8 4.72.37-.13 1.73-2.57-.2-.1 1.25 2.38.18-.13 1.72-2.38-.18-.12 1.5zm7.08-3.54a4.43 4.43 0 0 0-1.78-.63 1.38 1.38 0 0 0-1.25.54 3 3 0 0 0-.57 1.7q-.18 2.29 1.57 2.43a5.67 5.67 0 0 0 2.06-.34l-.14 1.81a5.5 5.5 0 0 1-2.29.27 3.57 3.57 0 0 1-2.68-1.26 4.33 4.33 0 0 1-.72-3.09 4.71 4.71 0 0 1 .62-2.13 3.39 3.39 0 0 1 1.46-1.35 3.94 3.94 0 0 1 2.09-.34 5.62 5.62 0 0 1 2.42.75zm5.41.03l-.48 6.2-2.15-.17.48-6.2-1.94-.15.14-1.76 6 .47-.12 1.76zm4.74 6.61l-2.16-.17.62-8 2.16.17zm4.9-1.68a12.41 12.41 0 0 1 .5-1.78l1.42-4 2.41.19-3.23 7.74-2.53-.2-2-8.16 2.42.19.77 4.12a12.38 12.38 0 0 1 .24 1.9zm9.43 1.03l-.14 1.75-4.72-.37.62-8 4.72.37-.13 1.73-2.57-.2-.1 1.25 2.38.18-.13 1.72-2.38-.18-.12 1.5z"/><path class="cls-22" d="M89.92 64.91a4.09 4.09 0 0 0-1.12-2.19 2.92 2.92 0 0 0-2.49-.65h-.18v-.13a30.44 30.44 0 0 1 1.58-8.09c.4-1.4.86-2.76 1.24-4.27a13.05 13.05 0 0 0 .29-4.72 16.7 16.7 0 0 0-1.39-4.57l-1-2.13a9.82 9.82 0 0 1-.66-2.06 56.9 56.9 0 0 1-.64-9.19c0-1.57-.11-3.15-.26-4.73-.08-.8-.15-1.56-.31-2.38a11.47 11.47 0 0 0-.7-2.42 10.34 10.34 0 0 0-3-4.06 9.79 9.79 0 0 0-4.55-2 9.08 9.08 0 0 0-2.51 0c-.92.16-1.47.33-2.13.43a11.84 11.84 0 0 1-3.78 0 7.49 7.49 0 0 1-3.15-1.21 9.1 9.1 0 0 1-1.08-1.22c-.39-.49-.79-1-1.21-1.49a14.74 14.74 0 0 0-6-4.49 14.14 14.14 0 0 0-6.32-.79A24.44 24.44 0 0 0 44 4.08a31.23 31.23 0 0 0-3.59 1.63q-.91.48-1.83 1l-.92.58-.46.31-.23.16H36c-.34 0-.68 0-1 .06a19 19 0 0 0-2 .3 28.8 28.8 0 0 0-4 1.2c-1.3.48-2.59 1-3.87 1.65-.64.31-1.33.74-2 1.14a17.69 17.69 0 0 0-1.77 1.46A26.66 26.66 0 0 0 16.12 21a43.92 43.92 0 0 0-1.86 4.18c-.28.71-.53 1.43-.78 2.16l-.35 1.1-.16.53-.06.22-.48.3c-.26.18-.52.37-.76.58a13.19 13.19 0 0 0-1.36 1.3 15 15 0 0 0-2.09 3A21.93 21.93 0 0 0 6 41.14 36.41 36.41 0 0 0 5.47 48a29 29 0 0 0 .22 3.33c.07.55.15 1.09.25 1.62.05.25.11.56.17.77l.13.47A7.42 7.42 0 0 0 3.49 58 11.76 11.76 0 0 0 3 62.61a5.78 5.78 0 0 0 2 3.79 7.55 7.55 0 0 0 1.7 1.1l.43.18A16.24 16.24 0 0 0 7 70.06a20.39 20.39 0 0 0 .18 3A30.09 30.09 0 0 0 9 79.64a30.74 30.74 0 0 0 2.9 5.79 14.57 14.57 0 0 1-.29 2.75 10 10 0 0 1-.47 1.61 5.08 5.08 0 0 1-.82 1.42c-.34.46-.72.92-1.05 1.44a4.2 4.2 0 0 0-.76 1.79 2.25 2.25 0 0 0 .77 1.93 3.14 3.14 0 0 0 .84.61l.54.15a2.66 2.66 0 0 0 .56 0 3.4 3.4 0 0 0 1.78-.86 8.39 8.39 0 0 0 1.22-1.4c.14-.2.26-.41.39-.61a21.19 21.19 0 0 1-1 6 9.2 9.2 0 0 1-1.75 3.06 13.57 13.57 0 0 1-2.39 1.83 14.93 14.93 0 0 0-2.65 2.07 3.83 3.83 0 0 0-1.05 1.91 3.47 3.47 0 0 0 .41 2.34 9.14 9.14 0 0 0 3.17 3.37 9.81 9.81 0 0 0 4.65 1.41 13.72 13.72 0 0 0 5.07-.73 14.52 14.52 0 0 0 2.39-1.06c.77-.45 1.45-.91 2.17-1.32a9.5 9.5 0 0 1 4.54-1.47h.38a57.76 57.76 0 0 0 11.8 13.13c2.53 2 5.37 2.53 8.85 2.71h.63c.88 0 1.83.1 2.8.1a11.37 11.37 0 0 0 5.79-1.23c3.82-2.28 7.31-6 10.5-9.71a36.14 36.14 0 0 0 3.95-5.56c.15.16.3.31.48.47a9.41 9.41 0 0 0 3.48 1.95 8.32 8.32 0 0 0 4.84.12 9.52 9.52 0 0 0 4.43-2.84 13.16 13.16 0 0 0 2.64-4.47 16.87 16.87 0 0 0 .78-8.18 16.28 16.28 0 0 0-.8-3 20.78 20.78 0 0 0-1.72-3.4 25.76 25.76 0 0 1-2.47-5.91 12.38 12.38 0 0 0 2.2-2.58 16.49 16.49 0 0 0 1.8-4.17 41.52 41.52 0 0 0 1.26-7c.08-.84.19-1.87.29-3.08a14.9 14.9 0 0 0-.16-4.11z"/></g></g></svg>