<svg xmlns="http://www.w3.org/2000/svg" viewBox="0 0 231.67 117.68"><defs><style>.cls-1{isolation:isolate}.cls-2{fill:#f3a712}.cls-3{fill:#302012}.cls-4{fill:#1e130a}.cls-5{fill:#443e39}.cls-6{fill:#d3bba7}.cls-7{fill:#f9e3cf}.cls-8{fill:#fff}.cls-9{fill:#e5e5e5}.cls-10{fill:#442f1f}.cls-11{fill:#474747}.cls-12{fill:#666}.cls-13{fill:#5b5b5b}.cls-14{opacity:.5;mix-blend-mode:multiply;fill:url(#linear-gradient)}.cls-15{fill:#ba1200}</style><linearGradient id="linear-gradient" x1="177.54" y1="55.13" x2="264.88" y2="258.46" gradientUnits="userSpaceOnUse"><stop offset="0" stop-color="#fff"/><stop offset=".12" stop-color="#ded8d3"/><stop offset=".13" stop-color="#dbd4cf"/><stop offset=".3" stop-color="#b3a599"/><stop offset=".46" stop-color="#927d6c"/><stop offset=".62" stop-color="#785f49"/><stop offset=".76" stop-color="#65492f"/><stop offset=".89" stop-color="#5a3c20"/><stop offset="1" stop-color="#56371b"/></linearGradient></defs><title>kramer</title><g class="cls-1"><g id="Vector"><path class="cls-2" d="M231.56 65.52a11.59 11.59 0 0 0-.68-2.65 4.84 4.84 0 0 0-2.73-2.87H228a15.12 15.12 0 0 0 .53-3.17 25.16 25.16 0 0 0-.49-5.66l-.09-.57c-.24-1.4-.51-2.78-.78-4.17l-.29-1.49a89.31 89.31 0 0 1-.93-5.48 54.33 54.33 0 0 1-.41-5.46v-1.85c0-1.28 0-2.61-.15-4a16.21 16.21 0 0 0-1.64-6.46 10.22 10.22 0 0 0-5.75-4.81c-.17-.05-.27-.09-.54-.15a2 2 0 0 0-.36 0 2.94 2.94 0 0 0-2 .53 2.88 2.88 0 0 0-.73.84 19.51 19.51 0 0 0-2.06-4.56 6 6 0 0 0-.8-1 3.2 3.2 0 0 0-1.19-.75 2.79 2.79 0 0 0-1.67 0c-.24-.92-.48-1.7-.74-2.4a23.1 23.1 0 0 1-.25-.89 18.17 18.17 0 0 0-.6-2l-.06-.22a4.51 4.51 0 0 0-.63-1.09 3.15 3.15 0 0 0-.5-.5 2 2 0 0 0-.41-.28l-.51-.22a2 2 0 0 0-.54-.12 3 3 0 0 0-2 .55 4.29 4.29 0 0 0-1.06 1.18c-.17.26-.31.51-.45.77l-.16.3a8.3 8.3 0 0 1-1 1.6 2.55 2.55 0 0 1-1.21.74h-.26a1.89 1.89 0 0 1-.15-.33.83.83 0 0 0 0-.12 3.11 3.11 0 0 1 0-.38c0-.67.11-1.39.2-2.15l.07-.62a12.61 12.61 0 0 0 .11-1.59 9.51 9.51 0 0 0 0-1v-.21a3.89 3.89 0 0 0-.44-1.43l-.1-.17A2.78 2.78 0 0 0 196 0a2.91 2.91 0 0 0-2.12.45 3.83 3.83 0 0 0-.68.58l-.11.12-.3.35a16.46 16.46 0 0 0-1 1.38 31.51 31.51 0 0 0-1.72 3 22.4 22.4 0 0 0-.83 1.82l-.37.86v-.39l-.09-1.91a2.56 2.56 0 0 0-.08-.64v-.1a2.65 2.65 0 0 0-.54-1 2.59 2.59 0 0 0-2.55-.83 3.21 3.21 0 0 0-2.29 2.4 6.59 6.59 0 0 0-.14.84v.27l-.11.8c0 .22-.06.44-.09.66a7.38 7.38 0 0 1-.14.88 12.26 12.26 0 0 1-.92 2.59 44.75 44.75 0 0 1-3.58 6c-.68 1-1.33 2-1.84 2.87a17.36 17.36 0 0 0-1.89 1.82A21.49 21.49 0 0 0 170.4 30a22.72 22.72 0 0 0-1.31 6.32 49.86 49.86 0 0 0 .69 10.58l-.53 1.91v.17L168 55.64a3.27 3.27 0 0 0-.85.93 4.79 4.79 0 0 0-.69 1.93v.16a5 5 0 0 0 .07 1.94v.13a3.13 3.13 0 0 0 .22.51 4.16 4.16 0 0 0 .37 2.27 5.94 5.94 0 0 0 .83 1.33 6.54 6.54 0 0 0-1.15 2 5.26 5.26 0 0 0 .28 4.2l.17.31a9 9 0 0 0-.61 1.55 14.25 14.25 0 0 0-.09 6.36c.27 1.72.68 3.46 1.07 5.14l.13.55c.33 1.36.6 2.76.88 4.24l.28 1.45c.51 2.59 1.12 5.4 1.85 8.56-2.35 1-5.19 2.25-7.54 3.31l-6.53 2.94v-3.34a3.16 3.16 0 0 0-.27-1.33 3.89 3.89 0 0 0-2.09-2 7 7 0 0 0-1.85-.49 16.21 16.21 0 0 0-3.13-.06 17.71 17.71 0 0 0-3.15.41 7.05 7.05 0 0 0-1.8.67 3.67 3.67 0 0 0-2 2.83v5.92l-.07 2.92v.85a15 15 0 0 0 .05 2.37 3.75 3.75 0 0 0 .61 1.59 3.59 3.59 0 0 0 1.5 1.21 6.81 6.81 0 0 0 1.69.43h.22a19.16 19.16 0 0 0 2.82.21h.3a17 17 0 0 0 3.09-.33l.28-.06a6.59 6.59 0 0 0 3.05-1.21 3.36 3.36 0 0 0 1.28-2.79l11.93-6.25 3.1-1.68c.34 1.36.68 2.73 1.06 4.16a16.74 16.74 0 0 0 1.48 3.66 7.15 7.15 0 0 0 3.84 3.36 26 26 0 0 0 7.44 1 54.85 54.85 0 0 0 7-.41 31.78 31.78 0 0 0 7.24-1.31 16.69 16.69 0 0 0 3.64-1.61 21.76 21.76 0 0 0 3.08-2.25 57.88 57.88 0 0 0 3.64-3.48l1.29-1.29 1.34-1.29a45.3 45.3 0 0 0 3.44-3.51 16.51 16.51 0 0 0 2.15-3.13 18.08 18.08 0 0 0 1.31-3.43c.39-1.4.66-2.76.92-4.08.14-.7.27-1.4.42-2.08.54-2.43 1-4.66 1.42-6.79a17.88 17.88 0 0 0 3.75-3.09 22 22 0 0 0 1.46-1.68 13 13 0 0 0 1.3-2.16l.05-.11a21.19 21.19 0 0 0 1.7-4.9 15.87 15.87 0 0 0 .34-5.38z"/><path class="cls-3" d="M179.91 21.28c-3.61 2-7.32 7.13-8.14 13.63a36.9 36.9 0 0 0-.11 6.71c2.47-1.13 4.53-2.85 5.31-5.43 2 .83 3.55 2 5.42 2.94L184 22.8z"/><path class="cls-4" d="M177 36.18c-.78 2.58-2.84 4.3-5.31 5.43a69 69 0 0 0 1.11 8.54l8.44 1.06 1.18-12.09c-1.89-.91-3.48-2.12-5.42-2.94z"/><path class="cls-5" d="M171.19 36.41a53.67 53.67 0 0 0 1.26 13.24l.12.55v.15h.49l.88.09 1.68.17 2.87.29 2.69.27-2.67-.41-2.85-.43-1.66-.2-.87-.13H173s-.08 0-.07-.07l-.05-.34a61.8 61.8 0 0 1-.8-13.1 22.51 22.51 0 0 1 1-5.62 19.56 19.56 0 0 1 3.41-6.4 14.35 14.35 0 0 1 2.51-2.41 6.68 6.68 0 0 1 .64-.45l.29-.18c.09 0 .15 0 .28.06l1.28.44 2.55.88-2.51-1-1.25-.5-.19-.08c-.07 0-.15-.09-.21 0l-.36.21a6.88 6.88 0 0 0-.68.43 14.55 14.55 0 0 0-2.62 2.33 19.65 19.65 0 0 0-3.79 6.44 20.81 20.81 0 0 0-1.24 5.77z"/><path class="cls-6" d="M208.57 69.87a46.44 46.44 0 0 0-14.78 2.71c4.72 4.53 12.21 1.56 14.78-2.71zM194.28 62A24.93 24.93 0 0 0 208 59.83c-5.07-.09-9.43-.62-13.72 2.17zm1.48-32.88s-12.47 1.12-19.62 10.55a7.27 7.27 0 0 0 5 2.14 8.9 8.9 0 0 0 9 1.43 15.78 15.78 0 0 0 13.08-.91c3.36 1.21 6.71.45 10.07-1.11a27.62 27.62 0 0 1 2.26-5.35 25.29 25.29 0 0 0-19.79-6.75z"/><path class="cls-7" d="M218.56 39.35a21.55 21.55 0 0 0-3-3.49 27.62 27.62 0 0 0-2.26 5.35l.79-.37-.79.37-.21.63.21-.63c-3.36 1.56-6.71 2.33-10.07 1.11a15.78 15.78 0 0 1-13.08.91 8.9 8.9 0 0 1-9-1.43 7.27 7.27 0 0 1-5-2.14 23.54 23.54 0 0 0-4.3 9.67c-.61 3.16-1.07 6.38-1.76 9.53 3.38.09 6.34.52 9.26 2.45-2.94 1.65-6.37.55-9.91.35a1.46 1.46 0 0 0 .06.45c.65 2 3.34 2.43 3.3 5.06 0 1.43-1 2.47-1.92 3.51 3-.49 5.54.56 8.48-.19-2.21 3.86-6.59 4.13-10.06 2.86A9.16 9.16 0 0 0 169 77c.34 3.47 1.44 7 2.08 10.46a284.67 284.67 0 0 0 4.08 18.31 31.82 31.82 0 0 0 1.48 5c9.11 4.07 19.18 2.4 28.45-.55 1.83-1.5 3.49-3.29 5.08-4.86 2.09-2.07 4.67-4.2 6.22-6.74 1.69-2.77 2.09-6.44 2.77-9.54 1.9-8.56 3.52-17.07 3.8-25.86.26-7.93.25-17.07-4.4-23.87zM208 59.83A24.93 24.93 0 0 1 194.28 62c4.29-2.79 8.65-2.26 13.72-2.17zm-18.32 30c-1.81 3.07-7.78 4.3-9.31 0zm-9.08 7.92a24.35 24.35 0 0 1 8.52.12 38 38 0 0 0-10.74 1.51c.71-.53 1.45-1.11 2.19-1.62zm8 4.32a8 8 0 0 0-3.24 2.2 2.52 2.52 0 0 0-.44 1.69 4.38 4.38 0 0 0-3.61 3.31c-.53-2 .85-3.55 2.79-4.5v-2.93c-.87-.87-2.51.54-3.57-.42a21.93 21.93 0 0 1 11.15.13 9.82 9.82 0 0 1-3.08.53zm5.2-29.5a46.44 46.44 0 0 1 14.78-2.71c-2.58 4.28-10.07 7.25-14.79 2.73z"/><path class="cls-6" d="M189.66 89.84h-9.31c1.53 4.3 7.5 3.07 9.31 0zm-10.31-28.52c-2.92-1.93-5.88-2.35-9.26-2.45-.06.28-.11.57-.18.85a9 9 0 0 0-.46 1.95c3.55.2 6.95 1.33 9.9-.35zm-2.71 49.44a5.26 5.26 0 0 0 3.06 3.24c4.06 1.21 9.22.92 13.35.44a27.33 27.33 0 0 0 7.86-1.63 15.85 15.85 0 0 0 4.18-2.59c-9.27 2.93-19.34 4.61-28.45.54zm3.88-9.34c1.07 1 2.7-.45 3.57.42h5l-.49.24a9.82 9.82 0 0 0 3.07-.53 21.93 21.93 0 0 0-11.15-.13z"/><path class="cls-6" d="M184.09 101.84v2.93c-1.94.94-3.32 2.54-2.79 4.5a4.38 4.38 0 0 1 3.61-3.31 2.52 2.52 0 0 1 .44-1.69c.79-1.16 2.46-1.8 3.74-2.44zm-3.52-4.08c-.74.51-1.48 1.09-2.22 1.63a38 38 0 0 1 10.74-1.51 24.35 24.35 0 0 0-8.52-.12zm-1.22-27.27c-2.93.75-5.44-.3-8.48.19-.22.26-.44.51-.63.77a6.46 6.46 0 0 0-1 1.9c3.53 1.27 7.91 1 10.11-2.86z"/><path class="cls-5" d="M222.8 48.63a23.81 23.81 0 0 0-4.86-10.91 24.9 24.9 0 0 0-9.65-6.93 25.16 25.16 0 0 0-8.91-1.89 19.63 19.63 0 0 0-2.67.11l-1 .11 1-.06a19.93 19.93 0 0 1 2.66 0 25.33 25.33 0 0 1 8.69 2.23 24.8 24.8 0 0 1 9.14 7 23.94 23.94 0 0 1 4.49 10.52 51.57 51.57 0 0 1 .79 10.29 104.08 104.08 0 0 1-1.6 18.41c-.6 3.54-1.37 7.35-2.25 11.28-.44 2-.74 4-1.3 6a15.14 15.14 0 0 1-1.09 2.85 13.47 13.47 0 0 1-1.75 2.53c-1.36 1.6-3 3-4.6 4.59s-3.09 3.19-4.76 4.62a15.18 15.18 0 0 1-5.62 3.25 29.17 29.17 0 0 1-6.57 1.18 53.78 53.78 0 0 1-6.73.4 22.75 22.75 0 0 1-6.5-.88 4.17 4.17 0 0 1-2.12-2 14 14 0 0 1-1.18-3c-.56-2.09-1.08-4.25-1.6-6.33-1-4.19-1.93-8.28-2.71-12.23-.38-2-.73-3.93-1.19-5.81s-.87-3.69-1.15-5.46a11.39 11.39 0 0 1 0-5 6 6 0 0 1 1-2c.47-.61 1-1.18 1.54-1.85a4.57 4.57 0 0 0 1-2.37 4.19 4.19 0 0 0-.11-1.28 3.77 3.77 0 0 0-.49-1 9.62 9.62 0 0 0-1.53-1.55 3.85 3.85 0 0 1-1.05-1.31 1 1 0 0 1-.11-.62 3.85 3.85 0 0 1 .17-.75c.08-.27.18-.54.26-.85l.19-.82c.23-1.06.42-2 .58-2.89l.69-4 .49-2.75.73-2.77a8.43 8.43 0 0 1 .5-1.38l.56-1.37a7.7 7.7 0 0 1 .67-1.33l.74-1.3a8.93 8.93 0 0 1 .85-1.23l.9-1.2c.65-.75 1.35-1.45 2-2.16s1.46-1.29 2.23-1.84a27.64 27.64 0 0 1 2.31-1.53 33.81 33.81 0 0 1 8.3-3.49 26.15 26.15 0 0 1 3.55-.75 25.34 25.34 0 0 0-3.59.58 33.23 33.23 0 0 0-8.54 3.17 27.53 27.53 0 0 0-2.42 1.48c-.81.53-1.56 1.2-2.36 1.81s-1.48 1.4-2.17 2.17l-1 1.22a9.42 9.42 0 0 0-.92 1.26l-.73 1.34a8.18 8.18 0 0 0-.73 1.37l-.62 1.42a8.93 8.93 0 0 0-.55 1.43l-.8 2.89-.52 2.75-.69 4a84.5 84.5 0 0 1-.57 2.86l-.18.79-.24.79a4.89 4.89 0 0 0-.22 1 2.18 2.18 0 0 0 .2 1.17c.62 1.43 2 2.08 2.69 3.06a2.49 2.49 0 0 1 .45 1.69 3.45 3.45 0 0 1-.77 1.79c-.43.59-1 1.15-1.52 1.83a7.09 7.09 0 0 0-1.22 2.4 12.44 12.44 0 0 0 0 5.47c.29 1.82.73 3.66 1.16 5.53s.79 3.78 1.18 5.78c.78 4 1.7 8.08 2.72 12.28.53 2.11 1 4.2 1.61 6.38a15 15 0 0 0 1.28 3.21 5.28 5.28 0 0 0 2.72 2.46 23.71 23.71 0 0 0 6.86.95 54.83 54.83 0 0 0 6.85-.41 30.26 30.26 0 0 0 6.8-1.22 14.81 14.81 0 0 0 3.21-1.42 20.2 20.2 0 0 0 2.8-2c1.74-1.49 3.26-3.14 4.82-4.68s3.23-3 4.67-4.67a14.57 14.57 0 0 0 1.89-2.74 16.25 16.25 0 0 0 1.17-3.06c.58-2.07.88-4.12 1.31-6.06.88-3.94 1.65-7.74 2.26-11.33s1-7 1.28-10.13.31-6 .33-8.5a52.71 52.71 0 0 0-.83-10.59z"/><path class="cls-8" d="M209.35 67.22c-.28-1.07-1.14-1.62-3.17-2.21-3.42-1-8.83-.29-8.83-.29-3.56.56-4.66 1.41-4.81 3.13 0 0-.37 2.64.4 4 5.51.06 13.06.58 16.41-4.63z"/><path class="cls-9" d="M192.93 71.85a1.44 1.44 0 0 0 1.07.79 32.62 32.62 0 0 0 10.72-.89c3.06-.78 4.75-1.74 4.75-3.53a3.9 3.9 0 0 0-.12-1c-3.35 5.21-10.9 4.69-16.42 4.63z"/><path class="cls-7" d="M190.83 88.41a2.37 2.37 0 0 0 0-.37 5.33 5.33 0 0 0-1.51-3.11l-5.43-19.45a23.58 23.58 0 0 1 .35 4.75c0 4.2-1.34 8-2.66 11.94-.68 2-1.73 4.22-1.68 6.41a3.36 3.36 0 0 0 .06.49c2.83 1.71 7.59.7 10.87-.66z"/><path class="cls-6" d="M180 89.07c.55 3.41 6.07 2.4 8.44 1.57 1.2-.42 2.28-1 2.42-2.23-3.31 1.36-8.07 2.37-10.86.66z"/><path class="cls-5" d="M180.85 85.68c.36-1.19 1.08-3 1.7-5.12a42.33 42.33 0 0 0 1.64-6.7 27.41 27.41 0 0 0 .1-5.91 13.47 13.47 0 0 0-.37-2.48 13.63 13.63 0 0 1 .23 2.48 27.78 27.78 0 0 1-.4 5.83 44.72 44.72 0 0 1-1.92 6.53c-.7 2.07-1.45 3.81-1.84 5.1a10.91 10.91 0 0 0-.47 2.41v.75c0 .26.06.55.12.83a2.88 2.88 0 0 0 1 1.51 5.3 5.3 0 0 0 3.47.84 14.92 14.92 0 0 0 3.46-.61 6.39 6.39 0 0 0 2.91-1.5 2.13 2.13 0 0 0 .52-1.38 3.41 3.41 0 0 0-.23-1.25 5.92 5.92 0 0 0-.94-1.57c-.27-.34-.44-.51-.44-.51s.16.19.41.54a5.87 5.87 0 0 1 .84 1.59 2.36 2.36 0 0 1-.37 2.4 6.14 6.14 0 0 1-2.82 1.26 14.67 14.67 0 0 1-3.36.43 4.71 4.71 0 0 1-3-.81 2.63 2.63 0 0 1-.71-2.43 11.4 11.4 0 0 1 .47-2.23z"/><path class="cls-5" d="M183.26 96.59a4.24 4.24 0 0 0 .55-.42 4.29 4.29 0 0 0 1-1.34 7.78 7.78 0 0 0 .72-3.41l-.9.06a10.42 10.42 0 0 1-.24 3.18 4.2 4.2 0 0 1-.66 1.41 2.46 2.46 0 0 1-.32.38zm2.47 4.85h-4.77a1.83 1.83 0 0 1-1-.58 6.92 6.92 0 0 1-.68-.78 9.21 9.21 0 0 1-.55-.8 8.77 8.77 0 0 0 .46.86 6.88 6.88 0 0 0 .61.86 2 2 0 0 0 1.09.77c1.78.16 3.77.29 4.78.32h3.44a6 6 0 0 0 1.39-.12 5.63 5.63 0 0 0 2.11-1 9.4 9.4 0 0 0 .76-.62s-.3.23-.82.53a5.54 5.54 0 0 1-2.11.75 5.79 5.79 0 0 1-1.3 0l-1.32-.09c-.82-.04-1.58-.09-2.09-.1z"/><path class="cls-5" d="M181.8 110.63a3.28 3.28 0 0 1-.38-1.16 3.15 3.15 0 0 1 .48-2.63 5 5 0 0 1 1.33-.93 3.51 3.51 0 0 0 .8-.52 1.82 1.82 0 0 0 .34-1 11.65 11.65 0 0 0-.17-2.77l-.89.16a15.73 15.73 0 0 1 .29 2.56 1.65 1.65 0 0 1-.09.58 3.28 3.28 0 0 1-.6.46 5.31 5.31 0 0 0-1.36 1.17 2.36 2.36 0 0 0-.48 1.62 6.72 6.72 0 0 0 .21 1.33 3.27 3.27 0 0 0 .52 1.13z"/><path class="cls-4" d="M211.77 84.82c-.24.75-.09 1.36.94 1.36a15.73 15.73 0 0 0 5.71-1.5c.88-.46.63-.87.25-2.17a7.08 7.08 0 0 1-.2-1.46c-1.89 2.42-3.98 4.73-6.7 3.77z"/><path class="cls-10" d="M186.67 8c0-.69 0-1.24-.06-1.74-.06-.67-.92-.46-1 .73s-.37 2.6-.37 2.6c-.6 3.26-3.31 7.23-5.37 10.16 3.98-2.75 5.8-7.11 6.8-11.75zM196 2.85c-.1-.41-.29-.65-.65-.42-.71.46-2.71 3.67-3.87 6.58a9.62 9.62 0 0 1-2 3.22c3.8-1.57 5.19-5.57 6.52-9.38zM205.18 8c-.24-.82-.52-1.53-.89-1.61-.75-.17-1.42 2.25-2.62 3.58a5 5 0 0 1-2.52 1.53c2.01.67 4.62-1.16 6.03-3.5zm5.82 7.74l-.33-.61c-.71-1.27-1.08-1.42-1.46-1s0 2.27-.25 3.09a.91.91 0 0 1-.64.66c1.82-.11 2.45-.98 2.68-2.14zm9.28 5.15A7.25 7.25 0 0 0 217 19c-1-.21-.21 2.6.42 4.48a2.36 2.36 0 0 1-.94 2.94c2.74-.99 4.16-2.67 3.8-5.53z"/><path class="cls-3" d="M226.13 54.05c-.54-4.62-2-10.39-2.58-15.12-.71-6.21 0-10.25-1.12-14.33a8.07 8.07 0 0 0-2.14-3.7c.36 2.85-1.07 4.54-3.8 5.53a3.49 3.49 0 0 1-.47.27.48.48 0 0 1-.38 0l-.53.15v-.62a10 10 0 0 1-1-2.36c-.44-1.31-1.37-2-1.58-3.79a12.92 12.92 0 0 0-1.53-4.34c-.21 1.15-.84 2-2.68 2.09h-.11c-.41 0-.86-.58-1.08-2.18a29 29 0 0 0-1.23-5.27c-.23-.55-.45-1.54-.7-2.39-1.41 2.35-4 4.18-6 3.5a4 4 0 0 1-1.36.1c-1.12-.12-1.8-1.42-2-2.42s.29-3.92.32-4.87a6.06 6.06 0 0 0-.16-1.45c-1.32 3.81-2.71 7.81-6.57 9.38a4.42 4.42 0 0 1-2 1.28c-1 .21-.75-2.46-.75-4.75v-.72c-1 4.6-2.82 9-6.82 11.75l-.3.43a28 28 0 0 0-3.08 5.63l-.37 7.81s.06 6.63 5.63 6.63c0 0 4.35 3.38 8.77 1.73 0 0 4.77 2.71 13.27-1.52 0 0 3.69 2.44 8.35-.75 0 0-.9 2.92.63 4.33 0 0-.37 1.42 1.54 5.67s2.48 12.35 2.15 15.4a118.59 118.59 0 0 1-2 12.37 37.19 37.19 0 0 1-2.54 6.92 3.5 3.5 0 0 0-.15.39c2.72 1 4.81-1.35 6.7-3.77a32.24 32.24 0 0 1 .41-6.24c.05-.35.13-.74.22-1.15.07-7.17 4.16-11.95 7.13-18a14.74 14.74 0 0 0-.09-1.62z"/><path class="cls-4" d="M219.1 73.65c.73-3.42 2.6-8.73 4.91-11.15.8-.77 2.25-3.14 2.23-6.83-2.99 6.04-7.07 10.81-7.14 17.98z"/><path class="cls-3" d="M215.62 26.7a1.23 1.23 0 0 1-.53-.47v.62z"/><path class="cls-10" d="M210.4 55.22a18.06 18.06 0 0 0-5.53-.19 30 30 0 0 0-10.32 2.48c-.72.33-1.56.62-1.89 1.39a2.77 2.77 0 0 0-.13.45 65.3 65.3 0 0 1 18.6-3.41 1.16 1.16 0 0 0-.73-.72z"/><path class="cls-3" d="M211.17 58.76a4.14 4.14 0 0 0 0-2.82 65.3 65.3 0 0 0-18.6 3.41 4.41 4.41 0 0 0 .06 2.17 2.16 2.16 0 0 0 .15.37 28.81 28.81 0 0 1 18.39-3.13z"/><path class="cls-4" d="M192.73 61.89c.42.8 1.07.29 1.93-.08a23.44 23.44 0 0 1 5.49-1.56 42.55 42.55 0 0 1 6.41-.64c1.19 0 3.51.66 4.39-.44a1.61 1.61 0 0 0 .22-.4 28.81 28.81 0 0 0-18.44 3.12z"/><path class="cls-5" d="M188.23 76.32l-.08-2v-1.35s-.13.61-.23 1.34a14.86 14.86 0 0 0-.15 2 12.48 12.48 0 0 0 .25 2 13.08 13.08 0 0 0 .34 1.32s-.08-.62-.12-1.35-.01-1.55-.01-1.96zM198.49 79a20.11 20.11 0 0 1-2.49-2.73 33.14 33.14 0 0 1-2.92-4.58l-.4.21a26.6 26.6 0 0 0 3.15 4.51 19.31 19.31 0 0 0 2.66 2.59zm-12.41-23.91c.06-.84.21-2.52.46-4s.56-2.7.56-2.7-.43 1.2-.78 2.65a28.34 28.34 0 0 0-.69 4 24 24 0 0 0 0 4.05 24.73 24.73 0 0 0 .41 2.74 27.42 27.42 0 0 1-.18-2.75 36 36 0 0 1 .22-3.99z"/><path class="cls-8" d="M179.65 70.09a4 4 0 0 0 .23-2.33c-.41-2.92-5.37-3-7.62-2.72s-4.09 2.65-3.07 4.84a14.32 14.32 0 0 0 10.46.21z"/><path class="cls-9" d="M169.2 69.88a3.53 3.53 0 0 0 .55.85c1.09 1.24 3.2 1.33 4.7 1.21 2.27-.3 4.43-.31 5.2-1.85a14.32 14.32 0 0 1-10.45-.21z"/><path class="cls-10" d="M197.13 67.43a8.23 8.23 0 0 0-4.18-.9 4.73 4.73 0 0 0-.38 1.22 8.35 8.35 0 0 1 6.14 1.65 4.42 4.42 0 0 0-1.58-1.97z"/><path class="cls-3" d="M192.57 67.75a10.81 10.81 0 0 0 .05 3.32c.18 1.32 1 1.62 3 1.67s3.61-.08 3.61-.08a6.9 6.9 0 0 0-.57-3.25 8.35 8.35 0 0 0-6.09-1.66zm-23.65.61a3.59 3.59 0 0 0 2.08 3.21c.93.54 3.45.37 3.45.37a6.44 6.44 0 0 0-.71-3.7 7.21 7.21 0 0 0-4.37-1.38 3.31 3.31 0 0 0-.45 1.5z"/><path class="cls-10" d="M172.8 67.09a4.37 4.37 0 0 0-2.89-.83 1.87 1.87 0 0 0-.53.59 7.21 7.21 0 0 1 4.37 1.38 3.86 3.86 0 0 0-.95-1.14z"/><path class="cls-5" d="M196.17 64.47a8.89 8.89 0 0 0-2.45.83 3.13 3.13 0 0 0-1.23 1.2 4.26 4.26 0 0 0-.39 1.75 7.48 7.48 0 0 0 .49 3.64 2 2 0 0 0 .7.78 1.87 1.87 0 0 0 1 .27h1.8a33.31 33.31 0 0 0 6.11-.6 24.43 24.43 0 0 0 2.52-.62 25 25 0 0 1-2.55.48 33.93 33.93 0 0 1-6.07.29c-.58 0-1.17-.06-1.76-.12a1.27 1.27 0 0 1-1.18-.79 7 7 0 0 1-.29-3.3c-.07-2.37 2.32-2.67 3.5-3a29.21 29.21 0 0 1 5.49-.51 18.78 18.78 0 0 1 3.45.27 8.71 8.71 0 0 1 3.23 1.18 2 2 0 0 1 .73 1.34 2.84 2.84 0 0 1-.12 1.51 3.84 3.84 0 0 1-2 1.74 14.49 14.49 0 0 1-1.77.67l-.67.2.68-.16a14.39 14.39 0 0 0 1.81-.58 4 4 0 0 0 2.18-1.75 3.15 3.15 0 0 0 .22-1.67 2.4 2.4 0 0 0-.8-1.64c-2-1.46-4.68-1.78-7-1.87a25.59 25.59 0 0 0-5.63.46zm-21.76.03a15.38 15.38 0 0 0-1.74.07 4.4 4.4 0 0 0-2.22.76 4.3 4.3 0 0 0-1.6 2.06A3.29 3.29 0 0 0 169 70a3.42 3.42 0 0 0 1.75 1.62 5.79 5.79 0 0 0 1.91.39A10.27 10.27 0 0 0 174 72h.48-.48a10.38 10.38 0 0 1-1.3-.08 5.64 5.64 0 0 1-1.8-.51 3.06 3.06 0 0 1-1.46-1.56 2.78 2.78 0 0 1 0-2.2 3.67 3.67 0 0 1 3.32-2.17h1.65A10.08 10.08 0 0 1 178 66a2.48 2.48 0 0 1 1.49 1.46 4.26 4.26 0 0 1 0 2.28 2.31 2.31 0 0 1-1.48 1.44 9.72 9.72 0 0 1-1.83.45l-1.77.28 1.79-.15a9.75 9.75 0 0 0 1.91-.32 2.67 2.67 0 0 0 1.89-1.52 4.69 4.69 0 0 0 .13-2.61 3.13 3.13 0 0 0-1.75-2 9.64 9.64 0 0 0-3.97-.81z"/><path class="cls-5" d="M176.6 76.62s.38-.33.95-.87a10.75 10.75 0 0 0 1.79-2.46 9 9 0 0 0 .95-3.44A7.93 7.93 0 0 0 180 67l-.42.15a8.34 8.34 0 0 1 .32 2.67 8.93 8.93 0 0 1-.77 3.36 10.79 10.79 0 0 1-1.64 2.51z"/><path class="cls-10" d="M180.64 58.74a15.07 15.07 0 0 0-3.54-.74 72.68 72.68 0 0 0-4.48-.85 7.19 7.19 0 0 0-2.56-.19 1.44 1.44 0 0 0-1.11 1 56.42 56.42 0 0 1 12.25 2 1.51 1.51 0 0 0-.56-1.22z"/><path class="cls-3" d="M181 61.47a3.65 3.65 0 0 0 .19-1.51 56.42 56.42 0 0 0-12.25-2 4.13 4.13 0 0 0-.22 1.52 1.46 1.46 0 0 0 0 .3c4.36-.59 8.18.36 12.28 1.69z"/><path class="cls-4" d="M168.77 59.75c.24 1.18 1.73.73 2.78.76a18.53 18.53 0 0 1 5.23.78c.9.29 3.2 1.53 4 .62a1.5 1.5 0 0 0 .24-.44c-4.12-1.33-7.94-2.28-12.25-1.72z"/><path class="cls-5" d="M198.53 60.11a21.53 21.53 0 0 0-2.53.73c-.48.17-1 .37-1.5.6l-.76.37a.77.77 0 0 1-.51.12 1 1 0 0 1-.3-.52 3.87 3.87 0 0 1-.16-.83 3.3 3.3 0 0 1 .23-1.66 2.68 2.68 0 0 1 1.34-1c.57-.27 1.13-.53 1.7-.76a29.7 29.7 0 0 1 6.14-1.74c1.65-.28 2.7-.36 2.7-.36s-1.06 0-2.72.23a29.35 29.35 0 0 0-6.28 1.46 29 29 0 0 0-1.75.7 3.18 3.18 0 0 0-1.66 1.21 3.87 3.87 0 0 0-.38 2 4.54 4.54 0 0 0 .16 1 1.57 1.57 0 0 0 .63 1 1.36 1.36 0 0 0 1.18-.06l.78-.34c.5-.21 1-.38 1.46-.54.93-.31 1.77-.51 2.45-.66a54.35 54.35 0 0 1 5.77-.9c.59-.06 1.19-.1 1.8-.12a13 13 0 0 1 1.84.09 6.16 6.16 0 0 0 2-.09 2 2 0 0 0 .93-.54 2 2 0 0 0 .45-.94 4.69 4.69 0 0 0 0-1.88 1.88 1.88 0 0 0-1-1.49 12.18 12.18 0 0 0-2.93-.28 19.77 19.77 0 0 0-2.73.19 20.11 20.11 0 0 1 2.72 0 12.26 12.26 0 0 1 2.84.4c.43.17.63.75.72 1.29a4.31 4.31 0 0 1-.09 1.71 1.33 1.33 0 0 1-1.07.94 5.71 5.71 0 0 1-1.79 0 13.35 13.35 0 0 0-1.91-.17c-.63 0-1.25 0-1.84.06a42.68 42.68 0 0 0-5.93.78zm-20.94 1.01a13.24 13.24 0 0 0-4-.86 19 19 0 0 0-2.55 0 9.45 9.45 0 0 1-1.24.08.79.79 0 0 1-.81-.45 3.07 3.07 0 0 1-.07-1.11 2.6 2.6 0 0 1 .27-1 1.63 1.63 0 0 1 1.58-.73 8.4 8.4 0 0 1 1.33.1l.49.08-.48-.11a8.36 8.36 0 0 0-1.33-.2 3.3 3.3 0 0 0-.94.07 1.48 1.48 0 0 0-.89.66 2.9 2.9 0 0 0-.39 1.14 3.34 3.34 0 0 0 0 1.3 1.14 1.14 0 0 0 .48.61 1.72 1.72 0 0 0 .71.22 9.47 9.47 0 0 0 1.32 0 19.89 19.89 0 0 1 2.44.19 14.69 14.69 0 0 1 3.73.94 12.06 12.06 0 0 0 1.71.58 3.41 3.41 0 0 0 1.21.09 1.43 1.43 0 0 0 .72-.3 1.48 1.48 0 0 0 .44-.64 3.66 3.66 0 0 0 .23-1.34 3 3 0 0 0-.3-1.39 1.2 1.2 0 0 0-.6-.54 3.72 3.72 0 0 0-.65-.22 10.07 10.07 0 0 0-1.28-.2c-1.65-.14-3.16-.45-4.28-.59l-1.82-.27 1.79.41c1.1.22 2.59.65 4.24.9a9.81 9.81 0 0 1 1.2.27 3.2 3.2 0 0 1 .55.22.57.57 0 0 1 .31.32 3 3 0 0 1-.08 2.14.59.59 0 0 1-.56.42 2.75 2.75 0 0 1-.9-.12 15 15 0 0 1-1.58-.67z"/><path class="cls-11" d="M144.8 110.17c0 .81-.06 1.62-.07 2.44 0 1.46.06 2.16 1.52 2.44a16 16 0 0 0 5.93 0c.84-.16 2.54-.4 2.93-1.29a1 1 0 0 0 .07-.24c-3.73 1.05-8.05.3-10.38-3.35z"/><path class="cls-12" d="M154.67 101.82a.88.88 0 0 0 0-.2c-.5-1.36-3.19-1.35-4.31-1.31-1.32.06-4.21.18-5.19 1.25a1.34 1.34 0 0 0-.33.79c3.05-1.89 6.61-1.65 9.83-.53z"/><path class="cls-13" d="M153.87 102.69c.27-.12.55-.23.82-.36v-.52c-3.22-1.12-6.78-1.36-9.85.52a8.79 8.79 0 0 0 2 .88c2.21-.07 4.76-.65 7.03-.52z"/><path class="cls-11" d="M153.87 102.69c-2.28-.13-4.82.44-7.07.53a10.17 10.17 0 0 0 7.07-.53z"/><path class="cls-13" d="M181.77 97.65l-3.48.44-23.09 10.41c-.76.24-.6-3.09-.53-5.22a8.37 8.37 0 0 1-9.84.18v6.7c2.33 3.65 6.65 4.39 10.38 3.39.13-.73-.43-1.51.44-1.94l2.06-1.1c4.54-3.66 10.39-7.38 16.47-8.8z"/><path class="cls-11" d="M157.68 110.53l16.47-8.8c-6.09 1.41-11.94 5.14-16.47 8.8z"/><path class="cls-12" d="M154.67 103.28v-.95c-3.22 1.61-6.78 1.89-9.86 0a9.28 9.28 0 0 0 0 1.11 8.37 8.37 0 0 0 9.86-.16z"/><path class="cls-5" d="M168.32 105.09c5.43-2.9 13.46-7.45 13.46-7.45s-8.24 4.15-13.67 7l-10.85 5.8-1 .55-.53.28a1.86 1.86 0 0 0-.57.39 1 1 0 0 0-.23.72c0 .23 0 .44.07.64a1 1 0 0 1-.31 1 5.25 5.25 0 0 1-2.33.8 14.53 14.53 0 0 1-2.64.28 16.65 16.65 0 0 1-2.73-.18 5.66 5.66 0 0 1-1.31-.3 1.08 1.08 0 0 1-.66-.93 24.93 24.93 0 0 1 0-2.82l.07-2.88v-5.71a1.25 1.25 0 0 1 .71-.93 4.84 4.84 0 0 1 1.25-.46 15.4 15.4 0 0 1 2.71-.34 13.85 13.85 0 0 1 2.65 0c.83.11 1.74.38 2 1a4.32 4.32 0 0 1 .06 1.16v3.62c0 .39 0 .77.07 1.16a3.68 3.68 0 0 0 .11.58c.07.17.09.45.48.58a.64.64 0 0 0 .26 0l.12-.05.24-.11.48-.21.92-.42 3.26-1.47 4-1.82c5.61-2.53 13.93-6.52 13.93-6.52s-8.5 3.58-14.11 6.11l-4 1.82-3.26 1.47-1.77.8a.67.67 0 0 1-.2-.25 3.25 3.25 0 0 1-.1-.51c0-.36-.06-.73-.07-1.11v-4.24a1.74 1.74 0 0 0-.1-.71 2 2 0 0 0-1.06-1 5.12 5.12 0 0 0-1.33-.34 14.28 14.28 0 0 0-2.74 0 15.81 15.81 0 0 0-2.79.36 5.26 5.26 0 0 0-1.38.51 1.71 1.71 0 0 0-.93 1.25v5.77l-.07 2.88a24.32 24.32 0 0 0 0 2.9 1.82 1.82 0 0 0 .28.76 1.55 1.55 0 0 0 .64.51 6 6 0 0 0 1.43.33 17.11 17.11 0 0 0 2.8.19 15 15 0 0 0 2.72-.29 5.55 5.55 0 0 0 2.54-.91 1.43 1.43 0 0 0 .46-1.34c-.06-.44-.14-.82.05-1a5.56 5.56 0 0 1 1-.56l1-.55z"/><path class="cls-5" d="M149.73 103.36a12.56 12.56 0 0 1-2.95-.27 6.59 6.59 0 0 1-1.35-.47 3.18 3.18 0 0 1-.53-.31 3.11 3.11 0 0 0 .5.37 6.44 6.44 0 0 0 1.32.62 9.77 9.77 0 0 0 3 .5 10 10 0 0 0 3-.5 7.33 7.33 0 0 0 1.33-.6 3.5 3.5 0 0 0 .51-.35 3.59 3.59 0 0 1-.54.29 7.58 7.58 0 0 1-1.36.45 13 13 0 0 1-2.93.27z"/><path class="cls-6" d="M219.18 78.48a3.93 3.93 0 0 0-.05 1.49c.88 3.41 5.84-1.64 7.28-3.52-2.04 1.64-5.17 2.77-7.23 2.03z"/><path class="cls-7" d="M222.09 68.84c.27-.37.57-.72.88-1.06a16 16 0 0 1 5.72-4.2c-2-4.61-7.51 2.87-8.51 6.23l.37 7.27a1.46 1.46 0 0 0-.74.34 2 2 0 0 0-.62 1.05c2.06.74 5.19-.39 7.22-2l.29-.4a16.93 16.93 0 0 0 2.55-10.29c0-.15 0-.3-.07-.44a26.13 26.13 0 0 0-6.2 2.46c-.32.32-.62.68-.89 1.04z"/><path class="cls-6" d="M223 67.78a26.13 26.13 0 0 1 6.2-2.46 7.72 7.72 0 0 0-.49-1.74 16 16 0 0 0-5.71 4.2z"/><path class="cls-5" d="M221 80.54c-.53.18-1 .25-1.32-.18a2 2 0 0 1-.2-.38 1.49 1.49 0 0 1-.1-.43 3.71 3.71 0 0 1 0-.91 1.86 1.86 0 0 1 .63-1.27 1.26 1.26 0 0 1 .54-.28 1.24 1.24 0 0 0-.61.16 2.07 2.07 0 0 0-1 1.29 3.87 3.87 0 0 0-.15 1 2 2 0 0 0 .06.59 2.49 2.49 0 0 0 .21.58 1.5 1.5 0 0 0 1.1.78 2.43 2.43 0 0 0 1.17-.15 12.34 12.34 0 0 0 4.1-3.12 19.87 19.87 0 0 0 1.33-1.52 11.71 11.71 0 0 0 1.14-1.92 19.27 19.27 0 0 0 1.54-4.43 14 14 0 0 0 .26-4.72 9.6 9.6 0 0 0-.55-2.19 2.9 2.9 0 0 0-1.52-1.69 2.63 2.63 0 0 0-2 .22 6.53 6.53 0 0 0-1.29.87 12.41 12.41 0 0 0-1.34 1.35 14 14 0 0 0-2.14 3.52 9.87 9.87 0 0 0-.67 2.1 12.81 12.81 0 0 1 1.06-1.89 31 31 0 0 1 2.42-3.14 11.55 11.55 0 0 1 1.21-1.22 5.67 5.67 0 0 1 1.1-.75 1.76 1.76 0 0 1 1.33-.18 2 2 0 0 1 1 1.2 8.75 8.75 0 0 1 .49 2 13.1 13.1 0 0 1-.25 4.41 18.38 18.38 0 0 1-1.47 4.22 10.94 10.94 0 0 1-1 1.77 19 19 0 0 1-1.27 1.45 11.58 11.58 0 0 1-3.81 2.86z"/><path class="cls-5" d="M221.09 70.43a20.11 20.11 0 0 1 2.7-3.23 14.17 14.17 0 0 1 2.68-2.06 10.74 10.74 0 0 1 2.39-1l-.23-.87a9.14 9.14 0 0 0-2.56 1.23 13.6 13.6 0 0 0-2.6 2.39 18.89 18.89 0 0 0-2.38 3.54z"/><path class="cls-5" d="M212.43 40.35c.09-.45.26-1 .44-1.61l-1.79 1.11c-.35.18-.62.33-.95.47a8.33 8.33 0 0 1-2 .56 7.24 7.24 0 0 1-2.12 0 6.42 6.42 0 0 1-1-.26c-.17-.06-.34-.12-.5-.2l-.24-.11h-.06l-.12-.07-.24-.15-1.76.82c-.53.2-1.06.43-1.6.62a20.1 20.1 0 0 1-3.31.86 14.86 14.86 0 0 1-3.36.18 10.59 10.59 0 0 1-1.63-.23 7.6 7.6 0 0 1-.78-.21l-.37-.13a3.79 3.79 0 0 1-.46-.21l-.7.22a3.56 3.56 0 0 1-.59.14 8 8 0 0 1-1.19.14 9.49 9.49 0 0 1-2.32-.27 12 12 0 0 1-3.94-1.81 5 5 0 0 1-3.6-1.31 6.23 6.23 0 0 1-1.57-2.56 9.71 9.71 0 0 1-.45-1.92c-.06-.45-.07-.7-.07-.7v.7a9.69 9.69 0 0 0 .39 1.94A6.34 6.34 0 0 0 178 39a3.83 3.83 0 0 0 .72.59 4 4 0 0 0 .87.47 5.94 5.94 0 0 0 1 .3c.32.06.77.08 1 .11a12.34 12.34 0 0 0 3.95 1.93 9.9 9.9 0 0 0 2.43.34 8.42 8.42 0 0 0 1.28-.12 4 4 0 0 0 .64-.14l.51-.15.29.14.4.16a8.13 8.13 0 0 0 .83.25 11.13 11.13 0 0 0 1.71.29 15.37 15.37 0 0 0 3.52-.11 20.51 20.51 0 0 0 3.46-.83c.56-.18 1.11-.41 1.67-.61l1.4-.63h.08l.28.14c.19.09.38.16.57.23a7.21 7.21 0 0 0 1.18.31 8 8 0 0 0 2.39.06 9.1 9.1 0 0 0 2.24-.61c.34-.14.7-.34 1-.47v.74a5.65 5.65 0 0 0 .06 1 3.86 3.86 0 0 0 .28 1 2.75 2.75 0 0 0 .26.47l.15.22.12.13a9 9 0 0 0 .52 2.92 25.69 25.69 0 0 0 1.05 2.71 23.64 23.64 0 0 1 1.52 5.38 47.66 47.66 0 0 1 .65 5.62c0 .94.08 1.88.06 2.82a25 25 0 0 1-.24 2.8A103.5 103.5 0 0 1 214 77.67a34 34 0 0 1-1.91 5.33l-.59 1.3a3.23 3.23 0 0 0-.25.79 1.37 1.37 0 0 0 .18 1 1.3 1.3 0 0 0 .91.52 3.56 3.56 0 0 0 .82 0 13 13 0 0 0 1.46-.21 18.44 18.44 0 0 0 2.82-.79 9.32 9.32 0 0 0 1.38-.63 1.27 1.27 0 0 0 .63-.85 2.16 2.16 0 0 0-.1-.9 11.18 11.18 0 0 1-.35-1.33 10.94 10.94 0 0 1-.1-1.37 27.46 27.46 0 0 1 .09-2.81 31.76 31.76 0 0 1 2.82-10.85 21.37 21.37 0 0 1 1.32-2.46 12.49 12.49 0 0 1 .79-1.12l.44-.51a4.65 4.65 0 0 0 .5-.6 11 11 0 0 0 1.79-5.61 26.47 26.47 0 0 0-.56-5.77c-.33-1.89-.71-3.75-1.07-5.62s-.71-3.73-1-5.6-.37-3.76-.42-5.65 0-3.8-.19-5.73a14.34 14.34 0 0 0-1.41-5.69 8.13 8.13 0 0 0-4.52-3.82l-.42-.11a1 1 0 0 0-.66.12 1 1 0 0 0-.35.58 2.35 2.35 0 0 0 0 .46 7.26 7.26 0 0 0 .22 1.51c.21.93.56 1.92.79 2.74a1.88 1.88 0 0 1-.8 2 2.39 2.39 0 0 1-.48.27s-.06 0-.19-.12a3.93 3.93 0 0 1-.63-1.08c-.18-.42-.34-.86-.49-1.3a6.62 6.62 0 0 0-.66-1.37 5.42 5.42 0 0 1-.94-2.47 14.87 14.87 0 0 0-2.12-5.47 3.89 3.89 0 0 0-.49-.65 1.25 1.25 0 0 0-.48-.31.83.83 0 0 0-.68.07 1.19 1.19 0 0 0-.26.2 1.16 1.16 0 0 0-.18.29 1.76 1.76 0 0 0-.1.47 7 7 0 0 0 0 .77v1.38a1.18 1.18 0 0 1-.12.5c-.07.13-.19.21-.21.2s-.32-.25-.43-.65a7.07 7.07 0 0 1-.28-1.31c-.13-1-.32-1.91-.55-2.85a25.45 25.45 0 0 0-.83-2.76c-.27-.87-.45-1.82-.82-2.77a2.82 2.82 0 0 0-.41-.75 1.54 1.54 0 0 0-.23-.22l-.32-.14a1 1 0 0 0-.66.16 2.32 2.32 0 0 0-.59.67l-.38.64a11.28 11.28 0 0 1-1.47 2.31 4.55 4.55 0 0 1-2.17 1.3 3.59 3.59 0 0 1-1.25.09 1.48 1.48 0 0 1-.91-.55 3.58 3.58 0 0 1-.6-1.1 2.85 2.85 0 0 1-.15-.59 5.17 5.17 0 0 1 0-.65c0-.91.16-1.86.27-2.8a12.12 12.12 0 0 0 .09-1.4 7.4 7.4 0 0 0 0-.76 2.27 2.27 0 0 0-.25-.93.82.82 0 0 0-.52-.38.92.92 0 0 0-.63.15 2.07 2.07 0 0 0-.38.33l-.25.3a14.31 14.31 0 0 0-.85 1.21A29.89 29.89 0 0 0 192 6.78c-.52 1-.91 2.14-1.4 3.11a8 8 0 0 1-2.07 2.6 4.26 4.26 0 0 1-.68.44 2.64 2.64 0 0 1-.35.15h-.16c0 .05-.15-.21-.19-.46a6.15 6.15 0 0 1-.09-.83c-.06-1.17 0-2.33 0-3.59l-.08-1.89a1.32 1.32 0 0 0 0-.24.75.75 0 0 0-.16-.29.59.59 0 0 0-.59-.18c-.43.08-.74.65-.79.92l-.14.91-.11.84c-.09.55-.12 1.13-.25 1.65a14.33 14.33 0 0 1-1.07 3c-1.8 3.82-4.19 6.71-5.5 9a24.77 24.77 0 0 0-1.84 3.83 25.21 25.21 0 0 1 2-3.76c1.37-2.26 3.85-5.08 5.79-8.91a14.7 14.7 0 0 0 1.18-3.11c.15-.56.19-1.12.29-1.69l.13-.86c.05-.29.08-.58.14-.8s.13-.3.21-.34a.09.09 0 0 1 .11 0 .15.15 0 0 1 0 .06v1.83c0 1.1-.07 2.34 0 3.55a6.81 6.81 0 0 0 .09.95 2.64 2.64 0 0 0 .15.51 1.85 1.85 0 0 0 .16.28.84.84 0 0 0 .33.25.76.76 0 0 0 .42.06 1.61 1.61 0 0 0 .29-.06 3.41 3.41 0 0 0 .47-.19 5 5 0 0 0 .82-.51 8.76 8.76 0 0 0 2.33-2.84c.56-1.1.91-2.14 1.44-3.12a30.68 30.68 0 0 1 1.59-2.8 13.5 13.5 0 0 1 .79-1.13l.21-.25.15-.15a2.46 2.46 0 0 1 .08.45 6.53 6.53 0 0 1 0 .67 11.23 11.23 0 0 1-.11 1.37c-.11.94-.24 1.89-.28 2.88a6 6 0 0 0 0 .78 3.66 3.66 0 0 0 .2.79 4.46 4.46 0 0 0 .77 1.39 2.37 2.37 0 0 0 1.49.86 4.48 4.48 0 0 0 1.58-.11 5.45 5.45 0 0 0 2.63-1.58 12 12 0 0 0 1.6-2.49 4 4 0 0 1 .67-1 2.06 2.06 0 0 1 .27.5c.32.83.5 1.76.79 2.71a24.71 24.71 0 0 1 .81 2.7c.22.91.4 1.83.53 2.76A7.91 7.91 0 0 0 207 17a2.75 2.75 0 0 0 .38.76 1.09 1.09 0 0 0 1 .49 1.51 1.51 0 0 0 1.11-1.52v-1.47a6.24 6.24 0 0 1 0-.66 1 1 0 0 1 0-.23l.1.09a3.1 3.1 0 0 1 .37.49 14 14 0 0 1 2 5.1 6.35 6.35 0 0 0 1.06 2.82 5.71 5.71 0 0 1 .58 1.2c.15.46.32.92.51 1.37a4.65 4.65 0 0 0 .89 1.36 1.46 1.46 0 0 0 .42.3.94.94 0 0 0 .65 0 2.84 2.84 0 0 0 1.93-3.31c-.13-.55-.29-.94-.42-1.4s-.26-.9-.37-1.35a6.49 6.49 0 0 1-.2-1.31 1.51 1.51 0 0 1 0-.25l.27.08a7.24 7.24 0 0 1 4 3.39 13.52 13.52 0 0 1 1.3 5.32c.14 1.87.13 3.78.19 5.69s.18 3.83.43 5.74.6 3.79 1 5.66.74 3.74 1.06 5.6a25.71 25.71 0 0 1 .55 5.57 10.08 10.08 0 0 1-1.62 5.14 3.76 3.76 0 0 1-.41.5l-.5.57a13.36 13.36 0 0 0-.86 1.21A22.26 22.26 0 0 0 221 66.5a36.5 36.5 0 0 0-1.94 5.44 29.63 29.63 0 0 0-1 5.71 28.32 28.32 0 0 0-.1 2.9 11.76 11.76 0 0 0 .12 1.48 11.64 11.64 0 0 0 .37 1.43 1.46 1.46 0 0 1 .08.51c0 .07-.06.13-.22.24a8.69 8.69 0 0 1-1.22.55 17.56 17.56 0 0 1-2.68.75 12.17 12.17 0 0 1-1.36.2c-.45.05-.87 0-.92-.14s0-.56.15-.93l.59-1.3a34.85 34.85 0 0 0 1.92-5.45 104.12 104.12 0 0 0 1.88-11.32 25.9 25.9 0 0 0 .25-2.89c0-1 0-1.93-.06-2.89a48.54 48.54 0 0 0-.66-5.72 24.49 24.49 0 0 0-1.58-5.59 24.8 24.8 0 0 1-1-2.61 7.8 7.8 0 0 1-.47-2.68l-.06-.22-.06-.22-.19-.21-.11-.16a1.87 1.87 0 0 1-.18-.34 3 3 0 0 1-.21-.77 4.75 4.75 0 0 1 0-.84v-.64zM188.69 97.3a37 37 0 0 0-6.21.13 34.85 34.85 0 0 0-4.18.66 38.22 38.22 0 0 1 4.2-.32 55.15 55.15 0 0 1 6.13.21 45.86 45.86 0 0 1 6.08.76c1.1.24 2.14.47 2.87.71l1.21.36-1.18-.46c-.71-.3-1.73-.6-2.83-.93a32.66 32.66 0 0 0-6.09-1.12z"/><path class="cls-14" d="M229.57 65.78a9.6 9.6 0 0 0-.55-2.19 2.9 2.9 0 0 0-1.52-1.69 2.63 2.63 0 0 0-2 .22 6.53 6.53 0 0 0-1.29.87l.11-.12a4.65 4.65 0 0 0 .5-.6 11 11 0 0 0 1.79-5.61 26.47 26.47 0 0 0-.56-5.77c-.33-1.89-.71-3.75-1.07-5.62s-.71-3.73-1-5.6-.37-3.76-.42-5.65 0-3.8-.19-5.73a14.34 14.34 0 0 0-1.41-5.69 8.13 8.13 0 0 0-4.52-3.82l-.42-.11a1 1 0 0 0-.66.12 1 1 0 0 0-.35.58 2.35 2.35 0 0 0 0 .46 7.26 7.26 0 0 0 .22 1.51c.21.93.56 1.92.79 2.74a1.88 1.88 0 0 1-.8 2 2.39 2.39 0 0 1-.48.27s-.06 0-.19-.12a3.93 3.93 0 0 1-.63-1.08c-.18-.42-.34-.86-.49-1.3a6.62 6.62 0 0 0-.66-1.37 5.42 5.42 0 0 1-.94-2.47 14.87 14.87 0 0 0-2.12-5.47 3.89 3.89 0 0 0-.49-.65 1.25 1.25 0 0 0-.48-.31.83.83 0 0 0-.68.07 1.19 1.19 0 0 0-.26.2 1.16 1.16 0 0 0-.18.29 1.76 1.76 0 0 0-.1.47 7 7 0 0 0 0 .77v1.38a1.18 1.18 0 0 1-.12.5c-.07.13-.19.21-.21.2s-.32-.25-.43-.65a7.07 7.07 0 0 1-.28-1.31c-.13-1-.32-1.91-.55-2.85a25.45 25.45 0 0 0-.93-2.73c-.27-.87-.45-1.82-.82-2.77a2.82 2.82 0 0 0-.41-.75 1.54 1.54 0 0 0-.23-.22l-.32-.14a1 1 0 0 0-.66.16 2.32 2.32 0 0 0-.59.67l-.38.64a11.28 11.28 0 0 1-1.47 2.31 4.55 4.55 0 0 1-2.12 1.34 3.6 3.6 0 0 1-1.25.09 1.48 1.48 0 0 1-.91-.55 3.58 3.58 0 0 1-.6-1.1 2.85 2.85 0 0 1-.15-.59 5.17 5.17 0 0 1 0-.65c0-.91.16-1.86.27-2.8a12.12 12.12 0 0 0 .11-1.47 7.4 7.4 0 0 0 0-.76 2.27 2.27 0 0 0-.25-.92.82.82 0 0 0-.52-.38.92.92 0 0 0-.63.15 2.07 2.07 0 0 0-.38.33l-.25.29a14.32 14.32 0 0 0-.94 1.2 29.9 29.9 0 0 0-1.63 2.9c-.52 1-.91 2.14-1.4 3.11a8 8 0 0 1-2.07 2.6 4.26 4.26 0 0 1-.68.44 2.64 2.64 0 0 1-.35.15h-.16c0 .05-.15-.21-.19-.46a6.15 6.15 0 0 1-.09-.83c-.06-1.17 0-2.33 0-3.59l-.08-1.89a1.32 1.32 0 0 0 0-.24.75.75 0 0 0-.16-.29.59.59 0 0 0-.59-.18c-.43.08-.74.65-.79.92l-.14.91-.11.84c-.09.55-.12 1.13-.25 1.65a14.33 14.33 0 0 1-1.07 3c-1.8 3.82-4.19 6.71-5.5 9l-.16.3a15.22 15.22 0 0 0-2 1.85 19.65 19.65 0 0 0-3.79 6.44 20.81 20.81 0 0 0-1.2 5.8 49.23 49.23 0 0 0 .73 10.57l-.65 2.33-.51 2.77-.69 4-.17.88h-.07a1.48 1.48 0 0 0-.89.66 2.9 2.9 0 0 0-.39 1.14 3.34 3.34 0 0 0 0 1.3 1.14 1.14 0 0 0 .47.61 4.2 4.2 0 0 0-.17.8 2.18 2.18 0 0 0 .2 1.17A7.43 7.43 0 0 0 171 65a3.62 3.62 0 0 0-.7.39 4.3 4.3 0 0 0-1.6 2.06 3.29 3.29 0 0 0 .16 2.61 3.63 3.63 0 0 0 .85 1.06 7.09 7.09 0 0 0-1.14 2.29 12.44 12.44 0 0 0 0 5.47c.29 1.82.73 3.66 1.16 5.53s.79 3.78 1.18 5.78a276 276 0 0 0 2.22 10.12 272.2 272.2 0 0 0-9 4l-4 1.82-3.26 1.47-1.77.8a.67.67 0 0 1-.12-.26 3.25 3.25 0 0 1-.1-.51c0-.36-.06-.73-.07-1.11v-4.24a1.74 1.74 0 0 0-.1-.71 2 2 0 0 0-1.06-1 5.12 5.12 0 0 0-1.33-.34 14.28 14.28 0 0 0-2.74 0 15.81 15.81 0 0 0-2.79.36 5.26 5.26 0 0 0-1.38.51 1.71 1.71 0 0 0-.93 1.25v5.77l-.07 2.88a24.32 24.32 0 0 0 0 2.9 1.82 1.82 0 0 0 .28.76 1.55 1.55 0 0 0 .64.51 6 6 0 0 0 1.43.33 17.11 17.11 0 0 0 2.8.19 15 15 0 0 0 2.72-.29 5.55 5.55 0 0 0 2.54-.91 1.43 1.43 0 0 0 .46-1.34c-.06-.44-.14-.82.05-1a5.56 5.56 0 0 1 1-.56l1-.55 10.85-5.8c1.65-.88 3.53-1.91 5.36-2.92l.05.24c.53 2.11 1 4.2 1.61 6.38a15 15 0 0 0 1.28 3.21 5.28 5.28 0 0 0 2.72 2.46 23.71 23.71 0 0 0 6.86.95 54.83 54.83 0 0 0 6.85-.41 30.26 30.26 0 0 0 6.8-1.22 14.81 14.81 0 0 0 3.21-1.42 20.2 20.2 0 0 0 2.8-2c1.74-1.49 3.26-3.14 4.82-4.68s3.23-3 4.67-4.67a14.57 14.57 0 0 0 1.89-2.74 16.25 16.25 0 0 0 1.17-3.06c.58-2.07.88-4.12 1.31-6.06q.88-4 1.6-7.72a12.43 12.43 0 0 0 4.08-3.11 19.87 19.87 0 0 0 1.33-1.52 11.71 11.71 0 0 0 1.14-1.92 19.27 19.27 0 0 0 1.54-4.43 14 14 0 0 0 .3-4.82z"/><path class="cls-2" d="M151.24 45.31l-2.88.22a1.5 1.5 0 0 0-1.36 1.6l.16 2.09-1.66-2.67a1.5 1.5 0 0 0-1.39-.7l-4.22.32a1.5 1.5 0 0 0-1.38 1.61v.11c-13.22-6.7-37-10.08-63.86-8.06-24.92 1.87-46.57 8-59.2 15.71h-.06l-3.24.24a1.49 1.49 0 0 0-.83.33 1.49 1.49 0 0 0-.87-.21l-9 .68A1.5 1.5 0 0 0 0 58.19l.2 2.64a1.5 1.5 0 0 0 1.61 1.38l1.42-.11.55 7.25a9.44 9.44 0 0 0-.05 1.75 11.4 11.4 0 0 0 3.43 7 7.27 7.27 0 0 0-.12 2 5.74 5.74 0 0 0 1.71 4 5.24 5.24 0 0 0 4.09 1.22 5.53 5.53 0 0 0 3.25-1.22c13.46 6.24 36.55 9.33 62.45 7.38 16.65-1.25 31.82-4.39 43.84-8.65 7.72 12.29 30.17 6.81 30.17 6.81-14.67-.19-20.26-7-22-10.08a68.06 68.06 0 0 0 7.2-3.78 1.48 1.48 0 0 0 .77-.48l.24-.16a1.49 1.49 0 0 0 1.23.51l2.16-.16a1.5 1.5 0 0 0 1.38-1.61l-.16-2.17.08-.08.17 2.24a1.5 1.5 0 0 0 1.61 1.38l2.15-.16a1.5 1.5 0 0 0 1.38-1.61l-.35-4.71h.44a1.5 1.5 0 0 0 1.38-1.61l-.23-1.81a1.5 1.5 0 0 0-1.07-1.35 9.91 9.91 0 0 0 .51-3.55l2.93-.22a1.5 1.5 0 0 0 1.38-1.61l-.9-11.94a1.5 1.5 0 0 0-1.61-1.37z"/><path class="cls-15" d="M7.84 60.26l.7 9.3-3.23.24-.7-9.3-2.91.22-.2-2.64 9-.68.2 2.64zm14.65-3.76l.9 11.94-3.24.24-.37-4.86-3.78.28.39 4.9-3.24.24-.9-11.94 3.24-.3.33 4.43 3.76-.28-.33-4.43zm10.36 8.58l.2 2.63-7.05.54-.9-11.94 7.09-.53.2 2.6-3.86.29.14 1.88 3.58-.27.19 2.59-3.58.27.14 2.23zm9.96-2.61l.34 4.53-3.15.19-.9-11.94 7.06-.53.2 2.6-3.88.29.17 2.28 3.58-.27.19 2.59zm5.3-1.91a6.41 6.41 0 0 1 1.14-4.68A5.71 5.71 0 0 1 53.47 54a5.67 5.67 0 0 1 4.43 1.23 6.45 6.45 0 0 1 1.81 4.47 6.47 6.47 0 0 1-1.13 4.7 5.66 5.66 0 0 1-4.19 1.89A5.69 5.69 0 0 1 49.95 65a6.43 6.43 0 0 1-1.84-4.44zm5.55-3.93q-2.42.18-2.16 3.66t2.67 3.3a2.08 2.08 0 0 0 1.76-1 4.65 4.65 0 0 0 .39-2.67 4.69 4.69 0 0 0-.79-2.59 2 2 0 0 0-1.87-.7zM68.35 53l3.23-.24.54 7.24a4.84 4.84 0 0 1-1.05 3.73 5.24 5.24 0 0 1-3.7 1.57 5.35 5.35 0 0 1-3.89-1 4.77 4.77 0 0 1-1.58-3.5l-.55-7.26 3.24-.24.53 7a2.92 2.92 0 0 0 .61 1.8 1.73 1.73 0 0 0 1.47.47 1.68 1.68 0 0 0 1.36-.68 3 3 0 0 0 .32-1.89zm17.11-1.24l.9 11.94-4.23.3-5-8.08h-.07q.31 2 .38 3l.4 5.38-2.84.26-.9-11.94 4.22-.32 5 8h.05q-.25-1.73-.34-2.9l-.45-5.4zm13.14 4.76a6.19 6.19 0 0 1-1.3 4.73 6.33 6.33 0 0 1-4.5 2l-3.87.29L88 51.57l4.14-.31a6.25 6.25 0 0 1 4.54 1.14 5.56 5.56 0 0 1 1.92 4.12zm-5.92 4a2.62 2.62 0 0 0 2.09-1 4 4 0 0 0 .5-2.6 3.93 3.93 0 0 0-.84-2.45 2.41 2.41 0 0 0-2-.65l-.93.07.5 6.69zm19.05 1.27l-3.53.27-.75-2.2-3.88.29-.43 2.29-3.55.27 3-12.28 4.31-.32zM104 57.46l2.54-.19q-1.44-4.16-1.68-5-.05 1.1-.86 5.19zm12.42-5.37l.7 9.3-3.23.24-.7-9.3-2.91.22-.2-2.64 9-.68.2 2.64zM125 60.8l-3.24.24-.9-11.94 3.24-.24zm1.67-6.15a6.41 6.41 0 0 1 1.14-4.65 6.78 6.78 0 0 1 8.65-.66 6.45 6.45 0 0 1 1.81 4.47 6.47 6.47 0 0 1-1.13 4.7 6.74 6.74 0 0 1-8.64.64 6.43 6.43 0 0 1-1.83-4.5zm5.55-3.93q-2.42.18-2.16 3.66t2.67 3.3a2.08 2.08 0 0 0 1.76-1 4.65 4.65 0 0 0 .39-2.67 4.69 4.69 0 0 0-.79-2.59 2 2 0 0 0-1.87-.7zm19.13-3.92l.9 11.94-4.23.32L143 51q.31 2 .38 3l.4 5.38-2.86.22-.92-11.94 4.22-.32 5 8h.05q-.25-1.73-.34-2.9l-.41-5.4zM8.52 80a4.27 4.27 0 0 1 .76-3.12 3.8 3.8 0 0 1 2.81-1.26 3.78 3.78 0 0 1 3 .82 5.26 5.26 0 0 1 .46 6.11 3.77 3.77 0 0 1-2.8 1.26 3.79 3.79 0 0 1-3-.84A4.29 4.29 0 0 1 8.52 80zm3.7-2.62q-1.61.12-1.44 2.44T12.56 82a1.39 1.39 0 0 0 1.17-.65 4.1 4.1 0 0 0-.27-3.51 1.37 1.37 0 0 0-1.24-.48zm7.71 2.85l.22 2.9-2.15.16-.6-8 2.61-.2q3.25-.24 3.43 2.11a2.35 2.35 0 0 1-1.19 2.24l2.58 3.29-2.45.27-1.91-2.77zm-.26-3.44l.14 1.82h.4q1.13-.09 1.06-1.08-.06-.82-1.17-.74zm7.61.56a1 1 0 0 1-.24.79 1.19 1.19 0 0 1-.82.34 1.21 1.21 0 0 1-.86-.21 1.13 1.13 0 0 1-.12-1.53 1.22 1.22 0 0 1 .83-.34 1.19 1.19 0 0 1 .86.21 1 1 0 0 1 .35.74zm.32 4.3a1 1 0 0 1-.24.79 1.18 1.18 0 0 1-.81.34 1.22 1.22 0 0 1-.86-.21 1.13 1.13 0 0 1-.13-1.57 1.23 1.23 0 0 1 .83-.33 1.19 1.19 0 0 1 .86.21 1 1 0 0 1 .35.77zm4.08-1.72a6.19 6.19 0 0 0 1.33.41 4.69 4.69 0 0 0 1.17.08 1.33 1.33 0 0 0 .73-.22.5.5 0 0 0 .2-.45.46.46 0 0 0-.11-.28 1.19 1.19 0 0 0-.29-.22 11.18 11.18 0 0 0-1.06-.43 5.49 5.49 0 0 1-1.27-.61 2.21 2.21 0 0 1-.9-1.71 2.07 2.07 0 0 1 .67-1.79 3.55 3.55 0 0 1 2.16-.78 6.2 6.2 0 0 1 2.57.38L36.34 76a4.8 4.8 0 0 0-2-.36 1.06 1.06 0 0 0-.59.18.43.43 0 0 0-.17.39.53.53 0 0 0 .28.4 8.86 8.86 0 0 0 1.34.57 3.71 3.71 0 0 1 1.52.9 2.11 2.11 0 0 1 .51 1.3 2.23 2.23 0 0 1-.71 1.9 3.43 3.43 0 0 1-2.22.87 6.62 6.62 0 0 1-1.36 0 5 5 0 0 1-1.13-.3zm10.03-4.66l.47 6.2-2.18.16-.47-6.2-1.94.15-.13-1.76 6-.45.13 1.76zm10 5.48l-2.35.18-.5-1.46-2.59.19-.27 1.52-2.37.18 2-8.19 2.85-.17zm-5.13-2.89l1.69-.13q-1-2.77-1.12-3.36-.06.76-.57 3.49zm7.92-.23l.22 2.9-2.15.16-.6-8 2.61-.2q3.25-.24 3.43 2.11a2.35 2.35 0 0 1-1.19 2.24l2.58 3.29-2.4.23-2-2.78zm-.26-3.44l.14 1.81h.4q1.13-.09 1.06-1.08-.06-.82-1.17-.74zm8.92-.54l.47 6.2-2.16.15-.47-6.19-1.94.19-.13-1.76 6-.45.13 1.76zm5.7 5.81l-2.16.16-.6-8 2.16-.16zm8.7-8.66l.6 8-2.82.2L72 73.58q.21 1.36.25 2l.27 3.59-1.91.14-.6-8 2.81-.21 3.31 5.32q-.17-1.16-.22-1.93l-.27-3.6zm5.29 4.59l-.12-1.66 3.44-.26.32 4.29a9.44 9.44 0 0 1-3 .71 3.74 3.74 0 0 1-2.92-.85 4.24 4.24 0 0 1-1.23-2.94 4.06 4.06 0 0 1 .87-3.11 4.23 4.23 0 0 1 3-1.31 6.33 6.33 0 0 1 2.61.31l-.55 1.74a4.11 4.11 0 0 0-1.92-.31 1.86 1.86 0 0 0-1.46.72 2.64 2.64 0 0 0-.38 1.78 2.72 2.72 0 0 0 .59 1.68 1.62 1.62 0 0 0 1.39.49 3.6 3.6 0 0 0 .87-.16l-.09-1.25zm7.91-1.59a4.27 4.27 0 0 1 .76-3.12 4.52 4.52 0 0 1 5.76-.44 5.26 5.26 0 0 1 .46 6.11 4.49 4.49 0 0 1-5.76.42 4.29 4.29 0 0 1-1.22-2.97zm3.7-2.62q-1.61.12-1.44 2.44t1.78 2.2a1.39 1.39 0 0 0 1.2-.66 4.1 4.1 0 0 0-.27-3.51 1.37 1.37 0 0 0-1.27-.47zm7.67 2.82l.22 3-2.12.16-.6-8 4.71-.35.13 1.73-2.59.19.11 1.52 2.38-.18.13 1.72zm6.01-.5l.22 3-2.12.16-.6-8 4.71-.35.13 1.73-2.59.19.11 1.52 2.38-.18.13 1.72zm9.28-.61l.22 2.9-2.15.16-.6-8 2.61-.2q3.25-.24 3.43 2.11a2.35 2.35 0 0 1-1.19 2.24l2.58 3.29-2.44.18-1.88-2.72zm-.26-3.44l.14 1.82h.4q1.13-.09 1.06-1.08-.06-.82-1.17-.74zm8.02 5.77l-2.16.16-.6-8 2.16-.16zm4.7-3.37l-.12-1.66 3.44-.26.32 4.29a9.44 9.44 0 0 1-3 .71 3.74 3.74 0 0 1-2.92-.85 4.24 4.24 0 0 1-1.23-2.94 4.06 4.06 0 0 1 .87-3.11 4.23 4.23 0 0 1 3-1.31 6.33 6.33 0 0 1 2.61.31l-.55 1.74a4.11 4.11 0 0 0-1.87-.28 1.86 1.86 0 0 0-1.46.72 2.64 2.64 0 0 0-.38 1.78 2.72 2.72 0 0 0 .59 1.68 1.62 1.62 0 0 0 1.39.49 3.6 3.6 0 0 0 .87-.16l-.09-1.25zm11.5-5.85l.6 8-2.16.16-.24-3.24-2.5.19.24 3.24-2.16.16-.6-8 2.16-.16.22 3 2.5-.19-.22-3zm5.37 1.36l.47 6.2-2.15.16-.47-6.2-1.94.15-.13-1.76 6-.45.13 1.76z"/></g></g></svg>