<svg xmlns="http://www.w3.org/2000/svg" viewBox="0 0 231.67 117.68"><defs><style>.cls-1{isolation:isolate}.cls-2{fill:#f3a712}.cls-3{fill:#302012}.cls-4{fill:#1e130a}.cls-5{fill:#443e39}.cls-6{fill:#d3bba7}.cls-7{fill:#f9e3cf}.cls-8{fill:#fff}.cls-9{fill:#e5e5e5}.cls-10{fill:#442f1f}.cls-11{fill:#474747}.cls-12{fill:#666}.cls-13{fill:#5b5b5b}.cls-14{opacity:.5;mix-blend-mode:multiply;fill:url(#linear-gradient)}.cls-15{fill:#ba1200}.cls-16{fill:#c67b55}.cls-17{fill:#8e3d14}.cls-18{fill:#b45118}.cls-19{opacity:.75}.cls-20{fill:#878787}.cls-21{fill:#ededed}.cls-22{fill:#ccc}</style><linearGradient id="linear-gradient" x1="177.5" y1="55.1" x2="264.9" y2="258.5" gradientUnits="userSpaceOnUse"><stop offset="0" stop-color="#fff"/><stop offset=".1" stop-color="#ded8d3"/><stop offset=".1" stop-color="#dbd4cf"/><stop offset=".3" stop-color="#b3a599"/><stop offset=".5" stop-color="#927d6c"/><stop offset=".6" stop-color="#785f49"/><stop offset=".8" stop-color="#65492f"/><stop offset=".9" stop-color="#5a3c20"/><stop offset="1" stop-color="#56371b"/></linearGradient></defs><title>kramer</title><g class="cls-1"><g id="Vector"><path class="cls-2" d="M152.4 60.2a1.5 1.5 0 0 0 1.3-1.6l-.8-12a1.5 1.5 0 0 0-1.7-1.3l-2.8.2a1.5 1.5 0 0 0-1.4 1.6l.2 2.1-1.7-2.7a1.5 1.5 0 0 0-1.4-.7l-4.2.4a1.5 1.5 0 0 0-1.4 1.6c-11-5.5-29.6-8.8-51.1-8.5a12 12 0 0 0-1-4.1 14.6 14.6 0 0 0-2.5-4 6 6 0 0 0-1.2-1 6.8 6.8 0 0 0-3.9-1.2 7.8 7.8 0 0 0-1.5.2 8.8 8.8 0 0 0-2.7 1.2l-1.2.7-1-.5A8 8 0 0 0 69 30a11 11 0 0 0-3 .5c-3.1.9-5.2 3.7-5.6 7.9a7.3 7.3 0 0 0 .2 2.2c0 .3 0 .5.2.8-19 2.7-35.2 8-45.5 14.2l-3.3.2a1.5 1.5 0 0 0-.8.4 1.5 1.5 0 0 0-.9-.2l-9 .6A1.5 1.5 0 0 0 0 58.2l.2 2.6a1.5 1.5 0 0 0 1.6 1.4l1.4-.1.6 7.3a9.4 9.4 0 0 0 0 1.7 11.4 11.4 0 0 0 3.4 7 7.3 7.3 0 0 0-.2 2 5.7 5.7 0 0 0 1.8 4 5.2 5.2 0 0 0 4 1.2 5.5 5.5 0 0 0 3.3-1.2 81.7 81.7 0 0 0 20.1 5.8 11.8 11.8 0 0 0 .6 2.5 7.4 7.4 0 0 1 .2.7v.1a2.5 2.5 0 0 0-.5 1.4 2.8 2.8 0 0 0 1 2.1 2.4 2.4 0 0 0 1.8.6h.4l.8.6 1.8 1a8 8 0 0 0 4 1 11.4 11.4 0 0 0 5-1.2l.5-.2a7.7 7.7 0 0 0 .6-.5 9.9 9.9 0 0 0 3.6-6 198 198 0 0 0 22.6-.5A194 194 0 0 0 98.2 89a11.6 11.6 0 0 0 2.3 3 7.4 7.4 0 0 1 .6.5v.1a2.5 2.5 0 0 0 .2 1.5 2.8 2.8 0 0 0 1.9 1.4 2 2 0 0 0 .5 0 2.9 2.9 0 0 0 1.7-.5l1 .1 2 .1h.1c3 0 6.3-2.3 7.8-4.5l.2-.4a7.7 7.7 0 0 0 .4-.8 9.8 9.8 0 0 0 .7-5l4.7-1.6c7.7 12.2 30.2 6.8 30.2 6.8-14.7-.2-20.3-7-22-10.1a68 68 0 0 0 7.2-3.8 1.5 1.5 0 0 0 .8-.5l.2-.1a1.5 1.5 0 0 0 1.2.5l2.2-.2a1.5 1.5 0 0 0 1.4-1.6l-.2-2.2.3 2.2a1.5 1.5 0 0 0 1.6 1.4l2.1-.2a1.5 1.5 0 0 0 1.4-1.6l-.3-4.7h.4a1.5 1.5 0 0 0 1.4-1.6l-.2-1.9a1.5 1.5 0 0 0-1-1.3 10 10 0 0 0 .4-3.5z"/><path class="cls-2" d="M231.6 65.5a11.6 11.6 0 0 0-.7-2.6A4.8 4.8 0 0 0 228 60h-.1a15.1 15.1 0 0 0 .5-3.2 25.2 25.2 0 0 0-.5-5.6v-.6l-.8-4.2-.3-1.5-1-5.4a54.3 54.3 0 0 1-.4-5.5v-1.9l-.1-4a16.2 16.2 0 0 0-1.7-6.4 10.2 10.2 0 0 0-5.7-4.8l-.5-.2a2 2 0 0 0-.4 0 3 3 0 0 0-2 .6 2.9 2.9 0 0 0-.7.8 19.5 19.5 0 0 0-2-4.6 6 6 0 0 0-.9-1 3.2 3.2 0 0 0-1.2-.7 2.8 2.8 0 0 0-1.7 0 25 25 0 0 0-1-3.3 18.2 18.2 0 0 0-.5-2l-.1-.2a4.5 4.5 0 0 0-.6-1.1 3.1 3.1 0 0 0-.5-.5 2 2 0 0 0-.4-.3l-.5-.2a2 2 0 0 0-.6-.1 3 3 0 0 0-2 .5 4.3 4.3 0 0 0-1 1.2l-.5.8-.2.3a8.3 8.3 0 0 1-1 1.6 2.5 2.5 0 0 1-1.2.7h-.2a1.9 1.9 0 0 1-.2-.3.8.8 0 0 0 0-.1 3.1 3.1 0 0 1 0-.4l.2-2.2v-.6a12.6 12.6 0 0 0 .2-1.6 9.5 9.5 0 0 0 0-1v-.2a3.9 3.9 0 0 0-.4-1.4l-.1-.2a2.8 2.8 0 0 0-2-1.2 3 3 0 0 0-2.1.5 3.8 3.8 0 0 0-.7.5l-.1.2-.3.3a16.5 16.5 0 0 0-1 1.4 31.5 31.5 0 0 0-1.7 3l-.9 1.8-.3.9v-.4l-.1-2a2.6 2.6 0 0 0-.1-.6 2.6 2.6 0 0 0-.5-1 2.6 2.6 0 0 0-2.6-1 3.2 3.2 0 0 0-2.3 2.5 6.6 6.6 0 0 0-.1.8v.3l-.1.8-.1.7a7.4 7.4 0 0 1-.2.8 12.3 12.3 0 0 1-.9 2.6 44.8 44.8 0 0 1-3.6 6l-1.8 2.9a17.4 17.4 0 0 0-1.9 1.8 21.5 21.5 0 0 0-4.2 7.2 22.7 22.7 0 0 0-1.3 6.3 49.9 49.9 0 0 0 .7 10.6l-.6 2-1.2 6.7a3.3 3.3 0 0 0-.8 1 4.8 4.8 0 0 0-.7 1.9v.2a5 5 0 0 0 0 1.9v.1a3.1 3.1 0 0 0 .3.5 4.2 4.2 0 0 0 .3 2.3 6 6 0 0 0 .9 1.3 6.5 6.5 0 0 0-1.2 2 5.3 5.3 0 0 0 .3 4.2l.2.4a9 9 0 0 0-.7 1.5 14.3 14.3 0 0 0 0 6.4 46 46 0 0 0 1 5.1l.1.6 1 4.2.2 1.4 1.9 8.6-7.6 3.3-6.5 3v-3.4a3.2 3.2 0 0 0-.3-1.3 3.9 3.9 0 0 0-2-2 7 7 0 0 0-2-.5 16.2 16.2 0 0 0-3 0 17.7 17.7 0 0 0-3.2.3 7 7 0 0 0-1.8.7 3.7 3.7 0 0 0-2 2.8v9.7a15 15 0 0 0 0 2.4 3.8 3.8 0 0 0 .6 1.6 3.6 3.6 0 0 0 1.5 1.2 6.8 6.8 0 0 0 1.7.4h.2a19.2 19.2 0 0 0 2.8.2h.3a17 17 0 0 0 3.1-.3h.3a6.6 6.6 0 0 0 3-1.3 3.4 3.4 0 0 0 1.3-2.7l12-6.3 3-1.7 1.1 4.2a16.7 16.7 0 0 0 1.5 3.6 7.2 7.2 0 0 0 3.8 3.4 26 26 0 0 0 7.5 1 54.9 54.9 0 0 0 7-.4 31.8 31.8 0 0 0 7.2-1.3 16.7 16.7 0 0 0 3.6-1.6 21.8 21.8 0 0 0 3.1-2.3c1.4-1.1 2.5-2.3 3.7-3.5l1.3-1.3 1.3-1.2a45.3 45.3 0 0 0 3.4-3.6 16.5 16.5 0 0 0 2.2-3 18 18 0 0 0 1.3-3.5l1-4c0-.8.2-1.5.3-2.2l1.5-6.8a17.9 17.9 0 0 0 3.7-3 22 22 0 0 0 1.5-1.7 13 13 0 0 0 1.3-2.2v-.1a21.2 21.2 0 0 0 1.7-4.9 15.9 15.9 0 0 0 .4-5.4z"/><path class="cls-3" d="M180 21.3c-3.7 2-7.4 7.1-8.2 13.6a36.9 36.9 0 0 0-.1 6.7c2.4-1.1 4.5-2.8 5.3-5.4 2 .8 3.5 2 5.4 3l1.6-16.4z"/><path class="cls-4" d="M177 36.2c-.8 2.6-2.8 4.3-5.3 5.4a69 69 0 0 0 1.1 8.5l8.4 1.1 1.2-12c-1.9-1-3.5-2.2-5.4-3z"/><path class="cls-5" d="M171.2 36.4a53.7 53.7 0 0 0 1.3 13.2v.7h.7l.8.1 1.7.2 2.9.3 2.7.3-2.7-.4-2.8-.5-1.7-.2-.9-.1h-.1l-.1-.4a61.8 61.8 0 0 1-.8-13.1 22.5 22.5 0 0 1 1-5.6 19.6 19.6 0 0 1 3.4-6.4A14.3 14.3 0 0 1 179 22a6.7 6.7 0 0 1 .6-.5l.3-.2h.3l1.3.5 2.5 1-2.5-1-1.2-.6h-.2s-.2-.2-.2 0l-.4.1a6.9 6.9 0 0 0-.7.5 14.6 14.6 0 0 0-2.6 2.3 19.6 19.6 0 0 0-3.8 6.4 20.8 20.8 0 0 0-1.2 5.8z"/><path class="cls-6" d="M208.6 69.9a46.4 46.4 0 0 0-14.8 2.7c4.7 4.5 12.2 1.5 14.8-2.7zM194.3 62a25 25 0 0 0 13.7-2.2c-5 0-9.4-.6-13.7 2.2zm1.5-32.9s-12.5 1.1-19.7 10.6a7.3 7.3 0 0 0 5 2.1 8.9 8.9 0 0 0 9 1.4 15.8 15.8 0 0 0 13.1-.9c3.4 1.2 6.7.5 10-1a27.6 27.6 0 0 1 2.4-5.4 25.3 25.3 0 0 0-19.8-6.8z"/><path class="cls-7" d="M218.6 39.4a21.6 21.6 0 0 0-3-3.5 27.6 27.6 0 0 0-2.3 5.3l.8-.4-.8.4-.2.6.2-.6c-3.4 1.6-6.7 2.3-10 1.1a15.8 15.8 0 0 1-13.1 1 8.9 8.9 0 0 1-9-1.5 7.3 7.3 0 0 1-5-2.1 23.5 23.5 0 0 0-4.3 9.6L170 59c3.4 0 6.3.5 9.3 2.4-3 1.7-6.4.6-10 .4a1.5 1.5 0 0 0 .1.4c.7 2 3.3 2.4 3.3 5 0 1.5-1 2.5-2 3.6 3-.5 5.6.5 8.6-.2-2.2 3.9-6.6 4.1-10.1 2.9a9.2 9.2 0 0 0-.3 3.6c.3 3.5 1.4 7 2 10.5 1.2 6.1 2.6 12.2 4.2 18.3a31.8 31.8 0 0 0 1.4 5c9.2 4 19.2 2.4 28.5-.6 1.8-1.5 3.5-3.3 5-4.8 2.2-2.1 4.7-4.2 6.3-6.8 1.7-2.7 2-6.4 2.8-9.5 1.9-8.6 3.5-17 3.8-25.9.2-8 .2-17-4.4-23.9zM208 59.8a25 25 0 0 1-13.7 2.2c4.3-2.8 8.6-2.3 13.7-2.2zm-18.3 30c-1.8 3.1-7.8 4.3-9.3 0zm-9.1 8a24.4 24.4 0 0 1 8.5 0 38 38 0 0 0-10.7 1.6l2.2-1.6zm8 4.3a8 8 0 0 0-3.2 2.2 2.5 2.5 0 0 0-.5 1.7 4.4 4.4 0 0 0-3.6 3.3c-.5-2 .9-3.6 2.8-4.5v-3c-.9-.8-2.5.6-3.6-.4a22 22 0 0 1 11.2.1 9.8 9.8 0 0 1-3.1.6zm5.2-29.5a46.4 46.4 0 0 1 14.8-2.7c-2.6 4.2-10 7.2-14.8 2.7z"/><path class="cls-6" d="M189.7 89.8h-9.3c1.5 4.3 7.4 3.1 9.3 0zm-10.4-28.5c-2.9-2-5.8-2.3-9.2-2.4l-.2.8a9 9 0 0 0-.5 2c3.6.2 7 1.3 10-.4zm-2.7 49.5a5.3 5.3 0 0 0 3.1 3.2c4 1.2 9.2 1 13.3.4a27.3 27.3 0 0 0 8-1.6 15.8 15.8 0 0 0 4-2.6c-9.2 3-19.3 4.6-28.4.6zm3.9-9.4c1 1 2.7-.4 3.6.4h5l-.5.3a9.8 9.8 0 0 0 3-.5 22 22 0 0 0-11-.2z"/><path class="cls-6" d="M184 101.8v3c-1.8 1-3.2 2.5-2.7 4.5a4.4 4.4 0 0 1 3.6-3.3 2.5 2.5 0 0 1 .5-1.7c.7-1.2 2.4-1.8 3.7-2.5zm-3.4-4l-2.3 1.6a38 38 0 0 1 10.8-1.5 24.4 24.4 0 0 0-8.5-.1zm-1.3-27.3c-2.9.7-5.4-.3-8.4.2l-.7.7a6.5 6.5 0 0 0-1 2c3.6 1.2 8 1 10.2-3z"/><path class="cls-5" d="M222.8 48.6a23.8 23.8 0 0 0-4.9-10.9 24.9 24.9 0 0 0-9.6-7 25.2 25.2 0 0 0-9-1.8 19.6 19.6 0 0 0-2.6.1l-1 .1h1a20 20 0 0 1 2.7 0 25.3 25.3 0 0 1 8.7 2.2 24.8 24.8 0 0 1 9.1 7 24 24 0 0 1 4.5 10.5 51.6 51.6 0 0 1 .8 10.3 104 104 0 0 1-1.6 18.4c-.6 3.6-1.4 7.4-2.3 11.3-.4 2-.7 4-1.3 6a15.1 15.1 0 0 1-1 2.8 13.5 13.5 0 0 1-1.8 2.6c-1.4 1.6-3 3-4.6 4.6s-3.1 3.2-4.8 4.6a15.2 15.2 0 0 1-5.6 3.2 29.2 29.2 0 0 1-6.6 1.2 53.8 53.8 0 0 1-6.7.4 22.8 22.8 0 0 1-6.5-.9 4.2 4.2 0 0 1-2.1-2 14 14 0 0 1-1.2-3l-1.6-6.3c-1-4.2-2-8.3-2.7-12.2-.4-2-.7-4-1.2-5.8s-.9-3.7-1.1-5.5a11.4 11.4 0 0 1 0-5 6 6 0 0 1 1-2l1.5-1.8a4.6 4.6 0 0 0 1-2.4 4.2 4.2 0 0 0-.1-1.3 3.8 3.8 0 0 0-.5-1 9.6 9.6 0 0 0-1.5-1.6 3.9 3.9 0 0 1-1-1.3 1 1 0 0 1-.2-.6 3.9 3.9 0 0 1 .2-.7l.2-.9.2-.8.6-2.9.7-4 .5-2.7.7-2.8a8.4 8.4 0 0 1 .5-1.4l.6-1.4a7.7 7.7 0 0 1 .6-1.3l.8-1.3a9 9 0 0 1 .8-1.2l1-1.2 2-2.2c.6-.7 1.4-1.3 2.2-1.8a27.6 27.6 0 0 1 2.3-1.6 33.8 33.8 0 0 1 8.3-3.4 26.1 26.1 0 0 1 3.5-.8 25.3 25.3 0 0 0-3.6.6 33.2 33.2 0 0 0-8.5 3.2 27.5 27.5 0 0 0-2.4 1.4l-2.4 1.8c-.8.6-1.5 1.4-2.2 2.2l-1 1.2a9.4 9.4 0 0 0-.9 1.3l-.7 1.3a8.2 8.2 0 0 0-.7 1.4l-.7 1.4a9 9 0 0 0-.5 1.5l-.8 2.9-.5 2.7-.7 4-.6 2.9-.2.8-.2.7a4.9 4.9 0 0 0-.2 1 2.2 2.2 0 0 0 .2 1.2c.6 1.4 2 2 2.7 3a2.5 2.5 0 0 1 .4 1.8 3.5 3.5 0 0 1-.8 1.7L170 71a7 7 0 0 0-1.2 2.4 12.4 12.4 0 0 0 0 5.5l1.2 5.5a276 276 0 0 0 3.9 18l1.6 6.4a15 15 0 0 0 1.3 3.2 5.3 5.3 0 0 0 2.7 2.5 23.7 23.7 0 0 0 6.8 1 54.8 54.8 0 0 0 6.9-.5 30.3 30.3 0 0 0 6.8-1.2 14.8 14.8 0 0 0 3.2-1.4 20.2 20.2 0 0 0 2.8-2c1.7-1.5 3.3-3.2 4.8-4.7s3.3-3 4.7-4.7a14.6 14.6 0 0 0 1.9-2.7 16.3 16.3 0 0 0 1.1-3c.6-2.1 1-4.2 1.4-6.1a226.5 226.5 0 0 0 3.5-21.5c.3-3.1.3-6 .3-8.5a52.7 52.7 0 0 0-.8-10.6z"/><path class="cls-8" d="M209.3 67.2c-.2-1-1-1.6-3.1-2.2-3.4-1-8.8-.3-8.8-.3-3.6.6-4.7 1.4-4.9 3.1 0 0-.3 2.7.4 4 5.5.1 13.1.6 16.4-4.6z"/><path class="cls-9" d="M193 71.8a1.4 1.4 0 0 0 1 .8 32.6 32.6 0 0 0 10.7-.8c3-.8 4.8-1.8 4.8-3.6a3.9 3.9 0 0 0-.2-1c-3.3 5.2-10.9 4.7-16.4 4.6z"/><path class="cls-7" d="M190.8 88.4a2.4 2.4 0 0 0 0-.4 5.3 5.3 0 0 0-1.5-3L184 65.4a23.6 23.6 0 0 1 .3 4.7c0 4.2-1.3 8-2.6 12-.7 2-1.7 4.2-1.7 6.4a3.4 3.4 0 0 0 0 .5c2.9 1.7 7.7.7 11-.7z"/><path class="cls-6" d="M180 89c.6 3.5 6 2.5 8.4 1.6 1.2-.4 2.3-1 2.5-2.2-3.3 1.4-8.1 2.4-10.9.7z"/><path class="cls-5" d="M180.8 85.7l1.7-5.1a42.3 42.3 0 0 0 1.7-6.7 27.4 27.4 0 0 0 0-6 13.5 13.5 0 0 0-.3-2.4 13.6 13.6 0 0 1 .2 2.4 27.8 27.8 0 0 1-.4 5.9 44.7 44.7 0 0 1-1.9 6.5l-1.8 5.1a11 11 0 0 0-.5 2.4v.8l.1.8a2.9 2.9 0 0 0 1 1.5 5.3 5.3 0 0 0 3.5.8 15 15 0 0 0 3.5-.6 6.4 6.4 0 0 0 2.9-1.5 2.1 2.1 0 0 0 .5-1.3 3.4 3.4 0 0 0-.2-1.3 6 6 0 0 0-1-1.6l-.4-.5.4.6a5.9 5.9 0 0 1 .8 1.6 2.4 2.4 0 0 1-.3 2.4 6.1 6.1 0 0 1-2.9 1.2 14.7 14.7 0 0 1-3.3.5 4.7 4.7 0 0 1-3-.9 2.6 2.6 0 0 1-.7-2.4 11.4 11.4 0 0 1 .4-2.2z"/><path class="cls-5" d="M183.3 96.6a4.2 4.2 0 0 0 .5-.4 4.3 4.3 0 0 0 1-1.4 7.8 7.8 0 0 0 .7-3.4h-.9a10.4 10.4 0 0 1-.2 3.3 4.2 4.2 0 0 1-.7 1.4 2.5 2.5 0 0 1-.3.4zm2.4 4.8H181a1.8 1.8 0 0 1-1-.5 7 7 0 0 1-.7-.8 9.2 9.2 0 0 1-.6-.8 8.8 8.8 0 0 0 .5.8 6.9 6.9 0 0 0 .6.9 2 2 0 0 0 1 .8l4.9.3h3.4a6 6 0 0 0 1.4-.1 5.6 5.6 0 0 0 2.1-1 9.4 9.4 0 0 0 .8-.7l-.9.6a5.5 5.5 0 0 1-2 .7 5.8 5.8 0 0 1-1.4 0h-1.3l-2-.2z"/><path class="cls-5" d="M181.8 110.6a3.3 3.3 0 0 1-.4-1.1 3.1 3.1 0 0 1 .5-2.7 5 5 0 0 1 1.3-.9 3.5 3.5 0 0 0 .8-.5 1.8 1.8 0 0 0 .4-1 11.7 11.7 0 0 0-.2-2.8l-.9.2a15.7 15.7 0 0 1 .3 2.5 1.6 1.6 0 0 1 0 .6 3.3 3.3 0 0 1-.7.5 5.3 5.3 0 0 0-1.3 1.1 2.4 2.4 0 0 0-.5 1.7 6.7 6.7 0 0 0 .2 1.3 3.3 3.3 0 0 0 .5 1.1z"/><path class="cls-4" d="M211.8 84.8c-.3.8-.1 1.4 1 1.4a15.7 15.7 0 0 0 5.6-1.5c.9-.5.7-.9.3-2.2a7 7 0 0 1-.2-1.5c-2 2.5-4 4.8-6.7 3.8z"/><path class="cls-10" d="M186.7 8V6.3c-.2-.7-1-.5-1 .7s-.5 2.6-.5 2.6c-.6 3.3-3.3 7.2-5.3 10.2 4-2.8 5.8-7.2 6.8-11.8zm9.3-5.1c-.1-.5-.3-.7-.7-.5-.7.5-2.7 3.7-3.8 6.6a9.6 9.6 0 0 1-2 3.2c3.8-1.5 5.2-5.5 6.5-9.3zm9.2 5.1c-.3-.8-.5-1.5-1-1.6-.7-.2-1.3 2.2-2.5 3.6a5 5 0 0 1-2.5 1.5c2 .7 4.6-1.2 6-3.5zm5.8 7.7l-.3-.6c-.7-1.2-1.1-1.4-1.5-1s0 2.3-.2 3.1a1 1 0 0 1-.7.7c1.8-.1 2.5-1 2.7-2.2zm9.3 5.2A7.3 7.3 0 0 0 217 19c-1-.2-.2 2.6.4 4.5a2.4 2.4 0 0 1-1 3c2.8-1 4.2-2.8 3.9-5.6z"/><path class="cls-3" d="M226.1 54c-.5-4.6-2-10.3-2.5-15-.8-6.3 0-10.3-1.2-14.4a8 8 0 0 0-2.1-3.7c.3 2.9-1 4.5-3.8 5.5a3.5 3.5 0 0 1-.5.3.5.5 0 0 1-.4 0l-.5.2v-.7a10 10 0 0 1-1-2.3c-.4-1.3-1.4-2-1.6-3.8a13 13 0 0 0-1.5-4.4c-.2 1.2-.8 2-2.7 2.1-.5 0-1-.6-1.2-2.2a29 29 0 0 0-1.2-5.2l-.7-2.4c-1.4 2.3-4 4.2-6 3.5a4 4 0 0 1-1.4 0c-1 0-1.8-1.3-2-2.3s.3-4 .4-4.9a6 6 0 0 0-.2-1.4c-1.3 3.8-2.7 7.8-6.6 9.3a4.4 4.4 0 0 1-2 1.3c-1 .2-.7-2.5-.7-4.7V8c-1 4.6-2.8 9-6.8 11.8l-.3.4a28 28 0 0 0-3.1 5.6l-.4 7.9s0 6.6 5.6 6.6c0 0 4.4 3.4 8.8 1.7 0 0 4.8 2.7 13.3-1.5 0 0 3.7 2.4 8.3-.8 0 0-.9 3 .7 4.4 0 0-.4 1.4 1.5 5.6s2.5 12.4 2.1 15.4a118.6 118.6 0 0 1-2 12.4 37.2 37.2 0 0 1-2.5 7 3.5 3.5 0 0 0-.1.3c2.7 1 4.8-1.3 6.7-3.7a32.2 32.2 0 0 1 .4-6.3l.2-1.1c0-7.2 4.1-12 7.1-18a14.7 14.7 0 0 0 0-1.7z"/><path class="cls-4" d="M219.1 73.7c.7-3.5 2.6-8.8 5-11.2a10 10 0 0 0 2.1-6.8c-3 6-7 10.8-7.1 18z"/><path class="cls-3" d="M215.6 26.7a1.2 1.2 0 0 1-.5-.5v.7z"/><path class="cls-10" d="M210.4 55.2a18 18 0 0 0-5.5-.2 30 30 0 0 0-10.4 2.5c-.7.3-1.5.6-1.8 1.4a2.8 2.8 0 0 0-.2.5 65.3 65.3 0 0 1 18.6-3.5 1.2 1.2 0 0 0-.7-.7z"/><path class="cls-3" d="M211.2 58.8a4.1 4.1 0 0 0 0-2.9 65.3 65.3 0 0 0-18.6 3.4 4.4 4.4 0 0 0 0 2.2 2.2 2.2 0 0 0 .2.4 28.8 28.8 0 0 1 18.4-3.1z"/><path class="cls-4" d="M192.7 61.9c.5.8 1.1.3 2 0a23.4 23.4 0 0 1 5.5-1.6 42.5 42.5 0 0 1 6.4-.7c1.2 0 3.5.7 4.4-.4a1.6 1.6 0 0 0 .2-.4 28.8 28.8 0 0 0-18.5 3z"/><path class="cls-5" d="M188.2 76.3V73l-.3 1.3a14.9 14.9 0 0 0-.1 2 12.5 12.5 0 0 0 .2 2 13 13 0 0 0 .4 1.3l-.2-1.3v-2zm10.3 2.7a20.1 20.1 0 0 1-2.5-2.7 33.1 33.1 0 0 1-3-4.6l-.3.2a26.6 26.6 0 0 0 3.1 4.5 19.3 19.3 0 0 0 2.7 2.6zM186 55l.5-4c.2-1.5.6-2.6.6-2.6l-.8 2.6a28.3 28.3 0 0 0-.7 4 24 24 0 0 0 0 4 24.7 24.7 0 0 0 .4 2.8 27.4 27.4 0 0 1-.1-2.7 36 36 0 0 1 .2-4z"/><path class="cls-8" d="M179.7 70a4 4 0 0 0 .2-2.2c-.4-3-5.4-3-7.6-2.8s-4.1 2.7-3.1 4.9a14.3 14.3 0 0 0 10.5.2z"/><path class="cls-9" d="M169.2 69.9a3.5 3.5 0 0 0 .6.8c1 1.3 3.1 1.4 4.6 1.2 2.3-.3 4.5-.3 5.2-1.8a14.3 14.3 0 0 1-10.4-.2z"/><path class="cls-10" d="M197.1 67.4a8.2 8.2 0 0 0-4.1-.9 4.7 4.7 0 0 0-.4 1.3 8.3 8.3 0 0 1 6.1 1.6 4.4 4.4 0 0 0-1.6-2z"/><path class="cls-3" d="M192.6 67.8a10.8 10.8 0 0 0 0 3.3c.2 1.3 1 1.6 3 1.6h3.6a6.9 6.9 0 0 0-.5-3.3 8.3 8.3 0 0 0-6.1-1.7zm-23.6.6a3.6 3.6 0 0 0 2 3.2c1 .5 3.5.3 3.5.3a6.4 6.4 0 0 0-.8-3.7 7.2 7.2 0 0 0-4.3-1.3 3.3 3.3 0 0 0-.5 1.5z"/><path class="cls-10" d="M172.8 67a4.4 4.4 0 0 0-2.9-.7 1.9 1.9 0 0 0-.5.6 7.2 7.2 0 0 1 4.4 1.3 3.9 3.9 0 0 0-1-1.1z"/><path class="cls-5" d="M196.2 64.5a8.9 8.9 0 0 0-2.5.8 3.1 3.1 0 0 0-1.2 1.2 4.3 4.3 0 0 0-.4 1.8 7.5 7.5 0 0 0 .5 3.6 2 2 0 0 0 .7.8 1.9 1.9 0 0 0 1 .2h1.8a33.3 33.3 0 0 0 6.1-.6 24.4 24.4 0 0 0 2.5-.6 25 25 0 0 1-2.5.5 34 34 0 0 1-6.1.3l-1.8-.1a1.3 1.3 0 0 1-1.1-.8 7 7 0 0 1-.3-3.3c-.1-2.4 2.3-2.7 3.5-3a29.2 29.2 0 0 1 5.5-.5 18.8 18.8 0 0 1 3.4.2 8.7 8.7 0 0 1 3.2 1.2 2 2 0 0 1 .8 1.4 2.8 2.8 0 0 1-.1 1.5 3.8 3.8 0 0 1-2 1.7 14.5 14.5 0 0 1-1.8.7l-.7.2.7-.2a14.4 14.4 0 0 0 1.8-.6 4 4 0 0 0 2.2-1.7 3.1 3.1 0 0 0 .2-1.7 2.4 2.4 0 0 0-.8-1.6c-2-1.5-4.7-1.8-7-1.9a25.6 25.6 0 0 0-5.6.5zm-21.8 0a15.4 15.4 0 0 0-1.7 0 4.4 4.4 0 0 0-2.3.8 4.3 4.3 0 0 0-1.6 2 3.3 3.3 0 0 0 .2 2.7 3.4 3.4 0 0 0 1.8 1.6 5.8 5.8 0 0 0 1.9.4 10.3 10.3 0 0 0 1.3 0h.5-.5a10.4 10.4 0 0 1-1.3 0 5.6 5.6 0 0 1-1.8-.6 3 3 0 0 1-1.5-1.6 2.8 2.8 0 0 1 0-2.2 3.7 3.7 0 0 1 3.4-2.1h1.6a10 10 0 0 1 3.6.5 2.5 2.5 0 0 1 1.5 1.5 4.3 4.3 0 0 1 0 2.2 2.3 2.3 0 0 1-1.5 1.5 9.7 9.7 0 0 1-1.8.4l-1.8.3 1.8-.1a9.8 9.8 0 0 0 2-.4A2.7 2.7 0 0 0 180 70a4.7 4.7 0 0 0 .1-2.6 3.1 3.1 0 0 0-1.7-2 9.6 9.6 0 0 0-4-.8z"/><path class="cls-5" d="M176.6 76.6l1-.8a10.8 10.8 0 0 0 1.7-2.5 9 9 0 0 0 1-3.4 8 8 0 0 0-.3-2.9l-.4.1a8.3 8.3 0 0 1 .3 2.7 9 9 0 0 1-.8 3.4 10.8 10.8 0 0 1-1.6 2.5z"/><path class="cls-10" d="M180.6 58.7a15 15 0 0 0-3.5-.7l-4.5-.8a7.2 7.2 0 0 0-2.5-.2 1.4 1.4 0 0 0-1.1 1 56.4 56.4 0 0 1 12.2 2 1.5 1.5 0 0 0-.6-1.3z"/><path class="cls-3" d="M181 61.5a3.6 3.6 0 0 0 .2-1.5 56.4 56.4 0 0 0-12.3-2 4.1 4.1 0 0 0-.2 1.5 1.5 1.5 0 0 0 0 .3c4.4-.6 8.2.3 12.3 1.7z"/><path class="cls-4" d="M168.8 59.8c.2 1.1 1.7.7 2.7.7a18.5 18.5 0 0 1 5.3.8c.9.3 3.2 1.5 4 .6a1.5 1.5 0 0 0 .2-.4c-4.1-1.4-8-2.3-12.2-1.8z"/><path class="cls-5" d="M198.5 60.1a21.5 21.5 0 0 0-2.5.7l-1.5.6-.8.4a.8.8 0 0 1-.5.1 1 1 0 0 1-.3-.5 3.9 3.9 0 0 1-.1-.8 3.3 3.3 0 0 1 .2-1.7 2.7 2.7 0 0 1 1.3-1l1.7-.7a29.7 29.7 0 0 1 6.2-1.8c1.6-.3 2.7-.3 2.7-.3l-2.7.2a29.4 29.4 0 0 0-6.3 1.4l-1.8.7a3.2 3.2 0 0 0-1.6 1.3 3.9 3.9 0 0 0-.4 2 4.5 4.5 0 0 0 .1 1 1.6 1.6 0 0 0 .7 1 1.4 1.4 0 0 0 1.2-.1l.7-.3 1.5-.6 2.4-.6a54.4 54.4 0 0 1 5.8-1h1.8a13 13 0 0 1 1.9 0 6.2 6.2 0 0 0 2 0 2 2 0 0 0 .9-.6 2 2 0 0 0 .4-1 4.7 4.7 0 0 0 0-1.8 1.9 1.9 0 0 0-1-1.5 12.2 12.2 0 0 0-2.9-.3 19.8 19.8 0 0 0-2.7.2 20.1 20.1 0 0 1 2.7 0 12.3 12.3 0 0 1 2.8.4c.5.2.7.7.8 1.3a4.3 4.3 0 0 1-.1 1.7 1.3 1.3 0 0 1-1.1 1 5.7 5.7 0 0 1-1.8 0 13.3 13.3 0 0 0-1.9-.2h-1.8a42.7 42.7 0 0 0-6 .8zm-20.9 1a13.2 13.2 0 0 0-4-.8 19 19 0 0 0-2.6 0 9.4 9.4 0 0 1-1.2 0 .8.8 0 0 1-.8-.4 3 3 0 0 1 0-1.1 2.6 2.6 0 0 1 .2-1 1.6 1.6 0 0 1 1.6-.8 8.4 8.4 0 0 1 1.3.1l.5.1h-.5a8.4 8.4 0 0 0-1.3-.3 3.3 3.3 0 0 0-1 0 1.5 1.5 0 0 0-.8.7 2.9 2.9 0 0 0-.4 1.2 3.3 3.3 0 0 0 0 1.3 1.1 1.1 0 0 0 .4.6 1.7 1.7 0 0 0 .8.2 9.5 9.5 0 0 0 1.3 0 19.9 19.9 0 0 1 2.4.2 14.7 14.7 0 0 1 3.7 1 12 12 0 0 0 1.8.5 3.4 3.4 0 0 0 1.2.1 1.4 1.4 0 0 0 .7-.3 1.5 1.5 0 0 0 .4-.6 3.7 3.7 0 0 0 .3-1.4 3 3 0 0 0-.3-1.4 1.2 1.2 0 0 0-.6-.5 3.7 3.7 0 0 0-.7-.2 10 10 0 0 0-1.3-.2l-4.3-.6-1.8-.3 1.8.4 4.3 1a9.8 9.8 0 0 1 1.2.2 3.2 3.2 0 0 1 .5.2.6.6 0 0 1 .3.3 3 3 0 0 1 0 2.2.6.6 0 0 1-.6.4 2.8 2.8 0 0 1-1-.1 15 15 0 0 1-1.5-.7z"/><path class="cls-11" d="M144.8 110.2v2.4c0 1.5 0 2.2 1.5 2.5a16 16 0 0 0 5.9 0c.8-.2 2.5-.4 3-1.3a1 1 0 0 0 0-.3c-3.8 1-8 .3-10.4-3.3z"/><path class="cls-12" d="M154.7 101.8a.9.9 0 0 0 0-.2c-.5-1.3-3.2-1.3-4.3-1.3-1.4 0-4.3.2-5.2 1.3a1.3 1.3 0 0 0-.4.7c3-1.8 6.6-1.6 9.9-.5z"/><path class="cls-13" d="M153.9 102.7l.8-.4v-.5a11.8 11.8 0 0 0-9.9.5 8.8 8.8 0 0 0 2 1c2.3-.2 4.8-.7 7-.6z"/><path class="cls-11" d="M153.9 102.7c-2.3-.1-4.9.4-7.1.5a10.2 10.2 0 0 0 7-.5z"/><path class="cls-13" d="M181.8 97.7l-3.5.4-23.1 10.4c-.8.2-.6-3-.5-5.2a8.4 8.4 0 0 1-9.9.2v6.7c2.4 3.6 6.7 4.4 10.4 3.4.1-.8-.4-1.6.4-2l2.1-1a43.5 43.5 0 0 1 16.5-8.9z"/><path class="cls-11" d="M157.7 110.5l16.5-8.8c-6.1 1.4-12 5.2-16.5 8.8z"/><path class="cls-12" d="M154.7 103.3v-1c-3.3 1.6-6.8 2-9.9 0a9.3 9.3 0 0 0 0 1.1 8.4 8.4 0 0 0 9.9-.1z"/><path class="cls-5" d="M168.3 105c5.4-2.8 13.5-7.4 13.5-7.4l-13.7 7-10.8 5.8-1 .6-.6.3a1.9 1.9 0 0 0-.5.4 1 1 0 0 0-.3.7l.1.6a1 1 0 0 1-.3 1 5.3 5.3 0 0 1-2.3.8 14.5 14.5 0 0 1-2.7.3 16.6 16.6 0 0 1-2.7-.2 5.7 5.7 0 0 1-1.3-.3 1 1 0 0 1-.7-1 25 25 0 0 1 0-2.7v-8.6a1.3 1.3 0 0 1 .8-1 4.8 4.8 0 0 1 1.3-.4 15.4 15.4 0 0 1 2.7-.4 13.8 13.8 0 0 1 2.6 0c.8.2 1.8.4 2 1a4.3 4.3 0 0 1 0 1.2v3.6l.1 1.2a3.7 3.7 0 0 0 .2.6c0 .1 0 .4.4.5a.6.6 0 0 0 .3 0h.1l.3-.1.4-.2 1-.4 3.2-1.5 4-1.8 14-6.5s-8.6 3.5-14.2 6l-4 1.9-3.2 1.5-1.8.8a.7.7 0 0 1-.2-.3 3.3 3.3 0 0 1-.1-.5v-5.4a1.7 1.7 0 0 0-.2-.7 2 2 0 0 0-1-1 5.1 5.1 0 0 0-1.4-.3 14.3 14.3 0 0 0-2.7 0 15.8 15.8 0 0 0-2.8.4 5.3 5.3 0 0 0-1.4.5 1.7 1.7 0 0 0-.9 1.2v8.7a24.3 24.3 0 0 0 0 2.9 1.8 1.8 0 0 0 .2.7 1.6 1.6 0 0 0 .7.5 6 6 0 0 0 1.4.4 17.1 17.1 0 0 0 2.8.2 15 15 0 0 0 2.7-.3 5.5 5.5 0 0 0 2.5-1 1.4 1.4 0 0 0 .5-1.3v-1a5.6 5.6 0 0 1 1-.5l1-.6z"/><path class="cls-5" d="M149.7 103.4a12.6 12.6 0 0 1-3-.3 6.6 6.6 0 0 1-1.3-.5 3.2 3.2 0 0 1-.5-.3 3.1 3.1 0 0 0 .5.4 6.4 6.4 0 0 0 1.3.6 9.8 9.8 0 0 0 3 .5 10 10 0 0 0 3-.5 7.3 7.3 0 0 0 1.4-.6 3.5 3.5 0 0 0 .5-.3 3.6 3.6 0 0 1-.6.2 7.6 7.6 0 0 1-1.3.5 13 13 0 0 1-3 .3z"/><path class="cls-6" d="M219.2 78.5a4 4 0 0 0 0 1.5c.8 3.4 5.8-1.7 7.2-3.6-2 1.7-5.2 2.8-7.2 2z"/><path class="cls-7" d="M222 68.8l1-1a16 16 0 0 1 5.7-4.2c-2-4.6-7.5 2.8-8.5 6.2l.4 7.3a1.5 1.5 0 0 0-.8.3 2 2 0 0 0-.6 1c2 .8 5.2-.3 7.2-2l.3-.3a17 17 0 0 0 2.5-10.3v-.5a26.1 26.1 0 0 0-6.2 2.5l-1 1z"/><path class="cls-6" d="M223 67.8a26.1 26.1 0 0 1 6.2-2.5 7.7 7.7 0 0 0-.5-1.7 16 16 0 0 0-5.7 4.2z"/><path class="cls-5" d="M221 80.5c-.5.2-1 .3-1.3-.1a2 2 0 0 1-.2-.4 1.5 1.5 0 0 1-.1-.4 3.7 3.7 0 0 1 0-1 1.9 1.9 0 0 1 .6-1.2 1.3 1.3 0 0 1 .6-.3 1.2 1.2 0 0 0-.7.2 2 2 0 0 0-1 1.2 3.9 3.9 0 0 0-.1 1 2 2 0 0 0 0 .6 2.5 2.5 0 0 0 .3.6 1.5 1.5 0 0 0 1 .8 2.4 2.4 0 0 0 1.2-.2 12.3 12.3 0 0 0 4.1-3 19.9 19.9 0 0 0 1.4-1.6 11.7 11.7 0 0 0 1.1-2 19.3 19.3 0 0 0 1.5-4.4 14 14 0 0 0 .3-4.7 9.6 9.6 0 0 0-.6-2.2 2.9 2.9 0 0 0-1.5-1.7 2.6 2.6 0 0 0-2 .3 6.5 6.5 0 0 0-1.3.8 12.4 12.4 0 0 0-1.3 1.4 14 14 0 0 0-2.1 3.5 9.9 9.9 0 0 0-.7 2.1 12.8 12.8 0 0 1 1-1.9 31 31 0 0 1 2.5-3.1 11.6 11.6 0 0 1 1.2-1.2 5.7 5.7 0 0 1 1-.8 1.8 1.8 0 0 1 1.4-.2 2 2 0 0 1 1 1.2 8.8 8.8 0 0 1 .5 2 13.1 13.1 0 0 1-.2 4.4 18.4 18.4 0 0 1-1.5 4.3 11 11 0 0 1-1 1.7 19 19 0 0 1-1.3 1.5 11.6 11.6 0 0 1-3.8 2.8z"/><path class="cls-5" d="M221 70.4a20.1 20.1 0 0 1 2.8-3.2 14.2 14.2 0 0 1 2.7-2 10.7 10.7 0 0 1 2.4-1l-.3-1a9.1 9.1 0 0 0-2.5 1.3 13.6 13.6 0 0 0-2.6 2.4 18.9 18.9 0 0 0-2.4 3.5z"/><path class="cls-5" d="M212.4 40.4l.5-1.7-1.8 1.1-1 .5a8.3 8.3 0 0 1-2 .6 7.2 7.2 0 0 1-2 0 6.4 6.4 0 0 1-1-.3l-.6-.2h-.2l-.2-.2-.2-.1-1.8.8-1.6.6a20.1 20.1 0 0 1-3.3.9 14.9 14.9 0 0 1-3.4.2 10.6 10.6 0 0 1-1.6-.3 7.6 7.6 0 0 1-.8-.2l-.4-.1a3.8 3.8 0 0 1-.4-.2l-.7.2a3.6 3.6 0 0 1-.6.1 8 8 0 0 1-1.2.2 9.5 9.5 0 0 1-2.3-.3 12 12 0 0 1-4-1.8 5 5 0 0 1-3.6-1.3 6.2 6.2 0 0 1-1.5-2.6 9.7 9.7 0 0 1-.5-1.9v-.7.7a9.7 9.7 0 0 0 .3 2A6.3 6.3 0 0 0 178 39a3.8 3.8 0 0 0 .7.6 4 4 0 0 0 .9.5 6 6 0 0 0 1 .3h1a12.3 12.3 0 0 0 4 2 9.9 9.9 0 0 0 2.4.3 8.4 8.4 0 0 0 1.2 0 4 4 0 0 0 .7-.2l.5-.2.3.2.4.1a8.1 8.1 0 0 0 .8.3 11.1 11.1 0 0 0 1.7.3 15.4 15.4 0 0 0 3.6-.1 20.5 20.5 0 0 0 3.4-.9c.6-.1 1.1-.4 1.7-.6l1.4-.6.3.1.6.3a7.2 7.2 0 0 0 1.2.3 8 8 0 0 0 2.4 0 9.1 9.1 0 0 0 2.2-.6l1-.4v.7a5.7 5.7 0 0 0 0 1 3.9 3.9 0 0 0 .4 1 2.8 2.8 0 0 0 .2.5l.2.2v.1a9 9 0 0 0 .6 3 25.7 25.7 0 0 0 1 2.6 23.6 23.6 0 0 1 1.6 5.4 47.7 47.7 0 0 1 .6 5.6v2.9a25 25 0 0 1-.1 2.8 103.5 103.5 0 0 1-1.9 11.2 34 34 0 0 1-2 5.3l-.5 1.3a3.2 3.2 0 0 0-.3.8 1.4 1.4 0 0 0 .2 1 1.3 1.3 0 0 0 1 .5 3.6 3.6 0 0 0 .8 0 13 13 0 0 0 1.4-.2 18.4 18.4 0 0 0 2.8-.8 9.3 9.3 0 0 0 1.4-.6 1.3 1.3 0 0 0 .6-.9 2.2 2.2 0 0 0 0-.9 11.2 11.2 0 0 1-.4-1.3 11 11 0 0 1-.1-1.4 27.5 27.5 0 0 1 0-2.8 31.8 31.8 0 0 1 3-10.8 21.4 21.4 0 0 1 1.2-2.5 12.5 12.5 0 0 1 .8-1.1l.5-.5a4.7 4.7 0 0 0 .5-.6 11 11 0 0 0 1.7-5.6 26.5 26.5 0 0 0-.5-5.8l-1-5.6c-.4-2-.8-3.7-1-5.6l-.5-5.7c0-1.9 0-3.8-.2-5.7a14.3 14.3 0 0 0-1.4-5.7 8.1 8.1 0 0 0-4.5-3.8l-.4-.1a1 1 0 0 0-.7.1 1 1 0 0 0-.3.6 2.4 2.4 0 0 0 0 .4 7.3 7.3 0 0 0 .2 1.6l.8 2.7a1.9 1.9 0 0 1-.8 2 2.4 2.4 0 0 1-.5.3l-.2-.2a4 4 0 0 1-.6-1l-.5-1.3a6.6 6.6 0 0 0-.7-1.4 5.4 5.4 0 0 1-1-2.5 14.9 14.9 0 0 0-2-5.4 3.9 3.9 0 0 0-.5-.7 1.3 1.3 0 0 0-.5-.3.8.8 0 0 0-.7 0 1.2 1.2 0 0 0-.3.3 1.2 1.2 0 0 0-.1.3 1.8 1.8 0 0 0-.1.4 7 7 0 0 0 0 .8v1.4a1.2 1.2 0 0 1-.2.5l-.2.2s-.3-.3-.4-.7a7 7 0 0 1-.3-1.3l-.5-2.8a25.4 25.4 0 0 0-.9-2.8c-.2-.9-.4-1.8-.8-2.8a2.8 2.8 0 0 0-.4-.7 1.5 1.5 0 0 0-.2-.2l-.3-.2a1 1 0 0 0-.7.2 2.3 2.3 0 0 0-.6.7l-.4.6a11.3 11.3 0 0 1-1.4 2.3A4.5 4.5 0 0 1 199 11a3.6 3.6 0 0 1-1.3 0 1.5 1.5 0 0 1-.9-.5 3.6 3.6 0 0 1-.6-1 2.9 2.9 0 0 1-.1-.7 5.2 5.2 0 0 1 0-.6c0-1 .1-1.9.3-2.8a12.1 12.1 0 0 0 0-1.4 7.4 7.4 0 0 0 0-.8 2.3 2.3 0 0 0-.2-.9.8.8 0 0 0-.5-.4 1 1 0 0 0-.7.2 2 2 0 0 0-.3.3l-.3.3a14.3 14.3 0 0 0-.8 1.2 29.9 29.9 0 0 0-1.7 2.9l-1.4 3a8 8 0 0 1-2 2.7 4.3 4.3 0 0 1-.7.4 2.6 2.6 0 0 1-.4.2h-.2l-.2-.5a6.2 6.2 0 0 1 0-.8V8.2l-.1-1.9a1.3 1.3 0 0 0 0-.2.8.8 0 0 0-.2-.3.6.6 0 0 0-.6-.2c-.4 0-.7.7-.8 1l-.1.8-.1.9c-.1.5-.1 1.1-.3 1.6a14.3 14.3 0 0 1-1 3c-1.8 3.8-4.2 6.7-5.5 9a24.8 24.8 0 0 0-1.9 3.9 25.2 25.2 0 0 1 2-3.8c1.4-2.3 3.9-5 5.8-9a14.7 14.7 0 0 0 1.2-3l.3-1.7.1-.9.2-.8c0-.2 0-.3.2-.3v5.4a6.8 6.8 0 0 0 .2 1 2.6 2.6 0 0 0 .1.5 1.9 1.9 0 0 0 .2.3.8.8 0 0 0 .3.2.8.8 0 0 0 .4 0 1.6 1.6 0 0 0 .3 0 3.4 3.4 0 0 0 .5-.2 5 5 0 0 0 .8-.5 8.8 8.8 0 0 0 2.3-2.8L193 7a30.7 30.7 0 0 1 1.6-2.8 13.5 13.5 0 0 1 .8-1.2l.2-.2.1-.2a2.5 2.5 0 0 1 .1.5 6.5 6.5 0 0 1 0 .6 11.2 11.2 0 0 1-.1 1.4l-.3 2.9a6 6 0 0 0 0 .8 3.7 3.7 0 0 0 .2.8 4.5 4.5 0 0 0 .8 1.4 2.4 2.4 0 0 0 1.5.8 4.5 4.5 0 0 0 1.5-.1 5.5 5.5 0 0 0 2.7-1.6 12 12 0 0 0 1.6-2.5 4 4 0 0 1 .7-1 2 2 0 0 1 .2.5l.8 2.7a24.7 24.7 0 0 1 .8 2.7l.6 2.8a8 8 0 0 0 .3 1.6 2.8 2.8 0 0 0 .4.8 1 1 0 0 0 1 .5 1.5 1.5 0 0 0 1-1.6v-1.4a6.2 6.2 0 0 1 0-.7 1 1 0 0 1 0-.2h.2a3.1 3.1 0 0 1 .4.5 14 14 0 0 1 2 5.1 6.3 6.3 0 0 0 1 2.9 5.7 5.7 0 0 1 .6 1.2l.5 1.3a4.7 4.7 0 0 0 .9 1.4 1.5 1.5 0 0 0 .4.3 1 1 0 0 0 .7 0 2.8 2.8 0 0 0 1.9-3.3l-.4-1.4-.4-1.4a6.5 6.5 0 0 1-.2-1.3 1.5 1.5 0 0 1 0-.2h.3a7.2 7.2 0 0 1 4 3.4 13.5 13.5 0 0 1 1.3 5.4l.2 5.7c0 2 .2 3.8.4 5.7s.6 3.8 1 5.7l1 5.6a25.7 25.7 0 0 1 .6 5.5 10 10 0 0 1-1.6 5.2 3.8 3.8 0 0 1-.4.5l-.5.5a13.4 13.4 0 0 0-.9 1.2 22.3 22.3 0 0 0-1.4 2.6 36.5 36.5 0 0 0-2 5.4 29.6 29.6 0 0 0-1 5.7 28.3 28.3 0 0 0 0 3 11.8 11.8 0 0 0 0 1.4 11.6 11.6 0 0 0 .5 1.5 1.5 1.5 0 0 1 0 .5l-.2.2a8.7 8.7 0 0 1-1.2.6 17.6 17.6 0 0 1-2.7.7 12.2 12.2 0 0 1-1.3.2l-1-.1c0-.1 0-.6.2-1l.6-1.3a34.9 34.9 0 0 0 1.9-5.4 104.1 104.1 0 0 0 1.9-11.3 25.9 25.9 0 0 0 .2-3v-2.8a48.5 48.5 0 0 0-.7-5.7 24.5 24.5 0 0 0-1.6-5.6 24.8 24.8 0 0 1-1-2.6 7.8 7.8 0 0 1-.4-2.7l-.1-.2v-.3l-.3-.2v-.1a1.9 1.9 0 0 1-.3-.4 3 3 0 0 1-.2-.7 4.8 4.8 0 0 1 0-.9v-.5zm-23.7 56.9a37 37 0 0 0-6.2.1 34.9 34.9 0 0 0-4.2.7 38.2 38.2 0 0 1 4.2-.3 55.1 55.1 0 0 1 6.1.2 45.9 45.9 0 0 1 6.1.7l2.9.7 1.2.4-1.2-.5-2.8-.9a32.7 32.7 0 0 0-6.1-1.1z"/><path class="cls-14" d="M229.6 65.8a9.6 9.6 0 0 0-.6-2.2 2.9 2.9 0 0 0-1.5-1.7 2.6 2.6 0 0 0-2 .2 6.5 6.5 0 0 0-1.3.9l.1-.1a4.7 4.7 0 0 0 .5-.6 11 11 0 0 0 1.8-5.6 26.5 26.5 0 0 0-.6-5.8l-1-5.6-1-5.6c-.3-1.8-.4-3.8-.4-5.7s0-3.8-.2-5.7a14.3 14.3 0 0 0-1.4-5.7 8.1 8.1 0 0 0-4.6-3.8l-.4-.1a1 1 0 0 0-.6 0 1 1 0 0 0-.4.7 2.4 2.4 0 0 0 0 .4 7.3 7.3 0 0 0 .2 1.5l.8 2.8a1.9 1.9 0 0 1-.8 2 2.4 2.4 0 0 1-.5.3l-.1-.2a4 4 0 0 1-.7-1l-.5-1.3a6.6 6.6 0 0 0-.6-1.4 5.4 5.4 0 0 1-1-2.5 14.9 14.9 0 0 0-2-5.5 3.9 3.9 0 0 0-.6-.6 1.3 1.3 0 0 0-.5-.3.8.8 0 0 0-.6 0 1.2 1.2 0 0 0-.3.3 1.2 1.2 0 0 0-.2.2 1.8 1.8 0 0 0 0 .5 7 7 0 0 0 0 .8v1.4a1.2 1.2 0 0 1-.2.5l-.2.2s-.3-.3-.4-.7a7 7 0 0 1-.3-1.3c-.2-1-.3-2-.6-2.8a25.4 25.4 0 0 0-.9-2.8l-.8-2.8a2.8 2.8 0 0 0-.4-.7 1.5 1.5 0 0 0-.3-.2l-.3-.2a1 1 0 0 0-.6.2 2.3 2.3 0 0 0-.6.7l-.4.6a11.3 11.3 0 0 1-1.5 2.3 4.5 4.5 0 0 1-2.1 1.4 3.6 3.6 0 0 1-1.3 0 1.5 1.5 0 0 1-.9-.5 3.6 3.6 0 0 1-.6-1.1 2.9 2.9 0 0 1-.1-.6 5.2 5.2 0 0 1 0-.6c0-1 .2-1.9.3-2.8a12.1 12.1 0 0 0 0-1.5 7.4 7.4 0 0 0 0-.8 2.3 2.3 0 0 0-.2-.9.8.8 0 0 0-.5-.4 1 1 0 0 0-.6.2 2 2 0 0 0-.4.3l-.3.3a14.3 14.3 0 0 0-.9 1.2 29.9 29.9 0 0 0-1.6 2.9c-.6 1-1 2.1-1.4 3.1a8 8 0 0 1-2.1 2.6 4.3 4.3 0 0 1-.7.4 2.6 2.6 0 0 1-.3.2h-.2l-.2-.5a6.2 6.2 0 0 1 0-.8V8.3l-.1-1.9a1.3 1.3 0 0 0 0-.2.8.8 0 0 0-.2-.3.6.6 0 0 0-.6-.2c-.4.1-.7.7-.8 1l-.1.8-.1.9-.3 1.6a14.3 14.3 0 0 1-1 3c-1.9 3.9-4.3 6.7-5.6 9l-.1.3a15.2 15.2 0 0 0-2 1.9 19.6 19.6 0 0 0-3.8 6.4 20.8 20.8 0 0 0-1.2 5.8 49.2 49.2 0 0 0 .7 10.6l-.6 2.3-.5 2.8-.7 4-.2.9a1.5 1.5 0 0 0-1 .6 2.9 2.9 0 0 0-.3 1.2 3.3 3.3 0 0 0 0 1.3 1.1 1.1 0 0 0 .4.6 4.2 4.2 0 0 0-.1.8 2.2 2.2 0 0 0 .2 1.2 7.4 7.4 0 0 0 2 2.3 3.6 3.6 0 0 0-.7.4 4.3 4.3 0 0 0-1.6 2 3.3 3.3 0 0 0 .2 2.7 3.6 3.6 0 0 0 .8 1 7 7 0 0 0-1.1 2.3 12.4 12.4 0 0 0 0 5.5l1.1 5.5 1.2 5.8a276 276 0 0 0 2.2 10.1l-9 4-4 1.8-3.2 1.5-1.8.8a.7.7 0 0 1-.1-.3 3.3 3.3 0 0 1-.1-.5v-5.3a1.7 1.7 0 0 0-.2-.7 2 2 0 0 0-1-1 5.1 5.1 0 0 0-1.4-.4 14.3 14.3 0 0 0-2.7 0 15.8 15.8 0 0 0-2.8.4 5.3 5.3 0 0 0-1.4.5 1.7 1.7 0 0 0-1 1.3v8.6a24.3 24.3 0 0 0 0 2.9 1.8 1.8 0 0 0 .3.8 1.6 1.6 0 0 0 .6.5 6 6 0 0 0 1.5.3 17.1 17.1 0 0 0 2.8.2 15 15 0 0 0 2.7-.3 5.5 5.5 0 0 0 2.5-1 1.4 1.4 0 0 0 .5-1.2c0-.5-.2-.9 0-1a5.6 5.6 0 0 1 1-.6l1-.6 10.9-5.8 5.3-2.9v.3c.6 2 1 4.2 1.7 6.3a15 15 0 0 0 1.3 3.2 5.3 5.3 0 0 0 2.7 2.5 23.7 23.7 0 0 0 6.9 1 54.8 54.8 0 0 0 6.8-.5 30.3 30.3 0 0 0 6.8-1.2 14.8 14.8 0 0 0 3.2-1.4 20.2 20.2 0 0 0 2.8-2c1.8-1.5 3.3-3.1 4.8-4.7s3.3-3 4.7-4.6a14.6 14.6 0 0 0 1.9-2.8 16.3 16.3 0 0 0 1.2-3c.6-2.1.9-4.2 1.3-6.1l1.6-7.7a12.4 12.4 0 0 0 4-3.1 19.9 19.9 0 0 0 1.4-1.6 11.7 11.7 0 0 0 1.1-1.9 19.3 19.3 0 0 0 1.6-4.4 14 14 0 0 0 .3-4.8z"/><path class="cls-15" d="M7.8 60.3l.7 9.3-3.2.2-.7-9.3-2.9.2-.2-2.6 9-.7.2 2.6zm14.7-3.8l.9 12-3.3.2-.3-4.9-3.8.3.4 4.9-3.2.2-1-11.9 3.3-.3.3 4.4 3.8-.2-.4-4.5zM32.9 65l.2 2.7-7.1.5-.9-11.9 7-.5.3 2.6-3.9.3.2 1.8 3.6-.2.1 2.6-3.5.2.1 2.3zm9.9-2.5l.4 4.5-3.2.2-.9-12 7-.5.3 2.6-4 .3.3 2.3 3.5-.3.2 2.6zm5.3-1.9a6.4 6.4 0 0 1 1.1-4.7 5.7 5.7 0 0 1 4.3-1.9 5.7 5.7 0 0 1 4.4 1.2 6.5 6.5 0 0 1 1.8 4.5 6.5 6.5 0 0 1-1.1 4.7 5.7 5.7 0 0 1-4.2 1.9A5.7 5.7 0 0 1 50 65a6.4 6.4 0 0 1-1.9-4.4zm5.6-4q-2.5.2-2.2 3.7t2.7 3.3a2 2 0 0 0 1.7-1 4.7 4.7 0 0 0 .4-2.7 4.7 4.7 0 0 0-.8-2.6 2 2 0 0 0-1.8-.7zM68.3 53l3.3-.2.5 7.2a4.8 4.8 0 0 1-1 3.7 5.2 5.2 0 0 1-3.7 1.6 5.3 5.3 0 0 1-4-1 4.8 4.8 0 0 1-1.5-3.5l-.5-7.3 3.2-.2.5 7a3 3 0 0 0 .6 1.8 1.7 1.7 0 0 0 1.5.5 1.7 1.7 0 0 0 1.4-.7 3 3 0 0 0 .3-1.9zm17.2-1.2l.9 11.9-4.3.3-5-8 .3 3 .4 5.3-2.8.3-.9-12 4.2-.3 5 8-.3-2.9-.4-5.4zm13.1 4.7a6.2 6.2 0 0 1-1.3 4.8 6.3 6.3 0 0 1-4.5 2l-3.9.2-.9-12 4.1-.2a6.3 6.3 0 0 1 4.6 1.1 5.6 5.6 0 0 1 1.9 4.1zm-6 4a2.6 2.6 0 0 0 2.2-1 4 4 0 0 0 .5-2.6 4 4 0 0 0-.9-2.4 2.4 2.4 0 0 0-2-.7h-.9l.5 6.8zm19.1 1.3l-3.5.3-.8-2.2-3.8.3-.5 2.2-3.5.3 3-12.3 4.3-.3zm-7.7-4.3l2.5-.2-1.6-5q0 1-.9 5.2zm12.4-5.5l.7 9.4-3.2.2-.7-9.3-3 .3-.1-2.7 9-.7.2 2.7zm8.6 8.8l-3.2.2-1-11.9 3.3-.2zm1.7-6.2a6.4 6.4 0 0 1 1.1-4.6 6.8 6.8 0 0 1 8.7-.7 6.5 6.5 0 0 1 1.8 4.5 6.5 6.5 0 0 1-1.2 4.7 6.7 6.7 0 0 1-8.6.7 6.4 6.4 0 0 1-1.8-4.6zm5.5-3.9q-2.4.2-2.1 3.7t2.6 3.3a2 2 0 0 0 1.8-1 4.7 4.7 0 0 0 .4-2.7 4.7 4.7 0 0 0-.8-2.6 2 2 0 0 0-1.9-.7zm19.1-3.9l1 12-4.3.3-5-8.1.4 3 .4 5.4-2.9.2-.9-12 4.2-.3 5 8-.3-2.9-.4-5.4zM8.5 80a4.3 4.3 0 0 1 .8-3.1 3.8 3.8 0 0 1 2.8-1.3 3.8 3.8 0 0 1 3 .8 5.3 5.3 0 0 1 .5 6.1 3.8 3.8 0 0 1-2.8 1.3 3.8 3.8 0 0 1-3-.8 4.3 4.3 0 0 1-1.3-3zm3.7-2.6q-1.6.1-1.4 2.4t1.8 2.2a1.4 1.4 0 0 0 1.1-.7 4.1 4.1 0 0 0-.2-3.5 1.4 1.4 0 0 0-1.3-.4zm7.8 2.8l.1 3H18l-.6-8 2.6-.1q3.3-.2 3.4 2.1a2.4 2.4 0 0 1-1.2 2.2l2.6 3.3-2.4.3-2-2.8zm-.3-3.4l.1 1.8h.4q1.1 0 1-1 0-.9-1.1-.8zm7.6.5a1 1 0 0 1-.3.8 1.2 1.2 0 0 1-.8.4 1.2 1.2 0 0 1-.8-.2 1.1 1.1 0 0 1-.2-1.6 1.2 1.2 0 0 1 .9-.3 1.2 1.2 0 0 1 .8.2 1 1 0 0 1 .4.8zm.3 4.3a1 1 0 0 1-.2.8 1.2 1.2 0 0 1-.8.4 1.2 1.2 0 0 1-1-.2 1.1 1.1 0 0 1 0-1.6 1.2 1.2 0 0 1 .8-.3 1.2 1.2 0 0 1 .8.2 1 1 0 0 1 .4.8zm4.1-1.6a6.2 6.2 0 0 0 1.3.3 4.7 4.7 0 0 0 1.2.1 1.3 1.3 0 0 0 .7-.2.5.5 0 0 0 .2-.5.5.5 0 0 0-.1-.2 1.2 1.2 0 0 0-.3-.3 11.2 11.2 0 0 0-1-.4 5.5 5.5 0 0 1-1.3-.6 2.2 2.2 0 0 1-1-1.7 2 2 0 0 1 .7-1.8 3.5 3.5 0 0 1 2.2-.8 6.2 6.2 0 0 1 2.6.4l-.6 1.7a4.8 4.8 0 0 0-2-.4 1 1 0 0 0-.5.2.4.4 0 0 0-.2.4.5.5 0 0 0 .3.4 8.9 8.9 0 0 0 1.3.6 3.7 3.7 0 0 1 1.5.9 2.1 2.1 0 0 1 .5 1.3 2.2 2.2 0 0 1-.7 1.9 3.4 3.4 0 0 1-2.2.9 6.6 6.6 0 0 1-1.4 0 5 5 0 0 1-1-.3zm10-4.7l.5 6.2-2.2.1-.5-6.2-2 .2v-1.8l6-.4V75zm10 5.5l-2.3.1-.5-1.4-2.6.2-.3 1.5-2.4.2 2-8.2 2.9-.2zm-5.1-3h1.7L47 74.3l-.5 3.5zm7.9-.2l.2 3h-2.1l-.6-8 2.6-.1q3.2-.3 3.4 2.1a2.4 2.4 0 0 1-1.2 2.2l2.6 3.3-2.4.3-2-2.8zm-.3-3.4l.2 1.8h.4q1.1 0 1-1 0-.9-1.1-.8zm9-.5l.4 6.2-2.1.1-.5-6.2-2 .2v-1.8l6-.4v1.7zm5.7 5.8l-2.2.1-.6-8 2.2-.1zm8.7-8.7l.6 8-2.9.2-3.3-5.4.3 2 .2 3.6-1.9.1-.6-8 2.8-.2 3.3 5.3-.2-2-.3-3.5zm5.2 4.6v-1.7l3.4-.2.3 4.3a9.4 9.4 0 0 1-3 .7 3.7 3.7 0 0 1-3-.9 4.2 4.2 0 0 1-1.2-3 4 4 0 0 1 1-3 4.2 4.2 0 0 1 3-1.3 6.3 6.3 0 0 1 2.5.3l-.5 1.7a4.1 4.1 0 0 0-2-.3 1.9 1.9 0 0 0-1.4.7 2.6 2.6 0 0 0-.4 1.8 2.7 2.7 0 0 0 .6 1.7 1.6 1.6 0 0 0 1.4.5 3.6 3.6 0 0 0 .9-.2l-.1-1.2zm8-1.6a4.3 4.3 0 0 1 .7-3.1 4.5 4.5 0 0 1 5.8-.5 5.3 5.3 0 0 1 .4 6.1 4.5 4.5 0 0 1-5.7.5 4.3 4.3 0 0 1-1.2-3zm3.7-2.6q-1.6.1-1.5 2.4t1.8 2.2a1.4 1.4 0 0 0 1.2-.6 4.1 4.1 0 0 0-.3-3.6 1.4 1.4 0 0 0-1.2-.4zm7.6 2.8l.3 3-2.2.2-.6-8 4.7-.4.2 1.7-2.6.2v1.6l2.5-.2.1 1.7zm6-.5l.3 3-2.2.2-.6-8 4.8-.4V70l-2.5.2.1 1.6 2.4-.2.1 1.7zm9.3-.6l.2 2.9-2.1.2-.6-8 2.6-.2q3.3-.3 3.4 2a2.4 2.4 0 0 1-1.2 2.3l2.6 3.3-2.4.2-1.9-2.8zm-.2-3.5l.1 1.9h.4q1.1-.1 1-1.1 0-.8-1.1-.8zm8 5.8l-2.2.2-.6-8 2.2-.2zm4.7-3.4l-.1-1.6 3.4-.3.3 4.3a9.4 9.4 0 0 1-3 .7 3.7 3.7 0 0 1-2.9-.8 4.2 4.2 0 0 1-1.2-3 4 4 0 0 1 .8-3 4.2 4.2 0 0 1 3-1.4 6.3 6.3 0 0 1 2.6.3l-.5 1.8a4.1 4.1 0 0 0-1.9-.3 1.9 1.9 0 0 0-1.4.7 2.6 2.6 0 0 0-.4 1.8 2.7 2.7 0 0 0 .6 1.7 1.6 1.6 0 0 0 1.4.5 3.6 3.6 0 0 0 .8-.2v-1.3zm11.5-5.8l.6 8-2.2.2-.2-3.3-2.5.2.2 3.3-2.1.1-.6-8 2.1-.2.2 3 2.5-.1-.2-3zm5.4 1.4l.4 6.2-2.1.1-.5-6.2-2 .2v-1.8l6-.4v1.7z"/><path class="cls-16" d="M41.8 83.5c-2.6.2-3.7 2.7-4.2 4a4.1 4.1 0 0 0-.1 1.3c.6-3.6 4.3-6.4 8-4.4a5.2 5.2 0 0 0-3.8-.9z"/><path class="cls-17" d="M40.8 87.6a3.6 3.6 0 0 1 1-1.6 1 1 0 0 0-.3.1c-1.7 1.3-1.5 4 0 5.4a4.7 4.7 0 0 1-.5-1 3.8 3.8 0 0 1-.2-2.9zm.4 9.2l1.7 1c2.3 1.3 5.9.7 7.7-.3l.4-.2a10.6 10.6 0 0 1-9.8-.5zm6.1-5.2a1.6 1.6 0 0 1 0-2 2.9 2.9 0 0 0 .4-.8 1.5 1.5 0 0 0 0-.2 6.7 6.7 0 0 1-.6.8 1.9 1.9 0 0 0 .5 2.8 3.7 3.7 0 0 0 1.2.4 2.1 2.1 0 0 1-1.5-1zm4.1-2A6.9 6.9 0 0 1 51 92l-.1.2a.8.8 0 0 0 .3-.4 3.8 3.8 0 0 0 .1-3.7 2.7 2.7 0 0 1 .2 1.6zm-7.2-.9a2.4 2.4 0 0 0 0 1.1 1.9 1.9 0 0 1 0 1 1.4 1.4 0 0 1-.3.3.8.8 0 0 0 .4-.8c-.2-1 .5-2.2.2-3.3a2 2 0 0 0-.4-.6 3 3 0 0 1 .1 2.3zm2.1 3.7a2 2 0 0 1 .6 1v.3c.3-.5-.1-1-.6-1.3z"/><path class="cls-16" d="M52.9 85.5a4 4 0 0 0-2.8-1.2 5.6 5.6 0 0 0-1.8.4 6.5 6.5 0 0 1 4.6.8z"/><path class="cls-17" d="M54.5 89a13.6 13.6 0 0 1-3 7.9 8.5 8.5 0 0 0 3-5.2 7.5 7.5 0 0 0 0-2.7z"/><path class="cls-16" d="M48.6 93.6a4.3 4.3 0 0 1 3.1.2 3 3 0 0 0-3.1-.2zM48 95a38 38 0 0 1-4.5-.5c2 .9 4.2.4 5.9 1.6a1.8 1.8 0 0 0-1.4-1.2z"/><path class="cls-18" d="M54.5 89a9.6 9.6 0 0 0-1.1-2.9 3.2 3.2 0 0 0-.5-.7 6.5 6.5 0 0 0-4.6-.7 15.8 15.8 0 0 0-1.7.7 11.8 11.8 0 0 0-1.2-1c-3.6-2-7.3.8-8 4.4a10.3 10.3 0 0 0 .6 3.1 8.8 8.8 0 0 1 .3.9 3.6 3.6 0 0 0 .5.7l-.4.6c-.5.9.3 1.5 1.1 1.8a3.3 3.3 0 0 0 .5 0 5.8 5.8 0 0 0 1.2.8 10.6 10.6 0 0 0 9.7.6 6.3 6.3 0 0 0 .6-.4 13.6 13.6 0 0 0 3-7.9zm-1.8-2.8a5.2 5.2 0 0 0-4-.8c1.4-.5 3.2-.4 4 .8zM47 89.4a6.7 6.7 0 0 0 .6-.8 1.8 1.8 0 0 1 .2-1 1.7 1.7 0 0 1 1.7-.6 1.9 1.9 0 0 1 1.6 1 3.8 3.8 0 0 1 0 3.6.8.8 0 0 1-.4.4c-.4.5-.8.6-1.4.6a3.3 3.3 0 0 1-.6 0 3.7 3.7 0 0 1-1.2-.4 1.9 1.9 0 0 1-.5-2.8zm-2 3.1a1.6 1.6 0 0 1 .3-.2.9.9 0 0 1 1 .1c.5.3 1 .8.7 1.3a.3.3 0 0 1-.1.4 3.5 3.5 0 0 1-1.6.1 3 3 0 0 1-1.6-.3c-.2 0-.3-.1-.4-.3-.1-.8 1-.8 1.7-1zm-3.5-6.3a1 1 0 0 1 .4-.2h.1a1.8 1.8 0 0 1 2 .2 1.6 1.6 0 0 1 .1.2 2 2 0 0 1 .4.7c.3 1-.3 2.1-.1 3.2a.8.8 0 0 1-.4.9 3 3 0 0 1-1.5 1c-.4 0-.7-.2-1-.6-1.5-1.4-1.7-4.2 0-5.4zM40.3 93c.8-.2 1.9-.4 2.4.2a3.5 3.5 0 0 0-2.4-.2zm3.3 1.5a38 38 0 0 0 4.4.5 1.8 1.8 0 0 1 1.4 1.1c-1.7-1.2-4-.7-5.8-1.6zm5-.9a3 3 0 0 1 3.1.3 4.3 4.3 0 0 0-3.1-.3z"/><path class="cls-16" d="M40.3 93a3.5 3.5 0 0 1 2.4.2c-.5-.6-1.6-.5-2.4-.2zm12.4-6.8c-.8-1.2-2.6-1.3-4-.8a5.2 5.2 0 0 1 4 .8z"/><path class="cls-17" d="M43.5 93.4c0-.3.4-.4.7-.5a4.7 4.7 0 0 0 .6-.3h.2c-.7.2-1.8.2-1.7 1 0 .2.2.2.4.3a.5.5 0 0 1-.2-.5zm-5 .6l.3-.5a3.6 3.6 0 0 1-.5-.7 7 7 0 0 1 .2.8 1.3 1.3 0 0 0 0 2.1 1.4 1.4 0 0 0 1 .2c-.8-.3-1.6-.9-1-1.8z"/><g class="cls-19"><path class="cls-20" d="M39.7 84.7a1 1 0 0 0-.2.1v.3l.3-.1a2.3 2.3 0 0 0-.1-.3z"/><path class="cls-21" d="M39.6 84.7a1 1 0 0 0-.2.1v.3l.3-.1a.5.5 0 0 0-.1-.3z"/><path class="cls-22" d="M39.7 84.7h-.1a.5.5 0 0 1 0 .3h-.2.3a2.3 2.3 0 0 0 0-.3z"/></g><g class="cls-19"><path class="cls-20" d="M39.4 87.7a1 1 0 0 0-.2 0v.3h.3a2.3 2.3 0 0 0 0-.3z"/><path class="cls-21" d="M39.3 87.7a1 1 0 0 0-.2 0v.3h.3a.5.5 0 0 0 0-.3z"/><path class="cls-22" d="M39.4 87.6a.5.5 0 0 1 0 .3l-.2.1h.3a2.3 2.3 0 0 0 0-.4z"/></g><g class="cls-19"><path class="cls-20" d="M42.3 83.6a.8.8 0 0 0-.2.1v.2h.3a2 2 0 0 0-.1-.3z"/><path class="cls-21" d="M42.2 83.6a.8.8 0 0 0-.2.1v.3l.3-.1a.4.4 0 0 0 0-.3z"/><path class="cls-22" d="M42.3 83.6a.4.4 0 0 1 0 .3H42h.2a2 2 0 0 0 0-.3z"/></g><g class="cls-19"><path class="cls-20" d="M45.9 91a1 1 0 0 0-.3 0l.1.3.3-.1a2.3 2.3 0 0 0-.1-.3z"/><path class="cls-21" d="M45.8 91a1 1 0 0 0-.3 0l.1.3c.1.1.1 0 .2 0a.5.5 0 0 0 0-.4z"/><path class="cls-22" d="M45.8 90.9a.5.5 0 0 1 0 .3h-.2.3a2.3 2.3 0 0 0 0-.3z"/></g><g class="cls-19"><path class="cls-20" d="M47 87.7a.7.7 0 0 0-.1 0v.3h.3a1.7 1.7 0 0 0-.1-.3z"/><path class="cls-21" d="M47 87.7a.7.7 0 0 0-.2 0v.3h.3a.4.4 0 0 0-.1-.3z"/><path class="cls-22" d="M47 87.7a.4.4 0 0 1 0 .2h.2a1.7 1.7 0 0 0 0-.2z"/></g><g class="cls-19"><path class="cls-20" d="M44.8 88.2a.8.8 0 0 0-.2 0v.3h.3a1.9 1.9 0 0 0-.1-.3z"/><path class="cls-21" d="M44.7 88.2a.8.8 0 0 0-.2 0v.3c0 .1.2 0 .2 0a.4.4 0 0 0 0-.3z"/><path class="cls-22" d="M44.7 88.2a.4.4 0 0 1 0 .2l-.2.1h.3a1.9 1.9 0 0 0 0-.3z"/></g><g class="cls-19"><path class="cls-20" d="M45.2 85.4a1 1 0 0 0-.3.1l.1.3.3-.1a2.3 2.3 0 0 0-.1-.3z"/><path class="cls-21" d="M45 85.4a1 1 0 0 0-.2.1l.1.3.2-.1a.5.5 0 0 0 0-.3z"/><path class="cls-22" d="M45.1 85.4a.5.5 0 0 1 0 .3H45h.3a2.3 2.3 0 0 0 0-.3z"/></g><g class="cls-19"><path class="cls-20" d="M49.5 85.5v.2a1.4 1.4 0 0 0 0-.3z"/><path class="cls-21" d="M49.5 85.5a.6.6 0 0 0-.1 0v.2a.3.3 0 0 0 0-.3z"/><path class="cls-22" d="M49.5 85.4a.3.3 0 0 1 0 .2h-.1.2a1.4 1.4 0 0 0 0-.2z"/></g><g class="cls-19"><path class="cls-20" d="M53.4 87.8a1 1 0 0 0-.2.1v.3h.3a2.3 2.3 0 0 0-.1-.4z"/><path class="cls-21" d="M53.3 87.8a1 1 0 0 0-.3.1l.1.3c0 .1.2 0 .2 0a.5.5 0 0 0 0-.4z"/><path class="cls-22" d="M53.4 87.8h-.1a.5.5 0 0 1 0 .3l-.2.1h.3a2.3 2.3 0 0 0 0-.4z"/></g><g class="cls-19"><path class="cls-20" d="M52 86a.8.8 0 0 0-.2 0v.3h.3a2 2 0 0 0-.1-.3z"/><path class="cls-21" d="M52 86a.8.8 0 0 0-.2 0v.4c0 .2.2-.1.3-.1a.5.5 0 0 0-.1-.3z"/><path class="cls-22" d="M52 86a.5.5 0 0 1 0 .3h.2a2 2 0 0 0-.1-.3z"/></g><g class="cls-19"><path class="cls-20" d="M53.2 91.2a1 1 0 0 0-.2 0v.3h.3a2.3 2.3 0 0 0 0-.3z"/><path class="cls-21" d="M53.1 91.2a1 1 0 0 0-.2 0v.4c0 .2.2-.1.3-.1a.5.5 0 0 0 0-.3z"/><path class="cls-22" d="M53.2 91.2a.5.5 0 0 1 0 .3h-.3.3a2.3 2.3 0 0 0 0-.3z"/></g><g class="cls-19"><path class="cls-20" d="M51.6 94.9a1 1 0 0 0-.2 0v.4l.4-.1a2.3 2.3 0 0 0-.2-.3z"/><path class="cls-21" d="M51.5 94.9a1 1 0 0 0-.2 0v.4l.3-.1a.5.5 0 0 0 0-.3z"/><path class="cls-22" d="M51.6 94.9a.5.5 0 0 1 0 .3h-.2.3a2.3 2.3 0 0 0-.1-.3z"/></g><g class="cls-19"><path class="cls-20" d="M48.2 93.1a.5.5 0 0 0-.1 0v.2h.2a1.3 1.3 0 0 0 0-.2z"/><path class="cls-21" d="M48.2 93.1a.5.5 0 0 0-.2 0v.2h.2a.3.3 0 0 0 0-.2z"/><path class="cls-22" d="M48.2 93.1a.3.3 0 0 1 0 .2h-.1.2a1.3 1.3 0 0 0 0-.2z"/></g><g class="cls-19"><path class="cls-20" d="M50.9 92.3a.5.5 0 0 0-.2.1v.1h.2a1.3 1.3 0 0 0 0-.2z"/><path class="cls-21" d="M50.8 92.3a.5.5 0 0 0-.1.1v.2a.3.3 0 0 0 0-.3z"/><path class="cls-22" d="M50.8 92.3a.3.3 0 0 1 0 .2 1.3 1.3 0 0 0 0-.2z"/></g><g class="cls-19"><path class="cls-20" d="M49 97.3a.8.8 0 0 0-.2 0v.3l.3-.1a2 2 0 0 0-.1-.2z"/><path class="cls-21" d="M48.9 97.3a.8.8 0 0 0-.2 0v.3h.3a.4.4 0 0 0-.1-.3z"/><path class="cls-22" d="M49 97.3a.4.4 0 0 1 0 .2h-.2.2a2 2 0 0 0 0-.3z"/></g><g class="cls-19"><path class="cls-20" d="M46 95.3a1 1 0 0 0-.2.1v.3l.3-.1a2.2 2.2 0 0 0-.1-.3z"/><path class="cls-21" d="M46 95.3a1 1 0 0 0-.3.1v.3h.3a.5.5 0 0 0 0-.4z"/><path class="cls-22" d="M46 95.3a.5.5 0 0 1 0 .3l-.2.1h.3a2.2 2.2 0 0 0-.1-.4z"/></g><g class="cls-19"><path class="cls-20" d="M43.5 96a1 1 0 0 0-.2.2v.2h.3a2.3 2.3 0 0 0-.1-.3z"/><path class="cls-21" d="M43.4 96a1 1 0 0 0-.2.2v.2h.3a.5.5 0 0 0-.1-.3z"/><path class="cls-22" d="M43.5 96h-.1a.5.5 0 0 1 0 .3h-.2.3a2.3 2.3 0 0 0 0-.3z"/></g><g class="cls-19"><path class="cls-20" d="M45.4 97.6a.6.6 0 0 0-.1 0v.3l.2-.1a1.5 1.5 0 0 0 0-.2z"/><path class="cls-21" d="M45.4 97.6a.6.6 0 0 0-.2 0v.3l.2-.1a.3.3 0 0 0 0-.2z"/><path class="cls-22" d="M45.4 97.6a.3.3 0 0 1 0 .2h-.2.2a1.5 1.5 0 0 0 0-.2z"/></g><g class="cls-19"><path class="cls-20" d="M48.7 95.2a.6.6 0 0 0-.1 0v.2h.2a1.5 1.5 0 0 0 0-.2z"/><path class="cls-21" d="M48.7 95.2a.6.6 0 0 0-.2 0v.3l.2-.1a.3.3 0 0 0 0-.2z"/><path class="cls-22" d="M48.7 95.2a.3.3 0 0 1 0 .2h-.2.2a1.5 1.5 0 0 0 0-.2z"/></g><g class="cls-19"><path class="cls-20" d="M41.6 95.6a.6.6 0 0 0-.1 0v.2h.2a1.5 1.5 0 0 0 0-.2z"/><path class="cls-21" d="M41.5 95.6a.6.6 0 0 0-.1 0v.2h.2a.3.3 0 0 0 0-.2z"/><path class="cls-22" d="M41.6 95.6a.3.3 0 0 1 0 .2h-.2.2a1.5 1.5 0 0 0 0-.2z"/></g><g class="cls-19"><path class="cls-20" d="M42 93.7a1 1 0 0 0-.3.1v.3l.3-.1a2.3 2.3 0 0 0 0-.3z"/><path class="cls-21" d="M41.8 93.7a1 1 0 0 0-.2.1v.3l.3-.1a.5.5 0 0 0 0-.3z"/><path class="cls-22" d="M41.9 93.7a.5.5 0 0 1 0 .3h-.2.3a2.3 2.3 0 0 0-.1-.3z"/></g><g class="cls-19"><path class="cls-20" d="M42.5 92.4a1 1 0 0 0-.2.1v.3h.4a2.3 2.3 0 0 0-.2-.4z"/><path class="cls-21" d="M42.4 92.4a1 1 0 0 0-.2.1v.3h.3a.5.5 0 0 0 0-.4z"/><path class="cls-22" d="M42.5 92.4a.5.5 0 0 1 0 .3l-.2.1h.3a2.3 2.3 0 0 0 0-.4z"/></g><g class="cls-19"><path class="cls-20" d="M38.5 90.4a1 1 0 0 0-.3.1l.1.3.3-.1a2.3 2.3 0 0 0-.1-.3z"/><path class="cls-21" d="M38.4 90.4a1 1 0 0 0-.3.1l.1.3c.1.1.1 0 .2 0a.5.5 0 0 0 0-.4z"/><path class="cls-22" d="M38.4 90.4a.5.5 0 0 1 0 .3h-.2.3a2.3 2.3 0 0 0 0-.3z"/></g><g class="cls-19"><path class="cls-20" d="M39.5 93.1a1 1 0 0 0-.2.1v.3h.4a2.3 2.3 0 0 0-.2-.4z"/><path class="cls-21" d="M39.4 93.1a1 1 0 0 0-.2.1v.3h.3a.5.5 0 0 0 0-.4z"/><path class="cls-22" d="M39.5 93.1a.5.5 0 0 1 0 .3l-.2.1h.2a2.3 2.3 0 0 0 0-.4z"/></g><g class="cls-19"><path class="cls-20" d="M38.8 94.8a1 1 0 0 0-.2.1v.3h.3a2.3 2.3 0 0 0 0-.4z"/><path class="cls-21" d="M38.7 94.8a1 1 0 0 0-.2.1v.3h.3a.5.5 0 0 0 0-.4z"/><path class="cls-22" d="M38.8 94.8a.5.5 0 0 1 0 .3l-.2.1h.2a2.3 2.3 0 0 0 0-.4z"/></g><path class="cls-16" d="M100.7 81.8c-2.1 1.3-2 4-1.7 5.4a4.1 4.1 0 0 0 .4 1.2c-1.1-3.5.8-7.6 5-7.6a5.2 5.2 0 0 0-3.7 1z"/><path class="cls-17" d="M101.8 85.8a3.6 3.6 0 0 1 .2-1.8 1 1 0 0 0-.3.3c-.9 1.9.6 4.2 2.6 4.7a4.7 4.7 0 0 1-.9-.6 3.8 3.8 0 0 1-1.6-2.6zm4.7 7.9h2a9 9 0 0 0 6.7-3.8l.2-.3a10.6 10.6 0 0 1-8.9 4.1zm2.9-7.4a1.6 1.6 0 0 1-.8-1.8 2.9 2.9 0 0 0-.1-.9 1.5 1.5 0 0 0 0-.2 6.7 6.7 0 0 1-.3 1 1.9 1.9 0 0 0 1.8 2.3 3.7 3.7 0 0 0 1.3-.3 2.1 2.1 0 0 1-1.9-.1zm2.8-3.7a6.9 6.9 0 0 1 .5 2.3 1.7 1.7 0 0 1 0 .2.8.8 0 0 0 .1-.6 3.8 3.8 0 0 0-1.6-3.2 2.7 2.7 0 0 1 1 1.3zm-6.8 2.5a2.4 2.4 0 0 0 .4 1.1 1.9 1.9 0 0 1 .5.8 1.4 1.4 0 0 1 0 .5.8.8 0 0 0 0-1c-.7-.9-.7-2.1-1.4-3a2 2 0 0 0-.7-.3 3 3 0 0 1 1.2 2zm3.6 2.4a2 2 0 0 1 1 .6l.1.2c0-.6-.6-.8-1.1-.8z"/><path class="cls-16" d="M111.5 78.2a4 4 0 0 0-3 .4 5.6 5.6 0 0 0-1.4 1.1 6.5 6.5 0 0 1 4.4-1.5z"/><path class="cls-17" d="M114.6 80.6a13.6 13.6 0 0 1 1 8.3 8.5 8.5 0 0 0 .3-6 7.5 7.5 0 0 0-1.3-2.3z"/><path class="cls-16" d="M111.5 87.4a4.3 4.3 0 0 1 2.9-1.3 3 3 0 0 0-2.9 1.3zm.2 1.5a38 38 0 0 1-4.2 1.7c2-.1 3.9-1.6 6-1.4a1.8 1.8 0 0 0-1.8-.3z"/><path class="cls-18" d="M114.6 80.6a9.6 9.6 0 0 0-2.4-2 3.2 3.2 0 0 0-.7-.4 6.5 6.5 0 0 0-4.4 1.5 15.8 15.8 0 0 0-1.1 1.5 11.8 11.8 0 0 0-1.6-.4c-4.2 0-6.1 4.2-5 7.6a10.3 10.3 0 0 0 2 2.5 8.8 8.8 0 0 1 .7.7 3.6 3.6 0 0 0 .8.4v.7c-.1 1 .9 1.2 1.8 1a3.3 3.3 0 0 0 .4-.3 5.8 5.8 0 0 0 1.4.3 10.6 10.6 0 0 0 8.9-4.1 6.3 6.3 0 0 0 .3-.6 13.6 13.6 0 0 0-1.1-8.4zm-3-1.6a5.2 5.2 0 0 0-3.9 1.1c1-1 2.6-1.8 4-1.1zm-3.4 5.5a6.7 6.7 0 0 0 .2-1 1.8 1.8 0 0 1-.3-1 1.7 1.7 0 0 1 1.2-1.3 1.9 1.9 0 0 1 1.9.1 3.8 3.8 0 0 1 1.6 3.3.8.8 0 0 1 0 .5c-.1.6-.5.8-1 1.1a3.3 3.3 0 0 1-.6.3 3.7 3.7 0 0 1-1.2.2 1.9 1.9 0 0 1-1.8-2.2zm-.4 3.7a1.6 1.6 0 0 1 .2-.4.9.9 0 0 1 1-.3c.5 0 1.1.2 1.1.8a.3.3 0 0 1 0 .4c0 .3-1 .7-1.2.8a3 3 0 0 1-1.6.5h-.4c-.5-.8.4-1.3 1-1.8zm-6-4a1 1 0 0 1 .2-.2v-.1a1.8 1.8 0 0 1 2-.8l.1.2a2 2 0 0 1 .7.3c.8.8.7 2.1 1.4 3a.8.8 0 0 1 0 1 3 3 0 0 1-.8 1.5 1 1 0 0 1-1.1 0c-2-.6-3.4-3-2.5-4.8zm2.1 6.6c.6-.6 1.5-1.3 2.2-1a3.5 3.5 0 0 0-2.1 1zm3.6-.2a38 38 0 0 0 4.2-1.8 1.8 1.8 0 0 1 1.7.4c-2-.2-3.8 1.3-5.9 1.4zm4-3.2a3 3 0 0 1 2.9-1.3 4.3 4.3 0 0 0-2.9 1.3z"/><path class="cls-16" d="M104 90.8a3.5 3.5 0 0 1 2.1-1c-.7-.3-1.5.4-2.1 1zm7.6-11.8c-1.3-.7-2.8 0-3.9 1.1a5.2 5.2 0 0 1 4-1.1z"/><path class="cls-17" d="M107 89.6l.3-.7a4.7 4.7 0 0 0 .5-.5 1 1 0 0 0 0-.2c-.4.5-1.4 1-1 1.7.2.2.3.2.5 0a.5.5 0 0 1-.3-.3zm-4.2 3.1V92a3.6 3.6 0 0 1-.8-.4 7 7 0 0 1 .6.6 1.3 1.3 0 0 0 1 1.9 1.4 1.4 0 0 0 1-.4c-.8.2-1.8 0-1.8-1z"/><g class="cls-19"><path class="cls-20" d="M99.5 83.8a1 1 0 0 0-.2.2l.2.2.2-.2a2.3 2.3 0 0 0-.2-.2z"/><path class="cls-21" d="M99.4 83.8a1 1 0 0 0-.2.2l.2.3.2-.2a.5.5 0 0 0-.2-.3z"/><path class="cls-22" d="M99.5 83.8h-.1a.5.5 0 0 1 .2.3l-.2.2.3-.3a2.3 2.3 0 0 0-.2-.2z"/></g><g class="cls-19"><path class="cls-20" d="M100.7 86.5a1 1 0 0 0-.2.2l.2.2.2-.2a2.3 2.3 0 0 0-.3-.2z"/><path class="cls-21" d="M100.6 86.6a1 1 0 0 0-.2.2l.2.2c.1.2 0-.2.2-.2a.5.5 0 0 0-.2-.2z"/><path class="cls-22" d="M100.6 86.5a.5.5 0 0 1 .2.3l-.2.2.2-.2a2.3 2.3 0 0 0-.2-.3z"/></g><g class="cls-19"><path class="cls-20" d="M101.3 81.6a.8.8 0 0 0-.2.2l.2.2.2-.2a2 2 0 0 0-.2-.2z"/><path class="cls-21" d="M101.2 81.7a.8.8 0 0 0-.1.1l.1.2c.1.1.1 0 .2-.1a.4.4 0 0 0-.2-.2z"/><path class="cls-22" d="M101.3 81.6h-.1a.4.4 0 0 1 .2.2l-.2.2.2-.2a2 2 0 0 0-.2-.2z"/></g><g class="cls-19"><path class="cls-20" d="M107.9 86.4a1 1 0 0 0-.2.2l.2.2.2-.2a2.3 2.3 0 0 0-.2-.2z"/><path class="cls-21" d="M107.8 86.4a1 1 0 0 0-.2.2l.2.2c.1.1.1-.1.2-.2a.5.5 0 0 0-.2-.2z"/><path class="cls-22" d="M107.8 86.4a.5.5 0 0 1 .2.2l-.2.2.2-.2a2.3 2.3 0 0 0-.2-.2z"/></g><g class="cls-19"><path class="cls-20" d="M107.4 83a.7.7 0 0 0-.1.1l.1.2.2-.2a1.7 1.7 0 0 0-.2-.1z"/><path class="cls-21" d="M107.3 83a.7.7 0 0 0 0 .1v.2l.2-.1a.4.4 0 0 0-.2-.2z"/><path class="cls-22" d="M107.4 83a.4.4 0 0 1 .1.2v.1-.1a1.7 1.7 0 0 0-.1-.2z"/></g><g class="cls-19"><path class="cls-20" d="M105.6 84.5a.8.8 0 0 0-.1.2l.1.1.2-.1a1.9 1.9 0 0 0-.2-.2z"/><path class="cls-21" d="M105.5 84.5a.8.8 0 0 0-.1.2l.2.2v-.2a.4.4 0 0 0 0-.2z"/><path class="cls-22" d="M105.6 84.5a.4.4 0 0 1 0 .2v.1l.1-.1a1.9 1.9 0 0 0-.1-.2z"/></g><g class="cls-19"><path class="cls-20" d="M104.6 81.8a1 1 0 0 0-.1.2l.2.2.2-.2a2.3 2.3 0 0 0-.3-.2z"/><path class="cls-21" d="M104.5 81.9a1 1 0 0 0-.1.2l.2.2.1-.2a.5.5 0 0 0-.2-.2z"/><path class="cls-22" d="M104.6 81.8a.5.5 0 0 1 .2.3l-.2.2.2-.2a2.3 2.3 0 0 0-.2-.3z"/></g><g class="cls-19"><path class="cls-20" d="M108.5 79.8a.6.6 0 0 0 0 .1v.1h.2a1.4 1.4 0 0 0-.2-.2z"/><path class="cls-21" d="M108.5 79.8a.6.6 0 0 0-.1.2h.2a.3.3 0 0 0-.1-.2z"/><path class="cls-22" d="M108.5 79.8a.3.3 0 0 1 .1.1v.1a1.4 1.4 0 0 0 0-.2z"/></g><g class="cls-19"><path class="cls-20" d="M113 80a1 1 0 0 0-.2.3l.2.2.2-.2a2.3 2.3 0 0 0-.2-.2z"/><path class="cls-21" d="M113 80.1a1 1 0 0 0-.2.2l.2.3.1-.2a.5.5 0 0 0-.2-.3z"/><path class="cls-22" d="M113 80v.1a.5.5 0 0 1 .1.3l-.1.1.2-.2a2.3 2.3 0 0 0-.2-.2z"/></g><g class="cls-19"><path class="cls-20" d="M111 79.1a.8.8 0 0 0-.1.2l.1.2.2-.2a2 2 0 0 0-.2-.2z"/><path class="cls-21" d="M110.9 79.2a.8.8 0 0 0-.1.1l.1.2.2-.1a.5.5 0 0 0-.2-.2z"/><path class="cls-22" d="M111 79.1a.5.5 0 0 1 .1.2l-.1.2.2-.2a2 2 0 0 0-.2-.2z"/></g><g class="cls-19"><path class="cls-20" d="M114.5 83.1a1 1 0 0 0-.2.2l.2.2.2-.2a2.3 2.3 0 0 0-.2-.2z"/><path class="cls-21" d="M114.4 83.2a1 1 0 0 0-.2.2l.2.2c.1.1.1-.1.2-.2a.5.5 0 0 0-.2-.2z"/><path class="cls-22" d="M114.4 83.1a.5.5 0 0 1 .2.3l-.2.2.2-.2a2.3 2.3 0 0 0-.2-.3z"/></g><g class="cls-19"><path class="cls-20" d="M114.8 87.1a1 1 0 0 0-.2.2l.2.2.3-.2a2.3 2.3 0 0 0-.3-.2z"/><path class="cls-21" d="M114.7 87.2a1 1 0 0 0-.2.2l.3.2.1-.2a.5.5 0 0 0-.2-.2z"/><path class="cls-22" d="M114.8 87.1a.5.5 0 0 1 .1.3l-.1.2.2-.2a2.3 2.3 0 0 0-.2-.3z"/></g><g class="cls-19"><path class="cls-20" d="M111 87.2a.5.5 0 0 0-.1 0l.1.2.1-.1a1.3 1.3 0 0 0-.1-.1z"/><path class="cls-21" d="M111 87.2a.5.5 0 0 0-.2.1l.2.1a.3.3 0 0 0 0-.2z"/><path class="cls-22" d="M111 87.2a.3.3 0 0 1 .1.1v.1-.1a1.3 1.3 0 0 0-.1-.1z"/></g><g class="cls-19"><path class="cls-20" d="M113 85.3a.5.5 0 0 0-.2 0l.1.2.2-.1a1.3 1.3 0 0 0-.2-.1z"/><path class="cls-21" d="M112.9 85.3a.5.5 0 0 0-.1.1l.1.1a.3.3 0 0 0 0-.2z"/><path class="cls-22" d="M113 85.3v.2-.1a1.3 1.3 0 0 0 0-.1z"/></g><g class="cls-19"><path class="cls-20" d="M113.6 90.5a.8.8 0 0 0-.1.2l.1.1.2-.2a2 2 0 0 0-.2-.1z"/><path class="cls-21" d="M113.5 90.5a.8.8 0 0 0-.1.2l.1.2.2-.2a.4.4 0 0 0-.2-.2z"/><path class="cls-22" d="M113.6 90.5a.4.4 0 0 1 0 .2v.1l.1-.1a2 2 0 0 0-.1-.2z"/></g><g class="cls-19"><path class="cls-20" d="M110.1 90.2a1 1 0 0 0-.2.2l.2.2.2-.2a2.2 2.2 0 0 0-.2-.2z"/><path class="cls-21" d="M110 90.2a1 1 0 0 0-.2.2l.2.2.2-.2a.5.5 0 0 0-.2-.2z"/><path class="cls-22" d="M110 90.2a.5.5 0 0 1 .2.2c0 .1 0 .2-.2.2l.3-.2a2.2 2.2 0 0 0-.2-.2z"/></g><g class="cls-19"><path class="cls-20" d="M108.2 92a1 1 0 0 0-.2.2l.2.2.2-.2a2.3 2.3 0 0 0-.2-.2z"/><path class="cls-21" d="M108.1 92a1 1 0 0 0-.2.3l.2.2c0 .2.1-.2.2-.2a.5.5 0 0 0-.2-.2z"/><path class="cls-22" d="M108.2 92h-.1a.5.5 0 0 1 .2.3l-.2.2.3-.3a2.3 2.3 0 0 0-.2-.2z"/></g><g class="cls-19"><path class="cls-20" d="M110.6 92.5a.6.6 0 0 0 0 .1v.1l.2-.1a1.5 1.5 0 0 0-.2-.1z"/><path class="cls-21" d="M110.6 92.5a.6.6 0 0 0-.1.1l.1.2.1-.2a.3.3 0 0 0-.1-.1z"/><path class="cls-22" d="M110.6 92.5a.3.3 0 0 1 .2.1l-.1.1.1-.1a1.5 1.5 0 0 0-.2-.1z"/></g><g class="cls-19"><path class="cls-20" d="M112.4 88.8a.6.6 0 0 0-.1.1l.1.1h.2a1.5 1.5 0 0 0-.2-.2z"/><path class="cls-21" d="M112.3 88.8a.6.6 0 0 0 0 .2v.1l.2-.1a.3.3 0 0 0-.2-.2z"/><path class="cls-22" d="M112.4 88.8a.3.3 0 0 1 .1.1v.2-.2a1.5 1.5 0 0 0-.1-.1z"/></g><g class="cls-19"><path class="cls-20" d="M106.3 92.5a.6.6 0 0 0 0 .1v.1h.2a1.5 1.5 0 0 0-.2-.2z"/><path class="cls-21" d="M106.3 92.5a.6.6 0 0 0-.1.1v.2l.2-.1a.3.3 0 0 0-.1-.2z"/><path class="cls-22" d="M106.3 92.5a.3.3 0 0 1 .1.1v.2-.2a1.5 1.5 0 0 0-.1-.1z"/></g><g class="cls-19"><path class="cls-20" d="M105.7 90.7a1 1 0 0 0-.2.2l.2.2.2-.2a2.3 2.3 0 0 0-.2-.2z"/><path class="cls-21" d="M105.6 90.7a1 1 0 0 0-.2.2l.2.3.2-.2a.5.5 0 0 0-.2-.3z"/><path class="cls-22" d="M105.7 90.7h-.1a.5.5 0 0 1 .2.2c0 .1 0 .2-.2.2l.3-.2a2.3 2.3 0 0 0-.2-.2z"/></g><g class="cls-19"><path class="cls-20" d="M105.6 89.3a1 1 0 0 0-.1.2l.2.2.2-.3a2.3 2.3 0 0 0-.3-.1z"/><path class="cls-21" d="M105.5 89.3a1 1 0 0 0-.1.2l.2.2.1-.2a.5.5 0 0 0-.2-.2z"/><path class="cls-22" d="M105.6 89.3a.5.5 0 0 1 .2.2l-.2.2.2-.2a2.3 2.3 0 0 0-.2-.2z"/></g><g class="cls-19"><path class="cls-20" d="M101.1 89.4a1 1 0 0 0-.2.2l.2.2.2-.2a2.3 2.3 0 0 0-.2-.2z"/><path class="cls-21" d="M101 89.5a1 1 0 0 0-.2.2l.2.2c0 .2.1-.2.2-.2a.5.5 0 0 0-.2-.2z"/><path class="cls-22" d="M101 89.4a.5.5 0 0 1 .2.3l-.2.2.3-.2a2.3 2.3 0 0 0-.2-.3z"/></g><g class="cls-19"><path class="cls-20" d="M103.3 91.3a1 1 0 0 0-.2.2l.2.2.3-.2a2.3 2.3 0 0 0-.3-.2z"/><path class="cls-21" d="M103.2 91.4a1 1 0 0 0-.2.2l.3.2.1-.2a.5.5 0 0 0-.2-.2z"/><path class="cls-22" d="M103.3 91.3a.5.5 0 0 1 .1.3l-.1.2.2-.2a2.3 2.3 0 0 0-.2-.3z"/></g><g class="cls-19"><path class="cls-20" d="M103.5 93.2a1 1 0 0 0-.2.2l.2.2.2-.3a2.3 2.3 0 0 0-.2-.1z"/><path class="cls-21" d="M103.4 93.2a1 1 0 0 0-.2.2l.2.2.2-.2a.5.5 0 0 0-.2-.2z"/><path class="cls-22" d="M103.5 93.2a.5.5 0 0 1 .1.2l-.1.2.2-.2a2.3 2.3 0 0 0-.2-.3z"/></g><path class="cls-16" d="M66.6 32.2c-3.3 1-4 4.4-4.3 6.3a5.5 5.5 0 0 0 .1 1.7c-.1-4.9 4-9.5 9.2-7.9a7 7 0 0 0-5-.1z"/><path class="cls-17" d="M66.5 37.8a4.7 4.7 0 0 1 1-2.3 1.3 1.3 0 0 0-.4.2c-1.9 2.1-.9 5.6 1.5 7a6.2 6.2 0 0 1-.9-1.1 5 5 0 0 1-1.2-3.8zm3 11.8l2.5.8c3.4 1 7.8-.7 10-2.4l.4-.4a14 14 0 0 1-12.9 2zm6.5-8.4a2.2 2.2 0 0 1-.4-2.6 3.8 3.8 0 0 0 .2-1.2 2 2 0 0 0 0-.2 8.9 8.9 0 0 1-.6 1.2 2.5 2.5 0 0 0 1.5 3.5 4.9 4.9 0 0 0 1.6.2 2.8 2.8 0 0 1-2.3-1zm4.9-3.7a9.2 9.2 0 0 1-.2 3.1 2.3 2.3 0 0 1 0 .3 1.1 1.1 0 0 0 .3-.7c.4-1.6.4-3.6-.8-4.7a3.6 3.6 0 0 1 .7 2zm-9.6.7a3.1 3.1 0 0 0 .2 1.6 2.5 2.5 0 0 1 .3 1.1 1.8 1.8 0 0 1-.2.6 1 1 0 0 0 .3-1.2c-.6-1.3 0-3-.8-4.3a2.7 2.7 0 0 0-.6-.7 4 4 0 0 1 .8 3zm3.7 4.4a2.8 2.8 0 0 1 1 1.1l.1.3c.3-.7-.4-1.3-1.2-1.4z"/><path class="cls-16" d="M81.6 31.7a5.3 5.3 0 0 0-4-.7 7.5 7.5 0 0 0-2.1 1 8.6 8.6 0 0 1 6.1-.3z"/><path class="cls-17" d="M84.8 35.9a18.1 18.1 0 0 1-1.8 11 11.3 11.3 0 0 0 2.5-7.6 10 10 0 0 0-.7-3.4z"/><path class="cls-16" d="M78.3 43.5a5.7 5.7 0 0 1 4.1-.6 4 4 0 0 0-4.2.6zm-.3 1.8a50.5 50.5 0 0 1-6 .7c2.7.6 5.5-.6 8 .5a2.4 2.4 0 0 0-2-1.2z"/><path class="cls-18" d="M84.8 35.9a12.8 12.8 0 0 0-2.3-3.5 4.2 4.2 0 0 0-.9-.7 8.6 8.6 0 0 0-6 .2 21 21 0 0 0-2 1.4 15.7 15.7 0 0 0-2-1c-5.3-1.6-9.3 3-9.1 7.9a13.7 13.7 0 0 0 1.6 4 11.7 11.7 0 0 1 .6 1 4.8 4.8 0 0 0 .9.8c-.3.3-.3.7-.3.9-.5 1.3.7 2 2 2a4.4 4.4 0 0 0 .5-.2 7.7 7.7 0 0 0 1.8.9 14 14 0 0 0 12.8-2 8.4 8.4 0 0 0 .6-.7 18.1 18.1 0 0 0 1.8-11zm-3.3-3.2a7 7 0 0 0-5.3 0c1.7-1 4-1.4 5.3 0zm-6.3 5.7a8.9 8.9 0 0 0 .6-1.2 2.4 2.4 0 0 1 0-1.3 2.3 2.3 0 0 1 2-1.2 2.5 2.5 0 0 1 2.4.8c1.2 1.1 1.2 3.1.8 4.7a1.1 1.1 0 0 1-.3.7c-.3.7-.9.9-1.7 1a4.4 4.4 0 0 1-.7.2 4.9 4.9 0 0 1-1.7-.2 2.5 2.5 0 0 1-1.4-3.5zm-2 4.6a2.1 2.1 0 0 1 .5-.5 1.1 1.1 0 0 1 1.2 0c.8.2 1.5.8 1.3 1.5a.5.5 0 0 1 0 .5c-.4.4-1.6.5-2 .6a4 4 0 0 1-2.2 0c-.3 0-.6 0-.6-.3-.4-1 1-1.3 1.9-1.8zM67 35.7a1.3 1.3 0 0 1 .4-.3h.2a2.4 2.4 0 0 1 2.6-.3 2.2 2.2 0 0 1 .3.2 2.7 2.7 0 0 1 .6.8c.7 1.3.2 2.9.8 4.2a1 1 0 0 1-.4 1.2 3.9 3.9 0 0 1-1.6 1.7 1.3 1.3 0 0 1-1.4-.5c-2.3-1.4-3.3-4.9-1.5-7zm.3 9.2c1-.5 2.4-1 3.2-.3a4.7 4.7 0 0 0-3.2.3zM72 46a50.5 50.5 0 0 0 6-.7 2.4 2.4 0 0 1 2 1.2c-2.5-1-5.3.1-8-.5zm6.3-2.5a4 4 0 0 1 4.2-.6 5.7 5.7 0 0 0-4.3.6z"/><path class="cls-16" d="M67.3 44.9a4.7 4.7 0 0 1 3.2-.3c-.8-.7-2.2-.2-3.2.3zm14.2-12.2c-1.3-1.4-3.6-1-5.3 0a7 7 0 0 1 5.3 0z"/><path class="cls-17" d="M71.6 44.5c0-.3.5-.5.7-.7a6.2 6.2 0 0 0 .8-.6 1.4 1.4 0 0 0 .2-.2c-.9.6-2.3.8-2 1.9.2.2.4.3.7.3a.6.6 0 0 1-.4-.7zm-6.4 2.4l.3-.9a4.8 4.8 0 0 1-.8-.8 9.4 9.4 0 0 1 .4 1 1.7 1.7 0 0 0 .5 2.8 2 2 0 0 0 1.6 0c-1.3-.2-2.5-.9-2-2.1z"/><g class="cls-19"><path class="cls-20" d="M64.3 34.3a1.3 1.3 0 0 0-.4.2l.2.3.4-.2a3 3 0 0 0-.2-.3z"/><path class="cls-21" d="M64.1 34.3a1.3 1.3 0 0 0-.2.2l.1.4.3-.2a.7.7 0 0 0-.2-.4z"/><path class="cls-22" d="M64.2 34.3a.7.7 0 0 1 .1.3l-.3.2.4-.2a3 3 0 0 0-.2-.3z"/></g><g class="cls-19"><path class="cls-20" d="M64.7 38.2a1.3 1.3 0 0 0-.3.2l.2.3.3-.2a3 3 0 0 0-.2-.3z"/><path class="cls-21" d="M64.6 38.2a1.3 1.3 0 0 0-.3.2l.2.4.3-.2a.7.7 0 0 0-.2-.4z"/><path class="cls-22" d="M64.7 38.2h-.1a.7.7 0 0 1 .2.3l-.3.2.4-.2a3 3 0 0 0-.2-.3z"/></g><g class="cls-19"><path class="cls-20" d="M67.4 32.2a1 1 0 0 0-.3.2l.2.2.3-.1a2.5 2.5 0 0 0-.2-.3z"/><path class="cls-21" d="M67.3 32.2a1 1 0 0 0-.3.2l.2.3.2-.2a.6.6 0 0 0-.2-.3z"/><path class="cls-22" d="M67.3 32.2a.6.6 0 0 1 0 .3l-.1.1.3-.1a2.5 2.5 0 0 0-.2-.3z"/></g><g class="cls-19"><path class="cls-20" d="M74 40.7a1.3 1.3 0 0 0-.3.2l.1.3.4-.2a3 3 0 0 0-.2-.3z"/><path class="cls-21" d="M73.8 40.7a1.3 1.3 0 0 0-.2.2l.1.4.3-.2a.7.7 0 0 0-.2-.4z"/><path class="cls-22" d="M74 40.7h-.1a.7.7 0 0 1 .1.3c-.1 0-.1.2-.3.2l.4-.2a3 3 0 0 0-.1-.3z"/></g><g class="cls-19"><path class="cls-20" d="M74.7 36.2a1 1 0 0 0-.2.1v.3l.4-.2a2.3 2.3 0 0 0-.2-.2z"/><path class="cls-21" d="M74.6 36.2a1 1 0 0 0-.2.2l.1.2c.1.1.1 0 .2-.1a.5.5 0 0 0-.1-.3z"/><path class="cls-22" d="M74.7 36.2h-.1a.5.5 0 0 1 .1.3l-.2.1.3-.1a2.3 2.3 0 0 0-.1-.3z"/></g><g class="cls-19"><path class="cls-20" d="M71.8 37.5a1 1 0 0 0-.2.1l.1.3.3-.2a2.5 2.5 0 0 0-.2-.2z"/><path class="cls-21" d="M71.7 37.5a1 1 0 0 0-.3.2l.2.3.2-.2a.6.6 0 0 0-.1-.3z"/><path class="cls-22" d="M71.8 37.5h-.1a.6.6 0 0 1 .1.3l-.2.1.3-.2a2.5 2.5 0 0 0-.1-.2z"/></g><g class="cls-19"><path class="cls-20" d="M71.6 33.7a1.3 1.3 0 0 0-.4.2l.2.3.4-.2a3 3 0 0 0-.2-.3z"/><path class="cls-21" d="M71.4 33.8a1.3 1.3 0 0 0-.3.1l.2.4.3-.2a.7.7 0 0 0-.2-.4z"/><path class="cls-22" d="M71.5 33.7a.7.7 0 0 1 .1.3c-.1.1-.1.2-.3.2l.4-.2a3 3 0 0 0-.2-.3z"/></g><g class="cls-19"><path class="cls-20" d="M77.3 32.6a.8.8 0 0 0-.2 0l.1.3.2-.1a1.8 1.8 0 0 0-.1-.2z"/><path class="cls-21" d="M77.2 32.6a.8.8 0 0 0-.2.1l.1.2.2-.1a.4.4 0 0 0 0-.2z"/><path class="cls-22" d="M77.3 32.6a.4.4 0 0 1 0 .2l-.2.1.2-.1a1.8 1.8 0 0 0 0-.2z"/></g><g class="cls-19"><path class="cls-20" d="M83 34.6h-.1a1.3 1.3 0 0 0-.3.2l.2.4.3-.3a3 3 0 0 0-.2-.3z"/><path class="cls-21" d="M82.8 34.7a1.3 1.3 0 0 0-.3.1l.2.4.3-.2a.7.7 0 0 0-.2-.3z"/><path class="cls-22" d="M82.9 34.6h-.1a.7.7 0 0 1 .2.4l-.3.2.4-.2a3 3 0 0 0-.2-.4z"/></g><g class="cls-19"><path class="cls-20" d="M80.7 32.6a1.1 1.1 0 0 0-.3.2l.2.3.3-.2a2.7 2.7 0 0 0-.2-.3z"/><path class="cls-21" d="M80.6 32.6a1.1 1.1 0 0 0-.3.2l.2.3.2-.1a.6.6 0 0 0-.1-.4z"/><path class="cls-22" d="M80.7 32.6h-.1a.6.6 0 0 1 .1.3l-.2.2.3-.2a2.7 2.7 0 0 0-.1-.3z"/></g><g class="cls-19"><path class="cls-20" d="M83.6 39a1.3 1.3 0 0 0-.3.2l.2.3.3-.2a3 3 0 0 0-.2-.3z"/><path class="cls-21" d="M83.5 39a1.3 1.3 0 0 0-.3.3l.2.3.3-.2a.7.7 0 0 0-.2-.3z"/><path class="cls-22" d="M83.6 39h-.1a.7.7 0 0 1 .2.3l-.3.2.3-.2a3 3 0 0 0-.1-.3z"/></g><g class="cls-19"><path class="cls-20" d="M82.6 44.3a1.3 1.3 0 0 0-.4.2l.2.3.4-.2a3 3 0 0 0-.2-.3z"/><path class="cls-21" d="M82.4 44.3a1.3 1.3 0 0 0-.3.2l.2.4.3-.2a.7.7 0 0 0-.2-.4z"/><path class="cls-22" d="M82.5 44.3a.7.7 0 0 1 .1.3c-.1 0-.1.2-.3.2l.4-.2a3 3 0 0 0-.2-.3z"/></g><g class="cls-19"><path class="cls-20" d="M77.7 43a.7.7 0 0 0-.2 0l.1.2.2-.1a1.7 1.7 0 0 0-.1-.2z"/><path class="cls-21" d="M77.6 43a.7.7 0 0 0-.2 0l.1.2h.2a.4.4 0 0 0-.1-.3z"/><path class="cls-22" d="M77.7 42.9h-.1a.4.4 0 0 1 0 .2v.1l.1-.1a1.7 1.7 0 0 0 0-.2z"/></g><g class="cls-19"><path class="cls-20" d="M80.9 41.2a.7.7 0 0 0-.2.1l.1.2.2-.1a1.7 1.7 0 0 0-.1-.2z"/><path class="cls-21" d="M80.8 41.2a.7.7 0 0 0-.2.1l.1.2h.2a.4.4 0 0 0-.1-.3z"/><path class="cls-22" d="M80.8 41.2a.4.4 0 0 1 0 .2v.1l.1-.1a1.7 1.7 0 0 0 0-.2z"/></g><g class="cls-19"><path class="cls-20" d="M79.8 48.1a1 1 0 0 0-.3.2l.2.3.3-.2a2.5 2.5 0 0 0-.2-.3z"/><path class="cls-21" d="M79.7 48.1a1 1 0 0 0-.3.2l.2.3.2-.2a.6.6 0 0 0-.1-.3z"/><path class="cls-22" d="M79.7 48.1a.6.6 0 0 1 .1.3l-.2.2.3-.2a2.5 2.5 0 0 0-.2-.3z"/></g><g class="cls-19"><path class="cls-20" d="M75.4 46.4a1.2 1.2 0 0 0-.3.2l.2.3.3-.2a3 3 0 0 0-.2-.3z"/><path class="cls-21" d="M75.3 46.5a1.2 1.2 0 0 0-.3.1l.2.4.3-.2a.7.7 0 0 0-.2-.3z"/><path class="cls-22" d="M75.4 46.4h-.1a.7.7 0 0 1 .2.3l-.3.2.3-.2a3 3 0 0 0-.1-.3z"/></g><g class="cls-19"><path class="cls-20" d="M72.3 48a1.3 1.3 0 0 0-.3.2l.1.3.4-.2a3 3 0 0 0-.2-.3z"/><path class="cls-21" d="M72.2 48a1.3 1.3 0 0 0-.3.3l.2.3.2-.2a.7.7 0 0 0-.1-.3z"/><path class="cls-22" d="M72.3 48h-.1a.7.7 0 0 1 .1.3l-.2.2.3-.2a3 3 0 0 0-.1-.3z"/></g><g class="cls-19"><path class="cls-20" d="M75.3 49.5a.8.8 0 0 0-.2.2v.2l.3-.2a2 2 0 0 0-.1-.2z"/><path class="cls-21" d="M75.2 49.6a.8.8 0 0 0-.2 0l.1.3c.1.1.1 0 .2-.1a.4.4 0 0 0-.1-.2z"/><path class="cls-22" d="M75.2 49.5a.4.4 0 0 1 0 .3h.1a2 2 0 0 0 0-.3z"/></g><g class="cls-19"><path class="cls-20" d="M78.9 45.5a.8.8 0 0 0-.2.1l.1.2h.2a2 2 0 0 0-.1-.3z"/><path class="cls-21" d="M78.8 45.5a.8.8 0 0 0-.2.2l.1.2c.1.2.1-.1.2-.2a.4.4 0 0 0-.1-.2z"/><path class="cls-22" d="M78.9 45.5h-.1a.4.4 0 0 1 .1.2l-.2.2.3-.2a2 2 0 0 0-.1-.2z"/></g><g class="cls-19"><path class="cls-20" d="M69.7 48a.8.8 0 0 0-.2 0l.2.3.2-.2a2 2 0 0 0-.2-.2z"/><path class="cls-21" d="M69.6 48a.8.8 0 0 0-.1.1v.2h.3a.4.4 0 0 0-.2-.3z"/><path class="cls-22" d="M69.7 48a.4.4 0 0 1 0 .2h-.1.2a2 2 0 0 0 0-.3z"/></g><g class="cls-19"><path class="cls-20" d="M69.6 45.4a1.3 1.3 0 0 0-.3.2l.1.3.4-.2a3 3 0 0 0-.2-.3z"/><path class="cls-21" d="M69.5 45.4a1.3 1.3 0 0 0-.3.2l.2.4.2-.2a.7.7 0 0 0-.1-.4z"/><path class="cls-22" d="M69.6 45.4h-.1a.7.7 0 0 1 .1.3l-.2.2.3-.2a3 3 0 0 0-.1-.3z"/></g><g class="cls-19"><path class="cls-20" d="M70 43.6a1.3 1.3 0 0 0-.3.2l.2.3.4-.2a3 3 0 0 0-.2-.3z"/><path class="cls-21" d="M70 43.6a1.3 1.3 0 0 0-.4.2l.2.4.3-.2a.7.7 0 0 0-.2-.4z"/><path class="cls-22" d="M70 43.6h-.1a.7.7 0 0 1 .2.3l-.3.2.4-.2a3 3 0 0 0-.2-.3z"/></g><g class="cls-19"><path class="cls-20" d="M64.2 42a1.3 1.3 0 0 0-.3.3l.2.3.3-.2a3 3 0 0 0-.2-.3z"/><path class="cls-21" d="M64 42.1a1.3 1.3 0 0 0-.2.2l.2.4s.1-.2.3-.2a.7.7 0 0 0-.2-.4z"/><path class="cls-22" d="M64.2 42H64a.7.7 0 0 1 .2.4c-.2 0-.2.2-.3.2l.3-.2a3 3 0 0 0-.1-.3z"/></g><g class="cls-19"><path class="cls-20" d="M66.3 45.3a1.3 1.3 0 0 0-.3.2l.2.3.3-.2a3 3 0 0 0-.2-.3z"/><path class="cls-21" d="M66.2 45.4a1.3 1.3 0 0 0-.3.1l.2.4.3-.2a.7.7 0 0 0-.2-.4z"/><path class="cls-22" d="M66.3 45.3h-.1a.7.7 0 0 1 .2.3l-.3.2.3-.2a3 3 0 0 0-.1-.3z"/></g><g class="cls-19"><path class="cls-20" d="M65.9 47.8a1.3 1.3 0 0 0-.4.1l.2.4.4-.2a3 3 0 0 0-.2-.4z"/><path class="cls-21" d="M65.7 47.8a1.3 1.3 0 0 0-.3.2l.2.3.3-.2a.7.7 0 0 0-.2-.3z"/><path class="cls-22" d="M65.8 47.7a.7.7 0 0 1 .1.4l-.3.2.4-.2a3 3 0 0 0-.2-.4z"/></g></g></g></svg>