<svg xmlns="http://www.w3.org/2000/svg" viewBox="0 0 237.43 118.17"><defs><style>.cls-1{isolation:isolate}.cls-2{fill:#f3a712}.cls-3{fill:#353535}.cls-4{fill:#111}.cls-5{fill:#232323}.cls-6{fill:#443e39}.cls-7{fill:#f9e3cf}.cls-8{fill:#d3bba7}.cls-9{fill:#6d0f0f}.cls-10{fill:#470b0b}.cls-11{fill:#fff}.cls-12{fill:#302012}.cls-13{fill:#e5e5e5}.cls-14,.cls-15{fill:#7becff;opacity:.15}.cls-15{fill:#4e979b}.cls-16{opacity:.5;mix-blend-mode:multiply;fill:url(#linear-gradient)}.cls-17{fill:#ba1200}</style><linearGradient id="linear-gradient" x1="196.3" y1="54.96" x2="196.3" y2="177.51" gradientUnits="userSpaceOnUse"><stop offset="0" stop-color="#fff"/><stop offset=".12" stop-color="#ded8d3"/><stop offset=".13" stop-color="#dbd4cf"/><stop offset=".3" stop-color="#b3a599"/><stop offset=".46" stop-color="#927d6c"/><stop offset=".62" stop-color="#785f49"/><stop offset=".76" stop-color="#65492f"/><stop offset=".89" stop-color="#5a3c20"/><stop offset="1" stop-color="#56371b"/></linearGradient></defs><title>newsman</title><g class="cls-1"><g id="Vector"><path class="cls-2" d="M237.22 31.36v-.21a37.33 37.33 0 0 0-1.4-7 33.88 33.88 0 0 0-2.26-5.74 33 33 0 0 0-4.05-6.15 32.12 32.12 0 0 0-14.28-9.8 43.92 43.92 0 0 0-9.17-2 60.63 60.63 0 0 0-9.49-.46 54 54 0 0 0-18.35 3.79 36.33 36.33 0 0 0-7.87 4.39 37.32 37.32 0 0 0-6 5.64 38.58 38.58 0 0 0-6.81 11.42 36.18 36.18 0 0 0-1.94 7.26 31 31 0 0 0-.14 8.58 28 28 0 0 0 2.37 8.32q.44.94.93 1.84l-.4.3-.16.14a6.57 6.57 0 0 0-1.92 3.52 7.75 7.75 0 0 0 .28 3.66 21.9 21.9 0 0 0 1.44 3.55l.27.55.25.51a9.41 9.41 0 0 1 1 2.61 3.57 3.57 0 0 1-.24 2.56 11.52 11.52 0 0 0-.45 1.25 5.52 5.52 0 0 0 .41 4.09 5.16 5.16 0 0 0 1.59 1.8 69.23 69.23 0 0 0 1.55 9.54A46.45 46.45 0 0 0 166 95.75a33.4 33.4 0 0 0 7.38 9.88 29.3 29.3 0 0 0 11.53 6.32c.87.25 1.79.47 2.74.67v.05a15.33 15.33 0 0 0 6.3 4.63 13.23 13.23 0 0 0 4.72.87 12.09 12.09 0 0 0 1.65-.11 14.13 14.13 0 0 0 6-2.17 18.52 18.52 0 0 0 5.4-5.34l.37-.57a36.27 36.27 0 0 0 9.63-6.33 39.13 39.13 0 0 0 7.54-9.65c.31-.57.58-1.16.84-1.74l.4-.86.57-1.23 1.36-4 .6-2.62a24.87 24.87 0 0 0 .64-3.91c0-.4.08-.79.13-1.16A24.63 24.63 0 0 0 234 76l.09-2.23v-2.95a3.88 3.88 0 0 0 1.41-2.25 6.42 6.42 0 0 0-.24-3.37c-.1-.31-.22-.6-.34-.89a4.55 4.55 0 0 1-.32-1 9.5 9.5 0 0 1-.15-1.75 17.35 17.35 0 0 1 .28-3.1 9.31 9.31 0 0 1 .27-1.19c.09-.29.25-.68.43-1.09l.22-.53a11.53 11.53 0 0 0 .82-2.66 6 6 0 0 0-.5-3.72 5.64 5.64 0 0 0-1-1.42 28 28 0 0 0 2.15-8.09 38.3 38.3 0 0 0 .1-8.4z"/><path class="cls-3" d="M224.86 11.29a30.11 30.11 0 0 0-14-7.28C200 1.59 186.42 2.54 176.41 7.68a33.22 33.22 0 0 0-8.65 6.46c16.68-10.48 39.64-12.49 57.1-2.85z"/><path class="cls-4" d="M224.48 23.59c-18.15 5.3-37.84 2.88-56.63 1.85a105.49 105.49 0 0 1-.1 16.24c5.79-.4 11.29-2 17.09-2 12 .67 23.67-.33 35.67-1.33a21.75 21.75 0 0 1 4.56-.51 37.62 37.62 0 0 1-.59-14.25zM233.47 45a13.82 13.82 0 0 1-6.1 4.07 22 22 0 0 0 1.51 3.53 16.94 16.94 0 0 0 4.59-7.6zm-73.61 3.07a26.33 26.33 0 0 0 4.73 7.51h.65c.22-1.49.94-3 1.21-4.48a15 15 0 0 1-6.59-3.03z"/><path class="cls-5" d="M233.46 25.73a30.27 30.27 0 0 0-8.6-14.43c-17.46-9.64-40.43-7.63-57.11 2.85-8.68 9-12.6 22.54-7.9 33.92a15 15 0 0 0 6.6 3c-.27 1.49-1 3-1.21 4.48l62.22-1.8a13.14 13.14 0 0 0 1.42-1.13 22 22 0 0 1-1.51-3.53 13.82 13.82 0 0 0 6.1-4.07c1.95-6.21 1.47-13.79-.01-19.29zm-12.95 12.66c-12 1-23.67 2-35.67 1.33-5.81 0-11.31 1.56-17.09 2a105.49 105.49 0 0 0 .1-16.24c18.79 1 38.48 3.45 56.63-1.85a37.62 37.62 0 0 0 .6 14.29 21.75 21.75 0 0 0-4.57.47z"/><path class="cls-6" d="M234.09 31.75a40.85 40.85 0 0 1 .09 7.78 26.34 26.34 0 0 1-1.73 7.56 15.42 15.42 0 0 1-3.18 5 10.12 10.12 0 0 1-1.3 1.2l-.49.42.52-.38a10 10 0 0 0 1.38-1.13 15.35 15.35 0 0 0 3.5-5 25.65 25.65 0 0 0 2.08-7.66 37.62 37.62 0 0 0-1.3-14.86 32.09 32.09 0 0 0-2.1-5.32 30.78 30.78 0 0 0-3.78-5.73 29.9 29.9 0 0 0-13.28-9.11 42.33 42.33 0 0 0-8.7-1.88 58.43 58.43 0 0 0-9.11-.36A51.66 51.66 0 0 0 179.09 6a34.23 34.23 0 0 0-7.39 4.12 35.05 35.05 0 0 0-5.68 5.3 36.22 36.22 0 0 0-6.41 10.75 33.91 33.91 0 0 0-1.83 6.83 28.94 28.94 0 0 0-.13 8 25.77 25.77 0 0 0 2.18 7.63 25.14 25.14 0 0 0 3.17 5.11c.44.62.89 1 1.15 1.36l.43.48-.4-.51c-.24-.34-.66-.78-1.07-1.42a25.83 25.83 0 0 1-2.88-5.28 26.47 26.47 0 0 1-1.84-7.54 31.56 31.56 0 0 1 .26-7.74 33 33 0 0 1 1.77-6.63A35.32 35.32 0 0 1 166.7 16a34.15 34.15 0 0 1 5.54-5.17 33.32 33.32 0 0 1 7.2-4 50.76 50.76 0 0 1 17.26-3.59 57.52 57.52 0 0 1 9 .36 41.45 41.45 0 0 1 8.52 1.84 29 29 0 0 1 12.88 8.84 29.88 29.88 0 0 1 3.67 5.56 31.18 31.18 0 0 1 2 5.17 35 35 0 0 1 1.32 6.74z"/><path class="cls-7" d="M232.06 58.94a12.43 12.43 0 0 1 .51-2.39c.67-1.92 2.5-4.37.92-6.67a2.06 2.06 0 0 0-1.11-.86 24 24 0 0 0-.32 9.92z"/><path class="cls-8" d="M232.38 49c-1.47-.43-3.1 1.2-3.1 1.2l1.17 19.17c3.21.63 3.29-1.92 2.17-4.17-.78-1.55-.82-4.17-.55-6.28a24 24 0 0 1 .31-9.92z"/><path class="cls-6" d="M232.52 58.22a11.68 11.68 0 0 1 .34-1.48c.17-.55.45-1.16.73-1.83a9.52 9.52 0 0 0 .68-2.19 3.83 3.83 0 0 0-.31-2.34 2.23 2.23 0 0 0-3.35-1.15 5.39 5.39 0 0 0-1 .69c-.22.19-.33.31-.33.31l.34-.28a5.38 5.38 0 0 1 1-.62 2.38 2.38 0 0 1 1.65-.2 2.26 2.26 0 0 1 1.35 1.4c.6 1.34 0 2.91-.59 4.17a20.19 20.19 0 0 0-.82 1.86 10.09 10.09 0 0 0-.39 1.56 16.83 16.83 0 0 0-.21 3.62A11.7 11.7 0 0 0 232 64a13.19 13.19 0 0 0 .86 2.14 4 4 0 0 1 .29 2 1.45 1.45 0 0 1-1 1.2 3.88 3.88 0 0 1-1.62.06 3.88 3.88 0 0 0 1.65 0 1.61 1.61 0 0 0 1.22-1.25 4.19 4.19 0 0 0-.18-2.16 13.36 13.36 0 0 1-.73-2.13 11.66 11.66 0 0 1-.2-2.18 19.86 19.86 0 0 1 .23-3.46z"/><path class="cls-7" d="M161.29 52.67a4.36 4.36 0 0 0-1.44.85c-3.39 3.36 1.22 7.93 2 11.58a31.76 31.76 0 0 0-.56-12.43z"/><path class="cls-8" d="M161.29 52.67a31.76 31.76 0 0 1 .52 12.46 7.55 7.55 0 0 1 .07 3.28c-.24 1-.93 1.92-1 3-.1 2.1 1.57 3.3 3.53 3.28l1.34-22a6.82 6.82 0 0 0-4.46-.02z"/><path class="cls-6" d="M160.26 62.07a13.41 13.41 0 0 1 1.37 3.67 7 7 0 0 1 .07 2.43 21.94 21.94 0 0 1-.82 2.41 3.3 3.3 0 0 0 .24 2.43 3 3 0 0 0 1.49 1.34 3.85 3.85 0 0 0 1.33.32 4.33 4.33 0 0 0 .5 0 4.38 4.38 0 0 1-.5 0 3.81 3.81 0 0 1-1.28-.38 2.87 2.87 0 0 1-1.34-1.34 3 3 0 0 1-.1-2.23 20.39 20.39 0 0 0 .95-2.42 7.33 7.33 0 0 0 0-2.6 12.56 12.56 0 0 0-1.33-3.87 31.3 31.3 0 0 1-1.65-3.61 5.18 5.18 0 0 1-.31-2.37 4 4 0 0 1 1.12-2.21 5.6 5.6 0 0 1 4-1.26 7.49 7.49 0 0 1 1.34.18l.49.11-.48-.14a7.49 7.49 0 0 0-1.34-.26 5.76 5.76 0 0 0-4.22 1.13 4.36 4.36 0 0 0-1.29 2.32 5.61 5.61 0 0 0 .22 2.61 24.93 24.93 0 0 0 1.54 3.74z"/><path class="cls-8" d="M215.09 103c-16.06 9.81-36.88 6.09-46.87-9 3.86 8 10.18 14 19.88 15.94 18.28 3.73 34.93-5.72 40.82-22A48.14 48.14 0 0 1 215.09 103zm-38-38c3.94 3 10.77 2 11.94-3.74-4.6-2.82-10.56-1.64-15.9-3.8.19 2.85 2.06 5.65 3.96 7.54z"/><path class="cls-8" d="M191.64 101.17a9 9 0 0 0 13.92-1.37c-4.64-.02-9.28 1.66-13.92 1.37zm-1.95-22.42c1.37 4.45 6.7 5.86 10.82 3.64a6.88 6.88 0 0 0 3.35-4c-4.57 1.37-9.36.53-14.17.36zm-16.86-48.97c12.33 12.59 33.95 10 45.77-2.11-15.44-.35-30.6 2.48-45.77 2.11zm32.82 38.76c4 4.49 11.27 5.63 15.2.18a17 17 0 0 0 2.6-7.52 68 68 0 0 1-2.93 6.19c-3.7 5.23-10.22 4.21-14.87 1.15zm1.35 1.73c.88 1.28 1.25 2.82 2.49 3.77v-.06a12.55 12.55 0 0 0 4.14 4.02 213.97 213.97 0 0 0-6.63-7.73zM181.41 79a4.8 4.8 0 0 0 1.78-1.6 18.46 18.46 0 0 0 3.24-3.87c-1.88 1.29-3.26 3.67-5.02 5.47z"/><path class="cls-7" d="M220.44 25.58l-49.68 1c-6.75 16.5-11.88 48-2.54 67.4 10 15.12 30.81 18.84 46.87 9A48.14 48.14 0 0 0 228.92 88a38 38 0 0 0 2.19-10.71c1.03-17.05-2-36.89-10.67-51.71zm-1.84 2.09c-11.83 12.14-33.44 14.7-45.77 2.11 15.17.37 30.33-2.46 45.77-2.11zm.9 27.8a9.29 9.29 0 0 1-1.32 4.59c-3.65 5.31-10.6 4.34-14.28-.27l-.07.13c-.07-.54-.51-1.08-.62-1.62 1.43.84 3.21.38 4.25 1.52 3.99-1.57 7.74-3.38 12.04-4.35zM191.76 59a2.13 2.13 0 0 0-.13-.63c3-1.59 6.59-1.26 9.88-.27v.54a13.89 13.89 0 0 0-9.75.36zm-8.57 18.42a4.8 4.8 0 0 1-1.78 1.6c1.76-1.78 3.14-4.16 5-5.48a18.46 18.46 0 0 1-3.22 3.84zm-4.68-3a8.14 8.14 0 0 1-6-5.05c3.48 4.39 10.52 3.88 15 .6-2.19 2.66-5.05 4.92-9 4.42zM177.09 65c-1.9-1.9-3.77-4.69-4-7.54 5.34 2.15 11.3 1 15.9 3.8C187.87 67 181 68 177.09 65zm12.6 13.74c4.81.17 9.6 1 14.17-.36a6.88 6.88 0 0 1-3.35 4c-4.12 2.23-9.45.83-10.82-3.63zm2 22.42c4.64.29 9.28-1.39 13.92-1.37a9 9 0 0 1-13.97 1.38zM209.5 74v.06c-1.24-1-1.61-2.48-2.49-3.77 2.3 2.59 4.58 5.18 6.64 7.76A12.55 12.55 0 0 1 209.5 74zm11.34-5.25c-3.93 5.44-11.15 4.3-15.2-.18 4.65 3.06 11.17 4.08 14.86-1.15a68 68 0 0 0 2.93-6.19 17 17 0 0 1-2.59 7.49z"/><path class="cls-8" d="M191.63 58.33a2.13 2.13 0 0 1 .13.63 13.89 13.89 0 0 1 9.76-.36v-.54c-3.3-.99-6.91-1.32-9.89.27zm-4.15 11.61c-4.46 3.28-11.5 3.79-15-.6a8.14 8.14 0 0 0 6 5.05c3.98.5 6.84-1.76 9-4.45zm19.97-10.12c-1-1.13-2.82-.67-4.25-1.52.12.54.55 1.08.62 1.62l.07-.13c3.68 4.61 10.63 5.58 14.28.27a9.29 9.29 0 0 0 1.32-4.59c-4.29.97-8.04 2.78-12.04 4.35z"/><path class="cls-9" d="M194.24 87.45c-5.09-1-10-3.64-14.4-6.35a42.91 42.91 0 0 0 5.63 9.49 23.62 23.62 0 0 0 25.95-2.53 37.1 37.1 0 0 0 3.1-9.14C209 83.7 201.85 89 194.24 87.45z"/><path class="cls-10" d="M185.47 90.59c.36.45.73.9 1.11 1.33 1.85 2.09 5.35 6.41 8.36 7 1.61.29 6.2-.87 7.79-1.31 2-.55 3.05-1.57 4.5-3.17a28 28 0 0 0 4.19-6.33 23.62 23.62 0 0 1-25.95 2.48z"/><path class="cls-6" d="M230.94 56.65a86.74 86.74 0 0 0-5.35-20.76c-.59-1.54-1.26-2.94-1.83-4.21s-1.2-2.34-1.66-3.26l-1.66-2.84 1.5 2.92c.42.94 1 2 1.49 3.32s1.11 2.7 1.63 4.26a102.12 102.12 0 0 1 4.76 20.71c.21 1.62.61 4.88.8 9.37.11 2.25.12 4.81.07 7.62l-.09 2.15a21.61 21.61 0 0 1-.17 2.23 33.39 33.39 0 0 1-.69 4.65l-.54 2.41-.81 2.4-.39 1.24-.56 1.14c-.38.79-.72 1.62-1.14 2.41a35.92 35.92 0 0 1-6.84 8.77 33.67 33.67 0 0 1-9.9 6.26l-1.4.55a8.88 8.88 0 0 1-1.42.49l-2.91.8-3 .49-.75.12h-.76l-1.52.09a37.45 37.45 0 0 1-12-1.32 25.94 25.94 0 0 1-10.2-5.58 30.17 30.17 0 0 1-6.6-8.8 43.44 43.44 0 0 1-3.45-9.69A75.06 75.06 0 0 1 163.69 68c0-4.5.26-7.77.38-9.4a138.6 138.6 0 0 1 3.36-21c.79-3.19 1.58-6 2.24-7.9.3-1 .61-1.75.79-2.28l.29-.82-.34.81c-.21.52-.56 1.27-.91 2.24a90.88 90.88 0 0 0-2.62 7.81 111.15 111.15 0 0 0-3.94 21.07c-.11 1.65-.41 4.95-.38 9.5a76.16 76.16 0 0 0 1.9 16.85 44.55 44.55 0 0 0 3.54 9.91 31.29 31.29 0 0 0 6.88 9.22 27.07 27.07 0 0 0 10.64 5.83 38.55 38.55 0 0 0 12.34 1.36l1.56-.09h.78l.77-.13 3.09-.51 3-.83a9.39 9.39 0 0 0 1.47-.5l1.44-.57a34.79 34.79 0 0 0 10.24-6.47 37 37 0 0 0 7.07-9.1c.44-.82.79-1.67 1.18-2.48l.57-1.23.43-1.26.84-2.48.56-2.48a34.5 34.5 0 0 0 .71-4.79 22.33 22.33 0 0 0 .17-2.27l.09-2.18a109.36 109.36 0 0 0-.89-17.18z"/><path class="cls-8" d="M189.2 110.62c2.2 2.58 4.92 4.53 8.59 4.77 5.55.37 9.93-3 12.71-7.47-6.22 4.72-14.43 7.08-21.3 2.7z"/><path class="cls-7" d="M211.44 102.1a27.55 27.55 0 0 1-6.47 3.46c-2.37 3-7 2.55-10.65 1.52a25.23 25.23 0 0 1-9.23-2.58 41 41 0 0 0 4.11 6.12c6.86 4.41 15.08 2 21.3-2.69a22.93 22.93 0 0 0 2.62-6z"/><path class="cls-6" d="M200 114.76a11.06 11.06 0 0 1-4.88-.4 12.82 12.82 0 0 1-5.28-3.46 31.45 31.45 0 0 1-3.45-4.41l-1.3-2s.43.82 1.15 2.11a30.65 30.65 0 0 0 3.19 4.7 13.23 13.23 0 0 0 5.38 4 11.06 11.06 0 0 0 5.33.62 12 12 0 0 0 5-1.84 16.43 16.43 0 0 0 4.75-4.71 22.49 22.49 0 0 0 2.54-5.08c.24-.7.42-1.27.51-1.68l.17-.63-.21.61c-.13.4-.34 1-.63 1.63a22.74 22.74 0 0 1-2.83 4.81 16.22 16.22 0 0 1-4.78 4.22 12.17 12.17 0 0 1-4.66 1.51z"/><path class="cls-8" d="M189.63 78.89c1.37 2.6 4.38 3.6 7.39 3.17 2.75-.39 6-2.12 7.13-4.8a12.86 12.86 0 0 1-14.52 1.63z"/><path class="cls-7" d="M201.07 69.91a197.7 197.7 0 0 1-1.26-11.17 38.55 38.55 0 0 0-7.3.91 62 62 0 0 1-.14 10.69 5.41 5.41 0 0 0-2.63 2.2 6.26 6.26 0 0 1 1.09.17 6.26 6.26 0 0 0-1.09-.17 6.4 6.4 0 0 0-.68 4.86 6.32 6.32 0 0 0 .56 1.48 12.86 12.86 0 0 0 14.52-1.63 5.4 5.4 0 0 0 .23-.65c.71-2.44-.3-6.44-3.3-6.69z"/><path class="cls-6" d="M197 81.55a8.74 8.74 0 0 1-3.22-.11 5.79 5.79 0 0 1-3.38-2.13 6.27 6.27 0 0 1-1.12-4.38 5.3 5.3 0 0 1 2.37-3.93 4.39 4.39 0 0 1 .51-.29l.37-.18c.09 0 .08-.1.09-.17v-.22c0-.44.08-.81.1-1.21a45 45 0 0 0 .08-2.27c0-1.45 0-2.77-.08-3.88-.11-2.22-.26-3.62-.26-3.62s.09 1.4.1 3.62c0 1.11 0 2.42-.09 3.87 0 .72-.09 1.47-.17 2.24 0 .38-.09.79-.14 1.15v.14l-.18.08a4.86 4.86 0 0 0-.57.29 5.89 5.89 0 0 0-2.79 4.27 7 7 0 0 0 1.11 5 6.63 6.63 0 0 0 3.84 2.57 9.26 9.26 0 0 0 3.6.17 11.13 11.13 0 0 0 3.4-1.12 9.07 9.07 0 0 0 3.46-3 5.84 5.84 0 0 0 .9-2.42 7.36 7.36 0 0 0-.14-2.62 6 6 0 0 0-1.17-2.4 3.79 3.79 0 0 0-1-.88 3 3 0 0 0-.61-.28l-.32-.1h-.26c-.14 0-.14-.09-.16-.21l-.1-.6-.17-1.19-.32-2.24-.49-3.84-.4-3.6.25 3.62.33 3.86.23 2.25.1 1.21.07.6.06.45v.1h.33c1.69.26 2.57 1.81 2.9 3.35a5.69 5.69 0 0 1-.8 4.42 8.32 8.32 0 0 1-3.18 2.61 10.84 10.84 0 0 1-3.08 1.02z"/><path class="cls-11" d="M190.18 58.51a105.65 105.65 0 0 1-17.56-1.74s2.5 7.36 9.5 7.61 8.06-5.87 8.06-5.87zm30.02-5.18c-6.63 2.84-17 4.93-17 4.93s3.27 5.84 9.8 3.74 7.2-8.67 7.2-8.67z"/><path class="cls-12" d="M214.81 55.28s-.79 3.63-4 4.63-5.08-2.22-5.08-2.22 4.77-1.08 9.08-2.41zM187 58.37s-1.63 3.22-5 2.89a4.57 4.57 0 0 1-4-3.66s5.76.64 9 .77z"/><path class="cls-7" d="M204.54 101a13.25 13.25 0 0 0 3.47-4.1L190 98.76c.74 1.43 1.75 3.23 3.31 3.83a27.58 27.58 0 0 1 11.23-1.59z"/><path class="cls-8" d="M193.27 102.59a3 3 0 0 0 .8.19 22.23 22.23 0 0 0 10.27-1.71l.2-.12a27.58 27.58 0 0 0-11.27 1.64z"/><path class="cls-6" d="M199.07 102.24a25.46 25.46 0 0 1-2.84.33 17.64 17.64 0 0 1-1.8 0 3.25 3.25 0 0 1-1.68-.43 7 7 0 0 1-2.11-2.24c-.44-.69-.69-1.15-.69-1.15s.21.47.6 1.2a7.07 7.07 0 0 0 2 2.47 3.63 3.63 0 0 0 1.83.61 16.66 16.66 0 0 0 1.85.09 18.35 18.35 0 0 0 2.93-.23 20.36 20.36 0 0 0 2.85-.71 23 23 0 0 0 1.73-.64 6.69 6.69 0 0 0 .88-.41 4.84 4.84 0 0 0 .74-.61 15 15 0 0 0 2-2.51c.44-.7.68-1.16.68-1.16s-.28.44-.77 1.1a15.33 15.33 0 0 1-2.1 2.32 4.56 4.56 0 0 1-.71.52 6.78 6.78 0 0 1-.83.33c-.58.2-1.17.38-1.73.53-1.15.29-2.16.47-2.83.59z"/><path class="cls-3" d="M190.47 52.68c-8-.85-17.53-5.51-17.53-5.51a6.6 6.6 0 0 0-.49 1.31 116.37 116.37 0 0 0 18.08 5 5.27 5.27 0 0 0-.06-.8z"/><path class="cls-5" d="M172.46 48.49a10.55 10.55 0 0 0-.35 2.33 55.72 55.72 0 0 0 18.28 4 4.58 4.58 0 0 0 .16-1.34 116.37 116.37 0 0 1-18.09-4.99z"/><path class="cls-4" d="M172.11 50.81v1.17c1.12.7 8.24 2.93 18 3.5a2.79 2.79 0 0 0 .28-.67 55.72 55.72 0 0 1-18.28-4z"/><path class="cls-5" d="M201.54 55.11a107 107 0 0 1 19.24-8.38 8.49 8.49 0 0 0 .16-1.88c-7 1.73-13.09 6-19.64 9a4.75 4.75 0 0 0 .24 1.26z"/><path class="cls-3" d="M201.32 53.33a3.92 3.92 0 0 0 0 .55c6.54-3 12.66-7.31 19.64-9v-.9c-9.23 2.68-19.64 9.35-19.64 9.35z"/><path class="cls-4" d="M201.54 55.11a3.84 3.84 0 0 0 .23.55s10.5-5.37 18.63-7.79a4.09 4.09 0 0 0 .38-1.14 107 107 0 0 0-19.24 8.38z"/><path class="cls-6" d="M172.14 48a10.18 10.18 0 0 0-.46 2.63v1.26a2.5 2.5 0 0 0 0 .38l.33.17.17.09h.1l.2.08.41.15.84.28a53.28 53.28 0 0 0 7.28 1.59 72.64 72.64 0 0 0 8.34.8h.73l-.73-.07c-.47 0-1.14-.1-2-.21a74.97 74.97 0 0 1-6.28-1 56.74 56.74 0 0 1-7.07-1.81c-.27-.1-.54-.19-.8-.3l-.38-.16-.18-.08h-.09v-1.07a10.27 10.27 0 0 1 .45-2.4l.13-.37v-.1l.12.06.59.26 1.31.55c.92.37 1.94.78 3 1.16a62.23 62.23 0 0 0 6.77 2 37.47 37.47 0 0 0 4.62.82c.42.04.93-.05.85.41a4.68 4.68 0 0 1-.1 1.79 2.55 2.55 0 0 1-.25.62 2.55 2.55 0 0 0 .28-.61 4.74 4.74 0 0 0 .2-1.81c.15-.61-.59-.48-1-.59s-.91-.15-1.4-.26c-1-.19-2-.46-3.14-.78a66.56 66.56 0 0 1-6.62-2.3c-1.05-.42-2-.85-3-1.25l-1.27-.58-1.5-.71c-.12.22-.22.4-.3.58l-.11.26-.05.13zm48.27-1.7a6.38 6.38 0 0 1-.2.89c0 .13-.14.38-.12.32h-.06l-.29.09c-.78.24-1.63.55-2.53.87-1.8.67-3.79 1.49-5.75 2.37a156 156 0 0 0-9.66 4.73 3.47 3.47 0 0 1-.36-.93 4.85 4.85 0 0 1-.12-.74 3.7 3.7 0 0 1 0-.59 3.58 3.58 0 0 0 0 .59 4.26 4.26 0 0 0 .46 1.81c2.15-1 5.95-2.74 9.93-4.33a84.95 84.95 0 0 1 8.31-2.95l.28-.09.22-.07c.08 0 .21 0 .23-.13a3.51 3.51 0 0 0 .31-.7 6.75 6.75 0 0 0 .24-1 8.83 8.83 0 0 0 .1-1.33v-.9l-.06-.75v-.08h-.09l-.18.06-.37.12-1 .33c-.27.09-.55.18-.83.29-.56.21-1.15.43-1.74.67a78 78 0 0 0-7.29 3.44c-4.69 2.48-8.46 5-8.46 5s3.83-2.29 8.62-4.58c2.38-1.14 5-2.27 7.36-3.14l1.74-.6c.28-.1.56-.17.83-.26l.4-.12.18-.05v.52a8.8 8.8 0 0 1-.1 1.24zM188 64.32a24.35 24.35 0 0 0 1.47-3.39 22.92 22.92 0 0 0 .72-2.42s-.36 1.11-.92 2.33-1.27 2.59-1.67 3.26-1.09 2-1.84 3.15-1.48 2-1.48 2 .82-.83 1.66-1.9a22.88 22.88 0 0 0 2.06-3.03zm17.78-1.27c-.35-.58-1.07-1.74-1.63-2.8s-1-2-1-2 .31 1 .77 2.09a23.82 23.82 0 0 0 1.45 2.93 17.45 17.45 0 0 0 2 2.59 12.26 12.26 0 0 0 1.66 1.49 13.21 13.21 0 0 1-1.49-1.64 27.8 27.8 0 0 1-1.76-2.66zm3.69 10.83a27.51 27.51 0 0 1-2.16-3.18 21.79 21.79 0 0 1-1.18-2.36 20.5 20.5 0 0 0 1.05 2.43 21.57 21.57 0 0 0 2.05 3.29 17.53 17.53 0 0 0 2.71 2.78 15.17 15.17 0 0 0 1.5 1.09l.67.42-.64-.46a15.79 15.79 0 0 1-1.47-1.17 21.15 21.15 0 0 1-2.53-2.84zM184 76.81a21 21 0 0 0 1.91-2.5 20 20 0 0 0 1.09-1.86s-.51.85-1.21 1.77a31 31 0 0 1-2 2.39 24.43 24.43 0 0 1-2.21 2.2 20 20 0 0 1-1.69 1.31 18.34 18.34 0 0 0 1.79-1.2 17.79 17.79 0 0 0 2.32-2.11zm15 29.32a10 10 0 0 0-3.42 1.52 10.86 10.86 0 0 0-1.92 1.66 11.41 11.41 0 0 1 2-1.47 11.67 11.67 0 0 1 3.39-1.27 10.11 10.11 0 0 1 3.61-.18 11.28 11.28 0 0 1 1.71.41l.72.24-.69-.3a10.82 10.82 0 0 0-1.7-.57 9 9 0 0 0-3.7-.04zm-1-21.04a19.23 19.23 0 0 1-2.14 0c-.79 0-1.46-.14-1.46-.14a14.55 14.55 0 0 0 1.45.29 11.84 11.84 0 0 0 2.16.14 8.21 8.21 0 0 0 2.13-.41 5.23 5.23 0 0 0 1.32-.66 5.46 5.46 0 0 1-1.36.52 11 11 0 0 1-2.1.26z"/><path class="cls-13" d="M207.54 91.87a3.06 3.06 0 0 0-.77-.92 88.54 88.54 0 0 0-15.29 2.21 4.25 4.25 0 0 0-.39 1.09 31.78 31.78 0 0 0 16.45-2.38zm-12.6 7s1.42.47 7.79-1.31a7.66 7.66 0 0 0 2.11-1 42.07 42.07 0 0 0-10.78 2 4 4 0 0 0 .88.31z"/><path class="cls-11" d="M208 93.48a3.67 3.67 0 0 0-.46-1.61 31.78 31.78 0 0 1-16.45 2.38 5.18 5.18 0 0 0 0 2.44 12.58 12.58 0 0 0 2.93 1.91 42.07 42.07 0 0 1 10.78-2 12.19 12.19 0 0 0 3.2-3.12z"/><path class="cls-6" d="M206.78 91a3.3 3.3 0 0 1 .61 1 4.6 4.6 0 0 1 .29 1.57h.67a3.37 3.37 0 0 0-.67-1.7 3.06 3.06 0 0 0-.9-.87zm-15.3 2.16a4.51 4.51 0 0 0-.62 1.37 4.73 4.73 0 0 0-.07 2.25l.65-.17a6.42 6.42 0 0 1-.26-2 4.88 4.88 0 0 1 .3-1.45z"/><path class="cls-13" d="M208.76 83.43c-3.52 2.35-6.28 3.74-10.61 4.26-3.6.43-8.76-1.62-10.87-2.56 6.04 5.39 16.62 4.75 21.48-1.7z"/><path class="cls-11" d="M207.54 89.77a20.48 20.48 0 0 0 2-6.84l-.73.5c-4.86 6.45-15.44 7.1-21.48 1.7l-1-.44A14 14 0 0 0 190.1 92c5.99.65 12 .24 17.44-2.23z"/><path class="cls-13" d="M190.1 92l.43.41a12 12 0 0 0 .95.77 33.53 33.53 0 0 0 15.3-2.18l.31-.43.46-.75c-5.45 2.42-11.46 2.83-17.45 2.18z"/><path class="cls-6" d="M198.43 92.72A40.7 40.7 0 0 1 194 93h-2.41l-.21-.15a11.82 11.82 0 0 1-2.06-1.93 14.06 14.06 0 0 1-2.42-4.18 11.49 11.49 0 0 1-.57-2 11.36 11.36 0 0 0 .47 2 14.09 14.09 0 0 0 2.26 4.36 12 12 0 0 0 2 2.08c.1.06.15.18.37.25h.4l.72.06c.48 0 .94.06 1.4.07a32.25 32.25 0 0 0 4.52-.19 31.16 31.16 0 0 0 4.44-.87c.88-.24 1.8-.54 2.71-.89l.68-.28.34-.14.21-.09a1.17 1.17 0 0 0 .15-.19 8.91 8.91 0 0 0 .75-1.25 17.56 17.56 0 0 0 1.48-4.66 20.11 20.11 0 0 0 .27-2.06 20.58 20.58 0 0 1-.37 2 17.65 17.65 0 0 1-1.64 4.56 8.64 8.64 0 0 1-.77 1.16c-.09.12 0 .07-.2.13l-.34.12-.67.24c-.91.3-1.82.57-2.69.77a38.92 38.92 0 0 1-4.39.8z"/><path class="cls-5" d="M167.34 25.13c.51.6 1 1.17 1.58 1.72 14.21 11.19 33.7 8.94 49.38 1.72a47.48 47.48 0 0 0 6.55-4.8z"/><path class="cls-4" d="M168.92 26.85c12.83 13 34.17 11 49.38 1.72-15.69 7.22-35.18 9.43-49.38-1.72z"/><path class="cls-6" d="M195.94 35.36a45.39 45.39 0 0 1-8.21-.07 34.08 34.08 0 0 1-10.07-2.64 29.39 29.39 0 0 1-7.59-4.81 28 28 0 0 1-2-1.95l-.72-.75.68.79A27.68 27.68 0 0 0 170 28a29.36 29.36 0 0 0 7.47 5.19 33.9 33.9 0 0 0 10.19 3.08 40.3 40.3 0 0 0 8.42.25 43.7 43.7 0 0 0 8.23-1.52 51.17 51.17 0 0 0 9.9-3.87 49.64 49.64 0 0 0 7.69-4.86c.92-.74 1.68-1.34 2.17-1.8l.78-.69-.81.65c-.51.43-1.29 1-2.24 1.69a50.43 50.43 0 0 1-7.83 4.5 52.61 52.61 0 0 1-9.89 3.45 50 50 0 0 1-8.14 1.29z"/><path class="cls-14" d="M191.49 58.68v-.25c-5.58-3.62-15.87-5.34-21.59-1 7.17-1.2 15.01-1.58 21.59 1.25z"/><path class="cls-15" d="M191.49 58.68c-6.58-2.83-14.41-2.45-21.59-1.26a9.89 9.89 0 0 0-.91.78c.01 19.41 22.35 19.32 22.5.48z"/><path class="cls-14" d="M223.63 55.63c0-.38-.05-.76-.1-1.13-7.44-3.46-15.91-1.7-22.13 3.47a34.33 34.33 0 0 1 22.23-2.34z"/><path class="cls-15" d="M201.41 58c.52 6 3.57 12.49 10.24 13.06 8.59.74 12.39-8 12-15.39A34.32 34.32 0 0 0 201.41 58z"/><path class="cls-6" d="M229.55 51.25l-.11-.38-5.93 3.21c-7.13-3.23-15.59-1.91-22.17 3.46a13.59 13.59 0 0 0-9.82.47 25 25 0 0 0-11.41-3.48c-4.65-.27-8.59.87-11.15 3.2l-5-3.15-.15.36 4.81 3.47c.05 6.15 2.4 11 6.48 13.36a10.28 10.28 0 0 0 10.39 0c4-2.33 6.33-7.09 6.38-13.07a13 13 0 0 1 9.2-.45 18.55 18.55 0 0 0 2.85 8.5 10.18 10.18 0 0 0 7.71 4.66h1a9.84 9.84 0 0 0 7.25-3.05c3-3.12 4.59-8.47 4-13.69zM185.11 71.1a9.53 9.53 0 0 1-9.64 0c-3.85-2.22-6.07-6.86-6.11-12.76 5.36-5 16.16-3.24 21.76.28-.04 5.74-2.22 10.28-6.01 12.48zm34.24-3.23a9.1 9.1 0 0 1-7.66 2.78c-4.25-.36-9.06-3.85-9.88-12.52 6.36-5.2 14.52-6.48 21.39-3.38.52 5.01-.98 10.14-3.85 13.11z"/><path class="cls-6" d="M181.33 58.3c1.1.11 3.32.19 5.25.21s3.59 0 3.59 0l-3.58-.33-5.21-.55c-1.1-.1-3.3-.24-5.22-.43s-3.56-.43-3.56-.43 1.61.41 3.51.76 4.12.67 5.22.77z"/><path class="cls-6" d="M181.17 63.95a12.07 12.07 0 0 1-1.29-.25 9.65 9.65 0 0 1-1.58-.61 10.49 10.49 0 0 1-3.08-2.31 14.14 14.14 0 0 1-2-2.72 11.07 11.07 0 0 1-.63-1.29 10.8 10.8 0 0 0 .54 1.34A14 14 0 0 0 175 61a10.56 10.56 0 0 0 3 2.6 9.46 9.46 0 0 0 1.66.72 9.37 9.37 0 0 0 4.58.2 7.52 7.52 0 0 0 3.61-1.78 7.87 7.87 0 0 0 1.91-2.84 6.94 6.94 0 0 0 .39-1.39 7 7 0 0 1-.49 1.35 7.77 7.77 0 0 1-2 2.63 7.25 7.25 0 0 1-3.49 1.51 10.76 10.76 0 0 1-3-.05zm30.72-7.46c1.07-.3 3.19-1 5-1.72s3.31-1.44 3.31-1.44-1.56.58-3.42 1.12-4 1.09-5.07 1.39l-5 1.47c-1.87.53-3.48.95-3.48.95s1.65-.25 3.56-.62 4.03-.85 5.1-1.15z"/><path class="cls-6" d="M213.14 61.62a9.54 9.54 0 0 1-2.88.55 7.5 7.5 0 0 1-3.62-.82 9.06 9.06 0 0 1-2.59-2 8.18 8.18 0 0 1-.87-1.1 8 8 0 0 0 .79 1.17 9.11 9.11 0 0 0 2.51 2.22 7.75 7.75 0 0 0 3.78 1.1 8.9 8.9 0 0 0 3.1-.48 9.94 9.94 0 0 0 2.76-1.47 10.22 10.22 0 0 0 2.6-3 11.41 11.41 0 0 0 1.28-3.07 8.94 8.94 0 0 0 .24-1.39 9.13 9.13 0 0 1-.34 1.37 11.46 11.46 0 0 1-1.42 3 10.14 10.14 0 0 1-2.64 2.67 10.93 10.93 0 0 1-2.7 1.25zm-15.4 26.45a15.82 15.82 0 0 0 5-1.11 27.84 27.84 0 0 0 5.68-3.09 50.22 50.22 0 0 0 4.34-3.41c1.09-.94 1.74-1.56 1.74-1.56s-.69.59-1.82 1.47a52.17 52.17 0 0 1-4.48 3.18 28.51 28.51 0 0 1-5.69 2.81 16.7 16.7 0 0 1-4.84 1c-2.35.32-7.07-.89-10.91-2.62a62.47 62.47 0 0 1-4.92-2.45l-2-1.15 2 1.25c1.22.75 2.92 1.75 4.82 2.69a36 36 0 0 0 6 2.36 14.65 14.65 0 0 0 5.08.63z"/><path class="cls-6" d="M198.35 98.2a15.9 15.9 0 0 1-3 .35 6.83 6.83 0 0 1-3.39-1.61 50.16 50.16 0 0 1-6.29-6.44 41.06 41.06 0 0 1-4.32-6.45c-1-1.78-1.48-3-1.48-3s.47 1.19 1.38 3a40.61 40.61 0 0 0 4.13 6.63 48.7 48.7 0 0 0 6.19 6.7 10.51 10.51 0 0 0 1.79 1.2 5 5 0 0 0 2 .62 15.15 15.15 0 0 0 3.2-.33c.85-.16 1.9-.39 3.08-.7.59-.16 1.21-.31 1.88-.55a7.27 7.27 0 0 0 1.91-1.06 24.21 24.21 0 0 0 5.57-7.23 37.15 37.15 0 0 0 2.86-7.26c.27-1 .45-1.79.57-2.35l.17-.88-.2.87c-.14.56-.35 1.36-.65 2.32a37.49 37.49 0 0 1-3.08 7.12 24.22 24.22 0 0 1-5.67 6.98 9.08 9.08 0 0 1-3.58 1.41c-1.2.29-2.24.46-3.07.66z"/><path class="cls-16" d="M234.93 39.56a37.62 37.62 0 0 0-1.3-14.86 32.08 32.08 0 0 0-2.1-5.32 30.78 30.78 0 0 0-3.78-5.73 29.9 29.9 0 0 0-13.28-9.11 42.33 42.33 0 0 0-8.7-1.88 58.43 58.43 0 0 0-9.11-.36 51.66 51.66 0 0 0-17.58 3.62 34.23 34.23 0 0 0-7.39 4.08 35.05 35.05 0 0 0-5.68 5.3 36.22 36.22 0 0 0-6.41 10.75 33.9 33.9 0 0 0-1.82 6.81 28.93 28.93 0 0 0-.13 8 25.77 25.77 0 0 0 2.18 7.63A27 27 0 0 0 162 52.3a5.15 5.15 0 0 0-2.25 1 4.36 4.36 0 0 0-1.29 2.32 5.61 5.61 0 0 0 .22 2.61 24.94 24.94 0 0 0 1.58 3.77 13.41 13.41 0 0 1 1.37 3.67 7 7 0 0 1 .07 2.43 21.93 21.93 0 0 1-.82 2.41 3.3 3.3 0 0 0 .24 2.43 3 3 0 0 0 1.49 1.34l.24.09a68.53 68.53 0 0 0 1.61 10.43 44.55 44.55 0 0 0 3.54 9.94 31.29 31.29 0 0 0 6.88 9.22 27.07 27.07 0 0 0 10.64 5.83c1.11.32 2.24.57 3.37.78.17.22.33.44.52.66a13.23 13.23 0 0 0 5.38 4 11.06 11.06 0 0 0 5.33.62 12 12 0 0 0 5-1.84 16.43 16.43 0 0 0 4.75-4.71c.24-.36.45-.71.66-1.07a34.49 34.49 0 0 0 9.65-6.21 37 37 0 0 0 7.07-9.07c.44-.82.79-1.67 1.18-2.48l.57-1.23.43-1.26.84-2.48.56-2.48a34.49 34.49 0 0 0 .71-4.79 22.34 22.34 0 0 0 .17-2.27l.09-2.18v-4.35h.25a1.61 1.61 0 0 0 1.22-1.25 4.19 4.19 0 0 0-.18-2.16 13.36 13.36 0 0 1-.73-2.13 11.65 11.65 0 0 1-.2-2.18 19.86 19.86 0 0 1 .31-3.49 11.68 11.68 0 0 1 .34-1.48c.17-.55.45-1.16.73-1.83a9.52 9.52 0 0 0 .68-2.19 3.83 3.83 0 0 0-.31-2.34 2.52 2.52 0 0 0-1.6-1.46 1.84 1.84 0 0 0-.34 0c.29-.5.57-1 .84-1.6a25.65 25.65 0 0 0 2.12-7.76z"/><path class="cls-2" d="M124.52 72.82h.14a2.49 2.49 0 0 0 1.66-.9 2.49 2.49 0 0 0 1.81.52l2.16-.24a2.5 2.5 0 0 0 2.21-2.76l-.08-.74c7.34-4.37 11.39-9.1 10.89-13.67-.3-2.69-2.15-5.09-5.29-7.16l-2.77-6.1a2.5 2.5 0 0 0-2.55-1.45l-4.3.47a2.5 2.5 0 0 0-2.17 2l-.05.26c-13.68-3.61-34.24-4.63-56.92-2.13C49 43.1 31.06 47.69 18.49 53.27a2.47 2.47 0 0 0-1.27-.2l-3.22.35a2.48 2.48 0 0 0-.83.25 2.48 2.48 0 0 0-.87-.07l-9 1a2.5 2.5 0 0 0-2.21 2.76L1.36 60a2.5 2.5 0 0 0 2.74 2.2C1.2 65-.27 67.95 0 70.79c.49 4.11 4.6 7.56 11.36 10.15A5.94 5.94 0 0 0 13 83.35a6.21 6.21 0 0 0 4.88 1.31 6.91 6.91 0 0 0 3-1c13.55 2.88 32.5 3.53 53.21 1.25A201.64 201.64 0 0 0 114 76.68c2.38 2.94 10.76 11.19 28.64 8.65-.05 0-16.41-2.63-18.12-12.51z"/><path class="cls-17" d="M10 59l1 9.27-3.22.35-1-9.27-2.9.32-.29-2.63 9-1 .29 2.63zm14.47-4.22l1.31 11.9-3.22.32-.56-4.81-3.74.41.53 4.85-3.23.36-1.29-11.91 3.23-.36L18 60l3.74-.41-.49-4.41zM35.13 63l.29 2.62-7.06.78L27 54.5l7.06-.78.28 2.59-3.84.42.21 1.87 3.56-.39.28 2.58-3.55.39.25 2.24zm13.06 1.22l-3.19.35-.55-4.57-4.72-6.9 3.5-.39 2.52 4.19 1.57-4.64 3.48-.38-3.12 7.69zm15.02-1.66l-3.52.44-.82-2.17-3.87.38-.35 2.3-3.54.39 2.57-12.38L58 51zm-7.84-4.06l2.53-.28q-1.59-4.11-1.85-5-.05 1.17-.68 5.28zm18.54-3.39a6.19 6.19 0 0 1-1.14 4.77A6.33 6.33 0 0 1 68.34 62l-3.85.42-1.31-11.9 4.12-.45a6.25 6.25 0 0 1 4.58 1 5.56 5.56 0 0 1 2.03 4.04zm-5.78 4.24a2.62 2.62 0 0 0 2.05-1.08 4 4 0 0 0 .41-2.62 3.93 3.93 0 0 0-.92-2.42 2.41 2.41 0 0 0-2.05-.57l-.93.1.73 6.67zm19.08.57l-3.52.39-.82-2.17-3.87.42-.35 2.3-3.54.39 2.57-12.38L82 48.4zm-7.84-4.06l2.53-.28q-1.59-4.11-1.85-5-.05 1.16-.67 5.28zm19.81 2.74l-3.24.4-.5-4.55-4.73-6.92 3.5-.39 2.52 4.19 1.57-4.64 3.48-.38L98.67 54zM114.2 57l-3.52.39-.82-2.17-3.87.43-.35 2.3-3.54.39 2.57-12.38 4.3-.47zm-7.84-4.06l2.53-.28q-1.59-4.11-1.85-5-.04 1.11-.68 5.23zm18.54-3.45a6.19 6.19 0 0 1-1.14 4.77 6.33 6.33 0 0 1-4.43 2.12l-3.85.42-1.31-11.9 4.12-.45a6.25 6.25 0 0 1 4.58 1 5.56 5.56 0 0 1 2.03 4.04zm-5.78 4.24a2.62 2.62 0 0 0 2.05-1.08 4 4 0 0 0 .41-2.62 3.93 3.93 0 0 0-.92-2.42 2.41 2.41 0 0 0-2.05-.57l-.93.1.73 6.67zm19.08.58l-3.52.39-.82-2.17-3.87.43-.35 2.3-3.54.39 2.57-12.38 4.3-.47zm-7.84-4.06l2.54-.25q-1.59-4.11-1.85-5-.05 1.13-.68 5.24zM13.31 78.52a4.27 4.27 0 0 1 .69-3.14A3.8 3.8 0 0 1 16.73 74a3.78 3.78 0 0 1 3 .72 5.26 5.26 0 0 1 .67 6.09 3.77 3.77 0 0 1-2.75 1.36 3.79 3.79 0 0 1-3-.73 4.29 4.29 0 0 1-1.34-2.92zm3.61-2.75q-1.61.18-1.36 2.49t1.85 2.14a1.38 1.38 0 0 0 1.15-.69 4.1 4.1 0 0 0-.39-3.49 1.37 1.37 0 0 0-1.25-.45zm7.8 2.6l.28 2.88-2.15.24-.85-7.94 2.6-.29q3.24-.36 3.5 2a2.36 2.36 0 0 1-1.1 2.28l2.7 3.2-2.43.26-2-2.7zm-.38-3.43l.2 1.82h.4q1.13-.12 1-1.12-.09-.82-1.19-.7zm7.66.3a1 1 0 0 1-.21.8 1.19 1.19 0 0 1-.8.37 1.21 1.21 0 0 1-.87-.18 1.13 1.13 0 0 1-.17-1.53 1.22 1.22 0 0 1 .82-.36 1.19 1.19 0 0 1 .87.18 1 1 0 0 1 .36.72zm.47 4.28a1 1 0 0 1-.21.8 1.18 1.18 0 0 1-.8.37 1.22 1.22 0 0 1-.87-.18 1.13 1.13 0 0 1-.21-1.51 1.23 1.23 0 0 1 .82-.36 1.19 1.19 0 0 1 .87.18 1 1 0 0 1 .37.7zm7.43-6.16l.68 6.18-2.15.24-.68-6.18-1.94.21-.19-1.76 6-.66.19 1.76zm9.67-2.84l.87 7.94-2.15.24-.36-3.23-2.5.27.37 3.26-2.15.24-.87-7.94 2.14-.3.33 3 2.5-.27-.32-2.94zM56.68 76l.19 1.75-4.71.52-.87-7.94 4.71-.52.19 1.72-2.56.28.14 1.25 2.38-.26.19 1.72-2.38.26.16 1.49zm11.48-3q-.08-.69-.17-2.23l-1 5.88-2 .23-2.25-5.54q.27 1.4.36 2.26l.27 3.4-1.9.21-.87-7.94 2.86-.27 2.27 5.45 1-5.81 2.86-.32.87 7.94-2 .22zm6.21 2.82l-2.15.24-.87-7.94 2.15-.24zm1.1-2.45a6.17 6.17 0 0 0 1.35.36 4.68 4.68 0 0 0 1.17 0 1.33 1.33 0 0 0 .72-.24.5.5 0 0 0 .18-.46.46.46 0 0 0-.12-.27 1.19 1.19 0 0 0-.3-.21q-.19-.1-1.08-.39a5.45 5.45 0 0 1-1.29-.57 2.21 2.21 0 0 1-1-1.68 2.07 2.07 0 0 1 .61-1.81 3.55 3.55 0 0 1 2.13-.86 6.22 6.22 0 0 1 2.58.3L80 69.31a4.8 4.8 0 0 0-2-.31 1.05 1.05 0 0 0-.58.2.43.43 0 0 0-.16.39.53.53 0 0 0 .29.39 8.69 8.69 0 0 0 1.36.52 3.72 3.72 0 0 1 1.55.85 2.11 2.11 0 0 1 .54 1.3 2.24 2.24 0 0 1-.65 1.92 3.43 3.43 0 0 1-2.19.94 6.62 6.62 0 0 1-1.36 0 5 5 0 0 1-1.14-.26zm11.75-4.83a4.44 4.44 0 0 0-1.87-.29 1.38 1.38 0 0 0-1.13.76 3 3 0 0 0-.22 1.77q.25 2.29 2 2.09a5.67 5.67 0 0 0 2-.72l.2 1.81a5.5 5.5 0 0 1-2.2.69 3.57 3.57 0 0 1-2.87-.74A4.33 4.33 0 0 1 81.78 71a4.71 4.71 0 0 1 .22-2.2 3.39 3.39 0 0 1 1.19-1.6 4 4 0 0 1 2-.72 5.62 5.62 0 0 1 2.52.29zm7.01 3.33l.19 1.75-4.71.52-.87-7.94 4.71-.52.19 1.72-2.56.28.14 1.25 2.38-.26.19 1.72-2.38.26.16 1.49zm6.77 1.02l-5.2.57-.87-7.94 2.15-.24.68 6.21 3.05-.34zm6.49-.71l-5.2.57-.87-7.94 2.15-.24.68 6.21 3.05-.34zm8.51-.94l-2.35.26-.55-1.45-2.58.28-.23 1.53-2.36.26 1.71-8.25 2.86-.32zm-5.22-2.71l1.69-.19q-1.06-2.74-1.23-3.32-.07.77-.49 3.51zm12.73-6.15l.87 7.94-2.81.31-3.52-5.27q.25 1.35.32 2l.39 3.58-1.9.21-.86-7.94 2.8-.31 3.49 5.2q-.21-1.15-.29-1.92l-.4-3.59zM130 69.7l-2.16.24-.33-3-3.15-4.61 2.34-.33 1.68 2.79 1-3.09 2.32-.26-2.08 5.12z"/></g></g></svg>