<svg xmlns="http://www.w3.org/2000/svg" viewBox="0 0 245.24 118.17"><defs><style>.cls-1{isolation:isolate}.cls-2{fill:#f3a712}.cls-3{fill:#353535}.cls-4{fill:#111}.cls-5{fill:#232323}.cls-6{fill:#443e39}.cls-7{fill:#f9e3cf}.cls-8{fill:#d3bba7}.cls-9{fill:#6d0f0f}.cls-10{fill:#470b0b}.cls-11{fill:#fff}.cls-12{fill:#302012}.cls-13{fill:#e5e5e5}.cls-14,.cls-15{fill:#7becff;opacity:.15}.cls-15{fill:#4e979b}.cls-16{opacity:.5;mix-blend-mode:multiply;fill:url(#linear-gradient)}.cls-17{fill:#ba1200}.cls-18{fill:#c67b55}.cls-19{fill:#8e3d14}.cls-20{fill:#b45118}.cls-21{opacity:.75}.cls-22{fill:#878787}.cls-23{fill:#ededed}.cls-24{fill:#ccc}</style><linearGradient id="linear-gradient" x1="204.1" y1="55" x2="204.1" y2="177.5" gradientUnits="userSpaceOnUse"><stop offset="0" stop-color="#fff"/><stop offset=".1" stop-color="#ded8d3"/><stop offset=".1" stop-color="#dbd4cf"/><stop offset=".3" stop-color="#b3a599"/><stop offset=".5" stop-color="#927d6c"/><stop offset=".6" stop-color="#785f49"/><stop offset=".8" stop-color="#65492f"/><stop offset=".9" stop-color="#5a3c20"/><stop offset="1" stop-color="#56371b"/></linearGradient></defs><title>newman</title><g class="cls-1"><g id="Vector"><path class="cls-2" d="M157 57a8.2 8.2 0 0 0-2-2.2 10 10 0 0 0-2.8-1.6 4.2 4.2 0 0 0-1-.2h-.5a12.3 12.3 0 0 0-4.7-5.1l-2.8-6.1a2.5 2.5 0 0 0-2.6-1.4l-4.3.4a2.5 2.5 0 0 0-2.1 2l-.1.2a166.9 166.9 0 0 0-57-2.1 178.8 178.8 0 0 0-50.7 12.4A2.5 2.5 0 0 0 25 53l-3.2.3a2.5 2.5 0 0 0-.8.3 2.5 2.5 0 0 0-.9 0l-9 1A2.5 2.5 0 0 0 9 57.3l.3 2.6a2.5 2.5 0 0 0 2.7 2.2 14.2 14.2 0 0 0-3.6 5.3H8a7 7 0 0 0-5 2.7 5.4 5.4 0 0 0-.9 1.4 11.4 11.4 0 0 0-.8 3.6 7.3 7.3 0 0 1 0 .7v.1a2.5 2.5 0 0 0-1 1 2.8 2.8 0 0 0 0 2.3A2.5 2.5 0 0 0 2 80.7l.5.8 1.2 1.7c1.8 2.2 5.1 3.2 7.6 3.2h1.2a7.6 7.6 0 0 0 .8-.2 9.7 9.7 0 0 0 5.5-4 9.2 9.2 0 0 0 .5-1 5.8 5.8 0 0 0 1.6 2.2 6.2 6.2 0 0 0 4.8 1.3 7 7 0 0 0 3-1c12.1 2.5 28.5 3.3 46.6 1.8a11.5 11.5 0 0 0 1.2 2.3 7.2 7.2 0 0 1 .4.6v.1a2.5 2.5 0 0 0-.2 1.4 2.7 2.7 0 0 0 1.4 1.8 2.1 2.1 0 0 0 1.1.2 3.2 3.2 0 0 0 1.1-.2 13.8 13.8 0 0 0 2.8 1 6.8 6.8 0 0 0 1.8.2 11 11 0 0 0 6.7-2.6l.3-.4a7.5 7.5 0 0 0 .5-.6 9.5 9.5 0 0 0 2-6 187.4 187.4 0 0 0 27.3-6.6c2.4 3 10.8 11.2 28.7 8.6 0 0-16.4-2.6-18-12.5a2.5 2.5 0 0 0 1.7-.9 2.5 2.5 0 0 0 1.8.5l2.2-.2a2.5 2.5 0 0 0 2.2-2.8v-.7l2-1.3a10.3 10.3 0 0 0 1.4 1 6.8 6.8 0 0 1 .5.4h.1a2.3 2.3 0 0 0 .5 1.2 2.5 2.5 0 0 0 1.8 1h.2a2.4 2.4 0 0 0 1.7-.9h1l1.8-.3c2.8-.5 5.3-3.2 6.2-5.4l.2-.4a7 7 0 0 0 .2-.8 9 9 0 0 0-1-6.2zm88-25.6v-.2a37.3 37.3 0 0 0-1.4-7 33.9 33.9 0 0 0-2.3-5.8 33 33 0 0 0-4-6.1A32.1 32.1 0 0 0 223 2.4a44 44 0 0 0-9.2-2 60.6 60.6 0 0 0-9.4-.4A54 54 0 0 0 186 3.8a36.3 36.3 0 0 0-7.9 4.4 37.3 37.3 0 0 0-6 5.7 38.6 38.6 0 0 0-6.8 11.4 36.2 36.2 0 0 0-2 7.2 31 31 0 0 0 0 8.6 28 28 0 0 0 2.3 8.3l1 1.9-.5.3-.1.1a6.6 6.6 0 0 0-2 3.5 7.8 7.8 0 0 0 .3 3.7 21.9 21.9 0 0 0 1.5 3.5l.2.6.3.5a9.4 9.4 0 0 1 1 2.6 3.6 3.6 0 0 1-.3 2.6 11.5 11.5 0 0 0-.4 1.2 5.5 5.5 0 0 0 .4 4.1 5.2 5.2 0 0 0 1.6 1.8 69.2 69.2 0 0 0 1.5 9.6 46.5 46.5 0 0 0 3.7 10.4 33.4 33.4 0 0 0 7.4 9.9 29.3 29.3 0 0 0 11.5 6.3l2.8.7a15.3 15.3 0 0 0 6.3 4.6 13.2 13.2 0 0 0 4.7 1 12 12 0 0 0 1.6-.2 14.1 14.1 0 0 0 6-2.2 18.5 18.5 0 0 0 5.4-5.3l.4-.6a36.3 36.3 0 0 0 9.6-6.3 39.1 39.1 0 0 0 7.6-9.7l.8-1.7.4-.9.6-1.2 1.3-4 .6-2.7a24.9 24.9 0 0 0 .7-3.9l.1-1.1a24.6 24.6 0 0 0 .2-2.5v-5.2a3.9 3.9 0 0 0 1.5-2.2 6.4 6.4 0 0 0-.2-3.4l-.4-.9a4.5 4.5 0 0 1-.3-1 9.5 9.5 0 0 1-.1-1.7 17.4 17.4 0 0 1 .2-3.1 9.3 9.3 0 0 1 .3-1.2c0-.3.3-.7.4-1.1l.3-.6a11.5 11.5 0 0 0 .8-2.6 6 6 0 0 0-.5-3.7 5.6 5.6 0 0 0-1-1.5 28 28 0 0 0 2.2-8 38.3 38.3 0 0 0 0-8.4z"/><path class="cls-3" d="M232.7 11.3a30.1 30.1 0 0 0-14-7.3 53.9 53.9 0 0 0-34.4 3.7 33.2 33.2 0 0 0-8.7 6.4 57.8 57.8 0 0 1 57-2.8z"/><path class="cls-4" d="M232.3 23.6c-18.1 5.3-37.8 2.9-56.6 1.8a105.5 105.5 0 0 1-.1 16.3c5.8-.4 11.3-2 17-2 12 .6 23.7-.4 35.7-1.4a21.8 21.8 0 0 1 4.6-.5 37.6 37.6 0 0 1-.6-14.2zm9 21.4a13.8 13.8 0 0 1-6.1 4 22 22 0 0 0 1.5 3.6 17 17 0 0 0 4.6-7.6zm-73.6 3a26.3 26.3 0 0 0 4.7 7.6h.7c.2-1.5.9-3 1.2-4.5a15 15 0 0 1-6.6-3z"/><path class="cls-5" d="M241.3 25.7a30.3 30.3 0 0 0-8.6-14.4 58 58 0 0 0-57.1 2.9c-8.7 9-12.6 22.5-8 33.9a15 15 0 0 0 6.7 3c-.3 1.5-1 3-1.2 4.4l62.2-1.8a13.1 13.1 0 0 0 1.4-1 22 22 0 0 1-1.5-3.6 13.8 13.8 0 0 0 6-4c2-6.3 1.6-13.9 0-19.4zm-13 12.7c-12 1-23.6 2-35.6 1.3-5.8 0-11.3 1.6-17.1 2a105.5 105.5 0 0 0 0-16.2c18.9 1 38.6 3.4 56.7-1.9a37.6 37.6 0 0 0 .6 14.3 21.8 21.8 0 0 0-4.6.5z"/><path class="cls-6" d="M242 31.8a40.9 40.9 0 0 1 0 7.7 26.3 26.3 0 0 1-1.7 7.6 15.4 15.4 0 0 1-3.2 5 10.1 10.1 0 0 1-1.3 1.2l-.5.4.5-.4a10 10 0 0 0 1.4-1.1 15.3 15.3 0 0 0 3.5-5 25.6 25.6 0 0 0 2-7.7 37.6 37.6 0 0 0-1.2-14.8 32 32 0 0 0-2.1-5.3 30.8 30.8 0 0 0-3.8-5.8 29.9 29.9 0 0 0-13.3-9 42.3 42.3 0 0 0-8.7-2 58.4 58.4 0 0 0-9-.3A51.7 51.7 0 0 0 186.8 6a34.2 34.2 0 0 0-7.4 4.1 35 35 0 0 0-5.7 5.3 36.2 36.2 0 0 0-6.4 10.8 34 34 0 0 0-1.8 6.8 29 29 0 0 0-.1 8 25.8 25.8 0 0 0 2.1 7.6 25.1 25.1 0 0 0 3.2 5.2c.5.6 1 1 1.2 1.4l.4.4-.4-.5-1-1.4a25.8 25.8 0 0 1-3-5.3 26.5 26.5 0 0 1-1.8-7.5 31.6 31.6 0 0 1 .3-7.7 33 33 0 0 1 1.8-6.7 35.3 35.3 0 0 1 6.2-10.5 34.1 34.1 0 0 1 5.5-5.2 33.3 33.3 0 0 1 7.2-4 50.8 50.8 0 0 1 17.3-3.5 57.5 57.5 0 0 1 9 .3 41.5 41.5 0 0 1 8.5 1.8 29 29 0 0 1 12.9 8.9 29.9 29.9 0 0 1 3.6 5.5 31.2 31.2 0 0 1 2 5.2 35 35 0 0 1 1.4 6.8z"/><path class="cls-7" d="M239.9 59a12.4 12.4 0 0 1 .5-2.5c.7-1.9 2.5-4.3 1-6.6a2 2 0 0 0-1.2-.9 24 24 0 0 0-.3 10z"/><path class="cls-8" d="M240.2 49c-1.5-.4-3.1 1.2-3.1 1.2l1.2 19.2c3.2.6 3.3-2 2.1-4.2a13 13 0 0 1-.5-6.3 24 24 0 0 1 .3-9.9z"/><path class="cls-6" d="M240.3 58.2a11.7 11.7 0 0 1 .4-1.5l.7-1.8a9.5 9.5 0 0 0 .7-2.2 3.8 3.8 0 0 0-.3-2.3 2.2 2.2 0 0 0-3.4-1.2 5.4 5.4 0 0 0-1 .7l-.3.3.3-.2a5.4 5.4 0 0 1 1-.7 2.4 2.4 0 0 1 1.7-.2 2.3 2.3 0 0 1 1.3 1.4c.6 1.4 0 3-.6 4.2a20.2 20.2 0 0 0-.8 1.9 10 10 0 0 0-.4 1.5 16.8 16.8 0 0 0-.2 3.6 11.7 11.7 0 0 0 .3 2.3 13.2 13.2 0 0 0 .9 2.2 4 4 0 0 1 .3 2 1.4 1.4 0 0 1-1 1.2 3.9 3.9 0 0 1-1.6 0 3.9 3.9 0 0 0 1.6 0 1.6 1.6 0 0 0 1.2-1.2 4.2 4.2 0 0 0-.1-2.2 13.4 13.4 0 0 1-.7-2.1 11.7 11.7 0 0 1-.2-2.2 19.9 19.9 0 0 1 .2-3.5z"/><path class="cls-7" d="M169.1 52.7a4.4 4.4 0 0 0-1.4.8c-3.4 3.4 1.2 8 2 11.6a31.8 31.8 0 0 0-.6-12.4z"/><path class="cls-8" d="M169.1 52.7a31.8 31.8 0 0 1 .5 12.4 7.5 7.5 0 0 1 .1 3.3c-.2 1-1 2-1 3-.1 2.1 1.6 3.3 3.5 3.3l1.4-22a6.8 6.8 0 0 0-4.5 0z"/><path class="cls-6" d="M168 62a13.4 13.4 0 0 1 1.5 3.7 7 7 0 0 1 0 2.5 22 22 0 0 1-.8 2.4 3.3 3.3 0 0 0 .2 2.4 3 3 0 0 0 1.5 1.4 3.9 3.9 0 0 0 1.4.3 4.3 4.3 0 0 0 .5 0 4.4 4.4 0 0 1-.5 0 3.8 3.8 0 0 1-1.3-.4A2.9 2.9 0 0 1 169 73a3 3 0 0 1 0-2.3 20.4 20.4 0 0 0 .9-2.4 7.3 7.3 0 0 0 0-2.6 12.6 12.6 0 0 0-1.3-3.9 31.3 31.3 0 0 1-1.7-3.6 5.2 5.2 0 0 1-.3-2.4 4 4 0 0 1 1-2.2 5.6 5.6 0 0 1 4-1.2 7.5 7.5 0 0 1 1.4.2h.5-.5a7.5 7.5 0 0 0-1.3-.3 5.8 5.8 0 0 0-4.3 1.1 4.4 4.4 0 0 0-1.2 2.3 5.6 5.6 0 0 0 .2 2.6 25 25 0 0 0 1.6 3.8z"/><path class="cls-8" d="M223 103c-16.2 9.8-37 6.1-47-9 3.9 8 10.2 14 19.9 16a35 35 0 0 0 40.8-22 48.1 48.1 0 0 1-13.8 15zm-38-38c3.8 3 10.7 2 11.8-3.7-4.6-2.9-10.5-1.7-15.9-3.8.2 2.8 2.1 5.6 4 7.5z"/><path class="cls-8" d="M199.5 101.2a9 9 0 0 0 13.9-1.4c-4.7 0-9.3 1.7-14 1.4zm-2-22.4c1.4 4.4 6.7 5.8 10.8 3.6a6.9 6.9 0 0 0 3.4-4c-4.6 1.4-9.4.5-14.2.3zm-16.8-49c12.3 12.6 33.9 10 45.7-2.1-15.4-.4-30.6 2.4-45.8 2zm32.8 38.7c4 4.5 11.2 5.7 15.2.2a17 17 0 0 0 2.6-7.5 68 68 0 0 1-3 6.2c-3.7 5.2-10.2 4.2-14.8 1.1zm1.3 1.8c.9 1.2 1.3 2.8 2.5 3.7a12.6 12.6 0 0 0 4.1 4c-2-2.6-4.3-5.2-6.6-7.7zM189.2 79a4.8 4.8 0 0 0 1.8-1.6 18.5 18.5 0 0 0 3.2-3.9c-1.8 1.3-3.2 3.7-5 5.5z"/><path class="cls-7" d="M228.3 25.6l-49.7 1c-6.8 16.5-11.9 48-2.6 67.4 10 15.1 30.8 18.8 47 9a48.1 48.1 0 0 0 13.7-15 38 38 0 0 0 2.2-10.7c1.1-17-2-36.9-10.6-51.7zm-1.9 2c-11.8 12.2-33.4 14.8-45.8 2.2 15.2.3 30.4-2.5 45.8-2.1zm1 27.9A9.3 9.3 0 0 1 226 60c-3.6 5.3-10.6 4.3-14.3-.3v.1c-.1-.5-.6-1-.7-1.6 1.5.8 3.2.4 4.3 1.5 4-1.5 7.7-3.4 12-4.3zM199.5 59a2.1 2.1 0 0 0-.2-.6c3-1.6 6.6-1.3 10-.3v.5a13.9 13.9 0 0 0-9.8.4zM191 77.4a4.8 4.8 0 0 1-1.8 1.6c1.8-1.8 3.2-4.2 5-5.5a18.5 18.5 0 0 1-3.2 3.9zm-4.7-3a8.1 8.1 0 0 1-6-5c3.5 4.3 10.5 3.8 15 .5-2.2 2.7-5 5-9 4.5zM185 65a13 13 0 0 1-4-7.5c5.3 2.1 11.3 1 16 3.8-1.2 5.7-8 6.7-12 3.7zm12.6 13.7c4.8.2 9.6 1 14.2-.3a6.9 6.9 0 0 1-3.4 4c-4.1 2.2-9.4.8-10.8-3.7zm2 22.5c4.6.2 9.3-1.4 14-1.4a9 9 0 0 1-14 1.4zM217.3 74c-1.2-1-1.6-2.4-2.5-3.7 2.3 2.6 4.6 5.2 6.7 7.8a12.6 12.6 0 0 1-4.2-4.1zm11.4-5.3c-4 5.5-11.2 4.3-15.2-.1 4.6 3 11.1 4 14.8-1.2a68 68 0 0 0 3-6.2 17 17 0 0 1-2.6 7.5z"/><path class="cls-8" d="M199.4 58.3a2.1 2.1 0 0 1 .2.7 13.9 13.9 0 0 1 9.7-.4v-.5c-3.3-1-6.9-1.4-9.9.2zM195.3 70c-4.5 3.2-11.5 3.7-15-.7a8.1 8.1 0 0 0 6 5c4 .6 6.8-1.7 9-4.4zm20-10.2c-1-1.1-2.9-.6-4.3-1.5.1.5.6 1 .6 1.6l.1-.1c3.7 4.6 10.6 5.6 14.3.3a9.3 9.3 0 0 0 1.3-4.6c-4.3 1-8 2.8-12 4.3z"/><path class="cls-9" d="M202 87.5c-5-1-10-3.7-14.3-6.4a43 43 0 0 0 5.6 9.5 23.6 23.6 0 0 0 26-2.5 37.1 37.1 0 0 0 3-9.2c-5.4 4.8-12.6 10.1-20.2 8.5z"/><path class="cls-10" d="M193.3 90.6l1.1 1.3c1.9 2.1 5.3 6.4 8.4 7 1.6.3 6.2-.9 7.7-1.3 2-.5 3.1-1.6 4.5-3.2a28 28 0 0 0 4.2-6.3 23.6 23.6 0 0 1-26 2.5z"/><path class="cls-6" d="M238.8 56.6a86.7 86.7 0 0 0-5.4-20.7l-1.8-4.2c-.5-1.2-1.2-2.4-1.7-3.3l-1.6-2.8 1.5 2.9c.4 1 1 2 1.4 3.3l1.7 4.3a102.1 102.1 0 0 1 4.7 20.7 105.9 105.9 0 0 1 1 17l-.2 2.1a21.6 21.6 0 0 1-.2 2.3 33.4 33.4 0 0 1-.6 4.6l-.6 2.4-.8 2.4-.4 1.3-.6 1.1-1 2.4a36 36 0 0 1-7 8.8 33.7 33.7 0 0 1-9.8 6.2l-1.4.6a8.9 8.9 0 0 1-1.4.5l-3 .8-3 .5-.7.1h-2.3a37.5 37.5 0 0 1-12-1.2 26 26 0 0 1-10.2-5.6 30.2 30.2 0 0 1-6.6-8.9 43.4 43.4 0 0 1-3.4-9.7 75 75 0 0 1-1.9-16.5c0-4.5.3-7.8.4-9.4a138.6 138.6 0 0 1 3.3-21c.8-3.2 1.6-6 2.3-7.9l.8-2.3.3-.8-.4.8-.9 2.3c-.8 1.9-1.7 4.6-2.6 7.8a111.2 111.2 0 0 0-4 21c0 1.7-.3 5-.3 9.5a76.2 76.2 0 0 0 1.9 16.9 44.5 44.5 0 0 0 3.5 10 31.3 31.3 0 0 0 6.9 9.1 27 27 0 0 0 10.6 5.8 38.5 38.5 0 0 0 12.4 1.4l1.5-.1h.8l.8-.1 3-.5 3-.9a9.4 9.4 0 0 0 1.5-.5l1.5-.5A34.8 34.8 0 0 0 228 102a37 37 0 0 0 7.1-9.1l1.2-2.5.5-1.2.5-1.3.8-2.5.6-2.4a34.5 34.5 0 0 0 .7-4.8 22.3 22.3 0 0 0 .2-2.3v-2.2a145.8 145.8 0 0 0-.8-17.1z"/><path class="cls-8" d="M197 110.6c2.2 2.6 5 4.6 8.6 4.8 5.5.4 10-3 12.7-7.5-6.2 4.7-14.4 7.1-21.3 2.7z"/><path class="cls-7" d="M219.3 102.1a27.6 27.6 0 0 1-6.5 3.5c-2.4 3-7 2.5-10.7 1.5a25.2 25.2 0 0 1-9.2-2.6 41 41 0 0 0 4.1 6.1c6.9 4.4 15.1 2 21.3-2.7a23 23 0 0 0 2.6-6z"/><path class="cls-6" d="M207.8 114.8a11 11 0 0 1-4.9-.4 12.8 12.8 0 0 1-5.2-3.5 31.4 31.4 0 0 1-3.5-4.4l-1.3-2 1.1 2.1a30.6 30.6 0 0 0 3.2 4.7 13.2 13.2 0 0 0 5.4 4 11 11 0 0 0 5.4.6 12 12 0 0 0 5-1.8 16.4 16.4 0 0 0 4.7-4.7 22.5 22.5 0 0 0 2.5-5.1l.6-1.7.1-.6-.2.6-.6 1.6a22.7 22.7 0 0 1-2.9 4.8 16.2 16.2 0 0 1-4.7 4.3 12.2 12.2 0 0 1-4.7 1.5z"/><path class="cls-8" d="M197.4 78.9c1.4 2.6 4.4 3.6 7.4 3.2 2.8-.4 6-2.2 7.2-4.8a12.9 12.9 0 0 1-14.6 1.6z"/><path class="cls-7" d="M208.9 70c-.7-4.5-1.1-9.5-1.3-11.3a38.5 38.5 0 0 0-7.3 1 62 62 0 0 1-.1 10.6 5.4 5.4 0 0 0-2.6 2.2 6.3 6.3 0 0 1 1 .2 6.3 6.3 0 0 0-1-.2 6.4 6.4 0 0 0-.7 4.9 6.3 6.3 0 0 0 .5 1.5 12.9 12.9 0 0 0 14.6-1.6 5.4 5.4 0 0 0 .2-.7c.7-2.4-.3-6.4-3.3-6.7z"/><path class="cls-6" d="M204.8 81.5a8.7 8.7 0 0 1-3.2 0 5.8 5.8 0 0 1-3.4-2.2 6.3 6.3 0 0 1-1.1-4.4 5.3 5.3 0 0 1 2.4-3.9 4.4 4.4 0 0 1 .5-.3l.3-.2.1-.1V70l.1-1.2.1-2.2v-4a70.3 70.3 0 0 0-.2 0l-.1 4-.2 2.2-.1 1.1v.2h-.2a4.9 4.9 0 0 0-.6.3 5.9 5.9 0 0 0-2.8 4.3 7 7 0 0 0 1.2 5 6.6 6.6 0 0 0 3.8 2.6 9.3 9.3 0 0 0 3.6.2 11.1 11.1 0 0 0 3.4-1.2 9 9 0 0 0 3.5-3 5.8 5.8 0 0 0 .9-2.4 7.4 7.4 0 0 0-.2-2.6 6 6 0 0 0-1.2-2.4 3.8 3.8 0 0 0-1-.9 3 3 0 0 0-.6-.3h-.6l-.1-.3-.1-.6-.2-1.1-.3-2.3-.5-3.8-.4-3.6.3 3.6.3 3.8.2 2.3.1 1.2.1.6v.5h.4c1.7.3 2.6 1.8 3 3.4a5.7 5.7 0 0 1-.9 4.4 8.3 8.3 0 0 1-3.2 2.6 10.8 10.8 0 0 1-3 1z"/><path class="cls-11" d="M198 58.5a105.7 105.7 0 0 1-17.6-1.7s2.5 7.3 9.5 7.6 8.1-5.9 8.1-5.9zm30-5.2c-6.6 2.9-17 5-17 5s3.3 5.8 9.8 3.7 7.2-8.7 7.2-8.7z"/><path class="cls-12" d="M222.6 55.3s-.8 3.6-4 4.6-5-2.2-5-2.2 4.7-1 9-2.4zm-27.8 3.1s-1.6 3.2-5 2.9a4.6 4.6 0 0 1-4-3.7l9 .8z"/><path class="cls-7" d="M212.4 101a13.3 13.3 0 0 0 3.4-4.1l-18 2c.7 1.3 1.7 3.1 3.3 3.7a27.6 27.6 0 0 1 11.3-1.6z"/><path class="cls-8" d="M201 102.6a3 3 0 0 0 .9.2 22.2 22.2 0 0 0 10.3-1.7l.2-.1a27.6 27.6 0 0 0-11.3 1.6z"/><path class="cls-6" d="M206.9 102.2a25.5 25.5 0 0 1-2.9.4 17.6 17.6 0 0 1-1.8 0 3.3 3.3 0 0 1-1.6-.5 7 7 0 0 1-2.1-2.2l-.7-1.2.6 1.2a7 7 0 0 0 2 2.5 3.6 3.6 0 0 0 1.8.6 16.7 16.7 0 0 0 1.8.1 18.4 18.4 0 0 0 3-.2 20.4 20.4 0 0 0 2.8-.7 23 23 0 0 0 1.8-.7 6.7 6.7 0 0 0 .8-.4 4.8 4.8 0 0 0 .8-.6 15 15 0 0 0 2-2.5l.7-1.2-.8 1.1a15.3 15.3 0 0 1-2.1 2.4 4.6 4.6 0 0 1-.7.5 6.8 6.8 0 0 1-.9.3l-1.7.5-2.8.6z"/><path class="cls-3" d="M198.3 52.7c-8-.9-17.5-5.5-17.5-5.5a6.6 6.6 0 0 0-.5 1.3 116.4 116.4 0 0 0 18 5 5.3 5.3 0 0 0 0-.8z"/><path class="cls-5" d="M180.3 48.5a10.6 10.6 0 0 0-.4 2.3 55.7 55.7 0 0 0 18.3 4 4.6 4.6 0 0 0 .2-1.3 116.4 116.4 0 0 1-18.1-5z"/><path class="cls-4" d="M180 50.8V52c1 .7 8.2 3 18 3.5a2.8 2.8 0 0 0 .2-.7 55.7 55.7 0 0 1-18.3-4z"/><path class="cls-5" d="M209.4 55.1a107 107 0 0 1 19.2-8.4 8.5 8.5 0 0 0 .2-1.9c-7 1.8-13.1 6-19.7 9a4.8 4.8 0 0 0 .3 1.3z"/><path class="cls-3" d="M209.1 53.3a4 4 0 0 0 0 .6c6.6-3 12.7-7.3 19.7-9v-1c-9.3 2.8-19.7 9.4-19.7 9.4z"/><path class="cls-4" d="M209.4 55.1a3.8 3.8 0 0 0 .2.6s10.5-5.4 18.6-7.8a4 4 0 0 0 .4-1.2 107 107 0 0 0-19.2 8.4z"/><path class="cls-6" d="M180 48a10.2 10.2 0 0 0-.5 2.6V52a2.5 2.5 0 0 0 0 .4l.4.1.1.1h.1l.2.1.4.2.9.2a53.3 53.3 0 0 0 7.3 1.6 72.6 72.6 0 0 0 8.3.8h.7-.7l-2-.2a75 75 0 0 1-6.3-1 56.7 56.7 0 0 1-7-2l-.9-.2-.4-.2h-.2v-1.1a10.3 10.3 0 0 1 .4-2.4l.1-.4v-.1h.2l.5.3 1.4.6 3 1.1a62.2 62.2 0 0 0 6.7 2 37.5 37.5 0 0 0 4.6.9c.5 0 1-.1.9.4a4.7 4.7 0 0 1-.1 1.8 2.5 2.5 0 0 1-.3.6 2.5 2.5 0 0 0 .3-.6 4.7 4.7 0 0 0 .2-1.8c.2-.7-.6-.5-1-.6l-1.4-.3-3.1-.8a66.6 66.6 0 0 1-6.6-2.3l-3-1.2-1.3-.6-1.5-.7-.3.6-.1.2v.2zm48.2-1.7a6.4 6.4 0 0 1-.2.9l-.1.3-.4.1-2.5.9c-1.8.6-3.8 1.5-5.7 2.3a156 156 0 0 0-9.7 4.8 3.5 3.5 0 0 1-.3-1 4.8 4.8 0 0 1-.2-.7 3.7 3.7 0 0 1 0-.6 3.6 3.6 0 0 0 0 .6 4.3 4.3 0 0 0 .5 1.8 201.6 201.6 0 0 1 18.2-7.3h.3l.2-.1c.1 0 .2 0 .3-.2a3.5 3.5 0 0 0 .3-.7 6.8 6.8 0 0 0 .2-1 8.8 8.8 0 0 0 .1-1.3v-1.7h-.4l-.4.2-1 .3c-.3 0-.5.2-.8.3l-1.8.6a78 78 0 0 0-7.3 3.5c-4.6 2.5-8.4 5-8.4 5s3.8-2.3 8.6-4.6c2.4-1.1 5-2.3 7.4-3.1l1.7-.6.8-.3.4-.1h.2v.5a8.8 8.8 0 0 1 0 1.2zm-32.4 18a24.4 24.4 0 0 0 1.5-3.4 23 23 0 0 0 .7-2.4l-1 2.3-1.6 3.3c-.4.7-1 2-1.8 3.1l-1.5 2 1.7-1.9a22.9 22.9 0 0 0 2-3zm17.8-1.3l-1.6-2.8-1-2 .7 2.1a23.8 23.8 0 0 0 1.5 3 17.4 17.4 0 0 0 2 2.6 12.3 12.3 0 0 0 1.7 1.4 13.2 13.2 0 0 1-1.5-1.6 27.8 27.8 0 0 1-1.8-2.7zm3.7 10.9a27.5 27.5 0 0 1-2.2-3.2 21.8 21.8 0 0 1-1.2-2.4 20.5 20.5 0 0 0 1.1 2.5 21.6 21.6 0 0 0 2 3.3 17.5 17.5 0 0 0 2.7 2.7 15.2 15.2 0 0 0 1.5 1.1l.7.5-.7-.5a15.8 15.8 0 0 1-1.4-1.2 21.1 21.1 0 0 1-2.5-2.8zm-25.5 2.9a21 21 0 0 0 2-2.5 20 20 0 0 0 1-1.8l-1.2 1.7a31 31 0 0 1-2 2.4 24.4 24.4 0 0 1-2.2 2.2 20 20 0 0 1-1.7 1.3 18.3 18.3 0 0 0 1.8-1.2 17.8 17.8 0 0 0 2.3-2zm15 29.3a10 10 0 0 0-3.4 1.6 10.9 10.9 0 0 0-2 1.6 11.4 11.4 0 0 1 2-1.5 11.7 11.7 0 0 1 3.4-1.2 10.1 10.1 0 0 1 3.6-.2 11.3 11.3 0 0 1 1.8.4l.7.2-.7-.3a10.8 10.8 0 0 0-1.7-.5 9 9 0 0 0-3.7 0zm-1-21.1a19.2 19.2 0 0 1-2 0h-1.6a14.6 14.6 0 0 0 1.5.2 11.8 11.8 0 0 0 2.2.2 8.2 8.2 0 0 0 2.1-.4 5.2 5.2 0 0 0 1.3-.7 5.5 5.5 0 0 1-1.3.6 11 11 0 0 1-2.2.2z"/><path class="cls-13" d="M215.4 91.9a3 3 0 0 0-.8-1 88.5 88.5 0 0 0-15.3 2.3 4.3 4.3 0 0 0-.4 1 31.8 31.8 0 0 0 16.5-2.3zm-12.6 7s1.4.4 7.7-1.3a7.7 7.7 0 0 0 2.2-1 42 42 0 0 0-10.8 2 4 4 0 0 0 .9.3z"/><path class="cls-11" d="M215.8 93.5a3.7 3.7 0 0 0-.4-1.6 31.8 31.8 0 0 1-16.5 2.3 5.2 5.2 0 0 0 0 2.5 12.6 12.6 0 0 0 3 1.9 42 42 0 0 1 10.7-2 12.2 12.2 0 0 0 3.2-3.1z"/><path class="cls-6" d="M214.6 91a3.3 3.3 0 0 1 .6 1 4.6 4.6 0 0 1 .3 1.6h.7a3.4 3.4 0 0 0-.7-1.7 3 3 0 0 0-1-.9zm-15.3 2.2a4.5 4.5 0 0 0-.6 1.3 4.7 4.7 0 0 0 0 2.3l.6-.2a6.4 6.4 0 0 1-.3-2 4.9 4.9 0 0 1 .3-1.4z"/><path class="cls-13" d="M216.6 83.4a22.2 22.2 0 0 1-10.6 4.3 25 25 0 0 1-11-2.7c6 5.4 16.6 4.8 21.5-1.7z"/><path class="cls-11" d="M215.4 89.8a20.5 20.5 0 0 0 2-6.9l-.8.5c-4.8 6.5-15.4 7.1-21.4 1.7l-1-.4a14 14 0 0 0 3.7 7.3c6 .7 12 .2 17.5-2.2z"/><path class="cls-13" d="M198 92l.3.4a12 12 0 0 0 1 .8 33.5 33.5 0 0 0 15.3-2.2l.3-.4.5-.8a33.7 33.7 0 0 1-17.5 2.2z"/><path class="cls-6" d="M206.3 92.7a40.7 40.7 0 0 1-4.5.3h-2.4l-.2-.1a11.8 11.8 0 0 1-2-2 14 14 0 0 1-2.5-4.2 11.5 11.5 0 0 1-.6-2 11.4 11.4 0 0 0 .5 2 14 14 0 0 0 2.3 4.4 12 12 0 0 0 2 2c0 .2.1.3.3.3h.4l.8.1h1.4a32.3 32.3 0 0 0 4.5-.1 31.2 31.2 0 0 0 4.4-.9l2.7-.9.7-.3.4-.1h.2a1.2 1.2 0 0 0 .1-.3 9 9 0 0 0 .8-1.2A17.6 17.6 0 0 0 217 85a20.1 20.1 0 0 0 .3-2 20.6 20.6 0 0 1-.4 2 17.6 17.6 0 0 1-1.6 4.5 8.6 8.6 0 0 1-.8 1.2h-.2l-.3.2-.7.2-2.7.8a39 39 0 0 1-4.3.8z"/><path class="cls-5" d="M175.2 25.1l1.5 1.7c14.3 11.2 33.7 9 49.4 1.8a47.5 47.5 0 0 0 6.6-4.8z"/><path class="cls-4" d="M176.7 26.9c12.9 13 34.2 11 49.4 1.7-15.7 7.2-35.2 9.4-49.4-1.8z"/><path class="cls-6" d="M203.8 35.4a45.4 45.4 0 0 1-8.3-.1 34 34 0 0 1-10-2.6 29.4 29.4 0 0 1-7.6-4.9 28 28 0 0 1-2-2l-.7-.7.6.8a27.7 27.7 0 0 0 2 2 29.4 29.4 0 0 0 7.5 5.2 33.9 33.9 0 0 0 10.1 3.1 40.3 40.3 0 0 0 8.5.2A43.7 43.7 0 0 0 212 35a51.2 51.2 0 0 0 10-3.9 49.6 49.6 0 0 0 7.6-4.8l2.2-1.8.8-.7-.8.6-2.3 1.7a50.4 50.4 0 0 1-7.8 4.5 52.6 52.6 0 0 1-10 3.5 50 50 0 0 1-8 1.3z"/><path class="cls-14" d="M199.3 58.7v-.3c-5.6-3.6-15.9-5.3-21.6-1 7.2-1.2 15-1.5 21.6 1.3z"/><path class="cls-15" d="M199.3 58.7a39.3 39.3 0 0 0-21.6-1.3 9.9 9.9 0 0 0-.9.8c0 19.4 22.4 19.3 22.5.5z"/><path class="cls-14" d="M231.4 55.6v-1.1c-7.5-3.5-16-1.7-22.2 3.5a34.3 34.3 0 0 1 22.3-2.4z"/><path class="cls-15" d="M209.2 58c.5 6 3.6 12.5 10.3 13 8.6.8 12.4-8 12-15.3a34.3 34.3 0 0 0-22.3 2.3z"/><path class="cls-6" d="M237.4 51.3l-.1-.4-6 3.2c-7.1-3.3-15.6-2-22.1 3.4a13.6 13.6 0 0 0-9.9.5 25 25 0 0 0-11.4-3.5 15 15 0 0 0-11.1 3.2l-5-3.1-.2.3 4.8 3.5c0 6.2 2.4 11 6.5 13.4a10.3 10.3 0 0 0 10.4 0c4-2.4 6.3-7.1 6.4-13.1a13 13 0 0 1 9.2-.4 18.6 18.6 0 0 0 2.8 8.5 10.2 10.2 0 0 0 7.7 4.6h1a9.8 9.8 0 0 0 7.3-3c3-3.2 4.6-8.5 4-13.7zM192.9 71a9.5 9.5 0 0 1-9.6 0c-3.9-2.2-6-6.9-6.1-12.8 5.3-5 16.1-3.2 21.7.3 0 5.8-2.2 10.3-6 12.5zm34.3-3.2a9.1 9.1 0 0 1-7.7 2.7c-4.3-.3-9-3.8-9.9-12.5a20.4 20.4 0 0 1 21.4-3.4c.5 5-1 10.2-3.8 13.2z"/><path class="cls-6" d="M189.2 58.3l5.2.2h3.6l-3.6-.3-5.2-.6-5.2-.4-3.6-.4a60 60 0 0 0 8.8 1.5z"/><path class="cls-6" d="M189 64a12 12 0 0 1-1.3-.3 9.7 9.7 0 0 1-1.6-.6 10.5 10.5 0 0 1-3.1-2.3 14.1 14.1 0 0 1-2-2.7 11 11 0 0 1-.6-1.3 10.8 10.8 0 0 0 .5 1.3 14 14 0 0 0 1.9 2.9 10.6 10.6 0 0 0 3 2.6 9.5 9.5 0 0 0 1.7.7 9.4 9.4 0 0 0 4.6.2 7.5 7.5 0 0 0 3.6-1.8 7.9 7.9 0 0 0 2-2.8 7 7 0 0 0 .3-1.4 7 7 0 0 1-.5 1.4 7.8 7.8 0 0 1-2 2.6A7.3 7.3 0 0 1 192 64a10.8 10.8 0 0 1-3 0zm30.7-7.5l5-1.7c1.8-.7 3.3-1.5 3.3-1.5l-3.4 1.2-5 1.3-5 1.5-3.6 1 3.6-.7 5.1-1.1z"/><path class="cls-6" d="M221 61.6a9.5 9.5 0 0 1-2.9.6 7.5 7.5 0 0 1-3.6-.9 9 9 0 0 1-2.6-2 8.2 8.2 0 0 1-.9-1 8 8 0 0 0 .8 1.1 9.1 9.1 0 0 0 2.5 2.2 7.8 7.8 0 0 0 3.8 1.1 8.9 8.9 0 0 0 3.1-.4 10 10 0 0 0 2.8-1.5 10.2 10.2 0 0 0 2.6-3 11.4 11.4 0 0 0 1.2-3.1 9 9 0 0 0 .3-1.4 9.1 9.1 0 0 1-.4 1.4 11.5 11.5 0 0 1-1.4 3 10.1 10.1 0 0 1-2.6 2.6 11 11 0 0 1-2.7 1.3zM205.6 88a15.8 15.8 0 0 0 5-1 27.8 27.8 0 0 0 5.6-3.1 50.2 50.2 0 0 0 4.4-3.4l1.7-1.6-1.8 1.5a52.2 52.2 0 0 1-4.5 3.2 28.5 28.5 0 0 1-5.7 2.8 16.7 16.7 0 0 1-4.8 1c-2.4.3-7.1-1-11-2.7-1.9-.8-3.6-1.7-4.9-2.4l-2-1.1 2 1.2 4.9 2.7a36 36 0 0 0 6 2.3 14.7 14.7 0 0 0 5 .7z"/><path class="cls-6" d="M206.2 98.2a15.9 15.9 0 0 1-3 .3 6.8 6.8 0 0 1-3.4-1.6 50.2 50.2 0 0 1-6.3-6.4 41 41 0 0 1-4.3-6.5c-1-1.7-1.5-3-1.5-3l1.4 3a40.6 40.6 0 0 0 4.1 6.7 48.7 48.7 0 0 0 6.2 6.7 10.5 10.5 0 0 0 1.8 1.2 5 5 0 0 0 2 .6 15.2 15.2 0 0 0 3.2-.3l3-.7 2-.6a7.3 7.3 0 0 0 1.8-1 24.2 24.2 0 0 0 5.6-7.3 37.1 37.1 0 0 0 2.9-7.2l.6-2.4.1-.9-.2 1-.6 2.2a37.5 37.5 0 0 1-3.1 7.2 24.2 24.2 0 0 1-5.6 6.9 9 9 0 0 1-3.6 1.4l-3.1.7z"/><path class="cls-16" d="M242.8 39.6a37.6 37.6 0 0 0-1.4-14.9 32 32 0 0 0-2-5.3 30.8 30.8 0 0 0-3.8-5.7 29.9 29.9 0 0 0-13.3-9.2 42.3 42.3 0 0 0-8.7-1.8 58.4 58.4 0 0 0-9.1-.4 51.7 51.7 0 0 0-17.6 3.6 34.2 34.2 0 0 0-7.4 4.1 35 35 0 0 0-5.7 5.3 36.2 36.2 0 0 0-6.4 10.8 33.9 33.9 0 0 0-1.8 6.8 29 29 0 0 0-.1 8 25.8 25.8 0 0 0 2.1 7.6 27 27 0 0 0 2.2 3.8 5.2 5.2 0 0 0-2.2 1 4.4 4.4 0 0 0-1.3 2.3 5.6 5.6 0 0 0 .2 2.6A25 25 0 0 0 168 62a13.4 13.4 0 0 1 1.4 3.7 7 7 0 0 1 0 2.4 22 22 0 0 1-.8 2.4 3.3 3.3 0 0 0 .2 2.4 3 3 0 0 0 1.5 1.4h.3a68.5 68.5 0 0 0 1.6 10.5 44.5 44.5 0 0 0 3.5 10 31.3 31.3 0 0 0 6.9 9.2 27 27 0 0 0 10.6 5.8l3.4.8.5.6a13.2 13.2 0 0 0 5.4 4 11 11 0 0 0 5.3.6 12 12 0 0 0 5-1.8 16.4 16.4 0 0 0 4.8-4.7l.6-1a34.5 34.5 0 0 0 9.7-6.3 37 37 0 0 0 7-9l1.2-2.5.6-1.3.4-1.2.9-2.5.6-2.5a34.5 34.5 0 0 0 .7-4.8 22.3 22.3 0 0 0 .1-2.3l.1-2.1v-4.4h.3a1.6 1.6 0 0 0 1.2-1.2 4.2 4.2 0 0 0-.1-2.2 13.4 13.4 0 0 1-.7-2.1 11.7 11.7 0 0 1-.2-2.2 19.9 19.9 0 0 1 .3-3.5 11.7 11.7 0 0 1 .3-1.5l.8-1.8a9.5 9.5 0 0 0 .6-2.2 3.8 3.8 0 0 0-.3-2.3 2.5 2.5 0 0 0-1.6-1.5 1.8 1.8 0 0 0-.3 0l.8-1.6a25.6 25.6 0 0 0 2-7.7z"/><path class="cls-17" d="M17.8 59l1 9.3-3.2.3-1-9.3-3 .4-.2-2.7 9-1 .3 2.7zm14.5-4.2l1.3 11.9-3.2.3-.6-4.8-3.7.4.5 4.8-3.2.4-1.3-11.9 3.2-.4.5 4.5 3.7-.4-.5-4.4zM43 63l.2 2.6-7 .8-1.3-11.9 7-.8.3 2.6-3.8.4.2 1.9 3.5-.4.3 2.6-3.5.4.2 2.2zm13 1.2l-3.2.4-.5-4.6-4.8-6.9 3.5-.4 2.6 4.2 1.5-4.6 3.5-.4-3.1 7.7zm15-1.6l-3.5.4-.8-2.2-3.9.5-.3 2.3-3.6.3 2.6-12.3 4.3-.5zm-7.8-4.1l2.5-.3q-1.6-4-1.8-5 0 1.2-.7 5.3zm18.5-3.4a6.2 6.2 0 0 1-1.1 4.8 6.3 6.3 0 0 1-4.4 2.1l-3.9.4L71 50.5l4.1-.4a6.3 6.3 0 0 1 4.6 1 5.6 5.6 0 0 1 2 4zM76 59.4a2.6 2.6 0 0 0 2-1.1 4 4 0 0 0 .4-2.6 4 4 0 0 0-1-2.5 2.4 2.4 0 0 0-2-.5h-.9l.7 6.7zm19 .6l-3.5.3-.8-2.2-4 .5-.3 2.3-3.5.4 2.6-12.4 4.3-.5zm-7.8-4.1l2.5-.3q-1.6-4.1-1.8-5 0 1.1-.7 5.3zm19.8 2.7l-3.2.4-.5-4.6-4.8-7 3.5-.3 2.6 4.2 1.5-4.6 3.5-.4-3.1 7.7zm15-1.6l-3.5.4-.8-2.2-4 .4-.3 2.3-3.5.4 2.6-12.3 4.3-.5zm-7.8-4l2.5-.3-1.9-5q0 1-.6 5.2zm18.5-3.5a6.2 6.2 0 0 1-1.1 4.8 6.3 6.3 0 0 1-4.4 2l-3.9.5-1.3-11.9 4.1-.5a6.3 6.3 0 0 1 4.6 1 5.6 5.6 0 0 1 2 4zm-5.8 4.2a2.6 2.6 0 0 0 2.1-1 4 4 0 0 0 .4-2.7 4 4 0 0 0-1-2.4 2.4 2.4 0 0 0-2-.6l-.9.1.7 6.7zm19.1.6l-3.5.4-.8-2.2-4 .5-.3 2.3-3.5.4 2.6-12.4 4.3-.5zm-7.8-4l2.5-.3-1.9-5q0 1.1-.6 5.2zM21.1 78.5a4.3 4.3 0 0 1 .7-3.1 3.8 3.8 0 0 1 2.8-1.4 3.8 3.8 0 0 1 3 .7 5.3 5.3 0 0 1 .6 6.1 3.8 3.8 0 0 1-2.7 1.4 3.8 3.8 0 0 1-3-.8 4.3 4.3 0 0 1-1.4-2.9zm3.6-2.7q-1.6.1-1.3 2.5t1.8 2.1a1.4 1.4 0 0 0 1.2-.7 4.1 4.1 0 0 0-.4-3.5 1.4 1.4 0 0 0-1.3-.4zm7.8 2.6l.4 2.9-2.2.2-.9-8 2.6-.2q3.3-.4 3.5 2a2.4 2.4 0 0 1-1 2.2l2.6 3.2-2.4.3-2-2.7zm-.3-3.5l.2 1.9h.4q1-.2 1-1.2-.1-.8-1.2-.7zm7.6.3a1 1 0 0 1-.2.8 1.2 1.2 0 0 1-.8.4 1.2 1.2 0 0 1-.9-.2 1.1 1.1 0 0 1-.2-1.5 1.2 1.2 0 0 1 .9-.4 1.2 1.2 0 0 1 .8.2 1 1 0 0 1 .4.7zm.5 4.3a1 1 0 0 1-.3.8 1.2 1.2 0 0 1-.8.4 1.2 1.2 0 0 1-.8-.2 1.1 1.1 0 0 1-.2-1.5 1.2 1.2 0 0 1 .8-.4 1.2 1.2 0 0 1 .9.2 1 1 0 0 1 .4.7zm7.4-6.1l.7 6.1-2.1.3-.7-6.2-2 .2-.2-1.8 6-.6.2 1.7zm9.7-2.9l.9 8-2.2.2-.4-3.2-2.5.2.4 3.3-2.1.2-.9-7.9 2.1-.3.4 3 2.5-.3-.4-3zm7.1 5.5l.2 1.8-4.7.5-.9-8 4.7-.5.2 1.7-2.6.3.2 1.3 2.4-.3.2 1.7-2.4.3.2 1.5zM76 73l-.2-2.2-1 5.8-2 .3-2.2-5.6q.3 1.4.3 2.3l.3 3.4-2 .2-.8-8 2.9-.2 2.2 5.5 1-5.9 2.9-.3.9 8-2 .2zm6.2 2.8l-2.2.3-.9-8 2.2-.2zm1.1-2.4a6.2 6.2 0 0 0 1.3.3 4.7 4.7 0 0 0 1.2 0 1.3 1.3 0 0 0 .7-.2.5.5 0 0 0 .2-.5.5.5 0 0 0-.1-.2 1.2 1.2 0 0 0-.3-.2l-1.1-.4a5.5 5.5 0 0 1-1.3-.6A2.2 2.2 0 0 1 83 70a2 2 0 0 1 .6-1.8 3.5 3.5 0 0 1 2.1-.9 6.2 6.2 0 0 1 2.6.3l-.5 1.8a4.8 4.8 0 0 0-2-.3 1 1 0 0 0-.5.2.4.4 0 0 0-.2.3.5.5 0 0 0 .3.4 8.7 8.7 0 0 0 1.3.6 3.7 3.7 0 0 1 1.6.8 2.1 2.1 0 0 1 .6 1.3 2.2 2.2 0 0 1-.7 2 3.4 3.4 0 0 1-2.2.8 6.6 6.6 0 0 1-1.4 0 5 5 0 0 1-1-.2zM95 68.5a4.4 4.4 0 0 0-1.9-.2 1.4 1.4 0 0 0-1.1.7 3 3 0 0 0-.2 1.8q.2 2.3 2 2a5.7 5.7 0 0 0 2-.6L96 74a5.5 5.5 0 0 1-2.2.7 3.6 3.6 0 0 1-2.9-.8 4.3 4.3 0 0 1-1.3-2.9 4.7 4.7 0 0 1 .2-2.2 3.4 3.4 0 0 1 1.2-1.6 4 4 0 0 1 2-.7 5.6 5.6 0 0 1 2.5.3zm7 3.4l.2 1.7-4.7.5-.8-7.9 4.7-.5.2 1.7-2.6.3.1 1.2 2.4-.2.2 1.7-2.4.3.2 1.4zm6.8 1l-5.2.6-.8-8 2.1-.2.7 6.2 3-.4zm6.5-.7l-5.2.6-.9-8 2.2-.2.7 6.2 3-.4zm8.5-1l-2.4.3-.5-1.4-2.6.2-.2 1.6-2.4.2 1.7-8.2 2.9-.3zm-5.2-2.7l1.7-.2L119 65l-.4 3.5zm12.7-6.1l.9 8-2.8.2-3.5-5.2.3 2 .4 3.5-2 .3-.8-8 2.8-.3 3.5 5.2-.3-2-.4-3.5zm6.5 7.3l-2.1.2-.4-3-3.1-4.6 2.3-.2 1.7 2.8 1-3.1 2.3-.3-2 5.1z"/><path class="cls-18" d="M9.2 69C6.8 68.2 5 70 4 71a4 4 0 0 0-.6 1c2-3 6.3-4 8.8-.8a5.1 5.1 0 0 0-3-2.2z"/><path class="cls-19" d="M6.8 72.4a3.5 3.5 0 0 1 1.6-1 1 1 0 0 0-.4 0c-2 .5-3 3-2 4.9a4.6 4.6 0 0 1 0-1 3.8 3.8 0 0 1 .8-3zm-3.2 8.4l1.2 1.5c1.6 2.1 5 3 7 2.8h.4a10.4 10.4 0 0 1-8.6-4.3zm7.5-2.4a1.6 1.6 0 0 1 .8-1.7 2.8 2.8 0 0 0 .7-.6 1.4 1.4 0 0 0 0-.2 6.6 6.6 0 0 1-.8.5 1.8 1.8 0 0 0-.6 2.7 3.6 3.6 0 0 0 1 .9 2 2 0 0 1-1.1-1.6zm4.5-.1a6.8 6.8 0 0 1-1.4 1.8l-.1.1a.8.8 0 0 0 .4-.2 3.7 3.7 0 0 0 1.5-3.2 2.7 2.7 0 0 1-.4 1.5zm-6.1-3.6a2.3 2.3 0 0 0-.6 1 1.9 1.9 0 0 1-.3.8 1.3 1.3 0 0 1-.3.2.8.8 0 0 0 .7-.5c.2-1 1.2-1.8 1.4-2.9a2 2 0 0 0-.2-.7 3 3 0 0 1-.7 2zm.4 4.2A2 2 0 0 1 10 80v.3a1 1 0 0 0-.1-1.4z"/><path class="cls-18" d="M18.5 75a4 4 0 0 0-2-2 5.5 5.5 0 0 0-1.8-.3 6.4 6.4 0 0 1 3.8 2.4z"/><path class="cls-19" d="M18.6 79a13.4 13.4 0 0 1-5.7 6 8.4 8.4 0 0 0 4.7-3.6 7.4 7.4 0 0 0 1-2.5z"/><path class="cls-18" d="M11.5 80.8a4.2 4.2 0 0 1 2.8 1.4 3 3 0 0 0-2.8-1.4zm-1 1a37.3 37.3 0 0 1-3.9-2.1c1.4 1.5 3.6 2 4.7 3.7a1.8 1.8 0 0 0-.8-1.6z"/><path class="cls-20" d="M18.6 79a9.4 9.4 0 0 0 .1-3.1 3.1 3.1 0 0 0-.2-.8 6.4 6.4 0 0 0-3.8-2.4 15.5 15.5 0 0 0-1.8 0 11.6 11.6 0 0 0-.7-1.4c-2.5-3.3-7-2.2-8.9.8a10.1 10.1 0 0 0-.7 3 8.6 8.6 0 0 1 0 1 3.6 3.6 0 0 0 .1.9c-.2 0-.4.2-.5.3-.9.6-.4 1.5.3 2.1a3.2 3.2 0 0 0 .4 0 5.7 5.7 0 0 0 .7 1.4 10.4 10.4 0 0 0 8.6 4.2 6.2 6.2 0 0 0 .7-.1 13.4 13.4 0 0 0 5.7-6zm-.6-3.3a5.1 5.1 0 0 0-3.3-2.3c1.5.1 3.1.8 3.3 2.3zm-6.3.7a6.6 6.6 0 0 0 1-.5 1.8 1.8 0 0 1 .4-.8 1.7 1.7 0 0 1 1.8.2 1.8 1.8 0 0 1 1.1 1.5 3.7 3.7 0 0 1-1.4 3.2.8.8 0 0 1-.5.2c-.5.4-1 .2-1.5 0a3.2 3.2 0 0 1-.5-.2 3.6 3.6 0 0 1-1-.8 1.8 1.8 0 0 1 .7-2.8zm-3 2a1.6 1.6 0 0 1 .4 0 .8.8 0 0 1 .7.5 1 1 0 0 1 .2 1.4.3.3 0 0 1-.3.2c-.3.1-1.1-.3-1.4-.4s-1.1-.5-1.3-1c-.2 0-.3-.2-.3-.3.3-.9 1.2-.4 2-.4zm-.7-7a1 1 0 0 1 .4 0h.1a1.8 1.8 0 0 1 1.7 1 1.6 1.6 0 0 1 0 .2 2 2 0 0 1 .1.7c0 1.1-1.1 1.8-1.3 2.9a.8.8 0 0 1-.7.6 2.9 2.9 0 0 1-1.8.3c-.4 0-.5-.4-.6-.9-.8-1.8.1-4.4 2.1-4.9zM4.3 77c.8.1 1.8.4 2 1.1a3.4 3.4 0 0 0-2-1.1zm2.3 2.6a37.3 37.3 0 0 0 3.9 2.2 1.8 1.8 0 0 1 .8 1.5c-1-1.7-3.3-2.1-4.7-3.6zm4.9 1.2a3 3 0 0 1 2.8 1.4 4.2 4.2 0 0 0-2.8-1.4z"/><path class="cls-18" d="M4.3 77a3.4 3.4 0 0 1 2 1.1c-.2-.7-1.2-1-2-1.1zM18 75.7c-.2-1.5-1.8-2.2-3.3-2.3a5.1 5.1 0 0 1 3.3 2.3z"/><path class="cls-19" d="M7 78.6c.1-.2.5-.1.7-.1a4.6 4.6 0 0 0 .7 0h.2c-.7 0-1.7-.5-1.9.3 0 .2 0 .3.2.4a.5.5 0 0 1 .1-.6zm-4.8-1.3c.1 0 .3-.3.5-.3a3.6 3.6 0 0 1-.2-1 7 7 0 0 1-.1.9 1.3 1.3 0 0 0-.9 1.9 1.4 1.4 0 0 0 1 .6c-.7-.6-1.2-1.5-.3-2z"/><g class="cls-21"><path class="cls-22" d="M7 69.3a1 1 0 0 0-.3 0v.3H7a2.2 2.2 0 0 0 0-.3z"/><path class="cls-23" d="M6.8 69.3a1 1 0 0 0-.2 0v.3h.2a.5.5 0 0 0 0-.3z"/><path class="cls-24" d="M6.9 69.3a.5.5 0 0 1 0 .3h-.3.3a2.2 2.2 0 0 0 0-.3z"/></g><g class="cls-21"><path class="cls-22" d="M5.5 71.9a1 1 0 0 0-.2 0v.3h.3a2.2 2.2 0 0 0 0-.3z"/><path class="cls-23" d="M5.4 71.8a1 1 0 0 0-.2 0v.3c0 .1.1 0 .2 0a.5.5 0 0 0 0-.3z"/><path class="cls-24" d="M5.5 71.9a.5.5 0 0 1 0 .3h-.3.3a2.2 2.2 0 0 0 0-.3z"/></g><g class="cls-21"><path class="cls-22" d="M9.7 69.4h-.1a.8.8 0 0 0-.2 0v.2h.2a1.9 1.9 0 0 0 0-.2z"/><path class="cls-23" d="M9.6 69.3a.8.8 0 0 0-.2 0v.3h.2a.4.4 0 0 0 0-.3z"/><path class="cls-24" d="M9.7 69.3h-.1a.4.4 0 0 1 0 .3h-.2.2a1.9 1.9 0 0 0 0-.3z"/></g><g class="cls-21"><path class="cls-22" d="M10 77.3a1 1 0 0 0-.2 0v.3h.3a2.2 2.2 0 0 0 0-.3z"/><path class="cls-23" d="M10 77.3a1 1 0 0 0-.3 0v.3h.3a.5.5 0 0 0 0-.3z"/><path class="cls-24" d="M10 77.3a.5.5 0 0 1 0 .3h-.3.4a2.2 2.2 0 0 0 0-.3z"/></g><g class="cls-21"><path class="cls-22" d="M12.4 74.9a.7.7 0 0 0-.2 0v.2h.3a1.7 1.7 0 0 0 0-.2z"/><path class="cls-23" d="M12.3 74.8a.7.7 0 0 0-.2 0v.3h.2a.4.4 0 0 0 0-.3z"/><path class="cls-24" d="M12.4 74.9a.4.4 0 0 1 0 .2H12h.3a1.7 1.7 0 0 0 0-.2z"/></g><g class="cls-21"><path class="cls-22" d="M10.1 74.4a.8.8 0 0 0-.2 0v.3h.2a1.9 1.9 0 0 0 0-.3z"/><path class="cls-23" d="M10 74.4a.8.8 0 0 0-.2 0v.2c0 .1.1 0 .2 0a.4.4 0 0 0 0-.2z"/><path class="cls-24" d="M10.1 74.4H10a.4.4 0 0 1 0 .3h-.2.2a1.9 1.9 0 0 0 .1-.3z"/></g><g class="cls-21"><path class="cls-22" d="M11.6 72a1 1 0 0 0-.3 0v.3h.3a2.2 2.2 0 0 0 0-.2z"/><path class="cls-23" d="M11.5 72a1 1 0 0 0-.3 0v.3h.3a.5.5 0 0 0 0-.3z"/><path class="cls-24" d="M11.6 72h-.1a.5.5 0 0 1 0 .3h-.3.3a2.2 2.2 0 0 0 0-.3z"/></g><g class="cls-21"><path class="cls-22" d="M15.5 73.8a.6.6 0 0 0-.1 0v.2h.1a1.3 1.3 0 0 0 0-.2z"/><path class="cls-23" d="M15.5 73.8a.6.6 0 0 0-.2 0v.1c0 .1.1 0 .2 0a.3.3 0 0 0 0-.1z"/><path class="cls-24" d="M15.5 73.8a.3.3 0 0 1 0 .2h-.1.1a1.3 1.3 0 0 0 0-.2z"/></g><g class="cls-21"><path class="cls-22" d="M18 77.4a1 1 0 0 0-.2 0v.3h.3a2.2 2.2 0 0 0 0-.3z"/><path class="cls-23" d="M18 77.4a1 1 0 0 0-.3 0v.3h.3a.5.5 0 0 0 0-.3z"/><path class="cls-24" d="M18 77.4a.5.5 0 0 1 0 .3h-.3.4a2.2 2.2 0 0 0 0-.3z"/></g><g class="cls-21"><path class="cls-22" d="M17.6 75.3h-.1a.8.8 0 0 0-.2 0v.2h.2a2 2 0 0 0 0-.2z"/><path class="cls-23" d="M17.5 75.2a.8.8 0 0 0-.3 0v.3h.3a.5.5 0 0 0 0-.3z"/><path class="cls-24" d="M17.5 75.2a.5.5 0 0 1 0 .3h-.3.3a2 2 0 0 0 0-.3z"/></g><g class="cls-21"><path class="cls-22" d="M16.6 80.4a1 1 0 0 0-.3 0v.3h.3a2.2 2.2 0 0 0 0-.3z"/><path class="cls-23" d="M16.5 80.3a1 1 0 0 0-.2 0v.3c0 .1.1 0 .2 0a.5.5 0 0 0 0-.3z"/><path class="cls-24" d="M16.6 80.4a.5.5 0 0 1 0 .2h-.3.3a2.2 2.2 0 0 0 0-.2z"/></g><g class="cls-21"><path class="cls-22" d="M13.8 83.1a1 1 0 0 0-.3 0v.3h.3a2.2 2.2 0 0 0 0-.3z"/><path class="cls-23" d="M13.7 83a1 1 0 0 0-.3 0v.4h.3a.5.5 0 0 0 0-.3z"/><path class="cls-24" d="M13.7 83.1a.5.5 0 0 1 0 .3h-.3.3a2.2 2.2 0 0 0 0-.3z"/></g><g class="cls-21"><path class="cls-22" d="M11.4 80.2a.5.5 0 0 0-.2 0v.2h.2a1.3 1.3 0 0 0 0-.2z"/><path class="cls-23" d="M11.3 80.2a.5.5 0 0 0-.1 0v.2c0 .2 0 0 .1 0a.3.3 0 0 0 0-.2z"/><path class="cls-24" d="M11.4 80.2a.3.3 0 0 1 0 .2h-.2.2a1.3 1.3 0 0 0 0-.2z"/></g><g class="cls-21"><path class="cls-22" d="M14 80.5a.5.5 0 0 0-.1 0v.2h.1a1.3 1.3 0 0 0 0-.2z"/><path class="cls-23" d="M14 80.5a.5.5 0 0 0-.1 0v.2a.3.3 0 0 0 .1-.2z"/><path class="cls-24" d="M14 80.5a.3.3 0 0 1 0 .2h-.1.1a1.3 1.3 0 0 0 0-.2z"/></g><g class="cls-21"><path class="cls-22" d="M10.4 84.3a.8.8 0 0 0-.2 0v.2h.2a1.9 1.9 0 0 0 0-.3z"/><path class="cls-23" d="M10.4 84.2a.8.8 0 0 0-.3 0v.3h.3a.4.4 0 0 0 0-.3z"/><path class="cls-24" d="M10.4 84.2a.4.4 0 0 1 0 .3H10h.3a1.9 1.9 0 0 0 0-.3z"/></g><g class="cls-21"><path class="cls-22" d="M8.5 81.4a.9.9 0 0 0-.2 0v.2h.3a2.2 2.2 0 0 0 0-.2z"/><path class="cls-23" d="M8.4 81.3a.9.9 0 0 0-.2 0v.3c0 .1.1 0 .2 0a.5.5 0 0 0 0-.3z"/><path class="cls-24" d="M8.5 81.4a.5.5 0 0 1 0 .2h-.3.3a2.2 2.2 0 0 0 0-.2z"/></g><g class="cls-21"><path class="cls-22" d="M6 81a1 1 0 0 0-.3 0v.3H6a2.2 2.2 0 0 0 0-.3z"/><path class="cls-23" d="M5.9 81a1 1 0 0 0-.3 0v.3h.3a.5.5 0 0 0 0-.3z"/><path class="cls-24" d="M6 81h-.1a.5.5 0 0 1 0 .3h-.3.3a2.2 2.2 0 0 0 0-.3z"/></g><g class="cls-21"><path class="cls-22" d="M7.1 83.2a.6.6 0 0 0-.2 0v.2h.2a1.4 1.4 0 0 0 0-.2z"/><path class="cls-23" d="M7 83.2a.6.6 0 0 0-.1 0v.2c0 .2 0 0 .1 0a.3.3 0 0 0 0-.2z"/><path class="cls-24" d="M7.1 83.2a.3.3 0 0 1 0 .2h-.2.2a1.4 1.4 0 0 0 0-.2z"/></g><g class="cls-21"><path class="cls-22" d="M11 82.3a.6.6 0 0 0-.2 0v.2h.2a1.4 1.4 0 0 0 0-.2z"/><path class="cls-23" d="M11 82.3a.6.6 0 0 0-.2 0v.2c0 .2 0 0 .1 0a.3.3 0 0 0 0-.2z"/><path class="cls-24" d="M11 82.3a.3.3 0 0 1 0 .2h-.2.2a1.4 1.4 0 0 0 0-.2z"/></g><g class="cls-21"><path class="cls-22" d="M4.4 79.9a.6.6 0 0 0-.1 0v.2h.2a1.4 1.4 0 0 0 0-.2z"/><path class="cls-23" d="M4.4 79.9a.6.6 0 0 0-.2 0v.2c0 .2.1 0 .2 0a.3.3 0 0 0 0-.2z"/><path class="cls-24" d="M4.4 79.9a.3.3 0 0 1 0 .2h-.2.2a1.4 1.4 0 0 0 0-.2z"/></g><g class="cls-21"><path class="cls-22" d="M5.4 78.3a1 1 0 0 0-.2 0v.3h.3a2.2 2.2 0 0 0 0-.3z"/><path class="cls-23" d="M5.3 78.3a1 1 0 0 0-.2 0v.3c0 .2.2 0 .2 0a.5.5 0 0 0 0-.3z"/><path class="cls-24" d="M5.4 78.3a.5.5 0 0 1 0 .3H5h.3a2.2 2.2 0 0 0 0-.3z"/></g><g class="cls-21"><path class="cls-22" d="M6.5 77.4a1 1 0 0 0-.3 0v.3h.3a2.2 2.2 0 0 0 0-.3z"/><path class="cls-23" d="M6.4 77.4a1 1 0 0 0-.3 0v.2c0 .2.2 0 .3 0a.5.5 0 0 0 0-.2z"/><path class="cls-24" d="M6.5 77.4h-.1a.5.5 0 0 1 0 .3H6h.3a2.2 2.2 0 0 0 0-.3z"/></g><g class="cls-21"><path class="cls-22" d="M3.6 74a1 1 0 0 0-.3 0v.3h.3a2.2 2.2 0 0 0 0-.3z"/><path class="cls-23" d="M3.5 74a1 1 0 0 0-.3 0v.3h.3a.5.5 0 0 0 0-.3z"/><path class="cls-24" d="M3.6 74h-.1a.5.5 0 0 1 0 .3h-.3.3a2.2 2.2 0 0 0 0-.3z"/></g><g class="cls-21"><path class="cls-22" d="M3.5 76.9a1 1 0 0 0-.3 0v.2h.3a2.2 2.2 0 0 0 0-.2z"/><path class="cls-23" d="M3.4 76.8a1 1 0 0 0-.3 0v.3h.3a.5.5 0 0 0 0-.3z"/><path class="cls-24" d="M3.5 76.8h-.1a.5.5 0 0 1 0 .3h-.3.3a2.2 2.2 0 0 0 0-.3z"/></g><g class="cls-21"><path class="cls-22" d="M2.2 78.1a1 1 0 0 0-.3 0v.3h.3a2.2 2.2 0 0 0 0-.3z"/><path class="cls-23" d="M2.1 78.1a1 1 0 0 0-.3 0v.3h.3a.5.5 0 0 0 0-.3z"/><path class="cls-24" d="M2.2 78.1H2a.5.5 0 0 1 0 .3h-.3.4a2.2 2.2 0 0 0 0-.3z"/></g><path class="cls-18" d="M79 78.3c-2.3.8-2.8 3.4-2.9 4.7a4 4 0 0 0 .2 1.2c-.3-3.5 2.5-7 6.4-6a5 5 0 0 0-3.7 0z"/><path class="cls-19" d="M79.2 82.4a3.4 3.4 0 0 1 .6-1.8 1 1 0 0 0-.3.3c-1.3 1.5-.5 4.1 1.3 5a4.5 4.5 0 0 1-.7-.8 3.7 3.7 0 0 1-1-2.7zm2.5 8.4l1.8.6c2.5.6 5.7-.8 7.2-2.1l.3-.3a10.2 10.2 0 0 1-9.3 1.8zm4.5-6.3a1.6 1.6 0 0 1-.4-1.8 2.8 2.8 0 0 0 .1-.9 1.4 1.4 0 0 0 0-.2 6.5 6.5 0 0 1-.4 1 1.8 1.8 0 0 0 1.1 2.4 3.6 3.6 0 0 0 1.3 0 2 2 0 0 1-1.8-.5zm3.4-2.8a6.7 6.7 0 0 1 0 2.3 1.7 1.7 0 0 1 0 .2.8.8 0 0 0 .3-.5 3.6 3.6 0 0 0-.9-3.4 2.6 2.6 0 0 1 .6 1.4zm-7 .8a2.3 2.3 0 0 0 .2 1.2 1.8 1.8 0 0 1 .3.8 1.3 1.3 0 0 1-.1.4.8.8 0 0 0 .1-.9c-.4-1 0-2.1-.6-3a2 2 0 0 0-.5-.5 2.9 2.9 0 0 1 .6 2zm2.8 3.1a2 2 0 0 1 .9.8v.2c.2-.5-.3-.9-.9-1z"/><path class="cls-18" d="M90 77.5a3.9 3.9 0 0 0-3-.4 5.4 5.4 0 0 0-1.5.8 6.3 6.3 0 0 1 4.5-.4z"/><path class="cls-19" d="M92.4 80.4a13.2 13.2 0 0 1-1 8.1A8.3 8.3 0 0 0 93 83a7.3 7.3 0 0 0-.6-2.5z"/><path class="cls-18" d="M87.9 86.1a4.2 4.2 0 0 1 3-.5 2.9 2.9 0 0 0-3 .5zm-.2 1.4a36.7 36.7 0 0 1-4.3.7c2 .3 4-.6 5.8 0a1.7 1.7 0 0 0-1.5-.7z"/><path class="cls-20" d="M92.4 80.4a9.3 9.3 0 0 0-1.8-2.4 3 3 0 0 0-.6-.5 6.3 6.3 0 0 0-4.5.4 15.3 15.3 0 0 0-1.4 1 11.4 11.4 0 0 0-1.4-.6c-4-1-6.7 2.4-6.4 6a10 10 0 0 0 1.3 2.8 8.5 8.5 0 0 1 .4.8 3.5 3.5 0 0 0 .7.6c-.2.1-.2.4-.2.6-.3 1 .6 1.4 1.5 1.4a3.2 3.2 0 0 0 .4-.2 5.6 5.6 0 0 0 1.3.6A10.2 10.2 0 0 0 91 89a6.1 6.1 0 0 0 .4-.5 13.2 13.2 0 0 0 1-8zm-2.5-2.2a5 5 0 0 0-3.9.2c1.2-.8 2.9-1.2 4-.2zm-4.4 4.4a6.5 6.5 0 0 0 .4-1 1.8 1.8 0 0 1-.1-.9 1.7 1.7 0 0 1 1.5-1 1.8 1.8 0 0 1 1.7.6 3.6 3.6 0 0 1 .8 3.4.8.8 0 0 1-.3.5c-.1.5-.5.7-1.1.8a3.2 3.2 0 0 1-.5.1 3.6 3.6 0 0 1-1.3-.1 1.8 1.8 0 0 1-1.1-2.4zM84.2 86a1.6 1.6 0 0 1 .3-.3.8.8 0 0 1 1 0c.5 0 1 .4.9 1a.3.3 0 0 1 0 .3c-.2.3-1.1.4-1.4.5a3 3 0 0 1-1.6 0H83c-.4-.9.6-1.1 1.2-1.5zm-4.7-5.1a1 1 0 0 1 .3-.3 1.8 1.8 0 0 1 2-.3l.2.1a2 2 0 0 1 .5.6c.5.9.2 2 .7 3a.8.8 0 0 1-.2.9 2.8 2.8 0 0 1-1.2 1.3 1 1 0 0 1-1-.3c-1.8-.9-2.6-3.5-1.3-5zm.5 6.6c.7-.4 1.7-.8 2.3-.3a3.4 3.4 0 0 0-2.3.3zm3.4.7a36.7 36.7 0 0 0 4.3-.7 1.7 1.7 0 0 1 1.6.8c-2-.7-4 .2-6-.1zm4.5-2a2.9 2.9 0 0 1 3-.5 4.2 4.2 0 0 0-3 .4z"/><path class="cls-18" d="M80 87.5a3.4 3.4 0 0 1 2.3-.3c-.7-.5-1.6-.1-2.3.3zm10-9.3c-1-1-2.8-.6-4 .2a5 5 0 0 1 4-.2z"/><path class="cls-19" d="M83 87.1c0-.2.4-.4.6-.5a4.5 4.5 0 0 0 .5-.4 1 1 0 0 0 .1-.2c-.6.4-1.6.6-1.3 1.4 0 .2.2.2.4.2a.5.5 0 0 1-.2-.5zM78.5 89c0-.1 0-.4.2-.6a3.5 3.5 0 0 1-.7-.6 6.8 6.8 0 0 1 .4.7 1.2 1.2 0 0 0 .4 2 1.4 1.4 0 0 0 1.2 0c-1 0-1.8-.5-1.5-1.5z"/><g class="cls-21"><path class="cls-22" d="M77.4 79.9a1 1 0 0 0-.2.1l.2.3.2-.2a2.2 2.2 0 0 0-.2-.2z"/><path class="cls-23" d="M77.3 80a1 1 0 0 0-.2 0l.2.3.2-.1a.5.5 0 0 0-.2-.3z"/><path class="cls-24" d="M77.4 79.9a.5.5 0 0 1 0 .2l-.1.2.2-.2a2.2 2.2 0 0 0-.1-.2z"/></g><g class="cls-21"><path class="cls-22" d="M77.9 82.7a1 1 0 0 0-.2.2l.1.2.2-.1a2.2 2.2 0 0 0-.1-.3z"/><path class="cls-23" d="M77.8 82.8a1 1 0 0 0-.2.1l.1.3.2-.2a.5.5 0 0 0-.1-.2z"/><path class="cls-24" d="M77.8 82.7a.5.5 0 0 1 .1.3l-.2.1.3-.1a2.2 2.2 0 0 0-.2-.3z"/></g><g class="cls-21"><path class="cls-22" d="M79.6 78.3a.8.8 0 0 0-.2.1l.1.2.2-.1a1.9 1.9 0 0 0-.1-.2z"/><path class="cls-23" d="M79.5 78.3a.8.8 0 0 0-.2.1l.2.2h.1a.4.4 0 0 0 0-.3z"/><path class="cls-24" d="M79.6 78.3a.4.4 0 0 1 0 .2l-.1.1.2-.1a1.9 1.9 0 0 0-.1-.2z"/></g><g class="cls-21"><path class="cls-22" d="M84.7 84.3a1 1 0 0 0-.2.1l.1.3.3-.2a2.2 2.2 0 0 0-.2-.2z"/><path class="cls-23" d="M84.6 84.3a1 1 0 0 0-.2.1l.1.3c.1.1.1-.1.2-.1a.5.5 0 0 0-.1-.3z"/><path class="cls-24" d="M84.7 84.3h-.1a.5.5 0 0 1 .1.2l-.2.2.3-.2a2.2 2.2 0 0 0-.1-.2z"/></g><g class="cls-21"><path class="cls-22" d="M85 81a.7.7 0 0 0-.2.1l.1.2.2-.1a1.7 1.7 0 0 0-.1-.2z"/><path class="cls-23" d="M85 81a.7.7 0 0 0-.2.1l.2.2.1-.1a.4.4 0 0 0-.1-.2z"/><path class="cls-24" d="M85 81a.4.4 0 0 1 .1.2l-.1.1.1-.1a1.7 1.7 0 0 0-.1-.2z"/></g><g class="cls-21"><path class="cls-22" d="M83 82a.8.8 0 0 0-.2.1l.1.2.2-.1a1.8 1.8 0 0 0-.1-.2z"/><path class="cls-23" d="M83 82a.8.8 0 0 0-.3.1l.2.2c0 .1 0 0 .1 0a.4.4 0 0 0 0-.3z"/><path class="cls-24" d="M83 82a.4.4 0 0 1 0 .2l-.1.1.2-.1a1.8 1.8 0 0 0-.1-.2z"/></g><g class="cls-21"><path class="cls-22" d="M82.7 79.3a1 1 0 0 0-.2.1l.1.3.3-.2a2.2 2.2 0 0 0-.2-.2z"/><path class="cls-23" d="M82.6 79.3a1 1 0 0 0-.2.1l.2.3.2-.2a.5.5 0 0 0-.2-.2z"/><path class="cls-24" d="M82.7 79.3a.5.5 0 0 1 0 .2l-.1.1.2-.1a2.2 2.2 0 0 0-.1-.3z"/></g><g class="cls-21"><path class="cls-22" d="M86.8 78.3v.2l.1-.1a1.3 1.3 0 0 0 0-.1z"/><path class="cls-23" d="M86.8 78.3a.5.5 0 0 0-.1 0v.2h.2a.3.3 0 0 0-.1-.2z"/><path class="cls-24" d="M86.8 78.3a.3.3 0 0 1 .1.1h-.1.1a1.3 1.3 0 0 0 0-.2z"/></g><g class="cls-21"><path class="cls-22" d="M91 79.6a1 1 0 0 0-.2.1l.1.3.3-.2a2.2 2.2 0 0 0-.2-.2z"/><path class="cls-23" d="M91 79.6a1 1 0 0 0-.3.2l.1.2.2-.1a.5.5 0 0 0 0-.3z"/><path class="cls-24" d="M91 79.6a.5.5 0 0 1 0 .2l-.1.2.2-.2a2.2 2.2 0 0 0-.1-.2z"/></g><g class="cls-21"><path class="cls-22" d="M89.3 78.2a.8.8 0 0 0-.2.1l.2.2.2-.1a2 2 0 0 0-.2-.2z"/><path class="cls-23" d="M89.2 78.2a.8.8 0 0 0-.2.1l.2.3.1-.2a.4.4 0 0 0 0-.2z"/><path class="cls-24" d="M89.3 78.2a.4.4 0 0 1 0 .2l-.1.1.2-.1a2 2 0 0 0-.1-.2z"/></g><g class="cls-21"><path class="cls-22" d="M91.6 82.8a1 1 0 0 0-.2.1l.2.3.2-.2a2.2 2.2 0 0 0-.2-.2z"/><path class="cls-23" d="M91.5 82.8a1 1 0 0 0-.2.1l.2.3.2-.1a.5.5 0 0 0-.2-.3z"/><path class="cls-24" d="M91.6 82.8a.5.5 0 0 1 0 .2l-.1.2.2-.2a2.2 2.2 0 0 0 0-.2z"/></g><g class="cls-21"><path class="cls-22" d="M91 86.6a1 1 0 0 0-.2.2l.1.2.3-.1a2.2 2.2 0 0 0-.2-.3z"/><path class="cls-23" d="M91 86.7a1 1 0 0 0-.3.1l.2.3s0-.2.2-.2a.5.5 0 0 0-.2-.3z"/><path class="cls-24" d="M91 86.6a.5.5 0 0 1 0 .3l-.1.1.2-.1a2.2 2.2 0 0 0-.1-.3z"/></g><g class="cls-21"><path class="cls-22" d="M87.4 85.8v.2l.1-.1a1.3 1.3 0 0 0 0-.1z"/><path class="cls-23" d="M87.4 85.8a.5.5 0 0 0-.2 0l.1.2c0 .1 0 0 .1 0a.3.3 0 0 0 0-.2z"/><path class="cls-24" d="M87.4 85.8a.3.3 0 0 1 0 .1h.1a1.3 1.3 0 0 0 0-.1z"/></g><g class="cls-21"><path class="cls-22" d="M89.7 84.4a.5.5 0 0 0-.1.1v.1h.2a1.3 1.3 0 0 0-.1-.2z"/><path class="cls-23" d="M89.7 84.5a.5.5 0 0 0-.2 0l.1.2.1-.1a.3.3 0 0 0 0-.1z"/><path class="cls-24" d="M89.7 84.4a.3.3 0 0 1 0 .2h.1a1.3 1.3 0 0 0-.1-.2z"/></g><g class="cls-21"><path class="cls-22" d="M89.1 89.5a.8.8 0 0 0-.2.1l.1.2.3-.1a1.9 1.9 0 0 0-.2-.2z"/><path class="cls-23" d="M89 89.5a.8.8 0 0 0-.2.1l.2.2h.1a.4.4 0 0 0-.1-.3z"/><path class="cls-24" d="M89 89.5a.4.4 0 0 1 .1.2l-.1.1.2-.1a1.9 1.9 0 0 0-.1-.2z"/></g><g class="cls-21"><path class="cls-22" d="M85.9 88.4a.9.9 0 0 0-.2.1l.1.3.3-.2a2.1 2.1 0 0 0-.2-.2z"/><path class="cls-23" d="M85.8 88.4a.9.9 0 0 0-.2.1l.1.3c.1.1.1-.1.2-.1a.5.5 0 0 0-.1-.3z"/><path class="cls-24" d="M85.9 88.4h-.1a.5.5 0 0 1 .1.2s0 .2-.2.2l.3-.2a2.1 2.1 0 0 0-.1-.2z"/></g><g class="cls-21"><path class="cls-22" d="M83.7 89.7a1 1 0 0 0-.2.1l.1.3.3-.2a2.2 2.2 0 0 0-.2-.2z"/><path class="cls-23" d="M83.6 89.7a1 1 0 0 0-.2.1l.1.3.2-.2a.5.5 0 0 0-.1-.2z"/><path class="cls-24" d="M83.7 89.7h-.1a.5.5 0 0 1 .1.2l-.2.1.3-.1a2.2 2.2 0 0 0-.1-.3z"/></g><g class="cls-21"><path class="cls-22" d="M85.9 90.7a.6.6 0 0 0-.2 0l.1.2h.2a1.4 1.4 0 0 0-.1-.2z"/><path class="cls-23" d="M85.8 90.7a.6.6 0 0 0-.1 0v.2h.2a.3.3 0 0 0 0-.2z"/><path class="cls-24" d="M85.9 90.7a.3.3 0 0 1 0 .1v.1a1.4 1.4 0 0 0 0-.3z"/></g><g class="cls-21"><path class="cls-22" d="M88.4 87.6a.6.6 0 0 0-.1.1v.2l.2-.1a1.4 1.4 0 0 0-.1-.2z"/><path class="cls-23" d="M88.3 87.6a.6.6 0 0 0-.1.1v.2l.2-.1a.3.3 0 0 0 0-.2z"/><path class="cls-24" d="M88.4 87.6a.3.3 0 0 1 0 .2h.1a1.4 1.4 0 0 0-.1-.2z"/></g><g class="cls-21"><path class="cls-22" d="M81.8 89.7a.6.6 0 0 0-.1 0v.2h.2a1.4 1.4 0 0 0-.1-.2z"/><path class="cls-23" d="M81.7 89.7v.2h.1a.3.3 0 0 0 0-.2z"/><path class="cls-24" d="M81.8 89.7a.3.3 0 0 1 0 .1v.1h.1a1.4 1.4 0 0 0-.1-.2z"/></g><g class="cls-21"><path class="cls-22" d="M81.6 87.8a1 1 0 0 0-.2.2l.2.2.2-.2a2.2 2.2 0 0 0-.2-.2z"/><path class="cls-23" d="M81.5 87.8a1 1 0 0 0-.2.2l.2.2.2-.1a.5.5 0 0 0-.2-.3z"/><path class="cls-24" d="M81.6 87.8a.5.5 0 0 1 0 .3l-.1.1.2-.1a2.2 2.2 0 0 0 0-.3z"/></g><g class="cls-21"><path class="cls-22" d="M82 86.5a1 1 0 0 0-.3.1l.1.3.3-.2a2.2 2.2 0 0 0-.2-.2z"/><path class="cls-23" d="M81.8 86.5a1 1 0 0 0-.2.2l.2.2.2-.1a.5.5 0 0 0-.2-.3z"/><path class="cls-24" d="M81.9 86.5a.5.5 0 0 1 0 .2l-.1.2.2-.2a2.2 2.2 0 0 0-.1-.2z"/></g><g class="cls-21"><path class="cls-22" d="M77.6 85.6a1 1 0 0 0-.2.1l.2.3.2-.2a2.2 2.2 0 0 0-.2-.2z"/><path class="cls-23" d="M77.5 85.6a1 1 0 0 0-.2.1l.2.3.2-.2a.5.5 0 0 0-.2-.2z"/><path class="cls-24" d="M77.6 85.5a.5.5 0 0 1 0 .3l-.1.1.2-.1a2.2 2.2 0 0 0-.1-.3z"/></g><g class="cls-21"><path class="cls-22" d="M79.3 87.9a1 1 0 0 0-.3.1l.1.2.3-.1a2.2 2.2 0 0 0-.2-.2z"/><path class="cls-23" d="M79.2 87.9a1 1 0 0 0-.2.1v.3l.3-.2a.5.5 0 0 0-.1-.2z"/><path class="cls-24" d="M79.2 87.8a.5.5 0 0 1 0 .3l-.1.1.2-.1a2.2 2.2 0 0 0 0-.3z"/></g><g class="cls-21"><path class="cls-22" d="M79 89.6a1 1 0 0 0-.2.2l.1.2.3-.1a2.2 2.2 0 0 0-.2-.3z"/><path class="cls-23" d="M78.9 89.7a1 1 0 0 0-.2.1l.1.3.2-.2a.5.5 0 0 0-.1-.2z"/><path class="cls-24" d="M79 89.6a.5.5 0 0 1 0 .3l-.1.1.2-.1a2.2 2.2 0 0 0-.1-.3z"/></g><path class="cls-18" d="M142 59.2c-1.6 1.6-1 4-.5 5.2a3.8 3.8 0 0 0 .6 1c-1.7-2.9-.7-7 3-7.7a4.7 4.7 0 0 0-3 1.5z"/><path class="cls-19" d="M143.8 62.7a3.2 3.2 0 0 1-.2-1.8.9.9 0 0 0-.2.3c-.4 2 1.3 3.7 3.2 3.8a4.3 4.3 0 0 1-1-.4 3.5 3.5 0 0 1-1.8-2zm5.5 6.2l1.8-.3c2.4-.4 4.6-2.9 5.3-4.6l.1-.4a9.6 9.6 0 0 1-7.2 5.3zm1.3-7.2c-.7-.2-.9-.7-1-1.4a2.6 2.6 0 0 0-.2-.8l-.1-.2a6 6 0 0 1 0 1 1.7 1.7 0 0 0 2 1.7 3.4 3.4 0 0 0 1-.4 2 2 0 0 1-1.7.1zm1.8-3.7a6.3 6.3 0 0 1 1 1.9 1.6 1.6 0 0 1 0 .2.8.8 0 0 0 0-.5 3.4 3.4 0 0 0-2-2.6 2.5 2.5 0 0 1 1 1zm-5.6 3.4a2.1 2.1 0 0 0 .6.9 1.7 1.7 0 0 1 .6.6 1.2 1.2 0 0 1 0 .4.7.7 0 0 0-.1-.8c-.8-.7-1-1.8-1.8-2.4a1.9 1.9 0 0 0-.7-.2 2.7 2.7 0 0 1 1.4 1.5zm3.6 1.6a1.9 1.9 0 0 1 1 .3l.2.1c0-.5-.7-.6-1.2-.5z"/><path class="cls-18" d="M151 54.2a3.6 3.6 0 0 0-2.6.8 5.1 5.1 0 0 0-1 1.3 6 6 0 0 1 3.7-2.1z"/><path class="cls-19" d="M154.3 55.7a12.4 12.4 0 0 1 2.4 7.3 7.8 7.8 0 0 0-.8-5.4 6.9 6.9 0 0 0-1.6-1.9z"/><path class="cls-18" d="M152.7 62.4a4 4 0 0 1 2.4-1.7 2.7 2.7 0 0 0-2.4 1.7zm.4 1.2a34.6 34.6 0 0 1-3.4 2.3c1.8-.5 3.2-2 5-2.2a1.6 1.6 0 0 0-1.6 0z"/><path class="cls-20" d="M154.3 55.7a8.8 8.8 0 0 0-2.5-1.4 3 3 0 0 0-.7-.1 6 6 0 0 0-3.7 2 14.4 14.4 0 0 0-.7 1.6 10.8 10.8 0 0 0-1.5 0c-3.7.7-4.7 4.7-3.1 7.6a9.4 9.4 0 0 0 2.2 2 8 8 0 0 1 .7.4 3.3 3.3 0 0 0 .8.2l.1.6c.1 1 1 1 1.8.6a3 3 0 0 0 .3-.3 5.2 5.2 0 0 0 1.4 0 9.6 9.6 0 0 0 7.2-5.2 5.8 5.8 0 0 0 .1-.6 12.4 12.4 0 0 0-2.4-7.4zm-3-.9a4.7 4.7 0 0 0-3.3 1.7c.8-1.1 2-2.1 3.3-1.7zm-2 5.5a6 6 0 0 0 0-1 1.6 1.6 0 0 1-.6-.8 1.6 1.6 0 0 1 1-1.4 1.7 1.7 0 0 1 1.6-.2 3.4 3.4 0 0 1 2 2.6.8.8 0 0 1 0 .5c0 .5-.2.8-.7 1.2a3 3 0 0 1-.3.3 3.4 3.4 0 0 1-1.1.4 1.7 1.7 0 0 1-2-1.6zm.2 3.4a1.5 1.5 0 0 1 .1-.4.8.8 0 0 1 .8-.4c.5-.1 1 0 1.2.5a.3.3 0 0 1 .1.4c0 .3-.8.7-1 1s-.9.6-1.3.6c-.2.1-.3.2-.4 0-.6-.5.2-1.1.6-1.7zm-6.1-2.5a.9.9 0 0 1 .2-.3 1.6 1.6 0 0 1 1.5-1h.2a1.9 1.9 0 0 1 .7.2c.8.6 1 1.7 1.8 2.4a.7.7 0 0 1 .2.8 2.7 2.7 0 0 1-.5 1.6.9.9 0 0 1-1 .1c-1.8 0-3.5-1.9-3-3.8zm3 5.5c.5-.6 1.2-1.3 1.9-1.2a3.2 3.2 0 0 0-1.8 1.2zm3.2-.8a34.6 34.6 0 0 0 3.5-2.2 1.6 1.6 0 0 1 1.6 0c-1.8.1-3.2 1.8-5 2.2zm3-3.5a2.7 2.7 0 0 1 2.4-1.7 4 4 0 0 0-2.3 1.7z"/><path class="cls-18" d="M146.5 66.7a3.2 3.2 0 0 1 1.8-1.2c-.7-.1-1.3.6-1.8 1.2zm4.8-11.9c-1.3-.4-2.5.6-3.3 1.7a4.7 4.7 0 0 1 3.3-1.7z"/><path class="cls-19" d="M149 65.1c-.1-.2 0-.4.2-.6a4.2 4.2 0 0 0 .3-.6 1 1 0 0 0 0-.2c-.3.6-1.1 1.2-.6 1.7h.5a.4.4 0 0 1-.4-.3zm-3.1 3.5c0-.2-.2-.4-.1-.6a3.3 3.3 0 0 1-.8-.3 6.5 6.5 0 0 1 .6.5 1.2 1.2 0 0 0 1.1 1.6 1.3 1.3 0 0 0 1-.6c-.8.3-1.7.3-1.8-.6z"/><g class="cls-21"><path class="cls-22" d="M141.3 61.2a.9.9 0 0 0-.1.2l.2.2.2-.2a2 2 0 0 0-.3-.2z"/><path class="cls-23" d="M141.3 61.3a.9.9 0 0 0-.2.2l.3.2v-.2a.5.5 0 0 0-.2-.2z"/><path class="cls-24" d="M141.3 61.2v.1a.5.5 0 0 1 .2.2v.2-.3a2 2 0 0 0-.2-.2z"/></g><g class="cls-21"><path class="cls-22" d="M142.8 63.5a.9.9 0 0 0 0 .2l.1.1.2-.2a2 2 0 0 0-.3-.1z"/><path class="cls-23" d="M142.8 63.5a.9.9 0 0 0-.2.2l.3.2v-.2a.5.5 0 0 0-.1-.2z"/><path class="cls-24" d="M142.8 63.5a.5.5 0 0 1 .2.2v.2-.2a2 2 0 0 0-.2-.2z"/></g><g class="cls-21"><path class="cls-22" d="M142.5 59a.7.7 0 0 0 0 .2h.1l.2-.1a1.7 1.7 0 0 0-.3-.1z"/><path class="cls-23" d="M142.5 59a.7.7 0 0 0-.1.2l.2.1v-.2a.4.4 0 0 0-.1-.1z"/><path class="cls-24" d="M142.5 59a.4.4 0 0 1 .2.1v.2-.2a1.7 1.7 0 0 0-.2-.1z"/></g><g class="cls-21"><path class="cls-22" d="M149.3 62a.9.9 0 0 0-.2.3l.2.1.2-.2a2 2 0 0 0-.2-.1z"/><path class="cls-23" d="M149.2 62.1a.9.9 0 0 0-.1.2l.2.2v-.2a.5.5 0 0 0-.1-.2z"/><path class="cls-24" d="M149.2 62v.1a.5.5 0 0 1 .3.2l-.2.2.2-.2a2 2 0 0 0-.3-.2z"/></g><g class="cls-21"><path class="cls-22" d="M148.3 59.1a.7.7 0 0 0-.1.2h.1l.1-.1a1.6 1.6 0 0 0-.2 0z"/><path class="cls-23" d="M148.2 59.2a.7.7 0 0 0 0 .1v.1l.2-.1a.3.3 0 0 0-.2-.1z"/><path class="cls-24" d="M148.2 59.1a.3.3 0 0 1 .2.1v.2-.2a1.6 1.6 0 0 0-.2 0z"/></g><g class="cls-21"><path class="cls-22" d="M147 60.8a.7.7 0 0 0-.2.2h.2l.1-.1a1.7 1.7 0 0 0-.2-.1z"/><path class="cls-23" d="M146.8 60.9a.7.7 0 0 0 0 .1l.1.2.1-.2a.4.4 0 0 0-.2-.1z"/><path class="cls-24" d="M146.9 60.8a.4.4 0 0 1 .1.2v.2-.2a1.7 1.7 0 0 0-.1-.2z"/></g><g class="cls-21"><path class="cls-22" d="M145.6 58.6a.9.9 0 0 0-.1.2l.2.1.1-.2a2 2 0 0 0-.2-.1z"/><path class="cls-23" d="M145.5 58.6a.9.9 0 0 0-.1.2l.2.2c.1.1 0-.1.1-.2a.5.5 0 0 0-.2-.2z"/><path class="cls-24" d="M145.6 58.6a.5.5 0 0 1 .2.2l-.1.2.1-.2a2 2 0 0 0-.2-.2z"/></g><g class="cls-21"><path class="cls-22" d="M148.7 56a.5.5 0 0 0 0 .2v.1l.2-.1a1.2 1.2 0 0 0-.2-.1z"/><path class="cls-23" d="M148.7 56.1a.5.5 0 0 0-.1.1l.1.1a.3.3 0 0 0 0-.2z"/><path class="cls-24" d="M148.7 56a.3.3 0 0 1 .1.2v.1-.1a1.2 1.2 0 0 0-.1-.1z"/></g><g class="cls-21"><path class="cls-22" d="M152.8 55.5a.9.9 0 0 0-.1.3l.2.1.1-.2a2 2 0 0 0-.2-.2z"/><path class="cls-23" d="M152.7 55.6a.9.9 0 0 0-.1.2l.2.2.1-.2a.5.5 0 0 0-.2-.2z"/><path class="cls-24" d="M152.8 55.5v.1a.5.5 0 0 1 .2.2l-.1.2.1-.3a2 2 0 0 0-.3-.2z"/></g><g class="cls-21"><path class="cls-22" d="M150.8 55a.8.8 0 0 0-.1.2l.2.1.1-.2a1.9 1.9 0 0 0-.2-.1z"/><path class="cls-23" d="M150.7 55a.8.8 0 0 0 0 .3l.1.1.1-.2a.4.4 0 0 0-.2-.1z"/><path class="cls-24" d="M150.8 55a.4.4 0 0 1 .1.2v.2-.2a1.9 1.9 0 0 0-.1-.2z"/></g><g class="cls-21"><path class="cls-22" d="M154.6 58a.9.9 0 0 0-.1.2l.2.2.1-.3a2 2 0 0 0-.2-.1z"/><path class="cls-23" d="M154.5 58a.9.9 0 0 0-.1.3l.2.2c.1.1 0-.2.1-.3a.5.5 0 0 0-.2-.1z"/><path class="cls-24" d="M154.6 58a.5.5 0 0 1 .2.2l-.1.2.1-.2a2 2 0 0 0-.2-.2z"/></g><g class="cls-21"><path class="cls-22" d="M155.6 61.5a.9.9 0 0 0-.1.3l.2.1.2-.2a2 2 0 0 0-.3-.2z"/><path class="cls-23" d="M155.5 61.6a.9.9 0 0 0 0 .2l.1.2.1-.2a.5.5 0 0 0-.2-.2z"/><path class="cls-24" d="M155.6 61.5v.1a.5.5 0 0 1 .2.2l-.1.2.1-.3a2 2 0 0 0-.2-.2z"/></g><g class="cls-21"><path class="cls-22" d="M152.2 62.3v.2l.1-.2a1.2 1.2 0 0 0-.1 0z"/><path class="cls-23" d="M152.2 62.3a.5.5 0 0 0-.1.1l.1.1v-.1a.3.3 0 0 0 0-.1z"/><path class="cls-24" d="M152.2 62.3a.3.3 0 0 1 .1 0v.2-.2a1.2 1.2 0 0 0-.1 0z"/></g><g class="cls-21"><path class="cls-22" d="M153.6 60.2a.5.5 0 0 0 0 .1v.1l.2-.1a1.2 1.2 0 0 0-.2 0z"/><path class="cls-23" d="M153.6 60.2a.5.5 0 0 0-.1.2h.1a.3.3 0 0 0 0-.2z"/><path class="cls-24" d="M153.6 60.2a.3.3 0 0 1 .1.1v.1-.1a1.2 1.2 0 0 0-.1 0z"/></g><g class="cls-21"><path class="cls-22" d="M155.1 64.8a.7.7 0 0 0 0 .1l.1.2.1-.2a1.7 1.7 0 0 0-.2-.1z"/><path class="cls-23" d="M155 64.8a.7.7 0 0 0 0 .2l.2.1V65a.4.4 0 0 0-.1 0z"/><path class="cls-24" d="M155 64.8a.4.4 0 0 1 .3 0l-.1.3.1-.2a1.7 1.7 0 0 0-.2-.1z"/></g><g class="cls-21"><path class="cls-22" d="M152 65.1a.8.8 0 0 0-.2.2l.2.1.2-.2a2 2 0 0 0-.3-.1z"/><path class="cls-23" d="M151.9 65.2a.8.8 0 0 0-.1.2l.2.1v-.2a.5.5 0 0 0-.1-.1z"/><path class="cls-24" d="M152 65.1a.5.5 0 0 1 .1.2v.2-.2a2 2 0 0 0-.2-.2z"/></g><g class="cls-21"><path class="cls-22" d="M150.6 67a.9.9 0 0 0-.2.3l.2.1.2-.2a2 2 0 0 0-.3-.1z"/><path class="cls-23" d="M150.5 67.1a.9.9 0 0 0-.1.2l.2.2v-.2a.5.5 0 0 0-.1-.2z"/><path class="cls-24" d="M150.5 67v.1a.5.5 0 0 1 .2.2v.2-.2a2 2 0 0 0-.2-.2z"/></g><g class="cls-21"><path class="cls-22" d="M152.8 67a.6.6 0 0 0 0 .1v.1l.2-.1a1.4 1.4 0 0 0-.2-.1z"/><path class="cls-23" d="M152.8 67a.6.6 0 0 0-.1.2l.1.1.1-.1a.3.3 0 0 0-.1-.1z"/><path class="cls-24" d="M152.8 67a.3.3 0 0 1 .1.1v.1-.1a1.4 1.4 0 0 0-.1-.1z"/></g><g class="cls-21"><path class="cls-22" d="M153.8 63.5a.6.6 0 0 0-.1 0l.1.2.1-.2a1.4 1.4 0 0 0-.2 0z"/><path class="cls-23" d="M153.7 63.5a.6.6 0 0 0 0 .1v.1l.2-.1a.3.3 0 0 0-.2-.1z"/><path class="cls-24" d="M153.7 63.5a.3.3 0 0 1 .2 0v.2-.2a1.4 1.4 0 0 0-.2 0z"/></g><g class="cls-21"><path class="cls-22" d="M149 67.8a.6.6 0 0 0 0 .1v.1l.2-.1a1.4 1.4 0 0 0-.2 0z"/><path class="cls-23" d="M149 67.9a.6.6 0 0 0-.2 0l.2.2V68a.3.3 0 0 0 0-.1z"/><path class="cls-24" d="M149 67.8a.3.3 0 0 1 0 .1v.1l.1-.1a1.4 1.4 0 0 0-.2 0z"/></g><g class="cls-21"><path class="cls-22" d="M148 66.3a.9.9 0 0 0 0 .2l.2.2.1-.3a2 2 0 0 0-.2 0z"/><path class="cls-23" d="M148 66.4a.9.9 0 0 0-.1.2l.2.1c.1.1 0-.1.1-.2a.5.5 0 0 0-.2-.1z"/><path class="cls-24" d="M148 66.3a.5.5 0 0 1 .2.2v.2-.2a2 2 0 0 0-.2-.2z"/></g><g class="cls-21"><path class="cls-22" d="M147.8 65a.9.9 0 0 0-.1.3l.2.1.1-.2a2 2 0 0 0-.2-.1z"/><path class="cls-23" d="M147.7 65.1a.9.9 0 0 0-.1.2l.2.2.1-.2a.5.5 0 0 0-.2-.2z"/><path class="cls-24" d="M147.8 65v.1a.5.5 0 0 1 .2.2l-.1.2.1-.2a2 2 0 0 0-.2-.2z"/></g><g class="cls-21"><path class="cls-22" d="M143.8 66a.9.9 0 0 0-.2.2l.2.2.2-.3a2 2 0 0 0-.3-.1z"/><path class="cls-23" d="M143.7 66a.9.9 0 0 0-.1.2l.2.2v-.2a.5.5 0 0 0-.1-.2z"/><path class="cls-24" d="M143.7 66a.5.5 0 0 1 .2.2v.2-.2a2 2 0 0 0-.2-.2z"/></g><g class="cls-21"><path class="cls-22" d="M146 67.3a.9.9 0 0 0 0 .2l.1.2.2-.3a2 2 0 0 0-.3-.1z"/><path class="cls-23" d="M146 67.4a.9.9 0 0 0-.1.2l.2.1c.1.1 0-.1.1-.2a.5.5 0 0 0-.2-.1z"/><path class="cls-24" d="M146 67.3a.5.5 0 0 1 .2.2v.2-.2a2 2 0 0 0-.2-.2z"/></g><g class="cls-21"><path class="cls-22" d="M146.6 69a.9.9 0 0 0-.2.1l.2.2.2-.3a2 2 0 0 0-.3 0z"/><path class="cls-23" d="M146.5 69a.9.9 0 0 0-.1.2l.2.2v-.2a.5.5 0 0 0-.1-.2z"/><path class="cls-24" d="M146.5 69a.5.5 0 0 1 .2.1v.3-.3a2 2 0 0 0-.2-.2z"/></g></g></g></svg>