<svg xmlns="http://www.w3.org/2000/svg" xmlns:xlink="http://www.w3.org/1999/xlink" viewBox="0 0 235.18 113.72"><defs><style>.cls-1{isolation:isolate;}.cls-2{fill:#353535;}.cls-3{fill:#111;}.cls-4{fill:#232323;}.cls-5{fill:#443e39;}.cls-6{fill:#f9e3cf;}.cls-7{fill:#d3bba7;}.cls-8{fill:#6d0f0f;}.cls-9{fill:#470b0b;}.cls-10{fill:#fff;}.cls-11{fill:#302012;}.cls-12{fill:#e5e5e5;}.cls-13{fill:#7becff;}.cls-13,.cls-14{opacity:0.15;}.cls-14{fill:#4e979b;}.cls-15{opacity:0.5;mix-blend-mode:multiply;fill:url(#linear-gradient);}.cls-16{fill:#f3a712;}.cls-17{fill:#ba1200;}</style><linearGradient id="linear-gradient" x1="196.3" y1="52.71" x2="196.3" y2="175.26" gradientUnits="userSpaceOnUse"><stop offset="0" stop-color="#fff"/><stop offset="0.12" stop-color="#ded8d3"/><stop offset="0.13" stop-color="#dbd4cf"/><stop offset="0.3" stop-color="#b3a599"/><stop offset="0.46" stop-color="#927d6c"/><stop offset="0.62" stop-color="#785f49"/><stop offset="0.76" stop-color="#65492f"/><stop offset="0.89" stop-color="#5a3c20"/><stop offset="1" stop-color="#56371b"/></linearGradient></defs><title>newman</title><g class="cls-1"><g id="Vector"><path class="cls-2" d="M224.86,9a30.11,30.11,0,0,0-14-7.28C200-.66,186.42.29,176.41,5.43a33.22,33.22,0,0,0-8.65,6.46C184.44,1.41,207.4-.6,224.86,9Z"/><path class="cls-3" d="M224.48,21.34c-18.15,5.3-37.84,2.88-56.63,1.85a105.49,105.49,0,0,1-.1,16.24c5.79-.4,11.29-2,17.09-2,12,.67,23.67-.33,35.67-1.33a21.75,21.75,0,0,1,4.56-.51A37.62,37.62,0,0,1,224.48,21.34Z"/><path class="cls-3" d="M233.47,42.79a13.82,13.82,0,0,1-6.1,4.07,22,22,0,0,0,1.51,3.53A16.94,16.94,0,0,0,233.47,42.79Z"/><path class="cls-3" d="M159.86,45.82a26.33,26.33,0,0,0,4.73,7.51l.65,0c.22-1.49.94-3,1.21-4.48A15,15,0,0,1,159.86,45.82Z"/><path class="cls-4" d="M233.46,23.48A30.27,30.27,0,0,0,224.86,9C207.4-.6,184.44,1.41,167.75,11.9c-8.68,9-12.6,22.54-7.9,33.92a15,15,0,0,0,6.6,3c-.27,1.49-1,3-1.21,4.48l62.22-1.8a13.14,13.14,0,0,0,1.42-1.13,22,22,0,0,1-1.51-3.53,13.82,13.82,0,0,0,6.1-4.07C235.42,36.56,234.94,29,233.46,23.48ZM220.51,36.14c-12,1-23.67,2-35.67,1.33-5.81,0-11.31,1.56-17.09,2a105.49,105.49,0,0,0,.1-16.24c18.79,1,38.48,3.45,56.63-1.85a37.62,37.62,0,0,0,.6,14.29A21.75,21.75,0,0,0,220.51,36.14Z"/><path class="cls-5" d="M234.09,29.5a40.85,40.85,0,0,1,.09,7.78,26.34,26.34,0,0,1-1.73,7.56,15.42,15.42,0,0,1-3.18,5,10.12,10.12,0,0,1-1.3,1.2l-.49.42.52-.38A10,10,0,0,0,229.36,50a15.35,15.35,0,0,0,3.5-5,25.65,25.65,0,0,0,2.08-7.66,36.08,36.08,0,0,0,.05-8,35.91,35.91,0,0,0-1.35-6.91,32.09,32.09,0,0,0-2.1-5.32,30.78,30.78,0,0,0-3.78-5.73,29.9,29.9,0,0,0-13.28-9.11,42.33,42.33,0,0,0-8.7-1.88A58.43,58.43,0,0,0,196.66.1a51.66,51.66,0,0,0-17.58,3.62,34.23,34.23,0,0,0-7.39,4.12,35.05,35.05,0,0,0-5.68,5.3,36.22,36.22,0,0,0-6.41,10.75,33.91,33.91,0,0,0-1.82,6.81,28.94,28.94,0,0,0-.13,8,25.77,25.77,0,0,0,2.18,7.63A25.14,25.14,0,0,0,163,51.49c.44.62.89,1,1.15,1.36l.43.48-.4-.51c-.24-.34-.66-.78-1.07-1.42a25.83,25.83,0,0,1-2.88-5.28,26.47,26.47,0,0,1-1.84-7.54,31.56,31.56,0,0,1,.26-7.74,33,33,0,0,1,1.77-6.63,35.32,35.32,0,0,1,6.26-10.48,34.15,34.15,0,0,1,5.54-5.17,33.32,33.32,0,0,1,7.2-4A50.76,50.76,0,0,1,196.7,1a57.52,57.52,0,0,1,9,.36,41.45,41.45,0,0,1,8.52,1.84A29,29,0,0,1,227.06,12a29.88,29.88,0,0,1,3.67,5.56,31.18,31.18,0,0,1,2,5.17A35,35,0,0,1,234.09,29.5Z"/><path class="cls-6" d="M232.06,56.69a12.43,12.43,0,0,1,.51-2.39c.67-1.92,2.5-4.37.92-6.67a2.06,2.06,0,0,0-1.11-.86A24,24,0,0,0,232.06,56.69Z"/><path class="cls-7" d="M232.38,46.77c-1.47-.43-3.1,1.2-3.1,1.2l1.17,19.17c3.21.63,3.29-1.92,2.17-4.17-.78-1.55-.82-4.17-.55-6.28A24,24,0,0,1,232.38,46.77Z"/><path class="cls-5" d="M232.52,56a11.68,11.68,0,0,1,.34-1.48c.17-.55.45-1.16.73-1.83a9.52,9.52,0,0,0,.68-2.19,3.83,3.83,0,0,0-.31-2.34A2.23,2.23,0,0,0,230.61,47a5.39,5.39,0,0,0-1,.69c-.22.19-.33.31-.33.31s.12-.11.34-.28a5.38,5.38,0,0,1,1-.62,2.38,2.38,0,0,1,1.65-.2,2.26,2.26,0,0,1,1.35,1.4c.6,1.34,0,2.91-.59,4.17a20.19,20.19,0,0,0-.82,1.86,10.09,10.09,0,0,0-.39,1.56,16.83,16.83,0,0,0-.21,3.62,11.7,11.7,0,0,0,.32,2.27,13.19,13.19,0,0,0,.86,2.14,4,4,0,0,1,.29,2,1.45,1.45,0,0,1-1,1.2,3.88,3.88,0,0,1-1.62.06,3.88,3.88,0,0,0,1.65,0,1.61,1.61,0,0,0,1.22-1.25,4.19,4.19,0,0,0-.18-2.16,13.36,13.36,0,0,1-.73-2.13,11.66,11.66,0,0,1-.2-2.18A19.86,19.86,0,0,1,232.52,56Z"/><path class="cls-6" d="M161.29,50.42a4.36,4.36,0,0,0-1.44.85c-3.39,3.36,1.22,7.93,2,11.58v0A31.76,31.76,0,0,0,161.29,50.42Z"/><path class="cls-7" d="M161.29,50.42a31.76,31.76,0,0,1,.52,12.46,7.55,7.55,0,0,1,.07,3.28c-.24,1-.93,1.92-1,3-.1,2.1,1.57,3.3,3.53,3.28l1.34-22A6.82,6.82,0,0,0,161.29,50.42Z"/><path class="cls-5" d="M160.26,59.82a13.41,13.41,0,0,1,1.37,3.67,7,7,0,0,1,.07,2.43,21.94,21.94,0,0,1-.82,2.41,3.3,3.3,0,0,0,.24,2.43,3,3,0,0,0,1.49,1.34,3.85,3.85,0,0,0,1.33.32,4.33,4.33,0,0,0,.5,0,4.38,4.38,0,0,1-.5,0,3.81,3.81,0,0,1-1.28-.38,2.87,2.87,0,0,1-1.34-1.34,3,3,0,0,1-.1-2.23,20.39,20.39,0,0,0,.95-2.42,7.33,7.33,0,0,0,0-2.6,12.56,12.56,0,0,0-1.33-3.87,31.3,31.3,0,0,1-1.65-3.61,5.18,5.18,0,0,1-.31-2.37A4,4,0,0,1,160,51.39a5.6,5.6,0,0,1,4-1.26,7.49,7.49,0,0,1,1.34.18l.49.11-.48-.14A7.49,7.49,0,0,0,164,50a5.76,5.76,0,0,0-4.22,1.13,4.36,4.36,0,0,0-1.29,2.32,5.61,5.61,0,0,0,.22,2.61A24.93,24.93,0,0,0,160.26,59.82Z"/><path class="cls-7" d="M215.09,100.76c-16.06,9.81-36.88,6.09-46.87-9,3.86,8,10.18,14,19.88,15.94,18.28,3.73,34.93-5.72,40.82-22A48.14,48.14,0,0,1,215.09,100.76Z"/><path class="cls-7" d="M177.09,62.76c3.94,3,10.77,2,11.94-3.74-4.6-2.82-10.56-1.64-15.9-3.8C173.32,58.06,175.19,60.86,177.09,62.76Z"/><path class="cls-7" d="M191.64,98.92a9,9,0,0,0,13.92-1.37C200.92,97.53,196.28,99.21,191.64,98.92Z"/><path class="cls-7" d="M189.69,76.5c1.37,4.45,6.7,5.86,10.82,3.64a6.88,6.88,0,0,0,3.35-4C199.29,77.51,194.5,76.67,189.69,76.5Z"/><path class="cls-7" d="M172.83,27.53c12.33,12.59,33.95,10,45.77-2.11C203.16,25.07,188,27.9,172.83,27.53Z"/><path class="cls-7" d="M205.65,66.29c4,4.49,11.27,5.63,15.2.18a17,17,0,0,0,2.6-7.52,68,68,0,0,1-2.93,6.19C216.82,70.37,210.3,69.35,205.65,66.29Z"/><path class="cls-7" d="M207,68c.88,1.28,1.25,2.82,2.49,3.77l0-.06a12.55,12.55,0,0,0,4.13,4.06C211.57,73.19,209.29,70.6,207,68Z"/><path class="cls-7" d="M181.41,76.73a4.8,4.8,0,0,0,1.78-1.6,18.46,18.46,0,0,0,3.24-3.87C184.55,72.57,183.17,75,181.41,76.73Z"/><path class="cls-6" d="M220.44,23.33l-49.68,1c-6.75,16.5-11.88,48-2.54,67.4,10,15.12,30.81,18.84,46.87,9a48.14,48.14,0,0,0,13.83-15.05A38,38,0,0,0,231.11,75C232.14,58,229.11,38.15,220.44,23.33Zm-1.84,2.09c-11.83,12.14-33.44,14.7-45.77,2.11C188,27.9,203.16,25.07,218.6,25.42Zm.9,27.8a9.29,9.29,0,0,1-1.32,4.59c-3.65,5.31-10.6,4.34-14.28-.27l-.07.13c-.07-.54-.51-1.08-.62-1.62,1.43.84,3.21.38,4.25,1.52C211.45,56,215.2,54.19,219.5,53.22Zm-27.75,3.5a2.13,2.13,0,0,0-.13-.63c3-1.59,6.59-1.26,9.88-.27v.54A13.89,13.89,0,0,0,191.76,56.71Zm-8.57,18.42a4.8,4.8,0,0,1-1.78,1.6c1.76-1.78,3.14-4.16,5-5.48A18.46,18.46,0,0,1,183.19,75.13Zm-4.68-3a8.14,8.14,0,0,1-6-5.05c3.48,4.39,10.52,3.88,15,.6C185.32,70.38,182.46,72.64,178.51,72.14Zm-1.42-9.38c-1.9-1.9-3.77-4.69-4-7.54,5.34,2.15,11.3,1,15.9,3.8C187.87,64.78,181,65.71,177.09,62.76Zm12.6,13.74c4.81.17,9.6,1,14.17-.36a6.88,6.88,0,0,1-3.35,4C196.39,82.36,191.06,81,189.69,76.5Zm2,22.42c4.64.29,9.28-1.39,13.92-1.37A9,9,0,0,1,191.64,98.92Zm17.86-27.2,0,.06c-1.24-1-1.61-2.48-2.49-3.77,2.3,2.59,4.58,5.18,6.64,7.76A12.55,12.55,0,0,1,209.5,71.72Zm11.34-5.25c-3.93,5.44-11.15,4.3-15.2-.18,4.65,3.06,11.17,4.08,14.86-1.15A68,68,0,0,0,223.44,59,17,17,0,0,1,220.84,66.47Z"/><path class="cls-7" d="M191.63,56.08a2.13,2.13,0,0,1,.13.63,13.89,13.89,0,0,1,9.76-.36v-.54C198.22,54.82,194.61,54.49,191.63,56.08Z"/><path class="cls-7" d="M187.48,67.69c-4.46,3.28-11.5,3.79-15-.6a8.14,8.14,0,0,0,6,5.05C182.46,72.64,185.32,70.38,187.48,67.69Z"/><path class="cls-7" d="M207.45,57.57c-1-1.13-2.82-.67-4.25-1.52.12.54.55,1.08.62,1.62l.07-.13c3.68,4.61,10.63,5.58,14.28.27a9.29,9.29,0,0,0,1.32-4.59C215.2,54.19,211.45,56,207.45,57.57Z"/><path class="cls-8" d="M194.24,85.2c-5.09-1-10-3.64-14.4-6.35a42.91,42.91,0,0,0,5.63,9.49,23.62,23.62,0,0,0,25.95-2.53,37.1,37.1,0,0,0,3.1-9.14C209,81.45,201.85,86.77,194.24,85.2Z"/><path class="cls-9" d="M185.47,88.34c.36.45.73.9,1.11,1.33,1.85,2.09,5.35,6.41,8.36,7,1.61.29,6.2-.87,7.79-1.31,2-.55,3.05-1.57,4.5-3.17a28,28,0,0,0,4.19-6.33A23.62,23.62,0,0,1,185.47,88.34Z"/><path class="cls-5" d="M230.94,54.4a86.74,86.74,0,0,0-5.35-20.76c-.59-1.54-1.26-2.94-1.83-4.21s-1.2-2.34-1.66-3.26l-1.66-2.84,1.5,2.92c.42.94,1,2,1.49,3.32s1.11,2.7,1.63,4.26a102.12,102.12,0,0,1,4.76,20.71c.21,1.62.61,4.88.8,9.37.11,2.25.12,4.81.07,7.62l-.09,2.15a21.61,21.61,0,0,1-.17,2.23,33.39,33.39,0,0,1-.69,4.65L229.22,83l-.81,2.4L228,86.61l-.55,1.19c-.38.79-.72,1.62-1.14,2.41A35.92,35.92,0,0,1,219.45,99a33.67,33.67,0,0,1-9.9,6.26l-1.4.55a8.88,8.88,0,0,1-1.42.49l-2.91.8-3,.49-.75.12-.76,0-1.52.09a37.45,37.45,0,0,1-12-1.32,25.94,25.94,0,0,1-10.2-5.58A30.17,30.17,0,0,1,169,92a43.44,43.44,0,0,1-3.45-9.69,75.06,75.06,0,0,1-1.87-16.59c0-4.5.26-7.77.38-9.4a138.6,138.6,0,0,1,3.36-21c.79-3.19,1.58-6,2.24-7.9.3-1,.61-1.75.79-2.28l.29-.82-.34.81c-.21.52-.56,1.27-.91,2.24-.77,1.91-1.69,4.65-2.62,7.81a111.15,111.15,0,0,0-3.94,21.07c-.11,1.65-.41,4.95-.38,9.5a76.16,76.16,0,0,0,1.9,16.85A44.55,44.55,0,0,0,168,92.54a31.29,31.29,0,0,0,6.88,9.22,27.07,27.07,0,0,0,10.64,5.83,38.55,38.55,0,0,0,12.34,1.36l1.56-.09.78,0,.77-.13,3.09-.51,3-.83a9.39,9.39,0,0,0,1.47-.5l1.44-.57a34.79,34.79,0,0,0,10.24-6.47,37,37,0,0,0,7.07-9.07c.44-.82.79-1.67,1.18-2.48L229,87l.43-1.26.84-2.48.56-2.48a34.5,34.5,0,0,0,.71-4.79,22.33,22.33,0,0,0,.17-2.27l.09-2.18c.06-2.84,0-5.43-.07-7.7C231.56,59.32,231.15,56,230.94,54.4Z"/><path class="cls-7" d="M189.2,108.37c2.2,2.58,4.92,4.53,8.59,4.77,5.55.37,9.93-3,12.71-7.47C204.28,110.39,196.07,112.78,189.2,108.37Z"/><path class="cls-6" d="M211.44,99.85a27.55,27.55,0,0,1-6.47,3.46c-2.37,3-7,2.55-10.65,1.52a25.23,25.23,0,0,1-9.23-2.58,41,41,0,0,0,4.11,6.12c6.86,4.41,15.08,2,21.3-2.69a22.93,22.93,0,0,0,2.62-6Z"/><path class="cls-5" d="M200,112.51a11.06,11.06,0,0,1-4.88-.4,12.82,12.82,0,0,1-5.28-3.46,31.45,31.45,0,0,1-3.45-4.41l-1.3-2s.43.82,1.15,2.11a30.65,30.65,0,0,0,3.19,4.7,13.23,13.23,0,0,0,5.38,4,11.06,11.06,0,0,0,5.33.62,12,12,0,0,0,5-1.84,16.43,16.43,0,0,0,4.75-4.71,22.49,22.49,0,0,0,2.54-5.08c.24-.7.42-1.27.51-1.68l.17-.63-.21.61c-.13.4-.34,1-.63,1.63a22.74,22.74,0,0,1-2.83,4.81,16.22,16.22,0,0,1-4.78,4.22A12.17,12.17,0,0,1,200,112.51Z"/><path class="cls-7" d="M189.63,76.64c1.37,2.6,4.38,3.6,7.39,3.17,2.75-.39,6-2.12,7.13-4.8A12.86,12.86,0,0,1,189.63,76.64Z"/><path class="cls-6" d="M201.07,67.66c-.65-4.38-1.11-9.38-1.26-11.17a38.55,38.55,0,0,0-7.3.91,62,62,0,0,1-.14,10.69,5.41,5.41,0,0,0-2.63,2.2,6.26,6.26,0,0,1,1.09.17,6.26,6.26,0,0,0-1.09-.17,6.4,6.4,0,0,0-.68,4.86,6.32,6.32,0,0,0,.56,1.48A12.86,12.86,0,0,0,204.15,75a5.4,5.4,0,0,0,.23-.65C205.08,71.91,204.07,67.91,201.07,67.66Z"/><path class="cls-5" d="M197,79.3a8.74,8.74,0,0,1-3.22-.11,5.79,5.79,0,0,1-3.38-2.13,6.27,6.27,0,0,1-1.12-4.38,5.3,5.3,0,0,1,2.37-3.93,4.39,4.39,0,0,1,.51-.29l.37-.18c.09,0,.08-.1.09-.17l0-.22c0-.44.08-.81.1-1.21.05-.78.07-1.54.08-2.27,0-1.45,0-2.77-.08-3.88-.11-2.22-.26-3.62-.26-3.62s.09,1.4.1,3.62c0,1.11,0,2.42-.09,3.87,0,.72-.09,1.47-.17,2.24,0,.38-.09.79-.14,1.15,0,0,0,.13,0,.14l-.18.08a4.86,4.86,0,0,0-.57.29,5.89,5.89,0,0,0-2.79,4.27,7,7,0,0,0,1.11,5,6.63,6.63,0,0,0,3.84,2.57,9.26,9.26,0,0,0,3.6.17,11.13,11.13,0,0,0,3.4-1.12,9.07,9.07,0,0,0,3.46-3,5.84,5.84,0,0,0,.9-2.42,7.36,7.36,0,0,0-.14-2.62,6,6,0,0,0-1.14-2.39,3.79,3.79,0,0,0-1-.88,3,3,0,0,0-.61-.28l-.32-.1-.26,0c-.14,0-.14-.09-.16-.21l-.1-.6L201,65.49l-.32-2.24-.49-3.84-.4-3.6.25,3.62.33,3.86.23,2.25.14,1.18.07.6.06.45s0,.08,0,.1l.11,0,.22,0c1.69.26,2.57,1.81,2.9,3.35a5.69,5.69,0,0,1-.8,4.42,8.32,8.32,0,0,1-3.18,2.61A10.84,10.84,0,0,1,197,79.3Z"/><path class="cls-10" d="M190.18,56.26a105.65,105.65,0,0,1-17.56-1.74s2.5,7.36,9.5,7.61S190.18,56.26,190.18,56.26Z"/><path class="cls-10" d="M220.2,51.08c-6.63,2.84-17,4.93-17,4.93s3.29,5.85,9.84,3.77S220.2,51.08,220.2,51.08Z"/><path class="cls-11" d="M214.81,53s-.79,3.63-4,4.63-5.08-2.22-5.08-2.22S210.5,54.36,214.81,53Z"/><path class="cls-11" d="M187,56.12s-1.63,3.22-5,2.89a4.57,4.57,0,0,1-4-3.66S183.76,56,187,56.12Z"/><path class="cls-6" d="M204.54,98.7a13.25,13.25,0,0,0,3.47-4.1L190,96.51c.74,1.43,1.75,3.23,3.31,3.83A27.58,27.58,0,0,1,204.54,98.7Z"/><path class="cls-7" d="M193.27,100.34a3,3,0,0,0,.8.19,22.23,22.23,0,0,0,10.27-1.71l.2-.12A27.58,27.58,0,0,0,193.27,100.34Z"/><path class="cls-5" d="M199.07,100a25.46,25.46,0,0,1-2.84.33,17.64,17.64,0,0,1-1.8,0,3.25,3.25,0,0,1-1.68-.43,7,7,0,0,1-2.11-2.24c-.44-.69-.69-1.15-.69-1.15s.21.47.6,1.2a7.07,7.07,0,0,0,2,2.47,3.63,3.63,0,0,0,1.83.61,16.66,16.66,0,0,0,1.85.09,18.35,18.35,0,0,0,2.93-.23,20.36,20.36,0,0,0,2.85-.71c.56-.18,1.15-.4,1.73-.64a6.69,6.69,0,0,0,.88-.41,4.84,4.84,0,0,0,.74-.61,15,15,0,0,0,2-2.51c.44-.7.68-1.16.68-1.16s-.28.44-.77,1.1a15.33,15.33,0,0,1-2.1,2.32,4.56,4.56,0,0,1-.71.52,6.78,6.78,0,0,1-.83.33c-.58.2-1.17.38-1.73.53C200.75,99.69,199.74,99.87,199.07,100Z"/><path class="cls-2" d="M190.47,50.43c-8-.85-17.53-5.51-17.53-5.51a6.6,6.6,0,0,0-.49,1.31,116.37,116.37,0,0,0,18.08,5A5.27,5.27,0,0,0,190.47,50.43Z"/><path class="cls-4" d="M172.46,46.24a10.55,10.55,0,0,0-.35,2.33,55.72,55.72,0,0,0,18.28,4,4.58,4.58,0,0,0,.16-1.34A116.37,116.37,0,0,1,172.46,46.24Z"/><path class="cls-3" d="M172.11,48.56c0,.37,0,.76,0,1.17,1.12.7,8.24,2.93,18,3.5a2.79,2.79,0,0,0,.28-.67A55.72,55.72,0,0,1,172.11,48.56Z"/><path class="cls-4" d="M201.54,52.86a107,107,0,0,1,19.24-8.38,8.49,8.49,0,0,0,.16-1.88c-7,1.73-13.09,6-19.64,9A4.75,4.75,0,0,0,201.54,52.86Z"/><path class="cls-2" d="M201.32,51.08a3.92,3.92,0,0,0,0,.55c6.54-3,12.66-7.31,19.64-9,0-.28,0-.58,0-.9C211.73,44.41,201.32,51.08,201.32,51.08Z"/><path class="cls-3" d="M201.54,52.86a3.84,3.84,0,0,0,.23.55s10.5-5.37,18.63-7.79a4.09,4.09,0,0,0,.38-1.14A107,107,0,0,0,201.54,52.86Z"/><path class="cls-5" d="M172.14,45.72a10.18,10.18,0,0,0-.46,2.63c0,.26,0,.52,0,.79l0,.47a2.5,2.5,0,0,0,0,.38l.33.17.17.09.1,0,.2.08.41.15c.28.1.56.19.84.28a53.28,53.28,0,0,0,7.28,1.59c2.42.37,4.69.59,6.34.69.83.06,1.5.09,2,.11l.73,0-.73-.07c-.47,0-1.14-.1-2-.21-1.64-.19-3.89-.51-6.28-1A56.74,56.74,0,0,1,174,50.09c-.27-.1-.54-.19-.8-.3l-.38-.16-.18-.08-.09,0h0s0,0,0,0v-.33c0-.25,0-.5,0-.74A10.27,10.27,0,0,1,173,46l.13-.37,0-.1h0l.12.06.59.26,1.31.55c.92.37,1.94.78,3,1.16a62.23,62.23,0,0,0,6.77,2c1.12.27,2.2.48,3.2.63.5.08,1,.15,1.42.19s.93-.05.85.41a4.68,4.68,0,0,1-.1,1.79,2.55,2.55,0,0,1-.25.62,2.55,2.55,0,0,0,.28-.61,4.74,4.74,0,0,0,.2-1.81c.15-.61-.59-.48-1-.59s-.91-.15-1.4-.26c-1-.19-2-.46-3.14-.78a66.56,66.56,0,0,1-6.62-2.3c-1.05-.42-2-.85-3-1.25l-1.27-.58-1.5-.71c-.12.22-.22.4-.3.58s-.08.18-.11.26l-.05.13Z"/><path class="cls-5" d="M220.41,44a6.38,6.38,0,0,1-.2.89c0,.13-.14.38-.12.32h0l-.06,0-.29.09c-.78.24-1.63.55-2.53.87-1.8.67-3.79,1.49-5.75,2.37-3.89,1.73-7.75,3.7-9.66,4.73a3.47,3.47,0,0,1-.36-.93,4.85,4.85,0,0,1-.12-.74,3.7,3.7,0,0,1,0-.59,3.58,3.58,0,0,0,0,.59,4.26,4.26,0,0,0,.46,1.81c2.15-1,5.95-2.74,9.93-4.33,2-.79,4-1.54,5.79-2.15.9-.3,1.75-.57,2.52-.8l.28-.09.22-.07c.08,0,.21,0,.23-.13a3.51,3.51,0,0,0,.31-.7,6.75,6.75,0,0,0,.24-1,8.83,8.83,0,0,0,.1-1.33V42.3l0-.34-.06-.75s0-.08,0-.08l-.09,0-.18.06-.37.12-1,.33c-.27.09-.55.18-.83.29-.56.21-1.15.43-1.74.67a78,78,0,0,0-7.29,3.44c-4.69,2.48-8.46,5-8.46,5s3.89-2.34,8.66-4.62c2.38-1.14,5-2.27,7.36-3.14l1.74-.6c.28-.1.56-.17.83-.26l.4-.12.18-.05h0s0,0,0,0,0,0,0,0v.52A8.8,8.8,0,0,1,220.41,44Z"/><path class="cls-5" d="M188,62.07a24.35,24.35,0,0,0,1.47-3.39,22.92,22.92,0,0,0,.72-2.42s-.36,1.11-.92,2.33-1.28,2.59-1.65,3.26-1.09,2-1.84,3.15-1.48,2-1.48,2,.82-.83,1.66-1.9A22.88,22.88,0,0,0,188,62.07Z"/><path class="cls-5" d="M205.78,60.8c-.35-.58-1.07-1.74-1.63-2.8s-1-2-1-2,.31,1,.77,2.09A23.82,23.82,0,0,0,205.4,61a17.45,17.45,0,0,0,2,2.59,12.26,12.26,0,0,0,1.66,1.49,13.21,13.21,0,0,1-1.49-1.64A27.8,27.8,0,0,1,205.78,60.8Z"/><path class="cls-5" d="M209.47,71.63a27.51,27.51,0,0,1-2.16-3.18,21.79,21.79,0,0,1-1.18-2.36,20.5,20.5,0,0,0,1.05,2.43,21.57,21.57,0,0,0,2.05,3.29,17.53,17.53,0,0,0,2.71,2.78,15.17,15.17,0,0,0,1.5,1.09l.67.42-.64-.46A15.79,15.79,0,0,1,212,74.47,21.15,21.15,0,0,1,209.47,71.63Z"/><path class="cls-5" d="M184,74.56a21,21,0,0,0,1.91-2.5A20,20,0,0,0,187,70.2s-.51.85-1.21,1.77a31,31,0,0,1-2,2.39,24.43,24.43,0,0,1-2.21,2.2,20,20,0,0,1-1.69,1.31,18.34,18.34,0,0,0,1.79-1.2A17.79,17.79,0,0,0,184,74.56Z"/><path class="cls-5" d="M199,103.88a10,10,0,0,0-3.42,1.52,10.86,10.86,0,0,0-1.92,1.66,11.41,11.41,0,0,1,2-1.47,11.67,11.67,0,0,1,3.39-1.27,10.11,10.11,0,0,1,3.61-.18,11.28,11.28,0,0,1,1.71.41l.72.24-.69-.3a10.82,10.82,0,0,0-1.7-.57A9,9,0,0,0,199,103.88Z"/><path class="cls-5" d="M198,82.84a19.23,19.23,0,0,1-2.14,0c-.79,0-1.46-.14-1.46-.14a14.55,14.55,0,0,0,1.45.29,11.84,11.84,0,0,0,2.16.14,8.21,8.21,0,0,0,2.13-.41,5.23,5.23,0,0,0,1.32-.66,5.46,5.46,0,0,1-1.36.52A11,11,0,0,1,198,82.84Z"/><path class="cls-12" d="M207.54,89.62a3.06,3.06,0,0,0-.77-.92,88.54,88.54,0,0,0-15.29,2.21,4.25,4.25,0,0,0-.39,1.09A31.78,31.78,0,0,0,207.54,89.62Z"/><path class="cls-12" d="M194.94,96.62s1.42.47,7.79-1.31a7.66,7.66,0,0,0,2.11-1,42.07,42.07,0,0,0-10.78,2A4,4,0,0,0,194.94,96.62Z"/><path class="cls-10" d="M208,91.23a3.67,3.67,0,0,0-.46-1.61A31.78,31.78,0,0,1,191.09,92a5.18,5.18,0,0,0,0,2.44,12.58,12.58,0,0,0,2.93,1.91,42.07,42.07,0,0,1,10.78-2A12.19,12.19,0,0,0,208,91.23Z"/><path class="cls-5" d="M206.78,88.7a3.3,3.3,0,0,1,.61,1,4.6,4.6,0,0,1,.29,1.57l.67,0a3.37,3.37,0,0,0-.67-1.7A3.06,3.06,0,0,0,206.78,88.7Z"/><path class="cls-5" d="M191.48,90.91a4.51,4.51,0,0,0-.62,1.37,4.73,4.73,0,0,0-.07,2.25l.65-.17a6.42,6.42,0,0,1-.26-2A4.88,4.88,0,0,1,191.48,90.91Z"/><path class="cls-12" d="M208.76,81.18c-3.52,2.35-6.28,3.74-10.61,4.26-3.6.43-8.76-1.62-10.87-2.56C193.32,88.27,203.9,87.63,208.76,81.18Z"/><path class="cls-10" d="M207.54,87.52a20.48,20.48,0,0,0,2-6.84l-.73.5c-4.86,6.45-15.44,7.1-21.48,1.7-.6-.27-1-.44-1-.44a14,14,0,0,0,3.78,7.29C196.09,90.4,202.1,90,207.54,87.52Z"/><path class="cls-12" d="M190.1,89.73l.43.41a12,12,0,0,0,.95.77,33.53,33.53,0,0,0,15.29-2.21c.11-.14.21-.28.31-.43s.31-.49.46-.75C202.1,90,196.09,90.4,190.1,89.73Z"/><path class="cls-5" d="M198.43,90.47a40.7,40.7,0,0,1-4.44.29c-.45,0-.91,0-1.38,0l-.71,0-.32,0s-.12-.08-.21-.15a11.82,11.82,0,0,1-2.06-1.93,14.06,14.06,0,0,1-2.42-4.18,11.49,11.49,0,0,1-.57-2,11.36,11.36,0,0,0,.47,2,14.09,14.09,0,0,0,2.26,4.36,12,12,0,0,0,2,2.08c.1.06.15.18.37.25l.4,0,.72.06c.48,0,.94.06,1.4.07a32.25,32.25,0,0,0,4.52-.19,31.16,31.16,0,0,0,4.44-.87c.88-.24,1.8-.54,2.71-.89l.68-.28.34-.14.21-.09a1.17,1.17,0,0,0,.15-.19,8.91,8.91,0,0,0,.75-1.25,17.56,17.56,0,0,0,1.45-4.69,20.11,20.11,0,0,0,.27-2.06,20.58,20.58,0,0,1-.37,2,17.65,17.65,0,0,1-1.64,4.56,8.64,8.64,0,0,1-.77,1.16c-.09.12,0,.07-.2.13l-.34.12-.67.24c-.91.3-1.82.57-2.69.77A38.92,38.92,0,0,1,198.43,90.47Z"/><path class="cls-4" d="M167.34,22.88c.51.6,1,1.17,1.58,1.72,14.21,11.19,33.7,8.94,49.38,1.72a47.48,47.48,0,0,0,6.55-4.8Z"/><path class="cls-3" d="M168.92,24.6c12.83,13,34.17,11,49.38,1.72C202.61,33.54,183.12,35.79,168.92,24.6Z"/><path class="cls-5" d="M195.94,33.11a45.39,45.39,0,0,1-8.21-.07,34.08,34.08,0,0,1-10.07-2.64,29.39,29.39,0,0,1-7.59-4.81,28,28,0,0,1-2-1.95l-.72-.75.68.79a27.68,27.68,0,0,0,1.94,2,29.36,29.36,0,0,0,7.47,5.19A33.9,33.9,0,0,0,187.62,34a40.3,40.3,0,0,0,8.42.25,43.7,43.7,0,0,0,8.28-1.49,51.17,51.17,0,0,0,9.9-3.87A49.64,49.64,0,0,0,221.89,24c.92-.74,1.68-1.34,2.17-1.8l.78-.69-.81.65c-.51.43-1.29,1-2.24,1.69a50.43,50.43,0,0,1-7.83,4.5,52.61,52.61,0,0,1-9.89,3.45A50,50,0,0,1,195.94,33.11Z"/><path class="cls-13" d="M191.49,56.43c0-.08,0-.17,0-.25-5.58-3.62-15.87-5.34-21.59-1C177.07,54,184.91,53.6,191.49,56.43Z"/><path class="cls-14" d="M191.49,56.43c-6.58-2.83-14.41-2.45-21.59-1.26a9.89,9.89,0,0,0-.91.78C169,75.36,191.34,75.27,191.49,56.43Z"/><path class="cls-13" d="M223.63,53.38c0-.38-.05-.76-.1-1.13-7.44-3.46-15.91-1.7-22.13,3.47h0A34.33,34.33,0,0,1,223.63,53.38Z"/><path class="cls-14" d="M201.41,55.71c.52,6,3.57,12.49,10.24,13.06,8.59.74,12.39-8,12-15.39A34.32,34.32,0,0,0,201.41,55.71Z"/><path class="cls-5" d="M229.55,49l-.11-.38-5.93,3.21c-7.13-3.23-15.59-1.91-22.17,3.46a13.59,13.59,0,0,0-9.82.47,25,25,0,0,0-11.41-3.48c-4.65-.27-8.59.87-11.15,3.2l-5-3.15-.15.36,4.81,3.47c.05,6.15,2.4,11,6.48,13.36a10.28,10.28,0,0,0,10.39,0c4-2.33,6.33-7.09,6.38-13.07a13,13,0,0,1,9.2-.45,18.55,18.55,0,0,0,2.85,8.5,10.18,10.18,0,0,0,7.71,4.66q.51,0,1,0a9.84,9.84,0,0,0,7.25-3.05c3-3.12,4.59-8.47,4-13.69ZM185.11,68.85a9.53,9.53,0,0,1-9.64,0c-3.85-2.22-6.07-6.86-6.11-12.76,5.36-5,16.16-3.24,21.76.28C191.08,62.11,188.9,66.65,185.11,68.85Zm34.24-3.23a9.1,9.1,0,0,1-7.66,2.78c-4.25-.36-9.06-3.85-9.88-12.52,6.36-5.2,14.52-6.48,21.39-3.38C223.72,57.51,222.22,62.64,219.35,65.61Z"/><path class="cls-5" d="M181.33,56.05c1.1.11,3.32.19,5.25.21s3.59,0,3.59,0l-3.58-.33-5.21-.55c-1.1-.1-3.3-.24-5.22-.43s-3.56-.43-3.56-.43,1.61.41,3.51.76S180.23,56,181.33,56.05Z"/><path class="cls-5" d="M181.17,61.7a12.07,12.07,0,0,1-1.29-.25,9.65,9.65,0,0,1-1.58-.61,10.49,10.49,0,0,1-3.08-2.31,14.14,14.14,0,0,1-2-2.72,11.07,11.07,0,0,1-.63-1.29,10.8,10.8,0,0,0,.54,1.34A14,14,0,0,0,175,58.76,10.56,10.56,0,0,0,178,61.35a9.46,9.46,0,0,0,1.66.72,9.37,9.37,0,0,0,4.58.2,7.52,7.52,0,0,0,3.61-1.78,7.87,7.87,0,0,0,1.91-2.84,6.94,6.94,0,0,0,.39-1.39,7,7,0,0,1-.49,1.35,7.77,7.77,0,0,1-2,2.63,7.25,7.25,0,0,1-3.49,1.47A10.76,10.76,0,0,1,181.17,61.7Z"/><path class="cls-5" d="M211.89,54.24c1.07-.3,3.19-1,5-1.72s3.31-1.44,3.31-1.44-1.56.58-3.42,1.12-4,1.09-5.07,1.39l-5,1.47c-1.87.53-3.48.95-3.48.95s1.65-.25,3.56-.62S210.82,54.54,211.89,54.24Z"/><path class="cls-5" d="M213.14,59.37a9.54,9.54,0,0,1-2.88.55,7.5,7.5,0,0,1-3.62-.82,9.06,9.06,0,0,1-2.59-2,8.18,8.18,0,0,1-.87-1.1,8,8,0,0,0,.79,1.17,9.11,9.11,0,0,0,2.51,2.22,7.75,7.75,0,0,0,3.78,1.1,8.9,8.9,0,0,0,3.1-.48,9.94,9.94,0,0,0,2.76-1.47,10.22,10.22,0,0,0,2.6-3A11.41,11.41,0,0,0,220,52.47a8.94,8.94,0,0,0,.24-1.39,9.13,9.13,0,0,1-.34,1.37,11.46,11.46,0,0,1-1.42,3,10.14,10.14,0,0,1-2.64,2.67A10.93,10.93,0,0,1,213.14,59.37Z"/><path class="cls-5" d="M197.74,85.82a15.82,15.82,0,0,0,5-1.11,27.84,27.84,0,0,0,5.68-3.09,50.22,50.22,0,0,0,4.34-3.41c1.09-.94,1.74-1.56,1.74-1.56s-.69.59-1.82,1.47a52.17,52.17,0,0,1-4.48,3.18,28.51,28.51,0,0,1-5.69,2.81,16.7,16.7,0,0,1-4.84,1c-2.35.32-7.07-.89-10.91-2.62-1.93-.85-3.67-1.76-4.92-2.45l-2-1.15,2,1.25c1.22.75,2.92,1.75,4.82,2.69a36,36,0,0,0,6,2.36A14.65,14.65,0,0,0,197.74,85.82Z"/><path class="cls-5" d="M198.35,96a15.9,15.9,0,0,1-3,.35,6.83,6.83,0,0,1-3.39-1.61,50.16,50.16,0,0,1-6.29-6.44,41.06,41.06,0,0,1-4.32-6.45c-1-1.78-1.48-3-1.48-3s.47,1.19,1.38,3a40.61,40.61,0,0,0,4.13,6.63,48.7,48.7,0,0,0,6.19,6.7,10.51,10.51,0,0,0,1.79,1.2,5,5,0,0,0,2,.62,15.15,15.15,0,0,0,3.2-.33c.85-.16,1.9-.39,3.08-.7.59-.16,1.21-.31,1.88-.55a7.27,7.27,0,0,0,1.91-1.06,24.21,24.21,0,0,0,5.57-7.23,37.15,37.15,0,0,0,2.86-7.26c.27-1,.45-1.79.57-2.35l.17-.88-.2.87c-.14.56-.35,1.36-.65,2.32A37.49,37.49,0,0,1,210.6,87,24.22,24.22,0,0,1,205,93.88a9.08,9.08,0,0,1-3.58,1.41C200.22,95.58,199.18,95.8,198.35,96Z"/><path class="cls-15" d="M234.93,37.31a36.09,36.09,0,0,0,.05-8,35.91,35.91,0,0,0-1.35-6.91,32.08,32.08,0,0,0-2.1-5.32,30.78,30.78,0,0,0-3.78-5.73,29.9,29.9,0,0,0-13.28-9.11,42.33,42.33,0,0,0-8.7-1.88A58.43,58.43,0,0,0,196.66,0a51.66,51.66,0,0,0-17.58,3.62,34.23,34.23,0,0,0-7.39,4.12,35.05,35.05,0,0,0-5.68,5.3,36.22,36.22,0,0,0-6.41,10.75,33.9,33.9,0,0,0-1.82,6.81,28.93,28.93,0,0,0-.13,8,25.77,25.77,0,0,0,2.18,7.63,27,27,0,0,0,2.16,3.8,5.15,5.15,0,0,0-2.25,1,4.36,4.36,0,0,0-1.29,2.32,5.61,5.61,0,0,0,.22,2.61,24.94,24.94,0,0,0,1.59,3.74,13.41,13.41,0,0,1,1.37,3.67,7,7,0,0,1,.07,2.43,21.93,21.93,0,0,1-.82,2.41,3.3,3.3,0,0,0,.24,2.43A3,3,0,0,0,162.61,72l.24.09a68.53,68.53,0,0,0,1.61,10.43A44.55,44.55,0,0,0,168,92.49a31.29,31.29,0,0,0,6.88,9.22,27.07,27.07,0,0,0,10.64,5.83c1.11.32,2.24.57,3.37.78.17.22.33.44.52.66a13.23,13.23,0,0,0,5.38,4,11.06,11.06,0,0,0,5.33.62,12,12,0,0,0,5-1.84A16.43,16.43,0,0,0,209.9,107c.24-.36.45-.71.66-1.07a34.49,34.49,0,0,0,9.65-6.21,37,37,0,0,0,7.07-9.07c.44-.82.79-1.67,1.18-2.48L229,87l.43-1.26.84-2.48.56-2.48a34.49,34.49,0,0,0,.71-4.79,22.34,22.34,0,0,0,.17-2.27l.09-2.18q0-2.29,0-4.35l.25,0a1.61,1.61,0,0,0,1.22-1.25,4.19,4.19,0,0,0-.18-2.16,13.36,13.36,0,0,1-.73-2.13,11.65,11.65,0,0,1-.2-2.18,19.86,19.86,0,0,1,.31-3.49,11.68,11.68,0,0,1,.34-1.48c.17-.55.45-1.16.73-1.83a9.52,9.52,0,0,0,.68-2.19,3.83,3.83,0,0,0-.31-2.34,2.52,2.52,0,0,0-1.6-1.46,1.84,1.84,0,0,0-.34,0c.29-.5.57-1,.84-1.6A25.65,25.65,0,0,0,234.93,37.31Z"/><path class="cls-16" d="M124.52,70.57l.14,0a2.49,2.49,0,0,0,1.66-.9,2.49,2.49,0,0,0,1.81.52l2.16-.24a2.5,2.5,0,0,0,2.21-2.76l-.08-.74c7.34-4.37,11.39-9.1,10.89-13.67-.3-2.69-2.15-5.09-5.29-7.16l-2.77-6.1a2.5,2.5,0,0,0-2.55-1.45l-4.3.47a2.5,2.5,0,0,0-2.17,2l-.05.26c-13.68-3.61-34.24-4.63-56.92-2.13C49,40.85,31.06,45.44,18.49,51a2.47,2.47,0,0,0-1.27-.2L14,51.17a2.48,2.48,0,0,0-.83.25,2.48,2.48,0,0,0-.87-.07l-9,1a2.5,2.5,0,0,0-2.21,2.76l.29,2.63A2.5,2.5,0,0,0,4.1,60C1.2,62.79-.27,65.7,0,68.54.49,72.65,4.6,76.1,11.36,78.69A5.94,5.94,0,0,0,13,81.1a6.21,6.21,0,0,0,4.88,1.31,6.91,6.91,0,0,0,3-1C34.44,84.3,53.39,85,74.1,82.67A201.64,201.64,0,0,0,114,74.43c2.38,2.94,10.76,11.19,28.64,8.65C142.59,83.08,126.23,80.45,124.52,70.57Z"/><path class="cls-17" d="M10,56.79l1,9.27-3.22.35-1-9.27-2.9.32-.29-2.63,9-1,.29,2.63Z"/><path class="cls-17" d="M24.47,52.53l1.31,11.9-3.23.36L22,59.94l-3.74.41.53,4.85-3.23.36-1.31-11.9,3.23-.36L18,57.71l3.74-.41-.49-4.41Z"/><path class="cls-17" d="M35.13,60.75l.29,2.62-7.06.78L27,52.25l7.06-.78.28,2.59-3.84.42.21,1.87L34.32,56l.28,2.58L31,58.93l.25,2.24Z"/><path class="cls-17" d="M48.19,62,45,62.32l-.5-4.55-4.73-6.92,3.5-.39,2.52,4.19L47.31,50l3.48-.38-3.12,7.69Z"/><path class="cls-17" d="M63.21,60.31l-3.52.39-.82-2.17L55,59l-.35,2.3-3.54.39,2.57-12.38L58,48.8Zm-7.84-4.06L57.9,56q-1.59-4.11-1.85-5Q56,52.14,55.37,56.25Z"/><path class="cls-17" d="M73.91,52.86a6.19,6.19,0,0,1-1.14,4.77,6.33,6.33,0,0,1-4.43,2.12l-3.85.42-1.31-11.9,4.12-.45a6.25,6.25,0,0,1,4.58,1A5.56,5.56,0,0,1,73.91,52.86ZM68.14,57.1A2.62,2.62,0,0,0,70.19,56a4,4,0,0,0,.41-2.62A3.93,3.93,0,0,0,69.67,51a2.41,2.41,0,0,0-2.05-.57l-.93.1.73,6.67Z"/><path class="cls-17" d="M87.21,57.67l-3.52.39-.82-2.17L79,56.31l-.35,2.3L75.11,59l2.57-12.38,4.3-.47Zm-7.84-4.06,2.53-.28q-1.59-4.11-1.85-5Q80,49.49,79.38,53.61Z"/><path class="cls-17" d="M99.18,56.35l-3.24.36-.5-4.55-4.73-6.92,3.5-.39L96.74,49,98.3,44.4l3.48-.38L98.67,51.7Z"/><path class="cls-17" d="M114.2,54.7l-3.52.39-.82-2.17-3.87.43-.35,2.3-3.54.39,2.57-12.38,4.3-.47Zm-7.84-4.06,2.53-.28q-1.59-4.11-1.85-5Q107,46.52,106.36,50.64Z"/><path class="cls-17" d="M124.9,47.24A6.19,6.19,0,0,1,123.76,52a6.33,6.33,0,0,1-4.43,2.12l-3.85.42-1.31-11.9,4.12-.45a6.25,6.25,0,0,1,4.58,1A5.56,5.56,0,0,1,124.9,47.24Zm-5.78,4.24a2.62,2.62,0,0,0,2.05-1.08,4,4,0,0,0,.41-2.62,3.93,3.93,0,0,0-.92-2.42,2.41,2.41,0,0,0-2.05-.57l-.93.1.73,6.67Z"/><path class="cls-17" d="M138.2,52.06l-3.52.39-.82-2.17L130,50.7l-.35,2.3-3.54.39L128.66,41l4.3-.47ZM130.37,48l2.53-.28q-1.59-4.11-1.85-5Q131,43.88,130.37,48Z"/><path class="cls-17" d="M13.31,76.27A4.27,4.27,0,0,1,14,73.13a3.8,3.8,0,0,1,2.76-1.36,3.78,3.78,0,0,1,3,.72,5.26,5.26,0,0,1,.67,6.09,3.77,3.77,0,0,1-2.75,1.36,3.79,3.79,0,0,1-3-.73A4.29,4.29,0,0,1,13.31,76.27Zm3.61-2.75q-1.61.18-1.36,2.49t1.85,2.14a1.38,1.38,0,0,0,1.15-.69A4.1,4.1,0,0,0,18.18,74,1.37,1.37,0,0,0,16.92,73.52Z"/><path class="cls-17" d="M24.72,76.12,25,79l-2.15.24L22,71.3l2.6-.29q3.24-.36,3.5,2A2.36,2.36,0,0,1,27,75.29l2.7,3.2-2.43.27-2-2.7Zm-.38-3.43.2,1.82.4,0q1.13-.12,1-1.12-.09-.82-1.19-.7Z"/><path class="cls-17" d="M32,73a1,1,0,0,1-.21.8,1.19,1.19,0,0,1-.8.37,1.21,1.21,0,0,1-.87-.18,1.13,1.13,0,0,1-.17-1.53,1.22,1.22,0,0,1,.82-.36,1.19,1.19,0,0,1,.87.18A1,1,0,0,1,32,73Zm.47,4.28a1,1,0,0,1-.21.8,1.18,1.18,0,0,1-.8.37,1.22,1.22,0,0,1-.87-.18,1.13,1.13,0,0,1-.18-1.54,1.23,1.23,0,0,1,.82-.36,1.19,1.19,0,0,1,.87.18A1,1,0,0,1,32.44,77.27Z"/><path class="cls-17" d="M39.9,71.11l.68,6.18-2.15.24-.68-6.18-1.94.21-.19-1.76,6-.66.19,1.76Z"/><path class="cls-17" d="M49.57,68.27l.87,7.94-2.15.24-.36-3.23-2.5.27.36,3.23L43.64,77,42.77,69l2.15-.24.32,2.94,2.5-.27-.32-2.94Z"/><path class="cls-17" d="M56.68,73.75l.19,1.75L52.16,76l-.87-7.94L56,67.56l.19,1.72-2.56.28.14,1.25,2.38-.26.19,1.72-2.38.26L54.11,74Z"/><path class="cls-17" d="M68.16,70.73Q68.08,70,68,68.5h0l-1,5.88-2,.23-2.25-5.54h0q.27,1.4.36,2.26l.38,3.44-1.9.21-.87-7.94,2.86-.31,2.27,5.45h0l1-5.81,2.86-.32L70.51,74l-2,.22Z"/><path class="cls-17" d="M74.37,73.57l-2.15.24-.87-7.94,2.15-.24Z"/><path class="cls-17" d="M75.47,71.12a6.17,6.17,0,0,0,1.35.36,4.68,4.68,0,0,0,1.17,0,1.33,1.33,0,0,0,.72-.24.5.5,0,0,0,.18-.46.46.46,0,0,0-.12-.27,1.19,1.19,0,0,0-.3-.21q-.19-.1-1.08-.39a5.45,5.45,0,0,1-1.29-.57,2.21,2.21,0,0,1-1-1.68,2.07,2.07,0,0,1,.61-1.81A3.55,3.55,0,0,1,77.88,65a6.22,6.22,0,0,1,2.58.3L80,67.06a4.8,4.8,0,0,0-2-.29,1.05,1.05,0,0,0-.58.2.43.43,0,0,0-.16.39.53.53,0,0,0,.29.39,8.69,8.69,0,0,0,1.36.52,3.72,3.72,0,0,1,1.55.85A2.11,2.11,0,0,1,81,70.4a2.24,2.24,0,0,1-.65,1.92,3.43,3.43,0,0,1-2.19.94,6.62,6.62,0,0,1-1.36,0A5,5,0,0,1,75.68,73Z"/><path class="cls-17" d="M87.22,66.29A4.44,4.44,0,0,0,85.35,66a1.38,1.38,0,0,0-1.13.76A3,3,0,0,0,84,68.53q.25,2.29,2,2.09a5.67,5.67,0,0,0,2-.72l.2,1.81a5.5,5.5,0,0,1-2.2.69,3.57,3.57,0,0,1-2.87-.74,4.33,4.33,0,0,1-1.28-2.9A4.71,4.71,0,0,1,82,66.55,3.39,3.39,0,0,1,83.19,65a4,4,0,0,1,2-.72,5.62,5.62,0,0,1,2.52.29Z"/><path class="cls-17" d="M94.23,69.62l.19,1.75-4.71.52-.87-7.94,4.71-.52.19,1.72-2.56.28.14,1.25,2.38-.26.19,1.72-2.38.26.16,1.49Z"/><path class="cls-17" d="M101,70.64l-5.2.57-.87-7.94L97.09,63l.68,6.21,3.05-.34Z"/><path class="cls-17" d="M107.49,69.93l-5.2.57-.87-7.94,2.15-.24.68,6.21,3.05-.34Z"/><path class="cls-17" d="M116,69l-2.35.26-.55-1.45-2.58.28-.23,1.53-2.36.26,1.71-8.25,2.86-.32Zm-5.22-2.71,1.69-.19q-1.06-2.74-1.23-3.32Q111.17,63.54,110.75,66.28Z"/><path class="cls-17" d="M123.51,60.13l.87,7.94-2.81.31-3.52-5.27h0q.25,1.35.32,2l.39,3.58-1.9.21L116,61l2.8-.31,3.49,5.2h0q-.21-1.15-.29-1.92l-.4-3.59Z"/><path class="cls-17" d="M130,67.45l-2.16.24-.33-3L124.37,60l2.33-.26,1.68,2.79,1-3.09,2.32-.26-2.08,5.12Z"/></g></g></svg>