<svg id="Vector" xmlns="http://www.w3.org/2000/svg" viewBox="0 0 32 28"><defs><style>.cls-1{fill:#c67b55}.cls-2{fill:#8e3d14}.cls-3{fill:#b45118}.cls-4{opacity:.75}.cls-5{fill:#878787}.cls-6{fill:#ededed}.cls-7{fill:#ccc}</style></defs><title>pretzel</title><path class="cls-1" d="M4.8 3.9C.5 5.7 0 10.6 0 13.2a7.6 7.6 0 0 0 .5 2.2C-.6 8.8 4.2 2 11.6 3.3a9.5 9.5 0 0 0-6.9.6z"/><path class="cls-2" d="M5.6 11.5a6.5 6.5 0 0 1 .9-3.3 1.8 1.8 0 0 0-.6.4c-2.1 3.2-.2 7.8 3.2 9.3a8.5 8.5 0 0 1-1.3-1.4c-1.2-1.4-2.4-3-2.2-5zM11.7 27c.8.3 2 .6 3.4.8 4.9 1 10.6-2.2 13.3-5l.4-.5c-4.5 4.5-11 6-17.1 4.8zM19 14.6c-1.1-1-1.2-2-1-3.4a5.3 5.3 0 0 0 .2-1.7 2.7 2.7 0 0 0 0-.3 12.2 12.2 0 0 1-.7 1.8 3.4 3.4 0 0 0 2.5 4.5 6.7 6.7 0 0 0 2.4 0 3.9 3.9 0 0 1-3.3-1zm6.1-5.8a12.6 12.6 0 0 1 .4 4.3 3.2 3.2 0 0 1 0 .3 1.5 1.5 0 0 0 .3-1c.3-2.2-.1-5-2-6.3a5 5 0 0 1 1.3 2.7zm-12.9 2.5a4.3 4.3 0 0 0 .5 2.1 3.5 3.5 0 0 1 .6 1.5 2.5 2.5 0 0 1-.2.9 1.5 1.5 0 0 0 .2-1.8c-1-1.7-.5-4-1.6-5.6a3.8 3.8 0 0 0-1.1-1 5.4 5.4 0 0 1 1.6 4zm5.7 5.4a3.8 3.8 0 0 1 1.7 1.4l.2.4c.1-1-.9-1.7-2-1.8z"/><path class="cls-1" d="M25.2.7a7.3 7.3 0 0 0-5.5-.3 10.2 10.2 0 0 0-2.8 1.7A11.8 11.8 0 0 1 25.2.7z"/><path class="cls-2" d="M30.2 5.9a24.9 24.9 0 0 1-.6 15.4 15.6 15.6 0 0 0 2.2-10.8A13.8 13.8 0 0 0 30.2 6z"/><path class="cls-1" d="M22.5 17.3a7.9 7.9 0 0 1 5.6-1.4 5.5 5.5 0 0 0-5.6 1.4zm-.1 2.7c-2.6.6-5.2 1.6-8 1.9 3.8.4 7.5-1.7 11.1-.7a3.3 3.3 0 0 0-3-1.2z"/><path class="cls-3" d="M30.2 5.9a17.5 17.5 0 0 0-3.7-4.3 5.8 5.8 0 0 0-1.3-.9A11.8 11.8 0 0 0 17 2.1a28.9 28.9 0 0 0-2.5 2.2 21.6 21.6 0 0 0-2.7-1C4.2 1.9-.5 8.8.4 15.3a18.8 18.8 0 0 0 2.9 5.2 16 16 0 0 1 1 1.3 6.7 6.7 0 0 0 1.3 1c-.2.4-.2 1-.2 1.2-.5 1.8 1.2 2.5 3 2.5a6 6 0 0 0 .6-.4 10.5 10.5 0 0 0 2.6.9c6.1 1.1 12.7-.3 17.2-4.8a11.6 11.6 0 0 0 .7-1A24.9 24.9 0 0 0 30.2 6zm-5-3.8c-2.3-.8-5-.2-7.3.9 2.2-1.6 5.3-2.5 7.4-.9zM17.6 11a12.2 12.2 0 0 0 .6-1.8 3.3 3.3 0 0 1-.3-1.7 3.1 3.1 0 0 1 2.7-2 3.4 3.4 0 0 1 3.3.7c1.9 1.3 2.3 4 2 6.3a1.5 1.5 0 0 1-.4 1c-.2 1-1 1.3-2 1.7a6 6 0 0 1-1 .3 6.7 6.7 0 0 1-2.3 0 3.4 3.4 0 0 1-2.6-4.5zm-1.8 6.6a3 3 0 0 1 .4-.7 1.6 1.6 0 0 1 1.8-.2c1 .1 2 .8 2 1.8a.6.6 0 0 1 0 .7c-.5.6-2 1-2.7 1.1s-2.1.7-3 .4c-.3 0-.7 0-.8-.2-.7-1.5 1.2-2 2.3-3zM6 8.6a1.8 1.8 0 0 1 .6-.4l.2-.2c.7-.8 2.6-1.5 3.6-.8a3 3 0 0 1 .3.3 3.8 3.8 0 0 1 1 .9c1.2 1.6.8 3.9 1.7 5.6a1.5 1.5 0 0 1-.2 1.8 5.3 5.3 0 0 1-2 2.5 1.8 1.8 0 0 1-2-.4C5.7 16.4 3.8 11.8 6 8.6zm2 12.5c1.3-1 3-1.8 4.2-1-1.4-.3-2.9.3-4.2 1zm6.5.7c2.8-.2 5.4-1.3 8-1.8a3.3 3.3 0 0 1 3 1.2c-3.6-1-7.2 1-11 .6zm8.2-4.5A5.5 5.5 0 0 1 28 16a7.9 7.9 0 0 0-5.6 1.4z"/><path class="cls-1" d="M7.9 21a7.9 7.9 0 0 1 4.2-1c-1.2-.7-3 .2-4.2 1zM25.3 2.1C23.2.4 20 1.4 17.9 3c2.3-1.1 5-1.8 7.4-.9z"/><path class="cls-2" d="M13.7 19.9c0-.5.5-.8.8-1.1a8.5 8.5 0 0 0 1-1 2 2 0 0 0 .2-.2c-1 .8-3 1.4-2.3 2.8.2.3.5.3.8.3a.9.9 0 0 1-.5-.8zm-8.4 4.2c.1-.3 0-.8.3-1.2a6.7 6.7 0 0 1-1.3-1 13 13 0 0 1 .7 1.4c-1.2 2 0 3.1 1.1 3.6a2.6 2.6 0 0 0 2.2-.3c-1.7 0-3.4-.7-3-2.5z"/><g class="cls-4"><path class="cls-5" d="M2 7.1a1.7 1.7 0 0 0-.4.3l.3.5V8l.4-.3A4.2 4.2 0 0 0 2 7z"/><path class="cls-6" d="M1.8 7.2a1.7 1.7 0 0 0-.4.3l.3.4c.2 0 .2-.2.4-.3a1 1 0 0 0-.3-.4z"/><path class="cls-7" d="M2 7.1h-.2a1 1 0 0 1 .3.5c-.2.1-.2.3-.4.3s.4-.2.5-.3a4.2 4.2 0 0 0-.3-.5z"/></g><g class="cls-4"><path class="cls-5" d="M3.2 12.4a1.7 1.7 0 0 0-.4.3l.3.4.5-.3a4.2 4.2 0 0 0-.4-.4z"/><path class="cls-6" d="M3 12.4a1.7 1.7 0 0 0-.3.4l.3.4c.2 0 .2-.2.4-.3a1 1 0 0 0-.3-.5z"/><path class="cls-7" d="M3.2 12.4H3a1 1 0 0 1 .2.5l-.3.3.5-.3a4.2 4.2 0 0 0-.3-.5z"/></g><g class="cls-4"><path class="cls-5" d="M5.8 3.8a1.4 1.4 0 0 0-.3.2l.2.4.4-.3a3.5 3.5 0 0 0-.3-.3z"/><path class="cls-6" d="M5.7 3.8a1.4 1.4 0 0 0-.3.3l.3.4.2-.3a.8.8 0 0 0-.2-.4z"/><path class="cls-7" d="M5.8 3.8h-.1a.8.8 0 0 1 .2.4l-.3.3.4-.3a3.5 3.5 0 0 0-.2-.5z"/></g><g class="cls-4"><path class="cls-5" d="M16.3 14.3h-.1a1.7 1.7 0 0 0-.4.3l.3.4.5-.3a4.2 4.2 0 0 0-.3-.4z"/><path class="cls-6" d="M16 14.3a1.7 1.7 0 0 0-.3.3l.3.5c.2 0 .2-.2.4-.3a1 1 0 0 0-.3-.5z"/><path class="cls-7" d="M16.2 14.3h-.1a1 1 0 0 1 .3.5c-.2 0-.2.2-.4.3l.5-.3a4.2 4.2 0 0 0-.3-.5z"/></g><g class="cls-4"><path class="cls-5" d="M16.5 8a1.3 1.3 0 0 0-.4.2l.3.4.3-.3a3.1 3.1 0 0 0-.2-.3z"/><path class="cls-6" d="M16.4 8a1.3 1.3 0 0 0-.3.3l.2.3.3-.2a.7.7 0 0 0-.3-.3z"/><path class="cls-7" d="M16.4 8a.7.7 0 0 1 .2.4c-.2 0-.2.2-.3.2l.3-.2a3.1 3.1 0 0 0-.2-.4z"/></g><g class="cls-4"><path class="cls-5" d="M12.8 10.2a1.4 1.4 0 0 0-.4.3l.2.3.4-.2a3.4 3.4 0 0 0-.2-.4z"/><path class="cls-6" d="M12.6 10.3a1.4 1.4 0 0 0-.3.2l.3.4c.1 0 .1-.2.3-.2a.8.8 0 0 0-.3-.4z"/><path class="cls-7" d="M12.7 10.2a.8.8 0 0 1 .2.5c-.2 0-.2.2-.3.2l.4-.2a3.4 3.4 0 0 0-.3-.5z"/></g><g class="cls-4"><path class="cls-5" d="M11.8 5.1a1.7 1.7 0 0 0-.4.4l.3.4V6l.5-.3a4.2 4.2 0 0 0-.4-.6z"/><path class="cls-6" d="M11.7 5.2a1.7 1.7 0 0 0-.4.3l.3.5c.2-.1.2-.3.4-.3a1 1 0 0 0-.3-.5z"/><path class="cls-7" d="M11.8 5.1l-.1.1a1 1 0 0 1 .2.5l-.3.3.5-.4a4.2 4.2 0 0 0-.3-.5z"/></g><g class="cls-4"><path class="cls-5" d="M19.4 2.6a1 1 0 0 0-.2.2l.2.3.3-.2a2.5 2.5 0 0 0-.3-.3z"/><path class="cls-6" d="M19.3 2.7a1 1 0 0 0-.2.2l.2.2.2-.1a.6.6 0 0 0-.2-.3z"/><path class="cls-7" d="M19.4 2.6a.6.6 0 0 1 .1.3l-.2.2.3-.2a2.5 2.5 0 0 0-.2-.3z"/></g><g class="cls-4"><path class="cls-5" d="M27.5 4.5a1.7 1.7 0 0 0-.4.3l.2.5.5-.3a4.2 4.2 0 0 0-.3-.5z"/><path class="cls-6" d="M27.3 4.6a1.7 1.7 0 0 0-.4.3l.4.5.3-.4a1 1 0 0 0-.3-.4z"/><path class="cls-7" d="M27.4 4.5h-.1a1 1 0 0 1 .3.5l-.3.3.4-.3a4.2 4.2 0 0 0-.3-.5z"/></g><g class="cls-4"><path class="cls-5" d="M24.1 2.1a1.5 1.5 0 0 0-.4.3l.3.4.4-.3a3.7 3.7 0 0 0-.3-.4z"/><path class="cls-6" d="M24 2.2a1.5 1.5 0 0 0-.4.3l.3.4.3-.3a.8.8 0 0 0-.3-.4z"/><path class="cls-7" d="M24 2.1v.1a.8.8 0 0 1 .2.4l-.3.3.4-.3a3.7 3.7 0 0 0-.3-.5z"/></g><g class="cls-4"><path class="cls-5" d="M29.1 10.4a1.7 1.7 0 0 0-.4.3l.3.5.5-.3a4.2 4.2 0 0 0-.4-.5z"/><path class="cls-6" d="M29 10.5a1.7 1.7 0 0 0-.4.3l.3.5.4-.3a1 1 0 0 0-.3-.5z"/><path class="cls-7" d="M29 10.4v.1a1 1 0 0 1 .3.5c-.2 0-.2.2-.4.3l.5-.4a4.2 4.2 0 0 0-.3-.5z"/></g><g class="cls-4"><path class="cls-5" d="M28.6 17.8h-.1a1.7 1.7 0 0 0-.4.3l.3.4.5-.3a4.2 4.2 0 0 0-.3-.4z"/><path class="cls-6" d="M28.4 17.8a1.7 1.7 0 0 0-.4.3l.3.5c.2 0 .2-.2.4-.3a1 1 0 0 0-.3-.5z"/><path class="cls-7" d="M28.5 17.8h-.1a1 1 0 0 1 .3.5c-.2 0-.2.2-.4.3l.5-.3a4.2 4.2 0 0 0-.3-.5z"/></g><g class="cls-4"><path class="cls-5" d="M21.7 16.7a1 1 0 0 0-.2.2l.1.2.3-.2a2.4 2.4 0 0 0-.2-.2z"/><path class="cls-6" d="M21.6 16.7a1 1 0 0 0-.3.2l.2.3.2-.2a.5.5 0 0 0-.1-.3z"/><path class="cls-7" d="M21.6 16.7a.5.5 0 0 1 .1.2s0 .2-.2.2l.3-.1a2.4 2.4 0 0 0-.2-.3z"/></g><g class="cls-4"><path class="cls-5" d="M25.8 13.8a1 1 0 0 0-.3.2l.2.3.3-.2a2.4 2.4 0 0 0-.3-.3z"/><path class="cls-6" d="M25.6 13.9a1 1 0 0 0-.2.2l.2.2.2-.2a.5.5 0 0 0-.2-.2z"/><path class="cls-7" d="M25.7 13.8a.5.5 0 0 1 .1.3l-.2.2.3-.2a2.4 2.4 0 0 0-.2-.3z"/></g><g class="cls-4"><path class="cls-5" d="M25.4 23.4a1.4 1.4 0 0 0-.4.3l.3.4.3-.3a3.5 3.5 0 0 0-.2-.4z"/><path class="cls-6" d="M25.2 23.5a1.4 1.4 0 0 0-.3.3l.3.4.3-.3a.8.8 0 0 0-.3-.4z"/><path class="cls-7" d="M25.3 23.4v.1a.8.8 0 0 1 .2.4c-.2 0-.2.2-.3.2l.4-.2a3.5 3.5 0 0 0-.3-.5z"/></g><g class="cls-4"><path class="cls-5" d="M19.2 21.8H19a1.7 1.7 0 0 0-.4.3l.3.4v.1l.5-.3a4 4 0 0 0-.3-.5z"/><path class="cls-6" d="M19 21.9a1.7 1.7 0 0 0-.3.3l.2.5.4-.4a.9.9 0 0 0-.3-.4z"/><path class="cls-7" d="M19.1 21.8l-.1.1a.9.9 0 0 1 .3.4c-.2.1-.2.3-.4.3s.4-.2.5-.3a4 4 0 0 0-.3-.5z"/></g><g class="cls-4"><path class="cls-5" d="M15.2 24.6H15a1.7 1.7 0 0 0-.4.3l.3.4.5-.3a4.2 4.2 0 0 0-.3-.4z"/><path class="cls-6" d="M15 24.6a1.7 1.7 0 0 0-.4.3l.4.5.3-.3a1 1 0 0 0-.3-.5z"/><path class="cls-7" d="M15.1 24.6H15a1 1 0 0 1 .3.5c-.2 0-.2.2-.4.3l.5-.4a4.2 4.2 0 0 0-.3-.4z"/></g><g class="cls-4"><path class="cls-5" d="M19.5 26.1a1.1 1.1 0 0 0-.3.2l.2.3.3-.2a2.7 2.7 0 0 0-.2-.3z"/><path class="cls-6" d="M19.3 26.2a1.1 1.1 0 0 0-.2.2l.2.3.2-.2a.6.6 0 0 0-.2-.3z"/><path class="cls-7" d="M19.4 26.1a.6.6 0 0 1 .1.4l-.2.2.3-.3a2.7 2.7 0 0 0-.2-.3z"/></g><g class="cls-4"><path class="cls-5" d="M23.7 20a1.1 1.1 0 0 0-.2.2l.2.3.3-.2a2.7 2.7 0 0 0-.3-.3z"/><path class="cls-6" d="M23.6 20a1.1 1.1 0 0 0-.2.3l.2.3.2-.2a.6.6 0 0 0-.2-.3z"/><path class="cls-7" d="M23.7 20a.6.6 0 0 1 .1.4l-.2.2.3-.3a2.7 2.7 0 0 0-.2-.3z"/></g><g class="cls-4"><path class="cls-5" d="M11.7 24.9a1.1 1.1 0 0 0-.3.2l.2.2.3-.2a2.7 2.7 0 0 0-.3-.3z"/><path class="cls-6" d="M11.5 24.9a1.1 1.1 0 0 0-.2.2l.2.3.2-.2a.6.6 0 0 0-.2-.3z"/><path class="cls-7" d="M11.6 24.8a.6.6 0 0 1 .1.4l-.2.2.3-.2a2.7 2.7 0 0 0-.2-.4z"/></g><g class="cls-4"><path class="cls-5" d="M11 21.4a1.7 1.7 0 0 0-.4.3l.3.4.5-.3a4.2 4.2 0 0 0-.3-.4z"/><path class="cls-6" d="M10.9 21.5a1.7 1.7 0 0 0-.4.3l.3.4c.2 0 .2-.2.4-.3a1 1 0 0 0-.3-.4z"/><path class="cls-7" d="M11 21.4h-.1a1 1 0 0 1 .3.5l-.4.3.5-.3a4.2 4.2 0 0 0-.3-.5z"/></g><g class="cls-4"><path class="cls-5" d="M11.4 18.9a1.7 1.7 0 0 0-.4.3l.3.4.4-.3a4.2 4.2 0 0 0-.3-.4z"/><path class="cls-6" d="M11.2 19a1.7 1.7 0 0 0-.3.2l.3.5.3-.3a1 1 0 0 0-.3-.5z"/><path class="cls-7" d="M11.3 18.8v.1a1 1 0 0 1 .2.5l-.3.3.4-.4a4.2 4.2 0 0 0-.3-.5z"/></g><g class="cls-4"><path class="cls-5" d="M3.2 17.7a1.7 1.7 0 0 0-.4.3l.2.5.5-.3a4.2 4.2 0 0 0-.3-.5z"/><path class="cls-6" d="M3 17.8a1.7 1.7 0 0 0-.4.3l.4.5.3-.3a1 1 0 0 0-.3-.5z"/><path class="cls-7" d="M3.1 17.7l-.1.1a1 1 0 0 1 .3.5c-.2 0-.2.2-.4.3l.5-.4a4.2 4.2 0 0 0-.3-.5z"/></g><g class="cls-4"><path class="cls-5" d="M6.6 21.8a1.7 1.7 0 0 0-.4.3l.2.5.5-.3a4.2 4.2 0 0 0-.3-.5z"/><path class="cls-6" d="M6.4 21.9a1.7 1.7 0 0 0-.4.3l.4.4.3-.3a1 1 0 0 0-.3-.4z"/><path class="cls-7" d="M6.5 21.8h-.1a1 1 0 0 1 .3.5c-.2.1-.2.3-.4.3s.4-.2.5-.3a4.2 4.2 0 0 0-.3-.5z"/></g><g class="cls-4"><path class="cls-5" d="M6.4 25.2h-.1a1.7 1.7 0 0 0-.4.3l.3.4v.1l.5-.3a4.2 4.2 0 0 0-.3-.5z"/><path class="cls-6" d="M6.2 25.3a1.7 1.7 0 0 0-.4.3l.3.4c.2 0 .2-.2.4-.3a1 1 0 0 0-.3-.4z"/><path class="cls-7" d="M6.3 25.2h-.1a1 1 0 0 1 .3.5c-.2.1-.2.3-.4.3s.4-.2.5-.3a4.2 4.2 0 0 0-.3-.5z"/></g></svg>