<svg xmlns="http://www.w3.org/2000/svg" viewBox="0 0 338.43 201.3"><defs><style>.cls-1{isolation:isolate}.cls-2{fill:#f3a712}.cls-3{fill:#56371b}.cls-4{fill:#3a2310}.cls-5{fill:#443e39}.cls-6{fill:#d3bba7}.cls-7{fill:#ffebde}.cls-8{fill:#f9e3cf}.cls-17,.cls-9{fill:none;stroke:#443e39;stroke-linecap:round;stroke-linejoin:round}.cls-9{stroke-width:1.25px}.cls-10{fill:#755337}.cls-11{fill:#470b0b}.cls-12{fill:#6d0f0f}.cls-13{fill:#ba2b5f}.cls-14{fill:#931f41}.cls-15{fill:#fdfffc}.cls-16{fill:#e5e5e5}.cls-17{stroke-width:1.5px}.cls-18,.cls-19{fill:#4e979b;opacity:.15}.cls-19{fill:#7becff}.cls-20{opacity:.5;mix-blend-mode:multiply;fill:url(#linear-gradient)}.cls-21{fill:#ba1200}.cls-22{fill:#c67b55}.cls-23{fill:#8e3d14}.cls-24{fill:#b45118}.cls-25{opacity:.75}.cls-26{fill:#878787}.cls-27{fill:#ededed}.cls-28{fill:#ccc}</style><linearGradient id="linear-gradient" x1="261.8" y1="35.1" x2="470.4" y2="469.8" gradientUnits="userSpaceOnUse"><stop offset="0" stop-color="#fff"/><stop offset=".1" stop-color="#ded8d3"/><stop offset=".1" stop-color="#dbd4cf"/><stop offset=".3" stop-color="#b3a599"/><stop offset=".5" stop-color="#927d6c"/><stop offset=".6" stop-color="#785f49"/><stop offset=".8" stop-color="#65492f"/><stop offset=".9" stop-color="#5a3c20"/><stop offset="1" stop-color="#56371b"/></linearGradient></defs><title>title-card</title><g class="cls-1"><g id="Vector"><path class="cls-2" d="M197.8 124v-1.5a19.1 19.1 0 0 0 7.8-2.5l.7-.5a13 13 0 0 0 1-.8 16.4 16.4 0 0 0 5.2-10.5 15 15 0 0 0-.4-5.3 18.3 18.3 0 0 0-2.6-5.3 7.6 7.6 0 0 0-1.3-1.5 8.8 8.8 0 0 0-5.8-2.1h-.7a11 11 0 0 0-3.6 1l-1.6.8c-.4-.3-.7-.6-1.2-.8a10.2 10.2 0 0 0-5.5-1.6 15.8 15.8 0 0 0-2.2.2 8.7 8.7 0 0 0-1.5.4 55.2 55.2 0 0 0-5-4.8V89a5 5 0 0 0-5-4h-.2l.6-.6a9.6 9.6 0 0 0 2-8.2 9.4 9.4 0 0 0-2.6-4.9l.6-3.3a5 5 0 0 0-3.9-5.7 19 19 0 0 0-4-.5 16.3 16.3 0 0 0-3.3.3 13.3 13.3 0 0 0-5 2 4.9 4.9 0 0 0-2.8-.2l-9.4 2a5 5 0 0 0-2.3 1.1 16.8 16.8 0 0 0-2.1-.1 19.4 19.4 0 0 0-3.8.3 14.2 14.2 0 0 0-7.2 3.6l-3.5-.3a5 5 0 0 0-2-.4 5 5 0 0 0-1 0l-.3.1A146.3 146.3 0 0 0 93.2 72a142.7 142.7 0 0 0-40.5 13l-5.4 1a5 5 0 0 0-1.4.6 4.4 4.4 0 0 0-1.5 0l-4.3 1a5 5 0 0 0-2.3 1.1 5 5 0 0 0-2.6-.2l-4.3.9a5 5 0 0 0-.8.2 5 5 0 0 0-.8.1l-12 2.4a5 5 0 0 0-3.9 5.9l.7 3.5a5 5 0 0 0 4.8 4l1 5c-7.9 10-12 21.1-11.6 32.2a13 13 0 0 0-5.3 3.2c-3.2 3-3.9 7.8-1.8 13a10 10 0 0 0 1.6 2.7 21.2 21.2 0 0 0 5.1 4.4 13.5 13.5 0 0 1 1.2.8h.1a4.6 4.6 0 0 0 1 2.6 5 5 0 0 0 3.7 1.8h.3a4.8 4.8 0 0 0 3.4-1.6c.6 0 1.2 0 2-.2h.7a57.2 57.2 0 0 0 7.3 6.4l.2 1a11.2 11.2 0 0 0 3.6 6 13.7 13.7 0 0 0 5.6 2.8 21.5 21.5 0 0 0 5.2.7h.6l4-.3.6.3-1.4.7-.5.3-3.3 2.1c-2.7 2-3.2 4-3.2 5.5a6 6 0 0 0 3 5.5 6.3 6.3 0 0 0 3 .8 6.4 6.4 0 0 0 1.6-.2l.5-.2a33 33 0 0 0 4.7-2.1 67.4 67.4 0 0 0 11.6-8q3 .6 6.3 1a10.4 10.4 0 0 0 2.8 1.5 9.6 9.6 0 0 0 3.2.6 12.3 12.3 0 0 0 3-.4 13.2 13.2 0 0 0 1.8-.6q3.6.2 7.3.2l.3.9a5 5 0 0 0 5.5 3.2 5.1 5.1 0 0 0 .9-.1 6.4 6.4 0 0 0 3.7-2.4 7 7 0 0 0 1-2l1.9-.1a17.4 17.4 0 0 0 2.3 3.2 10.9 10.9 0 0 1 .8.8 3.7 3.7 0 0 0 .2 2.3 4.1 4.1 0 0 0 2.5 2.2 3 3 0 0 0 1.1.2 4.4 4.4 0 0 0 2.2-.7l1.5.3 3 .4h.8c4.4 0 9-2.9 11.2-5.7l.4-.6a11.4 11.4 0 0 0 .7-1.1 14.3 14.3 0 0 0 1.6-6.5 130.7 130.7 0 0 0 35-15.5 6.5 6.5 0 0 0 1.1 0 7.2 7.2 0 0 0 1.8-.1 8 8 0 0 0 .9-.3 5 5 0 0 0 3.5-4.5v-.3a90.2 90.2 0 0 0 8.6-7.5v.2a8.3 8.3 0 0 0 .2 1.4l.2 1a8.4 8.4 0 0 0 .5 1.4 6.2 6.2 0 0 0 1.8 2.2 5.6 5.6 0 0 0 3.5 1.3 5.8 5.8 0 0 0 1.4-.2 6 6 0 0 0 5-5 8.5 8.5 0 0 0-.3-3.3 8.7 8.7 0 0 0-1.2-2.7 5.8 5.8 0 0 0-5-2.5h-.5a58 58 0 0 0 9.2-16c21 5.2 29.5-7.3 29.5-7.3a35.9 35.9 0 0 1-26.8-5.5zm140.5-58.7a3.9 3.9 0 0 0 0-.6v-.3a14 14 0 0 0-3-6.8 9 9 0 0 0-2.4-2 39.1 39.1 0 0 0-.6-6.8A72.8 72.8 0 0 0 330 38a78.4 78.4 0 0 0-3.4-9.2 18.5 18.5 0 0 0-.9-1.8 17.6 17.6 0 0 0-1-1.7 22.9 22.9 0 0 0-2.5-3.2l-.2-.1a22 22 0 0 0-3.2-2.7 19.7 19.7 0 0 0-4-2h-.2a80 80 0 0 0-8.2-9C297.4 0 276.7-2 264.2 2l-4.4 1.6a44.8 44.8 0 0 0-7 .6 52.5 52.5 0 0 0-10.6 3 51.5 51.5 0 0 0-8.4 4.3 32.7 32.7 0 0 0-3.4 2.5 3.8 3.8 0 0 0 1 6.3l-2.2 1.8a3.8 3.8 0 0 0 0 5.6c-.7 1-1.3 2.2-1.8 3.3a32.4 32.4 0 0 0-2.7 3l-1 1.3-.3.4v.2a35.9 35.9 0 0 0-3.2 5.7 21 21 0 0 0-3 9.8 13.9 13.9 0 0 0 1.1 5.8l1.4 3.8c.3.8.7 1.6.9 2.5a6.2 6.2 0 0 0-1 1.3 8.5 8.5 0 0 0-.6 5.8v.1a11.2 11.2 0 0 0 .8 2.1 7.2 7.2 0 0 0 2.5 3l.3 1.3-.4.3a4.3 4.3 0 0 0-1.8 2.8c-1.1 6 .2 12.4 3.4 16.6a14.3 14.3 0 0 0 3 3 161 161 0 0 0 10.7 25.3 49.9 49.9 0 0 0 18.5 22.4c.7 3.5 2.7 9 8.1 10.4a11.6 11.6 0 0 0 2.8.3 34.2 34.2 0 0 0 12.1-2.9 59.7 59.7 0 0 0 17.4-11 180.2 180.2 0 0 0 24.3-27.8l.5-.6a59.2 59.2 0 0 0 11-30.3l1.5-2.2a35.9 35.9 0 0 0 3.7-8.8 30.8 30.8 0 0 0 .8-4.3 21.7 21.7 0 0 0 0-5z"/><path class="cls-3" d="M235.8 57c1.3-13 1.7-28.9 1.7-28.9s-8 4.5-11.6 11.3c-2.8 5-4.6 8.8-4.6 12.3a13.8 13.8 0 0 0 14.4 5.2z"/><path class="cls-4" d="M221.3 51.7a9 9 0 0 0 .6 3.2c1.8 4.5 3.2 7.3 3.4 10.3s.6 7.7 5.8 8.8c2.2.4 3.7-7.6 4.7-17.1a13.8 13.8 0 0 1-14.5-5.2z"/><path class="cls-5" d="M228 71.7a8.1 8.1 0 0 1-2-5V65a12.9 12.9 0 0 0-.3-2 26.5 26.5 0 0 0-1.3-3.7l-1.6-3.8a9.6 9.6 0 0 1-1-4 19 19 0 0 1 2.4-8 41 41 0 0 1 3.9-7 31.5 31.5 0 0 1 4.5-4.7 41.5 41.5 0 0 1 3.6-2.8l1.4-1-1.5 1a41.3 41.3 0 0 0-3.6 2.6 31.6 31.6 0 0 0-4.7 4.7 22.7 22.7 0 0 0-2.2 3.3l-2 3.6a20.4 20.4 0 0 0-2.7 8.3 10.6 10.6 0 0 0 1 4.3l1.4 3.9a25.9 25.9 0 0 1 1.2 3.6 11.8 11.8 0 0 1 .2 1.8l.1 1.8a9.2 9.2 0 0 0 2.4 5.7 6.8 6.8 0 0 0 2.5 1.6 4.8 4.8 0 0 0 .7.2l.4.1.2.1a2.2 2.2 0 0 0 .4 0 1.7 1.7 0 0 0 1.1-.5 3.7 3.7 0 0 0 .7-.8 14 14 0 0 0 1.2-3.6l.8-3.9a180 180 0 0 0 1.6-17c.7-11.2.7-20.8.7-20.8s-.4 9.6-1.3 20.8a194.9 194.9 0 0 1-3 20.6 13.3 13.3 0 0 1-1.2 3.2c-.2.4-.6.7-.6.6h-.7a3.8 3.8 0 0 1-.7-.3 5.6 5.6 0 0 1-2-1.2z"/><path class="cls-6" d="M261 141.5c12.6 7.1 30.6 1.3 31.2-14.2a20.3 20.3 0 0 0-13.7 6.2c-5.9 5-12.5 2.7-17.6 8zm3.3-47.1c7.3 7 20.2 5.8 26.2-3a15.8 15.8 0 0 0 2.7-6.4c-4.4 11.1-19 14.8-29 9.4zM245 92.2c-3.2 3.8-8.8 8.3-14 5.3l.9 3.4c5.5-.6 11-3 13.2-8.7z"/><path class="cls-7" d="M307.7 15.7l-4.2-4.2c-7.6-7-26.5-9-37.9-5.3s-24.7 11.2-31.5 22a71 71 0 0 1 73.6-12.5z"/><path class="cls-6" d="M276.7 84.9a13.5 13.5 0 0 1-7.3.1 4.7 4.7 0 0 0 7.3-.1zm-42.4 1.8a4.5 4.5 0 0 1-1.6-.2 3 3 0 0 0 5-.5c-1.3.5-2.5 1.2-3.4.7zm26.4 61.3c.7 2.3 2 5 4.6 5.6 4.1 1 14.9-2.3 24.2-9.2-9.7 5.2-20.1 9.8-28.8 3.6z"/><path class="cls-8" d="M327.9 64.6a80 80 0 0 0-20.2-49A71 71 0 0 0 234 28.3c-6.9 11-8 18.9-8 29.3s-.4 19.6 2.7 21.5a5 5 0 0 0-.8 3c0 2.9 1.6 3.7 1.6 3.7a48 48 0 0 0 1.3 11.7c5.3 3 10.9-1.5 14.2-5.3-2.2 5.7-7.7 8.1-13.3 8.6 1.9 5.9 5 12.6 9.7 22.3 9 18.4 18.6 21.5 18.6 21.5a18.1 18.1 0 0 0 .6 3.4c8.7 6.2 19.1 1.6 28.7-3.5a50 50 0 0 0 4-3.4 176.7 176.7 0 0 0 23.8-27.1 54.9 54.9 0 0 0 10.3-25.3c-3.4 1-6.9 1.4-8.4-2.4 3.1 0 5.8-1.7 8.8-1.5a106.2 106.2 0 0 0 0-20.2zm-95.2 21.9a4.5 4.5 0 0 0 1.6.2c.9.5 2.1-.2 3.3-.6a3 3 0 0 1-5 .4zm44-1.6a4.7 4.7 0 0 1-7.2.1 13.5 13.5 0 0 0 7.2-.1zm-30.4 24c4 1.8 8.6 1.6 13.1 2-3.6 4.5-10.8 2.6-13.1-2zm14.6 32.6c5.1-5.3 11.7-3 17.5-8a20.3 20.3 0 0 1 13.8-6.2c-.6 15.6-18.6 21.3-31.3 14.2zm29.6-50.1a17.5 17.5 0 0 1-26.2 3c9.8 5.5 24.5 1.7 28.9-9.4a15.8 15.8 0 0 1-2.7 6.3z"/><path class="cls-6" d="M259.4 110.9c-4.5-.4-9-.2-13.1-2 2.3 4.6 9.4 6.5 13.1 2zm59.7-24.6c1.5 3.8 5 3.5 8.3 2.4l.5-3.8c-3-.2-5.7 1.5-8.8 1.4z"/><path class="cls-3" d="M292.3 61.7a3.2 3.2 0 0 0 0-1.7 2.5 2.5 0 0 0-.6-1.3A53 53 0 0 0 259 73a1.8 1.8 0 0 0 .8 1.4c.8.3 1.6-.4 2.1-.8l5.2-3.6a33 33 0 0 1 25.2-8.4z"/><path class="cls-9" d="M293.1 74.8l27.2-8.4"/><path class="cls-4" d="M267 70.1l3-1.9a38.6 38.6 0 0 1 20.2-5.2 2 2 0 0 0 2-1.3 33.5 33.5 0 0 0-25.2 8.4z"/><path class="cls-10" d="M271.7 61.8a64.1 64.1 0 0 0-8.2 6c-1.2 1-2.5 1.8-3.6 2.8a3 3 0 0 0-1 1.7 7 7 0 0 0 .2.8 53 53 0 0 1 32.6-14.4c-1-1-2.7-1-4-1a33.7 33.7 0 0 0-16 4z"/><path class="cls-11" d="M258.4 134.7a36.4 36.4 0 0 1 1.8 6.8s4.3 1.6 11.7 1.3a26.7 26.7 0 0 0 14.5-4.7 17.6 17.6 0 0 0 4.3-4.6c-9.6-5.6-22.7-5-32.3 1.2z"/><path class="cls-12" d="M292.5 117.3a10.8 10.8 0 0 0-4.7-4.5l-36.7 8.7 2.7 3.4a56.2 56.2 0 0 1 4.6 9.8 31.6 31.6 0 0 1 32.2-1.1 15.9 15.9 0 0 0 2.6-5.6 18 18 0 0 0-.7-10.7z"/><path class="cls-13" d="M264.4 137.2a15.1 15.1 0 0 0-3.7 4.5 31 31 0 0 0 25.5-3.4c-6.6-4.3-15-5-21.8-1z"/><path class="cls-14" d="M286.2 138.3l.6-.5a21.7 21.7 0 0 0-16-3.5 13 13 0 0 0-6.5 3c6.9-4 15.3-3.3 21.9 1z"/><path class="cls-15" d="M288.1 114.3a8.3 8.3 0 0 0 0-1.4s-3.4-2.2-11.7 0-11.2 3.8-27.4 5.4a14.5 14.5 0 0 0 1.6 5.7c13-2.2 28.8-1 37.5-9.7z"/><path class="cls-16" d="M250.6 124a3.4 3.4 0 0 0 2 1.6c3 .9 12.5-2 18-3s11.5-2.4 14.6-2.4c2.4-.1 3-3.7 3-6-8.8 8.8-24.7 7.6-37.6 9.8z"/><path class="cls-5" d="M287 117.9a2.8 2.8 0 0 1-1.2 1.5 1.5 1.5 0 0 1-.4.1h-.6l-1.5.1-6.6 1.3-7.2 1.5-7.4 1.7a57.9 57.9 0 0 1-6.9 1.4 7 7 0 0 1-3-.2 3.9 3.9 0 0 1-1.8-1.8 13.3 13.3 0 0 1-1.2-3.8 13.3 13.3 0 0 0 1 3.9 4.1 4.1 0 0 0 2 2 7.2 7.2 0 0 0 3 .3 57.4 57.4 0 0 0 7-1.1l7.4-1.5 7.4-1.3a75 75 0 0 1 7.9-1.2h.7a2.8 2.8 0 0 0 .8-.3 4 4 0 0 0 1.8-2.2 9.4 9.4 0 0 0 .5-2.5 13.9 13.9 0 0 0 0-1.4v-.8a6.3 6.3 0 0 0 0-1c0-.2-.4-.3-.5-.4a4.4 4.4 0 0 0-.5-.2 8 8 0 0 0-.8-.3 11.3 11.3 0 0 0-1.7-.3 18.6 18.6 0 0 0-3.6 0 36.5 36.5 0 0 0-7.3 1.6c-2.5.7-4.9 1.5-7.3 2a105.5 105.5 0 0 1-12.6 2.6l-5.4.7 5.5-.5a103 103 0 0 0 12.7-2l7.3-2a36.3 36.3 0 0 1 7.2-1.2 17.7 17.7 0 0 1 3.3 0 10.3 10.3 0 0 1 1.5.4 4.3 4.3 0 0 1 1 .3v1.2l-.1 1.2a8.5 8.5 0 0 1-.5 2.2z"/><path class="cls-5" d="M293.8 118a11 11 0 0 0-3.8-4.9 11.7 11.7 0 0 0-7.5-2c-5.6.4-11 2.9-16.4 4a122 122 0 0 1-14 2.8l-6 .6s2.3 0 6-.4a118.4 118.4 0 0 0 14.2-2c5.5-1.1 11-3.4 16.2-3.4a10.2 10.2 0 0 1 6.5 1.8 9.5 9.5 0 0 1 3.1 4.2 13.3 13.3 0 0 1 .9 5.3 18.3 18.3 0 0 1-1.6 6.8 17.2 17.2 0 0 1-4.7 6.4 23.3 23.3 0 0 1-7.3 3.8 34.5 34.5 0 0 1-14 1.5 32 32 0 0 1-4.3-.7l-1.6-.5 1.5.6a31.8 31.8 0 0 0 4.4.9 34.7 34.7 0 0 0 14.3-1 24 24 0 0 0 7.8-3.6 18.4 18.4 0 0 0 5.3-6.7 19.4 19.4 0 0 0 2-7.4 14.3 14.3 0 0 0-1-6.1z"/><path class="cls-6" d="M245.6 107.3a9.5 9.5 0 0 0 5.6 5c1.9.6 6.2.7 9-1.7a18 18 0 0 1-14.6-3.3z"/><path class="cls-8" d="M260.3 110.6a7.2 7.2 0 0 0 2.2-3.5l-8.8-26.6s2.1 8.3-5.4 17.3c-3.3 4-3.6 7.2-2.7 9.5a18 18 0 0 0 14.7 3.3z"/><path class="cls-5" d="M246 103.7a13.2 13.2 0 0 1 2.8-5.6 25 25 0 0 0 4.1-7.4 20.6 20.6 0 0 0 1.2-7.2 13.7 13.7 0 0 0-.3-3 13.9 13.9 0 0 1 .1 3 20.6 20.6 0 0 1-1.6 6.9 25.1 25.1 0 0 1-4.4 7 13.3 13.3 0 0 0-3.3 6 11.1 11.1 0 0 0-.1 1.4 7 7 0 0 0 0 .8 3.8 3.8 0 0 0 .2 1 7.5 7.5 0 0 0 2 3.4 10.7 10.7 0 0 0 3.6 2.4 9.4 9.4 0 0 0 4.4.6 11.2 11.2 0 0 0 3.9-1.1 8 8 0 0 0 2.6-2 7.6 7.6 0 0 0 1-2l.3-.9-.3.8a7.5 7.5 0 0 1-1.2 1.9 7.7 7.7 0 0 1-2.6 1.8 10.7 10.7 0 0 1-3.8.7 8.7 8.7 0 0 1-4-.7 10 10 0 0 1-3.1-2.3 6.4 6.4 0 0 1-1.6-5.5z"/><path class="cls-17" d="M228 82.1a5 5 0 0 1 .8-3c-3-1.8-2.7-11-2.7-21.5s1.1-18.4 8-29.3 20.1-18.4 31.5-22 30.3-1.9 38 5.2S325 34 327.7 64.7s-6.3 43-10.6 49.4a176.7 176.7 0 0 1-23.7 27c-9.9 9.1-23.5 13.7-28.2 12.5s-5.2-9-5.2-9-9.6-3.1-18.6-21.5-12-26.1-12-37.3c0 0-1.4-.8-1.5-3.7z"/><path class="cls-5" d="M273 75.6a26 26 0 0 0-7.3 4.4 24.2 24.2 0 0 0-2.8 2.8 15.6 15.6 0 0 0-1.1 1.3A16.4 16.4 0 0 1 263 83a25.6 25.6 0 0 1 3.1-2.4 33.6 33.6 0 0 1 7.4-3.6l1.4-.5a20 20 0 0 1 2-.6 36.6 36.6 0 0 1 4.4-1 34.9 34.9 0 0 1 4-.4h1.7l-1.7-.2a32.1 32.1 0 0 0-4-.1 31.7 31.7 0 0 0-4.6.6 16.8 16.8 0 0 0-2 .4 12.8 12.8 0 0 0-1.7.5z"/><path class="cls-5" d="M272 80.4a36.3 36.3 0 0 1 6.2-1.4 19.4 19.4 0 0 1 3.1 0 8.7 8.7 0 0 1 1.3 0 8.4 8.4 0 0 0-1.3-.3 18.2 18.2 0 0 0-3-.4 23.4 23.4 0 0 0-6.7.8 29.5 29.5 0 0 0-6 2.6l-1.5.9-1.1.7-1.2.8 1.3-.6 1.2-.5 1.6-.6a55.3 55.3 0 0 1 6.1-2zm1.4 4.8a8.2 8.2 0 0 1-3.2-.2 5.9 5.9 0 0 1-1.5-.7 3.6 3.6 0 0 1-.5-.5 3.5 3.5 0 0 0 .4.6 5.8 5.8 0 0 0 1.4 1 6.7 6.7 0 0 0 3.4.7 9.3 9.3 0 0 0 3.4-1.1 11.5 11.5 0 0 0 1.4-.8l.6-.4-.6.3a12.9 12.9 0 0 1-1.6.5 13.4 13.4 0 0 1-3.2.6zm-5.8 6.5a28.4 28.4 0 0 1-2.5-2.3 14.3 14.3 0 0 1-1.5-1.8 12.5 12.5 0 0 0 1.2 2.1 13.8 13.8 0 0 0 2.2 2.7 15.2 15.2 0 0 0 3 1.8l1.5.7.7.2-.6-.4-1.4-.9-2.6-2.1z"/><path class="cls-9" d="M246.8 79.6a11.5 11.5 0 0 1 10.9-1"/><path class="cls-18" d="M257.6 78.6a17 17 0 0 0 3.1 12.1l12.6-19a31.8 31.8 0 0 0-15.7 6.9z"/><path class="cls-19" d="M277.7 71.4a39.6 39.6 0 0 0-4.1.2h-.3l-12.5 19a14.2 14.2 0 0 0 1 1.4c5.3-7 10.6-14 15.9-20.6z"/><path class="cls-18" d="M277.7 71.4A836 836 0 0 0 261.9 92a15.9 15.9 0 0 0 6.7 4 291.8 291.8 0 0 0 17.1-23.7 39 39 0 0 0-8-.9z"/><path class="cls-19" d="M285.7 72.3A291.8 291.8 0 0 1 268.5 96a19.4 19.4 0 0 0 3.7.8c6-7.8 11.3-16 17-23.6l-3.5-1z"/><path class="cls-18" d="M293.1 74.8a24.9 24.9 0 0 0-4-1.6c-5.7 7.7-10.9 15.8-17 23.6 11.3 1.2 24.4-6.7 21-22z"/><path class="cls-9" d="M273.6 71.6a31.7 31.7 0 0 0-16 7c-2.2 27 41.3 22.8 35.5-3.8 0 0-7.8-4.4-19.5-3.2z"/><path class="cls-3" d="M322.6 29.6c-4-8-10.7-9-10.7-9a18.8 18.8 0 0 1 .8 3.3c4.8 7.4 2 16.3-6 21-2.8 1.5-1.4 5.5.7 8.7 2.5 1.4 4.7 2.8 3.4 6-.5 1.4-1 1.6-.6 3s1.6 2.6 2 4.2c1 4.7-1.2 10.6-2.7 15a5 5 0 0 0 0 3.8c5 .3 6.4-4.7 7.5-9.7.3-5.5 1.6-10.9 5.6-14.8a7.1 7.1 0 0 1 6.5-2c.6-15.5-6.5-29.5-6.5-29.5z"/><path class="cls-10" d="M306.8 45c7.8-4.7 10.7-13.7 6-21 1 5.6-.4 12.4-5.8 15-3 1.4-6.9 3-7.1 7-.2 3.5 3.8 5.6 6.4 7l1.1.7c-2-3.3-3.5-7.3-.6-8.7z"/><path class="cls-4" d="M309.6 85.7a2.8 2.8 0 0 0 2 1.5c4 .8 5-4.4 5.3-7.2l.1-4c-1 5-2.5 10-7.4 9.7z"/><path class="cls-5" d="M301.7 50.9a21.9 21.9 0 0 0 3.7 2.4 25.8 25.8 0 0 1 4.1 2.5 2.9 2.9 0 0 1 1 2 5.5 5.5 0 0 1-.7 2.6 4.8 4.8 0 0 0-.3.8 2.5 2.5 0 0 0 0 1 5.5 5.5 0 0 0 .5 1.6 28.4 28.4 0 0 1 1.4 2.7 14.3 14.3 0 0 1 .2 6.3 48.4 48.4 0 0 1-1.7 6.5l-1 3.3a4.8 4.8 0 0 0 .5 3.6 3.2 3.2 0 0 0 1.5 1.2 4 4 0 0 0 1.8.3 3.8 3.8 0 0 0 3-2 11.3 11.3 0 0 0 1-3.2l.4-1.6.1-.9v-.8a41.7 41.7 0 0 1 .3-6 21.2 21.2 0 0 1 3.4-9.8 15.6 15.6 0 0 1 1.4-1.7 7.7 7.7 0 0 1 1.4-1.3 7 7 0 0 1 4.7-1.3l.7.1h-.7a7.2 7.2 0 0 0-2 0 7.3 7.3 0 0 0-2.9 1.1 7.9 7.9 0 0 0-1.4 1.3 15.8 15.8 0 0 0-1.4 1.7A21.5 21.5 0 0 0 317 73a42 42 0 0 0-.4 6.1v.8l-.1.7-.3 1.6a10.7 10.7 0 0 1-1.2 3 3 3 0 0 1-2.4 1.7 2.8 2.8 0 0 1-2.6-1.2 4 4 0 0 1-.3-3l1-3.2a49 49 0 0 0 1.8-6.6 15.2 15.2 0 0 0 0-6.8 26.4 26.4 0 0 0-1.5-2.9 4.4 4.4 0 0 1-.4-1.3 1.7 1.7 0 0 1 .3-1 6.7 6.7 0 0 0 .8-3.2 4.1 4.1 0 0 0-1.4-2.8 11.7 11.7 0 0 0-2.3-1.6l-2-1.3a21.3 21.3 0 0 1-3.4-2.3 5.4 5.4 0 0 1-2-3.1 4.8 4.8 0 0 1 .2-2.1 5 5 0 0 1 1.2-2 16 16 0 0 1 4.6-2.9 12.3 12.3 0 0 0 2.7-1.7 13.5 13.5 0 0 0 1.2-1.2 11.3 11.3 0 0 0 1-1.3 14.6 14.6 0 0 0 2-6.5 20 20 0 0 0-.7-6.9l-.1-.4v-.2s-.1-.2 0-.2h.2l.2.1.4.1a15.1 15.1 0 0 1 3 1.5A18 18 0 0 1 319 25a18.9 18.9 0 0 1 2.1 2.6 29 29 0 0 1 2.9 5.7 50 50 0 0 1 2 5.8 68.5 68.5 0 0 1 2.5 10.1l.5 4c.2 1.1.1 2.3.1 3.1V59v-5.7c0-1.2-.2-2.6-.4-4.1a68.5 68.5 0 0 0-2.2-10.3 64 64 0 0 0-2-5.8 29.6 29.6 0 0 0-3-6 19.5 19.5 0 0 0-2-2.6 18.6 18.6 0 0 0-2.7-2.2 16 16 0 0 0-3.1-1.7l-.4-.1a6.5 6.5 0 0 0-.7-.2 12.4 12.4 0 0 0-1.3-.3v.5l.2.7.2.6.1.4a19.1 19.1 0 0 1 .5 6.6 13.6 13.6 0 0 1-1.9 6 10.2 10.2 0 0 1-.8 1.2 12.5 12.5 0 0 1-1 1 11 11 0 0 1-2.5 1.5 17 17 0 0 0-5 3.1 6.3 6.3 0 0 0-1.6 2.5 6 6 0 0 0-.2 2.7 6.6 6.6 0 0 0 2.4 4zm-23.9 14.7a37.9 37.9 0 0 1 10-2h2.3a3.4 3.4 0 0 0 1-.1 2.3 2.3 0 0 0 1.6-1.3 3.4 3.4 0 0 0 .3-1.9 3.1 3.1 0 0 0-.8-1.8 3.5 3.5 0 0 0-1.6-1 10 10 0 0 0-3.4-.2 34.4 34.4 0 0 0-11.2 2.4 30 30 0 0 0-3.2 1.4l-1.1.7 1.2-.6a30.3 30.3 0 0 1 3.2-1.3 34.4 34.4 0 0 1 11-2 9.4 9.4 0 0 1 3.1.4 2.3 2.3 0 0 1 1.7 2 1.8 1.8 0 0 1-1.2 2.1 2.4 2.4 0 0 1-.6 0h-2.5a35.6 35.6 0 0 0-10.3 1.9 41.6 41.6 0 0 0-9.4 4.5l-5.4 3.8-1.3 1c-.4.4-.9.6-1.2.5s-.5-.5-.7-1a5.4 5.4 0 0 1 0-.7 1 1 0 0 1 0-.6 5 5 0 0 1 1-1.2l1.2-1 2.4-1.8 3.9-3.3a33.1 33.1 0 0 1 4-2.8 32.7 32.7 0 0 0-4 2.6l-4.2 3.1-2.4 1.8-1.2 1a5.5 5.5 0 0 0-1.2 1.3 1.6 1.6 0 0 0-.2 1 6.1 6.1 0 0 0 .1.8 3 3 0 0 0 .3 1 1.5 1.5 0 0 0 .9.6 1.6 1.6 0 0 0 1 0 4.5 4.5 0 0 0 .9-.5l1.3-1 5.4-3.6a45.2 45.2 0 0 1 9.3-4.2z"/><path class="cls-10" d="M243.7 73.3a35.7 35.7 0 0 0-9.7-6c-5.2-2-8.7-1.6-9.7-1.3a2 2 0 0 0-1 1.4c7 .8 15 1.8 20.7 6.7a1.2 1.2 0 0 0-.3-.8z"/><path class="cls-4" d="M225.2 72.3a3.6 3.6 0 0 0 1.5.2 29.5 29.5 0 0 1 10.2 1l1.6.6a12.8 12.8 0 0 0-13.3-1.8z"/><path class="cls-3" d="M244 74.2c-5.6-4.9-13.7-6-20.7-6.7a4.6 4.6 0 0 0 .1 2.6c.4 1.1.9 1.9 1.8 2.2a12.8 12.8 0 0 1 13.3 1.8c2.6 1.1 4.3 2.3 4.9 2s.6-1.6.6-2z"/><path class="cls-5" d="M224 69.5a3.8 3.8 0 0 1 0-2.4c.3-.4.4-.5 1-.6a9.5 9.5 0 0 1 1.9-.2 22.6 22.6 0 0 1 8 1.8 34.7 34.7 0 0 1 6.3 3.4c1.6 1 2.5 1.8 2.5 1.8l-2.4-2a34.1 34.1 0 0 0-6.1-3.9 22.7 22.7 0 0 0-8.3-2.2 10.4 10.4 0 0 0-2 0 3.2 3.2 0 0 0-1.1.4 2.3 2.3 0 0 0-.8.9 4.8 4.8 0 0 0-.4 3.3 6.3 6.3 0 0 0 .4 1 5.2 5.2 0 0 0 .6 1.1 2.8 2.8 0 0 0 1.3 1 3.9 3.9 0 0 0 1.6.2 33.9 33.9 0 0 1 6 0 20.1 20.1 0 0 1 6 1.4l2.5 1 1.2.6A1.1 1.1 0 0 0 244 75a3.7 3.7 0 0 0 0-1 1.4 1.4 0 0 0-.2-.6.6.6 0 0 0-.1-.1.6.6 0 0 1 0 .1 1.3 1.3 0 0 1 .2.6 3.6 3.6 0 0 1 0 1 1.4 1.4 0 0 1-.5 1c-.3 0-.7 0-1-.2l-1.1-.6-2.5-1.3a20.4 20.4 0 0 0-6.2-1.8 32.4 32.4 0 0 0-6.2-.3 1.9 1.9 0 0 1-1.7-.7 5.8 5.8 0 0 1-.8-1.6zm12 11.8a26.3 26.3 0 0 1 3 1.5 16.4 16.4 0 0 1 1.8 1.4 13.8 13.8 0 0 0-1.5-1.7 12.9 12.9 0 0 0-2.8-2 11.2 11.2 0 0 0-3.2-1 11.8 11.8 0 0 0-1.7-.1h-.6l.6.1a13.4 13.4 0 0 1 1.6.4 19.7 19.7 0 0 1 2.9 1.4z"/><path class="cls-5" d="M235.5 82.7a8.4 8.4 0 0 0-3.2.8 7 7 0 0 0-1.3.8 3.6 3.6 0 0 0-.5.5 3.8 3.8 0 0 1 .5-.4 7.5 7.5 0 0 1 1.5-.5 12.4 12.4 0 0 1 3-.3 18.9 18.9 0 0 1 3.2.2 14 14 0 0 1 1.5.2l.6.2-.6-.3a12.1 12.1 0 0 0-1.4-.6 10.6 10.6 0 0 0-3.3-.6zm4.3 8.9a6.7 6.7 0 0 0 1.2-2 6.6 6.6 0 0 0 .4-1.6 7.4 7.4 0 0 1-.7 1.4 10.8 10.8 0 0 1-1.4 1.8 12.2 12.2 0 0 1-1.6 1.5 10 10 0 0 1-1 .7l-.3.2.4-.1a8.7 8.7 0 0 0 1.1-.5 7.2 7.2 0 0 0 2-1.4zm-4.5-5.3a10.5 10.5 0 0 1-2 0 6.8 6.8 0 0 1-1.4-.2 6.5 6.5 0 0 0 3.4.9 6.3 6.3 0 0 0 2-.6 7.7 7.7 0 0 0 .9-.5l.3-.2h-.4a9.1 9.1 0 0 1-.9.4 11.7 11.7 0 0 1-2 .2z"/><path class="cls-6" d="M323.1 66.4c2.9-4.3 7.5-3.8 11-1a13.4 13.4 0 0 0-.5-2.5c-3.6-2.1-8.4-1.6-10.5 3.5zM319 85.6a3 3 0 0 0 .6 1.2c2 2.6 6.2 0 7.9-1.9a19.3 19.3 0 0 0 1.8-2.4c-3.4 2.6-7.5 5.5-10.4 3z"/><path class="cls-6" d="M334.1 69.4a17.5 17.5 0 0 0 0-4c-2.4-2-5.4-2.8-8-1.6 3.3-.8 6.6 1.8 8 5.6z"/><path class="cls-8" d="M326.1 63.8a7.1 7.1 0 0 0-3 2.6 9.3 9.3 0 0 1 .8-1.5c2.3-3.7 6.5-3.9 9.6-2-1-2.9-3-5-6.6-4.4-4 .6-6.7 5.5-8.1 9l5.4 14.5c-1.2-2.8-6 .5-5.3 3.6 3 2.5 7-.5 10.4-3a33 33 0 0 0 4.8-12.7v-.5c-1.4-3.8-4.7-6.4-8-5.6z"/><path class="cls-5" d="M334 73.6a27 27 0 0 0 .7-3.7 18 18 0 0 0 0-4.9 10.4 10.4 0 0 0-2.1-5 5.7 5.7 0 0 0-2.4-1.7 5.6 5.6 0 0 0-1.4-.3h-1.4a7.5 7.5 0 0 0-4.5 2.5 16 16 0 0 0-2.5 3.4 24 24 0 0 0-1.2 2.6l-.3 1 .4-1a24.3 24.3 0 0 1 1.3-2.5 15.8 15.8 0 0 1 2.5-3.2 7 7 0 0 1 4.3-2h1.2a4.4 4.4 0 0 1 3.2 1.8 9.6 9.6 0 0 1 1.7 4.6 20.7 20.7 0 0 1-.8 8.1 35.2 35.2 0 0 1-3 7.7 19 19 0 0 1-3 4.2 8.6 8.6 0 0 1-4.5 2.4 2.7 2.7 0 0 1-3.1-2.6 4.3 4.3 0 0 1 1.9-3.4 2.4 2.4 0 0 1 2.6-.4 1.8 1.8 0 0 1 .6.7 1.8 1.8 0 0 0-.6-.8 2.5 2.5 0 0 0-2.7.3 5.2 5.2 0 0 0-1.4 1.4 4 4 0 0 0-.8 2.2 3.2 3.2 0 0 0 3.6 3.2 9.3 9.3 0 0 0 5-2.5 19.5 19.5 0 0 0 3.4-4.2 32 32 0 0 0 3.3-8z"/><path class="cls-5" d="M320.3 72.5a24 24 0 0 1 1-2.2 20.2 20.2 0 0 1 3-4.7 7.3 7.3 0 0 1 2.6-1.8 5.4 5.4 0 0 1 2.9-.3 6.5 6.5 0 0 1 3.8 2.6l1.1-.8a7.5 7.5 0 0 0-1.8-1.7 6.5 6.5 0 0 0-2.9-1.2 6.3 6.3 0 0 0-3.5.5 8 8 0 0 0-2.6 2.3 20 20 0 0 0-2.8 5 23 23 0 0 0-.8 2.3z"/><path class="cls-18" d="M224.8 81a19.8 19.8 0 0 0-.2 6c1.6-2.8 3.2-5.6 4.5-8.4a22.3 22.3 0 0 0-4.3 2.4z"/><path class="cls-19" d="M231.3 77.8a20.5 20.5 0 0 0-2.2.8c-1.3 2.7-2.9 5.5-4.5 8.3a18.3 18.3 0 0 0 .5 2.6c1.8-3.9 4-7.8 6.2-11.7z"/><path class="cls-18" d="M231.3 77.8c-2.2 4-4.4 7.8-6.2 11.7a14 14 0 0 0 2.1 4.6c3.4-6 7.5-11.4 11.3-17a20 20 0 0 0-7.2.7z"/><path class="cls-19" d="M238.5 77.2c-3.8 5.6-8 11-11.3 17a10.8 10.8 0 0 0 1.2 1.3c3.3-6.8 8.9-11.8 13.7-17.6a21.6 21.6 0 0 0-3.6-.7z"/><path class="cls-18" d="M246.8 79.7a19.2 19.2 0 0 0-4.7-1.9c-4.8 5.8-10.4 10.8-13.7 17.7a9.5 9.5 0 0 0 5.8 2.7c9.7 1 14-10.1 12.6-18.5z"/><path class="cls-9" d="M246.8 79.7a20.8 20.8 0 0 0-22 1.2c-1.4 7.3 1.4 16.5 9.4 17.3 9.7 1 14-10.1 12.6-18.5z"/><path class="cls-3" d="M259.3 14a44 44 0 0 0-7.8 1.2 52.7 52.7 0 0 0-9.5 3.3 49.9 49.9 0 0 0-7.4 4.2 29.4 29.4 0 0 0-2.8 2.2 30.5 30.5 0 0 1 3-1.9 51.9 51.9 0 0 1 7.6-3.4 56.9 56.9 0 0 1 9.4-2.5 63.2 63.2 0 0 1 7.6-.8 62.4 62.4 0 0 1 7.6-.1 61 61 0 0 1 9.6 1.3 67.9 67.9 0 0 1 8.1 2.3l3.4 1.3-3.2-1.6a64 64 0 0 0-7.9-3 56.1 56.1 0 0 0-9.8-2.2 43.6 43.6 0 0 0-8-.3z"/><path class="cls-3" d="M261.5 7.2a39.8 39.8 0 0 0-8 .6 48.5 48.5 0 0 0-9.9 3 47.8 47.8 0 0 0-7.8 4 29.3 29.3 0 0 0-3 2 30.4 30.4 0 0 1 3.2-1.7 49.5 49.5 0 0 1 8-3.3 51.4 51.4 0 0 1 9.7-2 55.5 55.5 0 0 1 25.2 3 62.4 62.4 0 0 1 7.8 3.5L290 18l-3-2.1a59.4 59.4 0 0 0-7.6-4.3 50.3 50.3 0 0 0-9.7-3.4 39.6 39.6 0 0 0-8-1.1z"/><path class="cls-20" d="M334.5 65.4V65a10.3 10.3 0 0 0-2-5 5.6 5.6 0 0 0-2.4-1.6l-1-.3v-1.6l-.1-3c0-1.2-.2-2.6-.5-4.1a68.5 68.5 0 0 0-2.1-10.4 67 67 0 0 0-3.3-8.8 15.3 15.3 0 0 0-.7-1.5 14 14 0 0 0-.9-1.4 19.5 19.5 0 0 0-2.1-2.7 18.6 18.6 0 0 0-2.7-2.2 15.9 15.9 0 0 0-3-1.6l-.5-.2h-.2l-.3-.2h-.3a75.8 75.8 0 0 0-8.5-9.4c-8-7.5-27.3-9-38.5-5.4-1.7.5-3.3 1-4.9 1.7a41.2 41.2 0 0 0-7.1.6 48.7 48.7 0 0 0-9.9 2.8 48 48 0 0 0-7.7 4 29.4 29.4 0 0 0-3 2.2A30.3 30.3 0 0 1 236 15a49.3 49.3 0 0 1 8-3.3 51.2 51.2 0 0 1 9.7-2.1l2.3-.3a63.5 63.5 0 0 0-14.8 9.7 49.7 49.7 0 0 0-6.6 3.8 29.5 29.5 0 0 0-2.9 2.2 30.4 30.4 0 0 1 3-2 49 49 0 0 1 4.6-2.2 40.3 40.3 0 0 0-5.9 7.2 61.9 61.9 0 0 0-3 5.3 29.5 29.5 0 0 0-2.8 3l-1.1 1.6-1 1.7-2 3.6a20.2 20.2 0 0 0-2.6 8.3 10.5 10.5 0 0 0 .9 4.3l1.5 3.8a26 26 0 0 1 1.1 3.7 11.8 11.8 0 0 1 .3 1.8v.3a2.8 2.8 0 0 0-1 .3 2.2 2.2 0 0 0-.8.8 4.8 4.8 0 0 0-.3 3.2 7.3 7.3 0 0 0 .5 1.4 3.4 3.4 0 0 0 1.2 1.4 3 3 0 0 0 1.4.4c.3 2.6.8 4.6 1.7 5.8a23.2 23.2 0 0 0-3 1.8.5.5 0 0 0-.2.3c-1 5 0 10.3 2.6 13.7a10.4 10.4 0 0 0 3.4 3 132 132 0 0 0 10.7 25.9c8 16.5 16.6 20.8 18.5 21.6.2 1.7 1.2 8.1 5.7 9.2a8 8 0 0 0 1.9.2 30.6 30.6 0 0 0 10.6-2.6 55.9 55.9 0 0 0 16.3-10.2 176 176 0 0 0 23.8-27.2l.4-.7c3.4-5 9-13.2 10.5-29.6a23.1 23.1 0 0 0 1.9-2.7 32.2 32.2 0 0 0 3.3-7.9 27.2 27.2 0 0 0 .8-3.7 18.1 18.1 0 0 0 0-4.4zm-1.7-3h.1z"/><path class="cls-21" d="M44 195c0-.5.3-1 1.1-1.5l3-1.8 3.8-2.3 4-2.6a26.6 26.6 0 0 0 3.4-3 7.6 7.6 0 0 0 2-3q-.2-.9-1.4-1a14.5 14.5 0 0 0-3.1 0q-1.9.1-4.3.5t-4.8.7l-5 .3a16.8 16.8 0 0 1-4.5-.5 8.7 8.7 0 0 1-3.5-1.8 6.3 6.3 0 0 1-2-3.4 11 11 0 0 1-.2-4.6 19.7 19.7 0 0 1 1.5-4.7 27.2 27.2 0 0 1 2.7-4.7 29.5 29.5 0 0 1 3.5-4 24.6 24.6 0 0 1 3.9-3.2 13.6 13.6 0 0 1 3.9-1.7l1-.3a4.2 4.2 0 0 1 1-.2 1.2 1.2 0 0 1 .8.2 1.6 1.6 0 0 1 .6 1 2.6 2.6 0 0 1-.5 2.5 4.7 4.7 0 0 1-2.4 1.4l-2.6-1a6.9 6.9 0 0 0-2.6 1.4 18.6 18.6 0 0 0-2.6 2.7 27.4 27.4 0 0 0-2.4 3.6 25.9 25.9 0 0 0-1.8 3.9 19.3 19.3 0 0 0-1 3.8 8.2 8.2 0 0 0 0 3.2 4.6 4.6 0 0 0 1.9 2.9 7.6 7.6 0 0 0 3.4 1.1 19.7 19.7 0 0 0 4.4 0l4.9-.6 4.8-.8a23.5 23.5 0 0 1 4.3-.4 8.7 8.7 0 0 1 3.3.6 2.8 2.8 0 0 1 1.6 2 1.7 1.7 0 0 1 .3 2.1 10.4 10.4 0 0 1-2.1 3 38.8 38.8 0 0 1-3.7 3.4q-2.2 1.8-4.6 3.4t-4.6 2.8a28.4 28.4 0 0 1-4 1.9 1.3 1.3 0 0 1-1-.2q-.4-.3-.4-1.2zm41.3-23.6q0 2.2-.3 4.9a26 26 0 0 1-1.2 5.2 14.5 14.5 0 0 1-2.3 4.5 7.2 7.2 0 0 1-4 2.6 5.7 5.7 0 0 1-3.3 0 5.6 5.6 0 0 1-2.5-1.7A12 12 0 0 1 70 184a29.2 29.2 0 0 1-1.3-3.2l-.6-2.2q-.4-1.7-1.2-4l-1.4-5-1.4-4.8-1.1-4-.7-2.3a2 2 0 0 1-.1-.8.8.8 0 0 1 .3-.6 1.8 1.8 0 0 1 .6-.3l.6-.2.4-.1a3.3 3.3 0 0 1 .7-.1 1.1 1.1 0 0 1 .5.1.7.7 0 0 1 .4.5l6 23.7a7 7 0 0 0 .8 2 7.6 7.6 0 0 0 1.3 1.6 5 5 0 0 0 1.8 1 3.4 3.4 0 0 0 2 .1 5.1 5.1 0 0 0 3-3.2 20.8 20.8 0 0 0 1.4-5.8 51 51 0 0 0 0-7.4q-.1-3.9-.4-7.5t-.6-6.4a15.7 15.7 0 0 1 0-4q.8-1.2 1.6-.9a3 3 0 0 1 1.2 1.2 8.7 8.7 0 0 1 1 2 5.1 5.1 0 0 1 .3 1.7q.9 3.7 1.5 7.5t1.4 7.6q.6 2.4 1.4 4.7t1.7 4.7l1.8 4.6q.8 2.3 1.4 4.7a8.1 8.1 0 0 1 .2 1 2.7 2.7 0 0 1 0 .9 2.1 2.1 0 0 1-.4.8 1.5 1.5 0 0 1-.8.5 2.4 2.4 0 0 0-.4 0zm-.1-32.3h1.2l.8-.2h.4a6.3 6.3 0 0 1 .9-.1.6.6 0 0 1 .7.5l1.2 4.9a7.3 7.3 0 0 0 2-1.6 29.1 29.1 0 0 1 2.4-2.4 20.7 20.7 0 0 1 3.4-2.3 13.4 13.4 0 0 1 4.6-1.5 19.8 19.8 0 0 1 6.5.5 3.6 3.6 0 0 1 2.6 2 4.3 4.3 0 0 1-.4 3.2 21.8 21.8 0 0 1-2.5 4 55 55 0 0 1-3.8 4.4l-4.1 4.4-3.7 4a18.6 18.6 0 0 0-2.4 3.2q1 .1 2.9.6l4.2 1 4.8 1q2.5.7 4.7 1.1l4 .9a22.9 22.9 0 0 0 2.4.4l1.2.2c.4 0 .6.2.9.3l.4.4a2 2 0 0 1 0 .6 2.5 2.5 0 0 1-.2.9 4.5 4.5 0 0 1-.4.7 1 1 0 0 1-.6.4h-.4l-.9-.2-1.5-.3a23.4 23.4 0 0 0-2.4-.6l-2.2-.3-3.4-.7-4-.8-4-.9-3.4-.7a10.4 10.4 0 0 0-2.2-.2l4.3 17-2.5.6zm6.1 8.7l.4 2.4.5 2.8.5 3 .6 2.7a6.3 6.3 0 0 1 1.3-1.3l2.8-2.5 3.5-3.3q2-1.8 3.5-3.6a36 36 0 0 0 2.8-3.4 6.7 6.7 0 0 0 1.3-2.9 1.8 1.8 0 0 0-1-1.8 7.2 7.2 0 0 0-4-.5 16.3 16.3 0 0 0-3.3 1 21.4 21.4 0 0 0-3.6 2 21.1 21.1 0 0 0-3.2 2.5 9.6 9.6 0 0 0-2 2.9zm34.1 27l-3.3-12q-1.3-5-2.4-8.5L118 149l-1-3.2-.5-1.7a10 10 0 0 1-.4-1q-.2-1 .3-1.4a3.5 3.5 0 0 1 1.3-.6 2.7 2.7 0 0 1 1.6 0q.6.3 1 1.8l8.7 29.6.5-.2a12.3 12.3 0 0 0 1-.6l1.3-.9a10.5 10.5 0 0 0 1-.7l1.9-1.4 2.6-2.2 3.1-2.5 3.2-2.5 2.7-2.2 1.7-1.4.7-.2a4.2 4.2 0 0 1 .7-.1 1 1 0 0 1 .6.1 1.2 1.2 0 0 1 .4.6 2.2 2.2 0 0 1 0 1 8.8 8.8 0 0 1-.3 1 24.2 24.2 0 0 0-5.8 3.9q-2.8 2.4-5.4 5a66.7 66.7 0 0 1-5.5 4.6 16.8 16.8 0 0 1-6 3q-1.5.3-2-1.9zm38.8-9a13.3 13.3 0 0 1-.4-4q.1-2.2.4-4.3t.2-4.2a12 12 0 0 0-.6-4.1l-4.6-3q-2.6-1.6-5-3.4a54.7 54.7 0 0 1-4.6-3.8 27.7 27.7 0 0 1-3.9-4.2.2.2 0 0 1 0-.2l-.1-.2a1 1 0 0 1 .3-1 2.7 2.7 0 0 1 1-.5l4 3.1 4.5 3.6 4.6 3.2a25 25 0 0 0 4.3 2.4l.7-.2a17 17 0 0 0 .3-2.1l.4-4 .5-5.1.5-5.5.2-5v-3.8l.3-.2a1.6 1.6 0 0 1 1.5.4 2.2 2.2 0 0 1 .8 1.5l-.2 9.3-.3 6q0 2.3-.2 3.7t-.3 2.7l-.3 2.9-.3 4-.6 6.7-.6 10.2-.3.1-.4.1a1.3 1.3 0 0 1-1.8-1.1zm11.3-30.4q-1.3-5-2.4-10.2t-2.1-10.5a1.2 1.2 0 0 1 .2-.7 1.2 1.2 0 0 1 .6-.3 1 1 0 0 1 .9.1 1.9 1.9 0 0 1 .5.6 3.4 3.4 0 0 1 .2.9l.2.8 4.3 17a14.7 14.7 0 0 0 .7 2l1 2.2a19.8 19.8 0 0 1 .8 2 4.3 4.3 0 0 1 .3 1.7 1.8 1.8 0 0 1-.4 1.2 1.8 1.8 0 0 1-1 .8 1.4 1.4 0 0 1-1.7-.7 8 8 0 0 1-1-2.2 22.2 22.2 0 0 1-.7-2.7l-.4-2zm10 25l-.2-.9a3.3 3.3 0 0 1 0-.5 1.3 1.3 0 0 1 0-.6.6.6 0 0 1 .5-.4q1-.3 1.4.2a3.8 3.8 0 0 1 .5 1.2 3.7 3.7 0 0 1 .1 1.3q0 .6-1.1.9a.6.6 0 0 1-.6-.1 1.3 1.3 0 0 1-.4-.5 3.3 3.3 0 0 1-.2-.6zM27.1 98.9l2.5 12.3-4.3.8L23 99.7l-3.9.8-.7-3.5 12-2.4.7 3.5zm18.3-7.3l3.2 15.8-4.3.8-1.3-6.4-5 1 1.3 6.4-4.3.9-3.2-15.8 4.3-.9 1.2 5.9 5-1-1.2-5.9zm14.7 9.8l.7 3.5-9.3 1.9L48.3 91l9.4-1.9.7 3.4-5.1 1 .5 2.5 4.7-1 .7 3.5-4.8 1 .6 3zm1.7-1.4a12.4 12.4 0 0 0 2.8.4 9.5 9.5 0 0 0 2.3-.1 2.7 2.7 0 0 0 1.4-.6 1 1 0 0 0 .3-1 1 1 0 0 0-.3-.6 2.4 2.4 0 0 0-.6-.3 22.3 22.3 0 0 0-2.3-.6 11.1 11.1 0 0 1-2.6-1 4.5 4.5 0 0 1-2.3-3.1 4.2 4.2 0 0 1 1-3.8 7.2 7.2 0 0 1 4-2 12.5 12.5 0 0 1 5.3 0L70 91a9.7 9.7 0 0 0-4-.2 2.1 2.1 0 0 0-1.1.5.9.9 0 0 0-.3.8 1 1 0 0 0 .7.7 17.8 17.8 0 0 0 2.8.8 7.5 7.5 0 0 1 3.3 1.4 4.3 4.3 0 0 1 1.3 2.5 4.5 4.5 0 0 1-1 4 7 7 0 0 1-4.2 2.3 13.3 13.3 0 0 1-2.7.3 10.1 10.1 0 0 1-2.4-.3zm22.7-3.5l.7 3.5-9.4 1.9L72.7 86l9.3-2 .7 3.5-5.1 1 .5 2.5 4.7-1 .7 3.4-4.7 1 .6 3zm13 1l-4.3.9L90 82.6l4.3-.9zM113 87.2l-.7-4.5h-.1l-1 12-4 .9-5.5-10.8h-.1q.8 2.8 1.1 4.5l1.4 6.8-3.8.8-3.2-15.8L103 80l5.5 10.6 1-12 5.8-1 3.2 15.7-4 .8zm22.7 2.6l-4.7 1-1.3-2.8-5.2 1-.2 3.1-4.7 1 2-17 5.7-1zm-11-4.5l3.3-.6-3-6.5-.3 7.1zm16.8-2.8l-.7-3.3 6.9-1.4 1.7 8.5a19 19 0 0 1-6 2.2 7.5 7.5 0 0 1-6-1 8.6 8.6 0 0 1-3.2-5.6 8.2 8.2 0 0 1 1-6.4 8.5 8.5 0 0 1 5.7-3.4 12.8 12.8 0 0 1 5.3 0l-.7 3.6a8.3 8.3 0 0 0-3.8 0 3.8 3.8 0 0 0-2.7 1.7 5.3 5.3 0 0 0-.4 3.7 5.5 5.5 0 0 0 1.6 3.2 3.3 3.3 0 0 0 3 .6 7.3 7.3 0 0 0 1.6-.5l-.5-2.5zm19.4-1.3l.7 3.4-9.4 2-3.2-15.9 9.4-1.9.7 3.5-5.1 1 .5 2.5 4.7-1 .7 3.4-4.7 1 .6 3zm1.6-1.5a12.4 12.4 0 0 0 2.8.4 9.5 9.5 0 0 0 2.4 0 2.7 2.7 0 0 0 1.4-.7 1 1 0 0 0 .3-1 1 1 0 0 0-.3-.5 2.4 2.4 0 0 0-.7-.4 22.3 22.3 0 0 0-2.2-.6 11.1 11.1 0 0 1-2.7-.9 4.5 4.5 0 0 1-2.2-3.2 4.2 4.2 0 0 1 .9-3.7 7.2 7.2 0 0 1 4.1-2.1 12.5 12.5 0 0 1 5.2.1l-.6 3.6a9.7 9.7 0 0 0-4-.3 2.1 2.1 0 0 0-1.1.6.9.9 0 0 0-.3.8 1 1 0 0 0 .7.7 17.8 17.8 0 0 0 2.8.8 7.5 7.5 0 0 1 3.3 1.4 4.3 4.3 0 0 1 1.3 2.5 4.5 4.5 0 0 1-1 4 7 7 0 0 1-4.2 2.3 13.3 13.3 0 0 1-2.8.3 10.1 10.1 0 0 1-2.3-.3zm-122 52.4l-4.2.9-1.3-2.6-4.6 1-.2 2.8-4.2.8 1.8-15.3 5.1-1zm-10-4.1l3-.6-2.7-5.8-.3 6.4zm14-2l1 5.1-3.9.8-2.9-14.3 4.7-1q5.8-1.1 6.7 3a4.3 4.3 0 0 1-1.6 4.4l5.4 5.4-4.4.9-4-4.6zm-1.3-6.3l.7 3.3.7-.1q2-.4 1.7-2.2-.3-1.5-2.3-1.1zm19.6 4.7l.6 3.1-8.4 1.7-2.9-14.3 8.5-1.7.6 3.1-4.6 1 .4 2.2 4.3-.9.6 3.1-4.3.9.6 2.7zm19.2-7.2l-.6-4-.9 10.9-3.7.7-5-9.7 1 4 1.2 6.3-3.4.7-2.9-14.3 5.1-1 5 9.5h.1l1-10.7 5-1 3 14.3-3.6.7zm20.6 2.4l-4.3.9-1.2-2.6-4.6 1-.2 2.8-4.3.8 1.8-15.2 5.2-1zm-10-4l3-.6-2.6-6-.3 6.5zm15 3l-3.9.8-2.8-14.3 3.8-.7 1.3 6.2a16.1 16.1 0 0 1 .8-2.1l2.1-5 4.2-.9-3.2 7.3 6 7-4.3.9-4-4.9-1 1zM121 116l-3.9.7-2.8-14.3 3.8-.7zm13.3-17.6l3 14.3-5.1 1-7.3-9 .8 3.5 1.3 6.5-3.4.7-2.9-14.3 5-1 7.3 8.9-.8-3.4L131 99zm3.4-.6l3.3-.7.2.2a38.2 38.2 0 0 1-.6 5.8l-2.7.6q0-3.3-.2-6zm25.4 3.2l-.6-4h-.1l-.8 10.8-3.7.7-5-9.7h-.1l1 4 1.2 6.2-3.4.7-2.9-14.3 5.2-1 5 9.6 1-10.7 5-1 3 14.2-3.6.8zm15.3.1l.6 3.2-8.5 1.7-2.8-14.3L176 90l.7 3.1-4.7 1 .5 2.2 4.3-.9.6 3.1-4.3.9.5 2.6z"/><path class="cls-22" d="M4.7 147.7c-3.4 3.3-2.1 8-1.2 10.4a7.5 7.5 0 0 0 1.2 2c-3.2-5.8-1.3-14 6.2-15.3a9.5 9.5 0 0 0-6.2 3z"/><path class="cls-23" d="M8.1 154.6a6.5 6.5 0 0 1-.3-3.4 1.8 1.8 0 0 0-.3.6c-1 3.7 2.5 7.3 6.2 7.5a8.5 8.5 0 0 1-1.7-.8c-1.7-1-3.3-2-3.9-3.9zM19.3 167c.8 0 2-.3 3.5-.5 4.8-1 9-5.8 10.5-9.3l.3-.7A19.4 19.4 0 0 1 19.2 167zm2.5-14.3c-1.5-.5-1.9-1.4-2.1-2.8a5.2 5.2 0 0 0-.5-1.6 2.7 2.7 0 0 0-.2-.3 12.2 12.2 0 0 1 0 1.9 3.4 3.4 0 0 0 4 3.3 6.7 6.7 0 0 0 2.2-.9 3.8 3.8 0 0 1-3.4.4zm3.6-7.6a12.6 12.6 0 0 1 1.8 3.9 3.1 3.1 0 0 1 0 .3 1.5 1.5 0 0 0 0-1c-.5-2.2-1.8-4.6-4-5.2a5 5 0 0 1 2.2 2zm-11.2 7a4.3 4.3 0 0 0 1.2 1.8 3.4 3.4 0 0 1 1 1.2 2.5 2.5 0 0 1 .2.8 1.4 1.4 0 0 0-.4-1.7c-1.5-1.2-1.9-3.5-3.5-4.7a3.7 3.7 0 0 0-1.3-.4 5.4 5.4 0 0 1 2.8 3zm7.2 2.9a3.8 3.8 0 0 1 2 .8l.4.2c-.2-1-1.4-1.2-2.4-1z"/><path class="cls-22" d="M22.6 137.6a7.3 7.3 0 0 0-5.3 1.7 10.2 10.2 0 0 0-2 2.5 11.8 11.8 0 0 1 7.3-4.2z"/><path class="cls-23" d="M29 140.7a24.8 24.8 0 0 1 4.9 14.5 15.5 15.5 0 0 0-1.8-10.8 13.7 13.7 0 0 0-3.1-3.7z"/><path class="cls-22" d="M26 154a7.8 7.8 0 0 1 4.6-3.3A5.4 5.4 0 0 0 26 154zm.8 2.5c-2.3 1.5-4.4 3.4-6.9 4.6 3.7-1 6.4-4.2 10.1-4.5a3.2 3.2 0 0 0-3.3 0z"/><path class="cls-24" d="M29 140.7a17.4 17.4 0 0 0-5-2.7 5.8 5.8 0 0 0-1.5-.4 11.8 11.8 0 0 0-7.2 4.2 28.7 28.7 0 0 0-1.6 3 21.5 21.5 0 0 0-2.9 0c-7.5 1.3-9.4 9.5-6.1 15.2a18.8 18.8 0 0 0 4.4 3.8 16 16 0 0 1 1.4 1 6.6 6.6 0 0 0 1.6.4c-.1.4.1 1 .2 1.2.2 1.9 2 2 3.6 1.3a6 6 0 0 0 .5-.7 10.4 10.4 0 0 0 2.8 0c6-1.1 11.7-4.8 14.3-10.6a11.5 11.5 0 0 0 .3-1.2 24.8 24.8 0 0 0-4.8-14.5zm-5.9-1.8c-2.5 0-4.8 1.6-6.5 3.4 1.5-2.2 4-4.2 6.5-3.4zm-4 11a12.2 12.2 0 0 0 0-1.9 3.3 3.3 0 0 1-1-1.5 3.1 3.1 0 0 1 1.7-2.8 3.4 3.4 0 0 1 3.4-.5c2.2.6 3.6 3 4.1 5.2a1.5 1.5 0 0 1 0 1c.1 1-.4 1.7-1.3 2.4a6 6 0 0 1-.8.6 6.7 6.7 0 0 1-2.2.8 3.4 3.4 0 0 1-4-3.3zm.5 6.8a3 3 0 0 1 .2-.8 1.6 1.6 0 0 1 1.6-.8c1-.2 2.1 0 2.4 1a.6.6 0 0 1 .2.7c-.1.6-1.5 1.6-2 2s-1.7 1.4-2.6 1.4c-.3.2-.6.3-.8 0-1.2-1.1.4-2.4 1-3.5zm-12.2-5a1.8 1.8 0 0 1 .4-.5v-.2c.5-1 2-2.3 3.2-2a3 3 0 0 1 .4 0 3.7 3.7 0 0 1 1.3.5c1.6 1.2 2 3.5 3.5 4.7a1.4 1.4 0 0 1 .4 1.7 5.3 5.3 0 0 1-1 3.1 1.8 1.8 0 0 1-2 .3c-3.6-.2-7-3.8-6.2-7.5zm6.2 11c1-1.3 2.2-2.7 3.6-2.4-1.5.2-2.6 1.3-3.6 2.4zM20 161c2.6-1.2 4.6-3.1 6.9-4.6a3.2 3.2 0 0 1 3.2 0c-3.7.4-6.4 3.6-10 4.6zm6-7a5.4 5.4 0 0 1 4.7-3.4A7.8 7.8 0 0 0 26 154z"/><path class="cls-22" d="M13.6 162.7c1-1 2.1-2.2 3.6-2.4-1.4-.3-2.7 1.1-3.6 2.4zm9.5-23.7c-2.5-.9-5 1-6.5 3.3 1.7-1.8 4-3.4 6.5-3.4z"/><path class="cls-23" d="M18.6 159.5c-.2-.4.2-1 .4-1.3a8.5 8.5 0 0 0 .6-1.2 1.9 1.9 0 0 0 0-.3c-.6 1.1-2.2 2.4-1 3.4.2.2.5.2.8 0a.9.9 0 0 1-.8-.6zm-6.3 6.9c0-.3-.3-.8-.1-1.2a6.6 6.6 0 0 1-1.6-.5 12.9 12.9 0 0 1 1.2 1c-.4 2.4 1 3 2.3 3a2.6 2.6 0 0 0 1.9-1c-1.6.6-3.4.6-3.7-1.3z"/><g class="cls-25"><path class="cls-26" d="M3.2 151.8a1.7 1.7 0 0 0-.3.4l.5.3.3-.4a4.1 4.1 0 0 0-.5-.3z"/><path class="cls-27" d="M3 151.9a1.7 1.7 0 0 0-.2.4l.5.3.2-.4a1 1 0 0 0-.4-.3z"/><path class="cls-28" d="M3.2 151.8l-.1.1a1 1 0 0 1 .4.3l-.2.4.3-.4a4.1 4.1 0 0 0-.4-.4z"/></g><g class="cls-25"><path class="cls-26" d="M6.3 156.2h-.1a1.7 1.7 0 0 0-.2.5l.4.3.3-.4a4.1 4.1 0 0 0-.5-.4z"/><path class="cls-27" d="M6.1 156.3a1.7 1.7 0 0 0-.2.5l.4.3.2-.4a1 1 0 0 0-.4-.3z"/><path class="cls-28" d="M6.2 156.2v.2a1 1 0 0 1 .3.3c0 .1 0 .3-.2.4s.3-.4.3-.5a4.1 4.1 0 0 0-.4-.4z"/></g><g class="cls-25"><path class="cls-26" d="M5.6 147.3a1.4 1.4 0 0 0-.2.4l.4.2.2-.4a3.5 3.5 0 0 0-.4-.2z"/><path class="cls-27" d="M5.5 147.4a1.4 1.4 0 0 0-.2.3l.4.3c.1 0 0-.2.2-.3a.8.8 0 0 0-.4-.3z"/><path class="cls-28" d="M5.6 147.3a.8.8 0 0 1 .3.4l-.2.3.3-.4a3.5 3.5 0 0 0-.4-.3z"/></g><g class="cls-25"><path class="cls-26" d="M19 153.4a1.7 1.7 0 0 0-.2.5l.4.3.4-.4a4.1 4.1 0 0 0-.6-.4z"/><path class="cls-27" d="M18.9 153.5a1.7 1.7 0 0 0-.2.4l.4.4.2-.5a1 1 0 0 0-.4-.3z"/><path class="cls-28" d="M19 153.4v.1a1 1 0 0 1 .3.4l-.2.4.3-.5a4.1 4.1 0 0 0-.4-.4z"/></g><g class="cls-25"><path class="cls-26" d="M17 147.5a1.3 1.3 0 0 0-.2.3l.3.2.3-.3a3.1 3.1 0 0 0-.4-.2z"/><path class="cls-27" d="M17 147.6a1.3 1.3 0 0 0-.2.3l.3.2.1-.3a.7.7 0 0 0-.3-.2z"/><path class="cls-28" d="M17 147.5a.7.7 0 0 1 .3.3l-.2.3.2-.3a3.1 3.1 0 0 0-.3-.3z"/></g><g class="cls-25"><path class="cls-26" d="M14.4 150.9a1.4 1.4 0 0 0-.2.4l.3.2.3-.4a3.4 3.4 0 0 0-.4-.2z"/><path class="cls-27" d="M14.2 151a1.4 1.4 0 0 0-.1.3l.3.3.2-.3a.8.8 0 0 0-.4-.3z"/><path class="cls-28" d="M14.3 150.9a.8.8 0 0 1 .3.3c0 .2 0 .3-.2.4l.3-.4a3.4 3.4 0 0 0-.4-.3z"/></g><g class="cls-25"><path class="cls-26" d="M11.7 146.5a1.7 1.7 0 0 0-.3.4l.4.3.4-.4a4.1 4.1 0 0 0-.5-.3z"/><path class="cls-27" d="M11.6 146.6a1.7 1.7 0 0 0-.3.4l.5.3c0-.1 0-.3.2-.4a1 1 0 0 0-.4-.3z"/><path class="cls-28" d="M11.6 146.5a1 1 0 0 1 .4.4l-.2.4.3-.5a4.1 4.1 0 0 0-.5-.3z"/></g><g class="cls-25"><path class="cls-26" d="M17.9 141.5a1 1 0 0 0-.1.2l.2.3.2-.3a2.5 2.5 0 0 0-.3-.2z"/><path class="cls-27" d="M17.8 141.5a1 1 0 0 0-.1.3l.3.2v-.3a.6.6 0 0 0-.2-.2z"/><path class="cls-28" d="M17.9 141.5a.6.6 0 0 1 .2.2l-.1.3.1-.3a2.5 2.5 0 0 0-.2-.2z"/></g><g class="cls-25"><path class="cls-26" d="M26 140.4a1.7 1.7 0 0 0-.2.4l.4.3.4-.4a4.1 4.1 0 0 0-.6-.3z"/><path class="cls-27" d="M25.9 140.5a1.7 1.7 0 0 0-.2.4l.4.3.2-.4a1 1 0 0 0-.4-.3z"/><path class="cls-28" d="M26 140.4v.1a1 1 0 0 1 .3.3c0 .2 0 .3-.2.4l.3-.4a4.1 4.1 0 0 0-.4-.4z"/></g><g class="cls-25"><path class="cls-26" d="M22 139.4a1.5 1.5 0 0 0-.2.4l.4.3.3-.5a3.7 3.7 0 0 0-.4-.2z"/><path class="cls-27" d="M22 139.5a1.5 1.5 0 0 0-.3.3l.4.3.2-.3a.8.8 0 0 0-.4-.3z"/><path class="cls-28" d="M22 139.4a.8.8 0 0 1 .3.4s0 .2-.2.3.2-.3.3-.4a3.7 3.7 0 0 0-.4-.3z"/></g><g class="cls-25"><path class="cls-26" d="M29.7 145.3a1.7 1.7 0 0 0-.3.5l.4.3.4-.5a4.1 4.1 0 0 0-.5-.3z"/><path class="cls-27" d="M29.5 145.4a1.7 1.7 0 0 0-.2.4l.4.3.2-.4a1 1 0 0 0-.4-.3z"/><path class="cls-28" d="M29.6 145.3v.1a1 1 0 0 1 .4.3l-.2.5.3-.5a4.1 4.1 0 0 0-.5-.4z"/></g><g class="cls-25"><path class="cls-26" d="M31.7 152.3a1.7 1.7 0 0 0-.3.5l.5.3.3-.4a4.1 4.1 0 0 0-.5-.4z"/><path class="cls-27" d="M31.6 152.4a1.7 1.7 0 0 0-.3.5l.5.3.2-.4a1 1 0 0 0-.4-.4z"/><path class="cls-28" d="M31.7 152.3l-.1.2a1 1 0 0 1 .4.3c-.1.1 0 .3-.2.4s.3-.4.3-.5a4.1 4.1 0 0 0-.4-.4z"/></g><g class="cls-25"><path class="cls-26" d="M25 153.8a1 1 0 0 0-.2.2l.2.2.2-.3a2.4 2.4 0 0 0-.3-.2z"/><path class="cls-27" d="M24.8 153.8a1 1 0 0 0-.1.2l.3.2v-.2a.5.5 0 0 0-.2-.2z"/><path class="cls-28" d="M24.9 153.8a.5.5 0 0 1 .2.2l-.1.2.1-.2a2.4 2.4 0 0 0-.2-.3z"/></g><g class="cls-25"><path class="cls-26" d="M27.7 149.7a1 1 0 0 0-.1.2l.2.2.2-.3a2.4 2.4 0 0 0-.3-.1z"/><path class="cls-27" d="M27.6 149.7a1 1 0 0 0-.1.3l.3.1v-.2a.5.5 0 0 0-.2-.2z"/><path class="cls-28" d="M27.7 149.7a.5.5 0 0 1 .2.2l-.1.2.1-.2a2.4 2.4 0 0 0-.2-.2z"/></g><g class="cls-25"><path class="cls-26" d="M30.7 158.7a1.4 1.4 0 0 0-.2.4l.4.3.3-.4a3.5 3.5 0 0 0-.5-.3z"/><path class="cls-27" d="M30.6 158.8a1.4 1.4 0 0 0-.2.4l.4.3.2-.4a.8.8 0 0 0-.4-.3z"/><path class="cls-28" d="M30.7 158.7v.1a.8.8 0 0 1 .3.3l-.2.4.3-.4a3.5 3.5 0 0 0-.4-.4z"/></g><g class="cls-25"><path class="cls-26" d="M24.4 159.4a1.7 1.7 0 0 0-.3.5l.4.3.4-.4a4 4 0 0 0-.5-.4z"/><path class="cls-27" d="M24.3 159.5a1.7 1.7 0 0 0-.3.4l.5.3s0-.2.2-.3a.9.9 0 0 0-.4-.4z"/><path class="cls-28" d="M24.3 159.4v.1a.9.9 0 0 1 .4.4l-.2.4.3-.5a4 4 0 0 0-.5-.4z"/></g><g class="cls-25"><path class="cls-26" d="M21.6 163.4a1.7 1.7 0 0 0-.2.4l.4.3.3-.4a4.1 4.1 0 0 0-.5-.3z"/><path class="cls-27" d="M21.5 163.5a1.7 1.7 0 0 0-.2.4l.4.3.2-.4a1 1 0 0 0-.4-.3z"/><path class="cls-28" d="M21.6 163.4h-.1a1 1 0 0 1 .4.4c0 .1 0 .3-.2.4l.3-.4a4.1 4.1 0 0 0-.4-.4z"/></g><g class="cls-25"><path class="cls-26" d="M26.2 163.3a1.1 1.1 0 0 0-.2.3l.3.2.2-.3a2.7 2.7 0 0 0-.3-.2z"/><path class="cls-27" d="M26 163.4a1.1 1.1 0 0 0 0 .2l.2.3c0-.1 0-.2.2-.3a.6.6 0 0 0-.3-.2z"/><path class="cls-28" d="M26.1 163.3a.6.6 0 0 1 .3.3l-.2.3.2-.3a2.7 2.7 0 0 0-.3-.3z"/></g><g class="cls-25"><path class="cls-26" d="M28 156.1a1.1 1.1 0 0 0-.1.3l.2.2.2-.3a2.7 2.7 0 0 0-.3-.2z"/><path class="cls-27" d="M28 156.2a1.1 1.1 0 0 0-.2.3l.3.2.1-.3a.6.6 0 0 0-.3-.2z"/><path class="cls-28" d="M28 156.1v.1a.6.6 0 0 1 .2.2l-.1.3.2-.3a2.7 2.7 0 0 0-.3-.3z"/></g><g class="cls-25"><path class="cls-26" d="M18.5 164.9a1.1 1.1 0 0 0-.2.2l.3.2.2-.3a2.7 2.7 0 0 0-.3-.1z"/><path class="cls-27" d="M18.4 165a1.1 1.1 0 0 0-.2.2l.3.2s0-.2.2-.2a.6.6 0 0 0-.3-.3z"/><path class="cls-28" d="M18.4 164.9a.6.6 0 0 1 .3.3l-.2.2.2-.3a2.7 2.7 0 0 0-.3-.2z"/></g><g class="cls-25"><path class="cls-26" d="M16.7 161.9a1.7 1.7 0 0 0-.3.4l.4.3.4-.4a4.1 4.1 0 0 0-.5-.3z"/><path class="cls-27" d="M16.6 162a1.7 1.7 0 0 0-.3.4l.5.3.2-.4a1 1 0 0 0-.4-.3z"/><path class="cls-28" d="M16.6 161.9a1 1 0 0 1 .4.4l-.2.4.3-.4a4.1 4.1 0 0 0-.5-.4z"/></g><g class="cls-25"><path class="cls-26" d="M16.1 159.4a1.7 1.7 0 0 0-.3.4l.5.3.3-.4a4.1 4.1 0 0 0-.5-.3z"/><path class="cls-27" d="M16 159.5a1.7 1.7 0 0 0-.2.4l.4.3.2-.4a1 1 0 0 0-.4-.3z"/><path class="cls-28" d="M16 159.4v.1a1 1 0 0 1 .4.3c-.1.2 0 .3-.2.4l.3-.4a4.1 4.1 0 0 0-.4-.4z"/></g><g class="cls-25"><path class="cls-26" d="M8 161.2v.1a1.7 1.7 0 0 0-.2.4l.4.3.4-.4a4.1 4.1 0 0 0-.5-.4z"/><path class="cls-27" d="M8 161.4a1.7 1.7 0 0 0-.3.4l.4.3c.2-.1.1-.3.3-.4a1 1 0 0 0-.5-.3z"/><path class="cls-28" d="M8 161.2v.2a1 1 0 0 1 .3.3c0 .1 0 .3-.2.4s.3-.4.3-.5a4.1 4.1 0 0 0-.4-.4z"/></g><g class="cls-25"><path class="cls-26" d="M12.7 163.8v.1a1.7 1.7 0 0 0-.3.4l.4.3.4-.4a4.1 4.1 0 0 0-.5-.4z"/><path class="cls-27" d="M12.5 164a1.7 1.7 0 0 0-.2.4l.4.3c.2 0 .1-.2.3-.4a1 1 0 0 0-.5-.3z"/><path class="cls-28" d="M12.6 163.8v.2a1 1 0 0 1 .4.3l-.2.4.3-.5a4.1 4.1 0 0 0-.5-.4z"/></g><g class="cls-25"><path class="cls-26" d="M13.7 167v.1a1.7 1.7 0 0 0-.3.4l.4.3.4-.4a4.1 4.1 0 0 0-.5-.3z"/><path class="cls-27" d="M13.5 167.2a1.7 1.7 0 0 0-.2.4l.4.3c.2-.1.1-.3.3-.4a1 1 0 0 0-.5-.3z"/><path class="cls-28" d="M13.6 167v.2a1 1 0 0 1 .4.3c-.2.1-.1.3-.3.4l.4-.5a4.1 4.1 0 0 0-.5-.3z"/></g><path class="cls-22" d="M188 95.9c-4.3.6-5.9 4.8-6.4 7a6.9 6.9 0 0 0-.1 2.2c.6-6 6.3-11.1 12.7-8.2a8.7 8.7 0 0 0-6.3-1z"/><path class="cls-23" d="M186.9 102.8a6 6 0 0 1 1.5-2.7 1.6 1.6 0 0 0-.6.2c-2.6 2.3-2 6.9.7 9a7.8 7.8 0 0 1-.8-1.5c-.8-1.6-1.4-3.3-.8-5zm1.8 15.2l2.9 1.5c4 1.8 9.8.4 12.8-1.4l.5-.4a17.6 17.6 0 0 1-16.2.3zm9.3-9.4c-.7-1.1-.5-2 0-3.2a4.8 4.8 0 0 0 .5-1.5 2.5 2.5 0 0 0 0-.3 11.1 11.1 0 0 1-1 1.5 3.1 3.1 0 0 0 1.2 4.5 6.1 6.1 0 0 0 2 .5 3.5 3.5 0 0 1-2.6-1.5zm6.8-3.7a11.5 11.5 0 0 1-.7 3.8 2.9 2.9 0 0 1-.1.3 1.4 1.4 0 0 0 .5-.7c.8-2 1-4.4-.3-6a4.6 4.6 0 0 1 .6 2.6zm-12.1-.7a4 4 0 0 0 0 2 3.1 3.1 0 0 1 .2 1.4 2.3 2.3 0 0 1-.3.7 1.3 1.3 0 0 0 .6-1.5c-.5-1.7.4-3.6-.2-5.3a3.4 3.4 0 0 0-.7-1 5 5 0 0 1 .4 3.7zm3.9 6a3.5 3.5 0 0 1 1.1 1.6l.2.4c.3-.9-.5-1.7-1.3-2z"/><path class="cls-22" d="M206.7 97.8a6.7 6.7 0 0 0-4.8-1.6 9.3 9.3 0 0 0-2.9.9 10.8 10.8 0 0 1 7.7.7z"/><path class="cls-23" d="M209.9 103.5a22.7 22.7 0 0 1-4 13.4 14.2 14.2 0 0 0 4.4-9 12.6 12.6 0 0 0-.4-4.4z"/><path class="cls-22" d="M200.5 111.8a7.2 7.2 0 0 1 5.3 0 5 5 0 0 0-5.3 0zm-.7 2.3c-2.5 0-5 .2-7.5-.2 3.2 1.2 7 .2 10 2a3 3 0 0 0-2.5-1.8z"/><path class="cls-24" d="M209.9 103.5a16 16 0 0 0-2.3-4.7 5.3 5.3 0 0 0-.9-1 10.8 10.8 0 0 0-7.7-.7 26.3 26.3 0 0 0-2.7 1.4 19.7 19.7 0 0 0-2.1-1.5c-6.4-3-12.1 2-12.8 8.1a17.2 17.2 0 0 0 1.4 5.2 14.6 14.6 0 0 1 .5 1.4 6 6 0 0 0 1 1.2c-.3.3-.4.8-.5 1-.8 1.6.5 2.6 2 3a5.5 5.5 0 0 0 .8-.3 9.6 9.6 0 0 0 2 1.4 17.6 17.6 0 0 0 16.3-.3 10.6 10.6 0 0 0 1-.7 22.7 22.7 0 0 0 4-13.5zm-3.5-4.5a8.7 8.7 0 0 0-6.7-1c2.3-.8 5.3-1 6.7 1zm-8.9 6a11.1 11.1 0 0 0 1-1.4 3 3 0 0 1 .2-1.7 2.9 2.9 0 0 1 2.8-1.1 3.1 3.1 0 0 1 2.8 1.4c1.3 1.6 1 4.1.3 6a1.4 1.4 0 0 1-.6.7c-.5.9-1.2 1-2.3 1.1a5.5 5.5 0 0 1-.8 0 6.1 6.1 0 0 1-2.1-.5 3.1 3.1 0 0 1-1.3-4.5zm-3 5.4a2.7 2.7 0 0 1 .5-.4 1.4 1.4 0 0 1 1.6.2c.9.3 1.6 1.1 1.3 2a.6.6 0 0 1-.2.6c-.4.4-2 .4-2.6.4a5.1 5.1 0 0 1-2.6-.3c-.4 0-.6-.2-.7-.4-.4-1.4 1.5-1.5 2.6-2zm-6.6-10.1a1.6 1.6 0 0 1 .6-.3l.1-.1c.9-.6 2.7-.7 3.4.1a2.8 2.8 0 0 1 .3.3 3.4 3.4 0 0 1 .7 1c.6 1.8-.3 3.7.2 5.4a1.3 1.3 0 0 1-.6 1.5 4.9 4.9 0 0 1-2.4 1.8 1.6 1.6 0 0 1-1.6-.8c-2.8-2-3.4-6.6-.7-8.9zm-1.2 11.4c1.4-.5 3.1-.9 4 .1a5.8 5.8 0 0 0-4 0zm5.6 2.2c2.5.4 5 0 7.5.2a3 3 0 0 1 2.4 1.7c-3-1.7-6.7-.7-10-1.9zm8.2-2.1a5 5 0 0 1 5.3 0 7.2 7.2 0 0 0-5.3 0z"/><path class="cls-22" d="M186.7 111.8a5.8 5.8 0 0 1 4 0c-1-.9-2.6-.5-4 0zM206.4 99c-1.5-2-4.4-1.8-6.7-1a8.7 8.7 0 0 1 6.7 1z"/><path class="cls-23" d="M192.1 112c0-.4.6-.6 1-.8a7.8 7.8 0 0 0 1-.6 1.7 1.7 0 0 0 .3-.2c-1.1.5-3 .6-2.6 2 0 .3.3.4.6.4a.8.8 0 0 1-.3-.8zm-8.3 1.9c.1-.3.2-.7.5-1a6 6 0 0 1-1-1.2 11.8 11.8 0 0 1 .4 1.3 2.1 2.1 0 0 0 .2 3.5 2.4 2.4 0 0 0 2 .2c-1.6-.3-2.9-1.3-2.1-2.8z"/><g class="cls-25"><path class="cls-26" d="M184.7 98.1a1.6 1.6 0 0 0-.5.2l.2.4.5-.2a3.8 3.8 0 0 0-.2-.4z"/><path class="cls-27" d="M184.5 98.1a1.6 1.6 0 0 0-.4.2l.2.5.4-.2a.8.8 0 0 0-.2-.5z"/><path class="cls-28" d="M184.7 98h-.2a.8.8 0 0 1 .2.5l-.4.2.5-.1a3.8 3.8 0 0 0-.2-.5z"/></g><g class="cls-25"><path class="cls-26" d="M184.6 103a1.6 1.6 0 0 0-.4.2l.1.4.5-.2a3.8 3.8 0 0 0-.2-.4z"/><path class="cls-27" d="M184.4 103a1.6 1.6 0 0 0-.4.3l.2.4.4-.2a.8.8 0 0 0-.2-.4z"/><path class="cls-28" d="M184.6 103h-.2a.8.8 0 0 1 .2.5l-.4.2.5-.2a3.8 3.8 0 0 0-.1-.5z"/></g><g class="cls-25"><path class="cls-26" d="M188.9 96a1.3 1.3 0 0 0-.4.2l.1.3.4-.1a3.2 3.2 0 0 0-.1-.4z"/><path class="cls-27" d="M188.7 96a1.3 1.3 0 0 0-.3.2l.1.4.4-.2a.7.7 0 0 0-.2-.4z"/><path class="cls-28" d="M188.8 96a.7.7 0 0 1 0 .4l-.3.1.4-.1a3.2 3.2 0 0 0 0-.4z"/></g><g class="cls-25"><path class="cls-26" d="M195.7 107.7a1.6 1.6 0 0 0-.5.2l.2.4.5-.2a3.8 3.8 0 0 0-.2-.4z"/><path class="cls-27" d="M195.5 107.7a1.6 1.6 0 0 0-.4.2l.2.5.4-.2a.8.8 0 0 0-.2-.5z"/><path class="cls-28" d="M195.6 107.7a.8.8 0 0 1 0 .5l-.3.2.5-.2a3.8 3.8 0 0 0-.2-.5z"/></g><g class="cls-25"><path class="cls-26" d="M197.3 102.2a1.2 1.2 0 0 0-.4.2l.2.3.3-.2a2.9 2.9 0 0 0-.1-.3z"/><path class="cls-27" d="M197.2 102.2a1.2 1.2 0 0 0-.3.2l.1.3.3-.1a.6.6 0 0 0-.1-.4z"/><path class="cls-28" d="M197.3 102.2h-.1a.6.6 0 0 1 0 .3s0 .2-.2.2l.4-.1a2.9 2.9 0 0 0-.1-.4z"/></g><g class="cls-25"><path class="cls-26" d="M193.5 103.3a1.3 1.3 0 0 0-.4.2l.2.3.4-.1a3.1 3.1 0 0 0-.2-.4z"/><path class="cls-27" d="M193.4 103.3a1.3 1.3 0 0 0-.4.2l.2.4.3-.2a.7.7 0 0 0-.1-.4z"/><path class="cls-28" d="M193.5 103.3h-.1a.7.7 0 0 1 .1.4l-.3.2.4-.2a3.1 3.1 0 0 0-.1-.4z"/></g><g class="cls-25"><path class="cls-26" d="M193.9 98.6h-.1a1.6 1.6 0 0 0-.4.2l.2.4.4-.2a3.8 3.8 0 0 0-.1-.4z"/><path class="cls-27" d="M193.7 98.6a1.6 1.6 0 0 0-.4.2l.2.5.3-.2a.8.8 0 0 0-.1-.5z"/><path class="cls-28" d="M193.8 98.6h-.1a.8.8 0 0 1 .1.5l-.3.2.4-.2a3.8 3.8 0 0 0 0-.5z"/></g><g class="cls-25"><path class="cls-26" d="M201.2 98.2a1 1 0 0 0-.3 0l.1.3h.3a2.3 2.3 0 0 0-.2-.3z"/><path class="cls-27" d="M201 98.2a1 1 0 0 0-.2 0v.4c0 .2.2-.1.3-.2a.5.5 0 0 0-.1-.2z"/><path class="cls-28" d="M201.1 98.2a.5.5 0 0 1 0 .2l-.2.2.3-.2a2.3 2.3 0 0 0 0-.3z"/></g><g class="cls-25"><path class="cls-26" d="M207.8 101.7a1.6 1.6 0 0 0-.5.1l.2.5.5-.2a3.8 3.8 0 0 0-.2-.4z"/><path class="cls-27" d="M207.6 101.7a1.6 1.6 0 0 0-.4.2l.2.4.4-.2a.8.8 0 0 0-.2-.4z"/><path class="cls-28" d="M207.8 101.6h-.2a.8.8 0 0 1 .2.5l-.4.2.5-.2a3.8 3.8 0 0 0-.1-.5z"/></g><g class="cls-25"><path class="cls-26" d="M205.4 98.8h-.1a1.4 1.4 0 0 0-.3.2v.4l.5-.2a3.4 3.4 0 0 0-.1-.4z"/><path class="cls-27" d="M205.2 98.8a1.4 1.4 0 0 0-.3.2l.1.4.4-.2a.8.8 0 0 0-.2-.4z"/><path class="cls-28" d="M205.3 98.8a.8.8 0 0 1 0 .4l-.3.2.4-.2a3.4 3.4 0 0 0 0-.4z"/></g><g class="cls-25"><path class="cls-26" d="M208 107.3h-.2a1.6 1.6 0 0 0-.3.1l.1.5.5-.2a3.8 3.8 0 0 0-.2-.5z"/><path class="cls-27" d="M207.8 107.3a1.6 1.6 0 0 0-.4.2l.1.4.4-.2a.8.8 0 0 0-.2-.4z"/><path class="cls-28" d="M207.9 107.2h-.2a.8.8 0 0 1 .2.5l-.4.2.5-.2a3.8 3.8 0 0 0-.1-.5z"/></g><g class="cls-25"><path class="cls-26" d="M205.7 113.6a1.6 1.6 0 0 0-.4.2l.1.4.5-.2a3.8 3.8 0 0 0-.2-.4z"/><path class="cls-27" d="M205.6 113.6a1.6 1.6 0 0 0-.4.2l.2.5.3-.2a.8.8 0 0 0-.1-.5z"/><path class="cls-28" d="M205.7 113.6h-.1a.8.8 0 0 1 .1.5l-.4.2.5-.2a3.8 3.8 0 0 0-.1-.5z"/></g><g class="cls-25"><path class="cls-26" d="M199.9 111a.9.9 0 0 0-.2.2v.2h.3a2.2 2.2 0 0 0-.1-.3z"/><path class="cls-27" d="M199.8 111a.9.9 0 0 0-.2.2v.2h.3a.5.5 0 0 0-.1-.3z"/><path class="cls-28" d="M199.9 111h-.1a.5.5 0 0 1 0 .3h-.1.2a2.2 2.2 0 0 0 0-.3z"/></g><g class="cls-25"><path class="cls-26" d="M204.2 109.5a.9.9 0 0 0-.3.1l.1.3.3-.2a2.2 2.2 0 0 0-.2-.2z"/><path class="cls-27" d="M204 109.5a.9.9 0 0 0-.2.1l.1.3.3-.1a.5.5 0 0 0-.1-.3z"/><path class="cls-28" d="M204.1 109.5a.5.5 0 0 1 0 .2l-.2.1h.3a2.2 2.2 0 0 0 0-.3z"/></g><g class="cls-25"><path class="cls-26" d="M201.6 117.9a1.3 1.3 0 0 0-.4.1l.2.4.4-.2a3.2 3.2 0 0 0-.2-.3z"/><path class="cls-27" d="M201.5 117.9a1.3 1.3 0 0 0-.4.1l.2.4.3-.1a.7.7 0 0 0-.1-.4z"/><path class="cls-28" d="M201.6 117.9h-.1a.7.7 0 0 1 .1.3l-.3.2.4-.2a3.2 3.2 0 0 0-.1-.3z"/></g><g class="cls-25"><path class="cls-26" d="M196.5 115a1.5 1.5 0 0 0-.4.2l.1.4.5-.2a3.7 3.7 0 0 0-.2-.4z"/><path class="cls-27" d="M196.3 115a1.5 1.5 0 0 0-.3.2l.1.5.4-.2a.8.8 0 0 0-.2-.5z"/><path class="cls-28" d="M196.5 115h-.2a.8.8 0 0 1 .2.5l-.4.1.5-.1a3.7 3.7 0 0 0-.1-.5z"/></g><g class="cls-25"><path class="cls-26" d="M192.4 116.5h-.1a1.6 1.6 0 0 0-.4.2l.2.5.4-.2a3.8 3.8 0 0 0-.1-.5z"/><path class="cls-27" d="M192.2 116.5a1.6 1.6 0 0 0-.4.2l.2.5.3-.2a.8.8 0 0 0-.1-.5z"/><path class="cls-28" d="M192.3 116.5h-.1a.8.8 0 0 1 .1.5l-.3.2.4-.2a3.8 3.8 0 0 0 0-.5z"/></g><g class="cls-25"><path class="cls-26" d="M195.8 118.9a1 1 0 0 0-.3.1l.1.3.3-.1a2.5 2.5 0 0 0-.1-.3z"/><path class="cls-27" d="M195.7 118.9a1 1 0 0 0-.3.1l.1.3c.1.1.2 0 .3-.1a.6.6 0 0 0-.1-.3z"/><path class="cls-28" d="M195.8 118.9h-.1a.6.6 0 0 1 0 .3h-.2.3a2.5 2.5 0 0 0 0-.3z"/></g><g class="cls-25"><path class="cls-26" d="M201 114.5a1 1 0 0 0-.3.1l.2.3.3-.1a2.5 2.5 0 0 0-.2-.3z"/><path class="cls-27" d="M200.8 114.5a1 1 0 0 0-.2.1l.1.3c.1.1.2 0 .3-.1a.6.6 0 0 0-.2-.3z"/><path class="cls-28" d="M201 114.5h-.1a.6.6 0 0 1 0 .3l-.2.1.3-.1a2.5 2.5 0 0 0 0-.3z"/></g><g class="cls-25"><path class="cls-26" d="M189.2 116a1 1 0 0 0-.3.1l.1.3.3-.1a2.5 2.5 0 0 0-.1-.3z"/><path class="cls-27" d="M189 116a1 1 0 0 0-.2.1l.1.3c.1.1.2 0 .3-.1a.6.6 0 0 0-.1-.3z"/><path class="cls-28" d="M189.2 116h-.1a.6.6 0 0 1 0 .3l-.2.1.3-.1a2.5 2.5 0 0 0 0-.3z"/></g><g class="cls-25"><path class="cls-26" d="M189.4 112.8a1.6 1.6 0 0 0-.4.2l.2.4.4-.2a3.8 3.8 0 0 0-.2-.4z"/><path class="cls-27" d="M189.3 112.8a1.6 1.6 0 0 0-.4.2l.2.5.3-.2a.8.8 0 0 0-.1-.5z"/><path class="cls-28" d="M189.4 112.8h-.1a.8.8 0 0 1 .1.4l-.3.2.4-.2a3.8 3.8 0 0 0 0-.4z"/></g><g class="cls-25"><path class="cls-26" d="M190.3 110.6a1.6 1.6 0 0 0-.4.2l.1.5.5-.2a3.8 3.8 0 0 0-.2-.5z"/><path class="cls-27" d="M190.2 110.6a1.6 1.6 0 0 0-.4.2l.1.5.4-.2a.8.8 0 0 0-.1-.5z"/><path class="cls-28" d="M190.3 110.6h-.1a.8.8 0 0 1 .1.5l-.4.2.5-.2a3.8 3.8 0 0 0-.1-.5z"/></g><g class="cls-25"><path class="cls-26" d="M183.3 107.8a1.6 1.6 0 0 0-.4.1l.1.5.5-.2a3.8 3.8 0 0 0-.2-.5z"/><path class="cls-27" d="M183.2 107.8a1.6 1.6 0 0 0-.4.2l.1.4.4-.2a.8.8 0 0 0-.2-.4z"/><path class="cls-28" d="M183.3 107.7h-.2a.8.8 0 0 1 .2.5l-.4.2.5-.2a3.8 3.8 0 0 0-.1-.5z"/></g><g class="cls-25"><path class="cls-26" d="M185.4 112.1a1.6 1.6 0 0 0-.5.2l.2.5.5-.2a3.8 3.8 0 0 0-.2-.5z"/><path class="cls-27" d="M185.2 112.2a1.6 1.6 0 0 0-.4.1l.2.5.4-.2a.8.8 0 0 0-.2-.4z"/><path class="cls-28" d="M185.3 112.1a.8.8 0 0 1 0 .5l-.3.2.5-.2a3.8 3.8 0 0 0-.2-.5z"/></g><g class="cls-25"><path class="cls-26" d="M184.4 115a1.6 1.6 0 0 0-.4.3l.1.4.5-.2a3.8 3.8 0 0 0-.2-.4z"/><path class="cls-27" d="M184.3 115a1.6 1.6 0 0 0-.4.3l.1.5.4-.2a.8.8 0 0 0-.1-.5z"/><path class="cls-28" d="M184.4 115h-.1a.8.8 0 0 1 .1.5l-.4.2.5-.2a3.8 3.8 0 0 0-.1-.5z"/></g><path class="cls-22" d="M104.8 180.8c-3.3 1.7-3.3 5.7-3.1 7.7a6.1 6.1 0 0 0 .5 1.8c-1.3-5.2 2-11 8.1-10.5a7.7 7.7 0 0 0-5.5 1z"/><path class="cls-23" d="M106 186.8a5.2 5.2 0 0 1 .5-2.7 1.5 1.5 0 0 0-.4.4c-1.5 2.7.3 6.3 3.2 7.2a6.9 6.9 0 0 1-1.2-1 5.6 5.6 0 0 1-2.1-3.9zm6 12.1c.7.1 1.6.3 2.9.3 3.9.4 8.3-2.5 10.2-5l.4-.4a15.6 15.6 0 0 1-13.5 5.1zm5-10.6a2.4 2.4 0 0 1-1-2.6 4.2 4.2 0 0 0 0-1.4 2.2 2.2 0 0 0 0-.3 9.8 9.8 0 0 1-.4 1.5 2.8 2.8 0 0 0 2.4 3.5 5.4 5.4 0 0 0 1.8-.2 3.1 3.1 0 0 1-2.7-.5zm4.5-5.1a10.2 10.2 0 0 1 .6 3.4 2.5 2.5 0 0 1 0 .3 1.2 1.2 0 0 0 .3-.7c0-1.9-.5-4-2-5a4 4 0 0 1 1.1 2zm-10.2 3a3.5 3.5 0 0 0 .5 1.7 2.8 2.8 0 0 1 .6 1.1 2 2 0 0 1 0 .7 1.2 1.2 0 0 0 0-1.4c-.9-1.3-.7-3.2-1.7-4.4a3 3 0 0 0-1-.7 4.4 4.4 0 0 1 1.6 3zm5 3.8a3 3 0 0 1 1.4 1l.2.4c.1-.9-.8-1.3-1.6-1.3z"/><path class="cls-22" d="M121 176.7a5.9 5.9 0 0 0-4.5.2 8.3 8.3 0 0 0-2 1.5 9.6 9.6 0 0 1 6.5-1.7z"/><path class="cls-23" d="M125.3 180.6a20 20 0 0 1 .7 12.3 12.6 12.6 0 0 0 1-8.8 11 11 0 0 0-1.7-3.5z"/><path class="cls-22" d="M120 190.3a6.4 6.4 0 0 1 4.4-1.6 4.4 4.4 0 0 0-4.4 1.6zm.1 2.1a55.9 55.9 0 0 1-6.3 2c3.1 0 5.9-1.8 8.9-1.3a2.6 2.6 0 0 0-2.6-.7z"/><path class="cls-24" d="M125.3 180.6a14.1 14.1 0 0 0-3.2-3.3 4.7 4.7 0 0 0-1-.6 9.6 9.6 0 0 0-6.6 1.7 23.3 23.3 0 0 0-2 2 17.4 17.4 0 0 0-2.2-.6c-6.1-.6-9.4 5.3-8.1 10.6a15.2 15.2 0 0 0 2.7 3.9 13 13 0 0 1 .8 1 5.4 5.4 0 0 0 1.2.7c-.2.3-.1.7-.2 1-.2 1.5 1.3 2 2.6 1.8a4.8 4.8 0 0 0 .6-.4 8.5 8.5 0 0 0 2.1.5 15.6 15.6 0 0 0 13.5-5 9.3 9.3 0 0 0 .5-1 20 20 0 0 0-.7-12.3zm-4.2-2.7a7.7 7.7 0 0 0-5.8 1.2c1.6-1.4 4-2.4 5.8-1.2zm-5.5 7.6a9.8 9.8 0 0 0 .3-1.5 2.7 2.7 0 0 1-.3-1.3 2.5 2.5 0 0 1 2-1.8 2.7 2.7 0 0 1 2.7.3c1.6 1 2.1 3.1 2 5a1.2 1.2 0 0 1-.2.7c-.2.8-.7 1.2-1.6 1.6a4.8 4.8 0 0 1-.7.2 5.4 5.4 0 0 1-1.9.2 2.8 2.8 0 0 1-2.3-3.4zm-1 5.5a2.4 2.4 0 0 1 .3-.6 1.3 1.3 0 0 1 1.4-.3c.8 0 1.7.5 1.6 1.3a.5.5 0 0 1 0 .6c-.2.4-1.5.9-2 1a4.5 4.5 0 0 1-2.3.6c-.3 0-.5 0-.7-.2-.6-1 .9-1.7 1.7-2.4zm-8.5-6.5a1.5 1.5 0 0 1 .4-.4l.1-.1a2.7 2.7 0 0 1 2.9-1 2.4 2.4 0 0 1 .2.2 3 3 0 0 1 1 .7c1 1.2.8 3.1 1.7 4.4a1.2 1.2 0 0 1 0 1.4 4.3 4.3 0 0 1-1.5 2.3 1.4 1.4 0 0 1-1.6-.2c-2.8-1-4.7-4.6-3.2-7.3zm2.5 9.8c1-.8 2.3-1.6 3.3-1a5.2 5.2 0 0 0-3.3 1zm5.2.2a55.9 55.9 0 0 0 6.3-2.1 2.6 2.6 0 0 1 2.6.7c-3-.5-5.8 1.4-8.9 1.4zm6.2-4.2a4.4 4.4 0 0 1 4.4-1.6 6.4 6.4 0 0 0-4.4 1.6z"/><path class="cls-22" d="M108.6 194.3a5.2 5.2 0 0 1 3.3-1c-1-.6-2.4.2-3.3 1zm12.5-16.4c-1.7-1.2-4.1-.2-5.8 1.2a7.7 7.7 0 0 1 5.8-1.2z"/><path class="cls-23" d="M113.1 193c0-.3.4-.7.6-1a6.8 6.8 0 0 0 .7-.7 1.5 1.5 0 0 0 .2-.3c-.8.8-2.3 1.4-1.7 2.5.2.2.4.2.7.1a.7.7 0 0 1-.5-.6zm-6.4 4c0-.2 0-.7.2-1a5.4 5.4 0 0 1-1.2-.7 10.4 10.4 0 0 1 .8 1 1.9 1.9 0 0 0 1.1 2.8 2.1 2.1 0 0 0 1.7-.4c-1.3.2-2.8-.2-2.6-1.7z"/><g class="cls-25"><path class="cls-26" d="M102.8 183.6a1.4 1.4 0 0 0-.3.3l.2.3.4-.3a3.4 3.4 0 0 0-.3-.3z"/><path class="cls-27" d="M102.7 183.6a1.4 1.4 0 0 0-.3.3l.3.4.2-.3a.8.8 0 0 0-.2-.4z"/><path class="cls-28" d="M102.8 183.6h-.1a.8.8 0 0 1 .2.4l-.2.2.3-.2a3.4 3.4 0 0 0-.2-.4z"/></g><g class="cls-25"><path class="cls-26" d="M104.2 187.7a1.4 1.4 0 0 0-.3.3l.2.3.4-.3a3.4 3.4 0 0 0-.3-.3z"/><path class="cls-27" d="M104 187.8a1.4 1.4 0 0 0-.2.2l.3.4.2-.3a.8.8 0 0 0-.2-.3z"/><path class="cls-28" d="M104.2 187.7h-.1a.8.8 0 0 1 .2.4l-.2.3.3-.3a3.4 3.4 0 0 0-.2-.4z"/></g><g class="cls-25"><path class="cls-26" d="M105.7 180.6a1.2 1.2 0 0 0-.3.2l.2.3.3-.3a2.8 2.8 0 0 0-.2-.2z"/><path class="cls-27" d="M105.5 180.7a1.2 1.2 0 0 0-.2.2l.3.3s0-.2.2-.3a.6.6 0 0 0-.3-.3z"/><path class="cls-28" d="M105.6 180.6a.6.6 0 0 1 .2.3l-.2.3.3-.3a2.8 2.8 0 0 0-.3-.3z"/></g><g class="cls-25"><path class="cls-26" d="M114.8 188.3a1.4 1.4 0 0 0-.3.3l.2.3.4-.3a3.4 3.4 0 0 0-.3-.3z"/><path class="cls-27" d="M114.7 188.3a1.4 1.4 0 0 0-.3.3l.3.4.2-.3a.8.8 0 0 0-.2-.3z"/><path class="cls-28" d="M114.8 188.3h-.1a.8.8 0 0 1 .2.4l-.2.3.3-.3a3.4 3.4 0 0 0-.2-.4z"/></g><g class="cls-25"><path class="cls-26" d="M114.5 183.2a1 1 0 0 0-.2.3l.2.2.3-.2a2.5 2.5 0 0 0-.3-.3z"/><path class="cls-27" d="M114.4 183.3a1 1 0 0 0-.2.2l.2.3.2-.3a.6.6 0 0 0-.2-.2z"/><path class="cls-28" d="M114.5 183.2a.6.6 0 0 1 .1.3l-.2.2.3-.2a2.5 2.5 0 0 0-.2-.3z"/></g><g class="cls-25"><path class="cls-26" d="M111.7 185.3a1.1 1.1 0 0 0-.2.2l.2.3.3-.3a2.8 2.8 0 0 0-.3-.2z"/><path class="cls-27" d="M111.6 185.3a1.1 1.1 0 0 0-.2.3l.2.3.2-.3a.6.6 0 0 0-.2-.3z"/><path class="cls-28" d="M111.7 185.3h-.1a.6.6 0 0 1 .2.3l-.2.3.3-.3a2.8 2.8 0 0 0-.2-.3z"/></g><g class="cls-25"><path class="cls-26" d="M110.6 181.3a1.4 1.4 0 0 0-.3.2l.2.4.4-.3a3.4 3.4 0 0 0-.3-.3z"/><path class="cls-27" d="M110.4 181.3a1.4 1.4 0 0 0-.2.3l.2.4.3-.3a.8.8 0 0 0-.3-.4z"/><path class="cls-28" d="M110.5 181.3a.8.8 0 0 1 .2.4l-.2.2.3-.3a3.4 3.4 0 0 0-.3-.3z"/></g><g class="cls-25"><path class="cls-26" d="M116.5 178.7a.8.8 0 0 0-.2.2l.2.2.2-.2a2 2 0 0 0-.2-.2z"/><path class="cls-27" d="M116.4 178.8a.8.8 0 0 0-.1.1l.1.2c.1.1.1 0 .2-.1a.5.5 0 0 0-.2-.2z"/><path class="cls-28" d="M116.5 178.7a.5.5 0 0 1 0 .2v.2l.1-.2a2 2 0 0 0-.1-.2z"/></g><g class="cls-25"><path class="cls-26" d="M123 179.6a1.4 1.4 0 0 0-.2.3l.2.3.4-.3a3.4 3.4 0 0 0-.3-.3z"/><path class="cls-27" d="M123 179.7a1.4 1.4 0 0 0-.3.3l.3.3.2-.3a.8.8 0 0 0-.3-.3z"/><path class="cls-28" d="M123 179.6l-.1.1a.8.8 0 0 1 .3.3l-.3.3.3-.3a3.4 3.4 0 0 0-.2-.4z"/></g><g class="cls-25"><path class="cls-26" d="M120.2 178a1.2 1.2 0 0 0-.2.2l.2.3.3-.2a3 3 0 0 0-.3-.3z"/><path class="cls-27" d="M120 178a1.2 1.2 0 0 0-.2.2l.3.4.2-.3a.7.7 0 0 0-.2-.3z"/><path class="cls-28" d="M120.2 178h-.1a.7.7 0 0 1 .2.4l-.2.2.3-.2a3 3 0 0 0-.2-.4z"/></g><g class="cls-25"><path class="cls-26" d="M124.8 184.3a1.4 1.4 0 0 0-.3.2l.3.4.3-.4a3.4 3.4 0 0 0-.3-.2z"/><path class="cls-27" d="M124.7 184.3a1.4 1.4 0 0 0-.3.3l.3.4.3-.3a.8.8 0 0 0-.3-.4z"/><path class="cls-28" d="M124.8 184.3a.8.8 0 0 1 .2.4l-.3.2.4-.3a3.4 3.4 0 0 0-.3-.3z"/></g><g class="cls-25"><path class="cls-26" d="M125 190.2h-.1a1.4 1.4 0 0 0-.3.3l.3.3.3-.3a3.4 3.4 0 0 0-.3-.3z"/><path class="cls-27" d="M124.8 190.3a1.4 1.4 0 0 0-.3.2l.3.4.3-.3a.8.8 0 0 0-.3-.3z"/><path class="cls-28" d="M124.9 190.2h-.1a.8.8 0 0 1 .3.4c-.2 0-.2.2-.3.3l.3-.3a3.4 3.4 0 0 0-.2-.4z"/></g><g class="cls-25"><path class="cls-26" d="M119.3 189.8a.8.8 0 0 0-.1.2l.1.2.2-.2a2 2 0 0 0-.2-.2z"/><path class="cls-27" d="M119.2 189.9a.8.8 0 0 0-.1.1l.1.2c.1.1.1 0 .2-.1a.4.4 0 0 0-.2-.2z"/><path class="cls-28" d="M119.3 189.8a.4.4 0 0 1 0 .2v.2l.1-.2a2 2 0 0 0-.1-.2z"/></g><g class="cls-25"><path class="cls-26" d="M122.4 187.3a.8.8 0 0 0-.2.1l.2.2.2-.2a2 2 0 0 0-.2-.2z"/><path class="cls-27" d="M122.3 187.3a.8.8 0 0 0-.2.1l.2.2c.1.1 0 0 .1-.1a.4.4 0 0 0-.1-.2z"/><path class="cls-28" d="M122.3 187.2a.4.4 0 0 1 .1.2l-.1.2.2-.2a2 2 0 0 0-.2-.2z"/></g><g class="cls-25"><path class="cls-26" d="M122.8 195a1.2 1.2 0 0 0-.3.2l.3.3.2-.3a2.8 2.8 0 0 0-.2-.2z"/><path class="cls-27" d="M122.7 195a1.2 1.2 0 0 0-.3.2l.3.3.2-.2a.6.6 0 0 0-.3-.3z"/><path class="cls-28" d="M122.7 195a.6.6 0 0 1 .2.4l-.2.2.3-.3a2.8 2.8 0 0 0-.3-.3z"/></g><g class="cls-25"><path class="cls-26" d="M117.7 194.1a1.4 1.4 0 0 0-.3.3l.2.3.4-.3a3.3 3.3 0 0 0-.3-.3z"/><path class="cls-27" d="M117.5 194.2a1.4 1.4 0 0 0-.2.3l.2.3.3-.3a.7.7 0 0 0-.3-.3z"/><path class="cls-28" d="M117.6 194.1v.1a.7.7 0 0 1 .2.3l-.3.3.4-.3a3.3 3.3 0 0 0-.3-.4z"/></g><g class="cls-25"><path class="cls-26" d="M114.7 196.6a1.4 1.4 0 0 0-.3.3l.2.3.4-.3a3.4 3.4 0 0 0-.3-.3z"/><path class="cls-27" d="M114.5 196.7a1.4 1.4 0 0 0-.2.3l.2.3c.2 0 .2-.2.3-.3a.8.8 0 0 0-.3-.3z"/><path class="cls-28" d="M114.6 196.6a.8.8 0 0 1 .2.4l-.3.3.4-.3a3.4 3.4 0 0 0-.3-.4z"/></g><g class="cls-25"><path class="cls-26" d="M118.2 197.6a.9.9 0 0 0-.2.1l.2.2.2-.2a2.2 2.2 0 0 0-.2-.1z"/><path class="cls-27" d="M118.1 197.6a.9.9 0 0 0-.2.2l.2.2.2-.2a.5.5 0 0 0-.2-.2z"/><path class="cls-28" d="M118.2 197.6a.5.5 0 0 1 .1.2l-.2.1.3-.1a2.2 2.2 0 0 0-.2-.3z"/></g><g class="cls-25"><path class="cls-26" d="M121.2 192.4a.9.9 0 0 0-.2.1l.2.3.2-.2a2.2 2.2 0 0 0-.2-.2z"/><path class="cls-27" d="M121.1 192.4a.9.9 0 0 0-.2.2l.2.2c.1.1.1-.1.2-.2a.5.5 0 0 0-.2-.2z"/><path class="cls-28" d="M121.2 192.3a.5.5 0 0 1 0 .3v.1l.1-.1a2.2 2.2 0 0 0-.1-.3z"/></g><g class="cls-25"><path class="cls-26" d="M111.9 197.1a.9.9 0 0 0-.2.2l.1.2.3-.2a2.2 2.2 0 0 0-.2-.2z"/><path class="cls-27" d="M111.8 197.1a.9.9 0 0 0-.2.2l.2.2.1-.1a.5.5 0 0 0-.1-.3z"/><path class="cls-28" d="M111.8 197a.5.5 0 0 1 .1.3l-.1.2.2-.2a2.2 2.2 0 0 0-.2-.2z"/></g><g class="cls-25"><path class="cls-26" d="M111.1 194.4a1.4 1.4 0 0 0-.3.2l.3.4.3-.3a3.4 3.4 0 0 0-.3-.3z"/><path class="cls-27" d="M111 194.4a1.4 1.4 0 0 0-.3.3l.3.4.3-.3a.8.8 0 0 0-.3-.4z"/><path class="cls-28" d="M111.1 194.4h-.1a.8.8 0 0 1 .3.4l-.3.2.3-.2a3.4 3.4 0 0 0-.2-.4z"/></g><g class="cls-25"><path class="cls-26" d="M111.2 192.3a1.4 1.4 0 0 0-.3.3l.3.3.3-.3a3.4 3.4 0 0 0-.3-.3z"/><path class="cls-27" d="M111 192.4a1.4 1.4 0 0 0-.2.2l.3.4.3-.3a.8.8 0 0 0-.3-.3z"/><path class="cls-28" d="M111.2 192.3h-.1a.8.8 0 0 1 .3.4l-.3.3.3-.3a3.4 3.4 0 0 0-.2-.4z"/></g><g class="cls-25"><path class="cls-26" d="M104.5 192a1.4 1.4 0 0 0-.3.3l.3.3.3-.3a3.4 3.4 0 0 0-.3-.3z"/><path class="cls-27" d="M104.4 192a1.4 1.4 0 0 0-.3.3l.3.4.3-.3a.8.8 0 0 0-.3-.3z"/><path class="cls-28" d="M104.5 192h-.1a.8.8 0 0 1 .3.4l-.3.3.3-.3a3.4 3.4 0 0 0-.2-.4z"/></g><g class="cls-25"><path class="cls-26" d="M107.6 195a1.4 1.4 0 0 0-.3.3l.2.3.4-.3a3.4 3.4 0 0 0-.3-.3z"/><path class="cls-27" d="M107.4 195.1a1.4 1.4 0 0 0-.2.3l.2.3c.2 0 .2-.2.3-.2a.8.8 0 0 0-.3-.4z"/><path class="cls-28" d="M107.5 195a.8.8 0 0 1 .2.4l-.3.3.4-.3a3.4 3.4 0 0 0-.3-.4z"/></g><g class="cls-25"><path class="cls-26" d="M107.6 197.8a1.4 1.4 0 0 0-.3.2l.3.4.3-.3a3.4 3.4 0 0 0-.3-.3z"/><path class="cls-27" d="M107.5 197.8a1.4 1.4 0 0 0-.3.3l.3.4.3-.3a.8.8 0 0 0-.3-.4z"/><path class="cls-28" d="M107.6 197.8h-.1a.8.8 0 0 1 .3.4l-.3.2.3-.3a3.4 3.4 0 0 0-.2-.3z"/></g></g></g></svg>