<svg xmlns="http://www.w3.org/2000/svg" viewBox="0 0 322 201.23"><defs><style>.cls-1{isolation:isolate}.cls-2{fill:#f3a712}.cls-3{fill:#56371b}.cls-4{fill:#3a2310}.cls-5{fill:#443e39}.cls-6{fill:#d3bba7}.cls-7{fill:#ffebde}.cls-8{fill:#f9e3cf}.cls-17,.cls-9{fill:none;stroke:#443e39;stroke-linecap:round;stroke-linejoin:round}.cls-9{stroke-width:1.25px}.cls-10{fill:#755337}.cls-11{fill:#470b0b}.cls-12{fill:#6d0f0f}.cls-13{fill:#ba2b5f}.cls-14{fill:#931f41}.cls-15{fill:#fdfffc}.cls-16{fill:#e5e5e5}.cls-17{stroke-width:1.5px}.cls-18,.cls-19{fill:#4e979b;opacity:.15}.cls-19{fill:#7becff}.cls-20{opacity:.5;mix-blend-mode:multiply;fill:url(#linear-gradient)}.cls-21{fill:#ba1200}</style><linearGradient id="linear-gradient" x1="245.34" y1="35.12" x2="453.97" y2="469.8" gradientUnits="userSpaceOnUse"><stop offset="0" stop-color="#fff"/><stop offset=".12" stop-color="#ded8d3"/><stop offset=".13" stop-color="#dbd4cf"/><stop offset=".3" stop-color="#b3a599"/><stop offset=".46" stop-color="#927d6c"/><stop offset=".62" stop-color="#785f49"/><stop offset=".76" stop-color="#65492f"/><stop offset=".89" stop-color="#5a3c20"/><stop offset="1" stop-color="#56371b"/></linearGradient></defs><title>title-card</title><g class="cls-1"><g id="Vector"><path class="cls-2" d="M189.5 124.09a38.86 38.86 0 0 0-.46-8.32c-1.73-10.34-7.53-19.36-16.28-26.6v-.16a5 5 0 0 0-4.9-4h-.24c.2-.21.4-.42.58-.65a9.56 9.56 0 0 0 2-8.15 9.37 9.37 0 0 0-2.6-4.92l.59-3.26a5 5 0 0 0-3.83-5.78 18.94 18.94 0 0 0-4.11-.47 16.27 16.27 0 0 0-3.2.31 13.26 13.26 0 0 0-5.07 2.08 4.88 4.88 0 0 0-2.81-.26l-9.38 1.89a5 5 0 0 0-2.34 1.2 16.84 16.84 0 0 0-2.08-.14 19.44 19.44 0 0 0-3.82.39 14.2 14.2 0 0 0-7.19 3.55q-1.7-.19-3.43-.33a4.94 4.94 0 0 0-2-.41 5 5 0 0 0-1 .1l-.35.07A146.32 146.32 0 0 0 84.85 72a142.69 142.69 0 0 0-40.46 13L39 86.08a5 5 0 0 0-1.38.52 4.42 4.42 0 0 0-1.51.06l-4.29.86a5 5 0 0 0-2.35 1.18 5 5 0 0 0-2.62-.18l-4.29.86a5 5 0 0 0-.77.24 5 5 0 0 0-.8.08L9 92.1A5 5 0 0 0 5.11 98l.7 3.49a5 5 0 0 0 4.82 4l1 5.06c-9 11.38-13.22 24.1-11.12 36.69 1.88 11.28 8.62 21 18.75 28.54.06.36.12.72.21 1.07a11.23 11.23 0 0 0 3.65 6 13.72 13.72 0 0 0 5.52 2.76 21.5 21.5 0 0 0 5.23.62h.61c1.29 0 2.62-.11 4-.22l.59.22-1.36.8-.52.31a42.56 42.56 0 0 0-3.27 2.1c-2.67 1.91-3.24 4-3.22 5.52a6 6 0 0 0 3.06 5.49 6.28 6.28 0 0 0 3 .76 6.39 6.39 0 0 0 1.56-.2l.46-.14a32.92 32.92 0 0 0 4.7-2.19c1.63-.9 3.32-1.93 5-3.06s3.38-2.36 5-3.63a57.9 57.9 0 0 0 1.58-1.33q3.11.62 6.34 1.08a10.42 10.42 0 0 0 2.78 1.53 9.57 9.57 0 0 0 3.25.55 12.35 12.35 0 0 0 3-.4 13.22 13.22 0 0 0 1.79-.59q3.6.21 7.3.23l.31.86a5 5 0 0 0 5.44 3.25 5.12 5.12 0 0 0 .9-.14 6.39 6.39 0 0 0 3.7-2.44 7 7 0 0 0 1-1.91q6.86-.5 13.89-1.67c19.66-3.28 37.29-10.14 51.31-19.16a6.51 6.51 0 0 0 1.13.1 7.22 7.22 0 0 0 1.77-.23 8.09 8.09 0 0 0 .89-.29h.05a5 5 0 0 0 3.47-4.45v-.29a90.2 90.2 0 0 0 8.56-7.5v.14a8.26 8.26 0 0 0 .24 1.48l.22.88a8.37 8.37 0 0 0 .51 1.44 6.19 6.19 0 0 0 1.73 2.25 5.61 5.61 0 0 0 3.52 1.25 5.83 5.83 0 0 0 1.43-.18 6 6 0 0 0 4.91-5.07 8.53 8.53 0 0 0-.24-3.17 8.72 8.72 0 0 0-1.23-2.79 5.78 5.78 0 0 0-4.86-2.49h-.64a57.91 57.91 0 0 0 9.29-16c21 5.21 29.43-7.29 29.43-7.29-12.25 2.61-22.48-2.76-26.75-5.55zm132.36-58.84a3.85 3.85 0 0 0-.07-.59v-.21a14 14 0 0 0-2.87-6.86 9 9 0 0 0-2.44-2.06c0-1.39-.13-2.79-.28-4.18-.06-.75-.15-1.64-.28-2.51A72.79 72.79 0 0 0 313.56 38a78.36 78.36 0 0 0-3.39-9.23 18.54 18.54 0 0 0-.91-1.78 17.61 17.61 0 0 0-1-1.71 22.89 22.89 0 0 0-2.5-3.14l-.16-.14a22.05 22.05 0 0 0-3.2-2.67 19.74 19.74 0 0 0-3.92-2l-.31-.11A79.93 79.93 0 0 0 290 8.3C281-.14 260.28-2 247.8 2c-1.45.46-2.93 1-4.42 1.57a44.82 44.82 0 0 0-7.06.67 52.45 52.45 0 0 0-10.59 3 51.52 51.52 0 0 0-8.37 4.3 32.73 32.73 0 0 0-3.43 2.45 3.75 3.75 0 0 0 1.07 6.42c-1.36 1-2.14 1.68-2.24 1.77a3.75 3.75 0 0 0 0 5.57 67.86 67.86 0 0 0-1.82 3.31 32.42 32.42 0 0 0-2.63 2.94c-.38.46-.71.92-1 1.32l-.29.4-.13.19a63.84 63.84 0 0 0-3.14 5.66c-1.46 2.93-2.91 6.09-3 9.8a13.89 13.89 0 0 0 1.15 5.82l1.43 3.81c.29.77.6 1.64.83 2.47a6.19 6.19 0 0 0-.92 1.3l-.06.12a8.48 8.48 0 0 0-.61 5.7v.12a11.17 11.17 0 0 0 .78 2.1 7.19 7.19 0 0 0 2.55 2.94q.14.73.32 1.38l-.45.3a4.27 4.27 0 0 0-1.76 2.73c-1.13 6 .15 12.4 3.34 16.65a14.34 14.34 0 0 0 3.11 3.06c1.83 6.8 5.2 14.27 10.58 25.21 7.05 14.35 14.59 20.21 18.51 22.44.71 3.46 2.68 9 8.15 10.39a11.62 11.62 0 0 0 2.81.31 34.17 34.17 0 0 0 12.09-2.92 59.74 59.74 0 0 0 17.4-10.94 180.19 180.19 0 0 0 24.36-27.85l.43-.64c3.5-5.13 9.31-13.66 11-30.27q.78-1.06 1.5-2.26a35.88 35.88 0 0 0 3.7-8.79 30.84 30.84 0 0 0 .85-4.22 21.7 21.7 0 0 0 .02-5.08z"/><path class="cls-3" d="M219.33 56.91c1.33-13 1.71-28.81 1.71-28.81s-7.88 4.53-11.55 11.26c-2.79 5.11-4.64 8.87-4.6 12.32a13.83 13.83 0 0 0 14.44 5.23z"/><path class="cls-4" d="M204.89 51.69a9 9 0 0 0 .63 3.23c1.75 4.45 3.15 7.26 3.34 10.33s.65 7.61 5.85 8.72c2.19.46 3.66-7.59 4.62-17.07a13.83 13.83 0 0 1-14.44-5.21z"/><path class="cls-5" d="M211.63 71.67a8.1 8.1 0 0 1-2-4.94c-.07-.55-.11-1.11-.16-1.73a12.87 12.87 0 0 0-.31-1.91 26.49 26.49 0 0 0-1.27-3.8l-1.6-3.84a9.63 9.63 0 0 1-.94-4c0-2.76 1.17-5.49 2.35-8a41.09 41.09 0 0 1 3.88-6.9 31.51 31.51 0 0 1 4.51-4.8 41.51 41.51 0 0 1 3.55-2.75c.88-.62 1.4-.92 1.4-.92s-.53.29-1.43.88a41.25 41.25 0 0 0-3.61 2.69 31.62 31.62 0 0 0-4.71 4.7 22.71 22.71 0 0 0-2.18 3.24c-.66 1.16-1.32 2.37-2 3.63-1.26 2.5-2.55 5.23-2.67 8.28a10.6 10.6 0 0 0 .9 4.34l1.5 3.86a25.9 25.9 0 0 1 1.16 3.66 11.78 11.78 0 0 1 .25 1.74c0 .58.07 1.19.14 1.77a9.22 9.22 0 0 0 2.33 5.75 6.85 6.85 0 0 0 2.48 1.58 4.82 4.82 0 0 0 .77.25l.4.11.2.05a2.24 2.24 0 0 0 .33 0 1.73 1.73 0 0 0 1.17-.49 3.67 3.67 0 0 0 .63-.81 14.07 14.07 0 0 0 1.3-3.52c.31-1.25.55-2.55.77-3.9.85-5.38 1.3-11.38 1.63-17 .64-11.2.68-20.81.68-20.81s-.39 9.61-1.36 20.76c-.5 5.57-1.12 11.55-2.08 16.83a47.02 47.02 0 0 1-.84 3.78 13.26 13.26 0 0 1-1.2 3.19c-.24.44-.6.7-.68.65h-.24l-.35-.1a3.82 3.82 0 0 1-.65-.22 5.64 5.64 0 0 1-2.05-1.3z"/><path class="cls-6" d="M244.5 141.47c12.68 7.16 30.71 1.38 31.25-14.19a20.25 20.25 0 0 0-13.75 6.17c-5.79 4.98-12.41 2.74-17.5 8.02zm3.34-47.03c7.31 7 20.28 5.81 26.21-3.09a15.8 15.8 0 0 0 2.72-6.35c-4.39 11.1-19.07 14.84-28.93 9.44zm-19.19-2.23c-3.3 3.81-8.91 8.26-14.14 5.32.26 1.08.56 2.18.92 3.32 5.57-.5 11.04-2.99 13.22-8.64z"/><path class="cls-7" d="M291.25 15.69c-1.51-1.63-2.92-3-4.16-4.17-7.59-7.09-26.49-9-37.88-5.3s-24.71 11.21-31.52 22a71 71 0 0 1 73.56-12.53z"/><path class="cls-6" d="M260.3 84.89a13.48 13.48 0 0 1-7.3.11 4.74 4.74 0 0 0 7.3-.11zm-42.46 1.79a4.53 4.53 0 0 1-1.6-.23 3 3 0 0 0 5-.41c-1.24.45-2.49 1.17-3.4.64zM244.29 148c.66 2.28 2 5 4.57 5.62 4.11 1 14.91-2.33 24.16-9.19-9.65 5.12-20.02 9.81-28.73 3.57z"/><path class="cls-8" d="M311.43 64.64c-2.34-25.75-12.48-40.62-20.18-49a71 71 0 0 0-73.56 12.57l-.05.08c-6.8 10.88-7.95 18.83-7.95 29.28s-.36 19.62 2.72 21.48a5 5 0 0 0-.81 3c.08 2.9 1.56 3.65 1.56 3.65a48 48 0 0 0 1.36 11.77c5.23 2.94 10.83-1.5 14.14-5.32-2.18 5.65-7.64 8.14-13.22 8.64 1.82 5.86 4.88 12.59 9.65 22.29 9 18.37 18.58 21.43 18.58 21.43a18.12 18.12 0 0 0 .64 3.46c8.67 6.21 19.08 1.53 28.73-3.57a50 50 0 0 0 4-3.32A176.7 176.7 0 0 0 300.76 114 54.86 54.86 0 0 0 311 88.71c-3.36 1.1-6.85 1.42-8.31-2.39 3.08.11 5.77-1.65 8.78-1.45a106.18 106.18 0 0 0-.04-20.23zm-95.19 21.81a4.53 4.53 0 0 0 1.6.23c.9.53 2.18-.19 3.37-.63a3 3 0 0 1-4.97.4zm44.06-1.56a4.74 4.74 0 0 1-7.3.11 13.48 13.48 0 0 0 7.3-.11zm-30.47 24c4.09 1.8 8.61 1.6 13.18 2-3.68 4.55-10.87 2.65-13.18-2.03zm14.66 32.61c5.09-5.28 11.71-3 17.52-8a20.25 20.25 0 0 1 13.72-6.17c-.52 15.53-18.56 21.31-31.23 14.14zM274 91.35c-5.93 8.9-18.9 10.11-26.21 3.09 9.86 5.4 24.54 1.66 28.93-9.47a15.8 15.8 0 0 1-2.72 6.38z"/><path class="cls-6" d="M243 110.9c-4.57-.44-9.09-.24-13.18-2 2.32 4.64 9.51 6.54 13.18 2zm59.72-24.58c1.46 3.81 4.95 3.49 8.31 2.39.18-1.22.34-2.51.47-3.84-3.01-.2-5.71 1.56-8.78 1.45z"/><path class="cls-3" d="M275.85 61.69a3.24 3.24 0 0 0 .1-1.68 2.45 2.45 0 0 0-.7-1.32c-12.46.69-23.17 6-32.65 14.41a1.83 1.83 0 0 0 .8 1.37c.73.35 1.55-.38 2.11-.77 1.72-1.18 3.4-2.41 5.13-3.57 6.69-6.31 15.79-8.96 25.21-8.44z"/><path class="cls-9" d="M276.72 74.76l27.12-8.33"/><path class="cls-4" d="M250.62 70.14c1-.67 2-1.32 3.06-1.91C259.51 65 267 62.62 273.81 63a1.92 1.92 0 0 0 2-1.33c-9.38-.5-18.48 2.15-25.19 8.47z"/><path class="cls-10" d="M255.31 61.77a64.1 64.1 0 0 0-8.28 6.1c-1.15.92-2.46 1.75-3.51 2.77a2.91 2.91 0 0 0-1 1.62 7 7 0 0 0 .11.85c9.48-8.4 20.19-13.72 32.65-14.41-1-.94-2.67-1.08-4.08-1.07a33.67 33.67 0 0 0-15.89 4.14z"/><path class="cls-11" d="M242 134.7a36.43 36.43 0 0 1 1.77 6.85s4.34 1.57 11.75 1.23a26.71 26.71 0 0 0 14.41-4.63 17.64 17.64 0 0 0 4.3-4.61c-9.5-5.65-22.61-4.98-32.23 1.16z"/><path class="cls-12" d="M276.09 117.34a10.84 10.84 0 0 0-4.67-4.51l-36.78 8.67 2.75 3.44a56.18 56.18 0 0 1 4.61 9.76c9.63-6.14 22.73-6.81 32.21-1.16a15.9 15.9 0 0 0 2.57-5.57c.61-3.44.85-7.55-.69-10.63z"/><path class="cls-13" d="M247.93 137.22a15.1 15.1 0 0 0-3.67 4.47c13.65 3.7 23-1.75 25.5-3.43-6.57-4.26-15.02-5.01-21.83-1.04z"/><path class="cls-14" d="M269.76 138.26c.42-.29.65-.47.65-.47a21.71 21.71 0 0 0-16.12-3.48 13 13 0 0 0-6.36 2.91c6.81-3.97 15.26-3.22 21.83 1.04z"/><path class="cls-15" d="M271.71 114.32a8.32 8.32 0 0 0-.12-1.42s-3.3-2.16-11.61 0-11.19 3.81-27.39 5.43a14.46 14.46 0 0 0 1.6 5.71c12.9-2.2 28.81-1.04 37.52-9.72z"/><path class="cls-16" d="M234.18 124a3.44 3.44 0 0 0 1.93 1.6c3.14.86 12.52-2 18.11-2.94s11.46-2.43 14.53-2.51c2.44-.06 3-3.62 3-5.88-8.75 8.73-24.66 7.57-37.57 9.73z"/><path class="cls-5" d="M270.51 117.88a2.77 2.77 0 0 1-1.1 1.48 1.48 1.48 0 0 1-.43.14h-.6c-.49 0-1 .08-1.5.15-2 .28-4.23.76-6.56 1.26s-4.76 1-7.27 1.48-5 1.17-7.37 1.74a57.89 57.89 0 0 1-6.86 1.33 6.92 6.92 0 0 1-3-.16 3.85 3.85 0 0 1-1.83-1.82 13.27 13.27 0 0 1-1.22-3.75c-.17-.93-.21-1.46-.21-1.46s0 .53.15 1.47a13.33 13.33 0 0 0 1.09 3.84 4.1 4.1 0 0 0 1.89 2 7.2 7.2 0 0 0 3.15.3 57.36 57.36 0 0 0 7-1.1c2.42-.49 4.92-1.05 7.39-1.49s5-.82 7.32-1.27 4.54-.86 6.49-1.09c.49-.06 1-.1 1.4-.12h.33l.44-.06a2.8 2.8 0 0 0 .82-.27 4 4 0 0 0 1.73-2.18 9.42 9.42 0 0 0 .54-2.48 13.9 13.9 0 0 0 .06-1.42v-.76a6.25 6.25 0 0 0-.14-1c0-.28-.29-.35-.47-.47a4.39 4.39 0 0 0-.48-.22 8 8 0 0 0-.81-.26 11.33 11.33 0 0 0-1.69-.31 18.58 18.58 0 0 0-3.57 0 36.47 36.47 0 0 0-7.35 1.57c-2.44.71-4.87 1.5-7.24 2.14a105.5 105.5 0 0 1-12.61 2.53c-3.31.47-5.42.71-5.42.71s2.11-.16 5.44-.5a103 103 0 0 0 12.73-2c2.41-.57 4.88-1.27 7.32-1.91a36.28 36.28 0 0 1 7.19-1.32 17.73 17.73 0 0 1 3.33.11 10.25 10.25 0 0 1 1.5.31 4.32 4.32 0 0 1 .91.34v1.15c0 .45 0 .88-.07 1.28a8.48 8.48 0 0 1-.42 2.09z"/><path class="cls-5" d="M277.38 118a10.91 10.91 0 0 0-3.79-4.9 11.72 11.72 0 0 0-7.54-1.91c-5.57.27-11 2.8-16.33 4a122 122 0 0 1-14.06 2.67c-3.7.47-6.06.62-6.06.62s2.36 0 6.09-.34a118.37 118.37 0 0 0 14.23-2.08c5.44-1.06 11-3.34 16.18-3.4a10.24 10.24 0 0 1 6.49 1.79 9.53 9.53 0 0 1 3.12 4.17 13.26 13.26 0 0 1 .84 5.29 18.25 18.25 0 0 1-1.64 6.84 17.22 17.22 0 0 1-4.69 6.34 23.27 23.27 0 0 1-7.25 3.81 34.47 34.47 0 0 1-14 1.51 32 32 0 0 1-4.37-.73l-1.59-.44 1.57.52a31.84 31.84 0 0 0 4.36.93 34.69 34.69 0 0 0 14.35-.93 24.07 24.07 0 0 0 7.74-3.7 18.37 18.37 0 0 0 5.31-6.67 19.42 19.42 0 0 0 2-7.4 14.34 14.34 0 0 0-.96-5.99z"/><path class="cls-6" d="M229.16 107.33a9.49 9.49 0 0 0 5.58 5c1.92.6 6.28.66 9.11-1.76a18 18 0 0 1-14.69-3.24z"/><path class="cls-8" d="M243.85 110.58a7.17 7.17 0 0 0 2.22-3.44l-8.75-26.69s2.09 8.38-5.42 17.35c-3.36 4-3.66 7.18-2.74 9.53a18 18 0 0 0 14.69 3.25z"/><path class="cls-5" d="M229.52 103.68a13.15 13.15 0 0 1 2.85-5.56 25.08 25.08 0 0 0 4.15-7.45 20.64 20.64 0 0 0 1.18-7.17 13.71 13.71 0 0 0-.37-3.05 13.88 13.88 0 0 1 .16 3 20.57 20.57 0 0 1-1.6 6.93 25.14 25.14 0 0 1-4.39 7 13.3 13.3 0 0 0-3.3 6 11.1 11.1 0 0 0-.14 1.44 7 7 0 0 0 .06.83 3.75 3.75 0 0 0 .16.88 7.47 7.47 0 0 0 2 3.47 10.72 10.72 0 0 0 3.61 2.44 9.4 9.4 0 0 0 4.37.52 11.17 11.17 0 0 0 3.88-1.07 8 8 0 0 0 2.61-2.05 7.58 7.58 0 0 0 1.1-2l.27-.79-.32.76a7.52 7.52 0 0 1-1.21 1.85 7.74 7.74 0 0 1-2.63 1.8 10.73 10.73 0 0 1-3.74.78 8.72 8.72 0 0 1-4-.69 9.91 9.91 0 0 1-3.14-2.36 6.37 6.37 0 0 1-1.56-5.51z"/><path class="cls-17" d="M211.6 82.11a5 5 0 0 1 .81-3c-3.08-1.86-2.72-11-2.72-21.48s1.15-18.4 7.95-29.28S237.82 9.87 249.2 6.22s30.29-1.79 37.88 5.3 21.55 22.34 24.34 53.13-6.3 43-10.67 49.4a176.71 176.71 0 0 1-23.7 27.08c-9.88 9.08-23.47 13.69-28.19 12.51s-5.21-9.08-5.21-9.08-9.56-3.06-18.58-21.43S213.15 97 213.15 85.76c0 0-1.47-.76-1.55-3.65z"/><path class="cls-5" d="M256.56 75.64a25.92 25.92 0 0 0-7.23 4.36 24.23 24.23 0 0 0-2.89 2.8 15.58 15.58 0 0 0-1.06 1.33 16.45 16.45 0 0 1 1.21-1.18 25.55 25.55 0 0 1 3.15-2.41 33.6 33.6 0 0 1 7.31-3.6c.39-.17.9-.33 1.48-.53a20 20 0 0 1 1.92-.62 36.64 36.64 0 0 1 4.47-1 34.89 34.89 0 0 1 4-.33l1.7-.05-1.69-.16a32.1 32.1 0 0 0-4-.13 31.67 31.67 0 0 0-4.68.56 16.78 16.78 0 0 0-2 .49 12.81 12.81 0 0 0-1.69.47z"/><path class="cls-5" d="M255.57 80.38a36.29 36.29 0 0 1 6.24-1.38 19.44 19.44 0 0 1 3.09-.08 8.74 8.74 0 0 1 1.31.17 8.38 8.38 0 0 0-1.28-.38 18.24 18.24 0 0 0-3.14-.39 23.42 23.42 0 0 0-6.58.73 29.54 29.54 0 0 0-6 2.64l-1.49.86-1.19.78-1.11.73 1.21-.55 1.29-.59 1.58-.63a55.27 55.27 0 0 1 6.07-1.91zm1.43 4.83a8.17 8.17 0 0 1-3.22-.25 5.86 5.86 0 0 1-1.44-.7 3.65 3.65 0 0 1-.54-.43 3.51 3.51 0 0 0 .45.54 5.77 5.77 0 0 0 1.35 1 6.73 6.73 0 0 0 3.46.73 9.25 9.25 0 0 0 3.32-1.1 11.5 11.5 0 0 0 1.44-.83l.59-.38-.65.26a12.87 12.87 0 0 1-1.54.54 13.44 13.44 0 0 1-3.22.62zm-5.82 6.49a28.42 28.42 0 0 1-2.49-2.25 14.34 14.34 0 0 1-1.48-1.8 12.48 12.48 0 0 0 1.13 2.08 13.75 13.75 0 0 0 2.26 2.66 15.15 15.15 0 0 0 3 1.84c.58.26 1.12.51 1.53.64l.66.24-.6-.37c-.37-.21-.85-.55-1.37-.9-1.07-.73-2.11-1.68-2.64-2.14z"/><path class="cls-9" d="M230.34 79.62a11.5 11.5 0 0 1 10.9-1.05"/><path class="cls-18" d="M241.23 78.57c-.43 5.18.83 9.2 3.09 12.14 4.19-6.47 8.39-12.63 12.58-19a31.82 31.82 0 0 0-15.67 6.86z"/><path class="cls-19" d="M261.25 71.44a39.56 39.56 0 0 0-4.08.2h-.26c-4.19 6.41-8.39 12.57-12.58 19a14.24 14.24 0 0 0 1.1 1.36c5.28-7 10.57-14 15.82-20.56z"/><path class="cls-18" d="M261.25 71.44A917.27 917.27 0 0 0 245.43 92a15.9 15.9 0 0 0 6.69 4 291.8 291.8 0 0 0 17.17-23.72 39 39 0 0 0-8.04-.84z"/><path class="cls-19" d="M269.29 72.27A291.8 291.8 0 0 1 252.12 96a19.44 19.44 0 0 0 3.63.77c6.09-7.75 11.3-15.89 17-23.59-.98-.32-2.15-.63-3.46-.91z"/><path class="cls-18" d="M276.72 74.76a24.9 24.9 0 0 0-4-1.58c-5.7 7.7-10.92 15.84-17 23.59 11.28 1.23 24.33-6.67 21-22.01z"/><path class="cls-9" d="M257.17 71.64a31.69 31.69 0 0 0-15.94 6.93c-2.23 27.05 41.26 22.78 35.49-3.81 0 0-7.89-4.32-19.55-3.12z"/><path class="cls-3" d="M306.22 29.65c-4.13-8-10.78-9-10.78-9a18.76 18.76 0 0 1 .84 3.21c4.72 7.42 1.92 16.4-5.91 21.14-2.93 1.47-1.49 5.43.6 8.69 2.47 1.36 4.69 2.77 3.43 6-.53 1.38-1 1.57-.6 3s1.6 2.57 1.94 4.16c1 4.76-1.2 10.58-2.63 15.09a5 5 0 0 0 0 3.7c4.93.27 6.35-4.7 7.44-9.7.3-5.43 1.65-10.86 5.66-14.81a7.13 7.13 0 0 1 6.45-2c.66-15.57-6.44-29.48-6.44-29.48z"/><path class="cls-10" d="M290.37 45c7.83-4.7 10.66-13.67 5.91-21.08 1 5.67-.33 12.46-5.75 15.06-3 1.45-6.86 2.95-7.08 7-.19 3.49 3.78 5.63 6.39 7.1l1.13.63c-2.08-3.33-3.53-7.29-.6-8.71z"/><path class="cls-4" d="M293.14 85.65a2.84 2.84 0 0 0 2.12 1.56c3.89.78 4.87-4.46 5.26-7.2 0-1.34 0-2.71.06-4.07-1.09 5.06-2.5 9.98-7.44 9.71z"/><path class="cls-5" d="M285.29 50.85a21.85 21.85 0 0 0 3.65 2.43 25.78 25.78 0 0 1 4.17 2.56 2.86 2.86 0 0 1 1 2 5.49 5.49 0 0 1-.69 2.51 4.81 4.81 0 0 0-.32.8 2.49 2.49 0 0 0-.06 1 5.53 5.53 0 0 0 .52 1.65 28.36 28.36 0 0 1 1.46 2.73 14.31 14.31 0 0 1 .12 6.25 48.4 48.4 0 0 1-1.67 6.5c-.33 1.11-.71 2.13-1 3.32a4.79 4.79 0 0 0 .49 3.62 3.16 3.16 0 0 0 1.5 1.19 4.07 4.07 0 0 0 1.84.26 3.8 3.8 0 0 0 2.9-2 11.33 11.33 0 0 0 1.17-3.18c.12-.54.22-1.08.3-1.61 0-.29.08-.49.11-.85v-.79a41.66 41.66 0 0 1 .28-6.09 21.21 21.21 0 0 1 3.45-9.74 15.63 15.63 0 0 1 1.34-1.67 7.73 7.73 0 0 1 1.39-1.3 7 7 0 0 1 4.76-1.38l.68.09L312 59a7.24 7.24 0 0 0-2 .05 7.32 7.32 0 0 0-2.87 1.17 7.88 7.88 0 0 0-1.44 1.29 15.79 15.79 0 0 0-1.39 1.65 21.49 21.49 0 0 0-3.7 9.81 42 42 0 0 0-.41 6.15V80c0 .17-.07.5-.12.74-.09.53-.2 1-.32 1.57a10.74 10.74 0 0 1-1.15 3 3.09 3.09 0 0 1-2.39 1.65 2.82 2.82 0 0 1-2.6-1.15 4 4 0 0 1-.32-3c.27-1 .7-2.15 1-3.22a48.91 48.91 0 0 0 1.81-6.61 15.16 15.16 0 0 0-.07-6.8 26.38 26.38 0 0 0-1.47-2.87 4.4 4.4 0 0 1-.39-1.28 1.74 1.74 0 0 1 .29-1.11 6.65 6.65 0 0 0 .84-3.09 4.14 4.14 0 0 0-1.3-2.93 11.73 11.73 0 0 0-2.27-1.59l-2.13-1.2a21.28 21.28 0 0 1-3.43-2.29 5.38 5.38 0 0 1-2-3.12 4.81 4.81 0 0 1 .2-2.1 5 5 0 0 1 1.21-2 16 16 0 0 1 4.64-2.89 12.25 12.25 0 0 0 2.72-1.7 13.47 13.47 0 0 0 1.17-1.18 11.3 11.3 0 0 0 1-1.38A14.58 14.58 0 0 0 297 29a20.05 20.05 0 0 0-.65-6.89l-.11-.42v-.14c0-.08-.09-.21-.07-.26l.28.06.18.05.39.13A15.14 15.14 0 0 1 300 23a17.92 17.92 0 0 1 2.58 2.09 18.86 18.86 0 0 1 2.1 2.53 29.08 29.08 0 0 1 2.94 5.73c.8 2 1.48 3.88 2.08 5.75a68.54 68.54 0 0 1 2.3 10.25c.26 1.48.35 2.85.49 4s.14 2.24.16 3.09v2.66l.06-2.66c0-.85-.06-1.89-.09-3.1s-.18-2.57-.41-4.07A68.47 68.47 0 0 0 310.05 39a64.03 64.03 0 0 0-2-5.83 29.59 29.59 0 0 0-2.89-5.91 19.53 19.53 0 0 0-2.13-2.67 18.65 18.65 0 0 0-2.66-2.24 15.93 15.93 0 0 0-3.11-1.64l-.42-.15a6.53 6.53 0 0 0-.63-.19 12.45 12.45 0 0 0-1.3-.28h-.08v.23l.09.32.18.65.18.65.1.41a19.14 19.14 0 0 1 .51 6.57 13.55 13.55 0 0 1-1.89 6 10.18 10.18 0 0 1-.88 1.22 12.49 12.49 0 0 1-1 1 11 11 0 0 1-2.47 1.49 16.93 16.93 0 0 0-5 3.09 6.34 6.34 0 0 0-1.54 2.45 6.08 6.08 0 0 0-.27 2.71 6.63 6.63 0 0 0 2.45 3.97zm-23.93 14.72a37.89 37.89 0 0 1 10-2h2.35a3.43 3.43 0 0 0 1-.09 2.34 2.34 0 0 0 1.55-1.28 3.43 3.43 0 0 0 .28-1.89 3.12 3.12 0 0 0-.76-1.76 3.47 3.47 0 0 0-1.6-1 10.06 10.06 0 0 0-3.4-.28 34.43 34.43 0 0 0-11.07 2.36 30 30 0 0 0-3.18 1.47l-1.13.63s.41-.22 1.16-.58a30.25 30.25 0 0 1 3.23-1.32 34.42 34.42 0 0 1 11-1.89 9.44 9.44 0 0 1 3.13.37 2.25 2.25 0 0 1 1.69 2 1.77 1.77 0 0 1-1.16 2.07 2.37 2.37 0 0 1-.66 0h-2.44a35.64 35.64 0 0 0-10.34 1.86 41.61 41.61 0 0 0-9.44 4.58c-1.77 1.16-3.53 2.5-5.33 3.8l-1.35 1c-.42.32-.88.57-1.17.48s-.55-.5-.67-1a5.41 5.41 0 0 1-.13-.76.91.91 0 0 1 .13-.59 5 5 0 0 1 1-1.15c.37-.36.77-.69 1.17-1 .8-.63 1.62-1.23 2.35-1.86 1.47-1.24 2.78-2.37 3.94-3.28a33.11 33.11 0 0 1 3.92-2.75 32.68 32.68 0 0 0-4 2.58c-1.2.86-2.57 1.94-4.08 3.11-.75.59-1.57 1.14-2.42 1.75-.42.31-.84.63-1.25 1a5.49 5.49 0 0 0-1.13 1.28 1.61 1.61 0 0 0-.24 1 6.1 6.1 0 0 0 .11.86 2.93 2.93 0 0 0 .32.89 1.49 1.49 0 0 0 .84.7 1.63 1.63 0 0 0 1.09-.09 4.45 4.45 0 0 0 .8-.46l1.38-.93c1.85-1.25 3.65-2.52 5.41-3.6a45.23 45.23 0 0 1 9.1-4.23z"/><path class="cls-10" d="M227.22 73.31a35.74 35.74 0 0 0-9.61-6c-5.26-2-8.75-1.66-9.77-1.29a1.91 1.91 0 0 0-1 1.4c7 .78 15.08 1.83 20.7 6.68a1.17 1.17 0 0 0-.32-.79z"/><path class="cls-4" d="M208.76 72.31a3.57 3.57 0 0 0 1.49.15 29.47 29.47 0 0 1 10.26 1.06c.54.18 1 .38 1.52.58a12.77 12.77 0 0 0-13.27-1.79z"/><path class="cls-3" d="M227.55 74.15c-5.61-4.85-13.69-5.9-20.7-6.68a4.58 4.58 0 0 0 .13 2.62c.41 1.12.86 1.91 1.78 2.23A12.77 12.77 0 0 1 222 74.1c2.61 1.1 4.28 2.31 4.87 2s.71-1.56.68-1.95z"/><path class="cls-5" d="M207.5 69.47a3.77 3.77 0 0 1 .16-2.38c.22-.41.32-.48 1-.61a9.52 9.52 0 0 1 1.82-.16 22.6 22.6 0 0 1 8 1.73 34.7 34.7 0 0 1 6.3 3.42c1.56 1.05 2.47 1.82 2.47 1.82s-.85-.83-2.34-2a34.1 34.1 0 0 0-6.15-3.87 22.69 22.69 0 0 0-8.25-2.25 10.36 10.36 0 0 0-2.05.09 3.16 3.16 0 0 0-1.1.33 2.25 2.25 0 0 0-.81.89 4.83 4.83 0 0 0-.33 3.3 6.25 6.25 0 0 0 .36 1 5.23 5.23 0 0 0 .63 1.12 2.84 2.84 0 0 0 1.27 1 3.88 3.88 0 0 0 1.59.2 33.86 33.86 0 0 1 6 0 20.14 20.14 0 0 1 6 1.36c.92.35 1.77.75 2.56 1.12.4.18.78.36 1.16.51a1.11 1.11 0 0 0 1.79-1 3.72 3.72 0 0 0 0-1 1.37 1.37 0 0 0-.2-.58.64.64 0 0 0-.14-.16.64.64 0 0 1 .13.17 1.34 1.34 0 0 1 .15.58 3.65 3.65 0 0 1 0 .95 1.38 1.38 0 0 1-.58 1c-.27.12-.62 0-1-.2l-1.1-.58c-.77-.42-1.6-.88-2.51-1.3a20.43 20.43 0 0 0-6.12-1.77 32.43 32.43 0 0 0-6.19-.29 1.87 1.87 0 0 1-1.76-.72 5.77 5.77 0 0 1-.76-1.72zm12.16 11.83a26.32 26.32 0 0 1 2.88 1.53 16.41 16.41 0 0 1 1.84 1.33 13.85 13.85 0 0 0-1.56-1.69 12.9 12.9 0 0 0-2.75-2 11.23 11.23 0 0 0-3.27-1 11.83 11.83 0 0 0-1.62-.11h-.68l.67.14a13.42 13.42 0 0 1 1.53.41 19.71 19.71 0 0 1 2.96 1.39zm-.56 1.42a8.42 8.42 0 0 0-3.22.76 7.07 7.07 0 0 0-1.34.83 3.63 3.63 0 0 0-.48.45 3.81 3.81 0 0 1 .56-.33 7.45 7.45 0 0 1 1.38-.53 12.36 12.36 0 0 1 3.07-.29 18.88 18.88 0 0 1 3.12.15 14 14 0 0 1 1.51.26l.64.13-.6-.27a12.12 12.12 0 0 0-1.45-.57 10.61 10.61 0 0 0-3.19-.59zm4.31 8.88a6.74 6.74 0 0 0 1.21-2.07A6.59 6.59 0 0 0 225 88a7.36 7.36 0 0 1-.7 1.42 10.81 10.81 0 0 1-1.4 1.77 12.21 12.21 0 0 1-1.62 1.58 10 10 0 0 1-.92.63l-.41.25.45-.15a8.65 8.65 0 0 0 1.05-.44 7.19 7.19 0 0 0 1.96-1.46zm-4.54-5.26a10.51 10.51 0 0 1-2 0 6.77 6.77 0 0 1-1.37-.24 6.5 6.5 0 0 0 3.4.87 6.28 6.28 0 0 0 2-.59 7.71 7.71 0 0 0 .87-.5l.35-.23-.4.14a9.13 9.13 0 0 1-.94.28 11.74 11.74 0 0 1-1.91.27z"/><path class="cls-6" d="M306.7 66.43c2.86-4.3 7.52-3.81 11-1a13.42 13.42 0 0 0-.56-2.56c-3.56-2.1-8.38-1.58-10.44 3.56zm-4.18 19.13a3 3 0 0 0 .63 1.28c2.09 2.54 6.23-.09 7.89-1.91a19.34 19.34 0 0 0 1.86-2.42c-3.41 2.57-7.51 5.49-10.38 3.05z"/><path class="cls-6" d="M317.68 69.38a17.52 17.52 0 0 0 0-4c-2.42-1.94-5.43-2.75-8-1.59 3.32-.79 6.56 1.85 8 5.59z"/><path class="cls-8" d="M309.68 63.8a7.11 7.11 0 0 0-3 2.63 9.32 9.32 0 0 1 .81-1.57c2.33-3.65 6.47-3.86 9.61-2-.93-2.85-2.93-5-6.62-4.39-4.09.68-6.74 5.5-8.1 9L307.77 82c-1.19-2.82-5.92.52-5.25 3.61 2.87 2.46 7-.47 10.38-3.05a33.08 33.08 0 0 0 4.73-12.65c0-.15 0-.32.05-.48-1.44-3.79-4.68-6.43-8-5.63z"/><path class="cls-5" d="M317.53 73.59a27 27 0 0 0 .74-3.7 18.08 18.08 0 0 0-.07-4.89 10.42 10.42 0 0 0-2.1-5.09 5.66 5.66 0 0 0-2.39-1.65 5.57 5.57 0 0 0-1.42-.26h-.71l-.69.08a7.46 7.46 0 0 0-4.49 2.4 16 16 0 0 0-2.4 3.4 24.07 24.07 0 0 0-1.2 2.59l-.37 1 .43-1a24.28 24.28 0 0 1 1.3-2.47 15.85 15.85 0 0 1 2.55-3.22 6.93 6.93 0 0 1 4.27-2h.63c.21 0 .42 0 .62.05a4.41 4.41 0 0 1 3.16 1.76 9.55 9.55 0 0 1 1.68 4.66 20.74 20.74 0 0 1-.84 8.07 35.18 35.18 0 0 1-3 7.67 19 19 0 0 1-3 4.17 8.59 8.59 0 0 1-4.43 2.44 2.69 2.69 0 0 1-3.13-2.6 4.29 4.29 0 0 1 1.86-3.38 2.38 2.38 0 0 1 2.58-.45 1.79 1.79 0 0 1 .66.79 1.8 1.8 0 0 0-.63-.84 2.51 2.51 0 0 0-2.73.32 5.24 5.24 0 0 0-1.41 1.38 3.91 3.91 0 0 0-.74 2.17 3.24 3.24 0 0 0 3.62 3.2 9.27 9.27 0 0 0 5-2.44 19.46 19.46 0 0 0 3.34-4.28 32 32 0 0 0 3.31-7.88z"/><path class="cls-5" d="M303.84 72.45a23.91 23.91 0 0 1 1-2.19 20.17 20.17 0 0 1 3.09-4.64 7.25 7.25 0 0 1 2.52-1.84 5.38 5.38 0 0 1 2.92-.25 6.48 6.48 0 0 1 3.79 2.55l1.12-.75a7.46 7.46 0 0 0-1.79-1.75 6.54 6.54 0 0 0-2.94-1.18 6.29 6.29 0 0 0-3.47.53 7.92 7.92 0 0 0-2.66 2.24 20 20 0 0 0-2.78 5 23 23 0 0 0-.8 2.28z"/><path class="cls-18" d="M208.33 80.95a19.75 19.75 0 0 0-.18 6c1.66-2.78 3.25-5.56 4.57-8.34a22.25 22.25 0 0 0-4.39 2.34z"/><path class="cls-19" d="M214.89 77.82a20.49 20.49 0 0 0-2.16.74 104.2 104.2 0 0 1-4.57 8.34 18.29 18.29 0 0 0 .5 2.62c1.86-3.9 4.01-7.8 6.23-11.7z"/><path class="cls-18" d="M214.89 77.82c-2.21 3.9-4.37 7.8-6.23 11.7a14.06 14.06 0 0 0 2.16 4.62c3.31-6 7.47-11.4 11.23-17a20.08 20.08 0 0 0-7.16.68z"/><path class="cls-19" d="M222 77.18c-3.76 5.57-7.92 11-11.23 17a10.76 10.76 0 0 0 1.23 1.27c3.35-6.82 8.92-11.81 13.74-17.63a21.63 21.63 0 0 0-3.74-.64z"/><path class="cls-18" d="M230.35 79.67a19.21 19.21 0 0 0-4.65-1.85c-4.82 5.82-10.39 10.81-13.74 17.63a9.5 9.5 0 0 0 5.85 2.71c9.62.96 14.06-10.08 12.54-18.49z"/><path class="cls-9" d="M230.35 79.67a20.81 20.81 0 0 0-22 1.28c-1.35 7.21 1.4 16.41 9.48 17.22 9.6.95 14.04-10.09 12.52-18.5z"/><path class="cls-3" d="M242.87 14a44 44 0 0 0-7.87 1.26 52.74 52.74 0 0 0-9.43 3.3 49.88 49.88 0 0 0-7.41 4.22 29.43 29.43 0 0 0-2.86 2.2 30.53 30.53 0 0 1 3-1.9 51.88 51.88 0 0 1 7.7-3.48 56.85 56.85 0 0 1 9.39-2.48 63.16 63.16 0 0 1 7.57-.82 62.37 62.37 0 0 1 7.62-.07 61 61 0 0 1 9.64 1.29 67.89 67.89 0 0 1 8.1 2.32l3.36 1.29-3.22-1.61a64 64 0 0 0-7.94-3.08 56.11 56.11 0 0 0-9.76-2.09 43.59 43.59 0 0 0-7.89-.35z"/><path class="cls-3" d="M245.11 7.2a39.8 39.8 0 0 0-8.1.64 48.5 48.5 0 0 0-9.83 2.88 47.8 47.8 0 0 0-7.75 4 29.34 29.34 0 0 0-3 2.16 30.38 30.38 0 0 1 3.17-1.86 49.45 49.45 0 0 1 8-3.29 51.44 51.44 0 0 1 9.72-2.05 55.45 55.45 0 0 1 25.13 3 62.35 62.35 0 0 1 7.86 3.55l3.2 1.83-3-2.13a59.37 59.37 0 0 0-7.61-4.28 50.26 50.26 0 0 0-9.67-3.36 39.56 39.56 0 0 0-8.12-1.09z"/><path class="cls-20" d="M318.1 65.41v-.36A10.35 10.35 0 0 0 316 60a5.6 5.6 0 0 0-2.36-1.64c-.32-.08-.65-.18-1-.23v-1.61c0-.85-.06-1.89-.1-3.1s-.19-2.57-.42-4.06A68.49 68.49 0 0 0 310 39a67.06 67.06 0 0 0-3.25-8.82 15.29 15.29 0 0 0-.76-1.48 13.94 13.94 0 0 0-.88-1.43 19.48 19.48 0 0 0-2.11-2.62 18.6 18.6 0 0 0-2.65-2.23 15.87 15.87 0 0 0-3.1-1.63l-.42-.15-.21-.07-.32-.09-.32-.08a75.85 75.85 0 0 0-8.52-9.4c-8-7.46-27.26-9.05-38.51-5.44a71.58 71.58 0 0 0-4.85 1.75A41.17 41.17 0 0 0 237 8a48.69 48.69 0 0 0-9.83 2.82 47.92 47.92 0 0 0-7.76 4 29.41 29.41 0 0 0-3 2.14 30.3 30.3 0 0 1 3.12-1.96 49.33 49.33 0 0 1 7.94-3.34 51.22 51.22 0 0 1 9.73-2.11 51.3 51.3 0 0 1 2.29-.21A63.45 63.45 0 0 0 224.8 19a49.69 49.69 0 0 0-6.64 3.79 29.5 29.5 0 0 0-2.87 2.21 30.44 30.44 0 0 1 3-1.92 49 49 0 0 1 4.62-2.31A40.34 40.34 0 0 0 217 28a61.86 61.86 0 0 0-3 5.33 29.46 29.46 0 0 0-2.81 3c-.4.48-.76 1-1.14 1.54s-.71 1.12-1 1.7c-.66 1.16-1.32 2.37-2 3.63-1.25 2.5-2.54 5.23-2.64 8.26a10.53 10.53 0 0 0 .9 4.32l1.51 3.86a26 26 0 0 1 1.18 3.7 11.85 11.85 0 0 1 .25 1.75v.29a2.77 2.77 0 0 0-.95.3 2.16 2.16 0 0 0-.77.85 4.75 4.75 0 0 0-.32 3.24 7.31 7.31 0 0 0 .51 1.35 3.44 3.44 0 0 0 1.19 1.43 3 3 0 0 0 1.39.43c.28 2.53.79 4.51 1.69 5.73a23.23 23.23 0 0 0-3 1.79.54.54 0 0 0-.22.34c-.94 5 .08 10.27 2.65 13.71a10.44 10.44 0 0 0 3.37 2.94c1.61 6.74 4.88 14.12 10.67 25.93C232.54 139.91 241 144.21 243 145c.18 1.73 1.14 8.11 5.66 9.24a7.91 7.91 0 0 0 1.9.2 30.63 30.63 0 0 0 10.66-2.64 55.9 55.9 0 0 0 16.22-10.22 176 176 0 0 0 23.8-27.2l.44-.64c3.41-5 9-13.23 10.5-29.6a23.11 23.11 0 0 0 1.9-2.74 32.19 32.19 0 0 0 3.31-7.87 27.22 27.22 0 0 0 .75-3.69 18.1 18.1 0 0 0-.04-4.43zm-1.68-2.92h.05z"/><path class="cls-21" d="M35.69 194.93c0-.39.35-.86 1.12-1.41s1.74-1.17 2.91-1.86l3.87-2.28q2.11-1.25 4-2.62a26.65 26.65 0 0 0 3.41-2.88 7.58 7.58 0 0 0 2-3.11q-.21-.83-1.41-1a14.46 14.46 0 0 0-3.09 0q-1.89.15-4.25.54t-4.88.64q-2.51.25-5 .31a16.8 16.8 0 0 1-4.5-.46 8.72 8.72 0 0 1-3.51-1.8 6.31 6.31 0 0 1-2-3.4 10.94 10.94 0 0 1-.15-4.56 19.74 19.74 0 0 1 1.48-4.79 27.24 27.24 0 0 1 2.68-4.65 29.54 29.54 0 0 1 3.5-4.09 24.59 24.59 0 0 1 3.92-3.13 13.55 13.55 0 0 1 3.91-1.76l1.05-.3a4.16 4.16 0 0 1 1-.19 1.23 1.23 0 0 1 .8.24 1.59 1.59 0 0 1 .53.93 2.64 2.64 0 0 1-.47 2.58 4.7 4.7 0 0 1-2.39 1.35l-2.57-1A6.87 6.87 0 0 0 35 157.7a18.55 18.55 0 0 0-2.63 2.71A27.4 27.4 0 0 0 30 164a25.86 25.86 0 0 0-1.83 3.9 19.28 19.28 0 0 0-1 3.81 8.18 8.18 0 0 0 .07 3.18 4.64 4.64 0 0 0 1.88 2.87 7.63 7.63 0 0 0 3.38 1.16 19.7 19.7 0 0 0 4.41 0q2.42-.26 4.88-.64l4.84-.78a23.47 23.47 0 0 1 4.33-.36 8.7 8.7 0 0 1 3.24.6 2.81 2.81 0 0 1 1.66 2 1.68 1.68 0 0 1 .26 2.1 10.36 10.36 0 0 1-2.1 3 38.79 38.79 0 0 1-3.71 3.37q-2.19 1.77-4.57 3.35T41 194.32a28.36 28.36 0 0 1-4 1.86 1.27 1.27 0 0 1-.95-.12q-.37-.23-.36-1.13zM77 171.38q0 2.2-.33 4.91a26 26 0 0 1-1.11 5.23A14.52 14.52 0 0 1 73.2 186a7.18 7.18 0 0 1-4 2.59 5.7 5.7 0 0 1-3.35 0 5.62 5.62 0 0 1-2.42-1.7 12 12 0 0 1-1.74-2.76 29.19 29.19 0 0 1-1.26-3.21q-.2-.54-.68-2.23t-1.13-4q-.64-2.3-1.39-4.9t-1.41-4.86l-1.15-4q-.49-1.74-.67-2.24a2.08 2.08 0 0 1-.16-.88.8.8 0 0 1 .28-.55 1.79 1.79 0 0 1 .6-.33l.63-.19.44-.11a3.34 3.34 0 0 1 .63-.1 1.11 1.11 0 0 1 .57.12.69.69 0 0 1 .36.47l6 23.73a7 7 0 0 0 .81 1.93 7.63 7.63 0 0 0 1.34 1.65 5 5 0 0 0 1.75 1.07 3.44 3.44 0 0 0 2 .08 5.12 5.12 0 0 0 3.08-3.18 20.83 20.83 0 0 0 1.31-5.93 51 51 0 0 0 .09-7.37q-.22-3.91-.54-7.51t-.58-6.38a15.65 15.65 0 0 1 0-4q.82-1.21 1.55-.9a2.93 2.93 0 0 1 1.29 1.22 8.67 8.67 0 0 1 .9 2 5.11 5.11 0 0 1 .31 1.67q.95 3.73 1.51 7.5t1.53 7.56q.61 2.4 1.44 4.73t1.71 4.66q.88 2.33 1.71 4.64T86 189a8.12 8.12 0 0 1 .18.93 2.69 2.69 0 0 1 0 .93 2.13 2.13 0 0 1-.36.8 1.48 1.48 0 0 1-.88.52 2.41 2.41 0 0 0-.4 0zm-.07-32.24h.4q.35 0 .75-.1t.77-.11h.43a6.32 6.32 0 0 1 .86-.13.6.6 0 0 1 .72.5l1.24 4.9a7.28 7.28 0 0 0 1.9-1.67 29.13 29.13 0 0 1 2.48-2.38 20.66 20.66 0 0 1 3.38-2.34 13.45 13.45 0 0 1 4.67-1.48 19.75 19.75 0 0 1 6.46.47 3.6 3.6 0 0 1 2.58 2 4.34 4.34 0 0 1-.4 3.21 21.81 21.81 0 0 1-2.5 4 55 55 0 0 1-3.77 4.42l-4.16 4.4-3.7 4a18.61 18.61 0 0 0-2.4 3.16q1 .17 2.91.6l4.21.95q2.3.52 4.79 1.13t4.69 1.09q2.2.48 3.95.84a22.89 22.89 0 0 0 2.48.41c.42.09.81.17 1.19.23s.6.22.88.31.44.21.47.35a2.09 2.09 0 0 1 0 .65 2.48 2.48 0 0 1-.23.83 4.49 4.49 0 0 1-.44.73 1 1 0 0 1-.52.4h-.46l-.84-.17q-.72-.14-1.51-.36a23.44 23.44 0 0 0-2.41-.52q-.67-.07-2.2-.36l-3.43-.67q-1.9-.38-4-.84l-4-.87q-1.91-.41-3.43-.67a10.45 10.45 0 0 0-2.16-.22l4.32 17-2.51.63zm6.1 8.65q.14 1 .37 2.4t.45 2.85q.23 1.48.51 3t.59 2.69a6.31 6.31 0 0 1 1.32-1.34q1.17-1 2.81-2.49t3.53-3.27q1.89-1.78 3.51-3.59a35.93 35.93 0 0 0 2.77-3.46 6.72 6.72 0 0 0 1.29-2.85 1.8 1.8 0 0 0-.95-1.86 7.22 7.22 0 0 0-3.95-.48 16.33 16.33 0 0 0-3.38 1 21.41 21.41 0 0 0-3.6 1.92 21.12 21.12 0 0 0-3.18 2.55 9.58 9.58 0 0 0-2.12 2.93zm34.05 27.01q-1.9-7-3.32-12.05t-2.4-8.43q-1-3.42-1.64-5.42t-1-3.21c-.24-.81-.43-1.38-.56-1.73a10.05 10.05 0 0 1-.32-1q-.24-.95.25-1.34a3.49 3.49 0 0 1 1.33-.6 2.67 2.67 0 0 1 1.57 0q.62.23 1 1.73l8.65 29.7.53-.25a12.27 12.27 0 0 0 1.08-.63l1.27-.83a10.49 10.49 0 0 0 1.05-.77q.6-.45 1.78-1.4l2.66-2.15 3.12-2.54q1.65-1.34 3.16-2.52t2.66-2.16q1.15-1 1.75-1.42l.67-.17a4.22 4.22 0 0 1 .68-.11 1 1 0 0 1 .63.14 1.16 1.16 0 0 1 .45.6 2.17 2.17 0 0 1 0 1 8.83 8.83 0 0 1-.3 1 24.22 24.22 0 0 0-5.87 3.86q-2.74 2.41-5.39 4.92a66.68 66.68 0 0 1-5.46 4.65 16.83 16.83 0 0 1-6.1 3q-1.38.33-1.93-1.87zm38.8-9a13.25 13.25 0 0 1-.38-4.08q.13-2.08.36-4.21t.27-4.19a12 12 0 0 0-.66-4.13l-4.55-3q-2.48-1.63-4.92-3.34a54.7 54.7 0 0 1-4.69-3.79 27.73 27.73 0 0 1-3.87-4.27.23.23 0 0 1-.1-.15l-.06-.22a.91.91 0 0 1 .28-1 2.67 2.67 0 0 1 1-.49q1.88 1.36 4.09 3.14t4.48 3.52q2.28 1.74 4.56 3.26a25 25 0 0 0 4.31 2.35l.72-.18a17 17 0 0 0 .29-2.12q.17-1.67.44-4t.51-5.11q.24-2.79.42-5.47t.21-5v-3.78c0-.08.12-.15.31-.2a1.65 1.65 0 0 1 1.55.41 2.16 2.16 0 0 1 .81 1.43q-.16 5.67-.28 9.32t-.21 6q-.1 2.31-.21 3.73t-.29 2.71q-.18 1.29-.32 2.84l-.38 4.13q-.23 2.58-.52 6.59t-.67 10.22l-.3.11-.35.12a1.32 1.32 0 0 1-1.85-1.15zm11.28-30.36q-1.3-5.13-2.35-10.22t-2.07-10.53a1.18 1.18 0 0 1 .26-.69 1.2 1.2 0 0 1 .58-.29.93.93 0 0 1 .86.11 1.87 1.87 0 0 1 .48.62 3.35 3.35 0 0 1 .27.85q.09.48.18.81l4.32 17a14.74 14.74 0 0 0 .7 2.08l.9 2.14a19.83 19.83 0 0 1 .84 2 4.27 4.27 0 0 1 .28 1.68 1.83 1.83 0 0 1-.37 1.22 1.79 1.79 0 0 1-1 .73 1.44 1.44 0 0 1-1.65-.65 8.06 8.06 0 0 1-1.07-2.22 22.22 22.22 0 0 1-.68-2.67l-.48-1.97zm10.07 25l-.23-.89a3.3 3.3 0 0 1-.09-.6 1.27 1.27 0 0 1 .09-.59.61.61 0 0 1 .45-.35q1.11-.28 1.44.2a3.76 3.76 0 0 1 .51 1.2 3.7 3.7 0 0 1 .13 1.33q-.07.55-1.18.83a.61.61 0 0 1-.56-.1 1.28 1.28 0 0 1-.36-.47 3.31 3.31 0 0 1-.2-.55zM18.84 98.86l2.47 12.3L17 112l-2.47-12.3-3.85.77L10 97l12-2.4.7 3.49zm18.25-7.3l3.18 15.8-4.29.86-1.29-6.43-5 1 1.31 6.43-4.29.86-3.18-15.8 4.29-.86L29 99.28l5-1-1.2-5.86zm14.74 9.85l.7 3.48-9.38 1.89L40 91l9.38-1.89.62 3.42-5.1 1 .5 2.49 4.73-1 .69 3.42-4.73 1 .6 3zm1.64-1.48a12.42 12.42 0 0 0 2.77.48 9.47 9.47 0 0 0 2.37-.13 2.69 2.69 0 0 0 1.4-.61 1 1 0 0 0 .29-1 .93.93 0 0 0-.29-.53 2.4 2.4 0 0 0-.64-.37 22.25 22.25 0 0 0-2.24-.59 11.1 11.1 0 0 1-2.69-.91 4.47 4.47 0 0 1-2.22-3.2 4.17 4.17 0 0 1 .89-3.75 7.15 7.15 0 0 1 4.12-2.1 12.54 12.54 0 0 1 5.24.13L61.82 91a9.7 9.7 0 0 0-4-.24 2.12 2.12 0 0 0-1.13.52.87.87 0 0 0-.25.82 1.07 1.07 0 0 0 .65.74 17.83 17.83 0 0 0 2.83.8A7.49 7.49 0 0 1 63.16 95a4.25 4.25 0 0 1 1.34 2.48 4.51 4.51 0 0 1-1 4 6.92 6.92 0 0 1-4.23 2.29 13.3 13.3 0 0 1-2.73.31 10.13 10.13 0 0 1-2.34-.32zm22.73-3.42l.7 3.48-9.38 1.89-3.18-15.8 9.38-1.89.69 3.43-5.1 1 .5 2.49 4.73-1 .69 3.42-4.73 1 .6 3zm12.96 1.02l-4.29.86-3.17-15.8 4.3-.86zm15.57-10.34q-.28-1.37-.73-4.46h-.1l-.9 12-4.07.82-5.52-10.72h-.1q.79 2.77 1.14 4.48l1.38 6.85-3.83.78-3.18-15.8L94.56 80l5.54 10.55h.08l1-11.86 5.7-1.15L110 93.33l-3.93.79zm22.65 2.65l-4.67.94-1.36-2.78-5.14 1-.2 3.12-4.69.94 2-16.89L119 75zm-11-4.51l3.36-.68q-2.62-5.32-3.07-6.45.07 1.54-.28 7.13zm16.8-2.85l-.66-3.29 6.82-1.37 1.71 8.51a19.05 19.05 0 0 1-5.91 2.17 7.55 7.55 0 0 1-6.07-1 8.56 8.56 0 0 1-3.2-5.59 8.2 8.2 0 0 1 1-6.45 8.54 8.54 0 0 1 5.69-3.36 12.79 12.79 0 0 1 5.31 0l-.67 3.62a8.28 8.28 0 0 0-3.82-.11 3.75 3.75 0 0 0-2.74 1.81 5.32 5.32 0 0 0-.33 3.66 5.48 5.48 0 0 0 1.61 3.22 3.26 3.26 0 0 0 2.9.63 7.35 7.35 0 0 0 1.7-.54l-.5-2.47zm19.4-1.33l.7 3.48-9.38 1.89-3.18-15.8 9.38-1.89.69 3.43-5.1 1 .5 2.49 4.73-1 .69 3.42-4.73 1 .6 3zm1.65-1.48a12.42 12.42 0 0 0 2.77.48 9.47 9.47 0 0 0 2.37-.13 2.69 2.69 0 0 0 1.4-.61 1 1 0 0 0 .29-1 .93.93 0 0 0-.29-.53 2.4 2.4 0 0 0-.64-.37 22.25 22.25 0 0 0-2.24-.59 11.1 11.1 0 0 1-2.69-.91 4.47 4.47 0 0 1-2.22-3.2 4.17 4.17 0 0 1 .89-3.75A7.15 7.15 0 0 1 158 67a12.54 12.54 0 0 1 5.24.13l-.65 3.55a9.7 9.7 0 0 0-4-.24 2.12 2.12 0 0 0-1.13.52.87.87 0 0 0-.25.82 1.07 1.07 0 0 0 .65.74 17.83 17.83 0 0 0 2.83.8 7.49 7.49 0 0 1 3.27 1.42 4.25 4.25 0 0 1 1.34 2.48 4.51 4.51 0 0 1-1 4 6.92 6.92 0 0 1-4.23 2.29 13.3 13.3 0 0 1-2.73.31 10.13 10.13 0 0 1-2.34-.32zM32.17 132.12L28 133l-1.23-2.54-4.64.93-.18 2.82-4.24.85 1.77-15.26 5.15-1zM22.25 128l3-.61q-2.37-4.8-2.77-5.83.08 1.44-.23 6.44zm13.92-2.09l1 5.19-3.86.78-2.87-14.27 4.67-.94q5.82-1.17 6.67 3a4.3 4.3 0 0 1-1.61 4.33l5.41 5.38-4.37.88-4.07-4.59zm-1.24-6.16l.66 3.26.72-.14q2-.41 1.67-2.2-.3-1.47-2.28-1.08zm19.56 4.61l.63 3.14-8.47 1.7-2.87-14.27 8.47-1.7.62 3.1-4.61.93.45 2.24 4.27-.86.62 3.09-4.27.86.54 2.69zm19.28-7.12q-.25-1.24-.66-4h-.09l-.81 10.84-3.68.74-5-9.69h-.09q.72 2.51 1 4l1.24 6.19-3.42.69-2.87-14.27 5.14-1 5 9.53h.08l.88-10.71 5.15-1 2.87 14.27-3.51.67zm20.48 2.39l-4.22.85-1.23-2.54-4.64.93-.16 2.83-4.24.85 1.77-15.26 5.15-1zm-9.92-4.07l3-.61q-2.37-4.8-2.77-5.83.08 1.39-.24 6.44zm14.97 3.06l-3.87.78-2.87-14.27 3.87-.78 1.25 6.2a16.13 16.13 0 0 1 .81-2.07l2.13-5 4.21-.85-3.2 7.3 6 7-4.35.87-3.92-4.89-1 .91zm13.41-2.7l-3.87.78-2.84-14.27 3.87-.78zM126 98.39l2.87 14.27-5.05 1-7.24-9h-.09q.68 2.41.91 3.58l1.29 6.43-3.42.69-2.87-14.27 5-1 7.18 8.88h.07q-.56-2.05-.84-3.44l-1.3-6.45zm3.35-.64l3.34-.67.2.19a38.21 38.21 0 0 1-.63 5.83l-2.71.55q.03-3.2-.2-5.9zm25.45 3.2q-.25-1.24-.66-4h-.09l-.81 10.84-3.68.74-5-9.69h-.09q.72 2.51 1 4l1.24 6.19-3.42.69-2.87-14.27 5.14-1 5 9.53h.08l.88-10.71 5.15-1 2.87 14.27-3.55.71zm15.26.17l.63 3.14-8.47 1.7-2.87-14.26 8.47-1.7.62 3.1-4.61.93.45 2.24 4.27-.86.62 3.09-4.27.86.54 2.69z"/></g></g></svg>